<svg width="55" height="40" viewBox="0 0 55 40" fill="none" xmlns="http://www.w3.org/2000/svg">
<path d="M29.5665 10.6773C29.5665 7.49004 30.6792 4.94024 32.9046 3.02789C35.1301 1.0093 37.9383 0 41.3295 0C45.5684 0 48.9066 1.32802 51.3439 3.98406C53.7813 6.6401 55 10.0398 55 14.1833C55 18.6454 54.2582 22.417 52.7746 25.498C51.3969 28.4728 49.6484 30.9695 47.5289 32.988C45.5154 35.0066 43.396 36.6003 41.1705 37.7689C39.0511 38.8313 37.1965 39.575 35.6069 40L30.0434 30.5976C32.3748 29.7477 34.3882 28.579 36.0838 27.0916C37.7794 25.498 38.7331 23.4794 38.9451 21.0359C36.7197 21.2483 34.6002 20.4515 32.5867 18.6454C30.5732 16.8393 29.5665 14.1833 29.5665 10.6773ZM0 10.6773C0 7.49004 1.11272 4.94024 3.33815 3.02789C5.56358 1.0093 8.37187 0 11.763 0C16.0019 0 19.3401 1.32802 21.7775 3.98406C24.2148 6.6401 25.4335 10.0398 25.4335 14.1833C25.4335 18.6454 24.6917 22.417 23.2081 25.498C21.8304 28.4728 20.0819 30.9695 17.9624 32.988C15.9489 35.0066 13.8295 36.6003 11.604 37.7689C9.48459 38.8313 7.63006 39.575 6.04046 40L0.476878 30.5976C2.80828 29.7477 4.82177 28.579 6.51734 27.0916C8.21291 25.498 9.16667 23.4794 9.37861 21.0359C7.15318 21.2483 5.03372 20.4515 3.02023 18.6454C1.00674 16.8393 0 14.1833 0 10.6773Z" fill="#FEBE31"/>
</svg>
