<svg width="660" height="260" viewBox="0 0 660 260" fill="none" xmlns="http://www.w3.org/2000/svg">
<rect width="660" height="60" fill="#FEF0F0"/>
<rect y="110" width="660" height="50" fill="#F5F5F5"/>
<rect y="210" width="660" height="50" fill="#F5F5F5"/>
<path d="M31.1313 40H28.5664V30.0059H24.1006V40H21.5273V27.8643H31.1313V40ZM36.0122 35.3433C36.0122 36.2619 36.1616 36.9564 36.4604 37.4268C36.7648 37.8971 37.2573 38.1323 37.938 38.1323C38.6131 38.1323 39.0973 37.8999 39.3906 37.4351C39.6895 36.9647 39.8389 36.2674 39.8389 35.3433C39.8389 34.4246 39.6895 33.7357 39.3906 33.2764C39.0918 32.8171 38.6021 32.5874 37.9214 32.5874C37.2463 32.5874 36.7593 32.8171 36.4604 33.2764C36.1616 33.7301 36.0122 34.4191 36.0122 35.3433ZM42.4287 35.3433C42.4287 36.854 42.0303 38.0355 41.2334 38.8877C40.4365 39.7399 39.327 40.166 37.9048 40.166C37.0138 40.166 36.228 39.9723 35.5474 39.585C34.8667 39.1921 34.3438 38.6304 33.9785 37.8999C33.6133 37.1694 33.4307 36.3172 33.4307 35.3433C33.4307 33.827 33.8263 32.6483 34.6177 31.8071C35.409 30.966 36.5213 30.5454 37.9546 30.5454C38.8455 30.5454 39.6313 30.7391 40.312 31.1265C40.9927 31.5138 41.5156 32.07 41.8809 32.7949C42.2461 33.5199 42.4287 34.3693 42.4287 35.3433ZM46.9692 30.7197V34.3887C46.9692 34.776 46.9056 35.7223 46.7783 37.2275L51.0615 30.7197H54.1079V40H51.6592V36.2979C51.6592 35.6393 51.7145 34.7096 51.8252 33.5088L47.5586 40H44.5205V30.7197H46.9692ZM60.541 40.166C57.6523 40.166 56.208 38.5806 56.208 35.4097C56.208 33.8325 56.6009 32.6289 57.3867 31.7988C58.1725 30.9632 59.2987 30.5454 60.7651 30.5454C61.8387 30.5454 62.8016 30.7557 63.6538 31.1763L62.9067 33.1353C62.5083 32.9748 62.1375 32.8447 61.7944 32.7451C61.4513 32.64 61.1082 32.5874 60.7651 32.5874C59.4481 32.5874 58.7896 33.5226 58.7896 35.3931C58.7896 37.2082 59.4481 38.1157 60.7651 38.1157C61.2521 38.1157 61.7031 38.0521 62.1182 37.9248C62.5332 37.792 62.9482 37.5872 63.3633 37.3105V39.4771C62.9538 39.7371 62.5387 39.917 62.1182 40.0166C61.7031 40.1162 61.1774 40.166 60.541 40.166ZM71.606 30.7197H74.395L70.7178 35.1689L74.7188 40H71.8467L68.0532 35.2935V40H65.5215V30.7197H68.0532V35.2271L71.606 30.7197ZM85.5596 40.166C84.4694 40.166 83.6144 39.7703 82.9946 38.979H82.8618C82.9504 39.7537 82.9946 40.202 82.9946 40.3237V44.084H80.4629V30.7197H82.5215L82.8784 31.9233H82.9946C83.5868 31.0047 84.4639 30.5454 85.626 30.5454C86.7217 30.5454 87.5794 30.9688 88.1992 31.8154C88.819 32.6621 89.1289 33.8381 89.1289 35.3433C89.1289 36.3338 88.9823 37.1943 88.689 37.9248C88.4012 38.6553 87.9889 39.2114 87.4521 39.5933C86.9154 39.9751 86.2845 40.166 85.5596 40.166ZM84.8125 32.5708C84.1872 32.5708 83.7306 32.7645 83.4429 33.1519C83.1551 33.5337 83.0057 34.1673 82.9946 35.0527V35.3267C82.9946 36.3228 83.1413 37.0366 83.4346 37.4683C83.7334 37.8999 84.2038 38.1157 84.8457 38.1157C85.9801 38.1157 86.5474 37.1805 86.5474 35.3101C86.5474 34.397 86.4062 33.7135 86.124 33.2598C85.8473 32.8005 85.4102 32.5708 84.8125 32.5708ZM95.064 32.3467C94.5272 32.3467 94.1066 32.5182 93.8022 32.8613C93.4979 33.1989 93.3236 33.6803 93.2793 34.3057H96.832C96.821 33.6803 96.6577 33.1989 96.3423 32.8613C96.0269 32.5182 95.6007 32.3467 95.064 32.3467ZM95.4209 40.166C93.9268 40.166 92.7591 39.7537 91.918 38.9292C91.0768 38.1047 90.6562 36.937 90.6562 35.4263C90.6562 33.8713 91.0436 32.6704 91.8184 31.8237C92.5986 30.9715 93.675 30.5454 95.0474 30.5454C96.3589 30.5454 97.3799 30.9189 98.1104 31.666C98.8408 32.4131 99.2061 33.4451 99.2061 34.7622V35.9907H93.2212C93.2489 36.7101 93.4619 37.2718 93.8604 37.6758C94.2588 38.0798 94.8177 38.2817 95.5371 38.2817C96.096 38.2817 96.6245 38.2236 97.1226 38.1074C97.6206 37.9912 98.1408 37.8058 98.6831 37.5513V39.5103C98.2404 39.7316 97.7673 39.8949 97.2637 40C96.7601 40.1107 96.1458 40.166 95.4209 40.166ZM105.033 40.166C102.145 40.166 100.7 38.5806 100.7 35.4097C100.7 33.8325 101.093 32.6289 101.879 31.7988C102.665 30.9632 103.791 30.5454 105.257 30.5454C106.331 30.5454 107.294 30.7557 108.146 31.1763L107.399 33.1353C107 32.9748 106.63 32.8447 106.287 32.7451C105.944 32.64 105.6 32.5874 105.257 32.5874C103.94 32.5874 103.282 33.5226 103.282 35.3931C103.282 37.2082 103.94 38.1157 105.257 38.1157C105.744 38.1157 106.195 38.0521 106.61 37.9248C107.025 37.792 107.44 37.5872 107.855 37.3105V39.4771C107.446 39.7371 107.031 39.917 106.61 40.0166C106.195 40.1162 105.67 40.166 105.033 40.166ZM118.447 30.7197V40H115.907V32.6206H112.545V40H110.014V30.7197H118.447ZM123.121 35.3433C123.121 36.2619 123.27 36.9564 123.569 37.4268C123.873 37.8971 124.366 38.1323 125.046 38.1323C125.722 38.1323 126.206 37.8999 126.499 37.4351C126.798 36.9647 126.947 36.2674 126.947 35.3433C126.947 34.4246 126.798 33.7357 126.499 33.2764C126.2 32.8171 125.71 32.5874 125.03 32.5874C124.355 32.5874 123.868 32.8171 123.569 33.2764C123.27 33.7301 123.121 34.4191 123.121 35.3433ZM129.537 35.3433C129.537 36.854 129.139 38.0355 128.342 38.8877C127.545 39.7399 126.435 40.166 125.013 40.166C124.122 40.166 123.336 39.9723 122.656 39.585C121.975 39.1921 121.452 38.6304 121.087 37.8999C120.722 37.1694 120.539 36.3172 120.539 35.3433C120.539 33.827 120.935 32.6483 121.726 31.8071C122.517 30.966 123.63 30.5454 125.063 30.5454C125.954 30.5454 126.74 30.7391 127.42 31.1265C128.101 31.5138 128.624 32.07 128.989 32.7949C129.354 33.5199 129.537 34.3693 129.537 35.3433ZM134.161 30.7197V34.2891H137.697V30.7197H140.229V40H137.697V36.1733H134.161V40H131.629V30.7197H134.161ZM148.695 38.1489V32.6206H146.794C146.656 33.6499 146.465 34.6266 146.222 35.5508C145.984 36.4749 145.652 37.341 145.226 38.1489H148.695ZM152.588 43.3286H150.314V40H144.072V43.3286H141.797V38.1489H142.578C143.109 37.3244 143.554 36.284 143.914 35.0278C144.274 33.7716 144.526 32.3356 144.669 30.7197H151.227V38.1489H152.588V43.3286ZM158.017 32.3467C157.48 32.3467 157.06 32.5182 156.755 32.8613C156.451 33.1989 156.277 33.6803 156.232 34.3057H159.785C159.774 33.6803 159.611 33.1989 159.295 32.8613C158.98 32.5182 158.554 32.3467 158.017 32.3467ZM158.374 40.166C156.88 40.166 155.712 39.7537 154.871 38.9292C154.03 38.1047 153.609 36.937 153.609 35.4263C153.609 33.8713 153.997 32.6704 154.771 31.8237C155.552 30.9715 156.628 30.5454 158 30.5454C159.312 30.5454 160.333 30.9189 161.063 31.666C161.794 32.4131 162.159 33.4451 162.159 34.7622V35.9907H156.174C156.202 36.7101 156.415 37.2718 156.813 37.6758C157.212 38.0798 157.771 38.2817 158.49 38.2817C159.049 38.2817 159.578 38.2236 160.076 38.1074C160.574 37.9912 161.094 37.8058 161.636 37.5513V39.5103C161.194 39.7316 160.72 39.8949 160.217 40C159.713 40.1107 159.099 40.166 158.374 40.166ZM166.75 30.7197V34.2891H170.286V30.7197H172.817V40H170.286V36.1733H166.75V40H164.218V30.7197H166.75ZM183.152 30.7197V32.6206H180.114V40H177.582V32.6206H174.536V30.7197H183.152ZM186.738 35.3433C186.738 36.2619 186.887 36.9564 187.186 37.4268C187.49 37.8971 187.983 38.1323 188.664 38.1323C189.339 38.1323 189.823 37.8999 190.116 37.4351C190.415 36.9647 190.564 36.2674 190.564 35.3433C190.564 34.4246 190.415 33.7357 190.116 33.2764C189.817 32.8171 189.328 32.5874 188.647 32.5874C187.972 32.5874 187.485 32.8171 187.186 33.2764C186.887 33.7301 186.738 34.4191 186.738 35.3433ZM193.154 35.3433C193.154 36.854 192.756 38.0355 191.959 38.8877C191.162 39.7399 190.053 40.166 188.63 40.166C187.739 40.166 186.954 39.9723 186.273 39.585C185.592 39.1921 185.069 38.6304 184.704 37.8999C184.339 37.1694 184.156 36.3172 184.156 35.3433C184.156 33.827 184.552 32.6483 185.343 31.8071C186.135 30.966 187.247 30.5454 188.68 30.5454C189.571 30.5454 190.357 30.7391 191.038 31.1265C191.718 31.5138 192.241 32.07 192.606 32.7949C192.972 33.5199 193.154 34.3693 193.154 35.3433ZM203.812 33.1519C203.812 33.6499 203.655 34.076 203.339 34.4302C203.029 34.7788 202.57 35.0029 201.961 35.1025V35.1689C202.62 35.2464 203.14 35.4733 203.522 35.8496C203.909 36.2204 204.103 36.6797 204.103 37.2275C204.103 38.1296 203.749 38.8185 203.041 39.2944C202.332 39.7648 201.319 40 200.002 40H195.246V30.7197H200.002C201.275 30.7197 202.227 30.9272 202.858 31.3423C203.494 31.7518 203.812 32.355 203.812 33.1519ZM201.48 37.0947C201.48 36.7295 201.339 36.4666 201.057 36.3062C200.774 36.1401 200.351 36.0571 199.787 36.0571H197.778V38.2485H199.836C200.373 38.2485 200.78 38.1489 201.057 37.9497C201.339 37.745 201.48 37.46 201.48 37.0947ZM201.248 33.3511C201.248 32.7866 200.799 32.5044 199.903 32.5044H197.778V34.3389H199.612C200.149 34.3389 200.556 34.2614 200.833 34.1064C201.109 33.9515 201.248 33.6997 201.248 33.3511Z" fill="black"/>
<path d="M30.0488 83.9893C30.0488 85.5889 29.6432 86.8467 28.832 87.7627C28.0254 88.6787 26.902 89.1367 25.4619 89.1367C23.9899 89.1367 22.8529 88.6878 22.0508 87.79C21.2533 86.8877 20.8545 85.6162 20.8545 83.9756C20.8545 82.3486 21.2555 81.0885 22.0576 80.1953C22.8597 79.2975 23.999 78.8486 25.4756 78.8486C26.9111 78.8486 28.0322 79.3044 28.8389 80.2158C29.6455 81.1273 30.0488 82.3851 30.0488 83.9893ZM22.085 83.9893C22.085 85.3428 22.3721 86.3704 22.9463 87.0723C23.5251 87.7695 24.3636 88.1182 25.4619 88.1182C26.5693 88.1182 27.4056 87.7695 27.9707 87.0723C28.5358 86.375 28.8184 85.3473 28.8184 83.9893C28.8184 82.6449 28.5358 81.6263 27.9707 80.9336C27.4102 80.2363 26.5785 79.8877 25.4756 79.8877C24.3682 79.8877 23.5251 80.2386 22.9463 80.9404C22.3721 81.6377 22.085 82.654 22.085 83.9893ZM38.4844 91.5908H37.3838V89H32.1475V91.5908H31.0537V88.0225H31.6416C32.2523 87.193 32.7308 86.2201 33.0771 85.1035C33.4235 83.987 33.6035 82.7884 33.6172 81.5078H37.4111V88.0225H38.4844V91.5908ZM36.3174 88.0225V82.4033H34.6357C34.5765 83.415 34.3805 84.4404 34.0479 85.4795C33.7197 86.514 33.3096 87.3617 32.8174 88.0225H36.3174ZM41.123 81.5078V84.6455H45.3203V81.5078H46.4551V89H45.3203V85.623H41.123V89H39.9883V81.5078H41.123ZM55.3281 85.2471C55.3281 86.4684 55.0205 87.4232 54.4053 88.1113C53.79 88.7949 52.9401 89.1367 51.8555 89.1367C51.1855 89.1367 50.5908 88.9795 50.0713 88.665C49.5518 88.3506 49.1507 87.8994 48.8682 87.3115C48.5856 86.7236 48.4443 86.0355 48.4443 85.2471C48.4443 84.0257 48.7497 83.0755 49.3604 82.3965C49.971 81.7129 50.8187 81.3711 51.9033 81.3711C52.9515 81.3711 53.7832 81.7197 54.3984 82.417C55.0182 83.1143 55.3281 84.0576 55.3281 85.2471ZM49.6201 85.2471C49.6201 86.2041 49.8115 86.9333 50.1943 87.4346C50.5771 87.9359 51.14 88.1865 51.8828 88.1865C52.6257 88.1865 53.1885 87.9382 53.5713 87.4414C53.9587 86.9401 54.1523 86.2087 54.1523 85.2471C54.1523 84.2946 53.9587 83.5723 53.5713 83.0801C53.1885 82.5833 52.6211 82.335 51.8691 82.335C51.1263 82.335 50.5658 82.5788 50.1875 83.0664C49.8092 83.554 49.6201 84.2809 49.6201 85.2471ZM62.0273 81.5078V86.2588L61.9795 87.5029L61.959 87.8926L66.0127 81.5078H67.4277V89H66.3682V84.4199L66.3887 83.5176L66.4229 82.6289L62.376 89H60.9609V81.5078H62.0273ZM70.9688 81.5078V84.6455H75.166V81.5078H76.3008V89H75.166V85.623H70.9688V89H69.834V81.5078H70.9688ZM83.7588 82.4785H81.3252V89H80.1904V82.4785H77.7842V81.5078H83.7588V82.4785ZM88.2705 89.1367C87.1631 89.1367 86.2881 88.7995 85.6455 88.125C85.0075 87.4505 84.6885 86.514 84.6885 85.3154C84.6885 84.1077 84.9847 83.1484 85.5771 82.4375C86.1742 81.7266 86.974 81.3711 87.9766 81.3711C88.9154 81.3711 89.6582 81.681 90.2051 82.3008C90.752 82.916 91.0254 83.7295 91.0254 84.7412V85.459H85.8643C85.887 86.3385 86.1081 87.0062 86.5273 87.4619C86.9512 87.9176 87.5459 88.1455 88.3115 88.1455C89.1182 88.1455 89.9157 87.9769 90.7041 87.6396V88.6514C90.3031 88.8245 89.9225 88.9476 89.5625 89.0205C89.207 89.098 88.7764 89.1367 88.2705 89.1367ZM87.9629 82.3213C87.3613 82.3213 86.8805 82.5173 86.5205 82.9092C86.165 83.3011 85.9554 83.8434 85.8916 84.5361H89.8086C89.8086 83.8206 89.6491 83.2738 89.3301 82.8955C89.0111 82.5127 88.5553 82.3213 87.9629 82.3213ZM96.4531 89.1367C95.9655 89.1367 95.5189 89.0479 95.1133 88.8701C94.7122 88.6878 94.375 88.4098 94.1016 88.0361H94.0195C94.0742 88.4736 94.1016 88.8883 94.1016 89.2803V92.3633H92.9668V81.5078H93.8896L94.0469 82.5332H94.1016C94.3932 82.123 94.7327 81.8268 95.1201 81.6445C95.5075 81.4622 95.9518 81.3711 96.4531 81.3711C97.4466 81.3711 98.2122 81.7106 98.75 82.3896C99.2923 83.0687 99.5635 84.0212 99.5635 85.2471C99.5635 86.4775 99.2878 87.4346 98.7363 88.1182C98.1895 88.7972 97.4284 89.1367 96.4531 89.1367ZM96.2891 82.335C95.5234 82.335 94.9697 82.5469 94.6279 82.9707C94.2861 83.3945 94.1107 84.069 94.1016 84.9941V85.2471C94.1016 86.2998 94.277 87.054 94.6279 87.5098C94.9788 87.9609 95.5417 88.1865 96.3164 88.1865C96.9635 88.1865 97.4694 87.9245 97.834 87.4004C98.2031 86.8763 98.3877 86.154 98.3877 85.2334C98.3877 84.2992 98.2031 83.5837 97.834 83.0869C97.4694 82.5856 96.9544 82.335 96.2891 82.335ZM107.63 83.3877C107.63 83.8753 107.489 84.2467 107.206 84.502C106.928 84.7526 106.536 84.9212 106.03 85.0078V85.0693C106.668 85.1559 107.133 85.3428 107.425 85.6299C107.721 85.917 107.869 86.3135 107.869 86.8193C107.869 87.5166 107.612 88.0544 107.097 88.4326C106.586 88.8109 105.839 89 104.854 89H101.553V81.5078H104.841C106.7 81.5078 107.63 82.1344 107.63 83.3877ZM106.734 86.7441C106.734 86.3385 106.579 86.0446 106.27 85.8623C105.964 85.6755 105.456 85.582 104.745 85.582H102.688V88.0498H104.772C106.08 88.0498 106.734 87.6146 106.734 86.7441ZM106.522 83.4971C106.522 83.1325 106.381 82.875 106.099 82.7246C105.821 82.5697 105.397 82.4922 104.827 82.4922H102.688V84.6045H104.608C105.31 84.6045 105.805 84.5179 106.092 84.3447C106.379 84.1715 106.522 83.889 106.522 83.4971ZM110.658 84.6045H112.969C114.883 84.6045 115.84 85.3086 115.84 86.7168C115.84 87.4551 115.589 88.0202 115.088 88.4121C114.591 88.804 113.862 89 112.9 89H109.523V81.5078H110.658V84.6045ZM110.658 85.582V88.0498H112.846C113.447 88.0498 113.908 87.945 114.227 87.7354C114.546 87.5257 114.705 87.209 114.705 86.7852C114.705 86.3704 114.557 86.0674 114.261 85.876C113.969 85.68 113.486 85.582 112.812 85.582H110.658ZM127.454 85.2471C127.454 86.473 127.16 87.4277 126.572 88.1113C125.989 88.7949 125.187 89.1367 124.166 89.1367C123.195 89.1367 122.425 88.8337 121.855 88.2275C121.286 87.6169 120.969 86.7487 120.905 85.623H118.943V89H117.809V81.5078H118.943V84.6455H120.919C121.01 83.6064 121.343 82.8021 121.917 82.2324C122.491 81.6582 123.25 81.3711 124.193 81.3711C125.196 81.3711 125.989 81.7197 126.572 82.417C127.16 83.1097 127.454 84.0531 127.454 85.2471ZM122.081 85.2471C122.081 86.2087 122.247 86.9401 122.58 87.4414C122.913 87.9382 123.446 88.1865 124.18 88.1865C124.9 88.1865 125.428 87.945 125.766 87.4619C126.107 86.9743 126.278 86.236 126.278 85.2471C126.278 84.29 126.112 83.5654 125.779 83.0732C125.447 82.5811 124.913 82.335 124.18 82.335C123.446 82.335 122.913 82.5811 122.58 83.0732C122.247 83.5654 122.081 84.29 122.081 85.2471Z" fill="black"/>
<path d="M27.7109 181.918C27.7109 182.93 27.3646 183.709 26.6719 184.256C25.9837 184.798 24.9971 185.069 23.7119 185.069H22.5361V189H21.374V179.006H23.9648C26.4622 179.006 27.7109 179.977 27.7109 181.918ZM22.5361 184.071H23.582C24.612 184.071 25.3571 183.905 25.8174 183.572C26.2777 183.24 26.5078 182.706 26.5078 181.973C26.5078 181.312 26.2913 180.82 25.8584 180.496C25.4255 180.173 24.751 180.011 23.835 180.011H22.5361V184.071ZM34.2461 189L34.0205 187.934H33.9658C33.5921 188.403 33.2184 188.722 32.8447 188.891C32.4756 189.055 32.013 189.137 31.457 189.137C30.7142 189.137 30.1309 188.945 29.707 188.562C29.2878 188.18 29.0781 187.635 29.0781 186.929C29.0781 185.416 30.2881 184.623 32.708 184.55L33.9795 184.509V184.044C33.9795 183.456 33.8519 183.023 33.5967 182.745C33.346 182.463 32.9427 182.321 32.3867 182.321C31.7624 182.321 31.056 182.513 30.2676 182.896L29.9189 182.027C30.2881 181.827 30.6914 181.67 31.1289 181.556C31.571 181.442 32.013 181.385 32.4551 181.385C33.3483 181.385 34.0091 181.583 34.4375 181.979C34.8704 182.376 35.0869 183.012 35.0869 183.887V189H34.2461ZM31.6826 188.2C32.389 188.2 32.9427 188.007 33.3438 187.619C33.7493 187.232 33.9521 186.689 33.9521 185.992V185.315L32.8174 185.363C31.915 185.395 31.2633 185.536 30.8623 185.787C30.4658 186.033 30.2676 186.418 30.2676 186.942C30.2676 187.353 30.3906 187.665 30.6367 187.879C30.8874 188.093 31.236 188.2 31.6826 188.2ZM40.4258 189.137C39.3411 189.137 38.5003 188.804 37.9033 188.139C37.3109 187.469 37.0146 186.523 37.0146 185.302C37.0146 184.049 37.3154 183.08 37.917 182.396C38.5231 181.713 39.3844 181.371 40.501 181.371C40.861 181.371 41.221 181.41 41.5811 181.487C41.9411 181.565 42.2236 181.656 42.4287 181.761L42.0801 182.725C41.8294 182.624 41.556 182.542 41.2598 182.479C40.9635 182.41 40.7015 182.376 40.4736 182.376C38.9515 182.376 38.1904 183.347 38.1904 185.288C38.1904 186.209 38.375 186.915 38.7441 187.407C39.1178 187.899 39.6693 188.146 40.3984 188.146C41.0228 188.146 41.6631 188.011 42.3193 187.742V188.747C41.818 189.007 41.1868 189.137 40.4258 189.137ZM49.6885 188.022H53.0107V181.508H54.1592V189H44.1035V181.508H45.2383V188.022H48.5537V181.508H49.6885V188.022ZM57.6387 181.508V186.259L57.5908 187.503L57.5703 187.893L61.624 181.508H63.0391V189H61.9795V184.42L62 183.518L62.0342 182.629L57.9873 189H56.5723V181.508H57.6387ZM73.4707 185.247C73.4707 186.382 73.1471 187.286 72.5 187.961C71.8574 188.631 70.9574 189.014 69.7998 189.109V192.363H68.6787V189.109C67.5485 189.023 66.6553 188.635 65.999 187.947C65.3428 187.259 65.0146 186.359 65.0146 185.247C65.0146 184.112 65.3405 183.21 65.9922 182.54C66.6484 181.87 67.5576 181.49 68.7197 181.398V178.363H69.7998V181.398C70.9437 181.503 71.8415 181.897 72.4932 182.581C73.1449 183.265 73.4707 184.153 73.4707 185.247ZM66.2041 185.247C66.2041 186.122 66.4046 186.808 66.8057 187.305C67.2067 187.801 67.8447 188.091 68.7197 188.173V182.349C67.8766 182.426 67.2454 182.702 66.8262 183.176C66.4115 183.645 66.2041 184.336 66.2041 185.247ZM72.2949 185.247C72.2949 183.502 71.4632 182.54 69.7998 182.362V188.173C70.6657 188.086 71.2969 187.795 71.6934 187.298C72.0944 186.801 72.2949 186.118 72.2949 185.247ZM78.9395 189.137C78.4518 189.137 78.0052 189.048 77.5996 188.87C77.1986 188.688 76.8613 188.41 76.5879 188.036H76.5059C76.5605 188.474 76.5879 188.888 76.5879 189.28V192.363H75.4531V181.508H76.376L76.5332 182.533H76.5879C76.8796 182.123 77.2191 181.827 77.6064 181.645C77.9938 181.462 78.4382 181.371 78.9395 181.371C79.9329 181.371 80.6986 181.711 81.2363 182.39C81.7786 183.069 82.0498 184.021 82.0498 185.247C82.0498 186.478 81.7741 187.435 81.2227 188.118C80.6758 188.797 79.9147 189.137 78.9395 189.137ZM78.7754 182.335C78.0098 182.335 77.4561 182.547 77.1143 182.971C76.7725 183.395 76.597 184.069 76.5879 184.994V185.247C76.5879 186.3 76.7633 187.054 77.1143 187.51C77.4652 187.961 78.028 188.187 78.8027 188.187C79.4499 188.187 79.9557 187.924 80.3203 187.4C80.6895 186.876 80.874 186.154 80.874 185.233C80.874 184.299 80.6895 183.584 80.3203 183.087C79.9557 182.586 79.4408 182.335 78.7754 182.335ZM90.5059 185.247C90.5059 186.468 90.1982 187.423 89.583 188.111C88.9678 188.795 88.1178 189.137 87.0332 189.137C86.3633 189.137 85.7686 188.979 85.249 188.665C84.7295 188.351 84.3285 187.899 84.0459 187.312C83.7633 186.724 83.6221 186.035 83.6221 185.247C83.6221 184.026 83.9274 183.076 84.5381 182.396C85.1488 181.713 85.9964 181.371 87.0811 181.371C88.1292 181.371 88.9609 181.72 89.5762 182.417C90.196 183.114 90.5059 184.058 90.5059 185.247ZM84.7979 185.247C84.7979 186.204 84.9893 186.933 85.3721 187.435C85.7549 187.936 86.3177 188.187 87.0605 188.187C87.8034 188.187 88.3662 187.938 88.749 187.441C89.1364 186.94 89.3301 186.209 89.3301 185.247C89.3301 184.295 89.1364 183.572 88.749 183.08C88.3662 182.583 87.7988 182.335 87.0469 182.335C86.304 182.335 85.7435 182.579 85.3652 183.066C84.987 183.554 84.7979 184.281 84.7979 185.247ZM98.5791 183.388C98.5791 183.875 98.4378 184.247 98.1553 184.502C97.8773 184.753 97.4854 184.921 96.9795 185.008V185.069C97.6175 185.156 98.0824 185.343 98.374 185.63C98.6702 185.917 98.8184 186.313 98.8184 186.819C98.8184 187.517 98.5609 188.054 98.0459 188.433C97.5355 188.811 96.7881 189 95.8037 189H92.502V181.508H95.79C97.6494 181.508 98.5791 182.134 98.5791 183.388ZM97.6836 186.744C97.6836 186.339 97.5286 186.045 97.2188 185.862C96.9134 185.675 96.4053 185.582 95.6943 185.582H93.6367V188.05H95.7217C97.0296 188.05 97.6836 187.615 97.6836 186.744ZM97.4717 183.497C97.4717 183.132 97.3304 182.875 97.0479 182.725C96.7699 182.57 96.346 182.492 95.7764 182.492H93.6367V184.604H95.5576C96.2594 184.604 96.7539 184.518 97.041 184.345C97.3281 184.172 97.4717 183.889 97.4717 183.497ZM104.841 181.508H106.085L102.852 185.124L106.352 189H105.025L101.607 185.206V189H100.473V181.508H101.607V185.151L104.841 181.508ZM112.354 189L112.128 187.934H112.073C111.7 188.403 111.326 188.722 110.952 188.891C110.583 189.055 110.12 189.137 109.564 189.137C108.822 189.137 108.238 188.945 107.814 188.562C107.395 188.18 107.186 187.635 107.186 186.929C107.186 185.416 108.396 184.623 110.815 184.55L112.087 184.509V184.044C112.087 183.456 111.959 183.023 111.704 182.745C111.453 182.463 111.05 182.321 110.494 182.321C109.87 182.321 109.163 182.513 108.375 182.896L108.026 182.027C108.396 181.827 108.799 181.67 109.236 181.556C109.678 181.442 110.12 181.385 110.562 181.385C111.456 181.385 112.117 181.583 112.545 181.979C112.978 182.376 113.194 183.012 113.194 183.887V189H112.354ZM109.79 188.2C110.496 188.2 111.05 188.007 111.451 187.619C111.857 187.232 112.06 186.689 112.06 185.992V185.315L110.925 185.363C110.022 185.395 109.371 185.536 108.97 185.787C108.573 186.033 108.375 186.418 108.375 186.942C108.375 187.353 108.498 187.665 108.744 187.879C108.995 188.093 109.343 188.2 109.79 188.2Z" fill="black"/>
<path d="M21.374 129.006H24.1973C25.5234 129.006 26.4827 129.204 27.0752 129.601C27.6676 129.997 27.9639 130.624 27.9639 131.48C27.9639 132.073 27.7975 132.563 27.4648 132.95C27.1367 133.333 26.6559 133.581 26.0225 133.695V133.764C27.54 134.023 28.2988 134.821 28.2988 136.156C28.2988 137.049 27.9958 137.747 27.3896 138.248C26.7881 138.749 25.945 139 24.8604 139H21.374V129.006ZM22.5361 133.285H24.4502C25.2705 133.285 25.8607 133.158 26.2207 132.902C26.5807 132.643 26.7607 132.207 26.7607 131.597C26.7607 131.036 26.5602 130.633 26.1592 130.387C25.7581 130.136 25.1201 130.011 24.2451 130.011H22.5361V133.285ZM22.5361 134.27V138.009H24.6211C25.4277 138.009 26.0339 137.854 26.4395 137.544C26.8496 137.229 27.0547 136.74 27.0547 136.074C27.0547 135.454 26.8451 134.999 26.4258 134.707C26.0111 134.415 25.3776 134.27 24.5254 134.27H22.5361ZM33.2754 139.137C32.1908 139.137 31.3499 138.804 30.7529 138.139C30.1605 137.469 29.8643 136.523 29.8643 135.302C29.8643 134.049 30.165 133.08 30.7666 132.396C31.3727 131.713 32.234 131.371 33.3506 131.371C33.7106 131.371 34.0706 131.41 34.4307 131.487C34.7907 131.565 35.0732 131.656 35.2783 131.761L34.9297 132.725C34.679 132.624 34.4056 132.542 34.1094 132.479C33.8132 132.41 33.5511 132.376 33.3232 132.376C31.8011 132.376 31.04 133.347 31.04 135.288C31.04 136.209 31.2246 136.915 31.5938 137.407C31.9674 137.899 32.5189 138.146 33.248 138.146C33.8724 138.146 34.5127 138.011 35.1689 137.742V138.747C34.6676 139.007 34.0365 139.137 33.2754 139.137ZM40.1182 139.137C39.0107 139.137 38.1357 138.799 37.4932 138.125C36.8551 137.451 36.5361 136.514 36.5361 135.315C36.5361 134.108 36.8324 133.148 37.4248 132.438C38.0218 131.727 38.8216 131.371 39.8242 131.371C40.763 131.371 41.5059 131.681 42.0527 132.301C42.5996 132.916 42.873 133.729 42.873 134.741V135.459H37.7119C37.7347 136.339 37.9557 137.006 38.375 137.462C38.7988 137.918 39.3936 138.146 40.1592 138.146C40.9658 138.146 41.7633 137.977 42.5518 137.64V138.651C42.1507 138.825 41.7702 138.948 41.4102 139.021C41.0547 139.098 40.624 139.137 40.1182 139.137ZM39.8105 132.321C39.209 132.321 38.7282 132.517 38.3682 132.909C38.0127 133.301 37.8031 133.843 37.7393 134.536H41.6562C41.6562 133.821 41.4967 133.274 41.1777 132.896C40.8587 132.513 40.403 132.321 39.8105 132.321ZM49.5176 131.508V136.259L49.4697 137.503L49.4492 137.893L53.5029 131.508H54.918V139H53.8584V134.42L53.8789 133.518L53.9131 132.629L49.8662 139H48.4512V131.508H49.5176ZM58.459 131.508V134.646H62.6562V131.508H63.791V139H62.6562V135.623H58.459V139H57.3242V131.508H58.459ZM71.249 132.479H68.8154V139H67.6807V132.479H65.2744V131.508H71.249V132.479ZM75.7607 139.137C74.6533 139.137 73.7783 138.799 73.1357 138.125C72.4977 137.451 72.1787 136.514 72.1787 135.315C72.1787 134.108 72.4749 133.148 73.0674 132.438C73.6644 131.727 74.4642 131.371 75.4668 131.371C76.4056 131.371 77.1484 131.681 77.6953 132.301C78.2422 132.916 78.5156 133.729 78.5156 134.741V135.459H73.3545C73.3773 136.339 73.5983 137.006 74.0176 137.462C74.4414 137.918 75.0361 138.146 75.8018 138.146C76.6084 138.146 77.4059 137.977 78.1943 137.64V138.651C77.7933 138.825 77.4128 138.948 77.0527 139.021C76.6973 139.098 76.2666 139.137 75.7607 139.137ZM75.4531 132.321C74.8516 132.321 74.3708 132.517 74.0107 132.909C73.6553 133.301 73.4456 133.843 73.3818 134.536H77.2988C77.2988 133.821 77.1393 133.274 76.8203 132.896C76.5013 132.513 76.0456 132.321 75.4531 132.321ZM83.9434 139.137C83.4557 139.137 83.0091 139.048 82.6035 138.87C82.2025 138.688 81.8652 138.41 81.5918 138.036H81.5098C81.5645 138.474 81.5918 138.888 81.5918 139.28V142.363H80.457V131.508H81.3799L81.5371 132.533H81.5918C81.8835 132.123 82.223 131.827 82.6104 131.645C82.9977 131.462 83.4421 131.371 83.9434 131.371C84.9368 131.371 85.7025 131.711 86.2402 132.39C86.7826 133.069 87.0537 134.021 87.0537 135.247C87.0537 136.478 86.778 137.435 86.2266 138.118C85.6797 138.797 84.9186 139.137 83.9434 139.137ZM83.7793 132.335C83.0137 132.335 82.46 132.547 82.1182 132.971C81.7764 133.395 81.6009 134.069 81.5918 134.994V135.247C81.5918 136.3 81.7673 137.054 82.1182 137.51C82.4691 137.961 83.0319 138.187 83.8066 138.187C84.4538 138.187 84.9596 137.924 85.3242 137.4C85.6934 136.876 85.8779 136.154 85.8779 135.233C85.8779 134.299 85.6934 133.584 85.3242 133.087C84.9596 132.586 84.4447 132.335 83.7793 132.335ZM95.1201 133.388C95.1201 133.875 94.9788 134.247 94.6963 134.502C94.4183 134.753 94.0264 134.921 93.5205 135.008V135.069C94.1585 135.156 94.6234 135.343 94.915 135.63C95.2113 135.917 95.3594 136.313 95.3594 136.819C95.3594 137.517 95.1019 138.054 94.5869 138.433C94.0765 138.811 93.3291 139 92.3447 139H89.043V131.508H92.3311C94.1904 131.508 95.1201 132.134 95.1201 133.388ZM94.2246 136.744C94.2246 136.339 94.0697 136.045 93.7598 135.862C93.4544 135.675 92.9463 135.582 92.2354 135.582H90.1777V138.05H92.2627C93.5706 138.05 94.2246 137.615 94.2246 136.744ZM94.0127 133.497C94.0127 133.132 93.8714 132.875 93.5889 132.725C93.3109 132.57 92.887 132.492 92.3174 132.492H90.1777V134.604H92.0986C92.8005 134.604 93.2949 134.518 93.582 134.345C93.8691 134.172 94.0127 133.889 94.0127 133.497ZM98.1484 134.604H100.459C102.373 134.604 103.33 135.309 103.33 136.717C103.33 137.455 103.079 138.02 102.578 138.412C102.081 138.804 101.352 139 100.391 139H97.0137V131.508H98.1484V134.604ZM98.1484 135.582V138.05H100.336C100.938 138.05 101.398 137.945 101.717 137.735C102.036 137.526 102.195 137.209 102.195 136.785C102.195 136.37 102.047 136.067 101.751 135.876C101.459 135.68 100.976 135.582 100.302 135.582H98.1484ZM114.944 135.247C114.944 136.473 114.65 137.428 114.062 138.111C113.479 138.795 112.677 139.137 111.656 139.137C110.686 139.137 109.915 138.834 109.346 138.228C108.776 137.617 108.459 136.749 108.396 135.623H106.434V139H105.299V131.508H106.434V134.646H108.409C108.5 133.606 108.833 132.802 109.407 132.232C109.981 131.658 110.74 131.371 111.684 131.371C112.686 131.371 113.479 131.72 114.062 132.417C114.65 133.11 114.944 134.053 114.944 135.247ZM109.571 135.247C109.571 136.209 109.738 136.94 110.07 137.441C110.403 137.938 110.936 138.187 111.67 138.187C112.39 138.187 112.919 137.945 113.256 137.462C113.598 136.974 113.769 136.236 113.769 135.247C113.769 134.29 113.602 133.565 113.27 133.073C112.937 132.581 112.404 132.335 111.67 132.335C110.936 132.335 110.403 132.581 110.07 133.073C109.738 133.565 109.571 134.29 109.571 135.247Z" fill="black"/>
<path d="M27.6562 239L26.4121 235.821H22.4062L21.1758 239H20L23.9512 228.965H24.9287L28.8594 239H27.6562ZM26.0498 234.775L24.8877 231.679C24.7373 231.287 24.5824 230.806 24.4229 230.236C24.3226 230.674 24.179 231.155 23.9922 231.679L22.8164 234.775H26.0498ZM31.1973 231.508V234.646H35.3945V231.508H36.5293V239H35.3945V235.623H31.1973V239H30.0625V231.508H31.1973ZM43.543 239L43.3174 237.934H43.2627C42.889 238.403 42.5153 238.722 42.1416 238.891C41.7725 239.055 41.3099 239.137 40.7539 239.137C40.0111 239.137 39.4277 238.945 39.0039 238.562C38.5846 238.18 38.375 237.635 38.375 236.929C38.375 235.416 39.585 234.623 42.0049 234.55L43.2764 234.509V234.044C43.2764 233.456 43.1488 233.023 42.8936 232.745C42.6429 232.463 42.2396 232.321 41.6836 232.321C41.0592 232.321 40.3529 232.513 39.5645 232.896L39.2158 232.027C39.585 231.827 39.9883 231.67 40.4258 231.556C40.8678 231.442 41.3099 231.385 41.752 231.385C42.6452 231.385 43.306 231.583 43.7344 231.979C44.1673 232.376 44.3838 233.012 44.3838 233.887V239H43.543ZM40.9795 238.2C41.6859 238.2 42.2396 238.007 42.6406 237.619C43.0462 237.232 43.249 236.689 43.249 235.992V235.315L42.1143 235.363C41.2119 235.395 40.5602 235.536 40.1592 235.787C39.7627 236.033 39.5645 236.418 39.5645 236.942C39.5645 237.353 39.6875 237.665 39.9336 237.879C40.1842 238.093 40.5329 238.2 40.9795 238.2ZM52.3135 239H51.165V232.479H48.916C48.793 234.101 48.6221 235.388 48.4033 236.341C48.1846 237.293 47.8997 237.991 47.5488 238.433C47.2025 238.875 46.7604 239.096 46.2227 239.096C45.9766 239.096 45.7806 239.068 45.6348 239.014V238.173C45.735 238.2 45.849 238.214 45.9766 238.214C46.5007 238.214 46.9176 237.66 47.2275 236.553C47.5374 235.445 47.7721 233.764 47.9316 231.508H52.3135V239ZM55.793 231.508V236.259L55.7451 237.503L55.7246 237.893L59.7783 231.508H61.1934V239H60.1338V234.42L60.1543 233.518L60.1885 232.629L56.1416 239H54.7266V231.508H55.793ZM65.0283 234.618C66.4456 234.618 67.1543 234.226 67.1543 233.442C67.1543 232.704 66.5801 232.335 65.4316 232.335C65.0807 232.335 64.7617 232.367 64.4746 232.431C64.1875 232.494 63.8115 232.622 63.3467 232.813L62.9434 231.891C63.7181 231.544 64.5635 231.371 65.4795 231.371C66.3408 231.371 67.0199 231.549 67.5166 231.904C68.0133 232.255 68.2617 232.736 68.2617 233.347C68.2617 234.185 67.7946 234.734 66.8604 234.994V235.049C67.4346 235.217 67.8538 235.459 68.1182 235.773C68.3825 236.083 68.5146 236.473 68.5146 236.942C68.5146 237.635 68.2344 238.175 67.6738 238.562C67.1178 238.945 66.3477 239.137 65.3633 239.137C64.2832 239.137 63.4492 238.975 62.8613 238.651V237.612C63.6953 238.004 64.5384 238.2 65.3906 238.2C66.0469 238.2 66.5413 238.089 66.874 237.865C67.2113 237.637 67.3799 237.312 67.3799 236.888C67.3799 236.017 66.6712 235.582 65.2539 235.582H64.2148V234.618H65.0283ZM80.5117 241.591H79.4111V239H74.1748V241.591H73.0811V238.022H73.6689C74.2796 237.193 74.7581 236.22 75.1045 235.104C75.4508 233.987 75.6309 232.788 75.6445 231.508H79.4385V238.022H80.5117V241.591ZM78.3447 238.022V232.403H76.6631C76.6038 233.415 76.4079 234.44 76.0752 235.479C75.7471 236.514 75.3369 237.362 74.8447 238.022H78.3447ZM86.623 239L86.3975 237.934H86.3428C85.9691 238.403 85.5954 238.722 85.2217 238.891C84.8525 239.055 84.39 239.137 83.834 239.137C83.0911 239.137 82.5078 238.945 82.084 238.562C81.6647 238.18 81.4551 237.635 81.4551 236.929C81.4551 235.416 82.665 234.623 85.085 234.55L86.3564 234.509V234.044C86.3564 233.456 86.2288 233.023 85.9736 232.745C85.723 232.463 85.3197 232.321 84.7637 232.321C84.1393 232.321 83.4329 232.513 82.6445 232.896L82.2959 232.027C82.665 231.827 83.0684 231.67 83.5059 231.556C83.9479 231.442 84.39 231.385 84.832 231.385C85.7253 231.385 86.3861 231.583 86.8145 231.979C87.2474 232.376 87.4639 233.012 87.4639 233.887V239H86.623ZM84.0596 238.2C84.766 238.2 85.3197 238.007 85.7207 237.619C86.1263 237.232 86.3291 236.689 86.3291 235.992V235.315L85.1943 235.363C84.292 235.395 83.6403 235.536 83.2393 235.787C82.8428 236.033 82.6445 236.418 82.6445 236.942C82.6445 237.353 82.7676 237.665 83.0137 237.879C83.2643 238.093 83.613 238.2 84.0596 238.2ZM90.9434 231.508V234.646H95.1406V231.508H96.2754V239H95.1406V235.623H90.9434V239H89.8086V231.508H90.9434ZM99.8164 231.508V234.646H104.014V231.508H105.148V239H104.014V235.623H99.8164V239H98.6816V231.508H99.8164ZM108.689 234.604H110.733C111.686 234.604 112.39 234.782 112.846 235.138C113.306 235.489 113.536 236.015 113.536 236.717C113.536 237.469 113.292 238.038 112.805 238.426C112.322 238.809 111.608 239 110.665 239H107.555V231.508H108.689V234.604ZM115.929 239H114.794V231.508H115.929V239ZM108.689 235.582V238.05H110.61C111.813 238.05 112.415 237.628 112.415 236.785C112.415 236.366 112.276 236.061 111.998 235.869C111.72 235.678 111.246 235.582 110.576 235.582H108.689ZM120.146 235.165L117.542 231.508H118.834L120.81 234.379L122.778 231.508H124.057L121.452 235.165L124.193 239H122.908L120.81 235.965L118.69 239H117.405L120.146 235.165Z" fill="black"/>
<path d="M307.022 40H304.458V32.9775L304.482 31.8237L304.524 30.562C304.098 30.9881 303.802 31.2676 303.636 31.4004L302.241 32.521L301.004 30.9771L304.914 27.8643H307.022V40ZM310.218 36.4805V34.4053H314.676V36.4805H310.218ZM324.354 40H315.871V38.2153L318.917 35.1357C319.819 34.2116 320.409 33.5724 320.686 33.2183C320.962 32.8586 321.161 32.5265 321.283 32.2222C321.405 31.9178 321.466 31.6024 321.466 31.2759C321.466 30.7889 321.33 30.4264 321.059 30.1885C320.793 29.9505 320.437 29.8315 319.988 29.8315C319.518 29.8315 319.061 29.9395 318.619 30.1553C318.176 30.3711 317.714 30.6782 317.232 31.0767L315.838 29.4248C316.436 28.9157 316.931 28.556 317.324 28.3457C317.717 28.1354 318.146 27.9749 318.61 27.8643C319.075 27.748 319.595 27.6899 320.171 27.6899C320.929 27.6899 321.599 27.8283 322.18 28.105C322.761 28.3817 323.212 28.769 323.533 29.2671C323.854 29.7651 324.014 30.3351 324.014 30.9771C324.014 31.536 323.915 32.0617 323.715 32.5542C323.522 33.0412 323.217 33.542 322.802 34.0566C322.393 34.5713 321.668 35.3045 320.627 36.2563L319.067 37.7256V37.8418H324.354V40ZM336.457 38.1489V32.6206H334.556C334.418 33.6499 334.227 34.6266 333.983 35.5508C333.745 36.4749 333.413 37.341 332.987 38.1489H336.457ZM340.35 43.3286H338.076V40H331.833V43.3286H329.559V38.1489H330.339C330.871 37.3244 331.316 36.284 331.676 35.0278C332.035 33.7716 332.287 32.3356 332.431 30.7197H338.989V38.1489H340.35V43.3286ZM344.467 30.7197V34.2891H348.003V30.7197H350.535V40H348.003V36.1733H344.467V40H341.936V30.7197H344.467ZM354.603 40H351.863L354.362 36.3311C353.764 36.082 353.31 35.7223 353 35.252C352.696 34.7816 352.544 34.2282 352.544 33.5918C352.544 32.6953 352.879 31.9925 353.548 31.4834C354.223 30.9743 355.142 30.7197 356.304 30.7197H360.621V40H358.089V36.5469H356.694L354.603 40ZM355.026 33.6084C355.026 33.9958 355.178 34.3001 355.482 34.5215C355.787 34.7373 356.185 34.8452 356.678 34.8452H358.089V32.5044H356.354C355.939 32.5044 355.612 32.6068 355.375 32.8115C355.142 33.0107 355.026 33.2764 355.026 33.6084Z" fill="black"/>
<path d="M302.201 81.5078V84.2422C302.201 85.1172 302.7 85.5547 303.698 85.5547C304.113 85.5547 304.509 85.4909 304.888 85.3633C305.266 85.2357 305.694 85.0192 306.173 84.7139V81.5078H307.308V89H306.173V85.6094C305.694 85.9375 305.25 86.1699 304.84 86.3066C304.434 86.4388 303.974 86.5049 303.459 86.5049C302.712 86.5049 302.126 86.3089 301.702 85.917C301.278 85.5251 301.066 84.9941 301.066 84.3242V81.5078H302.201ZM314.328 89L314.103 87.9336H314.048C313.674 88.403 313.3 88.722 312.927 88.8906C312.558 89.0547 312.095 89.1367 311.539 89.1367C310.796 89.1367 310.213 88.9453 309.789 88.5625C309.37 88.1797 309.16 87.6351 309.16 86.9287C309.16 85.4157 310.37 84.6227 312.79 84.5498L314.062 84.5088V84.0439C314.062 83.4561 313.934 83.0231 313.679 82.7451C313.428 82.4626 313.025 82.3213 312.469 82.3213C311.844 82.3213 311.138 82.5127 310.35 82.8955L310.001 82.0273C310.37 81.8268 310.773 81.6696 311.211 81.5557C311.653 81.4417 312.095 81.3848 312.537 81.3848C313.43 81.3848 314.091 81.583 314.52 81.9795C314.952 82.376 315.169 83.0117 315.169 83.8867V89H314.328ZM311.765 88.2002C312.471 88.2002 313.025 88.0065 313.426 87.6191C313.831 87.2318 314.034 86.6895 314.034 85.9922V85.3154L312.899 85.3633C311.997 85.3952 311.345 85.5365 310.944 85.7871C310.548 86.0332 310.35 86.4183 310.35 86.9424C310.35 87.3525 310.473 87.6647 310.719 87.8789C310.969 88.0931 311.318 88.2002 311.765 88.2002ZM320.508 89.1367C319.423 89.1367 318.582 88.804 317.985 88.1387C317.393 87.4688 317.097 86.5231 317.097 85.3018C317.097 84.0485 317.397 83.0801 317.999 82.3965C318.605 81.7129 319.466 81.3711 320.583 81.3711C320.943 81.3711 321.303 81.4098 321.663 81.4873C322.023 81.5648 322.306 81.6559 322.511 81.7607L322.162 82.7246C321.911 82.6243 321.638 82.5423 321.342 82.4785C321.046 82.4102 320.784 82.376 320.556 82.376C319.034 82.376 318.272 83.3467 318.272 85.2881C318.272 86.2087 318.457 86.915 318.826 87.4072C319.2 87.8994 319.751 88.1455 320.48 88.1455C321.105 88.1455 321.745 88.0111 322.401 87.7422V88.7471C321.9 89.0068 321.269 89.1367 320.508 89.1367Z" fill="black"/>
<path d="M302.338 189H301.203V181.508H307.492V189H306.344V182.492H302.338V189ZM316.365 185.247C316.365 186.468 316.058 187.423 315.442 188.111C314.827 188.795 313.977 189.137 312.893 189.137C312.223 189.137 311.628 188.979 311.108 188.665C310.589 188.351 310.188 187.899 309.905 187.312C309.623 186.724 309.481 186.035 309.481 185.247C309.481 184.026 309.787 183.076 310.397 182.396C311.008 181.713 311.856 181.371 312.94 181.371C313.989 181.371 314.82 181.72 315.436 182.417C316.055 183.114 316.365 184.058 316.365 185.247ZM310.657 185.247C310.657 186.204 310.849 186.933 311.231 187.435C311.614 187.936 312.177 188.187 312.92 188.187C313.663 188.187 314.226 187.938 314.608 187.441C314.996 186.94 315.189 186.209 315.189 185.247C315.189 184.295 314.996 183.572 314.608 183.08C314.226 182.583 313.658 182.335 312.906 182.335C312.163 182.335 311.603 182.579 311.225 183.066C310.846 183.554 310.657 184.281 310.657 185.247ZM323.803 185.165L321.198 181.508H322.49L324.466 184.379L326.435 181.508H327.713L325.108 185.165L327.85 189H326.564L324.466 185.965L322.347 189H321.062L323.803 185.165ZM335.52 185.247C335.52 186.468 335.212 187.423 334.597 188.111C333.981 188.795 333.132 189.137 332.047 189.137C331.377 189.137 330.782 188.979 330.263 188.665C329.743 188.351 329.342 187.899 329.06 187.312C328.777 186.724 328.636 186.035 328.636 185.247C328.636 184.026 328.941 183.076 329.552 182.396C330.162 181.713 331.01 181.371 332.095 181.371C333.143 181.371 333.975 181.72 334.59 182.417C335.21 183.114 335.52 184.058 335.52 185.247ZM329.812 185.247C329.812 186.204 330.003 186.933 330.386 187.435C330.769 187.936 331.331 188.187 332.074 188.187C332.817 188.187 333.38 187.938 333.763 187.441C334.15 186.94 334.344 186.209 334.344 185.247C334.344 184.295 334.15 183.572 333.763 183.08C333.38 182.583 332.812 182.335 332.061 182.335C331.318 182.335 330.757 182.579 330.379 183.066C330.001 183.554 329.812 184.281 329.812 185.247ZM344.023 191.591H342.923V189H337.687V191.591H336.593V188.022H337.181C337.791 187.193 338.27 186.22 338.616 185.104C338.963 183.987 339.143 182.788 339.156 181.508H342.95V188.022H344.023V191.591ZM341.856 188.022V182.403H340.175C340.116 183.415 339.92 184.44 339.587 185.479C339.259 186.514 338.849 187.362 338.356 188.022H341.856ZM344.338 181.508H345.555L347.195 185.78C347.555 186.756 347.779 187.46 347.865 187.893H347.92C347.979 187.66 348.102 187.264 348.289 186.703C348.48 186.138 349.1 184.406 350.148 181.508H351.365L348.146 190.039C347.826 190.882 347.453 191.479 347.024 191.83C346.601 192.186 346.079 192.363 345.459 192.363C345.113 192.363 344.771 192.325 344.434 192.247V191.338C344.684 191.393 344.965 191.42 345.274 191.42C346.054 191.42 346.61 190.982 346.942 190.107L347.359 189.041L344.338 181.508ZM357.285 181.508V186.259L357.237 187.503L357.217 187.893L361.271 181.508H362.686V189H361.626V184.42L361.646 183.518L361.681 182.629L357.634 189H356.219V181.508H357.285ZM366.227 181.508V184.646H370.424V181.508H371.559V189H370.424V185.623H366.227V189H365.092V181.508H366.227ZM379.017 182.479H376.583V189H375.448V182.479H373.042V181.508H379.017V182.479ZM383.528 189.137C382.421 189.137 381.546 188.799 380.903 188.125C380.265 187.451 379.946 186.514 379.946 185.315C379.946 184.108 380.243 183.148 380.835 182.438C381.432 181.727 382.232 181.371 383.234 181.371C384.173 181.371 384.916 181.681 385.463 182.301C386.01 182.916 386.283 183.729 386.283 184.741V185.459H381.122C381.145 186.339 381.366 187.006 381.785 187.462C382.209 187.918 382.804 188.146 383.569 188.146C384.376 188.146 385.174 187.977 385.962 187.64V188.651C385.561 188.825 385.18 188.948 384.82 189.021C384.465 189.098 384.034 189.137 383.528 189.137ZM383.221 182.321C382.619 182.321 382.138 182.517 381.778 182.909C381.423 183.301 381.213 183.843 381.149 184.536H385.066C385.066 183.821 384.907 183.274 384.588 182.896C384.269 182.513 383.813 182.321 383.221 182.321ZM391.711 189.137C391.223 189.137 390.777 189.048 390.371 188.87C389.97 188.688 389.633 188.41 389.359 188.036H389.277C389.332 188.474 389.359 188.888 389.359 189.28V192.363H388.225V181.508H389.147L389.305 182.533H389.359C389.651 182.123 389.991 181.827 390.378 181.645C390.765 181.462 391.21 181.371 391.711 181.371C392.704 181.371 393.47 181.711 394.008 182.39C394.55 183.069 394.821 184.021 394.821 185.247C394.821 186.478 394.546 187.435 393.994 188.118C393.447 188.797 392.686 189.137 391.711 189.137ZM391.547 182.335C390.781 182.335 390.228 182.547 389.886 182.971C389.544 183.395 389.368 184.069 389.359 184.994V185.247C389.359 186.3 389.535 187.054 389.886 187.51C390.237 187.961 390.799 188.187 391.574 188.187C392.221 188.187 392.727 187.924 393.092 187.4C393.461 186.876 393.646 186.154 393.646 185.233C393.646 184.299 393.461 183.584 393.092 183.087C392.727 182.586 392.212 182.335 391.547 182.335ZM402.888 183.388C402.888 183.875 402.746 184.247 402.464 184.502C402.186 184.753 401.794 184.921 401.288 185.008V185.069C401.926 185.156 402.391 185.343 402.683 185.63C402.979 185.917 403.127 186.313 403.127 186.819C403.127 187.517 402.869 188.054 402.354 188.433C401.844 188.811 401.097 189 400.112 189H396.811V181.508H400.099C401.958 181.508 402.888 182.134 402.888 183.388ZM401.992 186.744C401.992 186.339 401.837 186.045 401.527 185.862C401.222 185.675 400.714 185.582 400.003 185.582H397.945V188.05H400.03C401.338 188.05 401.992 187.615 401.992 186.744ZM401.78 183.497C401.78 183.132 401.639 182.875 401.356 182.725C401.078 182.57 400.655 182.492 400.085 182.492H397.945V184.604H399.866C400.568 184.604 401.062 184.518 401.35 184.345C401.637 184.172 401.78 183.889 401.78 183.497ZM405.916 184.604H408.227C410.141 184.604 411.098 185.309 411.098 186.717C411.098 187.455 410.847 188.02 410.346 188.412C409.849 188.804 409.12 189 408.158 189H404.781V181.508H405.916V184.604ZM405.916 185.582V188.05H408.104C408.705 188.05 409.165 187.945 409.484 187.735C409.803 187.526 409.963 187.209 409.963 186.785C409.963 186.37 409.815 186.067 409.519 185.876C409.227 185.68 408.744 185.582 408.069 185.582H405.916ZM422.712 185.247C422.712 186.473 422.418 187.428 421.83 188.111C421.247 188.795 420.445 189.137 419.424 189.137C418.453 189.137 417.683 188.834 417.113 188.228C416.544 187.617 416.227 186.749 416.163 185.623H414.201V189H413.066V181.508H414.201V184.646H416.177C416.268 183.606 416.601 182.802 417.175 182.232C417.749 181.658 418.508 181.371 419.451 181.371C420.454 181.371 421.247 181.72 421.83 182.417C422.418 183.11 422.712 184.053 422.712 185.247ZM417.339 185.247C417.339 186.209 417.505 186.94 417.838 187.441C418.171 187.938 418.704 188.187 419.438 188.187C420.158 188.187 420.686 187.945 421.023 187.462C421.365 186.974 421.536 186.236 421.536 185.247C421.536 184.29 421.37 183.565 421.037 183.073C420.704 182.581 420.171 182.335 419.438 182.335C418.704 182.335 418.171 182.581 417.838 183.073C417.505 183.565 417.339 184.29 417.339 185.247ZM429.404 181.508V186.259L429.356 187.503L429.336 187.893L433.39 181.508H434.805V189H433.745V184.42L433.766 183.518L433.8 182.629L429.753 189H428.338V181.508H429.404ZM442.796 189H441.647V182.479H439.398C439.275 184.101 439.104 185.388 438.886 186.341C438.667 187.293 438.382 187.991 438.031 188.433C437.685 188.875 437.243 189.096 436.705 189.096C436.459 189.096 436.263 189.068 436.117 189.014V188.173C436.217 188.2 436.331 188.214 436.459 188.214C436.983 188.214 437.4 187.66 437.71 186.553C438.02 185.445 438.255 183.764 438.414 181.508H442.796V189ZM446.275 181.508V186.259L446.228 187.503L446.207 187.893L450.261 181.508H451.676V189H450.616V184.42L450.637 183.518L450.671 182.629L446.624 189H445.209V181.508H446.275ZM460.713 189.137C459.628 189.137 458.787 188.804 458.19 188.139C457.598 187.469 457.302 186.523 457.302 185.302C457.302 184.049 457.603 183.08 458.204 182.396C458.81 181.713 459.672 181.371 460.788 181.371C461.148 181.371 461.508 181.41 461.868 181.487C462.228 181.565 462.511 181.656 462.716 181.761L462.367 182.725C462.117 182.624 461.843 182.542 461.547 182.479C461.251 182.41 460.989 182.376 460.761 182.376C459.239 182.376 458.478 183.347 458.478 185.288C458.478 186.209 458.662 186.915 459.031 187.407C459.405 187.899 459.956 188.146 460.686 188.146C461.31 188.146 461.95 188.011 462.606 187.742V188.747C462.105 189.007 461.474 189.137 460.713 189.137ZM467.877 189.137C467.389 189.137 466.943 189.048 466.537 188.87C466.136 188.688 465.799 188.41 465.525 188.036H465.443C465.498 188.474 465.525 188.888 465.525 189.28V192.363H464.391V181.508H465.313L465.471 182.533H465.525C465.817 182.123 466.157 181.827 466.544 181.645C466.931 181.462 467.376 181.371 467.877 181.371C468.87 181.371 469.636 181.711 470.174 182.39C470.716 183.069 470.987 184.021 470.987 185.247C470.987 186.478 470.712 187.435 470.16 188.118C469.613 188.797 468.852 189.137 467.877 189.137ZM467.713 182.335C466.947 182.335 466.394 182.547 466.052 182.971C465.71 183.395 465.535 184.069 465.525 184.994V185.247C465.525 186.3 465.701 187.054 466.052 187.51C466.403 187.961 466.965 188.187 467.74 188.187C468.387 188.187 468.893 187.924 469.258 187.4C469.627 186.876 469.812 186.154 469.812 185.233C469.812 184.299 469.627 183.584 469.258 183.087C468.893 182.586 468.378 182.335 467.713 182.335ZM477.584 189L477.358 187.934H477.304C476.93 188.403 476.556 188.722 476.183 188.891C475.813 189.055 475.351 189.137 474.795 189.137C474.052 189.137 473.469 188.945 473.045 188.562C472.626 188.18 472.416 187.635 472.416 186.929C472.416 185.416 473.626 184.623 476.046 184.55L477.317 184.509V184.044C477.317 183.456 477.19 183.023 476.935 182.745C476.684 182.463 476.281 182.321 475.725 182.321C475.1 182.321 474.394 182.513 473.605 182.896L473.257 182.027C473.626 181.827 474.029 181.67 474.467 181.556C474.909 181.442 475.351 181.385 475.793 181.385C476.686 181.385 477.347 181.583 477.775 181.979C478.208 182.376 478.425 183.012 478.425 183.887V189H477.584ZM475.021 188.2C475.727 188.2 476.281 188.007 476.682 187.619C477.087 187.232 477.29 186.689 477.29 185.992V185.315L476.155 185.363C475.253 185.395 474.601 185.536 474.2 185.787C473.804 186.033 473.605 186.418 473.605 186.942C473.605 187.353 473.729 187.665 473.975 187.879C474.225 188.093 474.574 188.2 475.021 188.2ZM482.198 184.618C483.616 184.618 484.324 184.226 484.324 183.442C484.324 182.704 483.75 182.335 482.602 182.335C482.251 182.335 481.932 182.367 481.645 182.431C481.357 182.494 480.981 182.622 480.517 182.813L480.113 181.891C480.888 181.544 481.733 181.371 482.649 181.371C483.511 181.371 484.19 181.549 484.687 181.904C485.183 182.255 485.432 182.736 485.432 183.347C485.432 184.185 484.965 184.734 484.03 184.994V185.049C484.604 185.217 485.024 185.459 485.288 185.773C485.552 186.083 485.685 186.473 485.685 186.942C485.685 187.635 485.404 188.175 484.844 188.562C484.288 188.945 483.518 189.137 482.533 189.137C481.453 189.137 480.619 188.975 480.031 188.651V187.612C480.865 188.004 481.708 188.2 482.561 188.2C483.217 188.2 483.711 188.089 484.044 187.865C484.381 187.637 484.55 187.312 484.55 186.888C484.55 186.017 483.841 185.582 482.424 185.582H481.385V184.618H482.198ZM486.348 181.508H487.564L489.205 185.78C489.565 186.756 489.788 187.46 489.875 187.893H489.93C489.989 187.66 490.112 187.264 490.299 186.703C490.49 186.138 491.11 184.406 492.158 181.508H493.375L490.155 190.039C489.836 190.882 489.463 191.479 489.034 191.83C488.61 192.186 488.089 192.363 487.469 192.363C487.122 192.363 486.781 192.325 486.443 192.247V191.338C486.694 191.393 486.974 191.42 487.284 191.42C488.063 191.42 488.619 190.982 488.952 190.107L489.369 189.041L486.348 181.508ZM499.363 189H498.229V181.508H504.518V189H503.369V182.492H499.363V189ZM513.391 185.247C513.391 186.468 513.083 187.423 512.468 188.111C511.853 188.795 511.003 189.137 509.918 189.137C509.248 189.137 508.653 188.979 508.134 188.665C507.614 188.351 507.213 187.899 506.931 187.312C506.648 186.724 506.507 186.035 506.507 185.247C506.507 184.026 506.812 183.076 507.423 182.396C508.034 181.713 508.881 181.371 509.966 181.371C511.014 181.371 511.846 181.72 512.461 182.417C513.081 183.114 513.391 184.058 513.391 185.247ZM507.683 185.247C507.683 186.204 507.874 186.933 508.257 187.435C508.64 187.936 509.202 188.187 509.945 188.187C510.688 188.187 511.251 187.938 511.634 187.441C512.021 186.94 512.215 186.209 512.215 185.247C512.215 184.295 512.021 183.572 511.634 183.08C511.251 182.583 510.684 182.335 509.932 182.335C509.189 182.335 508.628 182.579 508.25 183.066C507.872 183.554 507.683 184.281 507.683 185.247ZM518.381 189.137C517.296 189.137 516.455 188.804 515.858 188.139C515.266 187.469 514.97 186.523 514.97 185.302C514.97 184.049 515.271 183.08 515.872 182.396C516.478 181.713 517.34 181.371 518.456 181.371C518.816 181.371 519.176 181.41 519.536 181.487C519.896 181.565 520.179 181.656 520.384 181.761L520.035 182.725C519.785 182.624 519.511 182.542 519.215 182.479C518.919 182.41 518.657 182.376 518.429 182.376C516.907 182.376 516.146 183.347 516.146 185.288C516.146 186.209 516.33 186.915 516.699 187.407C517.073 187.899 517.624 188.146 518.354 188.146C518.978 188.146 519.618 188.011 520.274 187.742V188.747C519.773 189.007 519.142 189.137 518.381 189.137ZM527.644 189H526.495V182.479H524.246C524.123 184.101 523.952 185.388 523.733 186.341C523.515 187.293 523.23 187.991 522.879 188.433C522.533 188.875 522.09 189.096 521.553 189.096C521.307 189.096 521.111 189.068 520.965 189.014V188.173C521.065 188.2 521.179 188.214 521.307 188.214C521.831 188.214 522.248 187.66 522.558 186.553C522.868 185.445 523.102 183.764 523.262 181.508H527.644V189ZM533.222 189.137C532.114 189.137 531.239 188.799 530.597 188.125C529.959 187.451 529.64 186.514 529.64 185.315C529.64 184.108 529.936 183.148 530.528 182.438C531.125 181.727 531.925 181.371 532.928 181.371C533.867 181.371 534.609 181.681 535.156 182.301C535.703 182.916 535.977 183.729 535.977 184.741V185.459H530.815C530.838 186.339 531.059 187.006 531.479 187.462C531.902 187.918 532.497 188.146 533.263 188.146C534.069 188.146 534.867 187.977 535.655 187.64V188.651C535.254 188.825 534.874 188.948 534.514 189.021C534.158 189.098 533.728 189.137 533.222 189.137ZM532.914 182.321C532.312 182.321 531.832 182.517 531.472 182.909C531.116 183.301 530.907 183.843 530.843 184.536H534.76C534.76 183.821 534.6 183.274 534.281 182.896C533.962 182.513 533.507 182.321 532.914 182.321Z" fill="black"/>
<path d="M304.888 139H303.78V131.877C303.78 131.285 303.799 130.724 303.835 130.195C303.739 130.291 303.632 130.391 303.514 130.496C303.395 130.601 302.853 131.045 301.887 131.829L301.285 131.05L303.931 129.006H304.888V139ZM308.586 135.767V134.728H311.942V135.767H308.586ZM319.776 139H313.207V138.022L315.839 135.377C316.641 134.566 317.17 133.987 317.425 133.641C317.68 133.294 317.871 132.957 317.999 132.629C318.127 132.301 318.19 131.948 318.19 131.569C318.19 131.036 318.029 130.615 317.705 130.305C317.382 129.99 316.933 129.833 316.358 129.833C315.944 129.833 315.549 129.901 315.176 130.038C314.807 130.175 314.394 130.423 313.938 130.783L313.337 130.011C314.257 129.245 315.26 128.862 316.345 128.862C317.284 128.862 318.02 129.104 318.553 129.587C319.086 130.065 319.353 130.71 319.353 131.521C319.353 132.155 319.175 132.782 318.819 133.401C318.464 134.021 317.799 134.805 316.823 135.753L314.636 137.893V137.947H319.776V139ZM331.883 141.591H330.782V139H325.546V141.591H324.452V138.022H325.04C325.651 137.193 326.129 136.22 326.476 135.104C326.822 133.987 327.002 132.788 327.016 131.508H330.81V138.022H331.883V141.591ZM329.716 138.022V132.403H328.034C327.975 133.415 327.779 134.44 327.446 135.479C327.118 136.514 326.708 137.362 326.216 138.022H329.716ZM334.521 131.508V134.646H338.719V131.508H339.854V139H338.719V135.623H334.521V139H333.387V131.508H334.521ZM342.636 139H341.31L343.463 135.835C342.884 135.707 342.44 135.461 342.13 135.097C341.825 134.728 341.672 134.265 341.672 133.709C341.672 133.025 341.902 132.488 342.362 132.096C342.823 131.704 343.465 131.508 344.29 131.508H347.626V139H346.491V136.006H344.598L342.636 139ZM342.779 133.723C342.779 134.589 343.408 135.021 344.666 135.021H346.491V132.492H344.434C343.331 132.492 342.779 132.902 342.779 133.723Z" fill="black"/>
<path d="M304.888 239H303.78V231.877C303.78 231.285 303.799 230.724 303.835 230.195C303.739 230.291 303.632 230.391 303.514 230.496C303.395 230.601 302.853 231.045 301.887 231.829L301.285 231.05L303.931 229.006H304.888V239ZM319.359 241.591H318.259V239H313.022V241.591H311.929V238.022H312.517C313.127 237.193 313.606 236.22 313.952 235.104C314.299 233.987 314.479 232.788 314.492 231.508H318.286V238.022H319.359V241.591ZM317.192 238.022V232.403H315.511C315.451 233.415 315.256 234.44 314.923 235.479C314.595 236.514 314.185 237.362 313.692 238.022H317.192ZM324.028 239.137C322.921 239.137 322.046 238.799 321.403 238.125C320.765 237.451 320.446 236.514 320.446 235.315C320.446 234.108 320.743 233.148 321.335 232.438C321.932 231.727 322.732 231.371 323.734 231.371C324.673 231.371 325.416 231.681 325.963 232.301C326.51 232.916 326.783 233.729 326.783 234.741V235.459H321.622C321.645 236.339 321.866 237.006 322.285 237.462C322.709 237.918 323.304 238.146 324.069 238.146C324.876 238.146 325.674 237.977 326.462 237.64V238.651C326.061 238.825 325.68 238.948 325.32 239.021C324.965 239.098 324.534 239.137 324.028 239.137ZM323.721 232.321C323.119 232.321 322.638 232.517 322.278 232.909C321.923 233.301 321.713 233.843 321.649 234.536H325.566C325.566 233.821 325.407 233.274 325.088 232.896C324.769 232.513 324.313 232.321 323.721 232.321ZM329.859 231.508V234.646H334.057V231.508H335.191V239H334.057V235.623H329.859V239H328.725V231.508H329.859ZM338.732 234.604H341.043C342.957 234.604 343.914 235.309 343.914 236.717C343.914 237.455 343.663 238.02 343.162 238.412C342.665 238.804 341.936 239 340.975 239H337.598V231.508H338.732V234.604ZM338.732 235.582V238.05H340.92C341.521 238.05 341.982 237.945 342.301 237.735C342.62 237.526 342.779 237.209 342.779 236.785C342.779 236.37 342.631 236.067 342.335 235.876C342.043 235.68 341.56 235.582 340.886 235.582H338.732Z" fill="black"/>
</svg>
