<svg width="490" height="110" viewBox="0 0 490 110" fill="none" xmlns="http://www.w3.org/2000/svg">
<path d="M106.306 80.6198C105.662 80.6198 105.361 80.2739 105.49 79.5388L113.093 31.3225C113.179 30.6306 113.609 30.2415 114.253 30.2415H131.608C143.206 30.2415 149.521 36.5117 147.588 48.8361L145.44 62.2415C143.507 74.4361 135.259 80.6198 123.661 80.6198H106.306ZM115.026 72.6631H124.906C131.608 72.6631 135.56 69.3334 136.677 62.2847L138.824 48.7496C139.984 41.4847 137.063 38.0685 130.362 38.0685H120.482L115.026 72.6631Z" fill="#1E0E00"/>
<path d="M170.484 42.4792C179.161 42.4792 184.359 46.8468 182.812 56.7928L179.59 77.3333C179.504 77.8955 179.161 78.3279 178.645 78.5441C174.822 79.6684 169.41 80.663 164.255 80.663C156.136 80.663 149.091 77.6793 150.509 68.9009C151.711 61.2036 158.627 57.6144 167.605 57.6144C169.925 57.6144 172.46 57.9171 174.521 58.1765L174.736 56.836C175.509 51.8198 174.049 49.7441 168.851 49.7441C165.329 49.7441 161.978 50.6522 159.53 51.9928C158.971 52.3387 158.456 52.2955 158.198 51.6901L156.05 47.4522C155.792 46.8901 155.835 46.5441 156.222 46.2414C159.959 43.863 164.813 42.4792 170.484 42.4792ZM165.329 73.4847C167.648 73.4847 170.355 73.0955 172.159 72.6198L173.405 64.663C171.557 64.3603 168.894 64.1009 166.703 64.1009C161.463 64.1009 159.057 65.8738 158.627 68.7711C158.155 72.1009 161.076 73.4847 165.329 73.4847Z" fill="#1E0E00"/>
<path fill-rule="evenodd" clip-rule="evenodd" d="M200.467 80.6199C195.699 80.6199 190.888 79.2793 186.979 76.0361C186.42 75.6901 186.463 75.1712 186.936 74.6523L190.33 70.0685C190.802 69.4199 191.232 69.3766 191.79 69.7658C194.582 72.1009 198.148 73.355 201.799 73.355C205.45 73.355 208.5 71.9712 208.93 69.2901C209.402 66.4793 206.138 65.7009 203.088 65.1388C198.019 64.1442 189.47 61.982 190.802 53.4631C192.005 45.6361 199.866 42.3928 207.383 42.3928C211.378 42.3928 215.287 43.3874 219.068 45.6361C219.583 45.9388 219.626 46.5009 219.196 47.0198L215.846 51.5171C215.416 52.0361 214.901 52.1658 214.385 51.8631C212.023 50.4793 209.016 49.528 205.88 49.528C201.756 49.528 199.265 51.0847 198.878 53.3766C198.405 56.2739 201.455 56.9658 205.923 57.8739C211.507 58.955 218.466 60.7712 217.22 68.8577C215.889 76.8144 208.844 80.6199 200.467 80.6199Z" fill="#1E0E00"/>
<path fill-rule="evenodd" clip-rule="evenodd" d="M243.811 43.3009C252.359 43.3009 258.373 47.8847 256.569 59.2144L253.39 79.582C253.261 80.2739 252.875 80.6631 252.23 80.6631H246.131C245.486 80.6631 245.142 80.3171 245.228 79.582L248.407 59.4306C249.481 52.6847 246.99 50.6523 241.792 50.6523C239.257 50.6523 236.68 51.0415 234.876 51.9063L230.537 79.582C230.408 80.2739 230.022 80.6631 229.334 80.6631H223.32C222.633 80.6631 222.332 80.3171 222.418 79.582L230.022 31.3225C230.151 30.6306 230.537 30.2415 231.225 30.2415H237.238C237.926 30.2415 238.226 30.5874 238.141 31.3225L236.036 44.5117C238.184 43.7766 240.804 43.3009 243.811 43.3009Z" fill="#1E0E00"/>
<path fill-rule="evenodd" clip-rule="evenodd" d="M261.294 79.6685L268.898 31.3225C268.983 30.7171 269.542 30.2415 270.1 30.2415H276.114C276.802 30.2415 277.102 30.5874 277.016 31.3225L269.456 79.928C269.37 80.3171 269.069 80.6198 268.683 80.6198H262.11C261.595 80.6198 261.208 80.1442 261.294 79.6685Z" fill="#1E0E00"/>
<path fill-rule="evenodd" clip-rule="evenodd" d="M305.711 44.2522C305.797 43.6035 306.227 43.2576 306.914 43.2576H312.928C313.616 43.2576 313.916 43.6035 313.83 44.2522L308.633 77.4197C306.914 88.2738 301.158 93.8089 290.419 93.8089C284.448 93.8089 280.582 92.4251 277.403 89.3549C276.887 88.9224 276.973 88.49 277.403 87.9711L281.097 83.69C281.527 83.1278 282.042 82.9981 282.472 83.3441C284.834 85.1603 287.713 86.5873 291.493 86.5873C296.304 86.5873 299.74 84.4684 300.557 77.4197C298.194 78.1116 295.445 78.717 292.867 78.717C285.608 78.717 278.649 74.0468 280.152 64.3603L283.331 44.2954C283.417 43.6468 283.889 43.3008 284.534 43.3008H290.634C291.278 43.3008 291.579 43.6468 291.45 44.2954L288.357 63.9711C287.498 69.4197 290.977 71.2792 295.187 71.2792C297.55 71.3657 300.041 70.717 301.674 69.8954L305.711 44.2522Z" fill="#1E0E00"/>
<path d="M32.9339 55.5567C32.9339 52.7459 30.6572 50.454 27.865 50.454H11.1548C8.36265 50.454 6.08594 52.7459 6.08594 55.5567C6.08594 58.3675 8.36265 60.6594 11.1548 60.6594H27.865C30.6572 60.6594 32.9339 58.3675 32.9339 55.5567ZM85.2553 33.027C83.5799 31.1243 81.2173 30.0432 78.597 30.0432H37.9599C35.1677 30.0432 32.891 32.3351 32.891 35.1459C32.891 37.9567 35.1677 40.2486 37.9599 40.2486L62.4023 40.2054C65.1944 40.2054 67.4712 42.4973 67.4712 45.3081C67.4712 47.0811 66.5691 48.6378 65.1944 49.5459C64.4212 50.1081 63.4332 50.4108 62.4023 50.4108H44.4463C41.6541 50.4108 39.3774 52.7027 39.3774 55.5135C39.3774 58.3243 41.6541 60.6594 44.4463 60.6594H66.8698C69.6619 60.6594 71.9387 62.9513 71.9387 65.7621C71.9387 68.4 69.9197 70.5621 67.3423 70.8216C67.1705 70.8648 16.2667 70.8216 16.2667 70.8216C13.4745 70.8216 11.1978 73.1135 11.1978 75.9243C11.1978 78.7351 13.4745 81.027 16.2667 81.027H23.2686C24.901 81.1135 26.0608 82.5838 25.7172 84.1838L24.858 87.9892C24.5573 90.0648 25.5024 92.054 27.2636 93.1351C28.1228 93.654 29.0248 93.9135 30.0129 93.9135C31.0868 93.9135 32.1607 93.5675 33.1057 92.9189L43.4154 82.8865C44.6182 81.6757 46.2935 80.9838 48.0117 80.9838H71.9387C77.1794 80.9838 82.2053 76.1405 82.9356 70.9081L87.1024 40.8108C87.4461 38.0865 86.9306 34.9729 85.2553 33.027ZM26.4904 35.1892C26.4904 32.3783 24.1707 30.0865 21.3785 30.0865C18.5864 30.0865 16.2667 32.3783 16.2667 35.1892C16.2667 38 18.5864 40.2919 21.3785 40.2919C24.1707 40.2919 26.4904 38 26.4904 35.1892Z" fill="#FE9548"/>
</svg>
