<svg width="227" height="157" viewBox="0 0 227 157" fill="none" xmlns="http://www.w3.org/2000/svg">
<rect x="1" y="1" width="90" height="155" fill="white" fill-opacity="0.5"/>
<g opacity="0.2">
<path d="M0.489905 3C0.489905 1.61371 1.61371 0.489905 3 0.489905H119.033C119.57 0.489905 120.093 0.662283 120.525 0.981695L135.659 12.1721C136.299 12.6454 136.677 13.3943 136.677 14.1904V153.885C136.677 155.271 135.553 156.395 134.167 156.395H3C1.61371 156.395 0.489905 155.271 0.489905 153.885V3Z" fill="white" stroke="#E3E5E8" stroke-width="0.979809"/>
<path d="M122.775 14.4622L121.455 7.53237C120.944 4.85034 123.99 2.93552 126.186 4.55874L132.786 9.43923C134.687 10.8444 134.291 13.7931 132.088 14.6482L126.807 16.6975C125.06 17.3756 123.126 16.3033 122.775 14.4622Z" fill="#D1D1D1"/>
<rect x="10.9028" y="70.7528" width="34.8889" height="40.3403" fill="#F8F9FD"/>
<rect x="10.9028" y="70.7528" width="34.8889" height="22.8958" fill="#E9E9E9"/>
<path d="M18.5245 83.4266L23.3473 78.9746C23.9796 78.3909 24.9589 78.3947 25.5867 78.9831L29.5798 82.7262C30.1462 83.2572 31.0102 83.3187 31.647 82.8734L33.6215 81.4926C34.1871 81.097 34.9417 81.097 35.5074 81.4926L37.8801 83.1519C38.3163 83.457 38.5759 83.954 38.5759 84.4841V87.5298C38.5759 88.4294 37.8422 89.1587 36.9372 89.1587H19.3283C18.4232 89.1587 18.0009 88.4294 18.0009 87.5298V84.6202C18.0009 84.1673 18.1906 83.7349 18.5245 83.4266Z" fill="white"/>
<circle cx="31.2912" cy="76.7278" r="2.14323" fill="white"/>
<rect x="91.7281" y="70.2983" width="34.2918" height="41.1501" fill="#F8F9FD"/>
<rect x="91.7281" y="70.2983" width="34.2918" height="23.1469" fill="#D5F6D2"/>
<rect x="51.4347" y="70.2983" width="34.2918" height="41.1501" fill="#F8F9FD"/>
<rect x="51.4347" y="70.2983" width="34.2918" height="23.1469" fill="#D5F6D2"/>
<path d="M58.792 83.6651L63.4138 79.3986C64.0198 78.8393 64.9583 78.8428 65.5599 79.4068L69.3866 82.9939C69.9294 83.5027 70.7575 83.5617 71.3677 83.1349L73.2599 81.8116C73.802 81.4325 74.5251 81.4325 75.0672 81.8116L77.3411 83.4018C77.7592 83.6942 78.0079 84.1705 78.0079 84.6786V87.5973C78.0079 88.4595 77.3048 89.1584 76.4375 89.1584H59.5623C58.6949 89.1584 58.2902 88.4595 58.2902 87.5973V84.809C58.2902 84.375 58.472 83.9605 58.792 83.6651Z" fill="white"/>
<path d="M99.0868 83.6657L103.709 79.3992C104.315 78.8399 105.253 78.8434 105.855 79.4074L109.681 82.9945C110.224 83.5033 111.052 83.5623 111.662 83.1355L113.555 81.8123C114.097 81.4332 114.82 81.4332 115.362 81.8123L117.636 83.4025C118.054 83.6948 118.303 84.1711 118.303 84.6792V87.5979C118.303 88.4601 117.6 89.159 116.732 89.159H99.8571C98.9897 89.159 98.585 88.4601 98.585 87.5979V84.8096C98.585 84.3756 98.7668 83.9611 99.0868 83.6657Z" fill="white"/>
<circle cx="70.7243" cy="77.5851" r="2.14323" fill="white"/>
<circle cx="111.018" cy="77.5851" r="2.14323" fill="white"/>
<circle cx="103.303" cy="143.597" r="3.85782" fill="#E9E9E9"/>
<circle cx="112.732" cy="143.597" r="3.85782" fill="#E9E9E9"/>
<circle cx="122.162" cy="143.597" r="3.85782" fill="#E9E9E9"/>
<rect x="10.9028" y="12.968" width="17.4444" height="2.18056" rx="1.09028" fill="#E9E9E9"/>
<rect x="10.9028" y="119.815" width="51.2431" height="8.72222" rx="4.28647" fill="#E9E9E9"/>
<rect x="10.9028" y="17.3291" width="10.9028" height="2.18056" rx="1.09028" fill="#E9E9E9"/>
<path d="M10.9028 30.9577C10.9028 30.0545 11.635 29.3223 12.5382 29.3223H96.4897C97.3929 29.3223 98.1251 30.0545 98.1251 30.9577C98.1251 31.8609 97.3929 32.5931 96.4897 32.5931H12.5382C11.635 32.5931 10.9028 31.8609 10.9028 30.9577Z" fill="#E9E9E9"/>
<rect x="10.9028" y="35.864" width="55.6042" height="3.27083" rx="1.63542" fill="#E9E9E9"/>
<rect x="10.9028" y="46.7666" width="99.2153" height="1.09028" fill="#E9E9E9"/>
<rect x="10.9028" y="139.44" width="64.3264" height="2.18056" fill="#E9E9E9"/>
<rect x="10.9028" y="53.3083" width="19.625" height="1.09028" fill="#E9E9E9"/>
<rect x="10.9028" y="50.0376" width="107.938" height="1.09028" fill="#E9E9E9"/>
<rect x="10.9028" y="143.801" width="69.7778" height="2.18056" fill="#E9E9E9"/>
<rect x="54.8674" y="88.0963" width="27.4347" height="1.95962" fill="#E9E9E9"/>
<rect x="95.0416" y="88.0963" width="26.4548" height="1.95962" fill="#E9E9E9"/>
<rect x="15.2639" y="88.0098" width="27.257" height="2.18056" fill="#E9E9E9"/>
<rect x="55.3572" y="92.9954" width="20.576" height="1.95962" fill="#E9E9E9"/>
<rect x="95.5314" y="92.9954" width="20.576" height="1.95962" fill="#E9E9E9"/>
<rect x="15.2639" y="93.4612" width="20.7153" height="2.18056" fill="#E9E9E9"/>
</g>
<rect x="22" y="1" width="90" height="155" fill="white"/>
<g opacity="0.4">
<path d="M21.4899 3C21.4899 1.61371 22.6137 0.489905 24 0.489905H140.033C140.57 0.489905 141.093 0.662284 141.525 0.981695L156.659 12.1721C157.299 12.6454 157.677 13.3943 157.677 14.1904V153.885C157.677 155.271 156.553 156.395 155.167 156.395H24C22.6137 156.395 21.4899 155.271 21.4899 153.885V3Z" fill="white" stroke="#E3E5E8" stroke-width="0.979809"/>
<path d="M144.449 18.0008L141.02 0L158.166 12.6776L144.449 18.0008Z" fill="#D1D1D1"/>
<rect x="31.9028" y="70.7528" width="34.8889" height="40.3403" fill="#F8F9FD"/>
<rect x="31.9028" y="70.7528" width="34.8889" height="22.8958" fill="#E9E9E9"/>
<path d="M39.5245 83.4266L44.3473 78.9746C44.9796 78.3909 45.9589 78.3947 46.5867 78.9831L50.5798 82.7262C51.1462 83.2572 52.0102 83.3187 52.647 82.8734L54.6215 81.4926C55.1871 81.097 55.9417 81.097 56.5074 81.4926L58.8801 83.1519C59.3163 83.457 59.5759 83.954 59.5759 84.4841V87.5298C59.5759 88.4294 58.8422 89.1587 57.9372 89.1587H40.3283C39.4232 89.1587 39.0009 88.4294 39.0009 87.5298V84.6202C39.0009 84.1673 39.1906 83.7349 39.5245 83.4266Z" fill="white"/>
<circle cx="52.2912" cy="76.7278" r="2.14323" fill="white"/>
<rect x="112.728" y="70.2983" width="34.2918" height="41.1501" fill="#F8F9FD"/>
<rect x="112.728" y="70.2983" width="34.2918" height="23.1469" fill="#D5F6D2"/>
<rect x="72.4347" y="70.2983" width="34.2918" height="41.1501" fill="#F8F9FD"/>
<rect x="72.4347" y="70.2983" width="34.2918" height="23.1469" fill="#D5F6D2"/>
<path d="M79.792 83.6651L84.4138 79.3986C85.0198 78.8393 85.9583 78.8428 86.5599 79.4068L90.3866 82.9939C90.9294 83.5027 91.7575 83.5617 92.3677 83.1349L94.2599 81.8116C94.802 81.4325 95.5251 81.4325 96.0672 81.8116L98.3411 83.4018C98.7592 83.6942 99.0079 84.1705 99.0079 84.6786V87.5973C99.0079 88.4595 98.3048 89.1584 97.4375 89.1584H80.5623C79.6949 89.1584 79.2902 88.4595 79.2902 87.5973V84.809C79.2902 84.375 79.472 83.9605 79.792 83.6651Z" fill="white"/>
<path d="M120.087 83.6657L124.709 79.3992C125.315 78.8399 126.253 78.8434 126.855 79.4074L130.681 82.9945C131.224 83.5033 132.052 83.5623 132.662 83.1355L134.555 81.8123C135.097 81.4332 135.82 81.4332 136.362 81.8123L138.636 83.4025C139.054 83.6948 139.303 84.1711 139.303 84.6792V87.5979C139.303 88.4601 138.6 89.159 137.732 89.159H120.857C119.99 89.159 119.585 88.4601 119.585 87.5979V84.8096C119.585 84.3756 119.767 83.9611 120.087 83.6657Z" fill="white"/>
<circle cx="91.7243" cy="77.5851" r="2.14323" fill="white"/>
<circle cx="132.018" cy="77.5851" r="2.14323" fill="white"/>
<circle cx="124.303" cy="143.597" r="3.85782" fill="#E9E9E9"/>
<circle cx="133.732" cy="143.597" r="3.85782" fill="#E9E9E9"/>
<circle cx="143.162" cy="143.597" r="3.85782" fill="#E9E9E9"/>
<rect x="31.9028" y="12.968" width="17.4444" height="2.18056" rx="1.09028" fill="#E9E9E9"/>
<rect x="31.9028" y="119.815" width="51.2431" height="8.72222" rx="4.28647" fill="#E9E9E9"/>
<rect x="31.9028" y="17.3291" width="10.9028" height="2.18056" rx="1.09028" fill="#E9E9E9"/>
<path d="M31.9028 30.9577C31.9028 30.0545 32.635 29.3223 33.5382 29.3223H117.49C118.393 29.3223 119.125 30.0545 119.125 30.9577C119.125 31.8609 118.393 32.5931 117.49 32.5931H33.5382C32.635 32.5931 31.9028 31.8609 31.9028 30.9577Z" fill="#E9E9E9"/>
<rect x="31.9028" y="35.864" width="55.6042" height="3.27083" rx="1.63542" fill="#E9E9E9"/>
<rect x="31.9028" y="46.7666" width="99.2153" height="1.09028" fill="#E9E9E9"/>
<rect x="31.9028" y="139.44" width="64.3264" height="2.18056" fill="#E9E9E9"/>
<rect x="31.9028" y="53.3083" width="19.625" height="1.09028" fill="#E9E9E9"/>
<rect x="31.9028" y="50.0376" width="107.938" height="1.09028" fill="#E9E9E9"/>
<rect x="31.9028" y="143.801" width="69.7778" height="2.18056" fill="#E9E9E9"/>
<rect x="75.8674" y="98.0963" width="27.4347" height="1.95962" fill="#E9E9E9"/>
<rect x="116.042" y="98.0963" width="26.4548" height="1.95962" fill="#E9E9E9"/>
<rect x="36.2639" y="98.0098" width="27.257" height="2.18056" fill="#E9E9E9"/>
<rect x="76.3572" y="102.995" width="20.576" height="1.95962" fill="#E9E9E9"/>
<rect x="116.531" y="102.995" width="20.576" height="1.95962" fill="#E9E9E9"/>
<rect x="36.2639" y="103.461" width="20.7153" height="2.18056" fill="#E9E9E9"/>
</g>
<rect x="43" y="1" width="90" height="155" fill="white"/>
<g opacity="0.6">
<path d="M43.4821 3.00024C43.4821 1.61396 44.6059 0.490149 45.9922 0.490149H162.025C162.562 0.490149 163.085 0.662527 163.517 0.981939L178.652 12.1723C179.292 12.6456 179.669 13.3945 179.669 14.1906V153.885C179.669 155.271 178.546 156.395 177.159 156.395H45.9922C44.6059 156.395 43.4821 155.271 43.4821 153.885V3.00024Z" fill="white" stroke="#E3E5E8" stroke-width="0.979809"/>
<path d="M165.767 14.4622L164.447 7.53237C163.936 4.85034 166.982 2.93552 169.178 4.55874L175.778 9.43923C177.679 10.8444 177.284 13.7931 175.08 14.6482L169.8 16.6975C168.052 17.3756 166.118 16.3033 165.767 14.4622Z" fill="#D1D1D1"/>
<rect x="53.8932" y="70.7528" width="34.8889" height="40.3403" fill="#F8F9FD"/>
<rect x="53.8932" y="70.7528" width="34.8889" height="22.8958" fill="#E9E9E9"/>
<path d="M61.5164 83.4266L66.3392 78.9746C66.9715 78.3909 67.9509 78.3947 68.5787 78.9831L72.5717 82.7262C73.1381 83.2572 74.0022 83.3187 74.6389 82.8734L76.6134 81.4926C77.1791 81.097 77.9337 81.097 78.4993 81.4926L80.8721 83.1519C81.3083 83.457 81.5679 83.954 81.5679 84.4841V87.5298C81.5679 88.4294 80.8342 89.1587 79.9291 89.1587H62.3202C61.4152 89.1587 60.9928 88.4294 60.9928 87.5298V84.6202C60.9928 84.1673 61.1825 83.7349 61.5164 83.4266Z" fill="white"/>
<circle cx="74.2815" cy="76.7278" r="2.14323" fill="white"/>
<rect x="134.719" y="70.2983" width="34.2918" height="41.1501" fill="#F8F9FD"/>
<rect x="134.719" y="70.2983" width="34.2918" height="23.1469" fill="#D5F6D2"/>
<rect x="94.4252" y="70.2983" width="34.2918" height="41.1501" fill="#F8F9FD"/>
<rect x="94.4252" y="70.2983" width="34.2918" height="23.1469" fill="#D5F6D2"/>
<path d="M101.784 83.6652L106.406 79.3987C107.012 78.8394 107.95 78.843 108.552 79.4069L112.378 82.994C112.921 83.5029 113.749 83.5618 114.36 83.1351L116.252 81.8118C116.794 81.4327 117.517 81.4327 118.059 81.8118L120.333 83.402C120.751 83.6943 121 84.1706 121 84.6787V87.5974C121 88.4596 120.297 89.1585 119.429 89.1585H102.554C101.687 89.1585 101.282 88.4596 101.282 87.5974V84.8091C101.282 84.3751 101.464 83.9606 101.784 83.6652Z" fill="white"/>
<path d="M142.077 83.6657L146.699 79.3992C147.305 78.8399 148.244 78.8434 148.845 79.4074L152.672 82.9945C153.215 83.5033 154.043 83.5623 154.653 83.1355L156.545 81.8123C157.087 81.4332 157.81 81.4332 158.353 81.8123L160.626 83.4025C161.044 83.6948 161.293 84.1711 161.293 84.6792V87.5979C161.293 88.4601 160.59 89.159 159.723 89.159H142.848C141.98 89.159 141.575 88.4601 141.575 87.5979V84.8096C141.575 84.3756 141.757 83.9611 142.077 83.6657Z" fill="white"/>
<circle cx="113.715" cy="77.5851" r="2.14323" fill="white"/>
<circle cx="154.008" cy="77.5851" r="2.14323" fill="white"/>
<circle cx="146.294" cy="143.597" r="3.85782" fill="#E9E9E9"/>
<circle cx="155.723" cy="143.597" r="3.85782" fill="#E9E9E9"/>
<circle cx="165.152" cy="143.597" r="3.85782" fill="#E9E9E9"/>
<rect x="53.8932" y="12.968" width="17.4444" height="2.18056" rx="1.09028" fill="#E9E9E9"/>
<rect x="53.8932" y="119.815" width="51.2431" height="8.72222" rx="4.28647" fill="#E9E9E9"/>
<rect x="53.8932" y="17.3291" width="10.9028" height="2.18056" rx="1.09028" fill="#E9E9E9"/>
<path d="M53.8915 30.9577C53.8915 30.0545 54.6237 29.3223 55.5269 29.3223H139.478C140.382 29.3223 141.114 30.0545 141.114 30.9577C141.114 31.8609 140.382 32.5931 139.478 32.5931H55.5269C54.6237 32.5931 53.8915 31.8609 53.8915 30.9577Z" fill="#E9E9E9"/>
<rect x="53.8915" y="35.864" width="55.6042" height="3.27083" rx="1.63542" fill="#E9E9E9"/>
<rect x="53.8915" y="46.7666" width="99.2153" height="1.09028" fill="#E9E9E9"/>
<rect x="53.8915" y="139.44" width="64.3264" height="2.18056" fill="#E9E9E9"/>
<rect x="53.8915" y="53.3083" width="19.625" height="1.09028" fill="#E9E9E9"/>
<rect x="53.8915" y="50.0376" width="107.938" height="1.09028" fill="#E9E9E9"/>
<rect x="53.8915" y="143.801" width="69.7778" height="2.18056" fill="#E9E9E9"/>
<rect x="97.8544" y="98.0963" width="27.4347" height="1.95962" fill="#E9E9E9"/>
<rect x="138.029" y="98.0963" width="26.4548" height="1.95962" fill="#E9E9E9"/>
<rect x="58.2509" y="98.0098" width="27.257" height="2.18056" fill="#E9E9E9"/>
<rect x="98.3441" y="102.995" width="20.576" height="1.95962" fill="#E9E9E9"/>
<rect x="138.518" y="102.995" width="20.576" height="1.95962" fill="#E9E9E9"/>
<rect x="58.2509" y="103.461" width="20.7153" height="2.18056" fill="#E9E9E9"/>
</g>
<rect x="66" y="1" width="90" height="155" fill="white"/>
<g opacity="0.8">
<path d="M66.2946 3.11523C66.2946 1.72895 67.4184 0.605139 68.8047 0.605139H184.837C185.374 0.605139 185.898 0.777517 186.33 1.09693L201.464 12.2873C202.104 12.7606 202.482 13.5095 202.482 14.3056V154C202.482 155.386 201.358 156.51 199.972 156.51H68.8047C67.4184 156.51 66.2946 155.386 66.2946 154V3.11523Z" fill="white" stroke="#E3E5E8" stroke-width="0.979809"/>
<path d="M189.254 18.1158L185.825 0.11499L202.971 12.7925L189.254 18.1158Z" fill="#D1D1D1"/>
<rect x="76.9443" y="70.4133" width="34.2918" height="41.1501" fill="#F8F9FD"/>
<rect x="76.97" y="70.8678" width="33.7986" height="22.8958" fill="#E9E9E9"/>
<path d="M84.329 83.5416L89.1519 79.0896C89.7842 78.5059 90.7635 78.5097 91.3913 79.0981L95.3843 82.8412C95.9507 83.3722 96.8148 83.4337 97.4515 82.9884L99.4261 81.6075C99.9917 81.212 100.746 81.212 101.312 81.6075L103.685 83.2669C104.121 83.572 104.38 84.0689 104.38 84.5991V87.6448C104.38 88.5444 103.647 89.2737 102.742 89.2737H85.1328C84.2278 89.2737 83.8054 88.5444 83.8054 87.6448V84.7352C83.8054 84.2823 83.9952 83.8498 84.329 83.5416Z" fill="white"/>
<circle cx="97.0943" cy="76.8428" r="2.14323" fill="white"/>
<rect x="157.531" y="70.4133" width="34.2918" height="41.1501" fill="#F8F9FD"/>
<rect x="157.531" y="70.4133" width="34.2918" height="23.1469" fill="#D5F6D2"/>
<rect x="117.238" y="70.4133" width="34.2918" height="41.1501" fill="#F8F9FD"/>
<rect x="117.238" y="70.4133" width="34.2918" height="23.1469" fill="#D5F6D2"/>
<path d="M124.596 83.7802L129.218 79.5137C129.824 78.9544 130.763 78.9579 131.364 79.5219L135.191 83.109C135.734 83.6178 136.562 83.6768 137.172 83.25L139.064 81.9268C139.606 81.5477 140.33 81.5477 140.872 81.9268L143.146 83.517C143.564 83.8093 143.812 84.2856 143.812 84.7937V87.7124C143.812 88.5746 143.109 89.2735 142.242 89.2735H125.367C124.499 89.2735 124.095 88.5746 124.095 87.7124V84.9241C124.095 84.4901 124.276 84.0756 124.596 83.7802Z" fill="white"/>
<path d="M164.89 83.7807L169.512 79.5142C170.118 78.9549 171.056 78.9584 171.658 79.5224L175.485 83.1095C176.027 83.6183 176.855 83.6773 177.466 83.2505L179.358 81.9272C179.9 81.5481 180.623 81.5481 181.165 81.9272L183.439 83.5174C183.857 83.8098 184.106 84.2861 184.106 84.7942V87.7129C184.106 88.5751 183.403 89.274 182.535 89.274H165.66C164.793 89.274 164.388 88.5751 164.388 87.7129V84.9246C164.388 84.4906 164.57 84.0761 164.89 83.7807Z" fill="white"/>
<circle cx="136.527" cy="77.7001" r="2.14323" fill="white"/>
<circle cx="176.821" cy="77.7001" r="2.14323" fill="white"/>
<circle cx="169.102" cy="143.712" r="3.85782" fill="#E9E9E9"/>
<circle cx="178.535" cy="143.712" r="3.85782" fill="#E9E9E9"/>
<circle cx="187.965" cy="143.712" r="3.85782" fill="#E9E9E9"/>
<rect x="76.97" y="13.083" width="17.4444" height="2.18056" rx="1.09028" fill="#E9E9E9"/>
<rect x="76.97" y="119.93" width="50.1528" height="8.72222" rx="4.28647" fill="#E9E9E9"/>
<rect x="76.97" y="17.4441" width="10.9028" height="2.18056" rx="1.09028" fill="#E9E9E9"/>
<path d="M76.9684 31.0727C76.9684 30.1695 77.7006 29.4373 78.6038 29.4373H162.555C163.458 29.4373 164.191 30.1695 164.191 31.0727C164.191 31.9759 163.458 32.7081 162.555 32.7081H78.6038C77.7006 32.7081 76.9684 31.9759 76.9684 31.0727Z" fill="#E9E9E9"/>
<rect x="76.9684" y="35.979" width="55.6042" height="3.27083" rx="1.63542" fill="#E9E9E9"/>
<rect x="76.9684" y="46.8816" width="99.2153" height="1.09028" fill="#E9E9E9"/>
<rect x="76.9684" y="139.555" width="64.3264" height="2.18056" fill="#E9E9E9"/>
<rect x="76.9684" y="53.4233" width="19.625" height="1.09028" fill="#E9E9E9"/>
<rect x="76.9684" y="50.1526" width="107.938" height="1.09028" fill="#E9E9E9"/>
<rect x="76.9684" y="143.916" width="69.7778" height="2.18056" fill="#E9E9E9"/>
<rect x="120.667" y="98.2113" width="27.4347" height="1.95962" fill="#E9E9E9"/>
<rect x="160.842" y="98.2113" width="26.4548" height="1.95962" fill="#E9E9E9"/>
<rect x="80.2375" y="98.1248" width="27.257" height="2.18056" fill="#E9E9E9"/>
<rect x="121.157" y="103.11" width="20.576" height="1.95962" fill="#E9E9E9"/>
<rect x="161.331" y="103.11" width="20.576" height="1.95962" fill="#E9E9E9"/>
<rect x="80.2375" y="103.576" width="20.7153" height="2.18056" fill="#E9E9E9"/>
</g>
<rect x="89" y="1" width="90" height="155" fill="white"/>
<path d="M89.4899 3C89.4899 1.61371 90.6137 0.489905 92 0.489905H208.033C208.57 0.489905 209.093 0.662283 209.525 0.981695L224.659 12.1721C225.299 12.6454 225.677 13.3943 225.677 14.1904V153.885C225.677 155.271 224.553 156.395 223.167 156.395H92C90.6137 156.395 89.4899 155.271 89.4899 153.885V3Z" fill="white" stroke="#E3E5E8" stroke-width="0.979809"/>
<path d="M212.04 18.0008L208.61 0L225.756 12.6776L212.04 18.0008Z" fill="#E9E9E9"/>
<rect x="100.132" y="70.868" width="33.7986" height="40.3403" rx="1" fill="#FF8246"/>
<path d="M107.115 83.4264L111.938 78.9744C112.57 78.3907 113.55 78.3944 114.178 78.9829L118.171 82.726C118.737 83.2569 119.601 83.3185 120.238 82.8731L122.212 81.4923C122.778 81.0967 123.533 81.0967 124.098 81.4923L126.471 83.1516C126.907 83.4567 127.167 83.9537 127.167 84.4839V87.5295C127.167 88.4292 126.433 89.1584 125.528 89.1584H107.919C107.014 89.1584 106.592 88.4292 106.592 87.5295V84.62C106.592 84.1671 106.781 83.7346 107.115 83.4264Z" fill="white"/>
<circle cx="119.882" cy="76.7278" r="2.14323" fill="white"/>
<rect x="180.812" y="70.868" width="33.7986" height="40.3403" rx="1" fill="#FF8246"/>
<rect x="140.472" y="70.868" width="33.7986" height="40.3403" rx="1" fill="#FF8246"/>
<path d="M147.384 83.6652L152.006 79.3987C152.611 78.8394 153.55 78.843 154.152 79.4069L157.978 82.994C158.521 83.5029 159.349 83.5618 159.959 83.1351L161.852 81.8118C162.394 81.4327 163.117 81.4327 163.659 81.8118L165.933 83.402C166.351 83.6943 166.6 84.1706 166.6 84.6787V87.5974C166.6 88.4596 165.896 89.1585 165.029 89.1585H148.154C147.287 89.1585 146.882 88.4596 146.882 87.5974V84.8091C146.882 84.3751 147.064 83.9606 147.384 83.6652Z" fill="white"/>
<path d="M187.677 83.6657L192.299 79.3992C192.905 78.8399 193.843 78.8434 194.445 79.4074L198.272 82.9945C198.815 83.5033 199.643 83.5623 200.253 83.1355L202.145 81.8123C202.687 81.4332 203.41 81.4332 203.952 81.8123L206.226 83.4025C206.644 83.6948 206.893 84.1711 206.893 84.6792V87.5979C206.893 88.4601 206.19 89.159 205.323 89.159H188.447C187.58 89.159 187.175 88.4601 187.175 87.5979V84.8096C187.175 84.3756 187.357 83.9611 187.677 83.6657Z" fill="white"/>
<circle cx="159.315" cy="77.5851" r="2.14323" fill="white"/>
<circle cx="199.608" cy="77.5851" r="2.14323" fill="white"/>
<circle cx="191.212" cy="143.413" r="3.85782" fill="#E9E9E9"/>
<circle cx="201.025" cy="143.413" r="3.85782" fill="#E9E9E9"/>
<circle cx="210.837" cy="143.413" r="3.85782" fill="#E9E9E9"/>
<rect x="100.132" y="13.0833" width="16.3542" height="2.18056" rx="1.09028" fill="#E9E9E9"/>
<rect x="100.132" y="119.931" width="50.1528" height="8.72222" rx="4.28647" fill="#E9E9E9"/>
<rect x="100.132" y="17.4443" width="10.9028" height="2.18056" rx="1.09028" fill="#E9E9E9"/>
<path d="M100.132 31.0729C100.132 30.1697 100.864 29.4375 101.767 29.4375H185.719C186.622 29.4375 187.354 30.1697 187.354 31.0729C187.354 31.9761 186.622 32.7083 185.719 32.7083H101.767C100.864 32.7083 100.132 31.9761 100.132 31.0729Z" fill="#E9E9E9"/>
<rect x="100.132" y="35.9792" width="55.6042" height="3.27083" rx="1.63542" fill="#E9E9E9"/>
<rect x="100.132" y="46.8818" width="99.2153" height="1.09028" fill="#E9E9E9"/>
<rect x="100.132" y="139.556" width="64.3264" height="2.18056" fill="#E9E9E9"/>
<rect x="100.132" y="53.4236" width="19.625" height="1.09028" fill="#E9E9E9"/>
<rect x="100.132" y="50.1528" width="107.938" height="1.09028" fill="#E9E9E9"/>
<rect x="100.132" y="143.917" width="69.7778" height="2.18056" fill="#E9E9E9"/>
<rect x="143.743" y="98.125" width="27.257" height="2.18056" fill="white"/>
<rect x="184.083" y="98.125" width="26.1667" height="2.18056" fill="white"/>
<rect x="103.403" y="98.125" width="27.257" height="2.18056" fill="white"/>
<rect x="143.743" y="102.486" width="20.7153" height="2.18056" fill="white"/>
<rect x="184.083" y="102.486" width="20.7153" height="2.18056" fill="white"/>
<rect x="103.403" y="102.486" width="20.7153" height="2.18056" fill="white"/>
</svg>
