<svg id="Слой_1" data-name="Слой 1" xmlns="http://www.w3.org/2000/svg" viewBox="0 0 328.32 140.64"><defs><style>.cls-1{fill:#7f7f7f;}</style></defs><title>armani_beauty</title><path d="M231,141c-1.06-.52-2.29-.41-3.37-.91-.64-.3-1-.54-.56-1.27a1.55,1.55,0,0,0,.17-.45c.29-1.07.72-1.33,2-1,3.75,1.11,5.17-.27,6.62-3.47.23-.5-.08-.84-.25-1.22q-4.63-10.17-9.27-20.33c-.16-.35-.3-.72-.51-1.2,1.16,0,2.2,0,3.22,0,.77,0,.77.61,1,1q3.77,8.58,7.5,17.19c0,.07.07.14.12.22a3.45,3.45,0,0,0,.77-1.59c2-5.23,4.06-10.46,6-15.72.31-.82.67-1.24,1.6-1.14a21.41,21.41,0,0,0,2.38,0,20.59,20.59,0,0,1-1.29,3.44q-4.07,10.08-8.18,20.14a13.53,13.53,0,0,1-2.08,3.61,6.1,6.1,0,0,1-4.77,2.38c-.21,0-.49-.1-.59.23Z"/><path class="cls-1" d="M.41,76.63H.16V74l.26,0A2.44,2.44,0,0,1,.41,76.63Z"/><path d="M191,129.92a8.7,8.7,0,0,1-4.8,3.82c-5,1.38-11.3-.45-11.5-8.48-.11-4.4,0-8.8,0-13.2,0-.76.23-.92.95-.92,2.51,0,2.51,0,2.51,2.46,0,3.84-.1,7.68.09,11.51s2.59,6,6.13,6a6.51,6.51,0,0,0,6.6-6.28c.13-4.16.08-8.32,0-12.48,0-.93.21-1.22,1.17-1.19,2.21.07,2.21,0,2.21,2.27,0,6.36,0,12.72,0,19.08,0,1-.17,1.31-1.22,1.27-2.16-.09-2.16,0-2.16-2.23C191,131.1,191,130.68,191,129.92Z"/><path d="M217.8,130.26c0,.27,0,.46,0,.66,0,2.46-.26,2.81-2.75,3.06a13,13,0,0,1-2.63,0c-3.27-.34-5.07-2.6-5.1-6.39,0-4.12,0-8.24,0-12.35,0-.88-.18-1.17-1.11-1.14-2.09.07-2.06,0-2.05-2.05,0-.65.13-.89.85-.9,2.29,0,2.29-.07,2.29-2.4,0-1.16,0-2.32,0-3.48,0-.64.12-.9.84-.92,2.61-.07,2.61-.1,2.61,2.5,0,1.12.06,2.24,0,3.36-.06.84.27,1,1,1,1.76,0,3.52,0,5.28,0,.7,0,.85.22.85.88,0,2.1,0,2.1-2,2.1-1.44,0-2.88,0-4.32,0-.63,0-.82.2-.82.82,0,4.16,0,8.32,0,12.47.05,2.87,2.11,4.14,5.25,3.4C216.61,130.66,217.17,130.45,217.8,130.26Z"/><path d="M.41,76.63l0-2.6c1.24,0,2.49-.11,3.72,0,1.05.1,1.42-.37,1.73-1.26q5.27-15.12,10.59-30.23L31.3.31c.63,1.82,1.2,3.41,1.74,5Q44.46,38.92,55.87,72.53c.35,1,.74,1.58,2,1.52,3-.14,6-.07,9,0,.78,0,1.09-.1,1.09-1q0-32.88,0-65.76c0-.78-.2-1-1-1-1.08.07-2.16,0-3.24,0-1.73,0-1.47.28-1.57-1.5-.06-1,.26-1.34,1.25-1.24a25.14,25.14,0,0,0,2.52,0c6.32,0,12.64,0,19,0,4.72,0,9.33.69,13.53,3,6.67,3.66,9.65,9.44,8.94,16.9-.66,6.9-4.51,11.68-10.92,14.36l-.77.33c.73.3,1.4.55,2,.84,4.7,2.15,7.05,6,8,10.92a43.52,43.52,0,0,1,.48,7.88c.06,3.47-.31,7,.22,10.42.59,3.86,2.93,5.79,6.8,5.79,3.16,0,6.32,0,9.48,0,.78,0,1-.2,1-1q0-32.88,0-65.76c0-.76-.17-1.06-1-1-1.28.07-2.56,0-3.84,0-.84,0-1.06-.27-1-1a3.36,3.36,0,0,0,0-.84c-.08-.65.13-.9.84-.9,4.44,0,8.88,0,13.32,0,.86,0,1,.49,1.18,1l16.63,46L153,59c.54-1.52,1-2.85,1.48-4.18q8.65-25.08,17.29-50.17c.27-.77.57-1.13,1.49-1.12,4.36.06,8.72.09,13.08,0,1.38,0,1,.77,1.09,1.51s0,1.37-1.08,1.27c-1.31-.12-2.64,0-4,0-.58,0-.8.19-.73.76a4.79,4.79,0,0,1,0,.6q0,32.52,0,65c0,1.09.26,1.4,1.36,1.36,2.4-.09,4.8-.05,7.2,0a1.16,1.16,0,0,0,1.36-.92Q202.74,41.05,214,9L217.09.32c.54,1.55,1,2.84,1.44,4.14q11.68,34.35,23.35,68.7c.21.61.44.88,1.15.87,2.72-.05,5.44,0,8.16,0,.72,0,.94-.15.94-.92q0-32.94,0-65.88c0-.86-.31-1-1-1-1.28,0-2.56,0-3.84,0-.77,0-1-.23-.91-.95a5.53,5.53,0,0,0,0-1.08c0-.49.1-.72.65-.72q7.5,0,15,0c.57,0,.73.38,1,.74l30,46.18,3.86,5.92c.36-.26.19-.61.19-.89q0-24.06,0-48.12c0-1-.33-1.18-1.2-1.13-1.24.07-2.48,0-3.72,0-.66,0-1-.15-.87-.85a2.93,2.93,0,0,0,0-.84c-.13-.83.18-1.07,1-1.06q17.52,0,35,0c1.2,0,1.13.58,1.11,1.38s.18,1.52-1.09,1.4-2.64,0-4,0c-.58,0-.81.17-.73.74a4.51,4.51,0,0,1,0,.6q0,32.52,0,65c0,1,.16,1.5,1.32,1.38s2.4,0,3.6,0c.66,0,1,.15.87.85a3.12,3.12,0,0,0,0,.84c.1.75-.13,1-1,1q-9.54-.05-19.08,0c-.88,0-1.13-.28-1-1.09a3.86,3.86,0,0,0,0-1c-.06-.55.2-.67.7-.66,1.24,0,2.48-.06,3.72,0,1,.07,1.39-.17,1.38-1.32-.05-10,0-19.92,0-29.88q0-17.7,0-35.4c0-.94-.24-1.18-1.17-1.17-3.64.06-7.28.07-10.92,0-1.11,0-1.45.18-1.44,1.39q.07,30.78,0,61.56c0,3.19,0,6.38,0,9.94L255,10.44l-.21.07v1.15q0,30.54,0,61.08c0,1,.2,1.39,1.28,1.29,1.23-.11,2.48,0,3.72,0,.62,0,.9.16.79.79a.65.65,0,0,0,0,.12c0,1.78,0,1.78-1.7,1.78H224.3c-.45,0-1.17.27-1.31-.22a5.62,5.62,0,0,1,0-2.25c.05-.34.56-.18.86-.19h7.72c.14-.39-.07-.7-.17-1-2.05-6.17-4.12-12.33-6.15-18.51a1.25,1.25,0,0,0-1.44-1c-7.12,0-14.24,0-21.36,0-.5,0-1-.1-1.22.62-2.28,6.58-4.61,13.15-7,19.9,1.85,0,3.59,0,5.32,0,.81,0,1.11.14,1.07,1-.07,1.67,0,1.68-1.72,1.68-10.44,0-20.88,0-31.32,0-1.33,0-1.11-.64-1.16-1.43s0-1.43,1.13-1.32,2.4,0,3.6,0c.82,0,1.09-.18,1.07-1-.06-2.88,0-5.76,0-8.64V13L172,13l-22,64.58-23.35-62.8h-.19v1q0,28.56,0,57.12c0,.9.17,1.24,1.15,1.18,1.43-.09,2.88,0,4.32,0,.61,0,.81.13.81.78,0,1.91,0,1.91-1.84,1.91-6,0-12-.17-18,0C105.37,77,99,72.13,97.13,64.29A29.49,29.49,0,0,1,96.39,58a77.49,77.49,0,0,0-.18-9.11c-.76-5.58-4.09-8.68-9.77-9.22-2.64-.25-5.27-.11-7.91-.21-.92,0-1.11.23-1.11,1.12,0,7.16,0,14.32,0,21.48,0,3.68,0,7.36,0,11,0,.74.17.94.92.92,2.36-.05,4.72,0,7.08,0,.75,0,1,.18.91.92a4,4,0,0,0,0,1.08c.08.62-.22.77-.76.7a4.86,4.86,0,0,0-.6,0q-23.28,0-46.56,0c-.42,0-1.11.31-1.24-.27a6,6,0,0,1,0-2.25c.05-.3.57-.14.87-.14h7.69c.15-.45-.09-.79-.21-1.14-2-6.12-4.09-12.24-6.1-18.38a1.25,1.25,0,0,0-1.43-1c-7.12,0-14.24,0-21.36,0-.56,0-1,0-1.28.71-2.23,6.48-4.53,12.94-6.8,19.4a1.47,1.47,0,0,0,0,.41c1.77,0,3.53,0,5.28,0,.69,0,1.07.1.94.89a4,4,0,0,0,0,1.08c.06.58-.15.74-.73.74C9.52,76.65,5,76.65.41,76.63Zm77-40.79c0,.78.2,1,1,1,1.64-.06,3.28,0,4.91,0a12.2,12.2,0,0,0,9.52-4.26c3.78-4.25,4.8-9.26,3.7-14.74S92.49,8.51,87,6.87c-2.81-.85-5.71-.5-8.57-.61-.85,0-1,.22-1,1,0,4.71,0,9.43,0,14.15S77.46,31,77.42,35.84Zm-50-16.48q-5.24,15.25-10.51,30.5c-.3.88-.07,1,.74,1,6.44,0,12.88,0,19.31,0,1.32,0,1.32,0,.88-1.31L31.24,30.06,27.62,19.34Zm185.48.89c-3.38,9.82-6.74,19.65-10.16,29.46-.38,1.08,0,1.15.88,1.15,6.39,0,12.78,0,19.18,0,1.17,0,1.18-.34.86-1.28-2.08-6.06-4.12-12.14-6.16-18.21-1.35-4-2.69-8-4.11-12.3C213.11,19.62,213,19.93,212.85,20.25Z"/><path d="M85.9,115.29c4.36-6,10.94-5.44,14.79-2.46,3.63,2.82,4.69,6.71,4.31,11.09a10.82,10.82,0,0,1-10.22,10.2A9.38,9.38,0,0,1,87,131.06c-.38-.4-.73-.82-1.32-1.48,0,1.31,0,2.35,0,3.39,0,.55-.16.74-.74.77-2.71.13-2.71.15-2.71-2.51,0-9.39,0-18.78,0-28.18,0-.94.22-1.22,1.18-1.19,2.28.07,2.28,0,2.28,2.35,0,3.28,0,6.55,0,9.83A2,2,0,0,0,85.9,115.29Zm15.65,6.58c-.24-5.3-4.42-8.9-9.3-8-4.17.77-7.06,4.91-6.62,9.48a8.22,8.22,0,0,0,9.9,7.54c3.7-.83,6-4.08,6-8.42C101.56,122.26,101.57,122.06,101.56,121.86Z"/><path d="M117.59,123.68c.44,3.29,1.86,5.81,5,7a8.71,8.71,0,0,0,9.05-1.74c.33-.27.56-1,1.05-.69a9.42,9.42,0,0,1,1.84,1.68c.18.19-.17.4-.32.57a12,12,0,0,1-13,3A11.35,11.35,0,0,1,114.15,123c-.07-4,1.09-7.44,4.23-10A10.28,10.28,0,0,1,135,118.83a23.51,23.51,0,0,1,.48,3.8c.06.85-.24,1.07-1.08,1.07-5.16,0-10.32,0-15.48,0Zm13.22-2.51c.44,0,.84,0,.74-.63-.33-2.3-1.62-5.54-5-6.37-4.66-1.14-8,2.49-8.51,6.46-.09.68.38.52.72.53h12.05Z"/><path d="M160.44,130.49c-3.63,3.71-7.68,4.58-12.23,2.82a6.38,6.38,0,0,1-4.29-6.64,6.48,6.48,0,0,1,4.59-6.09c3.59-1.28,7.24-1,10.85-.14,1,.24,1.15,0,1.09-.91-.23-3.36-2.25-5.36-5.81-5.64a14.19,14.19,0,0,0-6.87,1.28c-.65.28-.92.28-1.18-.45-.75-2.08-.79-2.07,1.31-2.81a16.94,16.94,0,0,1,9.54-.69,7.52,7.52,0,0,1,6.16,7.16c.3,4.87.06,9.75.13,14.62,0,.58-.2.73-.76.75-2.51.1-2.51.12-2.53-2.32C160.44,131.19,160.44,131,160.44,130.49Zm-10.55-7.43a4.2,4.2,0,0,0,0,7.72A7.29,7.29,0,0,0,160.5,124a.84.84,0,0,0-.75-1,26.14,26.14,0,0,0-5.48-.76A10,10,0,0,0,149.89,123.06Z"/></svg>