<svg id="Слой_1" data-name="Слой 1" xmlns="http://www.w3.org/2000/svg" viewBox="0 0 589.8 180.3"><defs><style>.cls-1{fill:#d4002a;}</style></defs><title>avis белый</title><path id="path14" class="cls-1" d="M572.38,17.82V13.13h2.68c1.55,0,3.29.44,3.29,2.24,0,2-1.93,2.44-3.66,2.44Zm-3,9.27h3V20.21h2.16l3.81,6.88h3.59l-4.43-7.2a4.39,4.39,0,0,0,3.8-4.44c0-3.53-3-4.82-6.19-4.82h-5.7Zm-6.62-8.17a12.34,12.34,0,1,1,12.29,12.35A12.32,12.32,0,0,1,562.79,18.92Zm-2.32,0A14.66,14.66,0,1,0,575.09,4.34,14.46,14.46,0,0,0,560.48,18.92Zm-213,156.73h41.61V4.34H347.46ZM330.89,4.34H285.17L245.49,128.13,205.1,4.34H158.65l64.83,171.3h41.37l66-171.3Zm-147,171.3L113.83,4.34H72.62L0,175.64H45.77L58.33,142h66.32l13.3,33.62Zm-70.63-66.77H70.21L92,50.08Zm404.9-61.79c-10.88-9.76-20.84-13-31.48-13s-24,3.64-24,17.19c0,11.36,10.17,15.2,26.39,20.31,23.22,7.5,53.22,17.19,53.22,51.3,0,39.43-31.7,57.09-65.56,57.09-24.44,0-49.13-8.95-64.12-24.68l25.37-26c10.11,10.88,25.19,16.6,38.75,16.6,12.57,0,23.71-4.86,23.71-18.63,0-13.07-13.08-17.44-35.57-24.72-21.76-7-43.78-17.87-43.78-48.82,0-38,34.35-53.71,66.27-53.71,19.37,0,41.14,7.27,56.14,21L518.16,47.09"/></svg>