<svg id="Layer_1" data-name="Layer 1" xmlns="http://www.w3.org/2000/svg" xmlns:xlink="http://www.w3.org/1999/xlink" viewBox="0 0 632.56 127.28"><defs><style>.cls-1{fill:#231f20;}.cls-2{fill:url(#New_Gradient_Swatch_3);}.cls-3{fill:url(#New_Gradient_Swatch_1);}.cls-4{fill:url(#New_Gradient_Swatch_2);}.cls-5{fill:url(#New_Gradient_Swatch_1-2);}</style><linearGradient id="New_Gradient_Swatch_3" x1="-1016.07" y1="-510.43" x2="-990.53" y2="-592.65" gradientTransform="translate(-486.87 1049.97) rotate(90)" gradientUnits="userSpaceOnUse"><stop offset="0" stop-color="#db1e33"/><stop offset="1" stop-color="#f57e21"/></linearGradient><linearGradient id="New_Gradient_Swatch_1" x1="118.7" y1="277.89" x2="147.74" y2="275.03" gradientTransform="translate(-35.27 -189.85) rotate(7.11)" gradientUnits="userSpaceOnUse"><stop offset="0" stop-color="#a11c34"/><stop offset="1" stop-color="#c22034"/></linearGradient><linearGradient id="New_Gradient_Swatch_2" x1="102.46" y1="274.58" x2="167.53" y2="231.26" gradientTransform="translate(-35.27 -189.85) rotate(7.11)" gradientUnits="userSpaceOnUse"><stop offset="0" stop-color="#db1e33"/><stop offset="0.87" stop-color="#f38523"/><stop offset="1" stop-color="#f79421"/></linearGradient><linearGradient id="New_Gradient_Swatch_1-2" x1="8516.05" y1="-16.36" x2="8559.62" y2="-18.1" gradientTransform="translate(8545.66 104.15) rotate(180)" xlink:href="#New_Gradient_Swatch_1"/></defs><title>bank_spb</title><path class="cls-1" d="M383.33,116.26a2.48,2.48,0,0,1-2.59,1.82l-15.36,0V102h14.85V97.3H365.38V83.61l15.09,0a2.47,2.47,0,0,1,2.59,1.82h1.58V79H358.21v1.57h0a2.85,2.85,0,0,1,1.14.7,3.27,3.27,0,0,1,.68,1.88v35.45a2.88,2.88,0,0,1-1.76,2.55l-.06,0h0v1.57h26.69v-6.45Z"/><path class="cls-1" d="M451.81,116.26a2.48,2.48,0,0,1-2.6,1.82l-15.35,0V102h14.85V97.3H433.85V83.61l15.1,0a2.48,2.48,0,0,1,2.58,1.82h1.57V79H426.69v1.57h0a2.84,2.84,0,0,1,1.13.7,3.21,3.21,0,0,1,.68,1.88v35.45a2.87,2.87,0,0,1-1.76,2.55l0,0h0v1.57h26.69v-6.45Z"/><path class="cls-1" d="M350.37,80.54V79H315.89v1.58a2.49,2.49,0,0,1,1.82,2.59v35.42a2.48,2.48,0,0,1-1.82,2.59v1.58h9v-1.58a2.47,2.47,0,0,1-1.82-2.59c0-.63,0-34.91,0-34.91h20.16s0,34,0,34.91a2.47,2.47,0,0,1-1.81,2.59v1.58h9v-1.58a2.46,2.46,0,0,1-1.82-2.59V83.13A2.47,2.47,0,0,1,350.37,80.54Z"/><circle class="cls-2" cx="36.7" cy="37.97" r="33.82" transform="translate(-11.32 59.95) rotate(-70.58)"/><path class="cls-3" d="M70.52,93.07v3.42c0,6.5-15.09,11.83-33.78,11.9S2.91,103.24,2.88,96.73V93.32Z"/><path class="cls-4" d="M70.52,93.07c0,6.51-15.1,11.83-33.78,11.89S2.89,99.81,2.87,93.32,18,81.48,36.66,81.42,70.49,86.57,70.52,93.07Z"/><path class="cls-5" d="M2.88,119.22c0-1,15.14-1.9,33.83-1.9s33.82.94,33.82,1.9v2c0,.94-15.14,1.89-33.82,1.89s-33.83-.94-33.83-1.89Z"/><path class="cls-1" d="M306.78,101.93H288.33V97.35h18.44Z"/><path class="cls-1" d="M129.82,116a2.69,2.69,0,0,1-2.48,2.07s-2.75.25-6.2.25a9.13,9.13,0,0,1-7.63-3.37c-1.76-2.24-2.47-5.57-2.47-10V96.76c0-8.92,3.26-13.37,10.1-13.37,3,0,6.08.3,6.08.3a2.83,2.83,0,0,1,2.49,2.07h1.63v-6s-1.88-.4-4.3-.71a45,45,0,0,0-5.95-.46q-7.25,0-11.4,4.62t-4.16,13.59v8.19q0,8.91,4.19,13.55c2.79,3.07,6.58,4.63,11.38,4.63a47.87,47.87,0,0,0,6.49-.33c1.67-.22,3.87-.66,3.87-.66V116Z"/><path class="cls-1" d="M565.44,79h-9.78V80.5c1.3.52,1.93,1.35,1.17,3.38s-7.69,20.52-7.69,20.52a2.26,2.26,0,0,1-1.64-1.14c-.62-1.25-7.72-18.94-8.18-20.07a1.84,1.84,0,0,1,1.25-2.69V79H530.48v1.58a3.75,3.75,0,0,1,3,2.51c.48,1.12,8.29,20.53,8.88,22a5.9,5.9,0,0,0,4.81,4.33s-1.09,3-2.05,5.38a5.06,5.06,0,0,1-4.84,3.55,2.57,2.57,0,0,1-2.44-1.8h-1.71v5.79s1.11.84,4.44.84a8.7,8.7,0,0,0,5.76-1.71,11.89,11.89,0,0,0,3.7-5.19c1.07-2.5,11.89-31.68,12.47-33.11a3.51,3.51,0,0,1,2.91-2.59Z"/><path class="cls-1" d="M174.66,55.42c-.13-.38-10-35.21-10-35.21a6.24,6.24,0,0,0-12,.06s-9.19,32.71-10,35.16a4,4,0,0,1-3,2.93v1.59h10.14V58.35a2.43,2.43,0,0,1-1.54-2.89c1-4.06,2.71-9.94,2.71-9.94h15.24s2.46,8.87,2.73,9.94a2.43,2.43,0,0,1-1.54,2.89v1.59h10.14V58.35A4,4,0,0,1,174.66,55.42Zm-22.5-14.57s5.35-19.22,5.53-19.72a1,1,0,0,1,2,.08c.17.56,5.46,19.63,5.46,19.63Z"/><path class="cls-1" d="M170.38,118.2c-.12-.38-10-35.22-10-35.22a6.24,6.24,0,0,0-12,.05s-9.19,32.71-10,35.16a4,4,0,0,1-3,2.93v1.59H145.6v-1.59a2.43,2.43,0,0,1-1.54-2.89c1-4.07,2.71-9.95,2.71-9.95H162s2.46,8.87,2.72,9.95a2.43,2.43,0,0,1-1.54,2.89v1.59h10.14v-1.59A4,4,0,0,1,170.38,118.2Zm-22.5-14.57s5.35-19.22,5.54-19.71a1,1,0,0,1,2,.08c.16.56,5.46,19.64,5.46,19.64Z"/><path class="cls-1" d="M215,20.35a2.47,2.47,0,0,1,1.82-2.59V16.17h-9v1.58a2.48,2.48,0,0,1,1.82,2.59V34.53H189.45V20.35a2.47,2.47,0,0,1,1.82-2.59V16.17h-9v1.58a2.47,2.47,0,0,1,1.82,2.59V55.77a2.48,2.48,0,0,1-1.82,2.59v1.58h9V58.36a2.48,2.48,0,0,1-1.82-2.59V39.2h20.16V55.77a2.48,2.48,0,0,1-1.82,2.59v1.58h9V58.36A2.48,2.48,0,0,1,215,55.77Z"/><path class="cls-1" d="M210.55,83.13a2.47,2.47,0,0,1,1.82-2.59V79h-9v1.58a2.47,2.47,0,0,1,1.82,2.59V97.31H185.05s0-13.61,0-14.18a2.48,2.48,0,0,1,1.82-2.59V79h-9v1.58a2.47,2.47,0,0,1,1.81,2.59v35.42a2.47,2.47,0,0,1-1.81,2.59v1.58h9v-1.58a2.48,2.48,0,0,1-1.82-2.59c0-.67,0-16.56,0-16.56h20.16v16.56a2.47,2.47,0,0,1-1.82,2.59v1.58h9v-1.58a2.47,2.47,0,0,1-1.82-2.59Z"/><path class="cls-1" d="M255.35,55.76l-15.5-21.3,12.51-14.12a6.67,6.67,0,0,1,4-2.59V16.17h-6.9L232,36.52V20.35a2.46,2.46,0,0,1,1.81-2.59V16.17h-9v1.58a2.47,2.47,0,0,1,1.81,2.59V55.77a2.47,2.47,0,0,1-1.81,2.59v1.58h9V58.36A2.47,2.47,0,0,1,232,55.77V43.33l4.28-4.83,15.48,21.43h7.89V58.35A7.31,7.31,0,0,1,255.35,55.76Z"/><path class="cls-1" d="M250.94,118.54l-15.5-21.3L248,83.12a6.65,6.65,0,0,1,4-2.59V79h-6.9L227.58,99.3V83.13a2.47,2.47,0,0,1,1.81-2.59V79h-9v1.58a2.47,2.47,0,0,1,1.81,2.59v35.42a2.47,2.47,0,0,1-1.81,2.59v1.58h9v-1.58a2.47,2.47,0,0,1-1.81-2.59V106.11l4.27-4.83,15.48,21.43h7.89v-1.58A7.33,7.33,0,0,1,250.94,118.54Z"/><path class="cls-1" d="M119.26,34.32c-1.78,0-3.86.07-6.19.23V20.81h15.19a2.48,2.48,0,0,1,2.59,1.82h1.58V16.17H105.9v1.58a2.43,2.43,0,0,1,1.81,2.56c0,.64,0,34.69,0,35.45a2.47,2.47,0,0,1-1.82,2.59v1.58h13.64c11.1,0,16.91-4.29,16.91-12.53v-.54Q136.45,34.31,119.26,34.32ZM131.1,47.4q0,4.14-2.67,6c-1.78,1.28-4.49,1.92-9.17,1.92-1.57,0-3.54,0-6.19-.18V39.09c2.6-.15,4.67-.24,6.19-.24q6.49,0,9.17,1.91t2.67,6Z"/><path class="cls-1" d="M510,97.1c-1.78,0-3.85.08-6.18.22V83.59H519a2.48,2.48,0,0,1,2.59,1.82h1.57V79H496.68v1.58a2.44,2.44,0,0,1,1.82,2.56v35.45a2.47,2.47,0,0,1-1.82,2.59v1.58h13.64c11.1,0,16.9-4.29,16.9-12.54v-.54Q527.22,97.09,510,97.1Zm11.84,13.08c0,2.77-.88,4.78-2.67,6.05s-4.49,1.92-9.17,1.92c-1.57,0-3.54,0-6.18-.18v-16.1c2.61-.15,4.66-.24,6.18-.24,4.33,0,7.39.64,9.17,1.92s2.67,3.29,2.67,6Z"/><path class="cls-1" d="M255.72,79v6.45h1.58a2.48,2.48,0,0,1,2.59-1.82h8.47s0,34,0,35a2.47,2.47,0,0,1-1.81,2.59v1.58h9v-1.58a2.47,2.47,0,0,1-1.81-2.59c0-.7,0-35,0-35h8.46a2.48,2.48,0,0,1,2.59,1.82h1.57V79Z"/><path class="cls-1" d="M390.51,79v6.45h1.57a2.49,2.49,0,0,1,2.6-1.82h8.47v35a2.48,2.48,0,0,1-1.82,2.59v1.58h9v-1.58a2.46,2.46,0,0,1-1.81-2.59c0-.7,0-35,0-35H417a2.47,2.47,0,0,1,2.59,1.82h1.58V79Z"/><path class="cls-1" d="M474,78.55c-1.61,0-3.72.1-6.33.18-3.32.1-6.66.23-6.66.23v1.57a2.49,2.49,0,0,1,1.82,2.59c0,.71,0,34.47,0,35.43a2.47,2.47,0,0,1-1.82,2.59v1.58h9v-1.58a2.47,2.47,0,0,1-1.81-2.59c0-.74,0-13.57,0-13.57,2.53.2,4.43.32,5.83.32q16.48,0,16.48-13.2v-.77Q490.47,78.56,474,78.55ZM485.12,92.1c0,3.14-.87,5.39-2.61,6.72s-4.57,2-8.52,2c-.32,0-2.23-.11-5.83-.26V83.33c2-.15,3.92-.24,5.83-.24,3.91,0,6.75.64,8.5,1.94s2.63,3.38,2.63,6.28Z"/><path class="cls-1" d="M582.54,78.55c-1.61,0-3.72.1-6.33.18-3.32.1-6.66.23-6.66.23v1.57a2.48,2.48,0,0,1,1.82,2.59c0,.71,0,34.47,0,35.43a2.47,2.47,0,0,1-1.81,2.59v1.58h9v-1.58a2.48,2.48,0,0,1-1.81-2.59c0-.74,0-13.57,0-13.57,2.53.2,4.43.32,5.83.32q16.48,0,16.49-13.2v-.77Q599,78.56,582.54,78.55ZM593.67,92.1c0,3.14-.86,5.39-2.6,6.72s-4.57,2-8.52,2c-.32,0-2.23-.11-5.83-.26V83.33c2-.15,3.92-.24,5.83-.24,3.91,0,6.75.64,8.5,1.94s2.63,3.38,2.63,6.28Z"/><path class="cls-1" d="M604.62,79v1.58a2.47,2.47,0,0,1,1.81,2.59v35.42a2.47,2.47,0,0,1-1.81,2.59v1.58h9v-1.58a2.47,2.47,0,0,1-1.82-2.59c0-.63,0-35,0-35l13.74,0a2.47,2.47,0,0,1,2.59,1.82h1.58V79Z"/></svg>