<svg id="Layer_1" data-name="Layer 1" xmlns="http://www.w3.org/2000/svg" viewBox="0 0 527.46 189.61"><defs><style>.cls-1{fill:#002f65;}.cls-2{fill:#a7a9ac;}</style></defs><title>бкс</title><path class="cls-1" d="M78.59,10.58V27.21H21.84V53.57H44.92c11.31,0,23.1-.47,32.68,5.81C83.1,63,91.43,71.31,91.43,87c0,14.91-7.07,23.22-13.83,27.46-9.9,6.27-23.41,6-31.74,6H0V10.58H78.59M21.84,103.48H45.07c5.82,0,12.26,0,16.81-2.67C68,97.2,69,91.08,69,86.53S68,75.86,61.89,72.25c-4.56-2.67-11-2.67-17-2.67H21.84Z"/><polygon class="cls-1" points="160.61 10.58 160.61 50.92 175.76 50.92 203.63 10.58 228.95 10.58 194.69 62.05 229.27 120.42 203.49 120.42 175.76 72.69 160.61 72.69 160.61 120.42 138.76 120.42 138.76 10.58 160.61 10.58"/><path class="cls-1" d="M356.11,88.78A33.35,33.35,0,0,1,328.28,103c-20.88,0-35-16.92-35-37.76s14.13-37.76,35-37.76a33.34,33.34,0,0,1,27.78,14.14l26.62,3.81a57.86,57.86,0,1,0,0,39.56Z"/><path class="cls-1" d="M12.63,169.49h.43a9.89,9.89,0,0,1,5.56,1.64,8,8,0,0,1,3.23,6.79,8.09,8.09,0,0,1-3.23,6.86,10,10,0,0,1-5.56,1.64h-.43v3.2h-3v-3.2H9.15a10,10,0,0,1-5.55-1.64,8.11,8.11,0,0,1-3.23-6.86,8,8,0,0,1,3.23-6.79,9.9,9.9,0,0,1,5.55-1.64h.44v-2.82h3v2.82m-3.57,2.36a5.32,5.32,0,0,0-4,1.45c-1.27,1.34-1.37,3.48-1.37,4.66s.09,3.31,1.37,4.64a5.26,5.26,0,0,0,4,1.46h.53V171.84Zm3.57,0v12.21h.53a5.27,5.27,0,0,0,4-1.46c1.27-1.33,1.37-3.47,1.37-4.64s-.1-3.32-1.37-4.66a5.33,5.33,0,0,0-4-1.45Z"/><polygon class="cls-1" points="55.28 189.23 52.25 189.23 52.25 171.81 41.54 189.23 38.31 189.23 38.31 167.53 41.35 167.53 41.35 184.95 52.06 167.53 55.28 167.53 55.28 189.23"/><polygon class="cls-1" points="89.44 189.23 86.39 189.23 86.39 179.16 76.03 179.16 76.03 189.23 72.98 189.23 72.98 167.53 76.03 167.53 76.03 176.68 86.39 176.68 86.39 167.53 89.44 167.53 89.44 189.23"/><path class="cls-1" d="M123.12,189.23H119.6l-2.23-6h-7.82l-2.14,6H104.5l8-21.7h2.55l8,21.7m-6.49-8.43-2.42-6.48a11.53,11.53,0,0,1-.66-2.57h-.12a13.5,13.5,0,0,1-.75,2.73l-2.33,6.32Z"/><polygon class="cls-1" points="154.62 189.23 151.58 189.23 151.58 179.16 141.22 179.16 141.22 189.23 138.17 189.23 138.17 167.53 141.22 167.53 141.22 176.68 151.58 176.68 151.58 167.53 154.62 167.53 154.62 189.23"/><path class="cls-1" d="M184,173.86v-.75a3.11,3.11,0,0,0-.93-2.45,5,5,0,0,0-3.29-1.14,5.13,5.13,0,0,0-3.67,1.51c-.43.49-1.54,2-1.54,6.33v1.7c0,2.45.52,5,1.8,6.38a6,6,0,0,0,4.4,1.67,9,9,0,0,0,3.23-.71,12.37,12.37,0,0,0,1.93-1l1.15,2.14a12.11,12.11,0,0,1-2.3,1.15,10.17,10.17,0,0,1-4.26.88,8.42,8.42,0,0,1-6.83-2.79c-2.08-2.46-2.48-5.74-2.48-8.43s.34-6.09,2.36-8.47a7.72,7.72,0,0,1,6.21-2.77A10.09,10.09,0,0,1,185,168.4a4.68,4.68,0,0,1,1.93,5.27Z"/><path class="cls-1" d="M217,169.92c2.08,2.38,2.39,5.82,2.39,8.47s-.31,6.1-2.39,8.48a9.13,9.13,0,0,1-13,0c-2.08-2.38-2.39-5.79-2.39-8.48s.3-6.09,2.39-8.47a9.07,9.07,0,0,1,13,0m-1,7.28c0-1.58-.12-4.46-1.58-6.1a5.79,5.79,0,0,0-7.95,0c-1.46,1.64-1.59,4.52-1.59,6.1v2.36c0,1.58.13,4.46,1.59,6.11a5.79,5.79,0,0,0,7.95,0c1.46-1.65,1.58-4.52,1.58-6.11Z"/><path class="cls-1" d="M242.82,167.53c1.17,0,3.66.09,5.34,1.4a5,5,0,0,1,1.86,3.94,5.56,5.56,0,0,1-.9,3.13,4.73,4.73,0,0,1-2.11,1.7v.13a5.51,5.51,0,0,1,2.52,1.73A5.37,5.37,0,0,1,250.7,183a6.1,6.1,0,0,1-2.14,4.65,8.79,8.79,0,0,1-5.58,1.58H236v-21.7h6.79m-3.75,9.15h3.69a4.2,4.2,0,0,0,3-.88,3.12,3.12,0,0,0,1.06-2.44,3.33,3.33,0,0,0-1-2.57,4.35,4.35,0,0,0-2.67-.77h-4.09Zm0,10.07h4.22a3.9,3.9,0,0,0,3-6.54,4.71,4.71,0,0,0-3.26-1.05h-4Z"/><path class="cls-1" d="M282.89,189.23h-3.5l-2.24-6h-7.82l-2.14,6h-2.93l8-21.7h2.55l8,21.7m-6.49-8.43L274,174.32a11.69,11.69,0,0,1-.65-2.57h-.13a12.87,12.87,0,0,1-.75,2.73l-2.34,6.32Z"/><path class="cls-1" d="M312.72,189.23h-3v-9.76h-3.07a3.84,3.84,0,0,0-2.7.81,6.75,6.75,0,0,0-1.33,2.39l-2.79,6.57h-3.42l3-7c.81-1.86,1.4-3.1,3.17-3.7v-.12c-4.25-.83-4.81-3.94-4.81-5.18a5.29,5.29,0,0,1,1.7-4c1.8-1.64,4-1.7,6.12-1.7h7.17v21.7M305.24,170a5.42,5.42,0,0,0-3,.77,3.06,3.06,0,0,0-1.21,2.51,3.27,3.27,0,0,0,1.06,2.7,4.71,4.71,0,0,0,3.1,1h4.43v-7Z"/><polygon class="cls-1" points="361.68 167.53 361.68 170.01 352.49 170.01 352.49 189.23 349.45 189.23 349.45 167.53 361.68 167.53"/><path class="cls-1" d="M384.21,167.53a8.91,8.91,0,0,1,5.5,1.46,5.51,5.51,0,0,1,2.23,4.44,6,6,0,0,1-1.86,4.48,8.14,8.14,0,0,1-5.43,1.92h-4.56v9.39h-3v-21.7h7.17m-4.12,9.83h4.51a4.54,4.54,0,0,0,3.07-1,3.64,3.64,0,0,0,1-2.69,3.3,3.3,0,0,0-1.18-2.82,4.88,4.88,0,0,0-2.91-.81h-4.51Z"/><path class="cls-1" d="M408.43,167.53l6,12.55a20.15,20.15,0,0,1,1.06-2.94l3.78-9.61h2.89l-6.93,16.92a10.41,10.41,0,0,1-2.39,4.06,5.13,5.13,0,0,1-3.32,1.09,5.27,5.27,0,0,1-3-1.06l1.16-2.14a3.29,3.29,0,0,0,1.89.61c1.27,0,2.11-.8,2.79-2.41l.45-1-8-16.06Z"/><polygon class="cls-1" points="453.26 189.23 450.2 189.23 450.2 170.01 440.09 170.01 440.09 189.23 437.05 189.23 437.05 167.53 453.26 167.53 453.26 189.23"/><polygon class="cls-1" points="487.15 189.23 484.1 189.23 484.1 170.01 473.98 170.01 473.98 189.23 470.95 189.23 470.95 167.53 487.15 167.53 487.15 189.23"/><path class="cls-1" d="M520.83,189.23h-3.5l-2.25-6h-7.82l-2.14,6H502.2l8-21.7h2.55l8,21.7m-6.49-8.43-2.42-6.48a12.88,12.88,0,0,1-.65-2.57h-.12a13.07,13.07,0,0,1-.75,2.73l-2.33,6.32Z"/><rect class="cls-1" x="110.26" width="3.44" height="131.01"/><rect class="cls-1" x="253.28" width="3.43" height="131.01"/><rect class="cls-1" x="396.31" width="3.43" height="131.01"/><path class="cls-2" d="M459.3,113.36c.46,1.47.45,2.06.89,2.28.22.09,6.26,1.88,6.44.37,1.92-16.13,46.69-32.86,49.72-19,4-5.89,8.14-11.74,9.73-19a2,2,0,0,1,.38-1.34c-3.95-12.61-78.45,0-67.17,36.7M527.23,59.2s0,0,0,0a56.76,56.76,0,0,0-6.07-20.91C499.25,12.35,415,39,443.81,106c.89,2,2.09,3.22,2.65,2.82s3.22-.63,2.93-2.62c-7.66-52.38,59.12-64.88,77.85-47M503.31,19.78c.48.18,4.52,2,3.57.86a13.39,13.39,0,0,0-3.53-2.91c-67.73-38.13-120.78,52.51-69.11,93.68,2,1.56,3.33,2.7,3.79,2.72s12.15,8.16,3.69-4.95c-32.05-49.65,6-116,61.59-89.4"/><path class="cls-1" d="M521.05,38.17c-4.65,13.58-47.94-9.78-54.47-22.67-.69-1.37-1.28-1.71-1.5-1.63-.47.16-.83.65-1.15,2.17-4,19.06,39,53.6,63.52,44.72a5.69,5.69,0,0,0-.13-1.63,57.43,57.43,0,0,0-6.27-21M450.86,20.91c.37-2,.61-2.83.09-3.29s-1.62.73-3,2.54c-26.8,36.27,31.77,91.33,69.88,77.07a58,58,0,0,0,8.54-20.34v0c-20.92,15.84-82.14-21.28-75.54-56m-7.09-6.07c1.67-1.5,3.29-2.9,2.67-3-.45-.07-2.09.7-4.3,1.94-41.75,23.35-31.92,95.95,22.45,109.08v.06c1.59.13,3.19.21,4.8.21a58.24,58.24,0,0,0,18.69-3.08,67.38,67.38,0,0,0,13.28-6.48c.55-.36,1.09-.73,1.63-1.12C455.55,127,400.91,55,443.76,14.84"/></svg>