<svg width="1485" height="256" viewBox="0 0 1485 256" fill="none" xmlns="http://www.w3.org/2000/svg">
<path d="M690.9 81.1C673.9 81.1 659.9 86.8 648.8 98.1C637.9 109.2 632.1 123.7 632.1 140.6C632.1 158.2 638.2 172.5 650.2 183.6C662.2 194.7 677.8 200.1 697 200.1C711.9 200.1 726.6 196.3 739.8 190.4V167.6C727.1 174.8 712.2 178.7 697 178.7C678.2 178.7 660.3 170.6 656.5 148.8H744.5C745.2 146.8 745.6 140.9 745.6 135.5C745.6 124.6 742.9 111.1 731.6 98.6C721.7 87.2 707 81.1 690.9 81.1ZM690.3 103.5C704.8 103.5 720.2 112.3 722.4 130H656.8C660.2 111.9 674.9 103.5 690.3 103.5Z" fill="#121621"/>
<path d="M1076.5 82.2C1064.7 82.2 1050.7 87.2 1042.1 96V84.5H1018.6V197.6H1042.1V140.8C1042.1 114.3 1058.6 105.3 1077.9 105.3C1079 105.3 1080.6 105.5 1082.2 105.8V82.7C1080.1 82.4 1077.6 82.2 1076.5 82.2Z" fill="#121621"/>
<path d="M817.1 139.4L859.2 84.2H830.7L789.3 139.8L833.2 197.3H861L816.6 139.6L817.1 139.4Z" fill="#121621"/>
<path d="M788.4 38.3H764.9V197.3H788.4V38.3Z" fill="#121621"/>
<path d="M482.8 119.2V113.1H409V135.5H458.1V168.5C447.2 172.8 435.5 175.1 423.3 175.1C406.3 175.1 392.3 169.4 381.2 158.6C370.8 148 365.4 134.8 365.4 118.1C365.4 101.6 370.6 88.5 381.2 77.6C391.8 67 408.4 61.1 429.4 61.1C445.9 61.1 461.8 64.9 475.3 72.2V46.4C461 40.1 445.7 36.7 429.4 36.7C402.7 36.9 378.3 45.3 363.5 60.2C348.1 75.6 339.7 95.3 339.7 118.1C339.7 140.9 348.1 160.6 363.5 176.2C378.9 191.6 399.5 199.5 423 199.5C444.5 199.5 464.9 193.4 482.5 182.8V172.6V119.2H482.8V119.2Z" fill="#121621"/>
<path d="M600.8 97.6C590.6 87 576.4 81.1 560.7 81.1C543.7 81.1 529.7 86.8 518.6 98.1C507.7 109.2 501.9 123.7 501.9 140.6C501.9 158.2 508 172.5 520 183.6C523.6 186.8 527.5 189.7 531.8 192C541.8 197.4 553.5 200.1 567.1 200.1C582 200.1 596.7 196.3 609.9 190.4V167.6C607 169.2 604 170.8 601.1 171.9C590.7 176.4 578.9 178.5 567.2 178.5C548.4 178.5 530.5 170.4 526.7 148.6H600.9H614.5C615.2 146.6 615.6 140.7 615.6 135.3C615.6 124.4 612.9 110.9 601.6 98.4C601.3 98.3 601.1 98.1 600.8 97.6ZM592 130H526.4C530 112.1 544.7 103.5 559.9 103.5C574.4 103.5 589.8 112.3 592 130Z" fill="#121621"/>
<path d="M1257.7 84.2H1234.2V197.3H1257.7V84.2Z" fill="#121621"/>
<path d="M1245.9 34.9C1241.6 34.9 1238 36.3 1235.3 39.2C1232.4 42.1 1231 45.8 1231 50.1C1231 54.4 1232.4 58 1235.3 61C1238.2 63.9 1241.6 65.3 1245.9 65.3C1250.2 65.3 1253.8 63.9 1256.5 61C1259.4 58.1 1260.8 54.4 1260.8 50.1C1260.8 45.8 1259.5 42.2 1256.5 39.2C1253.9 36.3 1250.2 34.9 1245.9 34.9Z" fill="#121621"/>
<path d="M1490.1 165.9C1490.1 158.9 1488.3 153.5 1484.9 148.9C1477.9 138.9 1464.3 134 1449.4 130.1C1443.3 128.5 1436.5 126.9 1431.5 124.2C1427.4 121.7 1425.4 119.2 1425.4 114.7H1424.9H1425.4C1425.4 107 1434.9 103.4 1446.4 103.4C1460.2 103.4 1473.3 106.6 1484.9 112.9V89.4C1472.9 84.2 1459.8 81.5 1446.4 81.5C1434.4 81.5 1422 84.2 1413.8 90.5C1405.6 96.8 1402.3 105.2 1402.3 115.8C1402.3 137.7 1421.3 146.1 1443 151.5C1449.1 153.1 1455.9 154.7 1460.9 157.4C1465 159.9 1467 162.4 1467 166.9C1467 174.8 1458.6 178.7 1444.8 178.7C1430.1 178.7 1416.3 176.2 1403.8 171.7V193.6C1416.7 197.9 1430.5 200.4 1444.8 200.4C1457.7 200.4 1469.2 197.2 1478.1 191.1C1481 189.1 1483.3 186.6 1485.1 184.1C1488.5 179 1490.1 172.9 1490.1 165.9Z" fill="#121621"/>
<path d="M977.4 114.1C987.8 106.2 992.8 96.5 992.8 83.1C992.8 70.7 987.8 59.6 979 51.2C970.2 42.8 956.8 38.5 944.2 38.5H877.2V197.3H949.8C963.2 197.3 976.3 193 985.6 184.4C994.7 176 999.4 164.7 999.4 151.8C999.3 136 991.4 121.5 977.4 114.1ZM901.4 60.2H946.7C959.4 60.2 968.9 70.2 968.9 82.8C968.9 95.7 959.2 105.4 946.7 105.4H901.4V60.2ZM950.9 175.8H901.3V127H950.9C964 127 974.4 137.6 974.4 151.4C974.5 165 964 175.8 950.9 175.8Z" fill="#121621"/>
<path d="M1334.8 103C1345.7 103 1352.7 106.8 1357 112.7C1361.3 118.6 1362.2 126 1362.2 132.2V197.4H1385.7V131.3C1385.7 117.5 1382.3 105.7 1374.4 96.7C1374.2 96.5 1374.2 96.5 1374 96.2C1366.1 87.4 1355.4 81.3 1341 81.3C1327.2 81.3 1315.9 86.3 1307.7 92.8V84.2H1284.2V197.3H1307.7V132.1C1307.7 126 1309.3 119.2 1313.6 113.6C1315.6 111.1 1317.7 108.8 1320.4 107.3C1324.2 104.6 1329 103 1334.8 103Z" fill="#121621"/>
<path d="M1184.2 95.1C1174.2 85.8 1160.2 81.3 1146.2 81.3C1129.9 81.3 1116.1 87 1104.6 98.5C1101.4 101.7 1098.7 104.8 1096.5 108.5C1096 109.2 1095.6 110.1 1095.1 110.8C1089.9 119.6 1087.4 129.8 1087.4 140.9C1087.4 157.4 1093.1 171.7 1104.6 183.2C1116.1 194.7 1129.9 200.4 1146.2 200.4C1160.5 200.4 1174.5 195.9 1184.2 186.4V197.5H1207.7V84.2H1184.2V95.1ZM1173.6 167.7C1166.6 174.7 1157.8 178.1 1147.3 178.1C1136.9 178.1 1128.1 174.7 1121 167.7C1114 160.5 1110.6 151.6 1110.6 141C1110.6 130.4 1114 121.5 1121 114.5C1128 107.3 1136.8 103.9 1147.3 103.9C1157.7 103.9 1166.5 107.3 1173.6 114.5C1180.6 121.5 1184 130.3 1184 141C1184 151.6 1180.6 160.5 1173.6 167.7Z" fill="#121621"/>
<path d="M151.8 26.4C147.4 32.4 144.4 42.1 144.4 55.9V73.7C144.4 79.5 146.4 85.1 150 89.6L167.3 111.3C168.1 111.2 169 111.1 169.9 111.1C179.3 111.1 186.9 118.7 186.9 128.1C186.9 137.5 179.3 145.1 169.9 145.1C160.5 145.1 152.9 137.5 152.9 128.1C152.9 125.9 153.3 123.8 154.1 121.9L136.8 100.2C130.8 92.7 127.5 83.3 127.5 73.7V55.9C127.5 40 130.9 26.3 138.2 16.4C145.7 6.10001 156.8 0.700012 170 0.700012C191.3 0.700012 209.5 13.8 217.2 32.3C236.6 38 250.7 55.9 250.7 77.1C250.7 81.4 250.6 86 249.4 90.5C262.8 97.6 272 111.7 272 128C272 144.3 262.8 158.4 249.4 165.5C250.7 170.1 250.7 174.6 250.7 178.9C250.7 200.1 236.6 218 217.2 223.7C209.6 242.2 191.3 255.3 170 255.3C164.5 255.3 159.1 254.4 154.1 252.8L159.4 236.7C162.7 237.8 166.3 238.4 170 238.4C185.4 238.4 198.4 228.2 202.6 214.2L204.1 209.2L209.3 208.3C223.2 205.8 233.8 193.7 233.8 179C233.8 171.6 233.2 168.9 231.2 166.4C228.4 163 224.6 161.7 220.5 162.2C216.2 162.7 211.7 165 208.7 168.9L198.7 181.4C199.5 183.3 199.9 185.4 199.9 187.6C199.9 197 192.3 204.6 182.9 204.6C173.5 204.6 165.9 197 165.9 187.6C165.9 178.2 173.5 170.6 182.9 170.6C183.8 170.6 184.6 170.7 185.5 170.8L195.5 158.3C201.3 151 209.9 146.3 218.8 145.4C226.1 144.6 233.8 146.4 240.1 151.4C249 147.4 255.2 138.5 255.2 128.1C255.2 117.7 249 108.8 240.1 104.8C233.8 109.8 226.2 111.6 218.8 110.8C209.9 109.8 201.3 105.1 195.5 97.9L185.5 85.4C184.7 85.5 183.8 85.6 182.9 85.6C173.5 85.6 165.9 78 165.9 68.6C165.9 59.2 173.5 51.6 182.9 51.6C192.3 51.6 199.9 59.2 199.9 68.6C199.9 70.8 199.5 72.9 198.7 74.8L208.7 87.3C211.8 91.1 216.2 93.5 220.5 94C224.6 94.4 228.4 93.2 231.2 89.8C233.3 87.3 233.8 84.6 233.8 77.2C233.8 62.6 223.2 50.4 209.3 47.9L204.1 47L202.6 42C198.4 28 185.4 17.8 170 17.8C161.8 17.6 155.9 20.7 151.8 26.4Z" fill="#121621"/>
<path d="M73.4 181.3C72.7 183.2 72.2 185.3 72.2 187.5C72.2 196.9 79.8 204.5 89.2 204.5C98.6 204.5 106.2 196.9 106.2 187.5C106.2 178.1 98.6 170.5 89.2 170.5C88.3 170.5 87.5 170.6 86.6 170.7L76.6 158.2C70.8 150.9 62.2 146.2 53.3 145.3C46 144.5 38.3 146.3 32 151.3C23.1 147.3 16.9 138.4 16.9 128C16.9 117.6 23.1 108.7 32 104.7C38.3 109.7 45.9 111.5 53.3 110.7C62.2 109.7 70.8 105 76.6 97.8L86.6 85.3C87.4 85.4 88.3 85.5 89.2 85.5C98.6 85.5 106.2 77.9 106.2 68.5C106.2 59.1 98.6 51.5 89.2 51.5C79.8 51.5 72.2 59.1 72.2 68.5C72.2 70.7 72.6 72.8 73.4 74.7L63.4 87.2C60.3 91 55.9 93.4 51.6 93.9C47.5 94.3 43.7 93.1 40.9 89.7C38.8 87.2 38.3 84.5 38.3 77.1C38.3 62.5 48.9 50.3 62.8 47.8L68 46.9L69.5 41.9C73.7 27.9 86.7 17.7 102.1 17.7C105.8 17.7 109.4 18.3 112.7 19.4L118 3.29999C113 1.59999 107.6 0.799988 102.1 0.799988C80.8 0.799988 62.6 13.9 54.9 32.4C35.5 38.1 21.4 56 21.4 77.2C21.4 81.5 21.5 86.1 22.7 90.6C9.2 97.6 0 111.7 0 128C0 144.3 9.2 158.4 22.6 165.5C21.3 170.1 21.3 174.6 21.3 178.9C21.3 200.1 35.5 218 54.8 223.7C62.4 242.2 80.7 255.3 102 255.3C115.2 255.3 126.3 249.9 133.8 239.6C141.1 229.7 144.5 216 144.5 200.1V182.3C144.5 172.7 141.2 163.3 135.2 155.8L117.9 134.1C118.7 132.2 119.1 130.1 119.1 127.9C119.1 118.5 111.5 110.9 102.1 110.9C92.7 110.9 85.1 118.5 85.1 127.9C85.1 137.3 92.7 144.9 102.1 144.9C103 144.9 103.8 144.8 104.7 144.7L122 166.4C125.6 170.9 127.6 176.5 127.6 182.3V200.1C127.6 213.9 124.6 223.6 120.2 229.6C116 235.3 110.2 238.3 102.1 238.3C86.7 238.3 73.7 228.1 69.5 214.1L68 209.1L62.8 208.2C48.9 205.7 38.3 193.6 38.3 178.9C38.3 171.5 38.9 168.8 40.9 166.3C43.7 162.9 47.5 161.6 51.6 162.1C55.9 162.6 60.4 164.9 63.4 168.8L73.4 181.3Z" fill="#121621"/>
</svg>
