<svg width="169" height="86" viewBox="0 0 169 86" fill="none" xmlns="http://www.w3.org/2000/svg">
<g clip-path="url(#clip0)">
<path fill-rule="evenodd" clip-rule="evenodd" d="M-12 -51H180.76V141.76H-12V-51Z" fill="white"/>
<path fill-rule="evenodd" clip-rule="evenodd" d="M113.35 34.52C115.131 36.1618 117.415 37.1522 119.83 37.33L123.61 37.58C126.39 37.77 126.96 39.12 126.96 39.12C129.37 43.35 135.4 45.64 135.4 45.64C131.56 43.43 128.78 38.54 128.78 38.54C126.96 35.86 122.55 35.86 122.55 35.86H120C117.736 35.7925 115.501 35.3393 113.39 34.52H113.35Z" fill="black"/>
<path fill-rule="evenodd" clip-rule="evenodd" d="M141.11 47.23C139.696 46.6499 138.202 46.2858 136.68 46.15C137.818 46.4872 138.895 47.0036 139.87 47.68C141.66 48.77 140.45 50.68 140.45 50.68C138.93 53.37 133 52 133 52C139.33 56.22 142 53.06 142 53.06C143.63 51.11 143.24 50.15 142.8 48.93C142.8 48.93 148.55 50.79 154.49 45.29C154.49 45.29 148.1 50.4 141.14 47.21L141.11 47.23Z" fill="black"/>
<path fill-rule="evenodd" clip-rule="evenodd" d="M32.64 2.21997C32.64 2.21997 28.9 2.65997 27.11 2.62997C27.11 2.62997 26.73 2.69998 26.73 2.94998C26.73 2.94998 26.85 3.39996 27.65 3.39996C27.65 3.39996 30.97 3.29997 32.65 2.21997H32.64Z" fill="black"/>
<path fill-rule="evenodd" clip-rule="evenodd" d="M71.61 29.61C76.0595 29.8687 80.5204 29.8687 84.97 29.61C85.9985 29.5201 87.0348 29.5944 88.04 29.83C91.77 30.38 92.35 32.13 92.35 32.13C92.35 32.13 99 45.78 112 45.44H118.15C123.71 45.44 131.15 50.9 131.15 50.9C129.62 49.75 126.49 46.75 126.49 46.75C122.49 43.23 116.13 43.2 116.13 43.2H109.65C97.32 43.08 94.09 31.96 94.09 31.96C93.6201 30.9665 92.8721 30.1307 91.9367 29.5538C91.0013 28.9769 89.9187 28.6838 88.82 28.71C88.53 28.71 88.26 28.71 87.99 28.71C75.84 29.32 71.87 28.35 71.87 28.35C69.0906 27.5946 66.4065 26.5243 63.87 25.16C64.18 23.4563 63.9782 21.699 63.29 20.11C63.29 20.11 67.77 21.9 71.86 20.94C67.8689 19.8795 64.0716 18.1918 60.61 15.94C60.61 15.94 62.84 22.39 60.99 24.82C60.99 24.82 59.78 29.29 48.66 25.65C46.0393 24.6439 43.2814 24.0404 40.48 23.86C40.48 23.86 37.6 23.99 37.6 25.46C37.6144 25.6747 37.6872 25.8813 37.8106 26.0576C37.934 26.2338 38.1032 26.373 38.3 26.46C38.5598 26.6854 38.7337 26.9938 38.792 27.3329C38.8504 27.6719 38.7895 28.0207 38.62 28.32C38.9353 28.0893 39.1801 27.7753 39.3267 27.4131C39.4733 27.051 39.516 26.6551 39.45 26.27C39.45 26.27 39.32 25.63 39.9 25.5C39.9 25.5 41.43 24.86 45.78 26.5C45.78 26.5 52.78 29.7 56.84 29.7C56.84 29.7 61.18 29.44 62.78 27.52C65.6298 28.5765 68.5987 29.2784 71.62 29.61H71.61Z" fill="black"/>
<path fill-rule="evenodd" clip-rule="evenodd" d="M21.44 18.41C22.4546 18.3272 23.3974 17.854 24.07 17.09C26.0664 15.0548 28.7134 13.7844 31.55 13.5C37.18 13.11 44.0401 18.58 44.0401 18.58C39.2001 12.13 34.04 11.7 34.04 11.7C33.6446 11.604 33.2778 11.4151 32.97 11.149C32.6622 10.883 32.4223 10.5474 32.27 10.17C30.64 7.17003 28.79 7.02001 28.79 7.02001C29.3648 7.91214 29.6511 8.95955 29.61 10.02C29.61 13.16 24.91 13.62 24.91 13.62C23.04 17.31 21.47 17.09 21.47 17.09C21.2662 17.1159 21.0592 17.0848 20.8721 17C20.685 16.9153 20.525 16.7803 20.41 16.61C20.22 16.33 20.54 16.07 20.54 16.07C20.8886 15.8483 21.2226 15.6044 21.54 15.34C24.74 12.87 24.77 10.1 24.77 10.1C24.7436 9.2619 24.4102 8.46269 23.8331 7.8543C23.2561 7.2459 22.4756 6.87069 21.64 6.8C21.3026 6.78226 20.9656 6.8425 20.6551 6.97603C20.3447 7.10956 20.0692 7.31282 19.85 7.57002C19.37 8.15002 18.12 10.38 18.12 10.38C17.19 11.92 16.36 11.69 16.36 11.69C16.0154 11.6784 15.6772 11.5929 15.3684 11.4394C15.0596 11.2858 14.7874 11.0678 14.57 10.8L14.47 10.68C14.3682 10.5361 14.3063 10.3677 14.2904 10.1921C14.2746 10.0165 14.3056 9.83983 14.38 9.68001C15.2934 8.43216 16.6364 7.56656 18.15 7.25002L18.41 7.17003C18.5726 7.13276 18.7329 7.086 18.89 7.03002C22.2 5.86002 22.48 4.13002 22.48 4.13002C21.8159 3.74748 21.0663 3.53772 20.3 3.52001C19.7006 3.58547 19.1315 3.81796 18.6577 4.191C18.1839 4.56404 17.8244 5.06265 17.62 5.63002L17.14 5.13002C17.14 5.13002 16.92 4.86 17.26 4.55C17.26 4.55 18.77 2.69 24.26 1.86C27.7181 1.39939 31.222 1.39939 34.68 1.86C34.68 1.86 31.03 5.66001 26.68 4.06001C26.68 4.06001 26.61 5.47003 30.45 6.17003C30.45 6.17003 34.45 6.59002 39.55 11.44C39.55 11.44 38.21 8.50001 33.87 5.18001C33.8246 5.15111 33.7872 5.11121 33.7613 5.06401C33.7354 5.01682 33.7218 4.96386 33.7218 4.91002C33.7218 4.85618 33.7354 4.80319 33.7613 4.756C33.7872 4.7088 33.8246 4.66893 33.87 4.64003C35.0031 3.37678 36.5865 2.60839 38.28 2.50002C38.28 2.50002 51.3501 3.17001 58.7001 10.84C58.4126 9.7274 57.9501 8.66754 57.33 7.70003C57.33 7.70003 57.1001 7.48002 57.2301 7.32002C57.2301 7.32002 57.33 7.00003 58.61 7.26003C58.61 7.26003 63.27 8.02001 74.1 11.99L85.83 16.17C85.83 16.17 89.92 17.67 92.19 18.7C92.19 18.7 87.62 18.54 85.19 19.78C85.19 19.78 85.0901 19.85 85.1401 19.93C85.1901 20.01 85.14 20.02 85.37 19.98C87.8884 19.3848 90.5294 19.5839 92.93 20.55C95.3496 21.5776 97.6307 22.9047 99.72 24.5C99.72 24.5 101.72 26.27 103.06 27.71C105.065 29.5388 107.249 31.1604 109.58 32.55C109.58 32.55 106.75 29.87 104.4 27.37C104.4 27.37 101.04 23.37 99.5101 22C99.5101 22 111.08 27.43 121.51 33.32C123.38 34.37 129.42 37.87 129.42 37.87C133.125 40.1073 136.996 42.0564 141 43.7C142.507 44.396 144.15 44.7457 145.81 44.7232C147.469 44.7007 149.103 44.3066 150.59 43.57L150.8 43.48C153.61 42.03 154.25 42.48 154.25 42.48C154.64 42.6231 154.961 42.9097 155.147 43.2815C155.333 43.6533 155.37 44.082 155.25 44.48C156.47 43.23 156.36 42.56 156.36 42.56C156.36 40.42 153.98 40.56 153.98 40.56C152.615 41.0622 151.307 41.7093 150.08 42.49L149.7 42.73C146.31 44.49 141.59 42.86 141.59 42.86C137.533 41.216 133.611 39.2566 129.86 37C129.86 37 119.12 30.63 109.86 26C109.86 26 98.31 20 82.86 13.3C82.86 13.3 53.33 -0.359968 31.57 -0.359968C31.57 -0.359968 20.29 -0.509996 16.47 3.83C16.2321 4.20233 16.1135 4.63844 16.13 5.08C16.1439 5.13502 16.1428 5.19274 16.127 5.24721C16.1112 5.30168 16.0812 5.35097 16.04 5.39003C14.934 6.15711 13.9265 7.05718 13.04 8.07002C12.8045 8.31733 12.6611 8.63802 12.6338 8.97844C12.6065 9.31886 12.697 9.65833 12.89 9.94002C12.89 9.94002 13.37 10.71 13.8 11.28C14.1413 11.7586 14.5911 12.1494 15.1125 12.4206C15.634 12.6917 16.2123 12.8355 16.8 12.84C17.0459 12.8271 17.2917 12.868 17.52 12.96C17.8198 13.2062 18.1575 13.4021 18.52 13.54H19.32C19.3641 13.5313 19.4049 13.511 19.4383 13.4811C19.4718 13.4512 19.4965 13.4128 19.51 13.37C19.4811 13.1261 19.431 12.8852 19.36 12.65C19.2275 12.46 19.136 12.2446 19.0912 12.0174C19.0465 11.7901 19.0495 11.556 19.1 11.33C19.2379 10.5779 19.5571 9.8708 20.03 9.27001C20.2725 9.05353 20.5827 8.92816 20.9075 8.91539C21.2322 8.90262 21.5513 9.00326 21.81 9.20003C21.81 9.20003 23.63 10.78 22.7 12.67C22.7 12.67 21.93 14.11 21.09 14.11C20.9369 14.1375 20.7793 14.1253 20.6322 14.0745C20.4852 14.0237 20.3536 13.9361 20.25 13.82L19.7 13.75C19.7 13.75 19.53 13.75 19.53 13.9V14.3C19.5293 14.4299 19.5715 14.5565 19.65 14.66C19.7165 14.7459 19.7526 14.8514 19.7526 14.96C19.7526 15.0686 19.7165 15.1742 19.65 15.26C19.4963 15.4099 19.3897 15.6014 19.3435 15.8111C19.2973 16.0208 19.3135 16.2394 19.39 16.44C19.39 16.44 19.87 18.44 21.5 18.44L21.44 18.41ZM20.81 4.55C20.5647 4.90941 20.2302 5.19888 19.8392 5.38997C19.4483 5.58106 19.0143 5.66724 18.58 5.64003C18.643 5.41412 18.7531 5.2041 18.903 5.02382C19.053 4.84354 19.2395 4.69706 19.4502 4.59407C19.6609 4.49109 19.891 4.43391 20.1254 4.42632C20.3598 4.41872 20.5931 4.46088 20.81 4.55ZM16.52 6.00002C17.07 5.79002 17.15 6.10002 17.15 6.10002C17.15 6.36002 16.86 6.46001 16.86 6.46001C15.8408 7.11079 14.9126 7.89436 14.1 8.79003C13.89 9.03003 13.74 8.90001 13.74 8.90001C13.48 8.67001 13.74 8.35002 13.74 8.35002C14.5815 7.47111 15.5133 6.68341 16.52 6.00002Z" fill="black"/>
<path fill-rule="evenodd" clip-rule="evenodd" d="M46.09 12.12C43.02 16.47 45.4501 19.54 45.4501 19.54C37.2101 19.28 34.84 21.54 34.84 21.54C30.84 24.67 32.28 28.32 32.28 28.32C34.59 31.96 37.28 29.4 37.28 29.4C33.45 30.17 33.51 26.78 33.51 26.78C34.34 20.9 42.0101 21.16 42.0101 21.16C48.5901 21.16 58.8201 23.01 58.8201 23.01C51.0801 21.22 48.72 19.3 48.72 19.3C45.46 17.3 46.1 12.08 46.1 12.08L46.09 12.12Z" fill="black"/>
<path fill-rule="evenodd" clip-rule="evenodd" d="M107 75.18C107.305 73.7444 107.433 72.2767 107.38 70.81V59.56H104.89V71.66C104.909 72.7269 104.815 73.7929 104.61 74.84C103.92 78.19 101.38 79.43 97.61 79.43C95.81 79.43 93.67 79.01 92.43 77.57C91.35 76.35 91.12 74.68 91.12 71.9V59.56H87V72.11C87 74.67 87.27 77.11 89 78.81C90.73 80.51 93.81 81.17 97.42 81.17C102.73 81.17 105.91 79.39 106.93 75.17L107 75.18Z" fill="black"/>
<path fill-rule="evenodd" clip-rule="evenodd" d="M135.23 80.7H140L129.68 59.56H127.17L116.66 80.7H119.22L122.08 74.76H132.57L135.23 80.7V80.7ZM127.45 63.57L131.9 73.32H122.77L127.45 63.57Z" fill="black"/>
<path fill-rule="evenodd" clip-rule="evenodd" d="M39 80.7H43.81L33.49 59.56H31L20.41 80.7H23L25.85 74.76H36.34L39 80.7ZM31.22 63.57L35.67 73.32H26.54L31.22 63.57V63.57Z" fill="black"/>
<path fill-rule="evenodd" clip-rule="evenodd" d="M65.8 81.17C68.6553 81.1901 71.4874 80.657 74.14 79.6V71H70.14V78.72C68.6704 79.2134 67.1301 79.4634 65.58 79.46C60.2 79.46 56.7 75.78 56.7 70.4C56.7 64.45 60.7 60.86 66.41 60.86C68.9682 60.926 71.4411 61.7934 73.48 63.34V60.8C71.1803 59.7093 68.6651 59.1488 66.12 59.16C62.12 59.16 57.94 60.36 55.17 63.36C53.3413 65.351 52.2968 67.9375 52.23 70.64C52.23 78.76 58.86 81.17 65.84 81.17H65.8Z" fill="black"/>
<path fill-rule="evenodd" clip-rule="evenodd" d="M164.2 80.7H168.86L162.64 72.11C163.948 71.7249 165.102 70.9384 165.938 69.8616C166.774 68.7849 167.251 67.4724 167.3 66.11C167.378 64.5928 166.878 63.1026 165.9 61.94C164.18 60.03 161.07 59.58 157.97 59.58H150.32V80.7H154.32V72.58H158.56L164.16 80.7H164.2ZM157.34 61C160.58 61 163.17 62.36 163.17 65.93C163.218 66.684 163.088 67.4387 162.791 68.1334C162.494 68.8281 162.038 69.4434 161.46 69.93C160.157 70.8683 158.559 71.305 156.96 71.16H154.36V61H157.34Z" fill="black"/>
<path fill-rule="evenodd" clip-rule="evenodd" d="M3.34003 85C7.01003 83.2 8.52003 79.43 8.52003 75.52V59.52H4.47003V72.81C4.50824 74.683 4.43144 76.5565 4.24004 78.42C4.15083 79.9109 3.71135 81.3598 2.95728 82.649C2.2032 83.9382 1.15578 85.0315 -0.0999756 85.84C1.09423 85.8142 2.26834 85.5275 3.34003 85V85Z" fill="black"/>
</g>
<defs>
<clipPath id="clip0">
<rect width="169" height="86" fill="white"/>
</clipPath>
</defs>
</svg>
