<?xml version="1.0" encoding="utf-8"?>
<!-- Generator: Adobe Illustrator 21.0.0, SVG Export Plug-In . SVG Version: 6.00 Build 0)  -->
<svg version="1.1" id="Layer_1" xmlns="http://www.w3.org/2000/svg" xmlns:xlink="http://www.w3.org/1999/xlink" x="0px" y="0px"
	 viewBox="0 0 440.7 163.4" style="enable-background:new 0 0 440.7 163.4;" xml:space="preserve">
<path d="M150.4,43.9c-5.9-6-13.1-9-21.6-9c-8.4,0-15.6,3-21.6,9c-6,5.9-9,13.1-9,21.6c0,8.4,3,15.6,9,21.6c5.9,6,13.1,9,21.6,9
	s15.7-3,21.6-9c6-5.9,9-13.1,9-21.6C159.4,57.1,156.4,49.9,150.4,43.9z M144.3,81c-4.3,4.3-9.5,6.4-15.5,6.4
	c-6.1,0-11.2-2.1-15.5-6.4c-4.3-4.3-6.4-9.5-6.4-15.5c0-6.1,2.1-11.2,6.4-15.5c4.3-4.3,9.5-6.4,15.5-6.4c6.1,0,11.2,2.1,15.5,6.4
	c4.3,4.3,6.4,9.4,6.4,15.5C150.7,71.6,148.6,76.7,144.3,81z M181.4,145.1l-8.6-2.9c-0.6-0.2-0.9-0.5-0.9-1.1c0-0.5,0.1-0.9,0.4-1.2
	c1.2-1.2,2.8-1.8,4.7-1.8c2,0,3.6,0.7,5,2.1c0.1,0.1,0.3,0.3,0.5,0.5c0.2,0.3,0.5,0.4,0.9,0.4c0.4,0,0.7-0.1,1-0.4
	c0.3-0.3,0.4-0.6,0.4-1c0-0.3-0.1-0.6-0.3-0.8c-2.1-2.3-4.7-3.5-7.6-3.5c-2.7,0-4.9,0.9-6.6,2.6c-0.9,0.8-1.3,1.8-1.3,3
	c0,1.2,0.4,2.2,1.2,3c0.4,0.4,1.1,0.8,2.2,1.2l8.6,2.9c0.6,0.2,0.9,0.5,0.9,1.1c0,0.5-0.1,0.9-0.4,1.2c-1.2,1.2-2.8,1.8-4.7,1.8
	c-2,0-3.6-0.7-5-2.1l-0.5-0.5c-0.2-0.3-0.5-0.4-0.9-0.4c-0.4,0-0.7,0.1-1,0.4s-0.4,0.6-0.4,1c0,0.3,0.1,0.6,0.3,0.8
	c2.1,2.3,4.6,3.5,7.6,3.5c2.7,0,4.9-0.9,6.6-2.6c0.9-0.8,1.3-1.8,1.3-3c0-1.2-0.4-2.2-1.2-3C183.2,145.9,182.5,145.5,181.4,145.1z
	 M200.3,8.6c-17.5,0-26.2,8.7-26.2,26.2v3.3h-4.4c-1.2,0-2.2,0.4-3.1,1.3c-0.9,0.9-1.3,1.9-1.3,3.1c0,1.2,0.4,2.2,1.3,3.1
	c0.9,0.9,1.9,1.3,3.1,1.3h4.4v44.9c0,1.2,0.4,2.2,1.3,3.1c0.9,0.9,1.9,1.3,3.1,1.3s2.2-0.4,3.1-1.3c0.9-0.9,1.3-1.9,1.3-3.1V47h13.2
	c1.2,0,2.2-0.4,3.1-1.3c0.9-0.9,1.3-1.9,1.3-3.1s-0.4-2.2-1.3-3.1c-0.9-0.9-1.9-1.3-3.1-1.3h-13.2v-3.3c0-11.7,5.8-17.5,17.5-17.5
	c1.2,0,2.2-0.4,3-1.3c0.9-0.9,1.3-1.9,1.3-3.1c0-1.2-0.4-2.2-1.3-3.1C202.5,9,201.5,8.6,200.3,8.6z M136.8,135.3
	c-2.4,0-4.5,0.8-6.3,2.5v-1.1c0-0.4-0.1-0.7-0.4-1s-0.6-0.4-1-0.4c-0.4,0-0.7,0.2-1.1,0.4c-0.3,0.3-0.4,0.6-0.4,1v16.9
	c0,0.4,0.1,0.7,0.4,1s0.6,0.4,1,0.4c0.4,0,0.7-0.1,1-0.4s0.4-0.6,0.4-1v-9.1c0-1.8,0.7-3.3,1.9-4.5c1.3-1.3,2.8-1.9,4.5-1.9
	c1.8,0,3.3,0.7,4.5,1.9c1.3,1.3,1.9,2.8,1.9,4.5v9.1c0,0.4,0.1,0.7,0.4,1s0.6,0.4,1,0.4c0.4,0,0.7-0.1,1-0.4s0.4-0.6,0.4-1v-9.1
	c0-2.6-0.9-4.7-2.7-6.5C141.5,136.2,139.3,135.3,136.8,135.3z M111.2,135.3c-2.8,0-5.1,1-6.9,2.9c-1.9,2-2.9,4.3-2.9,7
	c0,2.8,1,5.1,2.9,7c2,1.9,4.3,2.9,7,2.9c2.4,0,4.6-0.8,6.4-2.4c0.3-0.3,0.4-0.6,0.4-1c0-0.4-0.1-0.7-0.4-1s-0.6-0.4-1-0.4
	c-0.3,0-0.6,0.1-0.9,0.3c-1.2,1.1-2.7,1.7-4.5,1.7c-2,0-3.6-0.7-5-2.1c-1-1.1-1.6-2.3-1.9-3.6h15.3c0.4,0,0.7-0.1,1-0.4
	s0.4-0.6,0.4-1c0-2.8-1-5.1-2.9-7C116.2,136.3,113.9,135.3,111.2,135.3z M104.3,143.8c0.2-1.4,0.9-2.6,1.9-3.6
	c1.4-1.4,3.1-2.1,5-2.1c2,0,3.6,0.7,5,2.1c1,1.1,1.6,2.3,1.9,3.6H104.3z M269.3,96.1c1.9,0,3.4-0.7,4.6-1.9c1.3-1.2,1.9-2.8,1.9-4.6
	s-0.6-3.3-1.9-4.6c-1.2-1.3-2.8-1.9-4.6-1.9s-3.3,0.6-4.6,1.9c-1.3,1.2-1.9,2.8-1.9,4.6s0.6,3.3,1.9,4.6
	C265.9,95.5,267.5,96.1,269.3,96.1z M47.5,93.9l31.2-62.4v60.2c0,1.2,0.4,2.2,1.3,3.1c0.9,0.9,1.9,1.3,3.1,1.3s2.2-0.5,3.2-1.3
	c0.9-0.9,1.3-1.9,1.3-3.1V13c0-1.2-0.4-2.2-1.3-3.1c-0.9-0.9-1.9-1.3-3.1-1.3c-1.8,0-3.1,0.8-3.9,2.3l-35.5,71l-35.5-71
	C7.4,9.4,6.1,8.6,4.4,8.6C3.2,8.6,2.2,9,1.3,9.9C0.4,10.8,0,11.8,0,13v78.6c0,1.2,0.4,2.2,1.3,3.1C2.2,95.6,3.2,96,4.4,96
	c1.2,0,2.2-0.4,3.1-1.3c0.9-0.9,1.3-1.9,1.3-3.1V31.4l30.9,61.9c0.8,1.8,2.2,2.7,4,2.7C45.5,96,46.7,95.3,47.5,93.9z M49.7,135.3
	c-2.7,0-5.1,1-7,2.9c-1.9,2-2.9,4.3-2.9,7c0,2.8,1,5.1,2.9,7c2,1.9,4.3,2.9,7,2.9c2.8,0,5.1-1,7-2.9c1.9-2,2.9-4.3,2.9-7
	c0-2.8-1-5.1-2.9-7C54.7,136.3,52.4,135.3,49.7,135.3z M54.7,150.1c-1.4,1.4-3.1,2.1-5,2.1c-2,0-3.6-0.7-5-2.1c-1.4-1.3-2.1-3-2.1-5
	s0.7-3.6,2.1-5c1.4-1.4,3.1-2.1,5-2.1c2,0,3.6,0.7,5,2.1c1.4,1.4,2.1,3.1,2.1,5C56.8,147.1,56.1,148.7,54.7,150.1z M87.1,135.3
	c-2.2,0-4,0.8-5.5,2.3c-0.4,0.3-0.6,0.6-0.9,1c-0.3-0.3-0.6-0.7-0.9-1c-1.5-1.5-3.4-2.3-5.5-2.3c-1.9,0-3.5,0.6-4.9,1.8v-0.4
	c0-0.4-0.1-0.7-0.4-1c-0.3-0.3-0.6-0.4-1-0.4c-0.4,0-0.7,0.1-1,0.4c-0.3,0.3-0.4,0.6-0.4,1v16.9c0,0.4,0.1,0.7,0.4,1s0.6,0.4,1,0.4
	c0.4,0,0.7-0.1,1-0.4s0.4-0.6,0.4-1v-10.5c0-1.4,0.4-2.5,1.4-3.5c1-0.9,2.1-1.4,3.5-1.4c1.4,0,2.5,0.4,3.5,1.4
	c0.9,1,1.4,2.1,1.4,3.5v10.5c0,0.4,0.1,0.7,0.4,1s0.6,0.4,1,0.4c0.4,0,0.7-0.1,1-0.4s0.4-0.6,0.4-1v-10.5c0-1.4,0.4-2.5,1.4-3.5
	c1-0.9,2.1-1.4,3.5-1.4c1.4,0,2.5,0.4,3.5,1.4c0.9,1,1.4,2.1,1.4,3.5v10.5c0,0.4,0.1,0.7,0.4,1s0.6,0.4,1,0.4c0.4,0,0.7-0.1,1-0.4
	s0.4-0.6,0.4-1h0.3v-10.5c0-2.2-0.8-4-2.3-5.5S89.2,135.3,87.1,135.3z M31.2,126.9c-0.5,0-0.9,0.2-1.2,0.7l-11.4,22.8L7.2,127.6
	c-0.2-0.5-0.6-0.7-1.2-0.7c-0.3,0-0.7,0.1-1,0.4c-0.3,0.3-0.4,0.6-0.4,1v25.3c0,0.4,0.1,0.7,0.4,1c0.3,0.3,0.6,0.4,1,0.4
	c0.4,0,0.7-0.1,1-0.4c0.3-0.3,0.4-0.6,0.4-1v-19.4l9.9,19.9c0.3,0.6,0.7,0.9,1.3,0.9c0.5,0,1-0.2,1.2-0.7l10-20.1v19.4
	c0,0.4,0.1,0.7,0.4,1s0.6,0.4,1,0.4c0.4,0,0.7-0.1,1-0.4s0.4-0.6,0.4-1v-25.3c0-0.4-0.1-0.7-0.4-1S31.6,126.9,31.2,126.9z
	 M405.8,96.1c7.6,0,14.3-2.5,19.9-7.4c0.9-0.9,1.3-1.9,1.3-3.1s-0.4-2.2-1.3-3.1c-0.9-0.9-1.9-1.3-3.1-1.3c-1,0-1.9,0.3-2.7,0.9
	c-3.9,3.5-8.6,5.2-14.1,5.2c-6.1,0-11.2-2.1-15.5-6.4c-3.2-3.2-5.2-6.9-6-11.1H432c1.2,0,2.3-0.4,3.1-1.2c0.9-0.9,1.3-1.9,1.3-3.1
	c0-8.4-3-15.6-9-21.6c-5.9-6-13.1-9-21.6-9c-8.4,0-15.6,3-21.6,9c-6,5.9-9,13.1-9,21.6c0,8.4,3,15.6,9,21.6
	C390.1,93.1,397.3,96.1,405.8,96.1z M390.3,50c4.3-4.3,9.5-6.4,15.5-6.4c6.1,0,11.2,2.1,15.5,6.4c3.2,3.2,5.2,6.9,6,11.1h-43
	C385.1,56.9,387.1,53.2,390.3,50z M161.7,152.1c-2.8,0-4.2-1.4-4.2-4.2v-9.8h2.8c0.4,0,0.7-0.1,1-0.4c0.2-0.3,0.4-0.6,0.4-1
	c0-0.4-0.1-0.7-0.4-1c-0.3-0.3-0.6-0.4-1-0.4h-2.8v-7c0-0.4-0.1-0.7-0.4-1s-0.6-0.4-1-0.4c-0.4,0-0.7,0.1-1,0.4s-0.4,0.6-0.4,1v7
	h-1.4c-0.4,0-0.7,0.1-1,0.4c-0.3,0.3-0.4,0.6-0.4,1c0,0.4,0.1,0.7,0.4,1s0.6,0.4,1,0.4h1.4v9.8c0,4.7,2.3,7,7,7c0.4,0,0.7-0.1,1-0.4
	c0.3-0.3,0.4-0.6,0.4-1c0-0.4-0.1-0.7-0.4-1C162.4,152.2,162.1,152.1,161.7,152.1z M381.8,152.2h-14.1v-23.9c0-0.4-0.1-0.7-0.4-1
	s-0.6-0.4-1-0.4s-0.7,0.1-1,0.4c-0.3,0.3-0.4,0.6-0.4,1v25.3c0,0.4,0.1,0.7,0.4,1c0.3,0.3,0.6,0.4,1,0.4h15.5c0.4,0,0.7-0.1,1-0.4
	c0.3-0.3,0.4-0.6,0.4-1c0-0.4-0.1-0.7-0.4-1S382.2,152.2,381.8,152.2z M370.4,42.6c0-1.2-0.4-2.2-1.3-3.1c-0.9-0.9-1.9-1.3-3.1-1.3
	h-13.2v-3.3c0-11.7,5.8-17.5,17.5-17.5c1.2,0,2.2-0.4,3-1.3c0.9-0.9,1.3-1.9,1.3-3.1c0-1.2-0.4-2.2-1.3-3.1
	c-0.9-0.9-1.9-1.3-3.1-1.3c-17.5,0-26.2,8.7-26.2,26.2v3.3h-4.4c-1.2,0-2.2,0.4-3.1,1.3c-0.9,0.9-1.3,1.9-1.3,3.1
	c0,1.2,0.4,2.2,1.3,3.1c0.9,0.9,1.9,1.3,3.1,1.3h4.4v44.9c0,1.2,0.4,2.2,1.3,3.1c0.9,0.9,1.9,1.3,3.1,1.3c1.2,0,2.2-0.4,3.1-1.3
	c0.9-0.9,1.3-1.9,1.3-3.1V47H366c1.2,0,2.2-0.4,3.1-1.3C370,44.8,370.4,43.8,370.4,42.6z M391.7,135.3c-0.4,0-0.7,0.2-1,0.4
	c-0.3,0.3-0.4,0.6-0.4,1v16.9c0,0.4,0.1,0.7,0.4,1c0.3,0.3,0.6,0.4,1,0.4s0.7-0.1,1-0.4c0.3-0.3,0.4-0.6,0.4-1v-16.9
	c0-0.4-0.1-0.7-0.4-1S392.1,135.3,391.7,135.3z M346,135.9c-1.2-0.5-2.4-0.7-3.8-0.7c-2.7,0-5,1-7,3v-1.5c0-0.4-0.1-0.7-0.4-1
	s-0.6-0.4-1-0.4s-0.7,0.2-1,0.4c-0.3,0.3-0.4,0.6-0.4,1v16.9c0,0.4,0.1,0.7,0.4,1s0.6,0.4,1,0.4s0.7-0.1,1-0.4
	c0.3-0.3,0.4-0.6,0.4-1v-8.4c0-2,0.7-3.6,2.1-5c1.4-1.4,3.1-2.1,5-2.1c1,0,1.9,0.1,2.7,0.5c0.2,0.1,0.4,0.1,0.6,0.1
	c0.4,0,0.7-0.1,1-0.4c0.3-0.3,0.4-0.6,0.4-1c0-0.4-0.1-0.7-0.4-1C346.4,136.1,346.2,136,346,135.9z M433.8,138.1
	c-2-1.9-4.3-2.9-7-2.9c-2.8,0-5.1,1-7,2.9c-1.9,2-2.9,4.3-2.9,7c0,2.8,1,5.1,2.9,7c2,1.9,4.3,2.9,7,2.9c2.4,0,4.6-0.8,6.4-2.4
	c0.3-0.3,0.4-0.6,0.4-1c0-0.4-0.1-0.7-0.4-1s-0.6-0.4-1-0.4c-0.3,0-0.6,0.1-0.9,0.3c-1.2,1.1-2.7,1.7-4.5,1.7c-2,0-3.6-0.7-5-2.1
	c-1-1.1-1.6-2.3-1.9-3.6h15.3c0.4,0,0.7-0.1,1-0.4c0.3-0.2,0.4-0.6,0.5-1C436.7,142.3,435.7,140,433.8,138.1z M419.9,143.8
	c0.2-1.4,0.9-2.6,1.9-3.6c1.4-1.4,3.1-2.1,5-2.1c2,0,3.6,0.7,5,2.1c1,1,1.6,2.2,1.9,3.6H419.9z M391.7,129.3c-0.5,0-0.9,0.2-1.2,0.5
	c-0.3,0.3-0.5,0.7-0.5,1.2c0,0.4,0.2,0.9,0.5,1.2s0.7,0.5,1.2,0.5c0.4,0,0.9-0.2,1.2-0.5s0.5-0.7,0.5-1.2c0-0.4-0.2-0.9-0.5-1.2
	C392.6,129.5,392.2,129.3,391.7,129.3z M411.6,126.9c-5.6,0-8.4,2.8-8.4,8.4v1.1h-1.4c-0.4,0-0.8,0.1-1,0.4c-0.3,0.3-0.4,0.6-0.4,1
	c0,0.4,0.1,0.7,0.4,1c0.3,0.3,0.6,0.4,1,0.4h1.4v14.4c0,0.4,0.1,0.7,0.4,1c0.3,0.3,0.6,0.4,1,0.4s0.7-0.1,1-0.4
	c0.3-0.3,0.4-0.6,0.4-1v-14.4h4.2c0.4,0,0.7-0.1,1-0.4c0.3-0.3,0.4-0.6,0.4-1c0-0.4-0.1-0.7-0.4-1s-0.6-0.4-1-0.4H406v-1.1
	c0-3.7,1.8-5.6,5.6-5.6c0.4,0,0.7-0.1,1-0.4c0.3-0.3,0.4-0.6,0.4-1c0-0.4-0.1-0.7-0.4-1S412,126.9,411.6,126.9z M239.7,126.9
	c-5.6,0-8.4,2.8-8.4,8.4v1.1h-1.4c-0.4,0-0.8,0.1-1,0.4c-0.3,0.3-0.4,0.6-0.4,1c0,0.4,0.1,0.7,0.4,1c0.3,0.3,0.6,0.4,1,0.4h1.4v14.4
	c0,0.4,0.1,0.7,0.4,1c0.3,0.3,0.6,0.4,1,0.4c0.4,0,0.7-0.1,1-0.4c0.3-0.3,0.4-0.6,0.4-1v-14.4h4.2c0.4,0,0.7-0.1,1-0.4
	c0.3-0.3,0.4-0.6,0.4-1c0-0.4-0.1-0.7-0.4-1s-0.6-0.4-1-0.4h-4.2v-1.1c0-3.7,1.8-5.6,5.6-5.6c0.4,0,0.7-0.1,1-0.4
	c0.3-0.3,0.4-0.6,0.4-1c0-0.4-0.1-0.7-0.4-1S240.1,126.9,239.7,126.9z M290.2,135.3c-2.8,0-5.1,1-7,2.9c-1.9,2-2.9,4.3-2.9,7
	c0,2.8,1,5.1,2.9,7c2,1.9,4.3,2.9,7,2.9c2.8,0,5.1-1,7-2.9c1.9-2,2.9-4.3,2.9-7c0-2.8-1-5.1-2.9-7
	C295.2,136.3,292.9,135.3,290.2,135.3z M295.2,150.2c-1.4,1.4-3.1,2.1-5,2.1c-2,0-3.6-0.7-5-2.1c-1.4-1.4-2.1-3.1-2.1-5
	c0-2,0.7-3.6,2.1-5c1.4-1.4,3.1-2.1,5-2.1c2,0,3.6,0.7,5,2.1c1.4,1.4,2.1,3.1,2.1,5C297.3,147.2,296.6,148.8,295.2,150.2z
	 M273.7,135.2c-0.4,0-0.7,0.1-1,0.4c-0.2,0.1-0.3,0.3-0.4,0.5l-5.7,13.7l-5.7-13.7c0-0.2-0.1-0.3-0.3-0.5c-0.3-0.3-0.6-0.4-1-0.4
	c-0.4,0-0.7,0.1-1,0.4s-0.4,0.6-0.4,1c0,0.3,0.1,0.5,0.2,0.7l6.8,16.2l-3.3,7.8c-0.1,0.2-0.2,0.5-0.2,0.7c0,0.4,0.1,0.7,0.4,1
	s0.6,0.4,1,0.4c0.4,0,0.7-0.1,1-0.4c0.1-0.1,0.2-0.3,0.3-0.5l10.5-25.2c0.1-0.2,0.2-0.5,0.2-0.7c0-0.4-0.1-0.7-0.4-1
	S274.1,135.2,273.7,135.2z M256.8,34.8c-1.2,0-2.3,0.5-3.1,1.3c-0.5,0.5-0.9,1-1.1,1.6l-17.7,42.5l-17.7-42.5
	c-0.2-0.5-0.5-1.1-1-1.6c-0.9-0.9-1.9-1.3-3.1-1.3s-2.2,0.4-3.1,1.3c-0.9,0.9-1.3,1.9-1.3,3.1c0,0.7,0.2,1.4,0.5,2l21,50.4
	l-10.1,24.3c-0.3,0.6-0.5,1.3-0.5,2c0,1.2,0.4,2.2,1.3,3.1c0.9,0.9,1.9,1.3,3.1,1.3s2.2-0.4,3.1-1.3c0.4-0.5,0.8-1,1-1.6l32.6-78.2
	c0.3-0.6,0.5-1.3,0.5-2c0-1.2-0.4-2.2-1.3-3.1C259,35.2,258,34.8,256.8,34.8z M213,135.3c-2.8,0-5.1,1-7,2.9c-1.9,2-2.9,4.3-2.9,7
	c0,2.8,1,5.1,2.9,7c2,1.9,4.3,2.9,7,2.9c2.8,0,5.1-1,7-2.9c1.9-2,2.9-4.3,2.9-7c0-2.8-1-5.1-2.9-7C218,136.3,215.7,135.3,213,135.3z
	 M218,150.1c-1.4,1.4-3.1,2.1-5,2.1c-2,0-3.6-0.7-5-2.1c-1.4-1.3-2.1-3-2.1-5s0.7-3.6,2.1-5c1.4-1.4,3.1-2.1,5-2.1
	c2,0,3.6,0.7,5,2.1c1.4,1.4,2.1,3.1,2.1,5C220.1,147.1,219.4,148.7,218,150.1z M323,94.9c0.9-0.9,1.3-1.9,1.3-3.1V39.3
	c0-1.2-0.4-2.2-1.3-3.1c-0.9-0.9-1.9-1.3-3.1-1.3s-2.3,0.4-3.1,1.2c-0.9,0.9-1.3,1.9-1.3,3.1v52.6c0,1.2,0.4,2.2,1.3,3.1
	c0.9,0.9,1.9,1.3,3.1,1.3C321.1,96.2,322.1,95.8,323,94.9z M300.5,87.3h-4.4V13c0-1.2-0.4-2.2-1.3-3.1c-0.9-0.9-1.9-1.3-3.1-1.3
	s-2.2,0.4-3.1,1.3c-0.9,0.9-1.3,1.9-1.3,3.1v78.7c0,1.2,0.4,2.2,1.3,3.1c0.9,0.9,1.9,1.3,3.1,1.3h8.7c1.2,0,2.2-0.5,3.2-1.3
	c0.9-0.9,1.3-1.9,1.3-3.1c0-1.2-0.4-2.2-1.3-3.1C302.7,87.7,301.7,87.3,300.5,87.3z M323.6,135.3c-0.4,0-0.7,0.1-1,0.4
	c-0.3,0.3-0.4,0.6-0.4,1v9.1c0,1.8-0.7,3.3-1.9,4.5c-1.3,1.3-2.8,1.9-4.5,1.9c-1.8,0-3.3-0.7-4.5-1.9c-1.3-1.3-1.9-2.8-1.9-4.5v-9.1
	c0-0.4-0.1-0.7-0.4-1s-0.6-0.4-1-0.4s-0.7,0.1-1,0.4c-0.3,0.3-0.4,0.6-0.4,1v9.1c0,2.6,0.9,4.7,2.7,6.5c1.8,1.8,4,2.7,6.5,2.7
	c2.4,0,4.5-0.8,6.3-2.5v1.1c0,0.4,0.1,0.7,0.4,1s0.6,0.4,1,0.4c0.4,0,0.7-0.1,1.1-0.4c0.3-0.3,0.4-0.6,0.4-1v-16.9
	c0-0.4-0.1-0.7-0.4-1S324,135.3,323.6,135.3z M337.9,13c0.3-1.7,0.3-3.2-0.1-4.6c-0.4-1.4-1.2-2.6-2.4-3.5c-1.1-0.9-2.6-1.6-4.3-1.9
	c-0.7-0.2-1.5-0.2-2.3-0.1C327.9,3,327,3.2,326,3.6c-0.7,0.3-1.5,0.6-2.1,1c-0.5-0.7-1.1-1.4-1.9-2.1v0l0,0
	c-0.6-0.6-1.2-1.1-1.9-1.5c-0.7-0.4-1.4-0.7-2.2-0.8c-1.7-0.3-3.2-0.3-4.7,0.1c-1.4,0.4-2.6,1.2-3.6,2.3c-0.9,1.1-1.6,2.5-1.9,4.2
	c-0.2,0.8-0.2,1.6-0.1,2.4c0.1,0.9,0.3,1.7,0.5,2.4l0,0c0.2,0.5,0.4,1.1,0.7,1.7l0,0l0,0c0.3,0.6,0.6,1.1,0.8,1.4
	c0.1,0.2,0.2,0.4,0.4,0.5l7.9,11.5c0.3,0.4,0.7,0.7,1.2,0.8c0.5,0.1,1,0,1.4-0.3l11.8-7.5l0,0C335.4,17.9,337.3,15.6,337.9,13z"/>
</svg>
