<svg width="322" height="72" viewBox="0 0 322 72" fill="none" xmlns="http://www.w3.org/2000/svg">
<path d="M113.99 38.663H110.124V27.928H97.9818V38.663H94.1117V14.031H97.9797V24.423H110.123V14.03H113.989V38.662L113.99 38.663ZM131.638 14.03H135.504L145.707 38.663H141.669L139.026 32.154H128.118L125.472 38.664H121.435L131.638 14.03V14.03ZM129.527 28.632H137.618L133.58 18.428L129.527 28.632ZM153.171 14.03H168.991V17.553H157.035V38.662H153.171V14.031V14.03ZM177.724 17.364C180.22 14.914 183.309 13.686 186.992 13.686C190.673 13.686 193.762 14.913 196.259 17.364C198.755 19.813 200.004 22.809 200.004 26.348C200.004 29.885 198.755 32.881 196.259 35.332C193.762 37.78 190.673 39.007 186.992 39.007C183.309 39.007 180.22 37.78 177.724 35.332C175.227 32.881 173.98 29.885 173.98 26.348C173.98 22.808 175.227 19.813 177.724 17.364V17.364ZM180.498 32.84C182.267 34.615 184.432 35.502 186.992 35.502C189.549 35.502 191.715 34.615 193.486 32.84C195.254 31.066 196.137 28.902 196.137 26.348C196.137 23.793 195.254 21.633 193.486 19.862C191.715 18.093 189.549 17.209 186.992 17.209C184.432 17.209 182.267 18.093 180.498 19.862C178.728 21.632 177.845 23.793 177.845 26.348C177.845 28.902 178.728 31.066 180.498 32.84ZM218.717 14.03C221.064 14.03 223.03 14.802 224.616 16.342C226.203 17.882 226.996 19.754 226.996 21.958C226.996 24.163 226.203 26.032 224.616 27.566C223.03 29.101 221.064 29.869 218.717 29.869H212.738V38.664H208.874V14.03H218.717V14.03ZM212.738 17.552V26.347H218.717C219.93 26.347 220.966 25.927 221.824 25.084C222.686 24.242 223.115 23.201 223.115 21.957C223.115 20.715 222.686 19.671 221.824 18.824C220.966 17.976 219.93 17.552 218.717 17.552H212.738V17.552ZM255.724 38.663H251.858V27.928H239.715V38.663H235.849V14.031H239.715V24.423H251.858V14.03H255.724V38.662V38.663ZM265.985 38.663V14.031H269.852V22.825H275.486C277.834 22.825 279.796 23.596 281.377 25.136C282.956 26.676 283.748 28.549 283.748 30.754C283.748 32.959 282.956 34.827 281.377 36.361C279.796 37.896 277.834 38.663 275.486 38.663H265.985V38.663ZM275.486 35.143C276.699 35.143 277.734 34.721 278.596 33.88C279.453 33.038 279.884 31.996 279.884 30.752C279.884 29.51 279.453 28.466 278.596 27.618C277.734 26.77 276.699 26.348 275.486 26.348H269.852V35.142H275.486V35.143ZM290.791 38.663H286.909V14.032H290.791V38.663ZM318.11 38.663V20.902L304.386 38.663H301.052V14.031H304.918V31.81L318.642 14.03H321.974V38.663H318.11ZM97.9617 62.21L96.7297 60.898L93.7487 65.018H92.3438L95.9408 60.016L92.6947 56.599H94.1847L97.9627 60.633V56.598H99.1877V60.633L102.957 56.598H104.447L101.201 60.016L104.799 65.019H103.393L100.413 60.899L99.1877 62.209V65.019H97.9617V62.209V62.21ZM112.697 56.6H113.75V65.02H112.516V58.707L107.428 65.02H106.383V56.6H107.608V62.912L112.697 56.599V56.6ZM117.424 56.6H123.566V65.02H122.333V57.739H118.65V59.059C118.65 60.298 118.588 61.329 118.465 62.155C118.343 62.98 118.159 63.608 117.913 64.039C117.667 64.47 117.396 64.77 117.099 64.939C116.802 65.107 116.442 65.192 116.02 65.192C115.877 65.192 115.733 65.177 115.587 65.149C115.476 65.1312 115.368 65.0996 115.266 65.055L115.147 65.02V63.795C115.381 63.91 115.615 63.967 115.849 63.967C116.209 63.967 116.491 63.864 116.696 63.658C116.902 63.453 117.075 62.978 117.215 62.237C117.355 61.495 117.424 60.435 117.424 59.059V56.599V56.6ZM127.006 63.922C126.17 63.078 125.751 62.039 125.751 60.809C125.751 59.579 126.17 58.539 127.006 57.691C127.842 56.843 128.858 56.419 130.051 56.419C131.244 56.419 132.258 56.843 133.092 57.691C133.925 58.539 134.343 59.578 134.343 60.809C134.343 62.039 133.925 63.078 133.092 63.922C132.258 64.768 131.244 65.19 130.051 65.19C128.858 65.19 127.842 64.768 127.006 63.922ZM132.214 63.113C132.816 62.488 133.117 61.72 133.117 60.809C133.117 59.898 132.816 59.129 132.214 58.505C131.611 57.879 130.889 57.567 130.046 57.567C129.203 57.567 128.482 57.879 127.879 58.505C127.276 59.13 126.975 59.896 126.975 60.805C126.975 61.708 127.276 62.474 127.879 63.105C128.481 63.735 129.203 64.051 130.046 64.051C130.889 64.051 131.611 63.738 132.214 63.113V63.113ZM142.848 56.6H143.902V65.02H142.668V58.707L137.58 65.019H136.535V56.6H137.76V62.913L142.848 56.6ZM139.182 53.84C139.427 54.098 139.773 54.226 140.218 54.226C140.663 54.226 141.009 54.098 141.255 53.841C141.5 53.583 141.623 53.215 141.623 52.735H142.582C142.582 53.437 142.363 54.009 141.927 54.449C141.49 54.888 140.921 55.109 140.218 55.109C139.516 55.109 138.945 54.889 138.505 54.449C138.066 54.009 137.846 53.437 137.846 52.735H138.813C138.814 53.215 138.937 53.584 139.182 53.841V53.84ZM151.26 62.655V65.02H150.035V56.6H151.26V61.07L155.466 56.6H156.965L153.719 60.017L157.317 65.02H155.911L152.931 60.9L151.26 62.655V62.655ZM158.893 56.6H162.747C163.518 56.6 164.135 56.806 164.598 57.22C165.06 57.635 165.292 58.158 165.292 58.792C165.292 59.152 165.204 59.479 165.03 59.774C164.856 60.068 164.68 60.272 164.503 60.386L164.238 60.548L164.388 60.6C164.454 60.623 164.568 60.685 164.73 60.785C164.893 60.885 165.036 61.002 165.159 61.135C165.282 61.269 165.393 61.462 165.493 61.714C165.593 61.964 165.643 62.248 165.643 62.562C165.643 63.321 165.406 63.92 164.932 64.361C164.457 64.801 163.789 65.021 162.927 65.021H158.893V56.599V56.6ZM164.067 58.877C164.067 58.117 163.627 57.738 162.747 57.738H160.117V60.017H162.747C163.626 60.017 164.067 59.637 164.067 58.877V58.877ZM162.927 61.07H160.117V63.88H162.927C163.407 63.88 163.775 63.757 164.032 63.512C164.29 63.267 164.418 62.921 164.418 62.475C164.418 62.03 164.29 61.685 164.032 61.439C163.775 61.193 163.407 61.07 162.927 61.07ZM169.849 60.197L173.095 59.666C173.095 59.043 172.898 58.538 172.504 58.15C172.11 57.761 171.604 57.568 170.987 57.568C170.542 57.568 170.124 57.668 169.733 57.871C169.341 58.074 169.057 58.281 168.88 58.493L168.615 58.793L167.826 58.004C167.861 57.959 167.908 57.9 167.968 57.829C168.028 57.757 168.159 57.632 168.362 57.452C168.561 57.2738 168.775 57.1116 169 56.967C169.223 56.825 169.515 56.697 169.878 56.587C170.237 56.4763 170.611 56.42 170.987 56.42C171.947 56.42 172.742 56.731 173.373 57.353C174.004 57.976 174.319 58.746 174.319 59.666V65.019H173.094V63.88C173.06 63.9287 173.024 63.9761 172.987 64.022C172.939 64.082 172.83 64.187 172.662 64.339C172.493 64.49 172.312 64.625 172.118 64.741C171.924 64.858 171.668 64.963 171.351 65.054C171.032 65.1457 170.702 65.1918 170.37 65.191C169.531 65.191 168.824 64.943 168.251 64.446C167.677 63.949 167.39 63.381 167.39 62.742C167.39 62.039 167.601 61.472 168.023 61.041C168.446 60.609 169.055 60.328 169.849 60.197V60.197ZM170.371 64.051C171.165 64.051 171.818 63.791 172.328 63.271C172.839 62.751 173.095 62.078 173.095 61.25V60.719L170.199 61.249C169.148 61.449 168.62 61.946 168.615 62.74C168.615 63.117 168.77 63.43 169.081 63.678C169.393 63.927 169.823 64.051 170.371 64.051ZM178.346 63.7V68.702H177.121V56.6H178.346V57.92C178.368 57.885 178.41 57.832 178.47 57.76C178.586 57.6326 178.709 57.5114 178.839 57.397C179.024 57.225 179.225 57.072 179.442 56.938C179.659 56.804 179.937 56.685 180.277 56.578C180.616 56.472 180.967 56.42 181.326 56.42C182.4 56.42 183.34 56.85 184.148 57.714C184.957 58.576 185.361 59.608 185.361 60.811C185.361 62.013 184.959 63.044 184.153 63.903C183.347 64.763 182.405 65.193 181.325 65.193C180.966 65.193 180.618 65.141 180.286 65.038C179.989 64.9522 179.705 64.8285 179.441 64.67C179.232 64.5406 179.033 64.3959 178.846 64.237C178.709 64.1232 178.582 63.9988 178.465 63.865L178.346 63.701V63.7ZM179.267 58.539C178.653 59.187 178.346 59.944 178.346 60.809C178.346 61.674 178.653 62.431 179.267 63.079C179.88 63.727 180.567 64.052 181.326 64.052C182.052 64.052 182.702 63.736 183.275 63.106C183.849 62.475 184.136 61.709 184.136 60.81C184.136 59.91 183.849 59.145 183.275 58.514C182.702 57.883 182.052 57.567 181.326 57.567C180.567 57.567 179.88 57.891 179.267 58.539V58.539ZM186.501 57.738V56.6H193.688V57.74H190.706V65.02H189.481V57.74H186.501V57.738ZM197.285 60.197L200.531 59.666C200.531 59.043 200.334 58.538 199.94 58.15C199.546 57.761 199.041 57.568 198.424 57.568C197.978 57.568 197.56 57.668 197.169 57.871C196.777 58.074 196.493 58.281 196.316 58.493L196.051 58.793L195.263 58.004C195.297 57.959 195.344 57.9 195.404 57.829C195.527 57.6957 195.658 57.5698 195.797 57.452C196 57.272 196.213 57.111 196.435 56.967C196.658 56.825 196.951 56.697 197.313 56.587C197.672 56.4764 198.047 56.4201 198.423 56.42C199.382 56.42 200.177 56.731 200.808 57.353C201.439 57.976 201.754 58.746 201.754 59.666V65.019H200.53V63.88C200.496 63.9287 200.46 63.9761 200.423 64.022C200.375 64.082 200.266 64.187 200.097 64.339C199.929 64.49 199.747 64.625 199.554 64.741C199.359 64.858 199.104 64.963 198.786 65.054C198.467 65.1458 198.137 65.1919 197.806 65.191C196.967 65.191 196.26 64.943 195.686 64.446C195.112 63.949 194.825 63.381 194.825 62.742C194.825 62.039 195.037 61.472 195.459 61.041C195.883 60.609 196.492 60.328 197.285 60.197V60.197ZM197.807 64.051C198.601 64.051 199.253 63.791 199.765 63.271C200.275 62.751 200.532 62.078 200.532 61.25V60.719L197.636 61.249C196.585 61.449 196.057 61.946 196.052 62.74C196.052 63.117 196.207 63.43 196.518 63.678C196.83 63.927 197.26 64.051 197.807 64.051ZM205.431 56.6H211.573V65.02H210.339V57.739H206.656V59.059C206.656 60.298 206.595 61.329 206.472 62.155C206.349 62.98 206.165 63.608 205.919 64.039C205.673 64.47 205.403 64.77 205.106 64.939C204.808 65.107 204.449 65.192 204.026 65.192C203.883 65.192 203.739 65.177 203.594 65.149C203.483 65.1312 203.375 65.0996 203.272 65.055L203.152 65.02V63.795C203.387 63.91 203.621 63.967 203.855 63.967C204.215 63.967 204.497 63.864 204.703 63.658C204.908 63.453 205.081 62.978 205.221 62.237C205.361 61.495 205.431 60.435 205.431 59.059V56.599V56.6Z" fill="black"/>
<mask id="mask0" mask-type="alpha" maskUnits="userSpaceOnUse" x="0" y="0" width="72" height="72">
<path fill-rule="evenodd" clip-rule="evenodd" d="M30.6458 2.154C33.5198 -0.718 38.2197 -0.718 41.0917 2.154L69.5847 30.647C72.4567 33.519 72.4567 38.221 69.5847 41.093L41.0917 69.586C38.2197 72.459 33.5198 72.459 30.6458 69.586L2.15475 41.093C-0.71825 38.22 -0.71825 33.519 2.15475 30.647L30.6458 2.154Z" fill="white"/>
</mask>
<g mask="url(#mask0)">
<path fill-rule="evenodd" clip-rule="evenodd" d="M30.6458 2.154C33.5198 -0.718 38.2197 -0.718 41.0917 2.154L69.5847 30.647C72.4567 33.519 72.4567 38.221 69.5847 41.093L41.0917 69.586C38.2197 72.459 33.5198 72.459 30.6458 69.586L2.15475 41.093C-0.71825 38.22 -0.71825 33.519 2.15475 30.647L30.6458 2.154Z" fill="#F05325"/>
<path fill-rule="evenodd" clip-rule="evenodd" d="M60.1556 100.432C61.3986 100.64 62.5406 100.742 64.0356 100.319C71.7906 98.149 78.5346 92.671 83.0456 87.906C86.6456 84.037 86.7486 90.13 86.6966 92.206C86.6966 92.706 86.9246 92.626 87.1796 92.232C88.3196 90.602 89.6136 84.529 90.0436 82.112C91.4866 73.415 88.9286 67.43 85.3286 60.16C82.5666 54.99 88.6006 56.292 90.4486 57.313C91.5636 57.889 91.4146 57.94 90.4746 56.945C81.8566 47.611 69.6886 45.008 58.2816 46.715C56.6086 46.954 54.0226 47.562 53.2606 47.407C50.9556 46.808 53.0586 43.677 54.3506 42.361C50.6756 44.051 47.4056 46.551 44.7206 49.105C39.4976 53.925 36.4826 61.549 34.6306 69.25L31.8686 79.16L32.0956 80.026C41.7766 99.263 54.2486 99.156 60.1556 100.432V100.432ZM95.8246 43.378L95.5206 43.221L95.8246 43.378ZM84.3386 120.005C87.8126 116.347 92.9826 104.121 89.9406 103.154C88.8506 102.841 87.8376 103.606 86.1386 104.581C83.8326 105.873 81.0196 107.849 77.7966 109.117C69.8896 112.313 62.2596 113.851 54.7566 114.024C51.5116 114.111 48.4686 113.8 45.4536 113.361C43.3216 112.893 42.8666 112.682 45.3766 112.232C49.8886 111.565 60.0796 107.735 54.3756 106.302C52.1176 105.782 51.4856 105.703 49.3836 105.051C34.1726 100.853 19.3936 90.166 14.8836 72.627C10.1676 54.562 17.2666 37.025 23.9596 27.03C23.7816 30.42 23.3776 36.857 29.8656 32.324C41.6526 23.814 52.0216 19.169 66.0156 16.985C70.8046 16.215 75.4956 15.995 80.3616 16.038C81.6546 16.061 82.8716 16.084 83.9376 16.162C85.7876 16.235 86.9776 16.444 86.9546 16.575L86.6736 16.891C85.5336 17.577 84.2906 18.104 83.0986 18.657C75.4686 22.142 54.5056 31.3 69.6886 32.95C82.4396 34.682 94.2796 38.757 103.758 48.957C105.051 50.161 106.548 52.365 106.446 52.577C106.446 52.577 105.508 51.973 104.849 51.607C101.374 49.592 91.8456 46.801 96.6356 52.517C114.151 74.155 105.481 103.962 84.4156 120.136C83.8056 120.636 83.7816 120.611 84.3386 120.004V120.005Z" fill="#A12023"/>
<path fill-rule="evenodd" clip-rule="evenodd" d="M88.1952 57.598C88.9312 57.781 89.7152 58.068 90.2252 58.278C90.5022 58.303 80.9702 42.85 56.9132 46.078C51.4652 46.668 54.3292 42.958 57.5992 41.638C59.4242 40.925 60.0332 40.661 57.4732 41.375C56.2802 41.693 55.1662 42.115 54.0502 42.616C43.0232 48.366 36.8642 57.312 33.3142 70.034C33.0092 71.294 32.2492 73.609 31.6142 75.816C31.1082 77.314 30.8542 80.442 28.8782 74.324C29.0042 75.744 29.7392 78.237 30.7282 80.048C30.8532 80.257 31.0582 80.363 31.3112 80.73C36.8112 89.492 39.1442 92.194 46.0112 96.566C48.1922 97.954 57.1162 100.904 60.7672 100.529C58.5352 100.822 55.0872 100.355 53.7702 100.177C52.5772 99.993 51.3102 99.892 50.1702 99.579C40.8922 97.128 32.0202 91.603 25.2782 83.763C25.5312 84.156 25.7852 84.523 26.0642 84.891C27.7377 87.0245 29.5948 89.0074 31.6142 90.817C35.2142 93.909 39.3452 96.421 43.3012 98.069C47.0988 99.6453 51.1351 100.569 55.2402 100.802L54.8862 100.856C61.6282 101.21 66.6472 99.834 71.6412 97.222C74.7832 95.562 77.7252 93.452 80.7672 90.662C81.6792 89.845 84.3422 87.081 85.0772 87.579C85.8102 88.025 85.5582 90.731 85.6602 92.386C85.6852 92.726 85.9122 92.806 86.0902 92.542C88.2192 89.542 89.2602 85.837 90.0432 82.525C91.5152 73.826 89.9182 68.103 86.2432 60.886C84.5962 57.66 85.7612 57.104 88.1952 57.598V57.598ZM85.3322 17.384C75.2182 21.792 65.0282 25.15 56.2582 31.998C54.7362 33.238 53.7722 34.369 56.2322 34.128C73.1142 32.043 88.8312 36.056 102.189 48.113C103.127 48.978 103.05 48.899 102.012 48.376C97.8532 46.284 94.5602 44.871 89.6422 43.462C83.4322 41.663 78.8682 41.488 87.0812 47.723C96.2312 54.666 102.772 63.611 103.835 77.163C104.013 78.897 104.038 80.683 104.013 82.603C103.97 83.3224 103.903 84.0402 103.811 84.755C102.847 97.499 96.5862 107.468 88.7262 115.76C86.7502 117.839 86.5722 117.812 88.4482 115.523C92.8072 110.182 95.7482 103.556 97.4982 96.38C99.7042 87.498 98.5882 79.249 96.0782 79.885C95.3692 80.045 95.0142 81.149 94.4572 82.805C93.0372 87.195 91.1362 90.509 88.5242 94.061C82.5172 102.27 72.9342 106.94 63.8332 110.426C65.8352 110.211 69.7652 108.495 71.9702 107.571C81.4012 103.007 87.3322 98.713 93.1382 89.821C93.9742 88.453 93.7732 89.478 92.9352 91.004C88.1702 100.235 78.7642 107.637 65.6072 111.211C61.0952 112.401 56.2792 112.596 51.6932 112.868C48.5992 113.058 48.4212 112.9 51.6422 112.288C56.9642 111.307 62.0342 109.852 66.6482 106.243C68.8522 104.531 66.9022 104.536 65.8352 104.643C58.9172 105.365 52.3772 104.959 45.6832 102.872C27.0532 96.105 12.9852 81.635 14.4302 57.541C15.0902 47.454 18.6642 37.673 21.8332 31.571C21.3262 33.359 20.2612 38.484 20.1072 42.713C20.0072 46.784 20.4872 49.017 22.0342 46.598C22.5942 45.651 23.0482 44.993 23.6342 44.072C36.2042 25.763 55.7012 18.34 75.6752 16.828C82.0632 16.288 84.2692 16.415 85.7132 16.57C87.2342 16.75 86.2452 16.91 85.3332 17.384H85.3322Z" fill="#DA5128"/>
<path fill-rule="evenodd" clip-rule="evenodd" d="M54.672 30.954C51.756 32.693 48.208 35.434 46.282 37.907C45.344 39.248 45.724 39.562 47.955 38.429C63.317 31.434 81.263 35.732 94.039 42.667C97.108 44.395 96.853 44.817 93.709 43.404C86.765 40.135 63.925 37.397 78.577 44.408C80.7934 45.4917 82.9432 46.7065 85.015 48.046C96.676 55.824 104.253 68.076 102.834 85.68C102.758 89.436 100.172 97.952 97.407 102.689C95.707 105.817 95.635 105.713 97.003 102.61C102.252 90.49 103.416 78.454 98.041 66.145C94.849 58.795 89.678 53.079 83.163 49.363C79.7721 47.4546 76.1034 46.0887 72.29 45.315C67.88 44.403 62.175 44.627 57.814 44.923C55.534 45.06 55.051 44.561 56.345 43.297C57.715 41.981 62.226 39.817 68.462 39.725C69.199 39.751 71.452 39.799 70.895 39.642C50.438 38.949 38.855 49.638 33.15 66.228C32.212 69.014 31.553 71.748 30.97 74.613L30.411 76.242L29.625 74.957C29.195 73.539 28.866 71.648 28.84 70.15C28.51 52.917 40.552 35.791 54.672 30.954V30.954ZM85.32 16.863C85.497 16.889 85.497 17.019 84.839 17.336C74.471 21.088 62.177 24.843 52.086 30.302C46.026 33.573 41.238 37.235 36.903 43.207C23.974 61.098 24.403 83.084 42.656 96.338C42.832 96.471 43.211 96.837 42.807 96.655C23.543 86.79 12.719 62.513 28.539 40.86C44.101 21.23 67.522 17.163 85.319 16.863H85.32ZM24.609 82.9C35.685 98.85 55.456 105.323 71.605 97.62C73.049 96.959 78.878 93.636 81.059 91.346C83.594 88.819 84.685 88.633 84.532 90.499C84.28 93.81 82.962 96.648 81.035 99.043C85.47 95.541 89.248 90.936 90.998 82.919C92.545 75.981 90.744 67.027 87.32 61.097C86.13 58.919 86.205 58.261 87.247 58.391C91.405 58.856 94.471 61.687 96.574 65.65C100.453 72.917 101.34 84.107 99.921 91.1C99.184 94.489 99.058 94.856 99.463 91.256C100.097 85.239 100.325 77.673 96.65 72.137C94.016 69.384 94.217 74.034 93.735 77.607C92.264 93.373 80.325 101.804 70.539 106.919L70.565 106.894C69.6073 107.388 68.6356 107.855 67.651 108.293C67.168 108.53 66.661 108.689 67.549 108.057C70.844 105.817 74.773 102.526 74.315 101.292C73.681 100.215 67.675 103.065 60.323 103.29C43.593 103.639 29.4 97.706 19.867 80.86C13.303 68.633 14.419 52.396 18.121 41.617C20.248 35.465 18.347 43.431 18.017 45.873C16.345 59.249 17.965 71.775 24.608 82.9H24.609Z" fill="#F39523"/>
<path fill-rule="evenodd" clip-rule="evenodd" d="M90.6561 86.714C93.4701 77.803 92.1781 68.61 87.5401 60.082C87.0571 59.269 87.7181 58.795 88.6801 59.896C93.1901 65.194 94.4611 79.115 90.6561 86.714ZM63.2031 101.298C65.8651 100.636 68.6791 99.896 69.5401 99.525C75.8281 96.963 79.5541 94.355 82.5181 91.459C83.2041 90.644 84.3441 90.301 83.1541 92.219C80.2111 96.089 73.8751 98.938 69.4141 100.418C67.2861 101.158 62.5951 102.271 59.2741 102.436C46.5761 103.33 35.4731 97.94 30.2241 92.776C31.4941 93.72 45.0811 104.777 63.2031 101.298V101.298ZM31.6191 61.118C37.2231 41.115 53.3941 33.752 74.8391 37.069C51.5201 34.78 38.7431 43.292 32.5591 61.353C32.0183 62.9269 31.5774 64.5335 31.2391 66.163C30.9338 67.8454 30.6804 69.5369 30.4791 71.235C30.2511 72.863 30.3011 73.94 30.2261 73.969C30.0741 74.021 30.0461 72.129 30.2261 69.58C30.4521 66.743 30.8601 63.878 31.6191 61.118V61.118ZM23.4821 66.572C21.9621 33.003 57.3531 18.428 82.1661 17.483C83.5861 17.376 83.7391 17.401 82.0161 17.956C68.9101 21.4 50.2271 26.43 38.0831 38.33C31.3931 44.883 26.1941 55.849 25.7381 66.28C25.3581 74.976 28.0181 81.223 32.6821 87.726C27.2821 82.432 23.8621 74.978 23.4811 66.572H23.4821ZM18.3891 41.995C15.6491 54.585 16.2331 64.302 18.9191 75.145C14.6631 64.964 14.9651 51.197 18.3891 41.995V41.995ZM57.7051 44.251C56.3101 44.491 56.0561 43.465 58.0591 43.121C80.9511 39.92 99.2261 55.985 101.329 73.53C96.8181 52.997 79.0731 41.343 57.7051 44.251Z" fill="#FCDB3C"/>
</g>
</svg>
