<svg width="116" height="18" viewBox="0 0 116 18" fill="none" xmlns="http://www.w3.org/2000/svg">
<path d="M33.6851 1.23535H38.8066L42.9359 12.7599L47.0336 1.23535H51.9757V16.6014H48.6908V4.85447L44.4125 16.6002H41.0372L36.7578 4.91869V16.6014H33.6851V1.23535Z" fill="#007BFB"/>
<path d="M73.4314 1.23535H84.7323V16.6014H81.2329V4.47388H76.6261C76.5956 6.63251 76.5358 9.52257 76.4759 11.1412C76.3551 15.173 75.2342 16.6014 71.9549 16.6014H70.3881V13.3641H71.2618C72.7383 13.3641 73.2203 12.6648 73.3118 10.474C73.4021 8.12511 73.4314 3.4582 73.4314 1.23535Z" fill="#007BFB"/>
<path d="M102.606 1.23535H115.895V4.47388H110.983V16.605H107.518V4.47388H102.606V1.23535Z" fill="#007BFB"/>
<path d="M24.6397 0.920166H23.3878C20.3817 0.920166 18.1048 2.84568 17.5822 5.71196L20.7746 6.25191C21.2114 4.88657 22.215 3.95532 23.4838 3.89348C23.7243 3.87564 23.9657 3.87564 24.2062 3.89348C26.0936 3.96484 26.9459 4.91868 26.9459 7.27235C23.3698 7.27235 20.9247 7.09395 19.1276 8.34275C17.6601 9.36319 17.0302 10.4942 17.0302 12.2818C17.0302 14.8697 18.9413 16.9201 22.0253 16.9201H22.4497C24.6284 16.9201 26.3871 16.027 27.1028 14.9482V16.6038H30.3212V7.34133C30.3234 3.7686 28.5071 0.920166 24.6397 0.920166ZM22.6744 13.9219C21.3062 13.8802 20.5138 13.0453 20.5138 11.9904C20.5138 11.1162 20.8874 10.6821 21.3819 10.3848C21.9 10.0661 22.5728 9.95666 23.6192 9.91741C24.625 9.87936 25.4423 9.83297 27.0057 9.83297C27.0057 12.4495 25.44 13.7732 23.4951 13.9135C23.2218 13.932 22.9479 13.9347 22.6744 13.9219Z" fill="#007BFB"/>
<path d="M101.796 9.95791V8.51882C101.796 3.56171 98.8394 0.996338 95.0228 0.996338H94.2766C90.1676 0.996338 87.5465 3.94705 87.4121 8.11326C87.3929 8.7222 87.3929 8.97671 87.4121 9.81043C87.5081 13.9552 90.2658 16.7454 93.9492 16.8465C94.6265 16.8667 94.5385 16.8655 95.174 16.8465C98.3822 16.7525 100.81 14.8008 101.526 12.2521L98.424 11.68C97.6654 13.2785 96.2193 13.891 95.0611 13.9516C94.7999 13.9695 94.5378 13.9695 94.2766 13.9516C92.4637 13.8731 90.8404 12.3758 90.8404 10.2017V9.96385L101.796 9.95791ZM94.2156 3.89234C94.5032 3.87213 94.7917 3.87213 95.0792 3.89234C96.602 3.97322 98.2061 5.01626 98.3607 7.08806H90.8574C91.0312 5.23866 92.4422 3.99344 94.2156 3.89115V3.89234Z" fill="#007BFB"/>
<path d="M69.4343 7.5626C69.3564 3.84477 66.5106 0.996338 62.7482 0.996338H61.3846C57.6221 0.996338 54.7763 3.85072 54.6973 7.58282C54.6781 8.61991 54.6781 9.22409 54.6973 10.26C54.7763 13.9992 57.6221 16.8465 61.3846 16.8465H62.7482C66.5106 16.8465 69.3564 13.9992 69.4343 10.26C69.4546 9.22409 69.4546 8.5997 69.4343 7.5626ZM65.9981 10.0697C65.9575 12.2414 64.4584 13.715 62.4412 13.8232C62.1917 13.8446 61.941 13.8446 61.6916 13.8232C59.6541 13.715 58.1753 12.2414 58.1346 10.0697C58.1143 9.167 58.1143 8.6544 58.1346 7.75171C58.1753 5.60259 59.6541 4.12783 61.6916 4.02079C61.941 3.9982 62.1918 3.9982 62.4412 4.02079C64.4584 4.12783 65.9575 5.60259 65.9981 7.77311C66.0185 8.67581 66.0185 9.167 65.9981 10.0697Z" fill="#007BFB"/>
<path d="M11.6139 11.1805C11.2075 12.6077 10.1205 13.583 8.65974 13.797C8.26872 13.8532 7.87226 13.8532 7.48124 13.797C5.6638 13.5294 4.38483 12.0927 4.34645 10.0744C4.32613 9.17176 4.32613 8.65916 4.34645 7.75646C4.38483 5.71915 5.72815 4.23011 7.57944 4.02198C7.87954 3.98854 8.18205 3.98655 8.48252 4.01603C10.0369 4.19324 11.2075 5.17801 11.6309 6.67418L15.0174 5.98437C14.2881 3.07052 11.7787 0.996338 8.56944 0.996338H7.59751C3.83508 0.996338 0.988149 3.84477 0.906872 7.58282C0.891069 8.61991 0.891069 9.22409 0.906872 10.26C0.984762 13.9992 3.8317 16.8465 7.59412 16.8465H8.56605C11.8397 16.8465 14.3705 14.6938 15.0399 11.6753L11.6139 11.1805Z" fill="#007BFB"/>
</svg>
