<svg width="140" height="54" viewBox="0 0 140 54" fill="none" xmlns="http://www.w3.org/2000/svg">
<path d="M39.7335 40.3078C39.5881 40.6249 39.4513 40.9258 39.3195 41.213C38.5691 41.0306 37.8151 40.8655 37.0642 40.7191C38.2537 39.8245 39.4237 39.0819 40.5805 38.4913C40.2707 39.1538 39.9885 39.7582 39.7335 40.3078ZM37.4862 45.0633C35.8254 47.9416 34.3099 49.3797 32.9428 49.3797C32.5037 49.3797 32.1476 49.2141 31.874 48.8858C31.6738 48.6457 31.5722 48.3529 31.5722 48.0049C31.5722 46.3743 32.5948 44.613 34.6388 42.7251C34.7485 42.6258 34.8556 42.5295 34.9653 42.4328C36.1709 42.4687 37.3987 42.5488 38.643 42.6785C38.0536 43.9535 37.6673 44.7488 37.4862 45.0633ZM34.1158 8.90933C36.6176 5.75702 38.38 4.18112 39.402 4.18112C39.7828 4.18112 39.9774 4.39135 39.9774 4.81331C39.9774 5.23274 39.7033 5.93938 39.1556 6.93021C38.3689 8.34097 37.3273 9.80644 36.0341 11.3271C33.4413 14.3908 30.6487 16.9109 27.653 18.8895C29.9008 14.8573 32.0546 11.5313 34.1158 8.90933ZM98.0546 28.4037C99.1486 26.3116 100.291 24.6911 101.478 23.5347C102.719 22.3453 103.769 21.749 104.627 21.749C104.955 21.749 105.196 21.8316 105.353 21.9978C105.507 22.1604 105.586 22.4086 105.586 22.7399C105.586 23.2145 105.403 23.9212 105.038 24.8542C104.58 26.03 103.969 27.1753 103.202 28.2927C101.138 31.3154 99.2582 32.8274 97.5617 32.8274C96.9586 32.8274 96.4572 32.6177 96.0568 32.1958C96.3832 31.5914 97.0492 30.3271 98.0546 28.4037ZM139.884 15.9084C139.558 15.0311 138.601 14.5645 137.554 14.7824C137.54 14.7824 137.532 14.7884 137.521 14.7935L137.105 14.9151C137.086 14.9176 137.066 14.9287 137.047 14.9374L136.62 15.1334C136.603 15.1415 136.584 15.1471 136.57 15.1608L136.137 15.4368C136.124 15.4424 136.11 15.4505 136.099 15.4586L134.227 16.9545L132.237 18.4149L131.254 18.9366C130.862 19.1185 130.402 19.232 129.892 19.2674L129.44 19.2482L128.993 19.16L128.524 18.9832L121.017 15.1385C121.004 15.1278 120.985 15.1192 120.971 15.1136L120.544 14.9566C120.514 14.9455 120.481 14.9374 120.448 14.9374L120.037 14.8847C120.007 14.8821 119.973 14.8821 119.947 14.8847L119.74 14.9039C119.732 14.9039 119.727 14.9039 119.719 14.9095C119.244 14.9895 118.894 15.2631 118.741 15.6881C118.546 16.2205 118.694 16.9302 119.108 17.4241L125.142 24.3765C125.156 24.415 125.17 24.5093 125.165 24.6389C125.159 24.68 125.156 24.719 125.15 24.7519L123.761 26.2589L122.106 27.7522C122.026 27.8211 121.933 27.9012 121.892 27.9149C121.582 27.9812 120.969 27.7659 120.563 27.6251C120.429 27.578 120.303 27.537 120.201 27.504L119.165 27.1722C119.154 27.1697 119.146 27.1697 119.132 27.1641C118.532 26.996 117.789 26.7943 117.05 27.0289C116.737 27.1312 116.488 27.3409 116.34 27.6357C116.18 27.9483 116.156 28.3262 116.268 28.6711C116.279 28.6853 116.282 28.7046 116.287 28.7122L116.403 28.9665C116.414 28.9832 116.427 29.0024 116.435 29.0217L116.6 29.2587C116.608 29.2729 116.616 29.2866 116.628 29.2978L117.37 30.203L117.685 30.7384L117.77 30.9593C117.91 31.3539 117.738 31.71 117.409 32.1512L116.896 32.6785L116.18 33.2666C114.216 34.5695 110.428 37.2497 108.828 38.2653C106.816 39.5348 104.58 40.9947 102.116 42.5072C99.6581 44.0254 96.9506 45.5542 94.0152 46.9457C92.3247 47.7157 90.5542 48.4385 88.7098 49.0403C90.5894 44.108 92.6999 39.2617 95.0433 34.5062C95.8264 35.1297 96.6216 35.4418 97.4244 35.4418C98.8855 35.4418 100.445 34.7544 102.108 33.3796C104.079 31.749 105.759 29.5105 107.145 26.6702C108.039 24.8735 108.488 23.333 108.488 22.0499C108.488 21.1169 108.285 20.4158 107.885 19.9497C107.482 19.4802 106.879 19.2456 106.076 19.2456C105.366 19.2456 104.635 19.4305 103.887 19.7978C103.522 19.9796 102.966 20.3109 102.218 20.7856C102.528 20.2365 102.947 19.505 103.475 18.5861C103.914 17.8713 104.133 17.3055 104.133 16.883C104.133 16.1298 103.824 15.7539 103.202 15.7539C102.602 15.7539 101.979 16.3507 101.341 17.5426C101.103 17.9813 100.636 18.7902 99.9433 19.9604C96.602 25.5163 93.0696 32.4911 89.3486 40.8847C87.3367 45.425 86.1637 48.4193 85.8318 49.8599C85.3826 49.9704 84.9279 50.0696 84.4672 50.1608C81.0636 50.912 77.4215 51.0939 73.7357 50.79C70.0439 50.4394 66.3138 49.6669 62.6144 48.6401C60.7725 48.1184 58.9502 47.5277 57.1194 46.8378C55.3082 46.2031 53.4663 45.5051 51.647 44.8921C48.4239 43.7407 45.1953 42.7666 42.0135 41.9085C42.8193 40.2414 43.6441 38.3778 44.4967 36.3191C46.922 34.9641 49.024 33.3603 50.8025 31.5114C50.9886 32.5848 51.5207 33.5564 52.3974 34.4231C53.8777 35.8719 55.9218 36.5952 58.5307 36.5952C61.1784 36.5952 63.5514 35.8997 65.6509 34.5062C68.1144 32.8391 69.3477 30.9238 69.3477 28.7593C69.3477 27.6418 69.0107 26.4408 68.3337 25.1577C67.7503 24.0757 67.0376 22.903 66.1991 21.6386C65.3219 20.3195 64.6011 19.1377 64.0368 18.0922C63.3598 16.7919 63.0228 15.525 63.0228 14.2966C63.0228 12.6102 63.6611 10.8798 64.9381 9.10233C66.3988 7.04874 68.4077 5.37103 70.9618 4.07069C72.861 3.09912 74.4399 2.61333 75.7003 2.61333C76.1741 2.61333 76.5856 2.74047 76.9306 2.9973C77.3692 3.32859 77.5885 3.75916 77.5885 4.28902C77.5885 5.66331 76.495 7.2696 74.3026 9.10233C72.606 10.5323 70.6525 11.6392 68.4434 12.4284C67.2377 12.8503 66.6372 13.4 66.6372 14.0787C66.6372 14.3715 66.7473 14.6365 66.9661 14.8766C67.2951 15.2241 67.6678 15.3983 68.0873 15.3983C68.7256 15.3983 69.6656 15.0863 70.9075 14.4627C73.3902 13.1984 75.563 11.5672 77.4245 9.56887C79.3972 7.44386 80.381 5.4617 80.381 3.62948C80.381 2.4563 79.9263 1.53183 79.0139 0.852536C78.2655 0.284179 77.3501 0 76.2757 0C74.6124 0 72.8887 0.394608 71.0986 1.18382C68.9449 2.1554 66.9747 3.41977 65.1851 4.97591C61.8086 7.96511 60.1206 11.1726 60.1206 14.6005C60.1206 16.0493 60.5396 17.5233 61.3811 19.0278C62.1265 20.3829 63.05 21.8868 64.1465 23.5347C64.8562 24.5999 65.3878 25.4778 65.7328 26.1763C66.0618 26.8526 66.2263 27.614 66.2263 28.4584C66.2263 29.8332 65.6589 30.9679 64.5297 31.8675C62.721 33.2778 60.6135 33.9844 58.2018 33.9844C56.9992 33.9844 56.0043 33.7083 55.2176 33.1592C54.3052 32.4992 53.85 31.5828 53.85 30.4102C53.85 28.9421 54.6342 27.926 56.2045 27.3576C57.1169 27.0456 57.5746 26.5877 57.5746 25.9828C57.5746 25.1769 57.0811 24.7737 56.0943 24.7737C55.6919 24.7737 55.19 24.8927 54.5899 25.1303C54.36 25.2159 54.1407 25.3147 53.927 25.4226C53.3239 25.7316 52.7867 26.1262 52.3154 26.615C51.8849 27.0567 51.5429 27.537 51.2879 28.0638C50.7995 28.6519 50.1667 29.3337 49.3967 30.1062C48.4295 31.097 47.3631 31.9308 46.1957 32.6101C46.8154 30.9952 47.7001 29.1625 48.8514 27.1089C49.5803 25.7898 50.383 24.371 51.2602 22.8473C51.989 21.6026 52.3567 20.7141 52.3567 20.1812C52.3567 19.8692 52.2465 19.5962 52.0277 19.3561C51.7893 19.0992 51.5233 18.9721 51.233 18.9721C50.7587 18.9721 50.2462 19.2927 49.6985 19.933C49.4626 20.1924 48.8318 21.0064 47.8098 22.3812C46.6781 23.9404 46.0398 24.8097 45.8945 24.992C45.1817 25.8562 44.1954 26.9185 42.9344 28.1823C40.9286 30.1812 39.558 31.1796 38.8291 31.1796C38.465 31.1796 38.2809 30.9871 38.2809 30.6032C38.2809 29.9406 38.7824 28.8976 39.7858 27.4676C40.6625 26.2037 41.6217 25.0305 42.6633 23.949C43.6472 22.903 44.2447 22.2293 44.4554 21.9284C44.6667 21.6249 44.7708 21.2714 44.7708 20.8686C44.7708 20.5951 44.6692 20.355 44.4695 20.1534C44.2497 19.8971 43.9952 19.7699 43.702 19.7699C42.6442 19.7699 40.9286 21.437 38.555 24.7737C37.5164 26.2341 36.7051 27.5643 36.1297 28.7679C35.6202 29.4026 35.0473 30.0318 34.417 30.6553C32.7919 32.3254 31.3584 33.1592 30.1196 33.1592C29.517 33.1592 29.0317 32.8467 28.6675 32.2231C28.3743 31.7292 28.2289 31.1057 28.2289 30.3549C28.2289 28.815 28.8234 26.571 30.01 23.6177C31.4681 22.6462 32.893 21.9506 34.2797 21.5282C35.1021 21.2906 35.513 20.8686 35.513 20.2643C35.513 19.9882 35.4119 19.7699 35.2117 19.6043C35.0282 19.4224 34.8199 19.3282 34.5815 19.3282C34.1429 19.3282 33.4332 19.541 32.4464 19.9604C30.9857 20.6037 29.8264 21.2166 28.9688 21.8043C27.6369 22.7399 25.8282 24.4429 23.5477 26.9185C24.6417 24.6086 25.3071 23.2145 25.5455 22.7399C27.3708 21.6026 29.4235 20.0435 31.7065 18.0643C35.7761 14.5093 38.6622 11.4761 40.3582 8.96454C41.9838 6.52699 42.7976 4.52913 42.7976 2.96995C42.7976 2.38437 42.5944 1.88794 42.1946 1.48472C41.8847 1.15596 41.5286 0.990826 41.1257 0.990826C40.2324 0.990826 39.0349 1.55918 37.5385 2.6964C35.8777 3.94102 34.0056 5.92317 31.9258 8.63326C28.0755 13.6011 24.4606 19.7233 21.0841 26.9985C19.1658 31.1604 18.2066 33.6086 18.2066 34.3405C18.2066 34.5974 18.3082 34.8537 18.5079 35.11C18.7111 35.3506 18.9465 35.4691 19.2206 35.4691C19.7497 35.4691 20.3332 34.9449 20.9745 33.9019C23.3837 30.051 25.1814 27.6332 26.3679 26.6424C25.9293 28.4756 25.7105 29.8605 25.7105 30.7936C25.7105 31.9116 25.9293 32.9769 26.3679 33.9844C26.9519 35.3587 27.9462 36.0461 29.3526 36.0461C31.2106 36.0461 33.1178 35.0305 35.0694 32.9987C35.1132 33.4019 35.2444 33.7499 35.4612 34.0396C35.8254 34.4976 36.3188 34.7265 36.938 34.7265C38.218 34.7265 39.816 33.8107 41.7313 31.9779C42.699 31.0418 43.9952 29.6123 45.6203 27.6884C45.053 28.8976 44.3951 30.2526 43.6472 31.7571C42.9727 33.1506 42.4712 34.2686 42.1427 35.11C41.6136 35.4418 40.8818 35.8719 39.9503 36.4022C37.6507 37.7238 35.9159 38.8225 34.7485 39.7035C34.5131 39.8797 34.2853 40.0535 34.0634 40.2303C32.7617 40.0651 31.4681 39.9598 30.1966 39.9268C26.7542 39.8331 23.4848 40.2632 20.5771 40.9921C17.6478 41.6542 15.0741 42.6288 12.8489 43.5675C10.6454 44.5553 8.77077 45.5127 7.2885 46.4128C5.77857 47.277 4.70119 48.0606 3.9256 48.5545C3.17214 49.0874 2.77228 49.3691 2.77228 49.3691L2.91714 49.6421C2.91714 49.6421 3.37233 49.4653 4.23242 49.1285C5.07692 48.7946 6.30468 48.2015 7.90213 47.6493C9.46438 47.0202 11.3963 46.3439 13.6109 45.5876C14.7346 45.2837 15.9075 44.8729 17.1654 44.5466C18.434 44.2488 19.7497 43.8709 21.147 43.6283C23.929 43.0204 26.9846 42.7555 30.2293 42.5346C30.687 42.4991 31.1502 42.4713 31.616 42.452C29.7057 44.4889 28.752 46.4959 28.752 48.4715C28.752 49.4815 29.0181 50.3153 29.5472 50.9754C30.2212 51.8365 31.1175 52.2666 32.2301 52.2666C34.9512 52.2666 37.5878 50.023 40.1419 45.5319C40.572 44.765 41.0106 43.9368 41.4547 43.0452C44.7351 43.5837 48.0512 44.5497 51.2793 45.8829C54.8147 47.318 58.2073 49.2034 61.9399 50.641C65.6151 52.1065 69.4956 53.1748 73.4284 53.6799C77.3556 54.1545 81.3432 54.1272 85.0974 53.4236C88.8632 52.7281 92.3353 51.3978 95.41 49.8295C98.4962 48.2759 101.182 46.465 103.599 44.7569C106.008 43.0315 108.118 41.3563 109.957 39.8438C111.404 38.6569 116.055 35.7564 117.348 34.8977C117.356 34.8927 117.362 34.8871 117.37 34.881C118.48 34.0366 119.541 33.0706 119.76 31.7459C119.922 30.744 119.546 29.9127 119.039 29.1787L120.681 29.6837C120.695 29.6898 120.703 29.6898 120.711 29.6924L120.804 29.7116C121.306 29.8251 121.823 29.9406 122.426 29.7668C122.44 29.7643 122.46 29.7587 122.479 29.7501L122.766 29.629C122.788 29.6174 122.813 29.6042 122.832 29.5961L123.106 29.4193C123.12 29.4077 123.139 29.4001 123.153 29.3859L123.386 29.1904L125.062 27.653C125.071 27.6443 125.082 27.6357 125.09 27.6251L126.647 25.9139C126.66 25.9003 126.666 25.8891 126.674 25.8755C127.033 25.3866 127.143 24.7048 126.976 24.0093C126.976 24.0012 126.973 23.99 126.973 23.9819C126.853 23.5985 126.639 23.2257 126.346 22.908L123.44 19.7532L121.429 17.3607L123.994 18.6469C124.244 18.7791 124.556 18.9503 124.912 19.1544C126.359 19.9827 128.335 21.1057 129.965 20.9902C132.322 20.8271 134.227 19.2071 135.904 17.7746C136.31 17.4296 136.693 17.1039 137.08 16.7949L137.398 16.5933C137.727 16.4221 138.242 16.262 138.344 16.458C138.527 16.7893 138.196 17.4296 137.493 18.1251C137.22 18.3956 136.927 18.6717 136.617 18.9584C134.594 20.8489 132.079 23.1983 132.972 26.2863C132.978 26.2949 132.978 26.3055 132.98 26.3141L135.709 33.5564L135.822 33.9348L135.277 33.3715L133.413 31.3402L129.999 27.5147C129.653 27.1312 129.253 26.9296 128.809 26.9073C127.823 26.8551 126.874 27.7188 126.181 28.3485C126.027 28.4832 125.89 28.6159 125.759 28.7238C125.592 28.8672 125.419 29.0105 125.252 29.1519C124.849 29.4963 124.435 29.8524 124.021 30.1837C124.011 30.1918 123.997 30.203 123.989 30.2111C123.695 30.4958 123.394 30.865 123.353 31.442C123.295 32.2176 123.501 33.0073 123.7 33.7661C123.775 34.067 123.849 34.3512 123.904 34.6217C123.92 34.6906 123.934 34.7513 123.948 34.8121C123.974 34.9337 124.002 35.0497 123.983 35.0938C123.92 35.2564 123.742 35.6844 124.134 35.8643C124.276 35.9326 124.547 35.9742 124.764 35.5466C124.904 35.2736 124.904 35.033 124.89 34.7706V34.7321L124.849 34.4591C124.797 34.1222 124.723 33.7914 124.649 33.4682C124.49 32.7535 124.331 32.0828 124.454 31.401C124.583 30.9815 125.446 30.3793 125.964 30.0155C126.178 29.8666 126.359 29.7339 126.502 29.6235L127.25 29.0247C127.617 28.7375 128 28.4366 128.083 28.3677L128.236 28.2735L128.316 28.2325L128.549 28.1387C128.617 28.1215 128.678 28.1165 128.719 28.1215L128.826 28.1494L128.93 28.2102L129.072 28.3535L132.424 32.2262L134.274 34.3041L135.655 35.7731C135.91 36.0486 136.406 36.2837 136.831 36.1646C137.121 36.0816 137.326 35.8526 137.398 35.5411L137.439 35.3785C137.453 35.3339 137.458 35.2929 137.453 35.2513L137.415 34.412C137.412 34.3846 137.406 34.3512 137.401 34.3182L137.071 33.1283C137.066 33.1228 137.066 33.1177 137.066 33.1152C137.061 33.1035 137.058 33.0898 137.052 33.0762L135.65 29.3251L134.422 25.8562L134.328 25.4089L134.307 24.9809L134.353 24.5503C134.455 24.0701 134.616 23.6507 134.827 23.3194L135.43 22.4415L136.998 20.7856L138.604 19.2816C138.615 19.276 138.618 19.2674 138.628 19.2623L139.048 18.8095C139.061 18.7958 139.07 18.7877 139.078 18.7735L139.409 18.3262C139.417 18.3131 139.429 18.3019 139.437 18.2827L139.683 17.8491C139.691 17.8404 139.697 17.8298 139.697 17.8212C140.023 17.1535 140.087 16.4717 139.884 15.9084Z" fill="#3C83DC"/>
<path d="M5.26771 24.3696C6.23544 24.3696 6.71881 24.7668 6.71881 25.5601C6.71881 26.1546 6.27099 26.6056 5.37534 26.9125C3.83389 27.4712 3.06415 28.4718 3.06415 29.914C3.06415 31.0686 3.51148 31.9695 4.40811 32.6189C5.17834 33.16 6.15496 33.4306 7.33746 33.4306C9.70297 33.4306 11.7727 32.737 13.5472 31.3476C14.6576 30.4646 15.2131 29.3464 15.2131 27.9944C15.2131 27.1652 15.0517 26.4162 14.7292 25.7495C14.3891 25.0643 13.8691 24.1987 13.1705 23.1527C12.0951 21.5296 11.1901 20.0511 10.4554 18.7166C9.63088 17.2386 9.21911 15.7864 9.21911 14.3622C9.21911 10.9906 10.8766 7.83467 14.1921 4.89555C15.9473 3.36369 17.8828 2.11938 19.9969 1.16309C21.7532 0.388195 23.4467 0 25.0775 0C26.1346 0 27.0303 0.27956 27.7654 0.838681C28.6611 1.50594 29.1089 2.41638 29.1089 3.57C29.1089 5.37344 28.1417 7.32139 26.2062 9.41236C24.3789 11.3783 22.2464 12.9829 19.8093 14.2272C18.5903 14.8401 17.668 15.1466 17.0409 15.1466C16.6282 15.1466 16.2613 14.9757 15.9389 14.6328C15.7236 14.3986 15.616 14.137 15.616 13.8485C15.616 13.1812 16.2075 12.64 17.39 12.2254C19.5575 11.4505 21.4762 10.3592 23.1426 8.95291C25.2928 7.14997 26.3677 5.57177 26.3677 4.21932C26.3677 3.69658 26.1524 3.273 25.7224 2.94809C25.3817 2.69594 24.9788 2.56986 24.5132 2.56986C23.2769 2.56986 21.7265 3.04726 19.8631 4.00305C17.354 5.28374 15.3834 6.9337 13.9491 8.95291C12.695 10.702 12.0685 12.4058 12.0685 14.0647C12.0685 15.2732 12.3998 16.517 13.0629 17.7977C13.6183 18.8252 14.3259 19.9883 15.1864 21.2865C16.01 22.5308 16.7091 23.6844 17.2829 24.7483C17.9455 26.0106 18.2773 27.1921 18.2773 28.2919C18.2773 30.4193 17.0676 32.3034 14.6488 33.9444C12.5879 35.3148 10.2579 36 7.65988 36C5.09737 36 3.09081 35.2884 1.63922 33.8632C0.54657 32.7813 0 31.537 0 30.1307C0 28.5625 0.519414 27.2459 1.55874 26.182C2.18579 25.5327 2.92936 25.0458 3.78945 24.7214C4.38144 24.4872 4.8737 24.3696 5.26771 24.3696Z" fill="#3C83DC"/>
<path d="M92.1634 25.9569C91.5837 26.6097 91.2956 27.0089 91.2956 27.1533C91.2956 27.3528 91.5213 27.6341 91.9726 27.9977C91.9916 28.0167 91.8638 28.3146 91.5917 28.8967C91.3201 29.4759 90.9686 30.0385 90.5338 30.582C89.5352 31.8908 88.6021 32.5436 87.7344 32.5436C87.3699 32.5436 87.0708 32.3802 86.8367 32.0522C86.6734 31.8171 86.5921 31.5438 86.5921 31.2354C86.5921 30.0766 87.0354 28.6149 87.9251 26.8554C88.684 25.312 89.7909 23.8147 91.2382 22.3641C92.3616 21.2384 93.2133 20.6758 93.7955 20.6758C94.103 20.6758 94.3287 20.8122 94.4725 21.0855C94.5653 21.2304 94.6083 21.3753 94.6083 21.5197C94.6083 22.6454 93.7955 24.1236 92.1634 25.9569ZM94.799 17.7113C93.8384 17.7113 92.77 18.1185 91.5917 18.9353C89.5817 20.3313 87.8322 22.2929 86.3474 24.8146C86.2056 25.0553 86.0723 25.293 85.9445 25.5306C85.7293 25.7081 85.5012 25.9759 85.262 26.3364C82.9409 29.8204 81.2928 31.5628 80.3163 31.5628C79.8425 31.5628 79.6088 31.3171 79.6088 30.8277C79.6088 30.3203 79.9518 29.3586 80.6428 27.943C81.4207 26.3094 82.5605 24.4952 84.0648 22.5005C84.8456 21.465 85.2345 20.7029 85.2345 20.214C85.2345 19.8344 85.0713 19.4979 84.7453 19.2086C84.4542 18.9544 84.1571 18.826 83.8471 18.826C83.1042 18.826 81.8725 19.4242 80.153 20.6236C78.812 21.5663 77.4705 22.7357 76.1299 24.1347C76.6002 22.7191 77.8789 20.0691 79.9628 16.187C81.8989 12.5586 83.8471 9.22815 85.8062 6.198C86.3854 5.34607 86.6764 4.66563 86.6764 4.15718C86.6764 3.82975 86.5836 3.53992 86.4043 3.2857C86.1677 2.94172 85.8876 2.76923 85.5606 2.76923C85.2156 2.76923 84.8891 2.93319 84.5815 3.25862C84.274 3.58656 83.8471 4.21986 83.3059 5.16255C81.0207 9.06418 78.9478 12.8289 77.0815 16.4573C75.2158 20.05 73.2022 24.443 71.0479 29.6318C69.8891 32.4238 69.3069 34.1206 69.3069 34.7213C69.3069 35.0824 69.4158 35.3908 69.6335 35.645C69.8511 35.8822 70.1312 36 70.4767 36C70.9665 36 71.3285 35.645 71.5621 34.9375C74.1189 28.7328 77.2448 24.6943 80.9394 22.8259C79.5818 25.1315 78.7656 26.528 78.4935 27.0169C77.3536 29.0878 76.7825 30.9295 76.7825 32.5436C76.7825 33.0521 76.8913 33.5139 77.109 33.9321C77.4515 34.6015 78.0147 34.9375 78.793 34.9375C79.5354 34.9375 80.3707 34.6206 81.2928 33.9863C82.226 33.3224 83.1316 32.4539 84.0078 31.3718C83.9724 31.7133 83.9564 32.0492 83.9564 32.3802C83.9564 33.0686 84.0812 33.6588 84.3369 34.1472C84.8237 35.1285 85.5965 35.6174 86.6465 35.6174C88.9096 35.6174 91.2577 33.6147 93.6866 29.6043C95.9149 25.9022 97.0297 22.845 97.0297 20.4326C97.0297 18.6184 96.2843 17.7113 94.799 17.7113Z" fill="#3C83DC"/>
</svg>
