<svg id="Слой_1" data-name="Слой 1" xmlns="http://www.w3.org/2000/svg" viewBox="0 0 717 148.15"><defs><style>.cls-1{fill:#a7333e;}.cls-2{fill:#b4b4b3;}</style></defs><title>softline</title><g id="Layer_1"><path class="cls-1" d="M0,110.24l37.23-3.38c1.51,4.39,3.67,7.56,6.41,9.43s6.48,2.81,11.09,2.81q7.56,0,11.66-3.24a7.19,7.19,0,0,0,3.24-6c0-2.74-1.44-4.82-4.25-6.26-2-1.08-7.42-2.38-16.13-3.89-13-2.3-22-4.39-27.14-6.34A29.13,29.13,0,0,1,9.29,83.59,25.59,25.59,0,0,1,4.1,67.83a25.87,25.87,0,0,1,5.62-16.7C13.46,46.44,18.65,43,25.2,40.68s15.34-3.46,26.42-3.46c11.66,0,20.3.86,25.85,2.66a33.65,33.65,0,0,1,13.9,8.28c3.74,3.74,6.77,8.78,9.29,15.12L64.87,67A12.87,12.87,0,0,0,60.34,60a18.31,18.31,0,0,0-10.58-3c-4.18,0-7.27.79-9.14,2.23a6.77,6.77,0,0,0-2.88,5.47,5.9,5.9,0,0,0,3.67,5.47c2.45,1.22,7.78,2.38,16,3.31,12.46,1.44,21.74,3.38,27.79,5.9a30.93,30.93,0,0,1,14,10.8A26.4,26.4,0,0,1,104,105.56,30.35,30.35,0,0,1,98.86,122c-3.38,5.33-8.78,9.58-16.13,12.74s-17.35,4.75-30,4.75c-17.86,0-30.53-2.52-38.16-7.63A34.67,34.67,0,0,1,0,110.16H0Z"/><path class="cls-1" d="M150.77,69a17.12,17.12,0,0,1,13.61-6.41,16.39,16.39,0,0,1,13,6.26c3.53,4.18,5.26,10.58,5.26,19.15,0,9.22-1.73,15.91-5.26,20.09a16.54,16.54,0,0,1-13.32,6.26A16.74,16.74,0,0,1,150.7,108c-3.53-4.25-5.33-10.73-5.33-19.58s1.8-15.19,5.33-19.44h.07Zm-25.06,58.68q14.58,12,38.16,12,26.46,0,41.4-14.4c10-9.65,15-22,15-37.08q0-20.09-12.1-33.84-15-17.06-44.43-17.06-25.7,0-40.83,14.54T107.79,88.71q0,24.08,17.86,39Z"/><path class="cls-1" d="M270.8,39.46h17.86V67H270.8v70.35H233.22V67H219V39.46h14.18V35.07a75.3,75.3,0,0,1,1.3-13.18,26.4,26.4,0,0,1,4.82-11.74,25,25,0,0,1,10-7.34Q255.61,0,267.7,0h.79c6.55,0,16.06.79,28.37,2.3l-4.25,22.61a72.78,72.78,0,0,0-10.87-1.08q-5.08,0-7.34,1.73a9.53,9.53,0,0,0-3.17,5.4,52,52,0,0,0-.43,8.57h0Z"/><path class="cls-1" d="M338.2,67v34.78c0,4.18.36,6.91,1.15,8.28,1.22,2.09,3.38,3.17,6.41,3.17,2.74,0,6.62-.79,11.59-2.38l2.74,25.78a122.79,122.79,0,0,1-26,3c-9.36,0-16.2-1.22-20.66-3.6a21.79,21.79,0,0,1-9.79-10.94c-2.09-4.9-3.17-12.74-3.17-23.69V67H286.71V39.46h13.75v-18l37.59-19.3V67Z"/><polygon class="cls-2" points="368.65 2.23 406.24 2.23 406.24 137.45 368.65 137.45 368.65 2.23"/><polygon class="cls-2" points="422.08 137.45 459.66 137.45 459.66 39.46 422.08 39.46 422.08 137.45"/><polygon class="cls-2" points="422.08 2.23 422.08 27.94 459.66 27.94 459.66 2.23 422.08 2.23"/><path class="cls-2" d="M474,39.46h35.07v16c5.18-6.55,10.51-11.16,15.84-14s11.88-4.18,19.51-4.18c10.37,0,18.5,3.1,24.34,9.29s8.78,15.7,8.78,28.66v62.28H539.95V83.67c0-6.12-1.15-10.51-3.38-13s-5.47-3.82-9.58-3.82A13.75,13.75,0,0,0,515.9,72c-2.81,3.46-4.25,9.65-4.25,18.5V137.6H474V39.46Z"/><path class="cls-2" d="M624.55,80.07c.58-5.9,2-10.3,4.32-13.32a16.91,16.91,0,0,1,14.26-7.2c5.11,0,9.29,1.58,12.46,4.75s5.11,8.42,5.83,15.77H624.55Zm74.74,13.61c0-13-2.09-23.47-6.34-31.54a42.93,42.93,0,0,0-18.5-18.5c-8.14-4.25-19.15-6.41-33.12-6.41q-25.81,0-40.54,14.18T586.1,88.56c0,10.73,2.45,20.16,7.27,28.08s11,13.75,18.43,17.42,17.57,5.47,30.53,5.47c14.9,0,26.28-2.16,34.27-6.41S691.37,121.83,697,112l-36.87-3.38a24.14,24.14,0,0,1-6.48,6.19,20.7,20.7,0,0,1-10.37,2.74,17.51,17.51,0,0,1-14-6.34c-2.52-3-4.18-7.42-4.82-13.39h74.88v-4.1Z"/><path class="cls-2" d="M172.45,15.41c42.84,4.61,60,8.28,99.94,19,33.34,9,86.33,5.11,86.33,5.11V67.11C338,70,292.91,69,255.46,55.3c-67-24.41-97.42-29.38-133.28-32C73.59,19.87,15.7,27.22,15.7,27.22l-.58-4.9S98.93,7.49,172.45,15.41Z"/><path class="cls-2" d="M700.73,5A16.78,16.78,0,0,1,717.5,20.59V23A16.84,16.84,0,1,1,700.73,5Zm0,29.81a13,13,0,1,0-13-13A13,13,0,0,0,700.73,34.78Zm1.15-21.46c3.82,0,5.76,2,5.76,4.68a3.94,3.94,0,0,1-3.31,4V22a3.54,3.54,0,0,1,1.8,1.8l2.81,6.7H704.4l-2.23-5.47a2.3,2.3,0,0,0-2.23-1.37h-1.3v6.84h-4.18V13.39H702Zm-3.31,7.13h1.87c2.66,0,3-1.37,3-2.09,0-1.87-2.52-1.8-3-1.8h-1.87Z"/></g></svg>