<svg width="261" height="82" viewBox="0 0 261 82" fill="none" xmlns="http://www.w3.org/2000/svg">
<path fill-rule="evenodd" clip-rule="evenodd" d="M32.8 0V12.7H23.1V64.5H9.39999V12.7H0.299988V0H32.8Z" fill="black"/>
<path fill-rule="evenodd" clip-rule="evenodd" d="M65.3 0V12.7H56.2V64.5H42.5V12.7H32.8V0H65.3Z" fill="#E21613"/>
<path fill-rule="evenodd" clip-rule="evenodd" d="M82.1 33.3V39.5H77.2V64.4H70.3V39.5H65.4V33.3H82.1Z" fill="black"/>
<path fill-rule="evenodd" clip-rule="evenodd" d="M100.1 33.3V39.3H90V45.6H96V51.7H90V58.3H100.1V64.4H83.1V33.3H100.1Z" fill="black"/>
<path fill-rule="evenodd" clip-rule="evenodd" d="M108.1 39.4H111.6V50.6H108.1V39.4ZM101.3 33.3V64.4H108.2V56.7H111.7V64.4H118.6V33.3H101.3Z" fill="black"/>
<path fill-rule="evenodd" clip-rule="evenodd" d="M136.1 33.3V39.5H131.2V64.4H124.3V39.5H119.4V33.3H136.1Z" fill="black"/>
<path fill-rule="evenodd" clip-rule="evenodd" d="M144 48.7H147.5V39.3H144V48.7ZM154.4 33.3V54.8H144V64.4H137.1V33.3H154.4Z" fill="black"/>
<path d="M168.6 46.8H159.2V51.8H168.6V46.8Z" fill="black"/>
<path fill-rule="evenodd" clip-rule="evenodd" d="M185.7 33.3V39.5H180.8V64.4H173.9V39.5H169V33.3H185.7Z" fill="black"/>
<path fill-rule="evenodd" clip-rule="evenodd" d="M203.7 33.3V39.3H193.6V45.6H199.6V51.7H193.6V58.3H203.7V64.4H186.7V33.3H203.7Z" fill="black"/>
<path fill-rule="evenodd" clip-rule="evenodd" d="M211.9 39.4H215.4V50.6H211.9V39.4ZM205.1 33.3V64.4H212V56.7H215.5V64.4H222.4V33.3H205.1Z" fill="black"/>
<path fill-rule="evenodd" clip-rule="evenodd" d="M239.9 33.3V39.5H235V64.4H228.1V39.5H223.2V33.3H239.9Z" fill="black"/>
<path fill-rule="evenodd" clip-rule="evenodd" d="M247.6 48.7H251.1V39.3H247.6V48.7ZM258 33.3V54.8H247.6V64.4H240.7V33.3H258Z" fill="black"/>
<path fill-rule="evenodd" clip-rule="evenodd" d="M69 21.5V29.5H67.6V22.7H66.8V29.5H65.4V21.5H69Z" fill="black"/>
<path fill-rule="evenodd" clip-rule="evenodd" d="M78.2 21.5V22.8H76.1V24.9H77.4V26.1H76.1V28.2H78.2V29.6H74.7V21.5H78.2Z" fill="black"/>
<path fill-rule="evenodd" clip-rule="evenodd" d="M84.7 25.8H85.4V22.7H84.7V25.8ZM86.8 21.5V27H84.6V29.5H83.2V21.5H86.8Z" fill="black"/>
<path fill-rule="evenodd" clip-rule="evenodd" d="M94 21.5L94.7 23.3L95.5 21.5H96.9V29.6H95.5V24.5L94.7 26L94 24.5V29.6H92.5V21.5H94Z" fill="black"/>
<path fill-rule="evenodd" clip-rule="evenodd" d="M106 21.5V23.9H104.6V22.8H103.9V28.3H104.6V27.2H106V29.6H102.4V21.5H106Z" fill="black"/>
<path fill-rule="evenodd" clip-rule="evenodd" d="M112.2 29.6H110.8V21.5H112.2V24.9H112.5L112.9 21.5H114.4L113.7 25.4L114.6 29.6H113.1L112.5 26.1H112.2V29.6Z" fill="black"/>
<path fill-rule="evenodd" clip-rule="evenodd" d="M123.2 21.5V29.6H121.8V25.6L120.9 29.6H119.5V21.5H120.9V25.4L121.8 21.5H123.2Z" fill="black"/>
<path fill-rule="evenodd" clip-rule="evenodd" d="M132.5 22.5H128.7V21.6H132.5V22.5ZM132.5 22.8V29.5H131.1V26.2L130.2 29.5H128.8V22.8H130.2V26.1L131.1 22.8H132.5Z" fill="black"/>
<path fill-rule="evenodd" clip-rule="evenodd" d="M230.4 21.5V23.9H228.9V22.8H228.2V28.3H228.9V27.2H230.4V29.6H226.8V21.5H230.4Z" fill="black"/>
<path fill-rule="evenodd" clip-rule="evenodd" d="M237.2 29.6H235.8V21.5H237.2V24.9H237.5L238 21.5H239.5L238.7 25.4L239.7 29.6H238.1L237.6 26.1H237.2V29.6Z" fill="black"/>
<path fill-rule="evenodd" clip-rule="evenodd" d="M248.7 21.5V29.6H247.3V25.6L246.4 29.6H245V21.5H246.4V25.4L247.3 21.5H248.7Z" fill="black"/>
<path fill-rule="evenodd" clip-rule="evenodd" d="M257.9 22.5H254.1V21.6H257.9V22.5ZM257.9 22.8V29.5H256.5V26.2L255.6 29.5H254.2V22.8H255.6V26.1L256.5 22.8H257.9Z" fill="black"/>
<path fill-rule="evenodd" clip-rule="evenodd" d="M146 26.2H145.3V22.8H146V26.2ZM143.8 21.5V29.5H145.2V27.3H145.9V29.5H147.3V21.5H143.8Z" fill="black"/>
<path fill-rule="evenodd" clip-rule="evenodd" d="M154.5 29.6H153.1V21.5H154.5V24.9H154.8L155.3 21.5H156.8L156 25.4L157 29.6H155.4L154.9 26.1H154.5V29.6Z" fill="black"/>
<path fill-rule="evenodd" clip-rule="evenodd" d="M164.4 26.2H163.7V22.8H164.4V26.2ZM162.2 21.5V29.5H163.6V27.3H164.3V29.5H165.7V21.5H162.2Z" fill="black"/>
<path fill-rule="evenodd" clip-rule="evenodd" d="M173.8 28.2H172.9L173.4 22.8H173.8V28.2ZM175.3 28.2V21.6H172.8H171.6V22.9H172.1L171.6 28.2H171.1V29.6H176V28.2H175.3V28.2Z" fill="black"/>
<path fill-rule="evenodd" clip-rule="evenodd" d="M184.5 21.5V22.8H182.4V24.9H183.7V26.1H182.4V28.2H184.5V29.6H181V21.5H184.5Z" fill="black"/>
<path fill-rule="evenodd" clip-rule="evenodd" d="M190.9 21.5L191.6 23.3L192.4 21.5H193.8V29.6H192.4V24.5L191.6 26L190.9 24.5V29.6H189.5V21.5H190.9Z" fill="black"/>
<path fill-rule="evenodd" clip-rule="evenodd" d="M203.1 21.5V29.6H201.6V25.6L200.7 29.6H199.3V21.5H200.7V25.4L201.6 21.5H203.1Z" fill="black"/>
<path fill-rule="evenodd" clip-rule="evenodd" d="M209.6 21.5V25.5H210.3V21.5H211.8V29.6H210.3V26.8H208.2V21.5H209.6Z" fill="black"/>
<path fill-rule="evenodd" clip-rule="evenodd" d="M221.1 21.5V22.8H219V24.9H220.3V26.1H219V28.2H221.1V29.6H217.6V21.5H221.1Z" fill="black"/>
<path fill-rule="evenodd" clip-rule="evenodd" d="M14.3 79.4L12.2 76L14.2 72.7H13.2L12.3 74.3C12.2 74.4 12.1 74.6 12.1 74.7C12.1 74.8 12 74.9 12 75C11.9 75.1 11.9 75.2 11.8 75.4C11.7 75.2 11.6 75 11.5 74.9C11.4 74.7 11.3 74.5 11.2 74.3L10.3 72.7H9.29998L11.3 76L9.19998 79.4H10.2L11 77.9C11.1 77.7 11.2 77.5 11.3 77.4C11.4 77.2 11.5 77.1 11.5 77C11.6 76.9 11.6 76.7 11.7 76.6C11.8 76.7 11.8 76.9 11.9 77C12 77.1 12.1 77.3 12.1 77.4C12.2 77.6 12.3 77.7 12.4 77.9L13.3 79.4H14.3V79.4ZM14.6 72.7L16.8 77.2C16.8 77.3 16.9 77.3 16.9 77.4C16.9 77.5 16.9 77.5 16.9 77.6C16.8 77.7 16.8 77.9 16.7 78C16.6 78.1 16.5 78.3 16.4 78.4C16.3 78.5 16.2 78.6 16 78.7C15.9 78.8 15.7 78.8 15.5 78.8C15.4 78.8 15.4 78.8 15.3 78.8C15.2 78.8 15.2 78.8 15.2 78.8L15.1 79.5C15.2 79.5 15.2 79.5 15.3 79.5C15.4 79.5 15.5 79.5 15.6 79.5C15.9 79.5 16.2 79.4 16.4 79.3C16.7 79.2 16.9 79 17.1 78.7C17.2 78.5 17.3 78.4 17.4 78.2C17.5 78 17.6 77.8 17.7 77.6C17.8 77.4 17.9 77.1 18 76.9C18.1 76.7 18.2 76.4 18.3 76.2L19.7 72.7H18.8L17.8 75.5C17.7 75.7 17.6 76 17.6 76.2C17.5 76.4 17.5 76.6 17.4 76.8C17.3 76.6 17.2 76.4 17.2 76.2C17.1 76 17 75.8 17 75.6L15.7 72.7H14.6V72.7ZM21.4 72.7V74.4C21.4 74.8 21.4 75.1 21.4 75.5C21.4 75.8 21.3 76.1 21.3 76.4C21.3 76.7 21.2 77 21.1 77.2C21 77.5 20.9 77.7 20.8 78C20.7 78.2 20.6 78.5 20.4 78.7H19.9L20 81H20.7L20.8 79.4H25V81H25.7L25.8 78.7H25.2V72.7H21.4ZM22.2 73.4H24.3V78.7H21.3C21.4 78.5 21.5 78.3 21.6 78.1C21.7 77.9 21.8 77.7 21.9 77.4C22 77 22.1 76.6 22.2 76.1C22.3 75.6 22.3 75.1 22.3 74.6V73.4H22.2ZM29.5 72.6C29 72.6 28.6 72.7 28.3 72.9C27.9 73.1 27.6 73.3 27.3 73.6C27 73.9 26.8 74.3 26.6 74.7C26.4 75.1 26.4 75.6 26.4 76.2C26.4 76.7 26.5 77.2 26.6 77.6C26.7 78 27 78.4 27.2 78.7C27.5 79 27.8 79.2 28.2 79.4C28.6 79.6 29 79.6 29.4 79.6C29.7 79.6 30.1 79.6 30.4 79.5C30.7 79.4 31 79.3 31.3 79.1C31.6 78.9 31.8 78.7 32 78.4C32.2 78.1 32.3 77.8 32.4 77.4C32.5 77 32.6 76.6 32.6 76.1C32.6 75.6 32.5 75.1 32.4 74.7C32.3 74.3 32.1 73.9 31.8 73.6C31.5 73.3 31.2 73.1 30.8 72.9C30.4 72.7 30 72.6 29.5 72.6ZM29.5 73.3C29.8 73.3 30 73.4 30.3 73.5C30.5 73.6 30.7 73.7 30.9 73.9C31.1 74.1 31.2 74.3 31.3 74.5C31.4 74.7 31.5 75 31.6 75.2C31.7 75.5 31.7 75.7 31.7 76C31.7 76.4 31.7 76.7 31.6 77.1C31.5 77.4 31.4 77.7 31.2 78C31 78.3 30.8 78.5 30.5 78.6C30.2 78.7 29.9 78.8 29.6 78.8C29.3 78.8 29.1 78.8 28.9 78.7C28.7 78.6 28.5 78.5 28.3 78.3C28.1 78.1 28 77.9 27.9 77.7C27.8 77.5 27.7 77.2 27.6 77C27.5 76.7 27.5 76.5 27.5 76.2C27.5 75.9 27.5 75.6 27.6 75.3C27.7 75 27.7 74.8 27.9 74.5C28 74.3 28.2 74.1 28.3 73.9C28.5 73.7 28.7 73.6 28.9 73.5C29 73.3 29.2 73.3 29.5 73.3ZM33.1 72.7L35.5 75.8C35.2 75.8 35 75.9 34.8 76C34.6 76.1 34.4 76.2 34.3 76.4C34.2 76.6 34 76.7 33.9 76.9C33.8 77.1 33.7 77.3 33.6 77.6C33.5 77.8 33.5 78 33.4 78.2C33.3 78.4 33.3 78.6 33.2 78.8C33.1 79 33 79.2 32.9 79.4H33.8C33.9 79.2 33.9 79.1 34 78.9C34.1 78.7 34.1 78.5 34.2 78.3C34.3 78.1 34.3 77.9 34.4 77.8C34.5 77.6 34.6 77.4 34.7 77.2C34.8 77 34.9 76.9 35 76.7C35.1 76.6 35.3 76.5 35.5 76.4C35.7 76.3 35.9 76.3 36.2 76.3H36.5V79.4H37.3V76.3H37.6C37.9 76.3 38.1 76.3 38.3 76.4C38.5 76.5 38.6 76.6 38.8 76.7C38.9 76.8 39 77 39.1 77.2C39.2 77.4 39.3 77.6 39.3 77.8C39.4 78 39.4 78.1 39.5 78.3C39.6 78.5 39.6 78.7 39.7 78.9C39.8 79.1 39.8 79.3 39.9 79.4H40.8C40.7 79.2 40.6 79 40.6 78.8C40.5 78.6 40.5 78.4 40.4 78.2C40.3 78 40.3 77.8 40.2 77.6C40.1 77.4 40 77.1 39.9 76.9C39.8 76.7 39.7 76.5 39.5 76.4C39.4 76.3 39.2 76.1 39 76C38.8 75.9 38.6 75.8 38.3 75.8L40.7 72.7H39.7L37.6 75.7H37.3V72.7H36.5V75.7H36.2L34.1 72.7H33.1ZM45.1 75.5H42.5V73.4H45.3V72.7H41.7V79.4H45.5V78.7H42.6V76.3H45.2V75.5H45.1ZM51.1 78.5C51 78.6 50.8 78.6 50.7 78.6C50.5 78.6 50.4 78.7 50.2 78.7C50 78.7 49.9 78.7 49.7 78.7C49.3 78.7 48.9 78.6 48.6 78.5C48.3 78.4 48 78.3 47.8 78C47.6 77.8 47.4 77.5 47.3 77.1C47.2 76.8 47.1 76.4 47.1 76C47.1 75.6 47.2 75.2 47.3 74.8C47.4 74.5 47.6 74.2 47.8 73.9C48 73.7 48.3 73.5 48.6 73.4C48.9 73.3 49.3 73.2 49.7 73.2C50 73.2 50.2 73.2 50.5 73.3C50.7 73.4 50.9 73.4 51.1 73.5L51.3 72.8C51.2 72.8 51.1 72.7 51 72.7C50.9 72.7 50.7 72.6 50.5 72.6C50.3 72.6 50 72.6 49.8 72.5C49.3 72.5 48.8 72.6 48.4 72.8C48 73 47.6 73.2 47.3 73.5C47 73.8 46.8 74.2 46.6 74.6C46.4 75 46.3 75.5 46.3 76C46.3 76.6 46.4 77 46.6 77.5C46.8 77.9 47 78.3 47.3 78.6C47.6 78.9 47.9 79.1 48.4 79.3C48.8 79.4 49.2 79.5 49.7 79.5C50 79.5 50.2 79.5 50.5 79.5C50.7 79.5 50.9 79.4 51.1 79.4C51.3 79.4 51.4 79.3 51.5 79.2L51.1 78.5ZM53.6 79.4H54.5V73.4H56.6V72.7H51.6V73.4H53.6V79.4ZM57.3 79.4C57.4 79.4 57.6 79.4 57.9 79.5C58.1 79.5 58.4 79.5 58.7 79.5C59.2 79.5 59.7 79.5 60.1 79.3C60.5 79.2 60.8 79 61 78.8C61.2 78.6 61.3 78.4 61.4 78.2C61.5 78 61.6 77.7 61.6 77.4C61.6 77.2 61.6 76.9 61.5 76.7C61.4 76.5 61.3 76.3 61.2 76.2C61.1 76.1 60.9 75.9 60.8 75.9C60.6 75.8 60.5 75.8 60.3 75.7C60.5 75.6 60.7 75.5 60.9 75.3C61.1 75.2 61.2 75 61.3 74.8C61.4 74.6 61.4 74.4 61.4 74.2C61.4 73.9 61.3 73.7 61.3 73.5C61.2 73.3 61.1 73.1 60.9 73C60.8 72.9 60.6 72.8 60.4 72.7C60.2 72.6 60 72.6 59.8 72.5C59.6 72.5 59.3 72.4 59 72.4C58.8 72.4 58.6 72.4 58.4 72.4C58.2 72.4 58 72.4 57.9 72.4C57.7 72.4 57.6 72.4 57.5 72.5V79.4H57.3ZM58.2 73.4C58.3 73.4 58.4 73.4 58.5 73.4C58.6 73.4 58.8 73.4 59 73.4C59.3 73.4 59.6 73.4 59.8 73.5C60 73.6 60.2 73.7 60.3 73.9C60.4 74.1 60.5 74.3 60.5 74.5C60.5 74.7 60.4 74.9 60.3 75.1C60.2 75.3 60 75.4 59.8 75.5C59.6 75.6 59.3 75.6 59 75.6H58.2V73.4ZM58.2 76.2H58.9C59.1 76.2 59.4 76.2 59.6 76.3C59.8 76.3 60 76.4 60.2 76.5C60.4 76.6 60.5 76.7 60.6 76.9C60.7 77.1 60.7 77.3 60.7 77.5C60.7 77.7 60.7 77.9 60.6 78.1C60.5 78.3 60.4 78.4 60.2 78.5C60 78.6 59.9 78.7 59.6 78.7C59.4 78.7 59.2 78.8 59 78.8C58.8 78.8 58.7 78.8 58.6 78.8C58.5 78.8 58.4 78.8 58.3 78.8V76.2H58.2ZM66.2 75.5H63.6V73.4H66.4V72.7H62.8V79.4H66.6V78.7H63.7V76.3H66.3V75.5H66.2ZM67.6 72.7V79.4H68.5V76.3H71.7V79.4H72.6V72.7H71.7V75.5H68.5V72.7H67.6ZM74.1 72.7V79.4H75V76.3H78.2V79.4H79.1V72.7H78.2V75.5H75V72.7H74.1ZM80.6 72.7V79.4C80.7 79.4 80.9 79.4 81.2 79.5C81.4 79.5 81.7 79.5 82 79.5C82.3 79.5 82.6 79.5 82.9 79.4C83.2 79.3 83.5 79.3 83.7 79.2C84 79.1 84.2 78.9 84.4 78.7C84.6 78.5 84.7 78.3 84.8 78.1C84.9 77.9 84.9 77.6 84.9 77.3C84.9 76.9 84.8 76.6 84.7 76.3C84.6 76 84.4 75.8 84.1 75.6C83.9 75.4 83.6 75.3 83.3 75.2C83 75.1 82.7 75.1 82.3 75.1C82.2 75.1 82.1 75.1 82 75.1C81.9 75.1 81.8 75.1 81.7 75.1C81.6 75.1 81.5 75.1 81.5 75.1V72.6H80.6V72.7ZM81.5 75.9C81.6 75.9 81.6 75.9 81.8 75.9C81.9 75.9 82.1 75.9 82.2 75.9C82.4 75.9 82.6 75.9 82.9 76C83.1 76.1 83.3 76.1 83.5 76.3C83.7 76.4 83.8 76.6 83.9 76.7C84 76.9 84.1 77.1 84.1 77.4C84.1 77.7 84.1 77.9 84 78.1C83.9 78.3 83.8 78.4 83.6 78.6C83.4 78.7 83.2 78.8 83 78.9C82.8 79 82.6 79 82.3 79C82.2 79 82 79 81.9 79C81.8 79 81.7 79 81.6 79V75.9H81.5ZM85.6 72.7V79.4H86.5V72.7H85.6ZM88 72.7V79.4H89L91.1 76.1C91.3 75.7 91.6 75.3 91.8 75C92 74.6 92.2 74.2 92.4 73.9C92.4 74.2 92.4 74.5 92.3 74.7C92.3 75 92.3 75.3 92.3 75.6C92.3 75.9 92.3 76.2 92.3 76.6V79.5H93.1V72.8H92.2L90 76.1C89.8 76.5 89.5 76.9 89.3 77.2C89.1 77.6 88.9 77.9 88.7 78.3C88.7 78 88.7 77.7 88.7 77.4C88.7 77.1 88.7 76.8 88.7 76.5C88.7 76.2 88.7 75.8 88.7 75.5V72.7H88V72.7ZM89.3 71.3C89.3 71.5 89.4 71.7 89.5 71.9C89.6 72.1 89.7 72.2 89.9 72.3C90.1 72.4 90.3 72.4 90.6 72.4C90.9 72.4 91.1 72.4 91.3 72.3C91.5 72.2 91.6 72.1 91.7 71.9C91.8 71.7 91.9 71.5 91.9 71.3H91.2C91.2 71.4 91.2 71.5 91.1 71.6C91.1 71.7 91 71.8 90.9 71.8C90.8 71.9 90.7 71.9 90.5 71.9C90.3 71.9 90.2 71.9 90.1 71.8C90 71.7 90 71.7 89.9 71.6C89.8 71.5 89.8 71.4 89.8 71.3H89.3ZM96.7 79.4H97.6V76.7C97.7 76.7 97.8 76.7 97.9 76.7C98 76.7 98.1 76.7 98.3 76.7C98.6 76.7 98.9 76.7 99.1 76.6C99.4 76.5 99.6 76.5 99.8 76.4C100 76.3 100.2 76.2 100.3 76C100.5 75.8 100.6 75.6 100.7 75.4C100.8 75.2 100.8 74.9 100.8 74.6C100.8 74.3 100.7 74 100.6 73.8C100.5 73.6 100.4 73.4 100.2 73.2C100 73 99.7 72.9 99.4 72.8C99.1 72.7 98.7 72.7 98.3 72.7C98 72.7 97.6 72.7 97.4 72.7C97.1 72.7 96.9 72.8 96.7 72.8V79.4ZM97.6 73.4C97.7 73.4 97.8 73.4 97.9 73.4C98 73.4 98.2 73.4 98.4 73.4C98.7 73.4 99 73.4 99.2 73.5C99.4 73.6 99.6 73.7 99.8 73.9C99.9 74.1 100 74.3 100 74.6C100 74.9 99.9 75.2 99.8 75.4C99.7 75.6 99.5 75.8 99.2 75.9C98.9 76 98.6 76.1 98.3 76.1C98.2 76.1 98 76.1 97.9 76.1C97.8 76.1 97.7 76.1 97.6 76V73.4V73.4ZM101.3 72.7L103.5 77.2C103.5 77.3 103.6 77.3 103.6 77.4C103.6 77.5 103.6 77.5 103.6 77.6C103.5 77.7 103.5 77.9 103.4 78C103.3 78.1 103.2 78.3 103.1 78.4C103 78.5 102.9 78.6 102.7 78.7C102.6 78.8 102.4 78.8 102.2 78.8C102.1 78.8 102.1 78.8 102 78.8C101.9 78.8 101.9 78.8 101.9 78.8L101.8 79.5C101.9 79.5 101.9 79.5 102 79.5C102.1 79.5 102.2 79.5 102.3 79.5C102.6 79.5 102.9 79.4 103.1 79.3C103.4 79.2 103.6 79 103.8 78.7C103.9 78.5 104 78.4 104.1 78.2C104.2 78 104.3 77.8 104.4 77.6C104.5 77.4 104.6 77.1 104.7 76.9C104.8 76.7 104.9 76.4 105 76.2L106.4 72.7H105.5L104.5 75.5C104.4 75.7 104.3 76 104.3 76.2C104.2 76.4 104.2 76.6 104.1 76.8C104 76.6 103.9 76.4 103.9 76.2C103.8 76 103.7 75.8 103.7 75.6L102.4 72.7H101.3V72.7ZM107.2 72.7V79.4H108.1V76.3H108.4C108.7 76.3 108.9 76.3 109.1 76.4C109.3 76.5 109.5 76.6 109.6 76.7C109.7 76.8 109.9 77 110 77.2C110.1 77.4 110.2 77.6 110.3 77.8C110.4 78 110.4 78.2 110.5 78.3C110.6 78.5 110.6 78.7 110.7 78.8C110.8 79 110.8 79.1 110.9 79.3H111.8C111.7 79.1 111.6 78.9 111.5 78.7C111.4 78.5 111.3 78.3 111.3 78.1C111.2 77.9 111.1 77.7 111.1 77.4C111 77.2 110.9 77 110.8 76.8C110.7 76.6 110.6 76.4 110.4 76.3C110.3 76.1 110.1 76 109.9 75.9C109.7 75.8 109.5 75.7 109.2 75.7L111.7 72.6H110.7L108.4 75.6H108V72.6H107.2V72.7ZM115.3 72.6C114.8 72.6 114.4 72.7 114.1 72.9C113.7 73.1 113.4 73.3 113.1 73.6C112.8 73.9 112.6 74.3 112.4 74.7C112.2 75.1 112.2 75.6 112.2 76.2C112.2 76.7 112.3 77.2 112.4 77.6C112.5 78 112.8 78.4 113 78.7C113.3 79 113.6 79.2 114 79.4C114.4 79.6 114.8 79.6 115.2 79.6C115.5 79.6 115.9 79.6 116.2 79.5C116.5 79.4 116.8 79.3 117.1 79.1C117.4 78.9 117.6 78.7 117.8 78.4C118 78.1 118.1 77.8 118.2 77.4C118.3 77 118.4 76.6 118.4 76.1C118.4 75.6 118.3 75.1 118.2 74.7C118.1 74.3 117.9 73.9 117.6 73.6C117.3 73.3 117 73.1 116.6 72.9C116.2 72.7 115.8 72.6 115.3 72.6ZM115.3 73.3C115.6 73.3 115.8 73.4 116.1 73.5C116.3 73.6 116.5 73.7 116.7 73.9C116.9 74.1 117 74.3 117.1 74.5C117.2 74.7 117.3 75 117.4 75.2C117.5 75.5 117.5 75.7 117.5 76C117.5 76.4 117.5 76.7 117.4 77.1C117.3 77.5 117.2 77.7 117 78C116.8 78.3 116.6 78.5 116.3 78.6C116 78.7 115.7 78.8 115.4 78.8C115.1 78.8 114.9 78.8 114.7 78.7C114.5 78.6 114.3 78.5 114.1 78.3C113.9 78.1 113.8 77.9 113.7 77.7C113.6 77.5 113.5 77.2 113.4 77C113.3 76.7 113.3 76.5 113.3 76.2C113.3 75.9 113.3 75.6 113.4 75.3C113.5 75 113.5 74.8 113.7 74.5C113.8 74.3 114 74.1 114.1 73.9C114.3 73.7 114.5 73.6 114.7 73.5C114.7 73.3 115 73.3 115.3 73.3ZM119.5 79.4C119.6 79.4 119.8 79.4 120.1 79.5C120.3 79.5 120.6 79.5 120.9 79.5C121.4 79.5 121.9 79.5 122.3 79.3C122.7 79.2 123 79 123.2 78.8C123.4 78.6 123.5 78.4 123.6 78.2C123.7 78 123.8 77.7 123.8 77.4C123.8 77.2 123.8 76.9 123.7 76.7C123.6 76.5 123.5 76.3 123.4 76.2C123.3 76.1 123.1 75.9 123 75.9C122.8 75.8 122.7 75.8 122.5 75.7C122.7 75.6 122.9 75.5 123.1 75.3C123.3 75.2 123.4 75 123.5 74.8C123.6 74.6 123.6 74.4 123.6 74.2C123.6 73.9 123.5 73.7 123.5 73.5C123.4 73.3 123.3 73.1 123.1 73C123 72.9 122.8 72.8 122.6 72.7C122.4 72.6 122.2 72.6 122 72.5C121.8 72.5 121.5 72.4 121.2 72.4C121 72.4 120.8 72.4 120.6 72.4C120.4 72.4 120.2 72.4 120.1 72.4C119.9 72.4 119.8 72.4 119.7 72.5V79.4H119.5ZM120.3 73.4C120.4 73.4 120.5 73.4 120.6 73.4C120.7 73.4 120.9 73.4 121.1 73.4C121.4 73.4 121.7 73.4 121.9 73.5C122.1 73.6 122.3 73.7 122.4 73.9C122.5 74.1 122.6 74.3 122.6 74.5C122.6 74.7 122.5 74.9 122.4 75.1C122.3 75.3 122.1 75.4 121.9 75.5C121.7 75.6 121.4 75.6 121.1 75.6H120.3V73.4ZM120.3 76.2H121C121.2 76.2 121.5 76.2 121.7 76.3C121.9 76.3 122.1 76.4 122.3 76.5C122.5 76.6 122.6 76.7 122.7 76.9C122.8 77.1 122.8 77.3 122.8 77.5C122.8 77.7 122.8 77.9 122.7 78.1C122.6 78.3 122.5 78.4 122.3 78.5C122.1 78.6 122 78.7 121.7 78.7C121.5 78.7 121.3 78.8 121.1 78.8C120.9 78.8 120.8 78.8 120.7 78.8C120.6 78.8 120.5 78.8 120.4 78.8V76.2H120.3ZM127.6 72.6C127.1 72.6 126.7 72.7 126.4 72.9C126 73.1 125.7 73.3 125.4 73.6C125.1 73.9 124.9 74.3 124.7 74.7C124.5 75.1 124.5 75.6 124.5 76.2C124.5 76.7 124.6 77.2 124.7 77.6C124.8 78 125.1 78.4 125.3 78.7C125.6 79 125.9 79.2 126.3 79.4C126.7 79.6 127.1 79.6 127.5 79.6C127.8 79.6 128.2 79.6 128.5 79.5C128.8 79.4 129.1 79.3 129.4 79.1C129.7 78.9 129.9 78.7 130.1 78.4C130.3 78.1 130.4 77.8 130.5 77.4C130.6 77 130.7 76.6 130.7 76.1C130.7 75.6 130.6 75.1 130.5 74.7C130.4 74.3 130.2 73.9 129.9 73.6C129.6 73.3 129.3 73.1 128.9 72.9C128.5 72.7 128 72.6 127.6 72.6ZM127.5 73.3C127.8 73.3 128 73.4 128.3 73.5C128.5 73.6 128.7 73.7 128.9 73.9C129.1 74.1 129.2 74.3 129.3 74.5C129.4 74.7 129.5 75 129.6 75.2C129.7 75.5 129.7 75.7 129.7 76C129.7 76.4 129.7 76.7 129.6 77.1C129.5 77.4 129.4 77.7 129.2 78C129 78.3 128.8 78.5 128.5 78.6C128.2 78.7 127.9 78.8 127.6 78.8C127.3 78.8 127.1 78.8 126.9 78.7C126.7 78.6 126.5 78.5 126.3 78.3C126.1 78.1 126 77.9 125.9 77.7C125.8 77.5 125.7 77.2 125.6 77C125.5 76.7 125.5 76.5 125.5 76.2C125.5 75.9 125.5 75.6 125.6 75.3C125.7 75 125.7 74.8 125.9 74.5C126 74.3 126.2 74.1 126.3 73.9C126.5 73.7 126.7 73.6 126.9 73.5C127 73.3 127.2 73.3 127.5 73.3ZM132.6 72.7V74.4C132.6 74.8 132.6 75.1 132.6 75.5C132.6 75.8 132.5 76.1 132.5 76.4C132.5 76.7 132.4 77 132.3 77.2C132.2 77.5 132.1 77.7 132 78C131.9 78.2 131.8 78.5 131.6 78.7H131.1L131.2 81H131.9L132 79.4H136.2L136.3 81H137L137.1 78.7H136.5V72.7H132.6ZM133.4 73.4H135.5V78.7H132.5C132.6 78.5 132.7 78.3 132.8 78.1C132.9 77.9 133 77.7 133.1 77.4C133.2 77 133.3 76.6 133.4 76.1C133.5 75.6 133.5 75.1 133.5 74.6V73.4H133.4ZM138 72.7V79.4H138.9L141 76.1C141.2 75.7 141.5 75.3 141.7 75C141.9 74.6 142.1 74.2 142.3 73.9C142.3 74.2 142.3 74.5 142.2 74.7C142.2 75 142.2 75.3 142.2 75.6C142.2 75.9 142.2 76.2 142.2 76.6V79.5H143V72.8H142.1L139.9 76.3C139.7 76.7 139.4 77.1 139.2 77.4C139 77.8 138.8 78.1 138.6 78.5C138.6 78.2 138.6 77.9 138.6 77.6C138.6 77.3 138.6 77 138.6 76.7C138.6 76.4 138.6 76 138.6 75.7V72.9H138V72.7ZM145.8 79.4H146.7V73.4H148.8V72.7H143.8V73.4H145.8V79.4ZM153 75.5H150.4V73.4H153.2V72.7H149.6V79.4H153.4V78.7H150.5V76.3H153.1V75.5H153ZM154.9 72.7V75.5C154.9 75.8 154.9 76 154.9 76.3C154.9 76.6 154.9 76.9 154.8 77.1C154.8 77.4 154.7 77.6 154.6 77.8C154.5 78 154.4 78.2 154.3 78.3C154.2 78.4 154.1 78.5 154 78.5C153.9 78.6 153.7 78.6 153.6 78.6L153.7 79.3C153.8 79.3 154 79.3 154.1 79.3C154.2 79.3 154.3 79.2 154.5 79.2C154.6 79.2 154.7 79.1 154.8 79C155 78.9 155.1 78.7 155.3 78.5C155.4 78.3 155.5 78.1 155.6 77.8C155.7 77.5 155.7 77.3 155.8 77C155.8 76.7 155.9 76.4 155.9 76.1C155.9 75.8 155.9 75.5 155.9 75.2V73.2H158.1V79.2H159V72.5H154.9V72.7ZM160.3 72.7V79.4C160.4 79.4 160.6 79.4 160.9 79.5C161.1 79.5 161.4 79.5 161.7 79.5C162 79.5 162.3 79.5 162.6 79.4C162.9 79.3 163.2 79.3 163.4 79.2C163.7 79.1 163.9 78.9 164.1 78.7C164.3 78.5 164.4 78.3 164.5 78.1C164.6 77.9 164.6 77.6 164.6 77.3C164.6 76.9 164.5 76.6 164.4 76.3C164.3 76 164.1 75.8 163.8 75.7C163.6 75.5 163.3 75.4 163 75.3C162.7 75.2 162.4 75.2 162 75.2C161.9 75.2 161.8 75.2 161.7 75.2C161.6 75.2 161.5 75.2 161.4 75.2C161.3 75.2 161.2 75.2 161.1 75.2V72.7H160.3V72.7ZM161.2 75.9C161.3 75.9 161.4 75.9 161.6 75.9C161.7 75.9 161.8 75.9 162 75.9C162.2 75.9 162.5 75.9 162.7 76C162.9 76.1 163.1 76.1 163.3 76.3C163.5 76.4 163.6 76.6 163.7 76.8C163.8 77 163.8 77.2 163.8 77.5C163.8 77.8 163.8 78 163.7 78.2C163.6 78.4 163.5 78.5 163.3 78.7C163.1 78.8 162.9 78.9 162.7 79C162.5 79.1 162.3 79.1 162 79.1C161.9 79.1 161.7 79.1 161.6 79.1C161.5 79.1 161.4 79.1 161.3 79.1V75.9H161.2ZM167.4 76.6V77.2H176.8V76.6H167.4ZM179.9 72.7V79.4C180 79.4 180.2 79.4 180.5 79.5C180.7 79.5 181 79.5 181.3 79.5C181.6 79.5 181.9 79.5 182.2 79.4C182.5 79.4 182.8 79.3 183 79.2C183.3 79.1 183.5 78.9 183.7 78.8C183.9 78.6 184 78.4 184.1 78.2C184.2 78 184.2 77.7 184.2 77.4C184.2 77.1 184.2 76.9 184.1 76.7C184 76.5 183.9 76.3 183.8 76.2C183.7 76 183.5 75.9 183.4 75.8C183.2 75.7 183.1 75.6 182.9 75.5C182.7 75.4 182.5 75.4 182.3 75.4C182.1 75.4 181.9 75.4 181.7 75.4C181.6 75.4 181.5 75.4 181.4 75.4C181.3 75.4 181.2 75.4 181.1 75.4C181 75.4 180.9 75.4 180.8 75.4V73.6H183.7V72.9H179.9V72.7ZM180.8 75.9C180.9 75.9 181 75.9 181.2 75.9C181.3 75.9 181.4 75.9 181.5 75.9C181.7 75.9 182 75.9 182.2 76C182.4 76.1 182.6 76.1 182.8 76.3C183 76.4 183.1 76.6 183.2 76.7C183.3 76.9 183.3 77.1 183.4 77.4C183.4 77.6 183.4 77.8 183.3 78C183.2 78.2 183.1 78.3 183 78.4C182.9 78.5 182.8 78.6 182.6 78.7C182.4 78.8 182.3 78.8 182.1 78.9C181.9 78.9 181.7 79 181.6 79C181.5 79 181.3 79 181.2 79C181.1 79 181 79 180.9 79V75.9H180.8Z" fill="white"/>
<path fill-rule="evenodd" clip-rule="evenodd" d="M188.1 72.6C187.6 72.6 187.2 72.7 186.9 72.9C186.5 73.1 186.2 73.3 185.9 73.6C185.6 73.9 185.4 74.3 185.2 74.7C185 75.1 185 75.6 185 76.2C185 76.7 185.1 77.2 185.2 77.6C185.3 78 185.6 78.4 185.8 78.7C186.1 79 186.4 79.2 186.8 79.4C187.2 79.6 187.6 79.6 188 79.6C188.3 79.6 188.7 79.6 189 79.5C189.3 79.4 189.6 79.3 189.9 79.1C190.2 78.9 190.4 78.7 190.6 78.4C190.8 78.1 190.9 77.8 191 77.4C191.1 77 191.2 76.6 191.2 76.1C191.2 75.6 191.1 75.1 191 74.7C190.9 74.3 190.7 73.9 190.4 73.6C190.1 73.3 189.8 73.1 189.4 72.9C189 72.7 188.6 72.6 188.1 72.6ZM188.1 73.3C188.4 73.3 188.6 73.4 188.9 73.5C189.1 73.6 189.3 73.7 189.5 73.9C189.7 74.1 189.8 74.3 189.9 74.5C190 74.7 190.1 75 190.2 75.2C190.3 75.5 190.3 75.7 190.3 76C190.3 76.4 190.3 76.7 190.2 77.1C190.1 77.4 190 77.7 189.8 78C189.6 78.3 189.4 78.5 189.1 78.6C188.8 78.7 188.5 78.8 188.2 78.8C187.9 78.8 187.7 78.8 187.5 78.7C187.3 78.6 187.1 78.5 186.9 78.3C186.7 78.1 186.6 77.9 186.5 77.7C186.4 77.5 186.3 77.2 186.2 77C186.1 76.7 186.1 76.5 186.1 76.2C186.1 75.9 186.1 75.6 186.2 75.3C186.3 75 186.3 74.8 186.5 74.5C186.6 74.3 186.8 74.1 186.9 73.9C187.1 73.7 187.3 73.6 187.5 73.5C187.5 73.3 187.8 73.3 188.1 73.3ZM192.3 79.4H193.2V76.7C193.3 76.7 193.4 76.7 193.5 76.7C193.6 76.7 193.7 76.7 193.9 76.7C194.2 76.7 194.5 76.7 194.7 76.6C195 76.5 195.2 76.5 195.4 76.4C195.6 76.3 195.8 76.2 195.9 76C196.1 75.8 196.2 75.6 196.3 75.4C196.4 75.2 196.4 74.9 196.4 74.6C196.4 74.3 196.3 74 196.2 73.8C196.1 73.6 196 73.4 195.8 73.2C195.6 73 195.3 72.9 195 72.8C194.7 72.7 194.3 72.7 193.9 72.7C193.6 72.7 193.2 72.7 193 72.7C192.7 72.7 192.5 72.8 192.3 72.8V79.4V79.4ZM193.1 73.4C193.2 73.4 193.3 73.4 193.4 73.4C193.5 73.4 193.7 73.4 193.9 73.4C194.2 73.4 194.5 73.4 194.7 73.5C194.9 73.6 195.1 73.7 195.3 73.9C195.4 74.1 195.5 74.3 195.5 74.6C195.5 74.9 195.4 75.2 195.3 75.4C195.2 75.6 195 75.8 194.7 75.9C194.4 76 194.1 76.1 193.8 76.1C193.7 76.1 193.5 76.1 193.4 76.1C193.3 76.1 193.2 76.1 193.1 76V73.4ZM197.6 72.7V79.4H198.5L200.6 76.1C200.8 75.7 201.1 75.3 201.3 75C201.5 74.6 201.7 74.2 201.9 73.9C201.9 74.2 201.9 74.5 201.8 74.7C201.8 75 201.8 75.3 201.8 75.6C201.8 75.9 201.8 76.2 201.8 76.6V79.5H202.6V72.8H201.7L199.5 76.3C199.3 76.7 199 77.1 198.8 77.4C198.6 77.8 198.4 78.1 198.2 78.5C198.2 78.2 198.2 77.9 198.2 77.6C198.2 77.3 198.2 77 198.2 76.7C198.2 76.4 198.2 76 198.2 75.7V72.9H197.6V72.7ZM208.6 78.5C208.5 78.6 208.3 78.6 208.2 78.6C208 78.6 207.9 78.7 207.7 78.7C207.5 78.7 207.4 78.7 207.2 78.7C206.8 78.7 206.4 78.6 206.1 78.5C205.8 78.4 205.5 78.2 205.3 78C205.1 77.8 204.9 77.5 204.8 77.1C204.7 76.8 204.6 76.4 204.6 76C204.6 75.6 204.7 75.2 204.8 74.8C204.9 74.5 205.1 74.2 205.3 73.9C205.5 73.7 205.8 73.5 206.1 73.4C206.4 73.3 206.8 73.2 207.2 73.2C207.5 73.2 207.7 73.2 208 73.3C208.2 73.4 208.4 73.4 208.6 73.5L208.8 72.8C208.7 72.8 208.6 72.7 208.5 72.7C208.4 72.7 208.2 72.6 208 72.6C207.8 72.6 207.5 72.6 207.3 72.5C206.8 72.5 206.3 72.6 205.9 72.8C205.5 73 205.1 73.2 204.8 73.5C204.5 73.8 204.3 74.2 204.1 74.6C203.9 75 203.8 75.5 203.8 76C203.8 76.6 203.9 77 204.1 77.5C204.3 77.9 204.5 78.3 204.8 78.6C205.1 78.9 205.4 79.1 205.9 79.3C206.3 79.4 206.7 79.5 207.2 79.5C207.5 79.5 207.7 79.5 208 79.5C208.2 79.5 208.4 79.4 208.6 79.4C208.8 79.4 208.9 79.3 209 79.2L208.6 78.5ZM217.8 79.4H218.6L218.2 72.7H217.1L215.9 75.9C215.8 76.3 215.6 76.7 215.5 77.1C215.4 77.5 215.3 77.8 215.2 78.2C215.1 77.9 215 77.5 214.9 77.1C214.8 76.7 214.7 76.3 214.5 75.9L213.4 72.7H212.3L211.8 79.4H212.6L212.8 76.5C212.8 76.2 212.8 75.8 212.9 75.5C212.9 75.2 212.9 74.8 212.9 74.5C212.9 74.2 212.9 73.9 212.9 73.6C213 74 213.1 74.4 213.2 74.8C213.3 75.2 213.5 75.7 213.6 76.2L214.7 79.4H215.4L216.6 76.1C216.8 75.6 216.9 75.2 217.1 74.8C217.2 74.4 217.4 74 217.5 73.6C217.5 73.8 217.5 74 217.5 74.3C217.5 74.5 217.5 74.8 217.5 75C217.5 75.3 217.5 75.5 217.5 75.8C217.5 76.1 217.5 76.3 217.5 76.5L217.8 79.4ZM220 72.7V79.4H220.9L223 76.1C223.2 75.7 223.5 75.3 223.7 75C223.9 74.6 224.1 74.2 224.3 73.9C224.3 74.2 224.3 74.5 224.2 74.7C224.2 75 224.2 75.3 224.2 75.6C224.2 75.9 224.2 76.2 224.2 76.6V79.5H225V72.8H224.1L221.9 76.3C221.7 76.7 221.4 77.1 221.2 77.4C221 77.8 220.8 78.1 220.6 78.5C220.6 78.2 220.6 77.9 220.6 77.6C220.6 77.3 220.6 77 220.6 76.7C220.6 76.4 220.6 76 220.6 75.7V72.9H220V72.7ZM227 72.7V75.5C227 75.8 227 76 227 76.3C227 76.6 227 76.9 226.9 77.1C226.9 77.4 226.8 77.6 226.7 77.8C226.6 78 226.5 78.2 226.4 78.3C226.3 78.4 226.2 78.5 226.1 78.5C226 78.6 225.8 78.6 225.7 78.6L225.8 79.3C225.9 79.3 226.1 79.3 226.2 79.3C226.3 79.3 226.4 79.2 226.6 79.2C226.7 79.2 226.8 79.1 226.9 79C227.1 78.9 227.2 78.7 227.4 78.5C227.5 78.3 227.6 78.1 227.7 77.8C227.8 77.5 227.8 77.3 227.9 77C227.9 76.7 228 76.4 228 76.1C228 75.8 228 75.5 228 75.2V73.2H230.2V79.2H231.1V72.5H227V72.7ZM232.5 72.7V79.4C232.6 79.4 232.8 79.4 233.1 79.5C233.3 79.5 233.6 79.5 233.9 79.5C234.2 79.5 234.5 79.5 234.8 79.4C235.1 79.3 235.4 79.3 235.6 79.2C235.9 79.1 236.1 78.9 236.3 78.7C236.5 78.5 236.6 78.3 236.7 78.1C236.8 77.9 236.8 77.6 236.8 77.3C236.8 76.9 236.7 76.6 236.6 76.3C236.5 76 236.3 75.8 236 75.7C235.8 75.5 235.5 75.4 235.2 75.3C234.9 75.2 234.6 75.2 234.2 75.2C234.1 75.2 234 75.2 233.9 75.2C233.8 75.2 233.7 75.2 233.6 75.2C233.5 75.2 233.4 75.2 233.3 75.2V72.7H232.5V72.7ZM233.4 75.9C233.5 75.9 233.6 75.9 233.8 75.9C233.9 75.9 234 75.9 234.2 75.9C234.4 75.9 234.7 75.9 234.9 76C235.1 76.1 235.3 76.1 235.5 76.3C235.7 76.4 235.8 76.6 235.9 76.8C236 77 236 77.2 236 77.5C236 77.8 236 78 235.9 78.2C235.8 78.4 235.7 78.5 235.5 78.7C235.3 78.8 235.1 78.9 234.9 79C234.7 79.1 234.5 79.1 234.2 79.1C234.1 79.1 233.9 79.1 233.8 79.1C233.7 79.1 233.6 79.1 233.5 79.1V75.9H233.4ZM237.9 72.7V79.4H238.8V73.4H241.5V72.7H237.9ZM242.2 79.4H243.1V76.7C243.2 76.7 243.3 76.7 243.4 76.7C243.5 76.7 243.6 76.7 243.8 76.7C244.1 76.7 244.4 76.7 244.6 76.6C244.9 76.5 245.1 76.5 245.3 76.4C245.5 76.3 245.7 76.2 245.8 76C246 75.8 246.1 75.6 246.2 75.4C246.3 75.2 246.3 74.9 246.3 74.6C246.3 74.3 246.2 74 246.1 73.8C246 73.6 245.9 73.4 245.7 73.2C245.5 73 245.2 72.9 244.9 72.8C244.6 72.7 244.2 72.7 243.8 72.7C243.5 72.7 243.1 72.7 242.9 72.7C242.7 72.7 242.4 72.8 242.2 72.8V79.4V79.4ZM243.1 73.4C243.2 73.4 243.3 73.4 243.4 73.4C243.5 73.4 243.7 73.4 243.9 73.4C244.2 73.4 244.5 73.4 244.7 73.5C244.9 73.6 245.1 73.7 245.3 73.9C245.4 74.1 245.5 74.3 245.5 74.6C245.5 74.9 245.4 75.2 245.3 75.4C245.2 75.6 245 75.8 244.7 75.9C244.4 76 244.1 76.1 243.8 76.1C243.7 76.1 243.5 76.1 243.4 76.1C243.3 76.1 243.2 76.1 243.1 76V73.4ZM251 77.3L251.7 79.4H252.6L250.3 72.7H249.3L247 79.4H247.9L248.6 77.3H251ZM248.8 76.6L249.5 74.7C249.6 74.5 249.6 74.3 249.7 74.1C249.8 73.9 249.8 73.7 249.9 73.5C249.9 73.7 250 73.9 250.1 74.1C250.2 74.3 250.2 74.5 250.3 74.7L251 76.6H248.8ZM259.5 79.4H260.3L259.9 72.7H258.8L257.6 75.9C257.5 76.3 257.3 76.7 257.2 77.1C257.1 77.5 257 77.8 256.9 78.2C256.8 77.9 256.7 77.5 256.6 77.1C256.5 76.7 256.4 76.3 256.2 75.9L255.1 72.7H254L253.5 79.4H254.3L254.5 76.5C254.5 76.2 254.5 75.8 254.6 75.5C254.6 75.2 254.6 74.8 254.6 74.5C254.6 74.2 254.6 73.9 254.6 73.6C254.7 74 254.8 74.4 254.9 74.8C255 75.2 255.2 75.7 255.3 76.2L256.4 79.4H257.1L258.3 76.1C258.5 75.6 258.6 75.2 258.8 74.8C258.9 74.4 259.1 74 259.2 73.6C259.2 73.8 259.2 74 259.2 74.3C259.2 74.5 259.2 74.8 259.2 75C259.2 75.3 259.2 75.5 259.2 75.8C259.2 76.1 259.2 76.3 259.2 76.5L259.5 79.4Z" fill="white"/>
</svg>
