<?xml version="1.0" standalone="no"?>
<!DOCTYPE svg PUBLIC "-//W3C//DTD SVG 20010904//EN"
 "http://www.w3.org/TR/2001/REC-SVG-20010904/DTD/svg10.dtd">
<svg version="1.0" xmlns="http://www.w3.org/2000/svg"
 width="1069.000000pt" height="123.000000pt" viewBox="0 0 1069.000000 123.000000"
 preserveAspectRatio="xMidYMid meet">
<metadata>
Created by potrace 1.16, written by Peter Selinger 2001-2019
</metadata>
<g transform="translate(0.000000,123.000000) scale(0.100000,-0.100000)"
fill="#000000" stroke="none">
<path d="M2727 1206 c-86 -31 -147 -89 -186 -177 -16 -35 -181 -956 -181
-1008 0 -8 32 -11 117 -9 l117 3 77 459 76 460 32 28 c58 52 139 27 161 -50 6
-20 35 -185 66 -366 61 -365 70 -392 149 -465 71 -65 113 -81 225 -81 113 0
174 23 239 90 69 71 78 102 142 476 32 191 61 355 64 365 9 28 54 59 87 59 42
0 83 -25 96 -57 7 -15 43 -219 82 -453 38 -234 72 -435 75 -448 5 -21 9 -22
120 -22 103 0 115 2 115 18 -1 58 -162 968 -178 1005 -29 65 -85 122 -154 157
-53 26 -72 30 -143 30 -106 0 -162 -20 -229 -81 -84 -76 -95 -113 -160 -504
-33 -197 -63 -350 -72 -363 -9 -13 -31 -30 -50 -38 -29 -12 -39 -12 -68 0 -19
8 -41 25 -49 38 -8 13 -40 173 -71 358 -30 185 -62 355 -71 379 -31 87 -108
165 -195 196 -53 19 -182 19 -233 1z"/>
<path d="M8288 1201 c-88 -35 -161 -99 -201 -177 -8 -16 -90 -252 -181 -522
l-165 -492 122 0 123 0 63 185 64 185 307 0 308 0 16 -42 c9 -24 37 -106 64
-183 l47 -140 123 -3 c67 -1 122 -1 122 1 0 15 -334 986 -350 1018 -31 59
-102 127 -168 157 -76 36 -221 42 -294 13z m227 -252 c27 -27 45 -65 84 -183
28 -82 51 -150 51 -152 0 -2 -103 -4 -229 -4 l-229 0 50 153 c28 83 58 161 67
171 57 67 148 74 206 15z"/>
<path d="M0 1090 l0 -120 235 0 c207 0 235 -2 235 -16 0 -8 -20 -136 -45 -284
-45 -271 -53 -366 -35 -430 16 -57 65 -126 117 -164 82 -59 125 -66 426 -66
l267 0 0 115 0 115 -249 0 c-137 0 -261 4 -274 9 -39 15 -67 51 -67 87 0 18
22 164 50 326 27 161 50 296 50 301 0 4 110 7 245 7 l245 0 0 120 0 120 -600
0 -600 0 0 -120z"/>
<path d="M1710 610 l0 -600 115 0 115 0 0 600 0 600 -115 0 -115 0 0 -600z"/>
<path d="M5030 1196 c-113 -25 -201 -94 -249 -196 -23 -48 -26 -68 -26 -161 0
-99 2 -109 32 -168 l32 -62 -32 -62 c-30 -58 -32 -68 -32 -168 0 -101 2 -109
35 -174 45 -88 113 -146 206 -175 62 -19 91 -20 505 -20 l439 0 0 115 0 115
-422 0 c-404 0 -423 1 -464 20 -71 35 -95 126 -50 195 28 42 64 52 221 64 83
6 173 14 200 17 l50 5 -9 112 c-4 62 -10 113 -11 115 -2 2 -95 -4 -208 -12
-112 -9 -209 -16 -216 -16 -19 0 -51 63 -51 101 0 42 34 98 70 116 19 10 132
13 458 13 l432 0 0 120 0 120 -427 -1 c-298 0 -445 -4 -483 -13z"/>
<path d="M6380 610 l0 -600 115 0 115 0 0 208 0 208 318 23 c174 12 344 29
377 37 115 28 202 106 246 223 31 82 24 224 -14 299 -53 102 -146 170 -262
191 -36 7 -218 11 -477 11 l-418 0 0 -600z m918 326 c35 -32 37 -38 37 -94 0
-51 -4 -65 -25 -87 -14 -15 -33 -31 -43 -36 -12 -7 -539 -54 -654 -59 -2 0 -3
70 -3 155 l0 155 325 0 325 0 38 -34z"/>
<path d="M9490 610 l0 -602 368 4 c353 3 370 4 432 27 235 82 376 269 395 521
22 296 -146 546 -420 626 -50 14 -117 18 -417 21 l-358 5 0 -602z m772 322
c73 -36 123 -86 160 -161 20 -40 23 -61 23 -161 0 -106 -2 -120 -28 -172 -35
-71 -110 -140 -185 -169 -52 -21 -78 -23 -284 -27 l-228 -4 0 367 0 366 238
-3 238 -3 66 -33z"/>
</g>
</svg>
