<?xml version="1.0" standalone="no"?>
<!DOCTYPE svg PUBLIC "-//W3C//DTD SVG 1.1//EN" "http://www.w3.org/Graphics/SVG/1.1/DTD/svg11.dtd" >
<svg>
<metadata>
Created by FontForge 20090622 at Tue Jun  4 10:23:50 2019
 By deploy user
</metadata>
<defs>
<font id="StagSansLCTTBook" horiz-adv-x="834" >
  <font-face 
    font-family="Stag Sans LC TT Book"
    font-weight="400"
    font-stretch="normal"
    units-per-em="2048"
    panose-1="2 11 5 3 4 0 0 2 0 4"
    ascent="1638"
    descent="-410"
    x-height="1071"
    cap-height="1434"
    bbox="-346 -412 2255 2158"
    underline-thickness="102"
    underline-position="-205"
    unicode-range="U+0020-U+2212"
  />
<missing-glyph horiz-adv-x="993" 
 />
    <glyph glyph-name="f_f.liga" unicode="ff" horiz-adv-x="1210" 
d="M41 924v147h129v80q0 150 79 217q80 68 212 68q88 0 149 -21v-133h-84q-69 0 -108 -27q-39 -29 -39 -112v-72h352v92q0 151 79 218t214 67q101 0 152 -23v-131h-89q-71 0 -109 -27q-38 -29 -38 -112v-84h221v-147h-221v-924h-209v924h-352v-924h-209v924h-129z" />
    <glyph glyph-name=".notdef" horiz-adv-x="993" 
 />
    <glyph glyph-name=".null" horiz-adv-x="0" 
 />
    <glyph glyph-name="nonmarkingreturn" horiz-adv-x="682" 
 />
    <glyph glyph-name="space" unicode=" " horiz-adv-x="442" 
 />
    <glyph glyph-name="exclam" unicode="!" horiz-adv-x="543" 
d="M199 369l-39 931v134h223v-134l-39 -931h-145zM270 -10q-52 0 -88.5 37t-36.5 90q0 54 37 91.5t88 37.5q52 0 89.5 -37.5t37.5 -91.5q0 -53 -37.5 -90t-89.5 -37z" />
    <glyph glyph-name="quotedbl" unicode="&#x22;" horiz-adv-x="627" 
d="M104 1018l-38 291v125h198v-125l-35 -291h-125zM397 1018l-34 291v125h198v-125l-37 -291h-127z" />
    <glyph glyph-name="numbersign" unicode="#" horiz-adv-x="1038" 
d="M117 860v168h182l57 406h150l-62 -406h228l57 406h148l-58 -406h156v-168h-180l-33 -235h156v-168h-181l-63 -457h-148l64 457h-223l-64 -457h-149l65 457h-160v168h185l30 235h-157zM422 860l-33 -235h225l33 235h-225z" />
    <glyph glyph-name="dollar" unicode="$" horiz-adv-x="1063" 
d="M64 293h77q118 -130 303 -145v507q-96 30 -161.5 62t-117 78t-75.5 109.5t-24 148.5q0 168 105 269.5t286 119.5v123h137v-121q182 -13 322 -103v-172h-76q-112 101 -246 117v-467q109 -30 178.5 -61.5t122.5 -78.5t76.5 -112t23.5 -157q0 -188 -107.5 -294.5
t-305.5 -123.5v-201h-138v199q-222 10 -380 123v180zM582 614v-462q107 17 163 76t56 157q0 53 -13.5 90t-44 62.5t-67 42t-94.5 34.5zM252 1073q0 -87 48 -133t157 -82v426q-103 -15 -154 -70t-51 -141z" />
    <glyph glyph-name="percent" unicode="%" horiz-adv-x="1581" 
d="M391 832q76 0 118 62t42 181q0 121 -42 182.5t-118 61.5q-73 0 -115 -62t-42 -182q0 -119 42 -181t115 -62zM391 705q-138 0 -234 97t-96 275q0 91 27 163t73.5 116t105 67t124.5 23q141 0 235.5 -95.5t94.5 -273.5q0 -91 -26.5 -163t-72.5 -117t-105 -68.5t-126 -23.5z
M217 -70l979 1563h166l-981 -1563h-164zM1188 115q74 0 117 62.5t43 180.5q0 120 -43 182t-117 62t-116 -62t-42 -182q0 -118 42 -180.5t116 -62.5zM1188 -12q-139 0 -234.5 97t-95.5 275t95 273.5t235 95.5t235 -95.5t95 -273.5t-95.5 -275t-234.5 -97z" />
    <glyph glyph-name="ampersand" unicode="&#x26;" horiz-adv-x="1346" 
d="M1077 0l-129 148q-158 -160 -397 -160q-231 0 -356 114t-125 304q0 146 84 250.5t219 162.5q-88 124 -88 269q0 160 111 259t300 99q186 0 297 -88v-164h-82q-86 82 -213 82q-91 0 -146.5 -52t-55.5 -139q0 -61 29 -114.5t98 -134.5l333 -385q89 197 103 385h180v-54
q-41 -257 -164 -469l213 -245v-68h-211zM586 154q149 0 256 112l-379 441q-82 -49 -127 -114.5t-45 -168.5q0 -116 74 -193t221 -77z" />
    <glyph glyph-name="quotesingle" unicode="'" horiz-adv-x="332" 
d="M104 1018l-38 291v125h198v-125l-35 -291h-125z" />
    <glyph glyph-name="parenleft" unicode="(" horiz-adv-x="643" 
d="M590 1518v-144q-44 -19 -84 -49.5t-83 -84.5t-74.5 -123.5t-51.5 -173.5t-20 -228q0 -159 29 -283.5t78 -200.5t99 -120t107 -70v-141h-47q-68 21 -131.5 59.5t-126 106.5t-108.5 156t-74.5 215.5t-28.5 277.5q0 147 28.5 272.5t74.5 212t108.5 153.5t126 105.5
t131.5 59.5h47z" />
    <glyph glyph-name="parenright" unicode=")" horiz-adv-x="643" 
d="M51 1374v144h51q67 -21 130 -59.5t125.5 -105.5t108.5 -153.5t74.5 -212t28.5 -272.5q0 -150 -28.5 -277.5t-74.5 -215.5t-108.5 -156t-125.5 -106.5t-130 -59.5h-51v141q46 20 86.5 50t84.5 85t75 125.5t51.5 177.5t20.5 236q0 124 -20.5 228t-52 173.5t-75.5 123.5
t-84.5 84.5t-85.5 49.5z" />
    <glyph glyph-name="asterisk" unicode="*" horiz-adv-x="766" 
d="M465 1350l-33 -183l150 91l75 24l52 -164l-74 -24l-170 -21l129 -123l49 -67l-133 -99l-49 68l-80 168l-76 -168l-49 -68l-133 99l49 67l129 123l-170 21l-76 24l54 164l73 -24l150 -91l-33 183v84h166v-84z" />
    <glyph glyph-name="plus" unicode="+" horiz-adv-x="1024" 
d="M954 621h-352v-385h-178v385h-354v174h354v385h178v-385h352v-174z" />
    <glyph glyph-name="comma" unicode="," horiz-adv-x="614" 
d="M172 -201v103q52 9 80.5 30.5t28.5 49.5q0 16 -5.5 24t-23.5 17.5t-23 13.5q-49 32 -49 96q0 48 35.5 80.5t87.5 32.5q56 0 94.5 -40.5t38.5 -119.5q0 -133 -65 -202t-199 -85z" />
    <glyph glyph-name="hyphen" unicode="-" horiz-adv-x="565" 
d="M76 520v178h413v-178h-413z" />
    <glyph glyph-name="period" unicode="." horiz-adv-x="614" 
d="M307 -10q-52 0 -89.5 37t-37.5 90q0 54 37.5 91.5t89.5 37.5t90.5 -38t38.5 -91t-38.5 -90t-90.5 -37z" />
    <glyph glyph-name="slash" unicode="/" horiz-adv-x="688" 
d="M655 1518v-47l-469 -1571h-159v47l467 1571h161z" />
    <glyph glyph-name="zero" unicode="0" horiz-adv-x="1229" 
d="M614 -12q-86 0 -163.5 27t-145 85.5t-117 143t-78 206t-28.5 267.5q0 181 43 323.5t118 229.5t169 131.5t202 44.5q107 0 201.5 -44.5t169.5 -131.5t118.5 -229.5t43.5 -323.5q0 -182 -43.5 -324.5t-118.5 -229t-169 -131t-202 -44.5zM614 147q144 0 225 137t81 429
q0 294 -81 432.5t-225 138.5q-145 0 -226 -138.5t-81 -432.5q0 -292 81 -429t226 -137z" />
    <glyph glyph-name="one" unicode="1" horiz-adv-x="1229" 
d="M807 0h-223v1198l-314 -176h-65v145l452 267h150v-1434z" />
    <glyph glyph-name="two" unicode="2" horiz-adv-x="1229" 
d="M1073 176v-176h-944v178l416 406q161 159 230 260.5t69 204.5q0 107 -65 167t-189 60q-106 0 -184 -34.5t-146 -92.5h-78v151q78 62 187.5 104t232.5 42q223 0 343 -100t120 -291q0 -75 -25 -146.5t-79.5 -145.5t-112 -135.5t-148.5 -148.5l-319 -303h692z" />
    <glyph glyph-name="three" unicode="3" horiz-adv-x="1229" 
d="M545 -12q-251 0 -410 121v159h88q50 -50 128 -83t179 -33q149 0 233.5 69.5t84.5 196.5q0 237 -303 237h-117v162h100q146 0 224.5 59t78.5 177q0 112 -64 169.5t-189 57.5q-186 0 -310 -104h-82v145q175 125 406 125q214 0 331 -94.5t117 -280.5q0 -245 -254 -323v-7
q133 -27 208 -109t75 -220q2 -201 -140.5 -312.5t-383.5 -111.5z" />
    <glyph glyph-name="four" unicode="4" horiz-adv-x="1229" 
d="M969 0h-217v334h-646v192l658 908h205v-940h170v-160h-170v-334zM274 500v-6h478v659h-9z" />
    <glyph glyph-name="five" unicode="5" horiz-adv-x="1229" 
d="M1083 477q0 -225 -154.5 -357t-404.5 -132q-129 0 -220.5 29.5t-170.5 82.5v162h86q112 -112 303 -112q154 0 247 85t93 234q0 147 -74 219t-196 72q-169 0 -273 -121h-139v795h830v-179h-666v-430h6q44 38 120.5 67.5t174.5 29.5q92 0 170 -27t138.5 -80t95 -139.5
t34.5 -198.5z" />
    <glyph glyph-name="six" unicode="6" horiz-adv-x="1229" 
d="M639 -12q-117 0 -214 42.5t-170.5 126t-114 218.5t-40.5 311q0 365 178.5 562.5t489.5 197.5q170 0 295 -64v-165h-86q-82 67 -219 67q-205 0 -314.5 -138t-119.5 -401q145 148 376 148q129 0 228 -47t158 -145.5t59 -237.5q0 -215 -138.5 -345t-367.5 -130zM647 737
q-96 0 -181 -38t-144 -101q27 -459 317 -459q144 0 216.5 84t72.5 234q0 139 -74 209.5t-207 70.5z" />
    <glyph glyph-name="seven" unicode="7" horiz-adv-x="1229" 
d="M324 0v94l596 1155v6h-777v179h942v-195l-555 -1239h-206z" />
    <glyph glyph-name="eight" unicode="8" horiz-adv-x="1229" 
d="M614 -12q-254 0 -388 109t-134 302q0 137 78 231.5t211 131.5v6q-106 36 -167.5 114.5t-61.5 192.5q0 170 125.5 270.5t336.5 100.5t337 -100.5t126 -270.5q0 -114 -61.5 -192.5t-167.5 -114.5v-6q135 -39 211 -132.5t76 -230.5q0 -192 -134.5 -301.5t-386.5 -109.5z
M614 137q151 0 229.5 75t78.5 198t-79 199.5t-229 76.5t-228.5 -76.5t-78.5 -199.5t77.5 -198t229.5 -75zM614 838q121 0 187.5 59.5t66.5 165.5q0 107 -66.5 168t-187.5 61q-122 0 -188 -61t-66 -168q0 -106 66 -165.5t188 -59.5z" />
    <glyph glyph-name="nine" unicode="9" horiz-adv-x="1229" 
d="M457 -12q-177 0 -307 59v168h86q30 -27 90.5 -47.5t140.5 -20.5q221 0 324.5 134t111.5 401q-69 -68 -164.5 -104.5t-203.5 -36.5q-203 0 -329 110t-126 316q0 215 141 347t371 132q117 0 213.5 -42.5t169.5 -126t113 -218.5t40 -311q0 -368 -174 -564t-497 -196z
M584 696q92 0 176.5 37.5t144.5 97.5q-22 463 -313 463q-143 0 -218 -86t-75 -235q0 -139 75.5 -208t209.5 -69z" />
    <glyph glyph-name="colon" unicode=":" horiz-adv-x="614" 
d="M307 602q-54 0 -91.5 36.5t-37.5 90.5t37.5 91.5t91.5 37.5q52 0 89.5 -37.5t37.5 -91.5q0 -53 -37.5 -90t-89.5 -37zM307 -10q-54 0 -91.5 36.5t-37.5 90.5t37.5 91.5t91.5 37.5q52 0 89.5 -37.5t37.5 -91.5q0 -53 -37.5 -90t-89.5 -37z" />
    <glyph glyph-name="semicolon" unicode=";" horiz-adv-x="614" 
d="M168 -201v103q52 9 80 30.5t28 49.5q0 12 -4.5 20.5t-9.5 12.5t-17.5 10.5t-19.5 11.5q-49 32 -49 96q0 48 35.5 80.5t87.5 32.5q56 0 94.5 -40.5t38.5 -119.5q0 -133 -65 -202t-199 -85zM307 602q-54 0 -91.5 36.5t-37.5 90.5t37.5 91.5t91.5 37.5q52 0 89.5 -37.5
t37.5 -91.5q0 -53 -37.5 -90t-89.5 -37z" />
    <glyph glyph-name="less" unicode="&#x3c;" horiz-adv-x="952" 
d="M68 600v150l755 397h54v-164l-596 -303v-4l596 -307v-166h-54z" />
    <glyph glyph-name="equal" unicode="=" horiz-adv-x="1008" 
d="M934 754h-862v174h862v-174zM934 360h-862v175h862v-175z" />
    <glyph glyph-name="greater" unicode="&#x3e;" horiz-adv-x="952" 
d="M885 750v-150l-756 -397h-53v164l598 303v4l-598 307v166h53z" />
    <glyph glyph-name="question" unicode="?" horiz-adv-x="903" 
d="M430 369h-156q-20 132 11 215.5t137 193.5q46 46 69 71.5t55 68.5t46 86.5t14 91.5q0 87 -51 133.5t-143 46.5q-169 0 -260 -107h-86v162q144 115 358 115q192 0 298.5 -89t106.5 -261q0 -50 -12 -95.5t-30 -80t-51 -74.5t-61 -67.5t-75 -69.5l-64 -60.5t-48 -54.5
t-39 -63.5t-17 -69.5t-2 -92zM360 -10q-53 0 -88.5 36.5t-35.5 90.5t35.5 91.5t88.5 37.5q52 0 89.5 -37.5t37.5 -91.5q0 -53 -37.5 -90t-89.5 -37z" />
    <glyph glyph-name="at" unicode="@" horiz-adv-x="1757" 
d="M881 -262q-126 0 -242 27t-220.5 86.5t-181.5 146t-122 214.5t-45 284q0 162 50 303.5t135 242t195 173t231.5 108t244.5 35.5q156 0 293.5 -45t242 -128t165.5 -211.5t61 -285.5q0 -138 -39.5 -246.5t-106 -172.5t-147.5 -97t-170 -33q-207 0 -234 152
q-123 -152 -284 -152q-111 0 -177.5 72t-66.5 207q0 74 20.5 150t61 143.5t95 120t128 83.5t154.5 31q122 0 202 -76q24 35 49 51.5t64 16.5h66l-119 -518q-14 -69 3 -107.5t79 -38.5q114 0 189 103t75 311q0 249 -165 391t-439 142q-104 0 -203 -28.5t-187.5 -88
t-155 -143.5t-105.5 -204t-39 -261q0 -161 50 -283t139.5 -194.5t203.5 -108t252 -35.5q150 0 280.5 36.5t222.5 104.5h56v-129q-93 -68 -242.5 -108.5t-316.5 -40.5zM762 279q109 0 229 133l82 360q-22 11 -34.5 16.5t-38 11t-56.5 5.5q-81 0 -150 -56t-107 -144.5
t-38 -186.5q0 -69 31 -104t82 -35z" />
    <glyph glyph-name="A" unicode="A" horiz-adv-x="1309" 
d="M63 0v68l474 1366h237l471 -1366v-68h-211l-133 401h-526l-129 -401h-183zM635 1198l-207 -633h418l-207 633h-4z" />
    <glyph glyph-name="B" unicode="B" horiz-adv-x="1204" 
d="M158 0v1434h440q229 0 349 -88t120 -281q0 -242 -246 -305v-6q143 -31 224 -112t81 -234q0 -201 -133 -304.5t-372 -103.5h-463zM377 168h237q135 0 210 63.5t75 186.5q0 124 -76 187t-217 63h-229v-500zM377 829h213q256 0 256 222q0 215 -254 215h-215v-437z" />
    <glyph glyph-name="C" unicode="C" horiz-adv-x="1255" 
d="M725 -12q-290 0 -463.5 192.5t-173.5 536.5q0 170 50 308.5t138 230t207.5 141t259.5 49.5q144 0 234 -28t180 -87v-174h-86q-119 119 -321 119q-199 0 -317 -143t-118 -408q0 -281 108.5 -425t309.5 -144q126 0 212.5 41t156.5 114h72v-170q-176 -153 -449 -153z" />
    <glyph glyph-name="D" unicode="D" horiz-adv-x="1368" 
d="M158 0v1434h409q356 0 536.5 -172.5t180.5 -540.5q0 -721 -723 -721h-403zM379 168h182q257 0 375.5 128.5t118.5 422.5q0 291 -118 418t-376 127h-182v-1096z" />
    <glyph glyph-name="E" unicode="E" horiz-adv-x="1139" 
d="M158 0v1434h878v-172h-657v-447h481v-164h-481v-483h680v-168h-901z" />
    <glyph glyph-name="F" unicode="F" horiz-adv-x="1116" 
d="M379 0h-221v1434h882v-172h-661v-480h502v-166h-502v-616z" />
    <glyph glyph-name="G" unicode="G" horiz-adv-x="1354" 
d="M733 -12q-306 0 -478.5 188t-172.5 541q0 349 183 539t493 190q130 0 219.5 -23.5t183.5 -72.5v-185h-80q-60 53 -133 81t-186 28q-210 0 -327.5 -134.5t-117.5 -414.5q0 -288 105.5 -431.5t310.5 -143.5q156 0 260 51v370h-239v156h460v-629q-205 -110 -481 -110z" />
    <glyph glyph-name="H" unicode="H" horiz-adv-x="1395" 
d="M379 0h-221v1434h221v-615h637v615h223v-1434h-223v651h-637v-651z" />
    <glyph glyph-name="I" unicode="I" horiz-adv-x="549" 
d="M387 0h-225v1434h225v-1434z" />
    <glyph glyph-name="J" unicode="J" horiz-adv-x="905" 
d="M344 -14q-171 0 -295 75v170h78q79 -75 207 -75q196 0 196 204v1074h226v-1078q0 -179 -103 -274.5t-309 -95.5z" />
    <glyph glyph-name="K" unicode="K" horiz-adv-x="1294" 
d="M158 1434h221v-713l620 713h181v-68l-451 -510l500 -788v-68h-207l-438 694l-205 -223v-471h-221v1434z" />
    <glyph glyph-name="L" unicode="L" horiz-adv-x="1096" 
d="M1018 0h-860v1434h221v-1266h639v-168z" />
    <glyph glyph-name="M" unicode="M" horiz-adv-x="1690" 
d="M158 0v1434h309l379 -1088h4l379 1088h303v-1434h-221v1169h-6l-410 -1169h-139l-406 1169h-8v-1169h-184z" />
    <glyph glyph-name="N" unicode="N" horiz-adv-x="1391" 
d="M158 0v1434h256l624 -1055h4v1055h193v-1434h-205l-678 1149h-4v-1149h-190z" />
    <glyph glyph-name="O" unicode="O" horiz-adv-x="1462" 
d="M731 -12q-132 0 -249 48t-206.5 138t-141.5 230.5t-52 312.5t52 312t141.5 230t206.5 138.5t249 48.5t248.5 -48.5t205.5 -139t141 -230.5t52 -311q0 -172 -52 -312.5t-141 -230.5t-205.5 -138t-248.5 -48zM731 154q189 0 304.5 142.5t115.5 416.5q0 276 -116 421.5
t-304 145.5q-190 0 -305 -145.5t-115 -421.5q0 -275 115 -417t305 -142z" />
    <glyph glyph-name="P" unicode="P" horiz-adv-x="1174" 
d="M158 0v1434h417q529 0 529 -437q0 -444 -533 -444h-192v-553h-221zM379 1264v-549h192q160 0 234 67t74 211t-73.5 207.5t-234.5 63.5h-192z" />
    <glyph glyph-name="Q" unicode="Q" horiz-adv-x="1464" 
d="M1327 -221l-657 184q-139 40 -243.5 101t-183.5 150.5t-120 216t-41 286.5q0 172 52 312.5t141.5 230.5t206.5 138t249 48t248.5 -48t205.5 -138t141 -230.5t52 -312.5q0 -262 -117.5 -436t-318.5 -232v-4l479 -90v-176h-94zM731 150q190 0 305 143.5t115 419.5
q0 277 -116 422t-304 145q-190 0 -305 -144.5t-115 -422.5q0 -275 116 -419t304 -144z" />
    <glyph glyph-name="R" unicode="R" horiz-adv-x="1255" 
d="M967 0l-316 600q-13 -2 -67 -2h-203v-598h-221v1434h424q245 0 378.5 -101t133.5 -307q0 -285 -236 -383l309 -575v-68h-202zM381 1264v-502h197q149 0 220.5 58.5t71.5 193.5q0 130 -73.5 190t-218.5 60h-197z" />
    <glyph glyph-name="S" unicode="S" horiz-adv-x="1065" 
d="M496 -12q-143 0 -246.5 31t-190.5 90v180h78q125 -131 352 -131q143 0 219 58t76 173q0 117 -93 174q-50 30 -188 68l-44 12q-198 58 -288.5 149.5t-90.5 258.5q0 185 123 290t334 105q229 0 381 -96v-174h-76q-127 100 -297 100q-136 0 -203.5 -54t-67.5 -155
q0 -44 14 -77.5t34.5 -55.5t60.5 -41t76.5 -31t97.5 -28q118 -32 192 -64t132 -80t83 -115.5t25 -162.5q0 -207 -128.5 -315.5t-364.5 -108.5z" />
    <glyph glyph-name="T" unicode="T" horiz-adv-x="1167" 
d="M694 0h-223v1266h-412v168h1047v-168h-412v-1266z" />
    <glyph glyph-name="U" unicode="U" horiz-adv-x="1380" 
d="M715 164q76 0 131.5 17t98.5 56.5t65 110.5t22 174v912h199v-906q0 -273 -131 -406.5t-398 -133.5q-259 0 -405.5 136.5t-146.5 403.5v906h223v-912q0 -104 24.5 -175.5t72 -110.5t106.5 -55.5t139 -16.5z" />
    <glyph glyph-name="V" unicode="V" horiz-adv-x="1296" 
d="M530 0l-469 1366v68h209l385 -1160h4l388 1160h188v-68l-473 -1366h-232z" />
    <glyph glyph-name="W" unicode="W" horiz-adv-x="1812" 
d="M403 0l-337 1366v68h210l256 -1125h5l282 1125h197l280 -1125h4l256 1125h191v-68l-338 -1366h-235l-263 1081h-4l-268 -1081h-236z" />
    <glyph glyph-name="X" unicode="X" horiz-adv-x="1280" 
d="M78 0v72l418 676l-402 614v72h209l350 -549l328 549h180v-72l-385 -629l426 -661v-72h-207l-379 598l-360 -598h-178z" />
    <glyph glyph-name="Y" unicode="Y" horiz-adv-x="1190" 
d="M715 0h-221v573l-439 789v72h203l352 -650h2l344 650h179v-72l-420 -782v-580z" />
    <glyph glyph-name="Z" unicode="Z" horiz-adv-x="1108" 
d="M55 0v178l752 1082v6h-696v168h931v-183l-749 -1081v-6h741v-164h-979z" />
    <glyph glyph-name="bracketleft" unicode="[" horiz-adv-x="645" 
d="M158 -100v1618h418v-148h-220v-1323h220v-147h-418z" />
    <glyph glyph-name="backslash" unicode="\" horiz-adv-x="688" 
d="M33 1471v47h160l469 -1571v-47h-162z" />
    <glyph glyph-name="bracketright" unicode="]" horiz-adv-x="643" 
d="M485 1518v-1618h-417v147h221v1323h-221v148h417z" />
    <glyph glyph-name="asciicircum" unicode="^" horiz-adv-x="854" 
d="M45 936v57l297 441h172l295 -441v-57h-170l-209 305h-6l-209 -305h-170z" />
    <glyph glyph-name="underscore" unicode="_" horiz-adv-x="729" 
d="M719 -332h-709v144h709v-144z" />
    <glyph glyph-name="grave" unicode="`" 
d="M487 1161h-118l-193 205v68h209l102 -224v-49z" />
    <glyph glyph-name="a" unicode="a" horiz-adv-x="1057" 
d="M928 0h-82q-63 0 -89 24t-34 95q-61 -67 -137.5 -99t-182.5 -32q-151 0 -243 83t-92 236q0 160 113.5 243t301.5 83q120 0 234 -29v141q0 95 -53.5 139t-161.5 44q-171 0 -293 -88h-66v155q186 92 385 92q196 0 298 -78t102 -249v-760zM471 131q78 0 136 32.5t110 90.5
v227q-97 21 -199 21q-113 0 -179.5 -45t-66.5 -138q0 -95 54 -141.5t145 -46.5z" />
    <glyph glyph-name="b" unicode="b" horiz-adv-x="1169" 
d="M346 1294v-360q153 153 348 153q63 0 119 -16.5t109 -56t91 -99.5t60.5 -153.5t22.5 -210.5q0 -122 -25.5 -219t-68 -160.5t-101 -105.5t-121 -60t-131.5 -18q-204 0 -325 114q-18 -46 -45 -74t-56 -28h-86v1434h115q60 0 77 -25t17 -115zM618 920q-133 0 -272 -123v-557
q49 -51 107.5 -75t140.5 -24q45 0 84 9.5t78 36.5t66 69t44 112t17 162q0 390 -265 390z" />
    <glyph glyph-name="c" unicode="c" horiz-adv-x="1001" 
d="M588 -12q-244 0 -381 145.5t-137 401.5q0 253 148 402.5t380 149.5q191 0 322 -86v-163h-86q-88 88 -238 88q-141 0 -227 -103t-86 -288q0 -191 82 -289.5t227 -98.5q161 0 260 103h78v-152q-142 -110 -342 -110z" />
    <glyph glyph-name="d" unicode="d" horiz-adv-x="1171" 
d="M1032 0h-137q-37 0 -51.5 29t-18.5 116q-58 -70 -144.5 -113.5t-191.5 -43.5q-86 0 -159.5 31.5t-131 94t-90 166.5t-32.5 240q0 122 25.5 220t68 161.5t100.5 106.5t119.5 61t128.5 18q192 0 305 -110v457h115q62 0 78 -24.5t16 -115.5v-1294zM541 141q83 0 150.5 36.5
t131.5 107.5v544q-94 91 -245 91q-58 0 -106 -17.5t-92 -59t-68.5 -121t-24.5 -192.5q0 -389 254 -389z" />
    <glyph glyph-name="e" unicode="e" horiz-adv-x="1077" 
d="M1006 496h-721q8 -186 89 -268.5t236 -82.5q180 0 297 99h68v-146q-162 -110 -395 -110q-243 0 -376.5 145t-133.5 399q0 252 138.5 403.5t350.5 151.5q216 0 332.5 -129.5t116.5 -388.5q0 -17 -1 -44t-1 -29zM559 944q-111 0 -183 -74.5t-87 -236.5h512
q-4 167 -64.5 239t-177.5 72z" />
    <glyph glyph-name="f" unicode="f" horiz-adv-x="649" 
d="M41 924v147h129v92q0 144 77 214.5t214 70.5q93 0 155 -23v-131h-90q-74 0 -110.5 -30t-36.5 -109v-84h219v-147h-219v-924h-209v924h-129z" />
    <glyph glyph-name="g" unicode="g" horiz-adv-x="1169" 
d="M1032 1071v-1034q0 -185 -132 -283t-361 -98q-251 0 -412 90v158h68q115 -92 315 -92q313 0 313 239v115q-132 -139 -329 -139q-85 0 -158 29t-132.5 87.5t-93.5 159t-34 232.5q0 116 25.5 210.5t68 157t101 105t122 61t133.5 18.5q191 0 312 -116q21 100 98 100h96z
M549 180q141 0 274 133v512q-98 95 -245 95q-46 0 -85.5 -9.5t-78 -35.5t-66 -66t-44.5 -106t-17 -152q0 -105 19 -178.5t55 -115t81.5 -59.5t106.5 -18z" />
    <glyph glyph-name="h" unicode="h" horiz-adv-x="1159" 
d="M346 1294v-358q84 67 191 109t219 42q59 0 105.5 -13.5t86 -45.5t61 -91.5t21.5 -143.5v-793h-209v743q0 96 -40 133t-122 37q-130 0 -313 -106v-807h-209v1434h115q60 0 77 -25t17 -115z" />
    <glyph glyph-name="i" unicode="i" horiz-adv-x="492" 
d="M348 0h-209v1071h117q61 0 76.5 -28.5t15.5 -131.5v-911zM246 1190q-50 0 -86.5 35t-36.5 84q0 50 36.5 86.5t86.5 36.5q49 0 86 -36.5t37 -86.5q0 -49 -37 -84t-86 -35z" />
    <glyph glyph-name="j" unicode="j" horiz-adv-x="492" 
d="M-51 -324v129h59q71 0 101 35.5t30 112.5v1118h117q60 0 76 -28.5t16 -131.5v-970q0 -281 -270 -281q-80 0 -129 16zM246 1190q-50 0 -86.5 35t-36.5 84q0 50 36.5 86.5t86.5 36.5q49 0 86 -36.5t37 -86.5q0 -49 -37 -84t-86 -35z" />
    <glyph glyph-name="k" unicode="k" horiz-adv-x="1057" 
d="M346 1294v-725l438 502h174v-61l-331 -369l366 -578v-63h-190l-318 496l-139 -154v-342h-209v1434h115q60 0 77 -25t17 -115z" />
    <glyph glyph-name="l" unicode="l" horiz-adv-x="489" 
d="M350 0h-211v1434h117q62 0 78 -24.5t16 -115.5v-1294z" />
    <glyph glyph-name="m" unicode="m" horiz-adv-x="1772" 
d="M137 1071h131q41 0 57.5 -26t20.5 -105q190 147 383 147q196 0 246 -155q85 70 188.5 112.5t210.5 42.5q121 0 193.5 -67t72.5 -217v-803h-206v748q0 90 -37.5 127.5t-114.5 37.5q-127 0 -289 -102v-811h-209v748q0 90 -37 127.5t-112 37.5q-132 0 -289 -102v-811h-209
v1071z" />
    <glyph glyph-name="n" unicode="n" horiz-adv-x="1159" 
d="M137 1071h131q41 0 57.5 -26.5t20.5 -108.5q84 67 191 109t219 42q59 0 105.5 -13.5t86 -45.5t61 -91.5t21.5 -143.5v-793h-209v743q0 96 -40 133t-122 37q-130 0 -313 -106v-807h-209v1071z" />
    <glyph glyph-name="o" unicode="o" horiz-adv-x="1163" 
d="M598 -12q-234 0 -378 144q-150 150 -150 400q0 127 40 231.5t110.5 175.5t167.5 109.5t210 38.5q230 0 378 -151t148 -404q0 -248 -150 -400q-142 -144 -376 -144zM598 145q142 0 224 97q83 97 83 290q0 194 -83 297q-83 101 -224 101t-225 -101q-84 -102 -84 -297
q0 -194 84 -290q84 -97 225 -97z" />
    <glyph glyph-name="p" unicode="p" horiz-adv-x="1169" 
d="M643 6q-180 0 -297 96v-434h-209v1403h131q41 0 57.5 -26.5t20.5 -110.5q153 153 348 153q79 0 148 -28t127.5 -87.5t92.5 -165t34 -247.5q0 -120 -26 -215.5t-69 -157.5t-102.5 -103.5t-122.5 -59t-133 -17.5zM621 920q-131 0 -275 -123v-543q94 -94 246 -94
q291 0 291 379q0 110 -22 187.5t-60.5 118t-82.5 58t-97 17.5z" />
    <glyph glyph-name="q" unicode="q" horiz-adv-x="1169" 
d="M823 -332v477q-56 -62 -141.5 -100.5t-183.5 -38.5q-87 0 -161 29.5t-133.5 90t-93.5 162.5t-34 236q0 121 25.5 218t68.5 160.5t101.5 106t122 60.5t132.5 18q192 0 312 -118q26 102 98 102h96v-1403h-209zM549 160q151 0 274 135v530q-98 95 -248 95q-58 0 -106 -17.5
t-91 -58t-67 -117.5t-24 -184q0 -209 67.5 -296t194.5 -87z" />
    <glyph glyph-name="r" unicode="r" horiz-adv-x="768" 
d="M664 903q-181 0 -318 -121v-782h-209v1071h131q41 0 57.5 -28.5t20.5 -118.5q136 157 307 157q32 0 58 -8v-172q-14 0 -21 1q-6 0 -15.5 0.5t-10.5 0.5z" />
    <glyph glyph-name="s" unicode="s" horiz-adv-x="907" 
d="M428 -10q-211 0 -350 94v162h67q102 -96 273 -96q223 0 223 155q0 68 -48 102t-177 54q-171 25 -254.5 95t-83.5 214q0 150 102.5 231.5t282.5 81.5q185 0 315 -75v-160h-67q-96 76 -246 76q-201 0 -201 -138q0 -63 51 -95t177 -50q183 -27 264.5 -97.5t81.5 -219.5
q0 -158 -102.5 -246t-307.5 -88z" />
    <glyph glyph-name="t" unicode="t" horiz-adv-x="680" 
d="M41 924v147h129v291h209v-291h237v-147h-237v-635q0 -83 35 -114.5t118 -31.5h97v-135q-71 -20 -170 -20q-142 0 -215.5 65.5t-73.5 210.5v660h-129z" />
    <glyph glyph-name="u" unicode="u" horiz-adv-x="1171" 
d="M512 150q131 0 303 102v819h209v-1071h-131q-39 0 -55.5 23t-20.5 98q-84 -61 -185 -98t-202 -37q-293 0 -293 286v799h209v-752q0 -96 42 -132.5t124 -36.5z" />
    <glyph glyph-name="v" unicode="v" horiz-adv-x="1081" 
d="M444 0l-389 1012v59h195l303 -819h4l289 819h180v-59l-379 -1012h-203z" />
    <glyph glyph-name="w" unicode="w" horiz-adv-x="1548" 
d="M356 0l-297 1010v61h195l215 -774h4l234 774h163l232 -774h4l213 774h170v-61l-295 -1010h-186l-230 766h-4l-233 -766h-185z" />
    <glyph glyph-name="x" unicode="x" horiz-adv-x="1055" 
d="M63 0v61l324 488l-309 461v61h194l263 -399l241 399h172v-61l-286 -451l327 -498v-61h-192l-285 440l-272 -440h-177z" />
    <glyph glyph-name="y" unicode="y" horiz-adv-x="1077" 
d="M309 -332v60l148 333l-402 953v57h197l305 -752h2l285 752h180v-57l-535 -1346h-180z" />
    <glyph glyph-name="z" unicode="z" horiz-adv-x="977" 
d="M76 154l598 764h-561v153h794v-153l-600 -762h586v-156h-817v154z" />
    <glyph glyph-name="braceleft" unicode="{" horiz-adv-x="705" 
d="M223 152v381q0 50 -29.5 82t-86.5 32h-52v148h52q57 0 86.5 32.5t29.5 83.5v357q0 250 262 250h152v-148h-125q-42 0 -66 -28t-24 -72v-350q0 -79 -37 -126t-117 -69v-4q80 -22 117 -70t37 -127v-374q0 -45 24 -74t66 -29h125v-147h-152q-130 0 -196 64t-66 188z" />
    <glyph glyph-name="bar" unicode="|" horiz-adv-x="399" 
d="M283 1518v-1618h-168v1618h168z" />
    <glyph glyph-name="braceright" unicode="}" horiz-adv-x="705" 
d="M481 533v-381q0 -252 -260 -252h-153v147h123q42 0 68 29.5t26 73.5v374q0 80 36.5 128t116.5 69v4q-80 22 -116.5 69t-36.5 126v350q0 43 -26 71.5t-68 28.5h-123v148h153q260 0 260 -250v-357q0 -52 29 -84t88 -32h49v-148h-49q-59 0 -88 -31.5t-29 -82.5z" />
    <glyph glyph-name="asciitilde" unicode="~" horiz-adv-x="754" 
d="M55 459v71q18 83 68.5 135t126.5 52q56 0 138.5 -33t105.5 -33q55 0 73 74h129v-70q-17 -83 -67.5 -134.5t-126.5 -51.5q-51 0 -135 33t-107 33q-57 0 -76 -76h-129z" />
    <glyph glyph-name="uni00A0" unicode="&#xa0;" horiz-adv-x="442" 
 />
    <glyph glyph-name="exclamdown" unicode="&#xa1;" horiz-adv-x="543" 
d="M344 916l39 -934v-134h-223v134l39 934h145zM272 1294q53 0 89 -36.5t36 -90.5q0 -53 -36.5 -91t-88.5 -38t-89.5 38t-37.5 91t37.5 90t89.5 37z" />
    <glyph glyph-name="cent" unicode="&#xa2;" horiz-adv-x="1024" 
d="M533 -10q-217 18 -340 162t-123 383q0 232 128.5 378.5t334.5 169.5v119h137v-119q147 -12 262 -81v-164h-88q-69 67 -174 84v-772q122 20 194 100h78v-152q-110 -88 -272 -106v-203h-137v201zM533 922q-119 -24 -185.5 -124t-66.5 -263q0 -170 65 -267.5t187 -117.5v772
z" />
    <glyph glyph-name="sterling" unicode="&#xa3;" horiz-adv-x="1049" 
d="M59 0v158q164 78 164 274q0 86 -24 203h-131v154h98q-33 148 -33 245q0 192 129.5 302t339.5 110q116 0 199.5 -27.5t157.5 -81.5v-168h-80q-120 103 -273 103q-116 0 -184 -59.5t-68 -172.5q0 -69 29 -251h365v-154h-338q16 -106 16 -201q0 -146 -104 -252h659v-182
h-922z" />
    <glyph glyph-name="yen" unicode="&#xa5;" horiz-adv-x="1124" 
d="M125 616v136h270l-334 610v72h199l322 -613h2l311 613h170v-72l-324 -610h277v-136h-334v-124h334v-136h-334v-356h-223v356h-336v136h336v124h-336z" />
    <glyph glyph-name="brokenbar" unicode="&#xa6;" horiz-adv-x="342" 
d="M86 -100v733h170l-2 -733h-168zM86 797v721h168l2 -721h-170z" />
    <glyph glyph-name="section" unicode="&#xa7;" horiz-adv-x="1055" 
d="M64 582q0 210 217 278q-66 45 -94.5 106.5t-28.5 155.5q0 147 104 235.5t285 88.5q207 0 330 -80v-158h-68q-98 78 -256 78q-100 0 -156.5 -40.5t-56.5 -112.5q0 -69 56.5 -113.5t193.5 -77.5q203 -51 299 -129.5t96 -226.5q0 -205 -209 -281q63 -41 94 -98.5t31 -142.5
q0 -154 -106 -244t-314 -90q-211 0 -362 92v162h67q41 -39 121 -68t172 -29q219 0 219 156q0 75 -57 112t-223 85q-186 54 -270 131t-84 211zM481 418q113 -34 133 -41q87 21 134 66.5t47 113.5q0 77 -60.5 123t-191.5 80q-21 5 -56.5 15t-39.5 11q-100 -13 -148.5 -57.5
t-48.5 -112.5q0 -71 52 -116.5t179 -81.5z" />
    <glyph glyph-name="dieresis" unicode="&#xa8;" 
d="M240 1190q-48 0 -82.5 33.5t-34.5 81.5q0 47 34.5 80.5t82.5 33.5q49 0 82.5 -33.5t33.5 -80.5q0 -48 -33.5 -81.5t-82.5 -33.5zM592 1190q-48 0 -81.5 33.5t-33.5 81.5q0 47 33.5 80.5t81.5 33.5t82.5 -33.5t34.5 -80.5q0 -48 -34.5 -81.5t-82.5 -33.5z" />
    <glyph glyph-name="copyright" unicode="&#xa9;" horiz-adv-x="1587" 
d="M793 -14q-114 0 -218.5 30t-194 91.5t-155.5 147.5t-103.5 205t-37.5 257t37.5 257t103.5 205t155.5 147.5t194 91.5t218.5 30q144 0 272 -48.5t226 -139t155 -231t57 -312.5t-57 -312.5t-155 -231t-226 -139t-272 -48.5zM793 78q126 0 235.5 43t192 122.5t129.5 201.5
t47 272t-47 272t-129.5 202t-192 123.5t-235.5 43.5q-125 0 -234 -43.5t-191 -123t-129.5 -202t-47.5 -272.5t47.5 -272t129.5 -201.5t191 -122.5t234 -43zM813 317q-181 0 -283 107t-102 295q0 184 110 293.5t283 109.5q140 0 242 -61v-135h-74q-56 65 -168 65
q-100 0 -159.5 -71.5t-59.5 -202.5q0 -134 56 -201t161 -67q121 0 183 71h67v-121q-103 -82 -256 -82z" />
    <glyph glyph-name="ordfeminine" unicode="&#xaa;" horiz-adv-x="893" 
d="M709 528q-49 0 -70 21.5t-29 77.5q-101 -109 -268 -109q-127 0 -206 69t-79 199q0 136 96 207.5t255 71.5q108 0 198 -25v105q0 81 -43.5 116t-138.5 35q-145 0 -242 -71h-61v143q152 78 336 78q170 0 256 -66t86 -219v-633h-90zM406 649q115 0 200 97v184
q-98 16 -157 16q-203 0 -203 -149q0 -148 160 -148z" />
    <glyph glyph-name="guillemotleft" unicode="&#xab;" horiz-adv-x="977" 
d="M461 485v93l270 399h166v-55l-254 -385v-4l254 -392v-53h-166zM350 88l-270 397v93l270 399h164v-55l-252 -385v-4l252 -392v-53h-164z" />
    <glyph glyph-name="registered" unicode="&#xae;" horiz-adv-x="829" 
d="M414 717q-151 0 -260 100t-109 266q0 168 109 267.5t260 99.5q96 0 178.5 -42t136 -127.5t53.5 -197.5q0 -111 -53.5 -196t-136 -127.5t-178.5 -42.5zM414 786q125 0 205.5 77.5t80.5 219.5t-80.5 219.5t-205.5 77.5q-127 0 -208 -77.5t-81 -219.5t81 -219.5t208 -77.5z
M492 899l-74 139h-45v-139h-101v385h156q148 0 148 -123q0 -70 -66 -102l72 -125v-35h-90zM420 1106q57 0 57 57q0 54 -57 54h-47v-111h47z" />
    <glyph glyph-name="macron" unicode="&#xaf;" 
d="M657 1368v-147h-481v147h481z" />
    <glyph glyph-name="degree" unicode="&#xb0;" horiz-adv-x="692" 
d="M346 893q-114 0 -194 77.5t-80 198.5q0 123 79.5 200t194.5 77q116 0 195.5 -77t79.5 -200q0 -121 -80 -198.5t-195 -77.5zM346 1006q67 0 110.5 45t43.5 118q0 75 -43.5 120.5t-110.5 45.5q-65 0 -107 -45.5t-42 -120.5q0 -73 42 -118t107 -45z" />
    <glyph glyph-name="twosuperior" unicode="&#xb2;" horiz-adv-x="653" 
d="M59 789l218 206q76 72 108.5 118.5t32.5 94.5t-31 76.5t-88 28.5q-90 0 -158 -64h-63v115q100 80 244 80q127 0 196.5 -57.5t69.5 -165.5q0 -79 -44.5 -142.5t-146.5 -156.5l-147 -133h336v-134h-527v134z" />
    <glyph glyph-name="threesuperior" unicode="&#xb3;" horiz-adv-x="639" 
d="M279 645q-139 0 -232 70v110h64q57 -57 153 -57q72 0 111 29.5t39 87.5q0 56 -39.5 83t-104.5 27h-71v113h65q65 0 103.5 28.5t38.5 80.5q0 47 -31.5 72.5t-91.5 25.5q-89 0 -152 -49h-61v106q103 72 235 72q117 0 188.5 -53.5t71.5 -155.5q0 -128 -145 -174v-4
q158 -34 158 -182q0 -110 -79.5 -170t-219.5 -60z" />
    <glyph glyph-name="acute" unicode="&#xb4;" 
d="M467 1161h-121v49l103 224h211v-68z" />
    <glyph glyph-name="paragraph" unicode="&#xb6;" horiz-adv-x="1165" 
d="M541 -186v837h-19q-101 0 -181 21t-142 66t-95.5 122t-33.5 182q0 90 25 158.5t67.5 112.5t106.5 71.5t135 38.5t159 11h447v-1620h-158v1462h-154v-1462h-157z" />
    <glyph glyph-name="periodcentered" unicode="&#xb7;" horiz-adv-x="403" 
d="M201 492q-53 0 -89 36.5t-36 90.5q0 53 36.5 91t88.5 38t89.5 -38t37.5 -91t-37.5 -90t-89.5 -37z" />
    <glyph glyph-name="cedilla" unicode="&#xb8;" 
d="M334 0h110v-64q158 -6 158 -145q0 -69 -52 -109t-136 -40q-80 0 -150 36v99h51q27 -31 80 -31q70 0 70 49q0 51 -84 51h-47v154z" />
    <glyph glyph-name="onesuperior" unicode="&#xb9;" horiz-adv-x="510" 
d="M387 655h-174v605l-127 -70h-39v125l215 119h125v-779z" />
    <glyph glyph-name="ordmasculine" unicode="&#xba;" horiz-adv-x="1022" 
d="M510 518q-191 0 -315.5 124t-124.5 337t124.5 340t315.5 127q192 0 317 -126.5t125 -340.5q0 -213 -124.5 -337t-317.5 -124zM510 662q114 0 179 79.5t65 237.5q0 156 -65.5 239t-178.5 83q-112 0 -177 -83t-65 -239q0 -158 64.5 -237.5t177.5 -79.5z" />
    <glyph glyph-name="guillemotright" unicode="&#xbb;" horiz-adv-x="977" 
d="M627 88h-166v53l252 392v6l-252 383v55h166l270 -399v-91zM80 977h166l268 -399v-91l-268 -399h-166v53l252 392v6l-252 383v55z" />
    <glyph glyph-name="onequarter" unicode="&#xbc;" horiz-adv-x="1409" 
d="M1274 0h-162v174h-356v131l362 473h156v-489h92v-115h-92v-174zM881 293v-4h233v299h-6zM397 655h-174v605l-127 -70h-39v125l215 119h125v-779zM1249 1493l-979 -1563h-157l979 1563h157z" />
    <glyph glyph-name="onehalf" unicode="&#xbd;" horiz-adv-x="1491" 
d="M113 -70l979 1563h157l-979 -1563h-157zM1434 0h-527v131l215 207q78 74 110 120t32 93q0 48 -31 76t-88 28q-89 0 -158 -61h-63v115q100 80 245 80q126 0 196.5 -58t70.5 -166q0 -78 -44.5 -141.5t-148.5 -157.5l-145 -135h336v-131zM57 1315l215 119h125v-779h-174v605
l-127 -70h-39v125z" />
    <glyph glyph-name="threequarters" unicode="&#xbe;" horiz-adv-x="1491" 
d="M297 645q-140 0 -233 70v110h63q64 -57 156 -57q71 0 110 29.5t39 87.5q0 56 -39 83t-104 27h-72v113h66q65 0 103 28.5t38 80.5q0 47 -32 72.5t-91 25.5q-90 0 -151 -49h-62v106q103 72 234 72q118 0 189 -53.5t71 -155.5q0 -128 -144 -174v-4q158 -34 158 -182
q0 -110 -79.5 -170t-219.5 -60zM1358 0h-162v174h-356v131l362 473h156v-489h90v-115h-90v-174zM965 293v-4h233v299h-6zM1354 1493l-979 -1563h-160l979 1563h160z" />
    <glyph glyph-name="questiondown" unicode="&#xbf;" horiz-adv-x="903" 
d="M629 916q18 -135 -12.5 -218.5t-135.5 -191.5l-55.5 -56.5t-47.5 -55t-44 -63.5t-25.5 -65.5t-11.5 -77.5q0 -86 51.5 -133t143.5 -47q175 0 260 107h86v-164q-147 -115 -359 -115q-191 0 -297 90t-106 262q0 61 15.5 113t50.5 101t68.5 84t92.5 90l64.5 60t48.5 54
t39.5 63t17 70t2.5 93h154zM543 1294q53 0 89 -36.5t36 -90.5t-36 -91.5t-89 -37.5q-52 0 -88.5 38t-36.5 91q0 54 36 90.5t89 36.5z" />
    <glyph glyph-name="Agrave" unicode="&#xc0;" horiz-adv-x="1309" 
d="M63 0v68l474 1366h237l471 -1366v-68h-211l-133 401h-526l-129 -401h-183zM635 1198l-207 -633h418l-207 633h-4zM726 1479h-118l-181 180v65h211l88 -194v-51z" />
    <glyph glyph-name="Aacute" unicode="&#xc1;" horiz-adv-x="1309" 
d="M63 0v68l474 1366h237l471 -1366v-68h-211l-133 401h-526l-129 -401h-183zM635 1198l-207 -633h418l-207 633h-4zM578 1479v51l88 194h209v-65l-176 -180h-121z" />
    <glyph glyph-name="Acircumflex" unicode="&#xc2;" horiz-adv-x="1309" 
d="M63 0v68l474 1366h237l471 -1366v-68h-211l-133 401h-526l-129 -401h-183zM635 1198l-207 -633h418l-207 633h-4zM404 1479v59l178 193h150l172 -193v-59h-117l-135 110l-138 -110h-110z" />
    <glyph glyph-name="Atilde" unicode="&#xc3;" horiz-adv-x="1309" 
d="M63 0v68l474 1366h237l471 -1366v-68h-211l-133 401h-526l-129 -401h-183zM635 1198l-207 -633h418l-207 633h-4zM355 1487v61q15 80 60.5 124t115.5 44q50 0 120.5 -32.5t92.5 -32.5q56 0 74 67h118v-59q-15 -80 -60 -124t-116 -44q-48 0 -118.5 34t-90.5 34
q-60 0 -73 -72h-123z" />
    <glyph glyph-name="Adieresis" unicode="&#xc4;" horiz-adv-x="1309" 
d="M63 0v68l474 1366h237l471 -1366v-68h-211l-133 401h-526l-129 -401h-183zM635 1198l-207 -633h418l-207 633h-4zM484 1489q-49 0 -83 33.5t-34 83.5q0 46 34.5 80t82.5 34t82 -34t34 -80q0 -50 -33.5 -83.5t-82.5 -33.5zM824 1489q-48 0 -81.5 33.5t-33.5 83.5
q0 46 33.5 80t81.5 34q47 0 81.5 -34t34.5 -80q0 -50 -34 -83.5t-82 -33.5z" />
    <glyph glyph-name="Aring" unicode="&#xc5;" horiz-adv-x="1309" 
d="M63 0v68l474 1366h237l471 -1366v-68h-211l-133 401h-526l-129 -401h-183zM635 1198l-207 -633h418l-207 633h-4zM648 1485q-81 0 -137 53t-56 139t56 139.5t137 53.5q80 0 137 -54t57 -139t-56.5 -138.5t-137.5 -53.5zM648 1587q38 0 62 24.5t24 65.5t-24.5 66.5
t-61.5 25.5q-36 0 -60 -25.5t-24 -66.5t24 -65.5t60 -24.5z" />
    <glyph glyph-name="AE" unicode="&#xc6;" horiz-adv-x="1890" 
d="M907 0v412h-485l-199 -412h-182v68l684 1366h1059v-172h-656v-447h482v-164h-482v-483h682v-168h-903zM836 1262l-334 -687h405v687h-71z" />
    <glyph glyph-name="Ccedilla" unicode="&#xc7;" horiz-adv-x="1255" 
d="M725 -12h-2v-51q80 -4 120 -41.5t40 -104.5q0 -69 -52 -109t-137 -40q-82 0 -149 36v99h51q27 -31 80 -31q69 0 69 49q0 51 -83 51h-48v150q-244 37 -385 224.5t-141 496.5q0 170 50 308.5t138 230t207.5 141t259.5 49.5q144 0 234 -28t180 -87v-174h-86
q-119 119 -321 119q-199 0 -317 -143t-118 -408q0 -281 108.5 -425t309.5 -144q126 0 212.5 41t156.5 114h72v-170q-176 -153 -449 -153z" />
    <glyph glyph-name="Egrave" unicode="&#xc8;" horiz-adv-x="1139" 
d="M158 0v1434h878v-172h-657v-447h481v-164h-481v-483h680v-168h-901zM692 1479h-118l-181 180v65h211l88 -194v-51z" />
    <glyph glyph-name="Eacute" unicode="&#xc9;" horiz-adv-x="1139" 
d="M158 0v1434h878v-172h-657v-447h481v-164h-481v-483h680v-168h-901zM549 1479v51l88 194h209v-65l-176 -180h-121z" />
    <glyph glyph-name="Ecircumflex" unicode="&#xca;" horiz-adv-x="1139" 
d="M158 0v1434h878v-172h-657v-447h481v-164h-481v-483h680v-168h-901zM367 1479v59l178 193h150l172 -193v-59h-117l-135 110l-138 -110h-110z" />
    <glyph glyph-name="Edieresis" unicode="&#xcb;" horiz-adv-x="1139" 
d="M158 0v1434h878v-172h-657v-447h481v-164h-481v-483h680v-168h-901zM447 1489q-49 0 -83 33.5t-34 83.5q0 46 34.5 80t82.5 34t82 -34t34 -80q0 -50 -33.5 -83.5t-82.5 -33.5zM787 1489q-48 0 -81.5 33.5t-33.5 83.5q0 46 33.5 80t81.5 34q47 0 81.5 -34t34.5 -80
q0 -50 -34 -83.5t-82 -33.5z" />
    <glyph glyph-name="Igrave" unicode="&#xcc;" horiz-adv-x="549" 
d="M387 0h-225v1434h225v-1434zM348 1479h-118l-181 180v65h211l88 -194v-51z" />
    <glyph glyph-name="Iacute" unicode="&#xcd;" horiz-adv-x="549" 
d="M387 0h-225v1434h225v-1434zM207 1479v51l88 194h209v-65l-176 -180h-121z" />
    <glyph glyph-name="Icircumflex" unicode="&#xce;" horiz-adv-x="549" 
d="M387 0h-225v1434h225v-1434zM25 1479v59l178 193h150l172 -193v-59h-117l-135 110l-138 -110h-110z" />
    <glyph glyph-name="Idieresis" unicode="&#xcf;" horiz-adv-x="549" 
d="M387 0h-225v1434h225v-1434zM105 1489q-49 0 -83 33.5t-34 83.5q0 46 34.5 80t82.5 34t82 -34t34 -80q0 -50 -33.5 -83.5t-82.5 -33.5zM445 1489q-48 0 -81.5 33.5t-33.5 83.5q0 46 33.5 80t81.5 34q47 0 81.5 -34t34.5 -80q0 -50 -34 -83.5t-82 -33.5z" />
    <glyph glyph-name="Ntilde" unicode="&#xd1;" horiz-adv-x="1391" 
d="M158 0v1434h256l624 -1055h4v1055h193v-1434h-205l-678 1149h-4v-1149h-190zM432 1487v61q15 80 60.5 124t115.5 44q50 0 120.5 -32.5t92.5 -32.5q56 0 74 67h118v-59q-15 -80 -60 -124t-116 -44q-48 0 -118.5 34t-90.5 34q-60 0 -73 -72h-123z" />
    <glyph glyph-name="Ograve" unicode="&#xd2;" horiz-adv-x="1462" 
d="M731 -12q-132 0 -249 48t-206.5 138t-141.5 230.5t-52 312.5t52 312t141.5 230t206.5 138.5t249 48.5t248.5 -48.5t205.5 -139t141 -230.5t52 -311q0 -172 -52 -312.5t-141 -230.5t-205.5 -138t-248.5 -48zM731 154q189 0 304.5 142.5t115.5 416.5q0 276 -116 421.5
t-304 145.5q-190 0 -305 -145.5t-115 -421.5q0 -275 115 -417t305 -142zM805 1479h-118l-181 180v65h211l88 -194v-51z" />
    <glyph glyph-name="Oacute" unicode="&#xd3;" horiz-adv-x="1462" 
d="M731 -12q-132 0 -249 48t-206.5 138t-141.5 230.5t-52 312.5t52 312t141.5 230t206.5 138.5t249 48.5t248.5 -48.5t205.5 -139t141 -230.5t52 -311q0 -172 -52 -312.5t-141 -230.5t-205.5 -138t-248.5 -48zM731 154q189 0 304.5 142.5t115.5 416.5q0 276 -116 421.5
t-304 145.5q-190 0 -305 -145.5t-115 -421.5q0 -275 115 -417t305 -142zM662 1479v51l88 194h209v-65l-176 -180h-121z" />
    <glyph glyph-name="Ocircumflex" unicode="&#xd4;" horiz-adv-x="1462" 
d="M479 1479v59l178 193h150l172 -193v-59h-117l-135 110l-138 -110h-110zM731 -12q-132 0 -249 48t-206.5 138t-141.5 230.5t-52 312.5t52 312t141.5 230t206.5 138.5t249 48.5t248.5 -48.5t205.5 -139t141 -230.5t52 -311q0 -172 -52 -312.5t-141 -230.5t-205.5 -138
t-248.5 -48zM731 154q189 0 304.5 142.5t115.5 416.5q0 276 -116 421.5t-304 145.5q-190 0 -305 -145.5t-115 -421.5q0 -275 115 -417t305 -142z" />
    <glyph glyph-name="Otilde" unicode="&#xd5;" horiz-adv-x="1462" 
d="M731 -12q-132 0 -249 48t-206.5 138t-141.5 230.5t-52 312.5t52 312t141.5 230t206.5 138.5t249 48.5t248.5 -48.5t205.5 -139t141 -230.5t52 -311q0 -172 -52 -312.5t-141 -230.5t-205.5 -138t-248.5 -48zM731 154q189 0 304.5 142.5t115.5 416.5q0 276 -116 421.5
t-304 145.5q-190 0 -305 -145.5t-115 -421.5q0 -275 115 -417t305 -142zM439 1487v61q15 80 60.5 124t115.5 44q50 0 120.5 -32.5t92.5 -32.5q56 0 74 67h118v-59q-15 -80 -60 -124t-116 -44q-48 0 -118.5 34t-90.5 34q-60 0 -73 -72h-123z" />
    <glyph glyph-name="Odieresis" unicode="&#xd6;" horiz-adv-x="1462" 
d="M731 -12q-132 0 -249 48t-206.5 138t-141.5 230.5t-52 312.5t52 312t141.5 230t206.5 138.5t249 48.5t248.5 -48.5t205.5 -139t141 -230.5t52 -311q0 -172 -52 -312.5t-141 -230.5t-205.5 -138t-248.5 -48zM731 154q189 0 304.5 142.5t115.5 416.5q0 276 -116 421.5
t-304 145.5q-190 0 -305 -145.5t-115 -421.5q0 -275 115 -417t305 -142zM560 1489q-49 0 -83 33.5t-34 83.5q0 46 34.5 80t82.5 34t82 -34t34 -80q0 -50 -33.5 -83.5t-82.5 -33.5zM900 1489q-48 0 -81.5 33.5t-33.5 83.5q0 46 33.5 80t81.5 34q47 0 81.5 -34t34.5 -80
q0 -50 -34 -83.5t-82 -33.5z" />
    <glyph glyph-name="multiply" unicode="&#xd7;" horiz-adv-x="1001" 
d="M797 266l-295 307l-297 -307l-113 121l293 307l-293 305l113 121l297 -305l295 305l112 -121l-295 -305l295 -307z" />
    <glyph glyph-name="Ugrave" unicode="&#xd9;" horiz-adv-x="1380" 
d="M715 164q76 0 131.5 17t98.5 56.5t65 110.5t22 174v912h199v-906q0 -273 -131 -406.5t-398 -133.5q-259 0 -405.5 136.5t-146.5 403.5v906h223v-912q0 -104 24.5 -175.5t72 -110.5t106.5 -55.5t139 -16.5zM775 1479h-118l-181 180v65h211l88 -194v-51z" />
    <glyph glyph-name="Uacute" unicode="&#xda;" horiz-adv-x="1380" 
d="M715 164q76 0 131.5 17t98.5 56.5t65 110.5t22 174v912h199v-906q0 -273 -131 -406.5t-398 -133.5q-259 0 -405.5 136.5t-146.5 403.5v906h223v-912q0 -104 24.5 -175.5t72 -110.5t106.5 -55.5t139 -16.5zM633 1479v51l88 194h209v-65l-176 -180h-121z" />
    <glyph glyph-name="Ucircumflex" unicode="&#xdb;" horiz-adv-x="1380" 
d="M715 164q76 0 131.5 17t98.5 56.5t65 110.5t22 174v912h199v-906q0 -273 -131 -406.5t-398 -133.5q-259 0 -405.5 136.5t-146.5 403.5v906h223v-912q0 -104 24.5 -175.5t72 -110.5t106.5 -55.5t139 -16.5zM453 1479v59l178 193h150l172 -193v-59h-117l-135 110l-138 -110
h-110z" />
    <glyph glyph-name="Udieresis" unicode="&#xdc;" horiz-adv-x="1380" 
d="M715 164q76 0 131.5 17t98.5 56.5t65 110.5t22 174v912h199v-906q0 -273 -131 -406.5t-398 -133.5q-259 0 -405.5 136.5t-146.5 403.5v906h223v-912q0 -104 24.5 -175.5t72 -110.5t106.5 -55.5t139 -16.5zM533 1489q-49 0 -83 33.5t-34 83.5q0 46 34.5 80t82.5 34t82 -34
t34 -80q0 -50 -33.5 -83.5t-82.5 -33.5zM873 1489q-48 0 -81.5 33.5t-33.5 83.5q0 46 33.5 80t81.5 34q47 0 81.5 -34t34.5 -80q0 -50 -34 -83.5t-82 -33.5z" />
    <glyph glyph-name="Yacute" unicode="&#xdd;" horiz-adv-x="1190" 
d="M715 0h-221v573l-439 789v72h203l352 -650h2l344 650h179v-72l-420 -782v-580zM538 1479v51l88 194h209v-65l-176 -180h-121z" />
    <glyph glyph-name="germandbls" unicode="&#xdf;" horiz-adv-x="1210" 
d="M137 0v1028q0 200 127 311t357 111q184 0 291.5 -71t107.5 -216q0 -77 -51.5 -143.5t-139.5 -134.5q-69 -52 -94.5 -82.5t-25.5 -61.5q0 -34 33.5 -60t125.5 -63q71 -29 116.5 -55t84.5 -63t56.5 -86.5t17.5 -116.5q0 -142 -99 -225.5t-278 -83.5q-171 0 -268 73v160h67
q87 -74 201 -74q87 0 137.5 35.5t50.5 98.5q0 60 -42.5 94.5t-157.5 79.5t-171.5 102t-56.5 148q0 42 9.5 75.5t32.5 66t43.5 54t62.5 60.5q6 6 24.5 22l24.5 21.5l21 19.5t20 21t15.5 19.5t14.5 21.5l9.5 21t7.5 23.5t2 24.5q0 67 -51.5 103t-143.5 36q-135 0 -203.5 -71.5
t-68.5 -202.5v-1020h-209z" />
    <glyph glyph-name="agrave" unicode="&#xe0;" horiz-adv-x="1057" 
d="M928 0h-82q-63 0 -89 24t-34 95q-61 -67 -137.5 -99t-182.5 -32q-151 0 -243 83t-92 236q0 160 113.5 243t301.5 83q120 0 234 -29v141q0 95 -53.5 139t-161.5 44q-171 0 -293 -88h-66v155q186 92 385 92q196 0 298 -78t102 -249v-760zM471 131q78 0 136 32.5t110 90.5
v227q-97 21 -199 21q-113 0 -179.5 -45t-66.5 -138q0 -95 54 -141.5t145 -46.5zM587 1161h-118l-193 205v68h209l102 -224v-49z" />
    <glyph glyph-name="aacute" unicode="&#xe1;" horiz-adv-x="1057" 
d="M928 0h-82q-63 0 -89 24t-34 95q-61 -67 -137.5 -99t-182.5 -32q-151 0 -243 83t-92 236q0 160 113.5 243t301.5 83q120 0 234 -29v141q0 95 -53.5 139t-161.5 44q-171 0 -293 -88h-66v155q186 92 385 92q196 0 298 -78t102 -249v-760zM471 131q78 0 136 32.5t110 90.5
v227q-97 21 -199 21q-113 0 -179.5 -45t-66.5 -138q0 -95 54 -141.5t145 -46.5zM590 1161h-121v49l103 224h210v-68z" />
    <glyph glyph-name="acircumflex" unicode="&#xe2;" horiz-adv-x="1057" 
d="M928 0h-82q-63 0 -89 24t-34 95q-61 -67 -137.5 -99t-182.5 -32q-151 0 -243 83t-92 236q0 160 113.5 243t301.5 83q120 0 234 -29v141q0 95 -53.5 139t-161.5 44q-171 0 -293 -88h-66v155q186 92 385 92q196 0 298 -78t102 -249v-760zM471 131q78 0 136 32.5t110 90.5
v227q-97 21 -199 21q-113 0 -179.5 -45t-66.5 -138q0 -95 54 -141.5t145 -46.5zM275 1161v60l180 213h150l174 -213v-60h-117l-137 131l-142 -131h-108z" />
    <glyph glyph-name="atilde" unicode="&#xe3;" horiz-adv-x="1057" 
d="M928 0h-82q-63 0 -89 24t-34 95q-61 -67 -137.5 -99t-182.5 -32q-151 0 -243 83t-92 236q0 160 113.5 243t301.5 83q120 0 234 -29v141q0 95 -53.5 139t-161.5 44q-171 0 -293 -88h-66v155q186 92 385 92q196 0 298 -78t102 -249v-760zM471 131q78 0 136 32.5t110 90.5
v227q-97 21 -199 21q-113 0 -179.5 -45t-66.5 -138q0 -95 54 -141.5t145 -46.5zM238 1176v59q15 79 60.5 123.5t115.5 44.5q50 0 120.5 -33t92.5 -33q56 0 74 70h118v-61q-15 -80 -60 -124t-116 -44q-48 0 -118.5 33.5t-90.5 33.5q-60 0 -73 -69h-123z" />
    <glyph glyph-name="adieresis" unicode="&#xe4;" horiz-adv-x="1057" 
d="M928 0h-82q-63 0 -89 24t-34 95q-61 -67 -137.5 -99t-182.5 -32q-151 0 -243 83t-92 236q0 160 113.5 243t301.5 83q120 0 234 -29v141q0 95 -53.5 139t-161.5 44q-171 0 -293 -88h-66v155q186 92 385 92q196 0 298 -78t102 -249v-760zM471 131q78 0 136 32.5t110 90.5
v227q-97 21 -199 21q-113 0 -179.5 -45t-66.5 -138q0 -95 54 -141.5t145 -46.5zM352 1190q-48 0 -82.5 33.5t-34.5 81.5q0 47 34.5 80.5t82.5 33.5q49 0 82.5 -33.5t33.5 -80.5q0 -48 -33.5 -81.5t-82.5 -33.5zM704 1190q-48 0 -81.5 33.5t-33.5 81.5q0 47 33.5 80.5
t81.5 33.5t82.5 -33.5t34.5 -80.5q0 -48 -34.5 -81.5t-82.5 -33.5z" />
    <glyph glyph-name="aring" unicode="&#xe5;" horiz-adv-x="1057" 
d="M928 0h-82q-63 0 -89 24t-34 95q-61 -67 -137.5 -99t-182.5 -32q-151 0 -243 83t-92 236q0 160 113.5 243t301.5 83q120 0 234 -29v141q0 95 -53.5 139t-161.5 44q-171 0 -293 -88h-66v155q186 92 385 92q196 0 298 -78t102 -249v-760zM471 131q78 0 136 32.5t110 90.5
v227q-97 21 -199 21q-113 0 -179.5 -45t-66.5 -138q0 -95 54 -141.5t145 -46.5zM527 1167q-82 0 -137.5 52t-55.5 139t56 140.5t137 53.5t137.5 -53.5t56.5 -140.5q0 -86 -56.5 -138.5t-137.5 -52.5zM527 1268q37 0 61.5 25.5t24.5 64.5q0 41 -24.5 66.5t-61.5 25.5
q-36 0 -60 -25.5t-24 -66.5q0 -39 24 -64.5t60 -25.5z" />
    <glyph glyph-name="ae" unicode="&#xe6;" horiz-adv-x="1720" 
d="M422 -12q-163 0 -258.5 82.5t-95.5 238.5t116 241t310 85h223v110q0 95 -53.5 139t-161.5 44q-171 0 -293 -88h-66v155q186 92 385 92q259 0 332 -143q137 143 342 143q218 0 334.5 -128.5t116.5 -387.5q0 -18 -2 -45t-2 -28h-721q8 -187 88.5 -270t236.5 -83
q187 0 297 99h70v-146q-166 -110 -395 -110q-286 0 -416 194q-145 -194 -387 -194zM467 131q174 0 289 158q-38 94 -41 209h-199q-113 0 -178.5 -44t-65.5 -135q0 -95 53.5 -141.5t141.5 -46.5zM1202 944q-110 0 -181.5 -73.5t-88.5 -235.5h514q-4 165 -65.5 237t-178.5 72z
" />
    <glyph glyph-name="ccedilla" unicode="&#xe7;" horiz-adv-x="1001" 
d="M457 -154v154q-184 36 -285.5 176t-101.5 359q0 253 148 402.5t380 149.5q191 0 322 -86v-163h-86q-88 88 -238 88q-141 0 -227 -103t-86 -288q0 -191 82 -289.5t227 -98.5q161 0 260 103h78v-152q-142 -110 -342 -110h-21v-51q158 -7 158 -146q0 -69 -52 -109t-136 -40
q-80 0 -150 36v99h53q24 -31 78 -31q70 0 70 49q0 51 -82 51h-49z" />
    <glyph glyph-name="egrave" unicode="&#xe8;" horiz-adv-x="1077" 
d="M1006 496h-721q8 -186 89 -268.5t236 -82.5q180 0 297 99h68v-146q-162 -110 -395 -110q-243 0 -376.5 145t-133.5 399q0 252 138.5 403.5t350.5 151.5q216 0 332.5 -129.5t116.5 -388.5q0 -17 -1 -44t-1 -29zM559 944q-111 0 -183 -74.5t-87 -236.5h512
q-4 167 -64.5 239t-177.5 72zM616 1161h-118l-193 205v68h209l102 -224v-49z" />
    <glyph glyph-name="eacute" unicode="&#xe9;" horiz-adv-x="1077" 
d="M1006 496h-721q8 -186 89 -268.5t236 -82.5q180 0 297 99h68v-146q-162 -110 -395 -110q-243 0 -376.5 145t-133.5 399q0 252 138.5 403.5t350.5 151.5q216 0 332.5 -129.5t116.5 -388.5q0 -17 -1 -44t-1 -29zM559 944q-111 0 -183 -74.5t-87 -236.5h512
q-4 167 -64.5 239t-177.5 72zM617 1161h-121v49l103 224h210v-68z" />
    <glyph glyph-name="ecircumflex" unicode="&#xea;" horiz-adv-x="1077" 
d="M1006 496h-721q8 -186 89 -268.5t236 -82.5q180 0 297 99h68v-146q-162 -110 -395 -110q-243 0 -376.5 145t-133.5 399q0 252 138.5 403.5t350.5 151.5q216 0 332.5 -129.5t116.5 -388.5q0 -17 -1 -44t-1 -29zM559 944q-111 0 -183 -74.5t-87 -236.5h512
q-4 167 -64.5 239t-177.5 72zM303 1161v60l180 213h150l174 -213v-60h-117l-137 131l-142 -131h-108z" />
    <glyph glyph-name="edieresis" unicode="&#xeb;" horiz-adv-x="1077" 
d="M1006 496h-721q8 -186 89 -268.5t236 -82.5q180 0 297 99h68v-146q-162 -110 -395 -110q-243 0 -376.5 145t-133.5 399q0 252 138.5 403.5t350.5 151.5q216 0 332.5 -129.5t116.5 -388.5q0 -17 -1 -44t-1 -29zM559 944q-111 0 -183 -74.5t-87 -236.5h512
q-4 167 -64.5 239t-177.5 72zM377 1190q-48 0 -82.5 33.5t-34.5 81.5q0 47 34.5 80.5t82.5 33.5q49 0 82.5 -33.5t33.5 -80.5q0 -48 -33.5 -81.5t-82.5 -33.5zM729 1190q-48 0 -81.5 33.5t-33.5 81.5q0 47 33.5 80.5t81.5 33.5t82.5 -33.5t34.5 -80.5q0 -48 -34.5 -81.5
t-82.5 -33.5z" />
    <glyph glyph-name="igrave" unicode="&#xec;" horiz-adv-x="492" 
d="M348 0h-209v1071h117q61 0 76.5 -28.5t15.5 -131.5v-911zM316 1161h-118l-193 205v68h209l102 -224v-49z" />
    <glyph glyph-name="iacute" unicode="&#xed;" horiz-adv-x="492" 
d="M348 0h-209v1071h117q61 0 76.5 -28.5t15.5 -131.5v-911zM287 1161h-121v49l103 224h210v-68z" />
    <glyph glyph-name="icircumflex" unicode="&#xee;" horiz-adv-x="492" 
d="M348 0h-209v1071h117q61 0 76.5 -28.5t15.5 -131.5v-911zM-7 1161v60l180 213h150l174 -213v-60h-117l-137 131l-142 -131h-108z" />
    <glyph glyph-name="idieresis" unicode="&#xef;" horiz-adv-x="492" 
d="M348 0h-209v1071h117q61 0 76.5 -28.5t15.5 -131.5v-911zM71 1190q-48 0 -82.5 33.5t-34.5 81.5q0 47 34.5 80.5t82.5 33.5q49 0 82.5 -33.5t33.5 -80.5q0 -48 -33.5 -81.5t-82.5 -33.5zM423 1190q-48 0 -81.5 33.5t-33.5 81.5q0 47 33.5 80.5t81.5 33.5t82.5 -33.5
t34.5 -80.5q0 -48 -34.5 -81.5t-82.5 -33.5z" />
    <glyph glyph-name="ntilde" unicode="&#xf1;" horiz-adv-x="1159" 
d="M137 1071h131q41 0 57.5 -26.5t20.5 -108.5q84 67 191 109t219 42q59 0 105.5 -13.5t86 -45.5t61 -91.5t21.5 -143.5v-793h-209v743q0 96 -40 133t-122 37q-130 0 -313 -106v-807h-209v1071zM298 1176v59q15 79 60.5 123.5t115.5 44.5q50 0 120.5 -33t92.5 -33
q56 0 74 70h118v-61q-15 -80 -60 -124t-116 -44q-48 0 -118.5 33.5t-90.5 33.5q-60 0 -73 -69h-123z" />
    <glyph glyph-name="ograve" unicode="&#xf2;" horiz-adv-x="1163" 
d="M598 -12q-234 0 -378 144q-150 150 -150 400q0 127 40 231.5t110.5 175.5t167.5 109.5t210 38.5q230 0 378 -151t148 -404q0 -248 -150 -400q-142 -144 -376 -144zM598 145q142 0 224 97q83 97 83 290q0 194 -83 297q-83 101 -224 101t-225 -101q-84 -102 -84 -297
q0 -194 84 -290q84 -97 225 -97zM641 1161h-118l-193 205v68h209l102 -224v-49z" />
    <glyph glyph-name="oacute" unicode="&#xf3;" horiz-adv-x="1163" 
d="M598 -12q-234 0 -378 144q-150 150 -150 400q0 127 40 231.5t110.5 175.5t167.5 109.5t210 38.5q230 0 378 -151t148 -404q0 -248 -150 -400q-142 -144 -376 -144zM598 145q142 0 224 97q83 97 83 290q0 194 -83 297q-83 101 -224 101t-225 -101q-84 -102 -84 -297
q0 -194 84 -290q84 -97 225 -97zM641 1161h-121v49l103 224h210v-68z" />
    <glyph glyph-name="ocircumflex" unicode="&#xf4;" horiz-adv-x="1163" 
d="M598 -12q-234 0 -378 144q-150 150 -150 400q0 127 40 231.5t110.5 175.5t167.5 109.5t210 38.5q230 0 378 -151t148 -404q0 -248 -150 -400q-142 -144 -376 -144zM598 145q142 0 224 97q83 97 83 290q0 194 -83 297q-83 101 -224 101t-225 -101q-84 -102 -84 -297
q0 -194 84 -290q84 -97 225 -97zM329 1161v60l180 213h150l174 -213v-60h-117l-137 131l-142 -131h-108z" />
    <glyph glyph-name="otilde" unicode="&#xf5;" horiz-adv-x="1163" 
d="M598 -12q-234 0 -378 144q-150 150 -150 400q0 127 40 231.5t110.5 175.5t167.5 109.5t210 38.5q230 0 378 -151t148 -404q0 -248 -150 -400q-142 -144 -376 -144zM598 145q142 0 224 97q83 97 83 290q0 194 -83 297q-83 101 -224 101t-225 -101q-84 -102 -84 -297
q0 -194 84 -290q84 -97 225 -97zM290 1176v59q15 79 60.5 123.5t115.5 44.5q50 0 120.5 -33t92.5 -33q56 0 74 70h118v-61q-15 -80 -60 -124t-116 -44q-48 0 -118.5 33.5t-90.5 33.5q-60 0 -73 -69h-123z" />
    <glyph glyph-name="odieresis" unicode="&#xf6;" horiz-adv-x="1163" 
d="M598 -12q-234 0 -378 144q-150 150 -150 400q0 127 40 231.5t110.5 175.5t167.5 109.5t210 38.5q230 0 378 -151t148 -404q0 -248 -150 -400q-142 -144 -376 -144zM598 145q142 0 224 97q83 97 83 290q0 194 -83 297q-83 101 -224 101t-225 -101q-84 -102 -84 -297
q0 -194 84 -290q84 -97 225 -97zM406 1190q-48 0 -82.5 33.5t-34.5 81.5q0 47 34.5 80.5t82.5 33.5q49 0 82.5 -33.5t33.5 -80.5q0 -48 -33.5 -81.5t-82.5 -33.5zM758 1190q-48 0 -81.5 33.5t-33.5 81.5q0 47 33.5 80.5t81.5 33.5t82.5 -33.5t34.5 -80.5q0 -48 -34.5 -81.5
t-82.5 -33.5z" />
    <glyph glyph-name="divide" unicode="&#xf7;" horiz-adv-x="1024" 
d="M954 621h-884v174h884v-174zM512 496q53 0 91 -38t38 -91t-38 -90t-91 -37t-89 36.5t-36 90.5q0 53 36.5 91t88.5 38zM512 1176q53 0 91 -38t38 -91t-38 -90t-91 -37t-89 36.5t-36 90.5q0 53 36.5 91t88.5 38z" />
    <glyph glyph-name="ugrave" unicode="&#xf9;" horiz-adv-x="1171" 
d="M512 150q131 0 303 102v819h209v-1071h-131q-39 0 -55.5 23t-20.5 98q-84 -61 -185 -98t-202 -37q-293 0 -293 286v799h209v-752q0 -96 42 -132.5t124 -36.5zM643 1161h-118l-193 205v68h209l102 -224v-49z" />
    <glyph glyph-name="uacute" unicode="&#xfa;" horiz-adv-x="1171" 
d="M512 150q131 0 303 102v819h209v-1071h-131q-39 0 -55.5 23t-20.5 98q-84 -61 -185 -98t-202 -37q-293 0 -293 286v799h209v-752q0 -96 42 -132.5t124 -36.5zM643 1161h-121v49l103 224h210v-68z" />
    <glyph glyph-name="ucircumflex" unicode="&#xfb;" horiz-adv-x="1171" 
d="M512 150q131 0 303 102v819h209v-1071h-131q-39 0 -55.5 23t-20.5 98q-84 -61 -185 -98t-202 -37q-293 0 -293 286v799h209v-752q0 -96 42 -132.5t124 -36.5zM329 1161v60l180 213h150l174 -213v-60h-117l-137 131l-142 -131h-108z" />
    <glyph glyph-name="udieresis" unicode="&#xfc;" horiz-adv-x="1171" 
d="M512 150q131 0 303 102v819h209v-1071h-131q-39 0 -55.5 23t-20.5 98q-84 -61 -185 -98t-202 -37q-293 0 -293 286v799h209v-752q0 -96 42 -132.5t124 -36.5zM405 1190q-48 0 -82.5 33.5t-34.5 81.5q0 47 34.5 80.5t82.5 33.5q49 0 82.5 -33.5t33.5 -80.5
q0 -48 -33.5 -81.5t-82.5 -33.5zM757 1190q-48 0 -81.5 33.5t-33.5 81.5q0 47 33.5 80.5t81.5 33.5t82.5 -33.5t34.5 -80.5q0 -48 -34.5 -81.5t-82.5 -33.5z" />
    <glyph glyph-name="yacute" unicode="&#xfd;" horiz-adv-x="1077" 
d="M309 -332v60l148 333l-402 953v57h197l305 -752h2l285 752h180v-57l-535 -1346h-180zM619 1161h-121v49l103 224h210v-68z" />
    <glyph glyph-name="ydieresis" unicode="&#xff;" horiz-adv-x="1077" 
d="M309 -332v60l148 333l-402 953v57h197l305 -752h2l285 752h180v-57l-535 -1346h-180zM380 1190q-48 0 -82.5 33.5t-34.5 81.5q0 47 34.5 80.5t82.5 33.5q49 0 82.5 -33.5t33.5 -80.5q0 -48 -33.5 -81.5t-82.5 -33.5zM732 1190q-48 0 -81.5 33.5t-33.5 81.5
q0 47 33.5 80.5t81.5 33.5t82.5 -33.5t34.5 -80.5q0 -48 -34.5 -81.5t-82.5 -33.5z" />
    <glyph glyph-name="Amacron" unicode="&#x100;" horiz-adv-x="1309" 
d="M63 0v68l474 1366h237l471 -1366v-68h-211l-133 401h-526l-129 -401h-183zM635 1198l-207 -633h418l-207 633h-4zM899 1667v-149h-498v149h498z" />
    <glyph glyph-name="amacron" unicode="&#x101;" horiz-adv-x="1057" 
d="M928 0h-82q-63 0 -89 24t-34 95q-61 -67 -137.5 -99t-182.5 -32q-151 0 -243 83t-92 236q0 160 113.5 243t301.5 83q120 0 234 -29v141q0 95 -53.5 139t-161.5 44q-171 0 -293 -88h-66v155q186 92 385 92q196 0 298 -78t102 -249v-760zM471 131q78 0 136 32.5t110 90.5
v227q-97 21 -199 21q-113 0 -179.5 -45t-66.5 -138q0 -95 54 -141.5t145 -46.5zM766 1368v-147h-481v147h481z" />
    <glyph glyph-name="Abreve" unicode="&#x102;" horiz-adv-x="1309" 
d="M63 0v68l474 1366h237l471 -1366v-68h-211l-133 401h-526l-129 -401h-183zM635 1198l-207 -633h418l-207 633h-4zM649 1483q-101 0 -167 52.5t-81 129.5v59h135q5 -43 34 -68.5t79 -25.5q101 0 114 94h136v-59q-17 -78 -82 -130t-168 -52z" />
    <glyph glyph-name="abreve" unicode="&#x103;" horiz-adv-x="1057" 
d="M928 0h-82q-63 0 -89 24t-34 95q-61 -67 -137.5 -99t-182.5 -32q-151 0 -243 83t-92 236q0 160 113.5 243t301.5 83q120 0 234 -29v141q0 95 -53.5 139t-161.5 44q-171 0 -293 -88h-66v155q186 92 385 92q196 0 298 -78t102 -249v-760zM471 131q78 0 136 32.5t110 90.5
v227q-97 21 -199 21q-113 0 -179.5 -45t-66.5 -138q0 -95 54 -141.5t145 -46.5zM527 1163q-101 0 -167 57.5t-81 141.5v59h135q13 -110 113 -110q101 0 114 110h136v-59q-17 -84 -82 -141.5t-168 -57.5z" />
    <glyph glyph-name="Aogonek" unicode="&#x104;" horiz-adv-x="1309" 
d="M1145 -338q-82 0 -130 40.5t-48 111.5q0 62 36 108q33 45 82 78h-51l-133 401h-526l-129 -401h-183v68l474 1366h237l471 -1366v-68h-22q-48 -41 -70.5 -71t-22.5 -66q0 -70 87 -70h49v-104q-49 -27 -121 -27zM635 1198l-207 -633h418l-207 633h-4z" />
    <glyph glyph-name="aogonek" unicode="&#x105;" horiz-adv-x="1057" 
d="M827 -338q-84 0 -132 40t-48 112q0 60 39 112q39 54 92 84q-24 10 -36.5 35.5t-18.5 73.5q-60 -67 -136.5 -99t-183.5 -32q-150 0 -242.5 83.5t-92.5 235.5q0 159 113.5 242.5t301.5 83.5q123 0 234 -29v141q0 95 -53.5 139t-161.5 44q-171 0 -293 -88h-66v155
q77 37 164 64q90 28 221 28q191 0 296 -75q104 -77 104 -252v-760h-23q-47 -39 -69.5 -70t-22.5 -67q0 -70 86 -70h49v-104q-51 -27 -121 -27zM471 131q85 0 143 35q56 35 103 88v227q-84 21 -199 21q-108 0 -177 -42t-69 -141q0 -101 57 -144q56 -44 142 -44z" />
    <glyph glyph-name="Cacute" unicode="&#x106;" horiz-adv-x="1255" 
d="M725 -12q-290 0 -463.5 192.5t-173.5 536.5q0 170 50 308.5t138 230t207.5 141t259.5 49.5q144 0 234 -28t180 -87v-174h-86q-119 119 -321 119q-199 0 -317 -143t-118 -408q0 -281 108.5 -425t309.5 -144q126 0 212.5 41t156.5 114h72v-170q-176 -153 -449 -153z
M641 1479v51l88 194h209v-65l-176 -180h-121z" />
    <glyph glyph-name="cacute" unicode="&#x107;" horiz-adv-x="1001" 
d="M588 -12q-244 0 -381 145.5t-137 401.5q0 253 148 402.5t380 149.5q191 0 322 -86v-163h-86q-88 88 -238 88q-141 0 -227 -103t-86 -288q0 -191 82 -289.5t227 -98.5q161 0 260 103h78v-152q-142 -110 -342 -110zM621 1161h-121v49l103 224h210v-68z" />
    <glyph glyph-name="Ccircumflex" unicode="&#x108;" horiz-adv-x="1255" 
d="M725 -12q-290 0 -463.5 192.5t-173.5 536.5q0 170 50 308.5t138 230t207.5 141t259.5 49.5q144 0 234 -28t180 -87v-174h-86q-119 119 -321 119q-199 0 -317 -143t-118 -408q0 -281 108.5 -425t309.5 -144q126 0 212.5 41t156.5 114h72v-170q-176 -153 -449 -153z
M457 1479v59l178 193h150l172 -193v-59h-117l-135 110l-138 -110h-110z" />
    <glyph glyph-name="ccircumflex" unicode="&#x109;" horiz-adv-x="1001" 
d="M588 -12q-244 0 -381 145.5t-137 401.5q0 253 148 402.5t380 149.5q191 0 322 -86v-163h-86q-88 88 -238 88q-141 0 -227 -103t-86 -288q0 -191 82 -289.5t227 -98.5q161 0 260 103h78v-152q-142 -110 -342 -110zM307 1161v60l180 213h150l174 -213v-60h-117l-137 131
l-142 -131h-108z" />
    <glyph glyph-name="Cdotaccent" unicode="&#x10a;" horiz-adv-x="1255" 
d="M725 -12q-290 0 -463.5 192.5t-173.5 536.5q0 170 50 308.5t138 230t207.5 141t259.5 49.5q144 0 234 -28t180 -87v-174h-86q-119 119 -321 119q-199 0 -317 -143t-118 -408q0 -281 108.5 -425t309.5 -144q126 0 212.5 41t156.5 114h72v-170q-176 -153 -449 -153z" />
    <glyph glyph-name="cdotaccent" unicode="&#x10b;" horiz-adv-x="1001" 
d="M588 -12q-244 0 -381 145.5t-137 401.5q0 253 148 402.5t380 149.5q191 0 322 -86v-163h-86q-88 88 -238 88q-141 0 -227 -103t-86 -288q0 -191 82 -289.5t227 -98.5q161 0 260 103h78v-152q-142 -110 -342 -110zM559 1190q-50 0 -85.5 35t-35.5 84q0 50 35.5 86.5
t85.5 36.5q48 0 84.5 -36.5t36.5 -86.5q0 -49 -36 -84t-85 -35z" />
    <glyph glyph-name="Ccaron" unicode="&#x10c;" horiz-adv-x="1255" 
d="M725 -12q-290 0 -463.5 192.5t-173.5 536.5q0 170 50 308.5t138 230t207.5 141t259.5 49.5q144 0 234 -28t180 -87v-174h-86q-119 119 -321 119q-199 0 -317 -143t-118 -408q0 -281 108.5 -425t309.5 -144q126 0 212.5 41t156.5 114h72v-170q-176 -153 -449 -153z
M957 1731v-60l-181 -192h-147l-172 192v60h115l137 -109l137 109h111z" />
    <glyph glyph-name="ccaron" unicode="&#x10d;" horiz-adv-x="1001" 
d="M588 -12q-244 0 -381 145.5t-137 401.5q0 253 148 402.5t380 149.5q191 0 322 -86v-163h-86q-88 88 -238 88q-141 0 -227 -103t-86 -288q0 -191 82 -289.5t227 -98.5q161 0 260 103h78v-152q-142 -110 -342 -110zM811 1434v-60l-181 -213h-149l-174 213v60h117l137 -131
l141 131h109z" />
    <glyph glyph-name="Emacron" unicode="&#x112;" horiz-adv-x="1139" 
d="M158 0v1434h878v-172h-657v-447h481v-164h-481v-483h680v-168h-901zM867 1667v-149h-498v149h498z" />
    <glyph glyph-name="emacron" unicode="&#x113;" horiz-adv-x="1077" 
d="M1006 496h-721q8 -186 89 -268.5t236 -82.5q180 0 297 99h68v-146q-162 -110 -395 -110q-243 0 -376.5 145t-133.5 399q0 252 138.5 403.5t350.5 151.5q216 0 332.5 -129.5t116.5 -388.5q0 -17 -1 -44t-1 -29zM559 944q-111 0 -183 -74.5t-87 -236.5h512
q-4 167 -64.5 239t-177.5 72zM794 1368v-147h-481v147h481z" />
    <glyph glyph-name="Ebreve" unicode="&#x114;" horiz-adv-x="1139" 
d="M158 0v1434h878v-172h-657v-447h481v-164h-481v-483h680v-168h-901zM617 1483q-101 0 -167 52.5t-81 129.5v59h135q5 -43 34 -68.5t79 -25.5q101 0 114 94h136v-59q-17 -78 -82 -130t-168 -52z" />
    <glyph glyph-name="ebreve" unicode="&#x115;" horiz-adv-x="1077" 
d="M1006 496h-721q8 -186 89 -268.5t236 -82.5q180 0 297 99h68v-146q-162 -110 -395 -110q-243 0 -376.5 145t-133.5 399q0 252 138.5 403.5t350.5 151.5q216 0 332.5 -129.5t116.5 -388.5q0 -17 -1 -44t-1 -29zM559 944q-111 0 -183 -74.5t-87 -236.5h512
q-4 167 -64.5 239t-177.5 72zM553 1163q-101 0 -167 57.5t-81 141.5v59h135q13 -110 113 -110q101 0 114 110h136v-59q-17 -84 -82 -141.5t-168 -57.5z" />
    <glyph glyph-name="Edotaccent" unicode="&#x116;" horiz-adv-x="1139" 
d="M158 0v1434h878v-172h-657v-447h481v-164h-481v-483h680v-168h-901z" />
    <glyph glyph-name="edotaccent" unicode="&#x117;" horiz-adv-x="1077" 
d="M1006 496h-721q8 -186 89 -268.5t236 -82.5q180 0 297 99h68v-146q-162 -110 -395 -110q-243 0 -376.5 145t-133.5 399q0 252 138.5 403.5t350.5 151.5q216 0 332.5 -129.5t116.5 -388.5q0 -17 -1 -44t-1 -29zM559 944q-111 0 -183 -74.5t-87 -236.5h512
q-4 167 -64.5 239t-177.5 72zM555 1190q-50 0 -85.5 35t-35.5 84q0 50 35.5 86.5t85.5 36.5q48 0 84.5 -36.5t36.5 -86.5q0 -49 -36 -84t-85 -35z" />
    <glyph glyph-name="Eogonek" unicode="&#x118;" horiz-adv-x="1139" 
d="M158 0v1434h878v-172h-657v-447h481v-164h-481v-483h680v-168h-80q-46 -40 -68 -70.5t-22 -66.5q0 -35 19.5 -52.5t66.5 -17.5h49v-104q-52 -27 -121 -27q-84 0 -132 40t-48 112q0 62 36 108q35 46 83 78h-684z" />
    <glyph glyph-name="eogonek" unicode="&#x119;" horiz-adv-x="1077" 
d="M809 -20q-24 -24 -36 -38t-22 -35.5t-10 -43.5q0 -70 86 -70h50v-104q-52 -27 -121 -27q-84 0 -131 40t-47 112q0 58 36 105q32 43 82 77q-56 -8 -116 -8q-246 0 -378 147q-132 146 -132 397q0 253 137.5 404t351.5 151q212 0 331 -125q118 -125 118 -393q0 -17 -1 -44.5
t-1 -28.5h-721q7 -189 90 -270t235 -81q180 0 297 99h68v-146q-11 -9 -73.5 -48.5t-92.5 -69.5zM559 944q-105 0 -179 -70t-91 -241h512q-5 175 -67 243q-65 68 -175 68z" />
    <glyph glyph-name="Ecaron" unicode="&#x11a;" horiz-adv-x="1139" 
d="M158 0v1434h878v-172h-657v-447h481v-164h-481v-483h680v-168h-901zM867 1731v-60l-181 -192h-147l-172 192v60h115l137 -109l137 109h111z" />
    <glyph glyph-name="ecaron" unicode="&#x11b;" horiz-adv-x="1077" 
d="M1006 496h-721q8 -186 89 -268.5t236 -82.5q180 0 297 99h68v-146q-162 -110 -395 -110q-243 0 -376.5 145t-133.5 399q0 252 138.5 403.5t350.5 151.5q216 0 332.5 -129.5t116.5 -388.5q0 -17 -1 -44t-1 -29zM559 944q-111 0 -183 -74.5t-87 -236.5h512
q-4 167 -64.5 239t-177.5 72zM807 1434v-60l-181 -213h-149l-174 213v60h117l137 -131l141 131h109z" />
    <glyph glyph-name="Gcircumflex" unicode="&#x11c;" horiz-adv-x="1354" 
d="M733 -12q-306 0 -478.5 188t-172.5 541q0 349 183 539t493 190q130 0 219.5 -23.5t183.5 -72.5v-185h-80q-60 53 -133 81t-186 28q-210 0 -327.5 -134.5t-117.5 -414.5q0 -288 105.5 -431.5t310.5 -143.5q156 0 260 51v370h-239v156h460v-629q-205 -110 -481 -110z
M473 1479v59l178 193h150l172 -193v-59h-117l-135 110l-138 -110h-110z" />
    <glyph glyph-name="gcircumflex" unicode="&#x11d;" horiz-adv-x="1169" 
d="M1032 1071v-1034q0 -185 -132 -283t-361 -98q-251 0 -412 90v158h68q115 -92 315 -92q313 0 313 239v115q-132 -139 -329 -139q-85 0 -158 29t-132.5 87.5t-93.5 159t-34 232.5q0 116 25.5 210.5t68 157t101 105t122 61t133.5 18.5q191 0 312 -116q21 100 98 100h96z
M549 180q141 0 274 133v512q-98 95 -245 95q-46 0 -85.5 -9.5t-78 -35.5t-66 -66t-44.5 -106t-17 -152q0 -105 19 -178.5t55 -115t81.5 -59.5t106.5 -18zM320 1161v60l180 213h150l174 -213v-60h-117l-137 131l-142 -131h-108z" />
    <glyph glyph-name="Gbreve" unicode="&#x11e;" horiz-adv-x="1354" 
d="M733 -12q-306 0 -478.5 188t-172.5 541q0 349 183 539t493 190q130 0 219.5 -23.5t183.5 -72.5v-185h-80q-60 53 -133 81t-186 28q-210 0 -327.5 -134.5t-117.5 -414.5q0 -288 105.5 -431.5t310.5 -143.5q156 0 260 51v370h-239v156h460v-629q-205 -110 -481 -110z
M723 1483q-101 0 -167 52.5t-81 129.5v59h135q5 -43 34 -68.5t79 -25.5q101 0 114 94h136v-59q-17 -78 -82 -130t-168 -52z" />
    <glyph glyph-name="gbreve" unicode="&#x11f;" horiz-adv-x="1169" 
d="M1032 1071v-1034q0 -185 -132 -283t-361 -98q-251 0 -412 90v158h68q115 -92 315 -92q313 0 313 239v115q-132 -139 -329 -139q-85 0 -158 29t-132.5 87.5t-93.5 159t-34 232.5q0 116 25.5 210.5t68 157t101 105t122 61t133.5 18.5q191 0 312 -116q21 100 98 100h96z
M549 180q141 0 274 133v512q-98 95 -245 95q-46 0 -85.5 -9.5t-78 -35.5t-66 -66t-44.5 -106t-17 -152q0 -105 19 -178.5t55 -115t81.5 -59.5t106.5 -18zM572 1163q-101 0 -167 57.5t-81 141.5v59h135q13 -110 113 -110q101 0 114 110h136v-59q-17 -84 -82 -141.5
t-168 -57.5z" />
    <glyph glyph-name="Gdotaccent" unicode="&#x120;" horiz-adv-x="1354" 
d="M733 -12q-306 0 -478.5 188t-172.5 541q0 349 183 539t493 190q130 0 219.5 -23.5t183.5 -72.5v-185h-80q-60 53 -133 81t-186 28q-210 0 -327.5 -134.5t-117.5 -414.5q0 -288 105.5 -431.5t310.5 -143.5q156 0 260 51v370h-239v156h460v-629q-205 -110 -481 -110z" />
    <glyph glyph-name="gdotaccent" unicode="&#x121;" horiz-adv-x="1169" 
d="M1032 1071v-1034q0 -185 -132 -283t-361 -98q-251 0 -412 90v158h68q115 -92 315 -92q313 0 313 239v115q-132 -139 -329 -139q-85 0 -158 29t-132.5 87.5t-93.5 159t-34 232.5q0 116 25.5 210.5t68 157t101 105t122 61t133.5 18.5q191 0 312 -116q21 100 98 100h96z
M549 180q141 0 274 133v512q-98 95 -245 95q-46 0 -85.5 -9.5t-78 -35.5t-66 -66t-44.5 -106t-17 -152q0 -105 19 -178.5t55 -115t81.5 -59.5t106.5 -18zM572 1190q-50 0 -85.5 35t-35.5 84q0 50 35.5 86.5t85.5 36.5q48 0 84.5 -36.5t36.5 -86.5q0 -49 -36 -84t-85 -35z
" />
    <glyph glyph-name="uni0122" unicode="&#x122;" horiz-adv-x="1354" 
d="M733 -12q-306 0 -478.5 188t-172.5 541q0 349 183 539t493 190q130 0 219.5 -23.5t183.5 -72.5v-185h-80q-60 53 -133 81t-186 28q-210 0 -327.5 -134.5t-117.5 -414.5q0 -288 105.5 -431.5t310.5 -143.5q156 0 260 51v370h-239v156h460v-629q-205 -110 -481 -110z
M620 -412v95q76 12 76 57q0 9 -3.5 15.5t-6.5 9t-13.5 8.5t-13.5 8q-37 29 -37 78q0 40 28.5 65t70.5 25q46 0 76 -32t30 -97q0 -206 -207 -232z" />
    <glyph glyph-name="uni0123" unicode="&#x123;" horiz-adv-x="1169" 
d="M1032 1071v-1034q0 -185 -132 -283t-361 -98q-251 0 -412 90v158h68q115 -92 315 -92q313 0 313 239v115q-132 -139 -329 -139q-85 0 -158 29t-132.5 87.5t-93.5 159t-34 232.5q0 116 25.5 210.5t68 157t101 105t122 61t133.5 18.5q191 0 312 -116q21 100 98 100h96z
M549 180q141 0 274 133v512q-98 95 -245 95q-46 0 -85.5 -9.5t-78 -35.5t-66 -66t-44.5 -106t-17 -152q0 -105 19 -178.5t55 -115t81.5 -59.5t106.5 -18zM680 1546v-94q-78 -12 -78 -57q0 -11 4 -17.5t18.5 -14t16.5 -9.5q35 -30 35 -78q0 -41 -27.5 -65.5t-70.5 -24.5
q-44 0 -75 30q-32 29 -32 99q0 207 209 231z" />
    <glyph glyph-name="Hcircumflex" unicode="&#x124;" horiz-adv-x="1395" 
d="M379 0h-221v1434h221v-615h637v615h223v-1434h-223v651h-637v-651zM445 1479v59l178 193h150l172 -193v-59h-117l-135 110l-138 -110h-110z" />
    <glyph glyph-name="hcircumflex" unicode="&#x125;" horiz-adv-x="1159" 
d="M346 1294v-358q84 67 191 109t219 42q59 0 105.5 -13.5t86 -45.5t61 -91.5t21.5 -143.5v-793h-209v743q0 96 -40 133t-122 37q-130 0 -313 -106v-807h-209v1434h115q60 0 77 -25t17 -115zM334 1485v60l180 213h150l174 -213v-60h-117l-137 131l-142 -131h-108z" />
    <glyph glyph-name="Itilde" unicode="&#x128;" horiz-adv-x="537" 
d="M387 0h-225v1434h225v-1434zM-20 1487v61q15 80 60.5 124t115.5 44q50 0 120.5 -32.5t92.5 -32.5q56 0 74 67h118v-59q-15 -80 -60 -124t-116 -44q-48 0 -118.5 34t-90.5 34q-60 0 -73 -72h-123z" />
    <glyph glyph-name="itilde" unicode="&#x129;" horiz-adv-x="477" 
d="M348 0h-209v1071h117q61 0 76.5 -28.5t15.5 -131.5v-911zM-53 1176v59q15 79 60.5 123.5t115.5 44.5q50 0 120.5 -33t92.5 -33q56 0 74 70h118v-61q-15 -80 -60 -124t-116 -44q-48 0 -118.5 33.5t-90.5 33.5q-60 0 -73 -69h-123z" />
    <glyph glyph-name="Imacron" unicode="&#x12a;" horiz-adv-x="549" 
d="M387 0h-225v1434h225v-1434zM525 1667v-149h-498v149h498z" />
    <glyph glyph-name="imacron" unicode="&#x12b;" horiz-adv-x="492" 
d="M348 0h-209v1071h117q61 0 76.5 -28t15.5 -132v-911zM457 1368v-147h-424v147h424z" />
    <glyph glyph-name="Ibreve" unicode="&#x12c;" horiz-adv-x="537" 
d="M387 0h-225v1434h225v-1434zM269 1483q-101 0 -167 52.5t-81 129.5v59h135q5 -43 34 -68.5t79 -25.5q101 0 114 94h136v-59q-17 -78 -82 -130t-168 -52z" />
    <glyph glyph-name="ibreve" unicode="&#x12d;" horiz-adv-x="477" 
d="M348 0h-209v1071h117q61 0 76.5 -28.5t15.5 -131.5v-911zM238 1163q-101 0 -167 57.5t-81 141.5v59h135q13 -110 113 -110q101 0 114 110h136v-59q-17 -84 -82 -141.5t-168 -57.5z" />
    <glyph glyph-name="Iogonek" unicode="&#x12e;" horiz-adv-x="549" 
d="M289 -338q-82 0 -130 40.5t-48 111.5q0 62 36 108q33 45 82 78h-67v1434h225v-1434h-20q-48 -41 -70.5 -71t-22.5 -66q0 -70 86 -70h50v-104q-49 -27 -121 -27z" />
    <glyph glyph-name="iogonek" unicode="&#x12f;" horiz-adv-x="492" 
d="M252 -338q-82 0 -130 40.5t-48 111.5q0 62 36 108q34 46 83 78h-54v1071h117q61 0 76.5 -28t15.5 -132v-911h-18q-46 -40 -68 -70.5t-22 -66.5q0 -35 19 -52.5t65 -17.5h51v-104q-52 -27 -123 -27zM246 1190q-48 0 -86 35q-37 34 -37 84q0 51 37 87t86 36q48 0 86 -36
q37 -36 37 -87q0 -50 -37 -84q-38 -35 -86 -35z" />
    <glyph glyph-name="Idotaccent" unicode="&#x130;" horiz-adv-x="549" 
d="M387 0h-225v1434h225v-1434z" />
    <glyph glyph-name="dotlessi" unicode="&#x131;" horiz-adv-x="492" 
d="M348 0h-209v1071h117q61 0 76.5 -28.5t15.5 -131.5v-911z" />
    <glyph glyph-name="uni0136" unicode="&#x136;" horiz-adv-x="1294" 
d="M158 0v1434h221v-713l620 713h181v-68l-451 -510l500 -788v-68h-207l-438 694l-205 -223v-471h-221zM559 -317q76 12 76 57q0 18 -11 24q-3 2 -12 7.5t-14 9.5q-17 13 -27 31q-10 17 -10 47q0 41 29 65q28 25 70 25q44 0 75 -30t31 -99q0 -206 -207 -232v95z" />
    <glyph glyph-name="uni0137" unicode="&#x137;" horiz-adv-x="1057" 
d="M346 1294v-725l438 502h174v-61l-331 -369l366 -578v-63h-190l-318 496l-139 -154v-342h-209v1434h115q60 0 77 -25t17 -115zM456 -412v95q76 12 76 57q0 9 -3.5 15.5t-6.5 9t-13.5 8.5t-13.5 8q-37 29 -37 78q0 40 28.5 65t70.5 25q46 0 76 -32t30 -97q0 -206 -207 -232
z" />
    <glyph glyph-name="Lacute" unicode="&#x139;" horiz-adv-x="1096" 
d="M1018 0h-860v1434h221v-1266h639v-168zM203 1479v51l88 194h209v-65l-176 -180h-121z" />
    <glyph glyph-name="lacute" unicode="&#x13a;" horiz-adv-x="489" 
d="M350 0h-211v1434h117q62 0 78 -24.5t16 -115.5v-1294zM297 1485h-121v49l103 224h210v-68z" />
    <glyph glyph-name="uni013B" unicode="&#x13b;" horiz-adv-x="1096" 
d="M1018 0h-860v1434h221v-1266h639v-168zM497 -412v95q76 12 76 57q0 9 -3.5 15.5t-6.5 9t-13.5 8.5t-13.5 8q-37 29 -37 78q0 40 28.5 65t70.5 25q46 0 76 -32t30 -97q0 -206 -207 -232z" />
    <glyph glyph-name="uni013C" unicode="&#x13c;" horiz-adv-x="489" 
d="M350 0h-211v1434h117q62 0 78 -24.5t16 -115.5v-1294zM143 -412v95q76 12 76 57q0 9 -3.5 15.5t-6.5 9t-13.5 8.5t-13.5 8q-37 29 -37 78q0 40 28.5 65t70.5 25q46 0 76 -32t30 -97q0 -206 -207 -232z" />
    <glyph glyph-name="Nacute" unicode="&#x143;" horiz-adv-x="1391" 
d="M158 0v1434h256l624 -1055h4v1055h193v-1434h-205l-678 1149h-4v-1149h-190zM655 1479v51l88 194h209v-65l-176 -180h-121z" />
    <glyph glyph-name="nacute" unicode="&#x144;" horiz-adv-x="1159" 
d="M137 1071h131q41 0 57.5 -26.5t20.5 -108.5q84 67 191 109t219 42q59 0 105.5 -13.5t86 -45.5t61 -91.5t21.5 -143.5v-793h-209v743q0 96 -40 133t-122 37q-130 0 -313 -106v-807h-209v1071zM651 1161h-121v49l103 224h210v-68z" />
    <glyph glyph-name="uni0145" unicode="&#x145;" horiz-adv-x="1391" 
d="M158 0v1434h256l624 -1055h4v1055h193v-1434h-205l-678 1149h-4v-1149h-190zM583 -412v95q76 12 76 57q0 9 -3.5 15.5t-6.5 9t-13.5 8.5t-13.5 8q-37 29 -37 78q0 40 28.5 65t70.5 25q46 0 76 -32t30 -97q0 -206 -207 -232z" />
    <glyph glyph-name="uni0146" unicode="&#x146;" horiz-adv-x="1159" 
d="M137 1071h131q41 0 57.5 -26.5t20.5 -108.5q84 67 191 109t219 42q59 0 105.5 -13.5t86 -45.5t61 -91.5t21.5 -143.5v-793h-209v743q0 96 -40 133t-122 37q-130 0 -313 -106v-807h-209v1071zM487 -412v95q76 12 76 57q0 9 -3.5 15.5t-6.5 9t-13.5 8.5t-13.5 8
q-37 29 -37 78q0 40 28.5 65t70.5 25q46 0 76 -32t30 -97q0 -206 -207 -232z" />
    <glyph glyph-name="Ncaron" unicode="&#x147;" horiz-adv-x="1391" 
d="M158 0v1434h256l624 -1055h4v1055h193v-1434h-205l-678 1149h-4v-1149h-190zM971 1731v-60l-181 -192h-147l-172 192v60h115l137 -109l137 109h111z" />
    <glyph glyph-name="ncaron" unicode="&#x148;" horiz-adv-x="1159" 
d="M137 1071h131q41 0 57.5 -26.5t20.5 -108.5q84 67 191 109t219 42q59 0 105.5 -13.5t86 -45.5t61 -91.5t21.5 -143.5v-793h-209v743q0 96 -40 133t-122 37q-130 0 -313 -106v-807h-209v1071zM840 1434v-60l-181 -213h-149l-174 213v60h117l137 -131l141 131h109z" />
    <glyph glyph-name="Omacron" unicode="&#x14c;" horiz-adv-x="1462" 
d="M731 -12q-132 0 -249 48t-206.5 138t-141.5 230.5t-52 312.5t52 312t141.5 230t206.5 138.5t249 48.5t248.5 -48.5t205.5 -139t141 -230.5t52 -311q0 -172 -52 -312.5t-141 -230.5t-205.5 -138t-248.5 -48zM731 154q189 0 304.5 142.5t115.5 416.5q0 276 -116 421.5
t-304 145.5q-190 0 -305 -145.5t-115 -421.5q0 -275 115 -417t305 -142zM979 1667v-149h-498v149h498z" />
    <glyph glyph-name="omacron" unicode="&#x14d;" horiz-adv-x="1163" 
d="M598 -12q-234 0 -378 144q-150 150 -150 400q0 127 40 231.5t110.5 175.5t167.5 109.5t210 38.5q230 0 378 -151t148 -404q0 -248 -150 -400q-142 -144 -376 -144zM598 145q142 0 224 97q83 97 83 290q0 194 -83 297q-83 101 -224 101t-225 -101q-84 -102 -84 -297
q0 -194 84 -290q84 -97 225 -97zM823 1368v-147h-481v147h481z" />
    <glyph glyph-name="Obreve" unicode="&#x14e;" horiz-adv-x="1479" 
d="M740 1483q-101 0 -167 52.5t-81 129.5v59h135q5 -43 34 -68.5t79 -25.5q101 0 114 94h136v-59q-17 -78 -82 -130t-168 -52zM731 -12q-132 0 -249 48t-206.5 138t-141.5 230.5t-52 312.5t52 312t141.5 230t206.5 138.5t249 48.5t248.5 -48.5t205.5 -139t141 -230.5
t52 -311q0 -172 -52 -312.5t-141 -230.5t-205.5 -138t-248.5 -48zM731 154q189 0 304.5 142.5t115.5 416.5q0 276 -116 421.5t-304 145.5q-190 0 -305 -145.5t-115 -421.5q0 -275 115 -417t305 -142z" />
    <glyph glyph-name="obreve" unicode="&#x14f;" horiz-adv-x="1169" 
d="M598 -12q-234 0 -378 144q-150 150 -150 400q0 127 40 231.5t110.5 175.5t167.5 109.5t210 38.5q230 0 378 -151t148 -404q0 -248 -150 -400q-142 -144 -376 -144zM598 145q142 0 224 97q83 97 83 290q0 194 -83 297q-83 101 -224 101t-225 -101q-84 -102 -84 -297
q0 -194 84 -290q84 -97 225 -97zM586 1163q-101 0 -167 57.5t-81 141.5v59h135q13 -110 113 -110q101 0 114 110h136v-59q-17 -84 -82 -141.5t-168 -57.5z" />
    <glyph glyph-name="Ohungarumlaut" unicode="&#x150;" horiz-adv-x="1462" 
d="M731 -12q-132 0 -249 48t-206.5 138t-141.5 230.5t-52 312.5t52 312t141.5 230t206.5 138.5t249 48.5t248.5 -48.5t205.5 -139t141 -230.5t52 -311q0 -172 -52 -312.5t-141 -230.5t-205.5 -138t-248.5 -48zM731 154q189 0 304.5 142.5t115.5 416.5q0 276 -116 421.5
t-304 145.5q-190 0 -305 -145.5t-115 -421.5q0 -275 115 -417t305 -142zM522 1479v45l70 200h174v-65l-127 -180h-117zM809 1479v45l69 200h172v-65l-125 -180h-116z" />
    <glyph glyph-name="ohungarumlaut" unicode="&#x151;" horiz-adv-x="1163" 
d="M598 -12q-234 0 -378 144q-150 150 -150 400q0 127 40 231.5t110.5 175.5t167.5 109.5t210 38.5q230 0 378 -151t148 -404q0 -248 -150 -400q-142 -144 -376 -144zM598 145q142 0 224 97q83 97 83 290q0 194 -83 297q-83 101 -224 101t-225 -101q-84 -102 -84 -297
q0 -194 84 -290q84 -97 225 -97zM379 1161v43l80 230h172v-68l-135 -205h-117zM666 1161v43l78 230h174v-68l-136 -205h-116z" />
    <glyph glyph-name="Racute" unicode="&#x154;" horiz-adv-x="1255" 
d="M967 0l-316 600q-13 -2 -67 -2h-203v-598h-221v1434h424q245 0 378.5 -101t133.5 -307q0 -285 -236 -383l309 -575v-68h-202zM381 1264v-502h197q149 0 220.5 58.5t71.5 193.5q0 130 -73.5 190t-218.5 60h-197zM532 1479v51l88 194h209v-65l-176 -180h-121z" />
    <glyph glyph-name="racute" unicode="&#x155;" horiz-adv-x="768" 
d="M664 903q-181 0 -318 -121v-782h-209v1071h131q41 0 57.5 -28.5t20.5 -118.5q136 157 307 157q32 0 58 -8v-172q-14 0 -21 1q-6 0 -15.5 0.5t-10.5 0.5zM498 1161h-121v49l103 224h210v-68z" />
    <glyph glyph-name="uni0156" unicode="&#x156;" horiz-adv-x="1255" 
d="M967 0l-316 600q-13 -2 -67 -2h-203v-598h-221v1434h424q245 0 378.5 -101t133.5 -307q0 -285 -236 -383l309 -575v-68h-202zM381 1264v-502h197q149 0 220.5 58.5t71.5 193.5q0 130 -73.5 190t-218.5 60h-197zM532 -412v95q76 12 76 57q0 9 -3.5 15.5t-6.5 9t-13.5 8.5
t-13.5 8q-37 29 -37 78q0 40 28.5 65t70.5 25q46 0 76 -32t30 -97q0 -206 -207 -232z" />
    <glyph glyph-name="uni0157" unicode="&#x157;" horiz-adv-x="762" 
d="M664 903q-181 0 -318 -121v-782h-209v1071h131q41 0 57.5 -28.5t20.5 -118.5q136 157 307 157q32 0 58 -8v-172q-14 0 -21 1q-6 0 -15.5 0.5t-10.5 0.5zM135 -412v95q76 12 76 57q0 9 -3.5 15.5t-6.5 9t-13.5 8.5t-13.5 8q-37 29 -37 78q0 40 28.5 65t70.5 25
q46 0 76 -32t30 -97q0 -206 -207 -232z" />
    <glyph glyph-name="Rcaron" unicode="&#x158;" horiz-adv-x="1255" 
d="M967 0l-316 600q-13 -2 -67 -2h-203v-598h-221v1434h424q245 0 378.5 -101t133.5 -307q0 -285 -236 -383l309 -575v-68h-202zM381 1264v-502h197q149 0 220.5 58.5t71.5 193.5q0 130 -73.5 190t-218.5 60h-197zM848 1731v-60l-181 -192h-147l-172 192v60h115l137 -109
l137 109h111z" />
    <glyph glyph-name="rcaron" unicode="&#x159;" horiz-adv-x="762" 
d="M664 903q-181 0 -318 -121v-782h-209v1071h131q41 0 57.5 -28.5t20.5 -118.5q136 157 307 157q32 0 58 -8v-172q-14 0 -21 1q-6 0 -15.5 0.5t-10.5 0.5zM686 1434v-60l-181 -213h-149l-174 213v60h117l137 -131l141 131h109z" />
    <glyph glyph-name="Sacute" unicode="&#x15a;" horiz-adv-x="1065" 
d="M496 -12q-143 0 -246.5 31t-190.5 90v180h78q125 -131 352 -131q143 0 219 58t76 173q0 117 -93 174q-50 30 -188 68l-44 12q-198 58 -288.5 149.5t-90.5 258.5q0 185 123 290t334 105q229 0 381 -96v-174h-76q-127 100 -297 100q-136 0 -203.5 -54t-67.5 -155
q0 -44 14 -77.5t34.5 -55.5t60.5 -41t76.5 -31t97.5 -28q118 -32 192 -64t132 -80t83 -115.5t25 -162.5q0 -207 -128.5 -315.5t-364.5 -108.5zM471 1479v51l88 194h209v-65l-176 -180h-121z" />
    <glyph glyph-name="sacute" unicode="&#x15b;" horiz-adv-x="907" 
d="M428 -10q-211 0 -350 94v162h67q102 -96 273 -96q223 0 223 155q0 68 -48 102t-177 54q-171 25 -254.5 95t-83.5 214q0 150 102.5 231.5t282.5 81.5q185 0 315 -75v-160h-67q-96 76 -246 76q-201 0 -201 -138q0 -63 51 -95t177 -50q183 -27 264.5 -97.5t81.5 -219.5
q0 -158 -102.5 -246t-307.5 -88zM516 1161h-121v49l103 224h210v-68z" />
    <glyph glyph-name="Scircumflex" unicode="&#x15c;" horiz-adv-x="1065" 
d="M496 -12q-143 0 -246.5 31t-190.5 90v180h78q125 -131 352 -131q143 0 219 58t76 173q0 117 -93 174q-50 30 -188 68l-44 12q-198 58 -288.5 149.5t-90.5 258.5q0 185 123 290t334 105q229 0 381 -96v-174h-76q-127 100 -297 100q-136 0 -203.5 -54t-67.5 -155
q0 -44 14 -77.5t34.5 -55.5t60.5 -41t76.5 -31t97.5 -28q118 -32 192 -64t132 -80t83 -115.5t25 -162.5q0 -207 -128.5 -315.5t-364.5 -108.5zM287 1479v59l178 193h150l172 -193v-59h-117l-135 110l-138 -110h-110z" />
    <glyph glyph-name="scircumflex" unicode="&#x15d;" horiz-adv-x="907" 
d="M428 -10q-211 0 -350 94v162h67q102 -96 273 -96q223 0 223 155q0 68 -48 102t-177 54q-171 25 -254.5 95t-83.5 214q0 150 102.5 231.5t282.5 81.5q185 0 315 -75v-160h-67q-96 76 -246 76q-201 0 -201 -138q0 -63 51 -95t177 -50q183 -27 264.5 -97.5t81.5 -219.5
q0 -158 -102.5 -246t-307.5 -88zM201 1161v60l180 213h150l174 -213v-60h-117l-137 131l-142 -131h-108z" />
    <glyph glyph-name="Scedilla" unicode="&#x15e;" horiz-adv-x="1065" 
d="M989 412q0 -195 -112.5 -302.5t-321.5 -119.5v-53q158 -10 158 -146q0 -71 -51.5 -110t-137.5 -39t-149 36v99h51q24 -31 80 -31q69 0 69 49q0 26 -18.5 38.5t-64.5 12.5h-48v144q-132 5 -222 37q-88 30 -163 82v180h78q51 -54 133 -92q84 -39 219 -39q144 0 219.5 57.5
t75.5 173.5q0 120 -97 177q-52 31 -194 68q-25 7 -34 9q-196 56 -287.5 148.5t-91.5 259.5q0 185 123 290t334 105q227 0 381 -96v-174h-76q-125 100 -297 100q-135 0 -203 -54t-68 -155q0 -44 13.5 -77.5t35 -56.5t60.5 -41.5t77 -30.5t97 -27q119 -33 193 -65t131.5 -80
t82.5 -115t25 -162z" />
    <glyph glyph-name="scedilla" unicode="&#x15f;" horiz-adv-x="907" 
d="M838 324q0 -143 -86 -232q-85 -88 -271 -100v-55q160 -10 160 -146q0 -71 -51 -110t-139 -39q-81 0 -148 36v99h51q27 -31 80 -31q70 0 70 49q0 51 -84 51h-47v146q-177 10 -295 92v162h67q39 -35 105 -65q66 -31 168 -31q223 0 223 155q0 69 -47.5 102.5t-177.5 53.5
q-165 23 -251 91q-87 69 -87 218q0 154 104 234q103 79 281 79q117 0 189 -22t126 -53v-160h-67q-96 76 -246 76q-201 0 -201 -138q0 -64 51 -95q51 -32 177 -50q182 -25 264 -96.5t82 -220.5z" />
    <glyph glyph-name="Scaron" unicode="&#x160;" horiz-adv-x="1065" 
d="M496 -12q-143 0 -246.5 31t-190.5 90v180h78q125 -131 352 -131q143 0 219 58t76 173q0 117 -93 174q-50 30 -188 68l-44 12q-198 58 -288.5 149.5t-90.5 258.5q0 185 123 290t334 105q229 0 381 -96v-174h-76q-127 100 -297 100q-136 0 -203.5 -54t-67.5 -155
q0 -44 14 -77.5t34.5 -55.5t60.5 -41t76.5 -31t97.5 -28q118 -32 192 -64t132 -80t83 -115.5t25 -162.5q0 -207 -128.5 -315.5t-364.5 -108.5zM781 1731v-60l-181 -192h-147l-172 192v60h115l137 -109l137 109h111z" />
    <glyph glyph-name="scaron" unicode="&#x161;" horiz-adv-x="907" 
d="M428 -10q-211 0 -350 94v162h67q102 -96 273 -96q223 0 223 155q0 68 -48 102t-177 54q-171 25 -254.5 95t-83.5 214q0 150 102.5 231.5t282.5 81.5q185 0 315 -75v-160h-67q-96 76 -246 76q-201 0 -201 -138q0 -63 51 -95t177 -50q183 -27 264.5 -97.5t81.5 -219.5
q0 -158 -102.5 -246t-307.5 -88zM705 1434v-60l-181 -213h-149l-174 213v60h117l137 -131l141 131h109z" />
    <glyph glyph-name="uni0162" unicode="&#x162;" horiz-adv-x="1167" 
d="M694 0h-223v1266h-412v168h1047v-168h-412v-1266zM479 -412v95q76 12 76 57q0 9 -3.5 15.5t-6.5 9t-13.5 8.5t-13.5 8q-37 29 -37 78q0 40 28.5 65t70.5 25q46 0 76 -32t30 -97q0 -206 -207 -232z" />
    <glyph glyph-name="uni0163" unicode="&#x163;" horiz-adv-x="680" 
d="M41 924v147h129v291h209v-291h237v-147h-237v-635q0 -83 35 -114.5t118 -31.5h97v-135q-71 -20 -170 -20q-142 0 -215.5 65.5t-73.5 210.5v660h-129zM291 -412v95q76 12 76 57q0 9 -3.5 15.5t-6.5 9t-13.5 8.5t-13.5 8q-37 29 -37 78q0 40 28.5 65t70.5 25q46 0 76 -32
t30 -97q0 -206 -207 -232z" />
    <glyph glyph-name="Utilde" unicode="&#x168;" horiz-adv-x="1384" 
d="M410 1487v61q15 80 60.5 124t115.5 44q50 0 120.5 -32.5t92.5 -32.5q56 0 74 67h118v-59q-15 -80 -60 -124t-116 -44q-48 0 -118.5 34t-90.5 34q-60 0 -73 -72h-123zM715 164q76 0 131.5 17t98.5 56.5t65 110.5t22 174v912h199v-906q0 -273 -131 -406.5t-398 -133.5
q-259 0 -405.5 136.5t-146.5 403.5v906h223v-912q0 -104 24.5 -175.5t72 -110.5t106.5 -55.5t139 -16.5z" />
    <glyph glyph-name="utilde" unicode="&#x169;" horiz-adv-x="1178" 
d="M512 150q131 0 303 102v819h209v-1071h-131q-39 0 -55.5 23t-20.5 98q-84 -61 -185 -98t-202 -37q-293 0 -293 286v799h209v-752q0 -96 42 -132.5t124 -36.5zM291 1176v59q15 79 60.5 123.5t115.5 44.5q50 0 120.5 -33t92.5 -33q56 0 74 70h118v-61q-15 -80 -60 -124
t-116 -44q-48 0 -118.5 33.5t-90.5 33.5q-60 0 -73 -69h-123z" />
    <glyph glyph-name="Umacron" unicode="&#x16a;" horiz-adv-x="1380" 
d="M715 164q76 0 131.5 17t98.5 56.5t65 110.5t22 174v912h199v-906q0 -273 -131 -406.5t-398 -133.5q-259 0 -405.5 136.5t-146.5 403.5v906h223v-912q0 -104 24.5 -175.5t72 -110.5t106.5 -55.5t139 -16.5zM951 1667v-149h-498v149h498z" />
    <glyph glyph-name="umacron" unicode="&#x16b;" horiz-adv-x="1171" 
d="M512 150q131 0 303 102v819h209v-1071h-131q-39 0 -55.5 23t-20.5 98q-84 -61 -185 -98t-202 -37q-293 0 -293 286v799h209v-752q0 -96 42 -132.5t124 -36.5zM823 1368v-147h-481v147h481z" />
    <glyph glyph-name="Ubreve" unicode="&#x16c;" horiz-adv-x="1380" 
d="M715 164q76 0 131.5 17t98.5 56.5t65 110.5t22 174v912h199v-906q0 -273 -131 -406.5t-398 -133.5q-259 0 -405.5 136.5t-146.5 403.5v906h223v-912q0 -104 24.5 -175.5t72 -110.5t106.5 -55.5t139 -16.5zM701 1483q-101 0 -167 52.5t-81 129.5v59h135q5 -43 34 -68.5
t79 -25.5q101 0 114 94h136v-59q-17 -78 -82 -130t-168 -52z" />
    <glyph glyph-name="ubreve" unicode="&#x16d;" horiz-adv-x="1171" 
d="M512 150q131 0 303 102v819h209v-1071h-131q-39 0 -55.5 23t-20.5 98q-84 -61 -185 -98t-202 -37q-293 0 -293 286v799h209v-752q0 -96 42 -132.5t124 -36.5zM582 1163q-101 0 -167 57.5t-81 141.5v59h135q13 -110 113 -110q101 0 114 110h136v-59q-17 -84 -82 -141.5
t-168 -57.5z" />
    <glyph glyph-name="Uring" unicode="&#x16e;" horiz-adv-x="1380" 
d="M715 164q76 0 131.5 17t98.5 56.5t65 110.5t22 174v912h199v-906q0 -273 -131 -406.5t-398 -133.5q-259 0 -405.5 136.5t-146.5 403.5v906h223v-912q0 -104 24.5 -175.5t72 -110.5t106.5 -55.5t139 -16.5zM701 1424q-81 0 -137 53t-56 139t56 139.5t137 53.5
q80 0 137 -54t57 -139t-56.5 -138.5t-137.5 -53.5zM701 1526q38 0 62 24.5t24 65.5t-24.5 66.5t-61.5 25.5q-36 0 -60 -25.5t-24 -66.5t24 -65.5t60 -24.5z" />
    <glyph glyph-name="uring" unicode="&#x16f;" horiz-adv-x="1171" 
d="M512 150q131 0 303 102v819h209v-1071h-131q-39 0 -55.5 23t-20.5 98q-84 -61 -185 -98t-202 -37q-293 0 -293 286v799h209v-752q0 -96 42 -132.5t124 -36.5zM582 1167q-82 0 -137.5 52t-55.5 139t56 140.5t137 53.5t137.5 -53.5t56.5 -140.5q0 -86 -56.5 -138.5
t-137.5 -52.5zM582 1268q37 0 61.5 25.5t24.5 64.5q0 41 -24.5 66.5t-61.5 25.5q-36 0 -60 -25.5t-24 -66.5q0 -39 24 -64.5t60 -25.5z" />
    <glyph glyph-name="Uhungarumlaut" unicode="&#x170;" horiz-adv-x="1380" 
d="M715 164q76 0 131.5 17t98.5 56.5t65 110.5t22 174v912h199v-906q0 -273 -131 -406.5t-398 -133.5q-259 0 -405.5 136.5t-146.5 403.5v906h223v-912q0 -104 24.5 -175.5t72 -110.5t106.5 -55.5t139 -16.5zM494 1479v45l70 200h174v-65l-127 -180h-117zM781 1479v45
l69 200h172v-65l-125 -180h-116z" />
    <glyph glyph-name="uhungarumlaut" unicode="&#x171;" horiz-adv-x="1171" 
d="M512 150q131 0 303 102v819h209v-1071h-131q-39 0 -55.5 23t-20.5 98q-84 -61 -185 -98t-202 -37q-293 0 -293 286v799h209v-752q0 -96 42 -132.5t124 -36.5zM379 1161v43l80 230h172v-68l-135 -205h-117zM666 1161v43l78 230h174v-68l-136 -205h-116z" />
    <glyph glyph-name="Uogonek" unicode="&#x172;" horiz-adv-x="1380" 
d="M774 -338q-84 0 -132 40t-48 112q0 100 106 176q-3 -2 -16 -2q-248 0 -391 138t-143 402v906h223v-912q0 -104 24 -175.5t71 -110.5t105.5 -55.5t139.5 -16.5q75 0 130 16t99.5 55t67 110.5t22.5 176.5v912h199v-906q0 -377 -262 -493q-56 -25 -89 -34q-40 -10 -75 -44
q-45 -45 -45 -94q0 -35 19.5 -52.5t64.5 -17.5h51v-104q-52 -27 -121 -27z" />
    <glyph glyph-name="uogonek" unicode="&#x173;" horiz-adv-x="1171" 
d="M920 -338q-82 0 -130.5 40.5t-48.5 111.5q0 104 121 188q-21 9 -32 35t-13 84q-79 -59 -180 -96q-101 -39 -207 -39q-293 0 -293 286v799h209v-752q0 -102 46 -135q46 -34 120 -34q81 0 160 32q82 33 143 70v819h209v-1071h-27q-46 -40 -68 -70.5t-22 -66.5
q0 -35 19.5 -52.5t64.5 -17.5h49v-104q-46 -27 -120 -27z" />
    <glyph glyph-name="Wcircumflex" unicode="&#x174;" horiz-adv-x="1835" 
d="M403 0l-337 1366v68h210l256 -1125h5l282 1125h197l280 -1125h4l256 1125h191v-68l-338 -1366h-235l-263 1081h-4l-268 -1081h-236zM680 1479v59l178 193h150l172 -193v-59h-117l-135 110l-138 -110h-110z" />
    <glyph glyph-name="wcircumflex" unicode="&#x175;" horiz-adv-x="1567" 
d="M547 1161v60l180 213h150l174 -213v-60h-117l-137 131l-142 -131h-108zM356 0l-297 1010v61h195l215 -774h4l234 774h163l232 -774h4l213 774h170v-61l-295 -1010h-186l-230 766h-4l-233 -766h-185z" />
    <glyph glyph-name="Ycircumflex" unicode="&#x176;" horiz-adv-x="1198" 
d="M715 0h-221v573l-439 789v72h203l352 -650h2l344 650h179v-72l-420 -782v-580zM369 1479v59l178 193h150l172 -193v-59h-117l-135 110l-138 -110h-110z" />
    <glyph glyph-name="ycircumflex" unicode="&#x177;" horiz-adv-x="1081" 
d="M309 -332v60l148 333l-402 953v57h197l305 -752h2l285 752h180v-57l-535 -1346h-180zM303 1161v60l180 213h150l174 -213v-60h-117l-137 131l-142 -131h-108z" />
    <glyph glyph-name="Ydieresis" unicode="&#x178;" horiz-adv-x="1190" 
d="M715 0h-221v573l-439 789v72h203l352 -650h2l344 650h179v-72l-420 -782v-580zM442 1489q-49 0 -83 33.5t-34 83.5q0 46 34.5 80t82.5 34t82 -34t34 -80q0 -50 -33.5 -83.5t-82.5 -33.5zM782 1489q-48 0 -81.5 33.5t-33.5 83.5q0 46 33.5 80t81.5 34q47 0 81.5 -34
t34.5 -80q0 -50 -34 -83.5t-82 -33.5z" />
    <glyph glyph-name="Zacute" unicode="&#x179;" horiz-adv-x="1108" 
d="M43 0v178l752 1082v6h-696v168h931v-183l-749 -1081v-6h741v-164h-979zM508 1479v51l88 194h209v-65l-176 -180h-121z" />
    <glyph glyph-name="zacute" unicode="&#x17a;" horiz-adv-x="977" 
d="M76 0v154l598 764h-561v153h794v-153l-600 -762h586v-156h-817zM452 1210l103 224h210v-68l-192 -205h-121v49z" />
    <glyph glyph-name="Zdotaccent" unicode="&#x17b;" horiz-adv-x="1108" 
d="M43 0v178l752 1082v6h-696v168h931v-183l-749 -1081v-6h741v-164h-979z" />
    <glyph glyph-name="zdotaccent" unicode="&#x17c;" horiz-adv-x="977" 
d="M76 154l598 764h-561v153h794v-153l-600 -762h586v-156h-817v154zM399 1263q-10 20 -10 46q0 27 10 48q9 22 26 39q36 36 85 36q36 0 66 -21t45 -54q10 -21 10 -48q0 -26 -10 -46q-11 -23 -26 -38q-16 -16 -39 -25q-21 -10 -46 -10q-26 0 -47 10q-22 9 -38 25
q-18 18 -26 38z" />
    <glyph glyph-name="Zcaron" unicode="&#x17d;" horiz-adv-x="1108" 
d="M55 0v178l752 1082v6h-696v168h931v-183l-749 -1081v-6h741v-164h-979zM845 1731v-60l-181 -192h-147l-172 192v60h115l137 -109l137 109h111z" />
    <glyph glyph-name="zcaron" unicode="&#x17e;" horiz-adv-x="977" 
d="M76 154l598 764h-561v153h794v-153l-600 -762h586v-156h-817v154zM255 1434h117l137 -131l141 131h109v-60l-181 -213h-149l-174 213v60z" />
    <glyph glyph-name="Aringacute" unicode="&#x1fa;" horiz-adv-x="1319" 
d="M63 0v68l474 1366h237l471 -1366v-68h-211l-133 401h-526l-129 -401h-183zM635 1198l-207 -633h418l-207 633h-4zM592 1913v51l88 194h209v-65l-176 -180h-121zM658 1485q-81 0 -137 53t-56 139t56 139.5t137 53.5q80 0 137 -54t57 -139t-56.5 -138.5t-137.5 -53.5z
M658 1587q38 0 62 24.5t24 65.5t-24.5 66.5t-61.5 25.5q-36 0 -60 -25.5t-24 -66.5t24 -65.5t60 -24.5z" />
    <glyph glyph-name="aringacute" unicode="&#x1fb;" horiz-adv-x="1061" 
d="M928 0h-82q-63 0 -89 24t-34 95q-61 -67 -137.5 -99t-182.5 -32q-151 0 -243 83t-92 236q0 160 113.5 243t301.5 83q120 0 234 -29v141q0 95 -53.5 139t-161.5 44q-171 0 -293 -88h-66v155q186 92 385 92q196 0 298 -78t102 -249v-760zM471 131q78 0 136 32.5t110 90.5
v227q-97 21 -199 21q-113 0 -179.5 -45t-66.5 -138q0 -95 54 -141.5t145 -46.5zM531 1167q-82 0 -137.5 52t-55.5 139t56 140.5t137 53.5t137.5 -53.5t56.5 -140.5q0 -86 -56.5 -138.5t-137.5 -52.5zM531 1268q37 0 61.5 25.5t24.5 64.5q0 41 -24.5 66.5t-61.5 25.5
q-36 0 -60 -25.5t-24 -66.5q0 -39 24 -64.5t60 -25.5zM467 1608v51l88 194h209v-65l-176 -180h-121z" />
    <glyph glyph-name="uni0218" unicode="&#x218;" horiz-adv-x="1065" 
d="M496 -12q-143 0 -246.5 31t-190.5 90v180h78q125 -131 352 -131q143 0 219 58t76 173q0 117 -93 174q-50 30 -188 68l-44 12q-198 58 -288.5 149.5t-90.5 258.5q0 185 123 290t334 105q229 0 381 -96v-174h-76q-127 100 -297 100q-136 0 -203.5 -54t-67.5 -155
q0 -44 14 -77.5t34.5 -55.5t60.5 -41t76.5 -31t97.5 -28q118 -32 192 -64t132 -80t83 -115.5t25 -162.5q0 -207 -128.5 -315.5t-364.5 -108.5zM422 -412v95q76 12 76 57q0 9 -3.5 15.5t-6.5 9t-13.5 8.5t-13.5 8q-37 29 -37 78q0 40 28.5 65t70.5 25q46 0 76 -32t30 -97
q0 -206 -207 -232z" />
    <glyph glyph-name="uni0219" unicode="&#x219;" horiz-adv-x="907" 
d="M428 -10q-211 0 -350 94v162h67q102 -96 273 -96q223 0 223 155q0 68 -48 102t-177 54q-171 25 -254.5 95t-83.5 214q0 150 102.5 231.5t282.5 81.5q185 0 315 -75v-160h-67q-96 76 -246 76q-201 0 -201 -138q0 -63 51 -95t177 -50q183 -27 264.5 -97.5t81.5 -219.5
q0 -158 -102.5 -246t-307.5 -88zM352 -412v95q76 12 76 57q0 9 -3.5 15.5t-6.5 9t-13.5 8.5t-13.5 8q-37 29 -37 78q0 40 28.5 65t70.5 25q46 0 76 -32t30 -97q0 -206 -207 -232z" />
    <glyph glyph-name="circumflex" unicode="&#x2c6;" 
d="M164 1161v60l180 213h150l174 -213v-60h-117l-137 131l-142 -131h-108z" />
    <glyph glyph-name="caron" unicode="&#x2c7;" 
d="M668 1434v-60l-181 -213h-149l-174 213v60h117l137 -131l141 131h109z" />
    <glyph glyph-name="breve" unicode="&#x2d8;" 
d="M416 1163q-101 0 -167.5 58t-80.5 141v59h135q6 -52 34.5 -81t78.5 -29q101 0 114 110h136v-59q-17 -84 -82 -141.5t-168 -57.5z" />
    <glyph glyph-name="dotaccent" unicode="&#x2d9;" 
d="M418 1190q-50 0 -85.5 35t-35.5 84q0 50 36 86.5t85 36.5t85 -36.5t36 -86.5q0 -49 -36 -84t-85 -35z" />
    <glyph glyph-name="ring" unicode="&#x2da;" 
d="M416 1167q-82 0 -137.5 52t-55.5 139t56 140.5t137 53.5t137.5 -53.5t56.5 -140.5q0 -86 -56.5 -138.5t-137.5 -52.5zM416 1268q37 0 61.5 25.5t24.5 64.5q0 41 -24.5 66.5t-61.5 25.5q-36 0 -60 -25.5t-24 -66.5q0 -39 24 -64.5t60 -25.5z" />
    <glyph glyph-name="ogonek" unicode="&#x2db;" horiz-adv-x="823" 
d="M463 -338q-82 0 -130 40.5t-48 111.5q0 107 119 186h137q-47 -39 -69.5 -70t-22.5 -67q0 -70 86 -70h49v-104q-49 -27 -121 -27z" />
    <glyph glyph-name="tilde" unicode="&#x2dc;" 
d="M115 1176v59q15 79 60.5 123.5t115.5 44.5q50 0 120.5 -33t92.5 -33q56 0 74 70h118v-61q-15 -80 -60 -124t-116 -44q-48 0 -118 33.5t-91 33.5q-60 0 -73 -69h-123z" />
    <glyph glyph-name="hungarumlaut" unicode="&#x2dd;" 
d="M213 1161v43l80 230h172v-68l-135 -205h-117zM500 1161v43l78 230h174v-68l-136 -205h-116z" />
    <glyph glyph-name="uni0401" unicode="&#x401;" horiz-adv-x="1161" 
d="M445 1489q-49 0 -83 33.5t-34 83.5q0 46 34.5 80t82.5 34t82 -34t34 -80q0 -50 -33.5 -83.5t-82.5 -33.5zM785 1489q-48 0 -81.5 33.5t-33.5 83.5q0 46 33.5 80t81.5 34q47 0 81.5 -34t34.5 -80q0 -50 -34 -83.5t-82 -33.5zM156 0v1434h905v-172h-678v-447h498v-164h-498
v-483h702v-168h-929z" />
    <glyph glyph-name="uni0403" unicode="&#x403;" horiz-adv-x="1075" 
d="M166 0v1434h866v-168h-635v-1266h-231zM534 1479v51l88 194h209v-65l-176 -180h-121z" />
    <glyph glyph-name="uni040E" unicode="&#x40e;" horiz-adv-x="1227" 
d="M629 1497q-118 0 -185 58q-70 58 -86 135v59h162q8 -119 109 -119q98 0 106 119h164v-59q-17 -79 -85 -135q-68 -58 -185 -58zM324 -12q-58 0 -95 8q-26 6 -30 8v164h82q102 0 154 43q53 44 87 127l8 20l-475 1008v68h209l373 -822l346 822h188v-68l-458 -1040
q-29 -64 -52 -108t-58 -91t-72.5 -75t-90.5 -46t-116 -18z" />
    <glyph glyph-name="uni0410" unicode="&#x410;" horiz-adv-x="1335" 
d="M647 1198l-213 -633h432l-215 633h-4zM1059 0l-137 401h-541l-135 -401h-187v68l488 1366h244l487 -1366v-68h-219z" />
    <glyph glyph-name="uni0411" unicode="&#x411;" horiz-adv-x="1231" 
d="M156 0v1434h893v-168h-664v-398h225q265 0 399 -110t134 -314q0 -217 -140 -330q-141 -114 -401 -114h-446zM385 168h211q156 0 234.5 69.5t78.5 202.5q0 262 -305 262h-219v-534z" />
    <glyph glyph-name="uni0412" unicode="&#x412;" horiz-adv-x="1229" 
d="M156 0v1434h454q236 0 360 -88t124 -281q0 -135 -72 -207t-182 -98v-6q152 -34 225 -106q90 -88 90 -240q0 -200 -137.5 -304t-384.5 -104h-477zM381 829h221q124 0 194 52q70 51 70 170q0 117 -70 166t-192 49h-223v-437zM381 168h246q140 0 216.5 63.5t76.5 186.5
q0 125 -78 187.5t-224 62.5h-237v-500z" />
    <glyph glyph-name="uni0413" unicode="&#x413;" horiz-adv-x="1075" 
d="M166 0v1434h866v-168h-635v-1266h-231z" />
    <glyph glyph-name="uni0414" unicode="&#x414;" horiz-adv-x="1516" 
d="M489 526q-18 -232 -114 -358h682v1094h-520q-3 -73 -13 -248q-6 -107 -15 -238q-7 -96 -20 -250zM236 0l-29 -287h-176v455h80q20 4 43 27t48.5 67t47 125.5t31.5 187.5q13 143 20 280q14 268 14 278q8 135 13 301h958v-1266h172v-455h-176l-29 287h-1017z" />
    <glyph glyph-name="uni0415" unicode="&#x415;" horiz-adv-x="1161" 
d="M156 0v1434h905v-172h-678v-447h498v-164h-498v-483h702v-168h-929z" />
    <glyph glyph-name="uni0416" unicode="&#x416;" horiz-adv-x="2068" 
d="M918 0v651h-205l-430 -651h-203v68l461 696l-420 602v68h184l426 -615h187v615h229v-615h186l426 615h180v-68l-415 -596l465 -702v-68h-207l-430 651h-205v-651h-229z" />
    <glyph glyph-name="uni0417" unicode="&#x417;" horiz-adv-x="1098" 
d="M492 -12q-262 0 -426 131v170h81q55 -57 134 -94q79 -39 202 -39q151 0 225 70t74 200q0 127 -76 184q-77 56 -212 56h-154v161h135q285 0 285 226q0 110 -67.5 166.5t-194.5 56.5q-191 0 -299 -105h-88v166q75 49 171 79q93 30 226 30q220 0 347.5 -96t127.5 -277
q0 -136 -73 -210q-74 -75 -189 -105v-6q297 -59 297 -334q0 -203 -142 -316.5t-384 -113.5z" />
    <glyph glyph-name="uni0418" unicode="&#x418;" horiz-adv-x="1464" 
d="M393 0h-237v1434h225v-1106h6l680 1106h244v-1434h-226v1108h-6z" />
    <glyph glyph-name="uni0419" unicode="&#x419;" horiz-adv-x="1464" 
d="M729 1497q-118 0 -185 58q-68 56 -85 135v59h162q8 -119 108 -119q96 0 107 119h163v-59q-17 -78 -84 -135q-68 -58 -186 -58zM393 0h-237v1434h225v-1106h6l680 1106h244v-1434h-226v1108h-6z" />
    <glyph glyph-name="uni041A" unicode="&#x41a;" horiz-adv-x="1309" 
d="M1022 0l-430 651h-205v-651h-229v1434h229v-615h186l426 615h181v-68l-416 -596l465 -702v-68h-207z" />
    <glyph glyph-name="uni041B" unicode="&#x41b;" horiz-adv-x="1389" 
d="M1004 0v1262h-488q-1 -99 -10 -261q-6 -122 -15 -262q-10 -144 -24 -301q-22 -230 -96 -340t-224 -110q-56 0 -88 8q-20 5 -26 8v164h63q70 0 108 70.5t52 224.5q14 148 24 316q2 35 8 147.5l9 169.5q11 245 14 338h922v-1434h-229z" />
    <glyph glyph-name="uni041C" unicode="&#x41c;" horiz-adv-x="1729" 
d="M156 0v1434h319l391 -1088h4l390 1088h313v-1434h-227v1169h-9l-422 -1169h-143l-418 1169h-8v-1169h-190z" />
    <glyph glyph-name="uni041D" unicode="&#x41d;" horiz-adv-x="1425" 
d="M385 0h-229v1434h229v-615h655v615h230v-1434h-230v651h-655v-651z" />
    <glyph glyph-name="uni041E" unicode="&#x41e;" horiz-adv-x="1495" 
d="M748 -12q-137 0 -257.5 48t-213 137.5t-146 229.5t-53.5 314q0 171 53.5 311t146 230t213 139t257.5 49q108 0 207 -30.5t182.5 -91.5t145.5 -147t97 -204.5t35 -255.5q0 -173 -53.5 -313.5t-146 -230t-212 -137.5t-255.5 -48zM748 152q193 0 312.5 142.5t119.5 418.5
q0 275 -120 421t-312 146q-195 0 -315 -145.5t-120 -421.5q0 -277 119.5 -419t315.5 -142z" />
    <glyph glyph-name="uni041F" unicode="&#x41f;" horiz-adv-x="1415" 
d="M385 0h-229v1434h1093v-1434h-229v1266h-635v-1266z" />
    <glyph glyph-name="uni0420" unicode="&#x420;" horiz-adv-x="1198" 
d="M156 0v1434h430q544 0 544 -437q0 -231 -144 -337q-145 -107 -404 -107h-197v-553h-229zM385 1264v-549h197q166 0 241.5 66.5t75.5 211.5q0 146 -75 209q-77 62 -242 62h-197z" />
    <glyph glyph-name="uni0421" unicode="&#x421;" horiz-adv-x="1276" 
d="M741 -12q-300 0 -478.5 192t-178.5 537q0 170 51.5 308.5t142 230t214 141t268.5 49.5q148 0 242.5 -28t183.5 -87v-174h-88q-54 50 -130 84q-78 35 -202 35q-206 0 -326.5 -143t-120.5 -408q0 -283 111.5 -426t319.5 -143q142 0 228 46q88 47 150 109h76v-170
q-81 -67 -190 -109q-114 -44 -273 -44z" />
    <glyph glyph-name="uni0422" unicode="&#x422;" horiz-adv-x="1180" 
d="M705 0h-232v1266h-424v168h1079v-168h-423v-1266z" />
    <glyph glyph-name="uni0423" unicode="&#x423;" horiz-adv-x="1227" 
d="M324 -12q-58 0 -95 8q-26 6 -30 8v164h82q102 0 154 43q53 44 87 127l8 20l-475 1008v68h209l373 -822l346 822h188v-68l-458 -1040q-29 -64 -52 -108t-58 -91t-72.5 -75t-90.5 -46t-116 -18z" />
    <glyph glyph-name="uni0424" unicode="&#x424;" horiz-adv-x="1686" 
d="M305 715q0 -192 115 -295q116 -105 313 -105v801q-194 0 -311 -106t-117 -295zM1380 715q0 189 -117 295t-311 106v-801q201 0 315 105q113 104 113 295zM956 150v-160h-227v160q-143 4 -261 41t-206.5 105.5t-137 175.5t-48.5 243t49 243.5t137 177.5t206.5 108
t260.5 42v158h227v-158q114 -3 212 -26.5t180 -69t140 -111.5t90 -158.5t32 -205.5q0 -175 -85.5 -302.5t-231.5 -192t-337 -70.5z" />
    <glyph glyph-name="uni0425" unicode="&#x425;" horiz-adv-x="1307" 
d="M74 0v72l430 676l-414 614v72h215l363 -549l338 549h184v-72l-395 -629l438 -661v-72h-213l-391 598l-371 -598h-184z" />
    <glyph glyph-name="uni0426" unicode="&#x426;" horiz-adv-x="1479" 
d="M1421 -287h-178l-29 287h-1058v1434h229v-1266h635v1266h229v-1266h172v-455z" />
    <glyph glyph-name="uni0427" unicode="&#x427;" horiz-adv-x="1331" 
d="M1176 0h-230v604q-61 -23 -153 -46q-102 -26 -230 -26q-205 0 -322 114q-118 114 -118 358v430h229v-426q0 -164 70 -228q71 -65 209 -65q106 0 189 19q96 20 126 28v672h230v-1434z" />
    <glyph glyph-name="uni0428" unicode="&#x428;" horiz-adv-x="2064" 
d="M156 0v1434h229v-1266h533v1266h229v-1266h532v1266h230v-1434h-1753z" />
    <glyph glyph-name="uni0429" unicode="&#x429;" horiz-adv-x="2138" 
d="M2081 -287h-176l-29 287h-1720v1434h229v-1266h533v1266h229v-1266h532v1266h230v-1266h172v-455z" />
    <glyph glyph-name="uni042A" unicode="&#x42a;" horiz-adv-x="1473" 
d="M850 0h-444v1266h-363v168h592v-533h217q267 0 405 -112.5t138 -337.5t-143 -338q-145 -113 -402 -113zM852 733h-217v-565h209q173 0 246 76q73 74 73 211q0 132 -73 205t-238 73z" />
    <glyph glyph-name="uni042B" unicode="&#x42b;" horiz-adv-x="1724" 
d="M156 0v1434h229v-533h217q267 0 405 -112.5t138 -337.5t-143 -338q-145 -113 -402 -113h-444zM1569 0h-232v1434h232v-1434zM602 733h-217v-565h209q173 0 246 76q73 74 73 211q0 132 -73 205t-238 73z" />
    <glyph glyph-name="uni042C" unicode="&#x42c;" horiz-adv-x="1223" 
d="M156 0v1434h229v-533h217q267 0 405 -112.5t138 -337.5t-143 -338q-145 -113 -402 -113h-444zM602 733h-217v-565h209q173 0 246 76q73 74 73 211q0 132 -73 205t-238 73z" />
    <glyph glyph-name="uni042D" unicode="&#x42d;" horiz-adv-x="1257" 
d="M520 -12q-150 0 -264 44q-112 43 -190 109v168h77q67 -67 150 -109q86 -44 215 -44q198 0 307 129q108 128 125 364h-606v168h604q-18 222 -128.5 340.5t-297.5 118.5q-124 0 -206 -35q-81 -35 -132 -84h-88v174q87 58 186 86.5t246 28.5q145 0 265.5 -45.5t208.5 -132.5
t137 -221.5t49 -303.5q0 -348 -175.5 -551.5t-482.5 -203.5z" />
    <glyph glyph-name="uni042E" unicode="&#x42e;" horiz-adv-x="1978" 
d="M1266 -12q-257 0 -432 170q-187 182 -203 493h-246v-651h-229v1434h229v-615h248q14 148 69.5 268t140.5 197.5t193.5 119.5t229.5 42q104 0 198.5 -30.5t174 -91.5t138 -147.5t91.5 -204t33 -255.5q0 -174 -50.5 -314t-138 -229.5t-201.5 -137.5t-245 -48zM1266 152
q181 0 290 141.5t109 419.5q0 276 -109.5 421.5t-289.5 145.5q-183 0 -292.5 -145t-109.5 -422q0 -278 109 -419.5t293 -141.5z" />
    <glyph glyph-name="uni042F" unicode="&#x42f;" horiz-adv-x="1276" 
d="M891 696v568h-201q-161 0 -242 -73t-81 -208q0 -133 77 -210t238 -77h209zM891 532h-209q-43 0 -57 3l-326 -535h-205v66l324 507q-137 53 -210 156.5t-73 253.5q0 217 145 334q144 117 404 117h438v-1434h-231v532z" />
    <glyph glyph-name="uni0430" unicode="&#x430;" horiz-adv-x="1077" 
d="M479 131q90 0 150 36q60 37 104 87v227q-88 21 -205 21q-112 0 -183 -42t-71 -141q0 -101 58 -144q58 -44 147 -44zM950 0h-84q-64 0 -89 24q-27 23 -38 95q-62 -67 -140.5 -99t-188.5 -32q-156 0 -251.5 83t-95.5 236q0 159 117 242.5t312 83.5q133 0 241 -29v141
q0 95 -55 139t-168 44q-173 0 -301 -88h-68v155q77 37 167 64q93 28 231 28q196 0 304 -75q107 -77 107 -252v-760z" />
    <glyph glyph-name="uni0431" unicode="&#x431;" horiz-adv-x="1161" 
d="M582 -10q-117 0 -209.5 35.5t-162 109t-107 194.5t-37.5 283v39q0 371 123 542q143 201 489 212q70 3 174 16q38 7 57 13h84v-166q-37 -9 -82 -17q-128 -19 -243 -24q-196 -11 -285 -94t-109 -252q157 161 377 161q215 0 330 -130t115 -365q0 -135 -39 -242t-108 -175.5
t-162.5 -104t-204.5 -35.5zM582 145q137 0 216 95.5t79 302.5q0 340 -287 340q-112 0 -189 -50q-77 -52 -116 -108v-115q0 -247 73 -356t224 -109z" />
    <glyph glyph-name="uni0432" unicode="&#x432;" horiz-adv-x="1092" 
d="M967 799q0 -189 -199 -232v-6q248 -33 248 -246q0 -315 -426 -315h-453v1071h441q193 0 291 -69t98 -203zM565 922h-217v-291h223q187 0 187 147q0 144 -193 144zM348 483v-333h232q219 0 219 169q0 84 -49.5 124t-161.5 40h-240z" />
    <glyph glyph-name="uni0433" unicode="&#x433;" horiz-adv-x="889" 
d="M846 1071v-156h-494v-915h-215v1071h709z" />
    <glyph glyph-name="uni0434" unicode="&#x434;" horiz-adv-x="1268" 
d="M416 461q-17 -220 -92 -314h528v766h-418q-1 -29 -2.5 -85t-1.5 -83q-2 -72 -6 -148zM219 0l-16 -246h-168v393h41q74 23 106 101t45 231q2 35 15 363q4 109 6 229h819v-924h150v-393h-168l-17 246h-813z" />
    <glyph glyph-name="uni0435" unicode="&#x435;" horiz-adv-x="1098" 
d="M569 944q-107 0 -184 -69q-76 -70 -94 -242h528q-5 174 -69 243q-66 68 -181 68zM999 244v-146q-163 -110 -407 -110q-254 0 -390 147q-136 145 -136 397q0 254 141 404.5t362 150.5t343 -125q120 -126 120 -393q0 -17 -1 -44.5t-1 -28.5h-743q8 -191 94 -271t242 -80
q188 0 305 99h71z" />
    <glyph glyph-name="uni0436" unicode="&#x436;" horiz-adv-x="1667" 
d="M727 0v477h-160l-297 -477h-186v63l309 502l-282 445v61h178l284 -446h154v446h209v-446h154l284 446h174v-61l-278 -437l313 -510v-63h-190l-297 477h-160v-477h-209z" />
    <glyph glyph-name="uni0437" unicode="&#x437;" horiz-adv-x="973" 
d="M440 147q232 0 232 172q0 148 -191 148h-170v147h174q77 0 123.5 40t46.5 116q0 156 -213 156q-160 0 -252 -90h-86v159q128 90 340 90q208 0 315 -80q105 -81 105 -219q0 -100 -59 -159t-152 -76v-8q236 -37 236 -242q0 -150 -110.5 -231.5t-319.5 -81.5q-160 0 -250 37
q-94 37 -137 73v150h78q37 -35 105 -68q69 -33 185 -33z" />
    <glyph glyph-name="uni0438" unicode="&#x438;" horiz-adv-x="1212" 
d="M137 1071h209v-801h6l506 801h217v-1071h-211v803h-4l-506 -803h-217v1071z" />
    <glyph glyph-name="uni0439" unicode="&#x439;" horiz-adv-x="1212" 
d="M610 1163q-108 0 -179.5 58t-88.5 141v59h162q8 -127 106 -127q101 0 109 127h162v-59q-20 -85 -90 -142t-181 -57zM137 1071h209v-801h6l506 801h217v-1071h-211v803h-4l-506 -803h-217v1071z" />
    <glyph glyph-name="uni043A" unicode="&#x43a;" horiz-adv-x="1098" 
d="M823 0l-297 477h-180v-477h-209v1071h209v-446h174l285 446h174v-61l-279 -437l314 -510v-63h-191z" />
    <glyph glyph-name="uni043B" unicode="&#x43b;" horiz-adv-x="1174" 
d="M821 0v913h-385q-1 -17 -2 -52q0 -6 -5 -129l-8 -164l-9 -158q-15 -215 -76 -317q-62 -105 -207 -105q-31 0 -72 12q-12 5 -24 14v150h39q77 0 106 59q27 59 39 191q7 86 12 198l9 215q4 118 6 244h792v-1071h-215z" />
    <glyph glyph-name="uni043C" unicode="&#x43c;" horiz-adv-x="1466" 
d="M137 0v1071h289l319 -756h5l303 756h288v-1071h-208v836h-7l-333 -836h-129l-347 836h-6v-836h-174z" />
    <glyph glyph-name="uni043D" unicode="&#x43d;" horiz-adv-x="1198" 
d="M846 0v477h-494v-477h-215v1071h215v-446h494v446h121q61 0 77.5 -29t16.5 -131v-911h-215z" />
    <glyph glyph-name="uni043E" unicode="&#x43e;" horiz-adv-x="1186" 
d="M594 -12q-234 0 -378 144q-150 150 -150 400q0 127 40 231.5t110.5 175.5t167.5 109.5t210 38.5q230 0 378 -151t148 -404q0 -248 -150 -400q-142 -144 -376 -144zM594 145q142 0 224 97q83 97 83 290q0 194 -83 297q-83 101 -224 101t-225 -101q-84 -102 -84 -297
q0 -194 84 -290q84 -97 225 -97z" />
    <glyph glyph-name="uni043F" unicode="&#x43f;" horiz-adv-x="1182" 
d="M352 922v-922h-215v1071h912v-1071h-215v922h-482z" />
    <glyph glyph-name="uni0440" unicode="&#x440;" horiz-adv-x="1192" 
d="M604 160q299 0 299 379q0 88 -15.5 156t-40.5 110t-61 68.5t-73 36.5t-80 10q-82 0 -156 -38q-73 -37 -127 -85v-543q101 -94 254 -94zM655 6q-188 0 -305 98v-436h-215v1403h135q41 0 59 -25q16 -25 21 -112q63 60 149 106q88 47 210 47q64 0 122 -16.5t112 -56t93 -99
t62.5 -151t23.5 -205.5q0 -287 -146 -431q-125 -122 -321 -122z" />
    <glyph glyph-name="uni0441" unicode="&#x441;" horiz-adv-x="1022" 
d="M600 -12q-254 0 -394 146t-140 401q0 168 71 294.5t194 192t279 65.5q128 0 206 -28q76 -27 126 -58v-163h-90q-92 88 -244 88q-143 0 -233 -100t-90 -291q0 -194 86 -291q85 -97 233 -97q109 0 172 33q62 33 96 70h80v-152q-45 -36 -135 -73q-87 -37 -217 -37z" />
    <glyph glyph-name="uni0442" unicode="&#x442;" horiz-adv-x="983" 
d="M43 915v156h897v-156h-342v-915h-215v915h-340z" />
    <glyph glyph-name="uni0443" unicode="&#x443;" horiz-adv-x="1100" 
d="M313 -332v60l152 333l-414 953v57h203l313 -752h4l293 752h187v-57l-553 -1346h-185z" />
    <glyph glyph-name="uni0444" unicode="&#x444;" horiz-adv-x="1571" 
d="M893 1294v-207q288 0 450 -145.5t162 -400.5q0 -259 -162 -406t-450 -147v-320h-217v320q-287 0 -448.5 144.5t-161.5 399.5q0 259 162 407t448 148v347h125q57 0 75 -26q17 -26 17 -114zM893 930v-785q393 0 393 398q0 387 -393 387zM285 532q0 -387 391 -387v785
q-194 0 -292.5 -101t-98.5 -297z" />
    <glyph glyph-name="uni0445" unicode="&#x445;" horiz-adv-x="1073" 
d="M59 0v61l334 488l-319 461v61h200l271 -399l248 399h178v-61l-295 -451l338 -498v-61h-199l-293 440l-282 -440h-181z" />
    <glyph glyph-name="uni0446" unicode="&#x446;" horiz-adv-x="1233" 
d="M1182 -246h-168l-17 246h-860v1071h215v-924h465v924h121q63 0 79.5 -28.5t16.5 -131.5v-764h148v-393z" />
    <glyph glyph-name="uni0447" unicode="&#x447;" horiz-adv-x="1130" 
d="M995 0h-215v444q-50 -22 -124 -43q-81 -24 -191 -24q-171 0 -261.5 83t-90.5 269v342h215v-317q0 -115 50 -164t157 -49q83 0 146 19q65 18 99 30v481h121q62 0 78 -28.5t16 -131.5v-911z" />
    <glyph glyph-name="uni0448" unicode="&#x448;" horiz-adv-x="1729" 
d="M1593 0h-1456v1071h215v-921h406v921h215v-921h405v921h121q62 0 78 -28.5t16 -131.5v-911z" />
    <glyph glyph-name="uni0449" unicode="&#x449;" horiz-adv-x="1794" 
d="M1743 -246h-168l-16 246h-1422v1071h215v-921h406v921h215v-921h405v921h121q62 0 78 -28.5t16 -131.5v-761h150v-396z" />
    <glyph glyph-name="uni044A" unicode="&#x44a;" horiz-adv-x="1260" 
d="M733 0h-395v922h-295v149h508v-371h190q447 0 447 -346q0 -177 -121 -265.5t-334 -88.5zM551 553v-403h174q115 0 183 45q67 45 67 155q0 111 -67 157t-181 46h-176z" />
    <glyph glyph-name="uni044B" unicode="&#x44b;" horiz-adv-x="1475" 
d="M1337 0h-215v1071h121q62 0 78 -28.5t16 -131.5v-911zM350 1071v-371h191q101 0 180.5 -19t140 -59t93 -107.5t32.5 -160.5q0 -178 -120.5 -266t-334.5 -88h-395v1071h213zM350 553v-403h172q118 0 185 45t67 155q0 111 -67 157t-183 46h-174z" />
    <glyph glyph-name="uni044C" unicode="&#x44c;" horiz-adv-x="1059" 
d="M350 1071v-371h191q101 0 180.5 -19t140 -59t93 -107.5t32.5 -160.5q0 -178 -120.5 -266t-334.5 -88h-395v1071h213zM350 553v-403h172q118 0 185 45t67 155q0 111 -67 157t-183 46h-174z" />
    <glyph glyph-name="uni044D" unicode="&#x44d;" horiz-adv-x="1018" 
d="M420 -12q-132 0 -218 37q-89 37 -134 73v150h77q40 -37 101 -68q63 -33 168 -33q138 0 222 80.5t99 239.5h-442v147h442q-16 149 -101.5 230.5t-223.5 81.5q-156 0 -248 -90h-84v159q46 34 125 63q78 27 207 27q249 0 397.5 -141.5t148.5 -390.5q0 -263 -142 -414
t-394 -151z" />
    <glyph glyph-name="uni044E" unicode="&#x44e;" horiz-adv-x="1624" 
d="M1051 -12q-216 0 -352 130t-152 359h-195v-477h-215v1071h121q63 0 78.5 -28t15.5 -132v-286h199q24 215 159 338.5t341 123.5q228 0 366.5 -149.5t138.5 -405.5q0 -250 -139 -400q-135 -144 -366 -144zM1051 143q135 0 210.5 99t75.5 290q0 193 -75.5 295.5
t-210.5 102.5t-211 -103t-76 -295q0 -191 76 -290t211 -99z" />
    <glyph glyph-name="uni044F" unicode="&#x44f;" horiz-adv-x="1073" 
d="M952 -2h-213v385h-204l-269 -383h-184v63l262 351q-104 35 -163 109q-60 73 -60 202q0 173 120.5 258.5t333.5 85.5h377v-1071zM739 532v390h-153q-116 0 -183 -43q-69 -43 -69 -152q0 -106 68 -150q68 -45 180 -45h157z" />
    <glyph glyph-name="uni0451" unicode="&#x451;" horiz-adv-x="1098" 
d="M383 1190q-48 0 -82.5 33.5t-34.5 81.5q0 47 34.5 80.5t82.5 33.5q49 0 82.5 -33.5t33.5 -80.5q0 -48 -33.5 -81.5t-82.5 -33.5zM735 1190q-48 0 -81.5 33.5t-33.5 81.5q0 47 33.5 80.5t81.5 33.5t82.5 -33.5t34.5 -80.5q0 -48 -34.5 -81.5t-82.5 -33.5zM569 944
q-107 0 -184 -69q-76 -70 -94 -242h528q-5 174 -69 243q-66 68 -181 68zM999 244v-146q-163 -110 -407 -110q-254 0 -390 147q-136 145 -136 397q0 254 141 404.5t362 150.5t343 -125q120 -126 120 -393q0 -17 -1 -44.5t-1 -28.5h-743q8 -191 94 -271t242 -80q188 0 305 99
h71z" />
    <glyph glyph-name="uni0453" unicode="&#x453;" horiz-adv-x="889" 
d="M846 1071v-156h-494v-915h-215v1071h709zM563 1161h-121v49l103 224h210v-68z" />
    <glyph glyph-name="uni045E" unicode="&#x45e;" horiz-adv-x="1100" 
d="M567 1163q-105 0 -172 57.5t-84 141.5v59h150q8 -127 106 -127q101 0 109 127h149v-59q-17 -84 -85 -141.5t-173 -57.5zM313 -332v60l152 333l-414 953v57h203l313 -752h4l293 752h187v-57l-553 -1346h-185z" />
    <glyph glyph-name="uni0490" unicode="&#x490;" horiz-adv-x="1090" 
d="M397 1266v-1266h-231v1434h682l29 278h167v-446h-647z" />
    <glyph glyph-name="Wgrave" unicode="&#x1e80;" horiz-adv-x="1835" 
d="M995 1479h-118l-181 180v65h211l88 -194v-51zM403 0l-337 1366v68h210l256 -1125h5l282 1125h197l280 -1125h4l256 1125h191v-68l-338 -1366h-235l-263 1081h-4l-268 -1081h-236z" />
    <glyph glyph-name="wgrave" unicode="&#x1e81;" horiz-adv-x="1567" 
d="M356 0l-297 1010v61h195l215 -774h4l234 774h163l232 -774h4l213 774h170v-61l-295 -1010h-186l-230 766h-4l-233 -766h-185zM862 1161h-118l-193 205v68h209l102 -224v-49z" />
    <glyph glyph-name="Wacute" unicode="&#x1e82;" horiz-adv-x="1835" 
d="M864 1479v51l88 194h209v-65l-176 -180h-121zM403 0l-337 1366v68h210l256 -1125h5l282 1125h197l280 -1125h4l256 1125h191v-68l-338 -1366h-235l-263 1081h-4l-268 -1081h-236z" />
    <glyph glyph-name="wacute" unicode="&#x1e83;" horiz-adv-x="1567" 
d="M858 1161h-121v49l103 224h210v-68zM356 0l-297 1010v61h195l215 -774h4l234 774h163l232 -774h4l213 774h170v-61l-295 -1010h-186l-230 766h-4l-233 -766h-185z" />
    <glyph glyph-name="Wdieresis" unicode="&#x1e84;" horiz-adv-x="1835" 
d="M760 1489q-49 0 -83 33.5t-34 83.5q0 46 34.5 80t82.5 34t82 -34t34 -80q0 -50 -33.5 -83.5t-82.5 -33.5zM1100 1489q-48 0 -81.5 33.5t-33.5 83.5q0 46 33.5 80t81.5 34q47 0 81.5 -34t34.5 -80q0 -50 -34 -83.5t-82 -33.5zM403 0l-337 1366v68h210l256 -1125h5
l282 1125h197l280 -1125h4l256 1125h191v-68l-338 -1366h-235l-263 1081h-4l-268 -1081h-236z" />
    <glyph glyph-name="wdieresis" unicode="&#x1e85;" horiz-adv-x="1567" 
d="M623 1190q-48 0 -82.5 33.5t-34.5 81.5q0 47 34.5 80.5t82.5 33.5q49 0 82.5 -33.5t33.5 -80.5q0 -48 -33.5 -81.5t-82.5 -33.5zM975 1190q-48 0 -81.5 33.5t-33.5 81.5q0 47 33.5 80.5t81.5 33.5t82.5 -33.5t34.5 -80.5q0 -48 -34.5 -81.5t-82.5 -33.5zM356 0l-297 1010
v61h195l215 -774h4l234 774h163l232 -774h4l213 774h170v-61l-295 -1010h-186l-230 766h-4l-233 -766h-185z" />
    <glyph glyph-name="Ygrave" unicode="&#x1ef2;" horiz-adv-x="1198" 
d="M715 0h-221v573l-439 789v72h203l352 -650h2l344 650h179v-72l-420 -782v-580zM680 1479h-118l-181 180v65h211l88 -194v-51z" />
    <glyph glyph-name="ygrave" unicode="&#x1ef3;" horiz-adv-x="1081" 
d="M309 -332v60l148 333l-402 953v57h197l305 -752h2l285 752h180v-57l-535 -1346h-180zM626 1161h-118l-193 205v68h209l102 -224v-49z" />
    <glyph glyph-name="endash" unicode="&#x2013;" horiz-adv-x="883" 
d="M92 498v172h699v-172h-699z" />
    <glyph glyph-name="emdash" unicode="&#x2014;" horiz-adv-x="1460" 
d="M92 498v172h1276v-172h-1276z" />
    <glyph glyph-name="quoteleft" unicode="&#x2018;" horiz-adv-x="397" 
d="M324 1337q-47 -7 -73 -28t-26 -47q0 -12 4.5 -20.5t8 -12t17 -11t17.5 -10.5q45 -29 45 -94q0 -46 -33 -76t-83 -30q-55 0 -91 39t-36 114q0 250 250 279v-103z" />
    <glyph glyph-name="quoteright" unicode="&#x2019;" horiz-adv-x="397" 
d="M74 1014v102q48 7 75 28t27 48q0 12 -5 20.5t-10 12.5t-17.5 11t-18.5 11q-45 33 -45 92q0 47 33 77t84 30q54 0 90.5 -39t36.5 -115q0 -127 -62 -195.5t-188 -82.5z" />
    <glyph glyph-name="quotesinglbase" unicode="&#x201a;" horiz-adv-x="397" 
d="M74 -80q48 6 75 26.5t27 47.5q0 12 -5 20.5t-10 12.5t-17.5 11t-18.5 11q-45 33 -45 92q0 47 33 77t84 30q54 0 90.5 -39t36.5 -115q0 -249 -250 -276v102z" />
    <glyph glyph-name="quotedblleft" unicode="&#x201c;" horiz-adv-x="750" 
d="M324 1337q-47 -7 -73 -28t-26 -47q0 -12 4.5 -20.5t8 -12t17 -11t17.5 -10.5q45 -29 45 -94q0 -46 -33 -76t-83 -30q-55 0 -91 39t-36 114q0 250 250 279v-103zM676 1337q-48 -7 -74 -27.5t-26 -47.5q0 -12 5 -20.5t9.5 -12t17 -10.5t17.5 -11q47 -31 47 -94
q0 -46 -34 -76t-85 -30q-55 0 -91 39t-36 114q0 250 250 279v-103z" />
    <glyph glyph-name="quotedblright" unicode="&#x201d;" horiz-adv-x="750" 
d="M426 1014v102q47 7 73.5 28t26.5 48q0 12 -4.5 20.5t-9 12t-17.5 11.5l-18 11q-45 34 -45 92q0 47 33 77t84 30q54 0 90.5 -39t36.5 -115q0 -127 -62 -195.5t-188 -82.5zM74 1014v102q48 7 75 28t27 48q0 12 -5 20.5t-10 12.5t-17.5 11t-18.5 11q-45 33 -45 92
q0 47 33 77t84 30q54 0 90.5 -39t36.5 -115q0 -127 -62 -195.5t-188 -82.5z" />
    <glyph glyph-name="quotedblbase" unicode="&#x201e;" horiz-adv-x="750" 
d="M426 -80q47 6 73.5 26.5t26.5 47.5q0 12 -4.5 20.5t-9 12t-17.5 11.5l-18 11q-45 34 -45 92q0 47 33 77t84 30q54 0 90.5 -39t36.5 -115q0 -249 -250 -276v102zM74 -80q48 6 75 26.5t27 47.5q0 12 -5 20.5t-10 12.5t-17.5 11t-18.5 11q-45 33 -45 92q0 47 33 77t84 30
q54 0 90.5 -39t36.5 -115q0 -249 -250 -276v102z" />
    <glyph glyph-name="dagger" unicode="&#x2020;" horiz-adv-x="918" 
d="M381 -100l-31 655v137l43 217l-215 -45h-112v209h112l215 -47l-37 201v207h205v-207l-39 -201l217 47h111v-209h-111l-217 45l45 -215v-139l-30 -655h-156z" />
    <glyph glyph-name="daggerdbl" unicode="&#x2021;" horiz-adv-x="918" 
d="M356 -100v202l37 199l-215 -45h-112v207h112l215 -45l-43 178v139l45 181l-217 -46h-112v207h112l217 -45l-39 199v203h205v-203l-39 -199l217 45h111v-207h-111l-217 46l47 -179v-139l-49 -180l219 45h111v-207h-111l-219 45l41 -199v-202h-205z" />
    <glyph glyph-name="bullet" unicode="&#x2022;" horiz-adv-x="657" 
d="M328 332q-110 0 -183 70t-73 188q0 119 73.5 190.5t182.5 71.5q110 0 183 -71.5t73 -190.5q0 -118 -73 -188t-183 -70z" />
    <glyph glyph-name="ellipsis" unicode="&#x2026;" horiz-adv-x="1278" 
d="M201 -10q-53 0 -90 36.5t-37 90.5q0 53 37.5 91t89.5 38t90.5 -38t38.5 -91t-38.5 -90t-90.5 -37zM639 -10q-54 0 -90.5 36.5t-36.5 90.5t36.5 91.5t90.5 37.5q53 0 91 -38t38 -91t-38 -90t-91 -37zM1077 -10q-54 0 -91.5 36.5t-37.5 90.5q0 53 38 91t91 38
q52 0 89.5 -38t37.5 -91q0 -54 -37 -90.5t-90 -36.5z" />
    <glyph glyph-name="perthousand" unicode="&#x2030;" horiz-adv-x="2316" 
d="M391 832q76 0 118 62t42 181q0 121 -42 182.5t-118 61.5q-73 0 -115 -62t-42 -182q0 -119 42 -181t115 -62zM391 705q-138 0 -234 97t-96 275q0 91 27 163t73.5 116t105 67t124.5 23q141 0 235.5 -95.5t94.5 -273.5q0 -91 -26.5 -163t-72.5 -117t-105 -68.5t-126 -23.5z
M217 -70l979 1563h166l-981 -1563h-164zM1188 115q74 0 117 62.5t43 180.5q0 120 -43 182t-117 62t-116 -62t-42 -182q0 -118 42 -180.5t116 -62.5zM1188 -12q-139 0 -234.5 97t-95.5 275t95 273.5t235 95.5t235 -95.5t95 -273.5t-95.5 -275t-234.5 -97zM1925 115
q74 0 117 62.5t43 180.5q0 120 -43 182t-117 62q-73 0 -115.5 -62t-42.5 -182q0 -118 43 -180.5t115 -62.5zM1925 -12q-139 0 -234.5 97t-95.5 275t95 273.5t235 95.5t235 -95.5t95 -273.5t-95.5 -275t-234.5 -97z" />
    <glyph glyph-name="guilsinglleft" unicode="&#x2039;" horiz-adv-x="594" 
d="M350 88l-270 397v93l270 399h164v-55l-252 -385v-4l252 -392v-53h-164z" />
    <glyph glyph-name="guilsinglright" unicode="&#x203a;" horiz-adv-x="594" 
d="M246 977l268 -399v-91l-268 -399h-166v53l252 392v6l-252 383v55h166z" />
    <glyph glyph-name="fraction" unicode="&#x2044;" horiz-adv-x="446" 
d="M793 1493l-979 -1563h-160l981 1563h158z" />
    <glyph glyph-name="Euro" unicode="&#x20ac;" horiz-adv-x="1210" 
d="M53 920h129q48 249 204 387.5t382 138.5q122 0 201 -23t157 -73v-164h-86q-54 43 -115 66.5t-151 23.5q-148 0 -240.5 -90.5t-123.5 -265.5h440l-25 -138h-432v-125h408l-27 -137h-366q27 -183 113.5 -273.5t236.5 -90.5q188 0 311 121h78v-156q-155 -133 -399 -133
q-229 0 -377.5 137.5t-190.5 394.5h-127v137h113v60q0 43 2 65h-115v138z" />
    <glyph glyph-name="uni20BD" unicode="&#x20bd;" horiz-adv-x="1405" 
 />
    <glyph glyph-name="uni2116" unicode="&#x2116;" horiz-adv-x="2094" 
d="M174 0v1456h260l601 -1014h6v1014h199v-1456h-191l-672 1143h-6v-1143h-197zM2018 637v-149h-642v149h642zM1694 792q-140 0 -233.5 88.5t-93.5 237.5q0 151 94 242t233 91q140 0 233.5 -91t93.5 -242q0 -150 -93.5 -238t-233.5 -88zM1694 920q146 0 146 197
q0 102 -39 154.5t-107 52.5q-67 0 -106.5 -52.5t-39.5 -154.5q0 -101 39 -149t107 -48z" />
    <glyph glyph-name="trademark" unicode="&#x2122;" horiz-adv-x="1329" 
d="M356 864h-133v467h-164v103h461v-103h-164v-467zM608 864v570h201l111 -359h2l114 359h201v-570h-131v455h-2l-143 -455h-97l-143 455h-2v-455h-111z" />
    <glyph glyph-name="onethird" unicode="&#x2153;" horiz-adv-x="1466" 
d="M397 655h-174v605l-127 -70h-39v125l215 119h125v-779zM1233 1493l-981 -1563h-158l979 1563h160zM1116 -10q-137 0 -231 69v111h63q53 -57 156 -57q70 0 108.5 29.5t38.5 86.5q0 56 -39 82.5t-104 26.5h-70v115h66q64 0 101.5 28t37.5 78q0 101 -123 101
q-46 0 -86 -14.5t-63 -35.5h-64v107q109 72 236 72q118 0 189 -53.5t71 -155.5q0 -130 -145 -174v-5q159 -32 159 -182q0 -109 -80 -169t-221 -60z" />
    <glyph glyph-name="twothirds" unicode="&#x2154;" horiz-adv-x="1608" 
d="M418 -70h-160l981 1563h158zM596 655h-526v134l217 206q76 73 108.5 119.5t32.5 93.5t-31.5 76t-87.5 29q-47 0 -89 -18.5t-68 -45.5h-64v115q100 80 244 80q127 0 196.5 -57.5t69.5 -165.5q0 -79 -44 -142.5t-146 -156.5l-148 -133h336v-134zM1024 170h64
q21 -24 61.5 -40.5t91.5 -16.5q72 0 111 29.5t39 86.5q0 56 -39 82.5t-105 26.5h-71v115h65q65 0 103 28t38 78q0 101 -122 101q-90 0 -152 -50h-61v107q107 72 235 72q118 0 189 -53.5t71 -155.5q0 -130 -145 -174v-5q160 -32 160 -182q0 -109 -81 -169t-221 -60
q-137 0 -231 69v111z" />
    <glyph glyph-name="oneeighth" unicode="&#x215b;" horiz-adv-x="1501" 
d="M397 655h-174v605l-127 -70h-39v125l215 119h125v-779zM1239 1493l-979 -1563h-158l979 1563h158zM1151 -12q-144 0 -223.5 61.5t-79.5 167.5q0 145 149 197v4q-116 33 -116 166q0 93 74 149t196 56q120 0 195 -56t75 -149q0 -125 -116 -166v-4q149 -48 149 -197
q0 -106 -79.5 -167.5t-223.5 -61.5zM1151 102q70 0 106.5 35t36.5 92q0 58 -36.5 93.5t-106.5 35.5q-71 0 -107 -35.5t-36 -93.5q0 -57 36 -92t107 -35zM1151 463q56 0 86.5 27.5t30.5 76.5q0 50 -30.5 78.5t-86.5 28.5q-58 0 -88.5 -28.5t-30.5 -78.5q0 -49 30.5 -76.5
t88.5 -27.5z" />
    <glyph glyph-name="threeeighths" unicode="&#x215c;" horiz-adv-x="1544" 
d="M297 645q-140 0 -233 70v110h63q64 -57 156 -57q71 0 110 29.5t39 87.5q0 56 -39 83t-104 27h-72v113h66q65 0 103 28.5t38 80.5q0 47 -32 72.5t-91 25.5q-90 0 -151 -49h-62v106q103 72 234 72q118 0 189 -53.5t71 -155.5q0 -128 -144 -174v-4q158 -34 158 -182
q0 -110 -79.5 -170t-219.5 -60zM1319 1493l-979 -1563h-160l981 1563h158zM1194 -12q-144 0 -222.5 61.5t-78.5 167.5q0 145 147 197v4q-56 16 -86 59.5t-30 106.5q0 93 74.5 149t195.5 56t195.5 -56t74.5 -149q0 -125 -114 -166v-4q149 -49 149 -197q0 -106 -80.5 -167.5
t-224.5 -61.5zM1194 102q71 0 107 35t36 92q0 58 -36 93.5t-107 35.5q-70 0 -106.5 -35.5t-36.5 -93.5q0 -57 36.5 -92t106.5 -35zM1194 463q56 0 86.5 27.5t30.5 76.5q0 50 -30.5 78.5t-86.5 28.5q-58 0 -88.5 -28.5t-30.5 -78.5q0 -49 30.5 -76.5t88.5 -27.5z" />
    <glyph glyph-name="fiveeighths" unicode="&#x215d;" horiz-adv-x="1563" 
d="M612 909q0 -120 -86 -192t-229 -72q-128 0 -225 64v114h63q59 -53 154 -53q72 0 113.5 36.5t41.5 102.5q0 62 -34 94.5t-88 32.5q-74 0 -125 -57h-99v455h471v-131h-350v-203h2q55 49 158 49t168 -61.5t65 -178.5zM1329 1493l-979 -1563h-159l981 1563h157zM1212 -12
q-144 0 -223.5 61.5t-79.5 167.5q0 144 150 197v4q-117 33 -117 166q0 93 74.5 149t195.5 56t196 -56t75 -149q0 -124 -115 -166v-4q148 -49 148 -197q0 -106 -80 -167.5t-224 -61.5zM1212 102q70 0 107 35t37 92q0 58 -37 93.5t-107 35.5q-71 0 -107 -35.5t-36 -93.5
q0 -57 36 -92t107 -35zM1212 463q56 0 86.5 27.5t30.5 76.5q0 50 -30.5 78.5t-86.5 28.5q-57 0 -87.5 -28.5t-30.5 -78.5q0 -49 30.5 -76.5t87.5 -27.5z" />
    <glyph glyph-name="seveneighths" unicode="&#x215e;" horiz-adv-x="1511" 
d="M1237 1493l-981 -1563h-158l979 1563h160zM1159 -12q-144 0 -223.5 61.5t-79.5 167.5q0 146 150 197v4q-117 33 -117 166q0 93 74 149t196 56q120 0 195.5 -56t75.5 -149q0 -125 -117 -166v-4q149 -48 149 -197q0 -106 -79.5 -167.5t-223.5 -61.5zM1159 102q70 0 107 35
t37 92q0 58 -37 93.5t-107 35.5q-71 0 -107 -35.5t-36 -93.5q0 -57 36 -92t107 -35zM1159 463q56 0 86.5 27.5t30.5 76.5q0 50 -30.5 78.5t-86.5 28.5q-58 0 -88.5 -28.5t-30.5 -78.5q0 -49 30.5 -76.5t88.5 -27.5zM158 655v56l295 583v4h-383v136h522v-144l-272 -635h-162z
" />
    <glyph glyph-name="minus" unicode="&#x2212;" horiz-adv-x="1024" 
d="M954 621h-884v174h884v-174z" />
    <glyph glyph-name="NULL" horiz-adv-x="0" 
 />
    <glyph glyph-name="CR" horiz-adv-x="682" 
 />
    <glyph glyph-name="glyph45" 
d="M487 1161h-118l-193 205v68h209l102 -224v-49z" />
    <glyph glyph-name="glyph73" 
d="M240 1190q-48 0 -82.5 33.5t-34.5 81.5q0 47 34.5 80.5t82.5 33.5q49 0 82.5 -33.5t33.5 -80.5q0 -48 -33.5 -81.5t-82.5 -33.5zM592 1190q-48 0 -81.5 33.5t-33.5 81.5q0 47 33.5 80.5t81.5 33.5t82.5 -33.5t34.5 -80.5q0 -48 -34.5 -81.5t-82.5 -33.5z" />
    <glyph glyph-name="glyph74" 
d="M657 1368v-147h-481v147h481z" />
    <glyph glyph-name="glyph75" 
d="M467 1161h-121v49l103 224h210v-68z" />
    <glyph glyph-name="glyph132" 
d="M164 1161v60l180 213h150l174 -213v-60h-117l-137 131l-142 -131h-108z" />
    <glyph glyph-name="glyph133" 
d="M668 1434v-60l-181 -213h-149l-174 213v60h117l137 -131l141 131h109z" />
    <glyph glyph-name="glyph134" 
d="M416 1163q-101 0 -167 57.5t-81 141.5v59h135q13 -110 113 -110q101 0 114 110h136v-59q-17 -84 -82 -141.5t-168 -57.5z" />
    <glyph glyph-name="glyph135" 
d="M418 1190q-50 0 -85.5 35t-35.5 84q0 50 35.5 86.5t85.5 36.5q48 0 84.5 -36.5t36.5 -86.5q0 -49 -36 -84t-85 -35z" />
    <glyph glyph-name="glyph136" 
d="M416 1167q-82 0 -137.5 52t-55.5 139t56 140.5t137 53.5t137.5 -53.5t56.5 -140.5q0 -86 -56.5 -138.5t-137.5 -52.5zM416 1268q37 0 61.5 25.5t24.5 64.5q0 41 -24.5 66.5t-61.5 25.5q-36 0 -60 -25.5t-24 -66.5q0 -39 24 -64.5t60 -25.5z" />
    <glyph glyph-name="glyph137" 
d="M115 1176v59q15 79 60.5 123.5t115.5 44.5q50 0 120.5 -33t92.5 -33q56 0 74 70h118v-61q-15 -80 -60 -124t-116 -44q-48 0 -118.5 33.5t-90.5 33.5q-60 0 -73 -69h-123z" />
    <glyph glyph-name="glyph138" 
d="M213 1161v43l80 230h172v-68l-135 -205h-117zM500 1161v43l78 230h174v-68l-136 -205h-116z" />
    <glyph glyph-name="glyph254" 
d="M311 -412v95q76 12 76 57q0 9 -3.5 15.5t-6.5 9t-13.5 8.5t-13.5 8q-37 29 -37 78q0 40 28.5 65t70.5 25q46 0 76 -32t30 -97q0 -206 -207 -232z" />
    <glyph glyph-name="glyph255" horiz-adv-x="819" 
d="M514 1546v-94q-78 -12 -78 -57q0 -11 4 -17.5t18.5 -14t16.5 -9.5q35 -30 35 -78q0 -41 -27.5 -65.5t-70.5 -24.5q-44 0 -75 30q-32 29 -32 99q0 207 209 231z" />
    <glyph glyph-name="glyph256" 
d="M487 1479h-118l-181 180v65h211l88 -194v-51z" />
    <glyph glyph-name="glyph257" 
d="M246 1489q-49 0 -83 33.5t-34 83.5q0 46 34.5 80t82.5 34t82 -34t34 -80q0 -50 -33.5 -83.5t-82.5 -33.5zM586 1489q-48 0 -81.5 33.5t-33.5 83.5q0 46 33.5 80t81.5 34q47 0 81.5 -34t34.5 -80q0 -50 -34 -83.5t-82 -33.5z" />
    <glyph glyph-name="glyph258" 
d="M666 1667v-149h-498v149h498z" />
    <glyph glyph-name="glyph259" 
d="M346 1479v51l88 194h209v-65l-176 -180h-121z" />
    <glyph glyph-name="glyph260" 
d="M166 1479v59l178 193h150l172 -193v-59h-117l-135 110l-138 -110h-110z" />
    <glyph glyph-name="glyph261" 
d="M666 1731v-60l-181 -192h-147l-172 192v60h115l137 -109l137 109h111z" />
    <glyph glyph-name="glyph262" 
d="M416 1483q-101 0 -167 52.5t-81 129.5v59h135q5 -43 34 -68.5t79 -25.5q101 0 114 94h136v-59q-17 -78 -82 -130t-168 -52z" />
    <glyph glyph-name="glyph263" 
d="M416 1485q-81 0 -137 53t-56 139t56 139.5t137 53.5q80 0 137 -54t57 -139t-56.5 -138.5t-137.5 -53.5zM416 1587q38 0 62 24.5t24 65.5t-24.5 66.5t-61.5 25.5q-36 0 -60 -25.5t-24 -66.5t24 -65.5t60 -24.5z" />
    <glyph glyph-name="glyph264" 
d="M115 1487v61q15 80 60.5 124t115.5 44q50 0 120.5 -32.5t92.5 -32.5q56 0 74 67h118v-59q-15 -80 -60 -124t-116 -44q-48 0 -118.5 34t-90.5 34q-60 0 -73 -72h-123z" />
    <glyph glyph-name="glyph265" 
d="M213 1479v45l70 200h174v-65l-127 -180h-117zM500 1479v45l69 200h172v-65l-125 -180h-116z" />
    <glyph glyph-name="glyph266" horiz-adv-x="618" 
d="M41 924v147h129v92q0 151 79 218t212 67q83 0 137 -21v-133h-72q-69 0 -108 -27q-39 -29 -39 -112v-84h219v-147h-219v-924h-209v924h-129z" />
    <glyph glyph-name="glyph267" horiz-adv-x="1180" 
d="M379 924v-924h-209v924h-129v147h129v80q0 150 79 217q80 68 212 68q88 0 149 -21v-133h-84q-69 0 -108 -27q-39 -29 -39 -112v-72h352v92q0 151 79 218t214 67q81 0 137 -21v-133h-74q-71 0 -109 -27q-38 -29 -38 -112v-84h221v-147h-221v-924h-209v924h-352z" />
    <glyph glyph-name="uni0414.locl" horiz-adv-x="1491" 
d="M27 -287v455h139l452 1266h261l446 -1266h139v-455h-176l-28 287h-1029l-28 -287h-176zM373 168h710l-350 1030h-4z" />
    <glyph glyph-name="uni0416.locl" horiz-adv-x="2138" 
d="M80 0v68l518 784l-473 514v68h194l635 -711v711h230v-713l643 713h184v-68l-467 -510l516 -788v-68h-217l-450 694l-209 -225v-469h-230v469l-206 223l-451 -692h-217z" />
    <glyph glyph-name="uni041A.locl" horiz-adv-x="1339" 
d="M156 0v1434h229v-713l639 713h186v-68l-465 -510l515 -788v-68h-218l-450 692l-207 -225v-467h-229z" />
    <glyph glyph-name="uni041B.locl" horiz-adv-x="1348" 
d="M59 0v68l488 1366h244l487 -1366v-68h-219l-408 1198h-4l-401 -1198h-187z" />
    <glyph glyph-name="uni0431.locl" horiz-adv-x="1165" 
d="M582 -12q-227 0 -371 139q-141 136 -141 346q0 179 103 298t278 157q-178 38 -248 103q-72 65 -72 173q0 45 18 84t54.5 73t102 53.5t151.5 19.5h573v-166h-543q-155 0 -155 -99q0 -55 64 -91q59 -35 239 -83q225 -60 343 -180.5t118 -333.5q0 -214 -141 -353
q-142 -140 -373 -140zM582 143q141 0 218 92t77 238q0 148 -77 243t-218 95q-138 0 -216.5 -94t-78.5 -244q0 -146 77 -238t218 -92z" />
    <glyph glyph-name="uni0432.locl" horiz-adv-x="1051" 
d="M528 1483q196 0 306 -98q108 -99 108 -275q0 -140 -73 -225q-74 -86 -199 -109v-2q136 -16 225 -105q88 -88 88 -251q0 -205 -120 -319q-119 -115 -333 -115q-106 0 -186 28t-140 88t-91 162.5t-31 245.5v457q0 256 114 387t332 131zM299 977v-125h162q128 0 197 62
t69 184q0 105 -52.5 165t-148.5 60q-227 0 -227 -346zM530 143q122 0 180 79t58 210q0 127 -75.5 195.5t-231.5 68.5h-162v-219q0 -169 55.5 -251.5t175.5 -82.5z" />
    <glyph glyph-name="uni0433.locl" horiz-adv-x="934" 
d="M850 809q0 -129 -84 -202t-283 -138q-86 -28 -145 -68q-57 -39 -57 -114q0 -137 227 -137q101 0 170 31q69 29 106 65h72v-162q-59 -36 -144 -65q-86 -31 -220 -31q-195 0 -306 75q-112 73 -112 222q0 137 88 215.5t276 134.5q105 32 159 69.5t54 100.5q0 119 -196 119
q-153 0 -254 -76h-70v158q59 34 136 55q79 22 210 22q167 0 270 -68t103 -206z" />
    <glyph glyph-name="uni0434.locl" horiz-adv-x="1192" 
d="M1032 1071v-1034q0 -185 -132 -283t-361 -98q-251 0 -412 90v158h68q115 -92 315 -92q313 0 313 239v115q-132 -139 -329 -139q-85 0 -158 29t-132.5 87.5t-93.5 159t-34 232.5q0 116 25.5 210.5t68 157t101 105t122 61t133.5 18.5q191 0 312 -116q21 100 98 100h96z
M549 180q141 0 274 133v512q-98 95 -245 95q-46 0 -85.5 -9.5t-78 -35.5t-66 -66t-44.5 -106t-17 -152q0 -105 19 -178.5t55 -115t81.5 -59.5t106.5 -18z" />
    <glyph glyph-name="uni0436.locl" horiz-adv-x="1671" 
d="M942 567l457 504h174v-61l-340 -369l379 -578v-63h-197l-325 496l-148 -154v-342h-215v342l-145 154l-326 -496h-197v63l377 578l-340 369v61h176l455 -504v867h121q60 0 77 -25.5t17 -114.5v-727z" />
    <glyph glyph-name="uni0437.locl" horiz-adv-x="928" 
d="M408 -354q-138 0 -223 36q-88 39 -132 74v152h80q33 -36 95 -70q58 -33 159 -33q139 0 203 78q63 78 63 197q0 84 -40 141.5t-100.5 82t-135.5 24.5h-109v161h107q111 0 174 59.5t63 166.5q0 91 -53 152q-53 59 -160 59q-141 0 -229 -90h-86v159q136 90 326 90
t304.5 -93.5t114.5 -258.5q0 -116 -69.5 -206t-177.5 -115q123 -27 204.5 -118t81.5 -218q0 -198 -124 -314t-336 -116z" />
    <glyph glyph-name="uni0438.locl" horiz-adv-x="1186" 
d="M512 150q81 0 160 32q82 33 143 70v819h209v-1071h-131q-38 0 -54 22q-17 20 -22 99q-79 -59 -180 -96q-101 -39 -207 -39q-293 0 -293 286v799h209v-752q0 -102 46 -135q46 -34 120 -34z" />
    <glyph glyph-name="uni0439.locl" horiz-adv-x="1186" 
d="M594 1163q-112 0 -182.5 57.5t-87.5 141.5v59h161q8 -127 109 -127q98 0 106 127h162v-59q-17 -83 -88.5 -141t-179.5 -58zM512 150q81 0 160 32q82 33 143 70v819h209v-1071h-131q-38 0 -54 22q-17 20 -22 99q-79 -59 -180 -96q-101 -39 -207 -39q-293 0 -293 286v799
h209v-752q0 -102 46 -135q46 -34 120 -34z" />
    <glyph glyph-name="uni043A.locl" horiz-adv-x="1077" 
d="M346 1294v-725l438 502h174v-61l-331 -369l366 -578v-63h-190l-318 496l-139 -154v-342h-209v1434h115q60 0 77 -25t17 -115z" />
    <glyph glyph-name="uni043B.locl" horiz-adv-x="1102" 
d="M651 1071l400 -1010v-61h-203l-311 821h-5l-299 -821h-182v61l389 1010h211z" />
    <glyph glyph-name="uni043D.locl" horiz-adv-x="1198" 
d="M846 0v477h-494v-477h-215v1071h215v-446h494v446h121q61 0 77.5 -29t16.5 -131v-911h-215z" />
    <glyph glyph-name="uni043F.locl" horiz-adv-x="1182" 
d="M137 1071h131q41 0 57.5 -26.5t20.5 -108.5q84 67 191 109t219 42q59 0 105.5 -13.5t86 -45.5t61 -91.5t21.5 -143.5v-793h-209v743q0 96 -40 133t-122 37q-130 0 -313 -106v-807h-209v1071z" />
    <glyph glyph-name="uni0442.locl" horiz-adv-x="1812" 
d="M137 1071h131q41 0 57.5 -26t20.5 -105q190 147 383 147q196 0 246 -155q85 70 188.5 112.5t210.5 42.5q121 0 193.5 -67t72.5 -217v-803h-206v748q0 90 -37.5 127.5t-114.5 37.5q-127 0 -289 -102v-811h-209v748q0 90 -37 127.5t-112 37.5q-132 0 -289 -102v-811h-209
v1071z" />
    <glyph glyph-name="uni0446.locl" horiz-adv-x="1255" 
d="M137 1071h209v-752q0 -140 99 -162q28 -7 67 -7q42 0 82 9q35 8 79 23q39 14 74 33q43 21 68 37v819h209v-924h180v-393h-168l-16 246h-127q-19 0 -31 4q-27 7 -37 54q-7 26 -8 63q-45 -32 -85 -53q-46 -25 -95 -43q-53 -19 -102 -29q-50 -10 -105 -10q-62 0 -116 14
t-93 48q-84 70 -84 224v799z" />
    <glyph glyph-name="uni0447.locl" horiz-adv-x="1130" 
d="M995 0h-215v444q-50 -22 -124 -43q-81 -24 -191 -24q-171 0 -261.5 83t-90.5 269v342h215v-317q0 -115 50 -164t157 -49q83 0 146 19q65 18 99 30v481h121q62 0 78 -28.5t16 -131.5v-911z" />
    <glyph glyph-name="uni0448.locl" horiz-adv-x="1817" 
d="M1681 0h-137q-39 0 -57 25q-19 24 -21 108q-74 -58 -175 -102q-103 -45 -220 -45q-86 0 -155 34q-73 33 -101 117q-84 -65 -189 -108t-223 -43q-58 0 -105 14.5t-85.5 46.5t-60 88.5t-21.5 134.5v801h215v-745q0 -96 39 -131q40 -35 117 -35q88 0 162 33q65 28 133 67
v811h217v-745q0 -96 39 -131q40 -35 114 -35q89 0 164 32q76 33 135 70v809h215v-1071z" />
    <glyph glyph-name="uni0449.locl" horiz-adv-x="1894" 
d="M1843 -246h-168l-16 246h-115q-39 0 -57 25q-19 24 -21 108q-74 -58 -175 -102q-103 -45 -220 -45q-86 0 -155 34q-73 33 -101 117q-84 -65 -189 -108t-223 -43q-58 0 -105 14.5t-85.5 46.5t-60 88.5t-21.5 134.5v801h215v-745q0 -96 39 -131q40 -35 117 -35q88 0 162 33
q65 28 133 67v811h217v-745q0 -96 39 -131q40 -35 114 -35q89 0 164 32q76 33 135 70v809h215v-924h162v-393z" />
    <glyph glyph-name="uni044C.locl" horiz-adv-x="1059" 
d="M559 -18q-422 0 -422 395v694h213v-362q15 2 83 8q48 4 108 4q100 0 180.5 -20.5t140.5 -63t92.5 -111.5t32.5 -161q0 -180 -117 -281.5t-311 -101.5zM559 125q215 0 215 235q0 108 -65.5 160.5t-184.5 52.5q-108 0 -174 -10v-190q0 -124 46 -185q46 -63 163 -63z" />
    <glyph glyph-name="uni044E.locl" horiz-adv-x="1624" 
d="M1051 -12q-216 0 -352 130t-152 359h-195v-477h-215v1434h121q62 0 78 -29t16 -131v-649h199q24 215 159 338.5t341 123.5q228 0 366.5 -149.5t138.5 -405.5q0 -250 -139 -400q-135 -144 -366 -144zM1051 143q135 0 210.5 99t75.5 290q0 193 -75.5 295.5t-210.5 102.5
t-211 -103t-76 -295q0 -191 76 -290t211 -99z" />
    <glyph glyph-name="i.locl" horiz-adv-x="492" 
d="M348 0h-209v1071h117q61 0 76.5 -28.5t15.5 -131.5v-911zM246 1190q-50 0 -86.5 35t-36.5 84q0 50 36.5 86.5t86.5 36.5q49 0 86 -36.5t37 -86.5q0 -49 -37 -84t-86 -35z" />
    <glyph glyph-name="less.cap" horiz-adv-x="891" 
d="M629 0l-549 655v121l549 658h180v-72l-526 -643v-6l526 -643v-70h-180z" />
    <glyph glyph-name="greater.cap" horiz-adv-x="891" 
d="M80 0v70l528 647v6l-528 639v72h182l549 -656v-121l-549 -657h-182z" />
    <glyph glyph-name="grave.cap" 
d="M487 1479h-118l-181 180v65h211l88 -194v-51z" />
    <glyph glyph-name="dieresis.cap" 
d="M246 1489q-48 0 -82.5 34t-34.5 83q0 46 34.5 80t82.5 34t82.5 -34t34.5 -80q0 -49 -34 -83t-83 -34zM586 1489q-48 0 -81.5 34t-33.5 83q0 46 33.5 80t81.5 34q47 0 82 -34t35 -80q0 -49 -34.5 -83t-82.5 -34z" />
    <glyph glyph-name="macron.cap" 
d="M666 1667v-149h-498v149h498z" />
    <glyph glyph-name="acute.cap" 
d="M346 1479v51l88 194h209v-65l-176 -180h-121z" />
    <glyph glyph-name="breve.cap" 
d="M416 1483q-102 0 -168 52.5t-80 129.5v59h135q5 -43 34 -68.5t79 -25.5q100 0 114 94h136v-59q-17 -78 -82 -130t-168 -52z" />
    <glyph glyph-name="dotaccent.cap" 
d="M418 1491q-50 0 -85.5 35t-35.5 84q0 50 36 86.5t85 36.5t85 -36.5t36 -86.5q0 -49 -36 -84t-85 -35z" />
    <glyph glyph-name="ring.cap" 
d="M416 1485q-81 0 -137 53t-56 139t56 139.5t137 53.5q80 0 137 -54t57 -139q0 -86 -56.5 -139t-137.5 -53zM416 1587q37 0 61.5 24.5t24.5 65.5t-24.5 67t-61.5 26q-36 0 -60 -26t-24 -67q0 -40 24 -65t60 -25z" />
    <glyph glyph-name="tilde.cap" 
d="M115 1487v61q15 80 60.5 124t115.5 44q50 0 120.5 -32.5t92.5 -32.5q56 0 74 67h118v-59q-15 -80 -60 -124t-116 -44q-49 0 -118.5 34t-90.5 34q-60 0 -73 -72h-123z" />
    <glyph glyph-name="hungarumlaut.cap" 
d="M213 1479v45l70 200h174v-65l-127 -180h-117zM500 1479v45l69 200h172v-65l-125 -180h-116z" />
    <glyph glyph-name="zero.numerator" horiz-adv-x="811" 
d="M408 645q-150 0 -247 102t-97 298q0 98 28 175.5t76 125.5t109 73t131 25q69 0 129.5 -25t108 -73t75 -125.5t27.5 -175.5q0 -99 -27.5 -177t-74.5 -126t-107.5 -72.5t-130.5 -24.5zM408 768q168 0 168 274q0 141 -45 207t-123 66q-168 0 -168 -273q0 -274 168 -274z" />
    <glyph glyph-name="one.numerator" horiz-adv-x="510" 
d="M387 655h-174v605l-127 -70h-39v125l215 119h125v-779z" />
    <glyph glyph-name="two.numerator" horiz-adv-x="653" 
d="M59 789l218 206q76 72 108.5 118.5t32.5 94.5t-31 76.5t-88 28.5q-90 0 -158 -64h-63v115q100 80 244 80q127 0 196.5 -57.5t69.5 -165.5q0 -79 -44.5 -142.5t-146.5 -156.5l-147 -133h336v-134h-527v134z" />
    <glyph glyph-name="three.numerator" horiz-adv-x="639" 
d="M279 645q-139 0 -232 70v110h64q57 -57 153 -57q72 0 111 29.5t39 87.5q0 56 -39.5 83t-104.5 27h-71v113h65q65 0 103.5 28.5t38.5 80.5q0 47 -31.5 72.5t-91.5 25.5q-89 0 -152 -49h-61v106q103 72 235 72q117 0 188.5 -53.5t71.5 -155.5q0 -128 -145 -174v-4
q158 -34 158 -182q0 -110 -79.5 -170t-219.5 -60z" />
    <glyph glyph-name="four.numerator" horiz-adv-x="717" 
d="M573 655h-161v174h-359v132l365 473h155v-490h91v-115h-91v-174zM180 948v-4h234v299h-6z" />
    <glyph glyph-name="five.numerator" horiz-adv-x="655" 
d="M592 909q0 -120 -86 -192t-229 -72q-124 0 -226 64v114h64q57 -53 153 -53q74 0 115 36.5t41 102.5q0 62 -33 94.5t-88 32.5q-76 0 -125 -57h-100v455h471v-131h-350v-203h2q57 49 157 49q104 0 169 -61.5t65 -178.5z" />
    <glyph glyph-name="six.numerator" horiz-adv-x="733" 
d="M383 645q-145 0 -232 94.5t-87 286.5q0 197 103.5 307.5t281.5 110.5q104 0 184 -41v-123h-64q-45 33 -122 33q-98 0 -150 -58.5t-61 -177.5q78 66 198 66q106 0 173 -60t67 -174q0 -122 -79 -193t-212 -71zM379 1030q-87 0 -145 -53q10 -215 145 -215q62 0 96.5 35.5
t34.5 103.5q0 129 -131 129z" />
    <glyph glyph-name="seven.numerator" horiz-adv-x="641" 
d="M148 655v56l296 583v4h-385v136h523v-144l-271 -635h-163z" />
    <glyph glyph-name="eight.numerator" horiz-adv-x="721" 
d="M360 643q-144 0 -223.5 61.5t-79.5 167.5q0 144 150 197v4q-117 37 -117 166q0 94 74 149.5t196 55.5q120 0 195.5 -55.5t75.5 -149.5q0 -123 -117 -166v-4q150 -48 150 -197q0 -106 -80 -167.5t-224 -61.5zM360 758q70 0 107 34.5t37 92.5t-37 94.5t-107 36.5
t-106.5 -36t-36.5 -95q0 -58 36 -92.5t107 -34.5zM360 1118q56 0 86.5 28t30.5 77t-30.5 77.5t-86.5 28.5q-57 0 -87.5 -28t-30.5 -78q0 -49 30.5 -77t87.5 -28z" />
    <glyph glyph-name="nine.numerator" horiz-adv-x="727" 
d="M348 1444q145 0 231.5 -94.5t86.5 -288.5q0 -199 -98 -307.5t-285 -108.5q-119 0 -189 43v123h62q48 -35 127 -35q105 0 155 56.5t60 175.5q-76 -64 -195 -64q-107 0 -176.5 61.5t-69.5 176.5q0 121 79.5 191.5t211.5 70.5zM354 1057q90 0 144 51q-10 221 -148 221
q-62 0 -96.5 -37t-34.5 -104q0 -131 135 -131z" />
    <glyph glyph-name="zero.denominator" horiz-adv-x="811" 
d="M408 -10q-150 0 -247 102t-97 297q0 193 98.5 296.5t245.5 103.5q69 0 129.5 -25t108 -73t75 -126t27.5 -176q0 -194 -97 -296.5t-243 -102.5zM408 113q168 0 168 272q0 142 -45 208.5t-123 66.5q-168 0 -168 -275q0 -272 168 -272z" />
    <glyph glyph-name="one.denominator" horiz-adv-x="510" 
d="M387 0h-174v604l-127 -69h-39v125l215 118h125v-778z" />
    <glyph glyph-name="two.denominator" horiz-adv-x="653" 
d="M59 131l218 207q77 74 109 120t32 93q0 48 -31 76t-88 28q-89 0 -158 -61h-63v115q100 80 244 80q127 0 196.5 -57.5t69.5 -166.5q0 -78 -44 -141.5t-147 -157.5l-147 -135h336v-131h-527v131z" />
    <glyph glyph-name="three.denominator" horiz-adv-x="639" 
d="M279 -10q-138 0 -232 69v111h64q51 -57 153 -57q72 0 111 29.5t39 86.5q0 56 -39 82.5t-105 26.5h-71v115h65q65 0 103.5 28t38.5 78q0 101 -123 101q-90 0 -152 -50h-61v107q103 72 235 72q117 0 188.5 -53.5t71.5 -155.5q0 -130 -145 -174v-5q158 -32 158 -182
q0 -109 -80 -169t-219 -60z" />
    <glyph glyph-name="four.denominator" horiz-adv-x="717" 
d="M573 0h-161v174h-359v131l365 473h155v-489h91v-115h-91v-174zM180 293v-4h234v299h-6z" />
    <glyph glyph-name="five.denominator" horiz-adv-x="655" 
d="M592 254q0 -121 -86 -192.5t-229 -71.5q-125 0 -226 63v115h64q57 -55 153 -55q74 0 115 37.5t41 103.5q0 62 -33 94.5t-88 32.5q-75 0 -125 -57h-100v454h471v-131h-350v-203h2q56 50 157 50q104 0 169 -61.5t65 -178.5z" />
    <glyph glyph-name="six.denominator" horiz-adv-x="733" 
d="M383 -10q-145 0 -232 94t-87 287q0 197 103.5 307.5t281.5 110.5q107 0 184 -43v-121h-64q-44 32 -122 32q-99 0 -150.5 -58t-60.5 -177q78 63 198 63q107 0 173.5 -58.5t66.5 -172.5q0 -122 -79 -193t-212 -71zM379 375q-84 0 -145 -53q6 -118 43.5 -166.5t101.5 -48.5
q62 0 96.5 35.5t34.5 103.5q0 129 -131 129z" />
    <glyph glyph-name="seven.denominator" horiz-adv-x="641" 
d="M148 0v55l296 582v4h-385v137h523v-143l-271 -635h-163z" />
    <glyph glyph-name="eight.denominator" horiz-adv-x="721" 
d="M360 -12q-144 0 -223.5 61.5t-79.5 167.5q0 144 150 197v4q-117 33 -117 166q0 93 74.5 149t195.5 56q120 0 195.5 -56t75.5 -149q0 -125 -117 -166v-4q150 -48 150 -197q0 -106 -80 -167.5t-224 -61.5zM360 102q70 0 107 35t37 92q0 58 -37 93.5t-107 35.5
q-71 0 -107 -35.5t-36 -93.5q0 -57 36 -92t107 -35zM360 463q56 0 86.5 27.5t30.5 76.5q0 50 -30.5 78.5t-86.5 28.5q-57 0 -87.5 -28.5t-30.5 -78.5q0 -49 30.5 -76.5t87.5 -27.5z" />
    <glyph glyph-name="nine.denominator" horiz-adv-x="727" 
d="M348 789q145 0 231.5 -94.5t86.5 -288.5q0 -199 -98 -307.5t-285 -108.5q-122 0 -189 43v121h62q43 -33 127 -33q105 0 155 56.5t60 174.5q-75 -63 -195 -63q-107 0 -176.5 61.5t-69.5 175.5q0 121 80 192t211 71zM354 399q87 0 144 54q-10 219 -148 219
q-62 0 -96.5 -36.5t-34.5 -105.5q0 -131 135 -131z" />
    <glyph glyph-name="questiondown.cap" horiz-adv-x="903" 
d="M629 1065q18 -133 -12.5 -217.5t-135.5 -192.5l-55.5 -56.5t-47.5 -55t-44 -63.5t-25.5 -65t-11.5 -77q0 -87 51.5 -133.5t143.5 -46.5q172 0 260 106h86v-162q-148 -114 -359 -114q-191 0 -297 89t-106 261q0 62 15.5 114.5t50.5 101t68.5 83t92.5 88.5l64.5 60
t48.5 54.5t39 63.5t17.5 70.5t2.5 91.5h154zM543 1444q53 0 89 -36.5t36 -90.5t-36 -91.5t-89 -37.5q-52 0 -88.5 37.5t-36.5 91.5t36 90.5t89 36.5z" />
    <glyph glyph-name="exclamdown.cap" horiz-adv-x="543" 
d="M344 1065l39 -932v-133h-223v133l39 932h145zM272 1444q53 0 89 -36.5t36 -90.5t-36.5 -91.5t-88.5 -37.5t-89.5 37.5t-37.5 91.5q0 53 37.5 90t89.5 37z" />
    <glyph glyph-name="bullet.cap" horiz-adv-x="666" 
d="M332 412q-109 0 -181.5 70t-72.5 188q0 119 72.5 190.5t181.5 71.5q111 0 184.5 -71.5t73.5 -190.5t-73 -188.5t-185 -69.5z" />
    <glyph glyph-name="dagger.cap" horiz-adv-x="918" 
d="M381 0l-31 569v138l43 219l-215 -47h-112v209h112l215 -48l-37 201v193h205v-193l-39 -201l217 48h111v-209h-111l-217 47l45 -217v-138l-30 -571h-156z" />
    <glyph glyph-name="daggerdbl.cap" horiz-adv-x="918" 
d="M350 764l45 180l-217 -45h-112v207h112l217 -45l-39 199v174h205v-174l-39 -199l217 45h111v-207h-111l-217 45l47 -178v-96l-49 -180l219 45h111v-207h-111l-219 45l41 -199v-174h-205v174l37 199l-215 -45h-112v207h112l215 -45l-43 178v96z" />
    <glyph glyph-name="at.cap" horiz-adv-x="1722" 
d="M864 -64q-121 0 -232.5 26.5t-211 84t-173 141t-116.5 206t-43 270.5q0 129 33.5 244.5t92.5 204t137.5 160t170 117.5t189.5 70.5t196 24.5q150 0 282 -43.5t231.5 -123t157.5 -202.5t58 -272q0 -131 -37.5 -233t-101 -163t-140.5 -91.5t-163 -30.5q-194 0 -223 143
q-113 -143 -271 -143q-103 0 -168 68t-65 198q0 92 32 182t88 161t139.5 115t178.5 44q68 0 110.5 -19t78.5 -55q39 65 110 65h66l-107 -497q-17 -56 -1.5 -92.5t71.5 -36.5q109 0 180.5 94t71.5 291q0 235 -158.5 370.5t-419.5 135.5q-100 0 -194.5 -26.5t-179 -83
t-148 -136t-100.5 -193t-37 -247.5q0 -153 47.5 -269t132.5 -185.5t194.5 -103.5t241.5 -34q144 0 269 35t213 100h55v-129q-88 -64 -233 -103t-304 -39zM762 469q56 0 105 30.5t102 88.5l71 332q-52 30 -116 30q-77 0 -140 -50.5t-97 -132t-34 -173.5q0 -61 29.5 -93
t79.5 -32z" />
    <glyph glyph-name="paragraph.cap" horiz-adv-x="1165" 
d="M541 0v651h-19q-101 0 -181 21t-142 66t-95.5 122t-33.5 182q0 90 25 158.5t67.5 112.5t106.5 71.5t135 38.5t159 11h447v-1434h-158v1276h-154v-1276h-157z" />
    <glyph glyph-name="hyphen.1" horiz-adv-x="565" 
d="M76 520v178h414v-178h-414z" />
    <glyph glyph-name="endash.1" horiz-adv-x="883" 
d="M92 498v172h699v-172h-699z" />
    <glyph glyph-name="hyphen.cap" horiz-adv-x="575" 
d="M74 594v180h428v-180h-428z" />
    <glyph glyph-name="endash.cap" horiz-adv-x="856" 
d="M78 598v172h698v-172h-698z" />
    <glyph glyph-name="emdash.cap" horiz-adv-x="1434" 
d="M78 598v172h1278v-172h-1278z" />
    <glyph glyph-name="quoteleft.cap" horiz-adv-x="1061" 
d="M571 -12q-101 0 -188.5 34.5t-157 102.5t-109.5 179t-40 253q0 384 229.5 617.5t663.5 259.5v-156q-138 -15 -242.5 -53t-164.5 -90.5t-89 -110.5t-29 -119q0 -44 18.5 -74t54 -46.5t71 -26t87.5 -21.5t85 -24q101 -30 163 -112.5t62 -221.5q0 -170 -113 -280.5
t-301 -110.5z" />
    <glyph glyph-name="quotedblleft.cap" horiz-adv-x="2060" 
d="M571 -12q-101 0 -188.5 34.5t-157 102.5t-109.5 179t-40 253q0 384 229.5 617.5t663.5 259.5v-156q-138 -15 -242.5 -53t-164.5 -90.5t-89 -110.5t-29 -119q0 -44 18.5 -74t54 -46.5t71 -26t87.5 -21.5t85 -24q101 -30 163 -112.5t62 -221.5q0 -170 -113 -280.5
t-301 -110.5zM1571 -12q-101 0 -189 34.5t-157.5 102.5t-109.5 179t-40 253q0 384 229.5 617.5t663.5 259.5v-156q-111 -12 -201.5 -39.5t-150 -64.5t-99.5 -82.5t-57.5 -92t-17.5 -94.5q0 -45 18.5 -75t54.5 -46.5t71.5 -25.5t87.5 -21t85 -24q101 -30 162.5 -112.5
t61.5 -221.5q0 -170 -112 -280.5t-300 -110.5z" />
    <glyph glyph-name="guillemotleft.cap" horiz-adv-x="1339" 
d="M1258 1434v-72l-490 -643v-6l490 -643v-70h-183l-510 655v121l510 658h183zM772 1434v-72l-491 -643v-6l491 -643v-70h-182l-510 655v121l510 658h182z" />
    <glyph glyph-name="quoteright.cap" horiz-adv-x="1061" 
d="M492 1446q101 0 188 -34.5t156 -102.5t109 -179t40 -253q0 -384 -229 -617.5t-662 -259.5v156q137 15 241.5 53.5t164.5 91t89.5 109.5t29.5 118q0 45 -18.5 75t-54 47t-71 26t-87.5 21t-85 24q-101 30 -164 112.5t-63 221.5q0 169 114 280t302 111z" />
    <glyph glyph-name="quotedblright.cap" horiz-adv-x="2060" 
d="M1491 1446q101 0 188.5 -34.5t156.5 -102.5t109 -179t40 -253q0 -384 -229.5 -617.5t-661.5 -259.5v156q137 15 241.5 53.5t164.5 91t89 109.5t29 118q0 44 -18.5 74.5t-54 47t-71 26t-87 21.5t-84.5 24q-102 30 -165 112.5t-63 221.5q0 169 114 280t302 111zM492 1446
q101 0 188 -34.5t156 -102.5t109 -179t40 -253q0 -384 -229 -617.5t-662 -259.5v156q137 15 241.5 53.5t164.5 91t89.5 109.5t29.5 118q0 45 -18.5 75t-54 47t-71 26t-87.5 21t-85 24q-101 30 -164 112.5t-63 221.5q0 169 114 280t302 111z" />
    <glyph glyph-name="guillemotright.cap" horiz-adv-x="1339" 
d="M80 1434h182l512 -656v-121l-512 -657h-182v70l491 647v6l-491 639v72zM1057 723l-488 639v72h181l510 -656v-121l-510 -657h-181v70l488 647v6z" />
    <glyph glyph-name="circumflex.cap" 
d="M166 1479v59l178 193h150l172 -193v-59h-117l-135 110l-137 -110h-111z" />
    <glyph glyph-name="caron.cap" 
d="M666 1731v-60l-181 -192h-147l-172 192v60h115l137 -109l137 109h111z" />
    </font>
</defs>
</svg>
