<?xml version="1.0" standalone="no"?>
<!DOCTYPE svg PUBLIC "-//W3C//DTD SVG 1.1//EN" "http://www.w3.org/Graphics/SVG/1.1/DTD/svg11.dtd" >
<svg>
<metadata>
Created by FontForge 20090622 at Tue Jun  4 10:24:36 2019
 By deploy user
</metadata>
<defs>
<font id="StagSansLCTTMedium" horiz-adv-x="819" >
  <font-face 
    font-family="Stag Sans LC TT Medium"
    font-weight="500"
    font-stretch="normal"
    units-per-em="2048"
    panose-1="0 0 0 0 0 0 0 0 0 0"
    ascent="1638"
    descent="-410"
    x-height="1075"
    cap-height="1434"
    bbox="-383 -453 2464 2198"
    underline-thickness="102"
    underline-position="-205"
    unicode-range="U+0020-U+2212"
  />
<missing-glyph horiz-adv-x="1024" 
 />
    <glyph glyph-name="f_f.liga" unicode="ff" horiz-adv-x="1325" 
d="M31 874v201h127v70q0 150 88 223.5t252 73.5q89 0 170 -27v-180h-74q-65 0 -100 -19q-37 -19 -37 -81v-60h319v82q0 154 90 226q91 71 250 71q110 0 178 -29v-178h-82q-63 0 -100 -19t-37 -81v-72h205v-201h-205v-874h-299v874h-319v-874h-299v874h-127z" />
    <glyph glyph-name=".notdef" horiz-adv-x="1024" 
 />
    <glyph glyph-name=".null" horiz-adv-x="0" 
 />
    <glyph glyph-name="nonmarkingreturn" horiz-adv-x="682" 
 />
    <glyph glyph-name="space" unicode=" " horiz-adv-x="389" 
 />
    <glyph glyph-name="exclam" unicode="!" horiz-adv-x="582" 
d="M193 422l-62 835v177h320v-177l-62 -835h-196zM291 -12q-71 0 -119.5 47t-48.5 117q0 69 49 117t119 48q69 0 118.5 -48t49.5 -117t-49 -116.5t-119 -47.5z" />
    <glyph glyph-name="quotedbl" unicode="&#x22;" horiz-adv-x="756" 
d="M104 975l-51 309v150h279v-150l-51 -309h-177zM475 975l-51 309v150h279v-150l-52 -309h-176z" />
    <glyph glyph-name="numbersign" unicode="#" horiz-adv-x="1120" 
d="M115 850v223h186l53 361h209l-53 -361h197l53 361h209l-53 -361h155v-223h-188l-31 -217h154v-223h-187l-59 -410h-209l59 410h-196l-60 -410h-209l60 410h-156v223h189l30 217h-153zM477 850l-30 -217h196l31 217h-197z" />
    <glyph glyph-name="dollar" unicode="$" horiz-adv-x="1106" 
d="M39 1032q0 180 112.5 285.5t303.5 126.5v121h182v-119q168 -13 322 -96v-230h-101q-103 91 -221 113v-385q115 -32 189 -65.5t127.5 -83t76.5 -117t23 -162.5q0 -188 -112 -299.5t-325 -130.5v-199h-182v195q-215 13 -379 114v246h105q108 -125 274 -145v418
q-100 30 -169 64.5t-122 83t-78.5 114t-25.5 151.5zM616 565v-358q162 34 162 176q0 77 -37.5 115.5t-124.5 66.5zM299 1063q0 -61 36 -97.5t120 -66.5v332q-156 -31 -156 -168z" />
    <glyph glyph-name="percent" unicode="%" horiz-adv-x="1698" 
d="M399 852q127 0 127 215t-127 215t-127 -215q0 -108 33.5 -161.5t93.5 -53.5zM399 684q-97 0 -177.5 41.5t-132.5 131t-52 214.5q0 184 105 281.5t257 97.5q73 0 137 -23t115 -68.5t81 -119.5t30 -168q0 -125 -52 -214.5t-132.5 -131t-178.5 -41.5zM453 -70h-224
l1010 1563h223zM1298 152q127 0 127 215t-127 215q-126 0 -126 -215t126 -215zM1298 -16q-97 0 -177.5 41.5t-132.5 131t-52 214.5q0 184 105 281.5t257 97.5q73 0 137 -23t115 -68.5t81 -119.5t30 -168q0 -125 -52 -214.5t-132.5 -131t-178.5 -41.5z" />
    <glyph glyph-name="ampersand" unicode="&#x26;" horiz-adv-x="1395" 
d="M1057 0l-107 119q-166 -135 -395 -135q-247 0 -378.5 112t-131.5 308q0 137 83 239.5t214 163.5q-76 121 -76 260q0 172 124 277.5t343 105.5q194 0 316 -88v-225h-109q-80 80 -207 80q-75 0 -121.5 -40.5t-46.5 -111.5q0 -51 23.5 -93t83.5 -108l297 -334q71 188 80 336
h256v-65q-43 -240 -168 -457l231 -260v-84h-311zM608 207q109 0 197 72l-342 383q-105 -91 -105 -228q0 -101 62.5 -164t187.5 -63z" />
    <glyph glyph-name="quotesingle" unicode="'" horiz-adv-x="385" 
d="M104 975l-51 309v150h279v-150l-51 -309h-177z" />
    <glyph glyph-name="parenleft" unicode="(" horiz-adv-x="690" 
d="M647 1518v-199q-45 -16 -85 -43t-80 -75.5t-69 -112.5t-47 -159t-18 -210q0 -124 18 -224.5t46.5 -166.5t69.5 -115.5t80.5 -76t84.5 -42.5v-194h-63q-80 19 -152.5 57t-141 105.5t-117.5 157t-79 218t-30 281.5q0 148 30 272.5t79 212t117.5 153.5t141 104t152.5 57h63z
" />
    <glyph glyph-name="parenright" unicode=")" horiz-adv-x="690" 
d="M43 1319v199h64q80 -19 152.5 -57t141 -104t117.5 -153.5t79 -212t30 -272.5q0 -153 -30 -281.5t-79 -218t-117.5 -157t-141 -105.5t-152.5 -57h-64v194q45 16 84.5 42.5t80.5 76t69.5 115.5t46.5 166.5t18 224.5q0 115 -18 210t-47 159t-69 112.5t-80 75.5t-85 43z" />
    <glyph glyph-name="asterisk" unicode="*" horiz-adv-x="782" 
d="M506 1339l-49 -157l127 92l90 29l72 -218l-91 -28h-151l129 -94l55 -76l-186 -131l-55 78l-56 157l-55 -157l-55 -78l-187 131l56 76l129 94h-152l-90 28l72 218l90 -29l125 -92l-47 157v95h229v-95z" />
    <glyph glyph-name="plus" unicode="+" horiz-adv-x="1083" 
d="M1030 590h-362v-385h-250v385h-365v235h365v385h250v-385h362v-235z" />
    <glyph glyph-name="comma" unicode="," horiz-adv-x="614" 
d="M137 -225v131q63 9 96 31t33 51q0 14 -6 24t-12.5 14t-22 12l-24.5 13q-62 43 -62 123q0 61 46.5 102t115.5 41q76 0 127 -50.5t51 -145.5q0 -159 -84 -244.5t-258 -101.5z" />
    <glyph glyph-name="hyphen" unicode="-" horiz-adv-x="621" 
d="M74 487v244h473v-244h-473z" />
    <glyph glyph-name="period" unicode="." horiz-adv-x="614" 
d="M307 -12q-71 0 -119.5 47t-48.5 117q0 69 49 117t119 48q69 0 118.5 -48t49.5 -117t-49 -116.5t-119 -47.5z" />
    <glyph glyph-name="slash" unicode="/" horiz-adv-x="721" 
d="M709 1518v-62l-478 -1556h-225v61l477 1557h226z" />
    <glyph glyph-name="zero" unicode="0" horiz-adv-x="1229" 
d="M614 -16q-112 0 -209 43.5t-174 130t-121 230t-44 329.5t44 329.5t121 230t174 130t209 43.5q113 0 210 -43.5t174 -130t121 -230t44 -329.5t-44 -329.5t-121 -230t-174 -130t-210 -43.5zM614 205q73 0 121 45t75.5 159t27.5 302q0 277 -56.5 395.5t-167.5 118.5
q-73 0 -121 -47t-75 -163t-27 -304q0 -142 14.5 -241t44.5 -156.5t69.5 -83t94.5 -25.5z" />
    <glyph glyph-name="one" unicode="1" horiz-adv-x="1229" 
d="M854 0h-319v1098l-263 -144h-82v213l451 267h213v-1434z" />
    <glyph glyph-name="two" unicode="2" horiz-adv-x="1229" 
d="M1098 250v-250h-989v252l401 387q143 137 200.5 224t57.5 171q0 83 -52.5 129.5t-152.5 46.5q-165 0 -305 -108h-100v215q83 54 195.5 93.5t230.5 39.5q242 0 372.5 -100t130.5 -303q0 -75 -22.5 -143t-72 -137t-108.5 -130.5t-151 -144.5l-264 -242h629z" />
    <glyph glyph-name="three" unicode="3" horiz-adv-x="1229" 
d="M528 -16q-259 0 -409 108v225h117q40 -43 110.5 -72.5t159.5 -29.5q119 0 193.5 54t74.5 153q0 102 -63 149t-195 47h-106v224h90q268 0 268 192q0 183 -201 183q-87 0 -161.5 -29.5t-124.5 -69.5h-109v207q196 125 420 125q226 0 351.5 -95.5t125.5 -291.5
q0 -129 -68.5 -205t-191.5 -115v-8q136 -24 209.5 -104.5t73.5 -218.5q1 -135 -73 -233t-200.5 -146.5t-290.5 -48.5z" />
    <glyph glyph-name="four" unicode="4" horiz-adv-x="1229" 
d="M1008 0h-314v303h-604v266l621 865h297v-908h157v-223h-157v-303zM319 535v-9h375v527h-8z" />
    <glyph glyph-name="five" unicode="5" horiz-adv-x="1229" 
d="M1106 469q0 -225 -163.5 -355t-428.5 -130q-130 0 -220.5 26t-172.5 76v227h117q100 -100 272 -100q123 0 200.5 65t77.5 181q0 117 -57.5 175t-150.5 58q-135 0 -226 -96h-190v838h864v-250h-635v-336h6q105 72 260 72q96 0 176 -27t141.5 -81t95.5 -141.5t34 -201.5z
" />
    <glyph glyph-name="six" unicode="6" horiz-adv-x="1229" 
d="M635 -16q-124 0 -226.5 44t-178 129t-117 220t-41.5 309q0 366 183.5 565t516.5 199q101 0 170 -16t139 -50v-231h-116q-80 68 -207 68q-175 0 -258.5 -105.5t-102.5 -312.5q118 106 322 106q206 0 329 -117t123 -325q0 -215 -146 -349t-390 -134zM641 694
q-69 0 -136 -22.5t-114 -57.5q6 -222 65.5 -321.5t178.5 -99.5t170 69.5t51 194.5q0 115 -55 176t-160 61z" />
    <glyph glyph-name="seven" unicode="7" horiz-adv-x="1229" 
d="M293 0v125l563 1051v8h-733v250h969v-273l-494 -1161h-305z" />
    <glyph glyph-name="eight" unicode="8" horiz-adv-x="1229" 
d="M614 -16q-267 0 -403.5 110t-136.5 312q0 263 270 354v8q-219 77 -219 299q0 178 133 280.5t356 102.5t356.5 -102.5t133.5 -280.5q0 -223 -219 -299v-8q268 -90 268 -354q0 -202 -136 -312t-403 -110zM614 193q118 0 175 62.5t57 166.5q0 105 -57.5 169t-174.5 64
q-118 0 -175.5 -64t-57.5 -169q0 -104 57.5 -166.5t175.5 -62.5zM614 864q91 0 141 48t50 137t-50 137.5t-141 48.5q-92 0 -141 -48t-49 -138t49 -137.5t141 -47.5z" />
    <glyph glyph-name="nine" unicode="9" horiz-adv-x="1229" 
d="M444 -16q-177 0 -315 57v235h117q67 -67 213 -67q99 0 168.5 26.5t111 81.5t63 126.5t29.5 172.5q-125 -92 -317 -92q-211 0 -336 114t-125 320q0 215 148 353.5t391 138.5q124 0 226.5 -44t178.5 -129t118 -220t42 -309q0 -369 -183.5 -566.5t-529.5 -197.5zM586 739
q140 0 252 78q-6 223 -66.5 323.5t-179.5 100.5q-223 0 -223 -272q0 -230 217 -230z" />
    <glyph glyph-name="colon" unicode=":" horiz-adv-x="614" 
d="M307 582q-71 0 -119.5 47t-48.5 116t49 117.5t119 48.5q69 0 118.5 -48.5t49.5 -117.5t-49.5 -116t-118.5 -47zM307 -12q-71 0 -119.5 47t-48.5 117q0 69 49 117t119 48q69 0 118.5 -48t49.5 -117t-49 -116.5t-119 -47.5z" />
    <glyph glyph-name="semicolon" unicode=";" horiz-adv-x="614" 
d="M133 -225v131q63 9 96 31t33 51q0 14 -6 24t-13 14t-22.5 12t-23.5 13q-62 43 -62 123q0 61 46.5 102t115.5 41q76 0 127 -50.5t51 -145.5q0 -159 -84 -244.5t-258 -101.5zM307 582q-71 0 -119.5 47t-48.5 116t49 117.5t119 48.5q69 0 118.5 -48.5t49.5 -117.5
t-49.5 -116t-118.5 -47z" />
    <glyph glyph-name="less" unicode="&#x3c;" horiz-adv-x="975" 
d="M53 576v198l791 393h69v-221l-557 -264v-6l557 -268v-226h-69z" />
    <glyph glyph-name="equal" unicode="=" horiz-adv-x="1038" 
d="M977 741h-916v236h916v-236zM977 311h-916v236h916v-236z" />
    <glyph glyph-name="greater" unicode="&#x3e;" horiz-adv-x="975" 
d="M922 774v-198l-791 -394h-70v222l558 264v6l-558 268v225h70z" />
    <glyph glyph-name="question" unicode="?" horiz-adv-x="920" 
d="M461 422h-213q-19 116 7.5 196.5t125.5 176.5q80 77 122 142t42 140q0 67 -43 103.5t-111 36.5q-145 0 -237 -97h-115v221q162 109 371 109q213 0 331.5 -95t118.5 -276q0 -110 -51 -192t-158 -168q-99 -85 -116 -102q-68 -69 -74 -149q-2 -22 0 -46zM365 -12
q-71 0 -119.5 47t-48.5 117q0 69 48.5 117t119.5 48q69 0 118 -48t49 -117t-49 -116.5t-118 -47.5z" />
    <glyph glyph-name="at" unicode="@" horiz-adv-x="1802" 
d="M913 -274q-132 0 -254.5 27.5t-233.5 88t-194 148.5t-131.5 217t-48.5 285q0 138 37 261.5t101 217.5t150.5 170t186.5 124.5t207.5 74.5t214.5 26q163 0 308 -45.5t255.5 -130t175 -214.5t64.5 -288q0 -112 -27 -204.5t-73 -156t-110 -107.5t-136 -64.5t-152 -20.5
q-222 0 -270 129q-110 -129 -266 -129q-120 0 -189 75.5t-69 217.5q0 73 19.5 145.5t58.5 138.5t93 117t129 81t159 30q74 0 121 -21t87 -61q29 36 63.5 53t84.5 17h94l-113 -498q-25 -117 62 -117q102 0 161.5 93t59.5 282q0 230 -160.5 363t-429.5 133q-104 0 -201 -26.5
t-182.5 -82t-148.5 -136t-100 -195.5t-37 -252q0 -122 32.5 -220t89.5 -165.5t137.5 -112.5t174 -65.5t200.5 -20.5q313 0 517 137h71v-174q-94 -66 -253 -105.5t-335 -39.5zM809 322q93 0 166 79l78 334q-49 17 -99 17q-101 0 -166 -96t-65 -228q0 -106 86 -106z" />
    <glyph glyph-name="A" unicode="A" horiz-adv-x="1370" 
d="M45 0v84l475 1350h330l477 -1350v-84h-309l-119 365h-483l-115 -365h-256zM651 1112l-168 -528h344l-172 528h-4z" />
    <glyph glyph-name="B" unicode="B" horiz-adv-x="1235" 
d="M127 0v1434h491q255 0 380.5 -92t125.5 -285q0 -124 -67.5 -198t-186.5 -99v-8q308 -57 308 -334q0 -201 -140.5 -309.5t-402.5 -108.5h-508zM440 225h187q112 0 167.5 54t55.5 153q0 98 -56.5 152.5t-166.5 54.5h-187v-414zM440 854h170q104 0 151.5 43.5t47.5 136.5
q0 88 -48 131t-151 43h-170v-354z" />
    <glyph glyph-name="C" unicode="C" horiz-adv-x="1260" 
d="M745 -16q-312 0 -498 194t-186 535q0 169 52.5 308t146 233t224.5 145t286 51q138 0 230.5 -23.5t187.5 -70.5v-240h-115q-108 103 -295 103q-188 0 -288.5 -127.5t-100.5 -366.5q0 -260 92.5 -386t278.5 -126q118 0 196.5 37t147.5 106h100v-235q-178 -137 -459 -137z
" />
    <glyph glyph-name="D" unicode="D" horiz-adv-x="1393" 
d="M127 0v1434h453q753 0 753 -711q0 -361 -195.5 -542t-566.5 -181h-444zM446 225h125q226 0 330.5 116t104.5 378q0 260 -103.5 372.5t-331.5 112.5h-125v-979z" />
    <glyph glyph-name="E" unicode="E" horiz-adv-x="1161" 
d="M127 0v1434h944v-232h-629v-364h451v-220h-451v-393h652v-225h-967z" />
    <glyph glyph-name="F" unicode="F" horiz-adv-x="1139" 
d="M446 0h-319v1434h954v-232h-635v-395h490v-219h-490v-588z" />
    <glyph glyph-name="G" unicode="G" horiz-adv-x="1364" 
d="M739 -16q-322 0 -501 189.5t-179 539.5t189.5 543.5t527.5 193.5q128 0 219 -19.5t195 -64.5v-252h-107q-65 50 -129 75t-172 25q-192 0 -289.5 -116t-97.5 -373q0 -265 85 -393.5t259 -128.5q116 0 199 26v312h-197v207h510v-656q-207 -108 -512 -108z" />
    <glyph glyph-name="H" unicode="H" horiz-adv-x="1419" 
d="M446 0h-319v1434h319v-590h527v590h319v-1434h-319v621h-527v-621z" />
    <glyph glyph-name="I" unicode="I" horiz-adv-x="588" 
d="M455 0h-322v1434h322v-1434z" />
    <glyph glyph-name="J" unicode="J" horiz-adv-x="952" 
d="M360 -16q-182 0 -321 73v234h104q78 -78 203 -78q166 0 166 170v1051h322v-1057q0 -191 -119.5 -292t-354.5 -101z" />
    <glyph glyph-name="K" unicode="K" horiz-adv-x="1368" 
d="M127 1434h319v-629l547 629h262v-86l-436 -486l484 -776v-86h-308l-391 631l-158 -176v-455h-319v1434z" />
    <glyph glyph-name="L" unicode="L" horiz-adv-x="1100" 
d="M1038 0h-911v1434h319v-1209h592v-225z" />
    <glyph glyph-name="M" unicode="M" horiz-adv-x="1751" 
d="M127 0v1434h430l320 -955h6l317 955h424v-1434h-315v1069h-6l-363 -1069h-192l-357 1069h-6v-1069h-258z" />
    <glyph glyph-name="N" unicode="N" horiz-adv-x="1419" 
d="M127 0v1434h362l529 -920h6v920h268v-1434h-291l-602 1047h-6v-1047h-266z" />
    <glyph glyph-name="O" unicode="O" horiz-adv-x="1495" 
d="M748 -16q-139 0 -263 49t-219 139.5t-151 231.5t-56 313t56 313t151 231.5t219 139.5t263 49q138 0 262 -49t219 -139.5t151 -231.5t56 -313t-56 -313t-151 -231.5t-219 -139.5t-262 -49zM748 205q164 0 262 126t98 380t-98.5 384t-261.5 130q-166 0 -263.5 -129.5
t-97.5 -384.5q0 -254 97.5 -380t263.5 -126z" />
    <glyph glyph-name="P" unicode="P" horiz-adv-x="1221" 
d="M127 0v1434h475q277 0 423 -113t146 -344q0 -228 -148.5 -343.5t-428.5 -115.5h-148v-518h-319zM446 1204v-471h148q140 0 198 60t58 180q0 121 -55 176t-201 55h-148z" />
    <glyph glyph-name="Q" unicode="Q" horiz-adv-x="1495" 
d="M1368 -248l-659 193q-155 45 -269.5 107t-202.5 153t-133 219.5t-45 292.5q0 172 56 313t151 231.5t219 139.5t263 49t262.5 -49t219 -139.5t151 -231.5t55.5 -313q0 -237 -106 -402.5t-298 -238.5v-4l459 -78v-242h-123zM748 203q164 0 262 127.5t98 380.5
q0 254 -98.5 384t-261.5 130q-166 0 -263.5 -129.5t-97.5 -384.5q0 -254 97.5 -381t263.5 -127z" />
    <glyph glyph-name="R" unicode="R" horiz-adv-x="1294" 
d="M938 0l-305 561h-187v-561h-319v1434h481q266 0 408.5 -107t142.5 -313q0 -277 -229 -391l301 -539v-84h-293zM446 1206v-426h154q124 0 181 53.5t57 161.5q0 107 -57 159t-181 52h-154z" />
    <glyph glyph-name="S" unicode="S" horiz-adv-x="1092" 
d="M502 -16q-144 0 -250.5 29t-204.5 85v244h105q120 -131 340 -131q258 0 258 176q0 32 -7.5 57.5t-26 45t-35 32.5t-51 25.5t-55 19t-66 19l-67.5 18.5q-204 59 -294.5 155.5t-90.5 272.5q0 203 137 310.5t365 107.5q246 0 399 -94v-232h-100q-132 97 -287 97
q-119 0 -179 -40t-60 -126q0 -80 60 -118.5t202 -74.5q123 -31 202 -65.5t136 -86t81.5 -121.5t24.5 -169q0 -211 -137 -323.5t-399 -112.5z" />
    <glyph glyph-name="T" unicode="T" horiz-adv-x="1202" 
d="M761 0h-320v1208h-392v226h1104v-226h-392v-1208z" />
    <glyph glyph-name="U" unicode="U" horiz-adv-x="1389" 
d="M731 219q69 0 116.5 15t83.5 51.5t53 102.5t17 165v881h267v-873q0 -286 -130.5 -431.5t-424.5 -145.5q-289 0 -440.5 149.5t-151.5 427.5v873h319v-881q0 -99 19 -165t58 -102.5t90 -51.5t124 -15z" />
    <glyph glyph-name="V" unicode="V" horiz-adv-x="1354" 
d="M512 0l-469 1350v84h305l346 -1057h4l349 1057h264v-84l-471 -1350h-328z" />
    <glyph glyph-name="W" unicode="W" horiz-adv-x="1878" 
d="M367 0l-320 1350v84h303l221 -1039h4l246 1039h271l254 -1039h4l213 1039h268v-84l-322 -1350h-354l-215 938h-4l-213 -938h-356z" />
    <glyph glyph-name="X" unicode="X" horiz-adv-x="1341" 
d="M63 0v90l396 658l-389 595v91h305l317 -504l283 504h256v-91l-365 -618l412 -635v-90h-303l-344 545l-309 -545h-259z" />
    <glyph glyph-name="Y" unicode="Y" horiz-adv-x="1253" 
d="M801 0h-320v555l-444 788v91h299l321 -603h5l309 603h246v-91l-416 -780v-563z" />
    <glyph glyph-name="Z" unicode="Z" horiz-adv-x="1133" 
d="M49 0v242l686 956v8h-633v228h971v-248l-686 -957v-8h686v-221h-1024z" />
    <glyph glyph-name="bracketleft" unicode="[" horiz-adv-x="692" 
d="M143 -100v1618h486v-197h-207v-1225h207v-196h-486z" />
    <glyph glyph-name="backslash" unicode="\" horiz-adv-x="721" 
d="M12 1456v62h226l477 -1557v-61h-225z" />
    <glyph glyph-name="bracketright" unicode="]" horiz-adv-x="692" 
d="M549 1518v-1618h-485v196h206v1225h-206v197h485z" />
    <glyph glyph-name="asciicircum" unicode="^" horiz-adv-x="881" 
d="M39 926v69l293 439h215l295 -439v-69h-217l-183 264h-6l-180 -264h-217z" />
    <glyph glyph-name="underscore" unicode="_" horiz-adv-x="764" 
d="M768 -332h-772v191h772v-191z" />
    <glyph glyph-name="grave" unicode="`" 
d="M502 1151h-170l-203 197v86h303l70 -219v-64z" />
    <glyph glyph-name="a" unicode="a" horiz-adv-x="1102" 
d="M995 0h-125q-73 0 -108 22t-49 84q-107 -118 -312 -118q-156 0 -252 84t-96 239q0 165 117 250.5t311 85.5q117 0 215 -24v102q0 75 -46 112t-150 37q-157 0 -279 -83h-84v210q195 91 410 91q227 0 337.5 -82t110.5 -265v-745zM696 258v205q-70 12 -153 12
q-199 0 -199 -147q0 -76 45 -114t123 -38q95 0 184 82z" />
    <glyph glyph-name="b" unicode="b" horiz-adv-x="1210" 
d="M412 1266v-293q142 119 325 119q82 0 153 -28.5t131 -89t95 -168.5t35 -253q0 -121 -25.5 -218.5t-69 -161.5t-103 -107t-124.5 -61.5t-137 -18.5q-200 0 -325 112q-57 -98 -121 -98h-133v1434h182q74 0 95.5 -30.5t21.5 -137.5zM610 862q-87 0 -198 -53v-553
q78 -63 194 -63q40 0 72.5 7.5t65.5 29.5t55 57.5t35.5 96.5t13.5 142q0 101 -18 169.5t-52.5 103.5t-74 49t-93.5 14z" />
    <glyph glyph-name="c" unicode="c" horiz-adv-x="1022" 
d="M610 -14q-262 0 -409.5 145.5t-147.5 403.5q0 127 43.5 232.5t120 176t181.5 109.5t227 39q192 0 329 -74v-223h-114q-81 77 -215 77q-121 0 -195 -88t-74 -252q0 -167 70 -248t190 -81q150 0 240 86h102v-205q-148 -98 -348 -98z" />
    <glyph glyph-name="d" unicode="d" horiz-adv-x="1210" 
d="M1098 0h-207q-38 0 -58 24.5t-28 96.5q-123 -137 -316 -137q-91 0 -168.5 34t-136 99t-92 168t-33.5 233q0 152 39 266.5t105.5 179.5t145.5 96.5t169 31.5q97 0 162.5 -23.5t118.5 -69.5v435h182q75 0 96 -31t21 -137v-1266zM575 193q64 0 113.5 22t110.5 72v522
q-71 53 -189 53q-248 0 -248 -330q0 -181 51.5 -260t161.5 -79z" />
    <glyph glyph-name="e" unicode="e" horiz-adv-x="1112" 
d="M1057 471h-697q11 -154 80.5 -214t202.5 -60q160 0 285 90h92v-197q-84 -47 -181.5 -75.5t-240.5 -28.5q-261 0 -403 145t-142 401t148 408t377 152q238 0 360.5 -132.5t122.5 -396.5q0 -22 -2 -56t-2 -36zM578 903q-88 0 -143 -56t-70 -196h401q-4 138 -50.5 195
t-137.5 57z" />
    <glyph glyph-name="f" unicode="f" horiz-adv-x="707" 
d="M31 874v201h127v82q0 150 88.5 223.5t251.5 73.5q108 0 178 -29v-178h-82q-69 0 -103 -21t-34 -79v-72h205v-201h-205v-874h-299v874h-127z" />
    <glyph glyph-name="g" unicode="g" horiz-adv-x="1210" 
d="M1098 1075v-1018q0 -197 -143.5 -301t-409.5 -104t-432 88v215h90q129 -90 305 -90q147 0 219 51t72 160v67q-123 -104 -297 -104q-92 0 -170 29.5t-140 88t-97.5 156t-35.5 224.5q0 116 26 210.5t70 157.5t105 106t128.5 62t141.5 19q180 0 297 -107q39 90 123 90h148z
M588 248q105 0 211 76v477q-43 32 -86.5 46.5t-106.5 14.5q-50 0 -91 -14t-77 -46t-56 -93t-20 -146q0 -175 53 -245t173 -70z" />
    <glyph glyph-name="h" unicode="h" horiz-adv-x="1194" 
d="M412 1266v-303q78 57 181.5 93t205.5 36q63 0 111.5 -13.5t90 -46t64 -93.5t22.5 -148v-791h-299v715q0 78 -30.5 107.5t-102.5 29.5q-104 0 -243 -49v-803h-299v1434h182q74 0 95.5 -30.5t21.5 -137.5z" />
    <glyph glyph-name="i" unicode="i" horiz-adv-x="530" 
d="M414 0h-299v1075h186q73 0 93 -36t20 -160v-879zM266 1159q-68 0 -116 46t-48 112t48 113t116 47t115 -47t47 -113t-47 -112t-115 -46z" />
    <glyph glyph-name="j" unicode="j" horiz-adv-x="530" 
d="M-80 -322v172h62q73 0 103 34t30 112v1079h186q72 0 92.5 -36t20.5 -160v-902q0 -166 -82.5 -243.5t-245.5 -77.5q-97 0 -166 22zM266 1159q-68 0 -116 46t-48 112t48 113t116 47t115 -47t47 -113t-47 -112t-115 -46z" />
    <glyph glyph-name="k" unicode="k" horiz-adv-x="1128" 
d="M412 1266v-623l383 432h245v-78l-317 -344l360 -571v-82h-276l-285 453l-110 -115v-338h-299v1434h182q74 0 95.5 -30.5t21.5 -137.5z" />
    <glyph glyph-name="l" unicode="l" horiz-adv-x="532" 
d="M416 0h-299v1434h182q75 0 96 -30t21 -138v-1266z" />
    <glyph glyph-name="m" unicode="m" horiz-adv-x="1825" 
d="M113 1075h202q41 0 62 -23.5t29 -88.5q76 57 176 93t202 36q196 0 256 -138q83 64 188.5 101t209.5 37q126 0 203 -70t77 -231v-791h-299v715q0 75 -29 106t-96 31q-93 0 -229 -51v-801h-299v715q0 75 -29 106t-96 31q-91 0 -229 -49v-803h-299v1075z" />
    <glyph glyph-name="n" unicode="n" horiz-adv-x="1194" 
d="M113 1075h202q41 0 62.5 -24t30.5 -90q79 58 183.5 94.5t207.5 36.5q63 0 111.5 -13.5t90 -46t64 -93.5t22.5 -148v-791h-299v715q0 78 -30.5 107.5t-102.5 29.5q-104 0 -243 -49v-803h-299v1075z" />
    <glyph glyph-name="o" unicode="o" horiz-adv-x="1204" 
d="M602 -14q-114 0 -214 37.5t-174.5 106t-117.5 172.5t-43 230q0 169 74 298t198 195.5t277 66.5t277 -66.5t198 -195.5t74 -298q0 -126 -43 -230t-117.5 -172.5t-174.5 -106t-214 -37.5zM602 199q115 0 180.5 81.5t65.5 249.5q0 171 -66.5 260t-179.5 89t-179.5 -89
t-66.5 -260q0 -167 66 -249t180 -82z" />
    <glyph glyph-name="p" unicode="p" horiz-adv-x="1210" 
d="M680 12q-160 0 -268 78v-422h-299v1407h202q40 0 61 -21.5t30 -82.5q144 121 331 121q81 0 152.5 -29.5t131.5 -89.5t95 -165t35 -243q0 -146 -39 -256t-107 -173t-149.5 -93.5t-175.5 -30.5zM614 862q-91 0 -202 -53v-530q75 -60 192 -60q54 0 94.5 13.5t76 47t54.5 99
t19 160.5q0 94 -18 159.5t-51.5 100t-73 49t-91.5 14.5z" />
    <glyph glyph-name="q" unicode="q" horiz-adv-x="1210" 
d="M799 -332v449q-118 -105 -297 -105q-92 0 -171 30.5t-140.5 91.5t-96.5 161t-35 229q0 121 26 218t70 161.5t105 107.5t128 62t142 19q183 0 299 -111q42 94 121 94h148v-1407h-299zM588 221q105 0 211 76v504q-43 32 -86.5 46.5t-106.5 14.5q-50 0 -91 -15t-76.5 -48
t-56 -96.5t-20.5 -151.5q0 -184 51 -257t175 -73z" />
    <glyph glyph-name="r" unicode="r" horiz-adv-x="809" 
d="M772 840h-51q-191 0 -309 -64v-776h-299v1075h202q41 0 63 -26.5t30 -102.5q129 139 299 139q36 0 65 -10v-235z" />
    <glyph glyph-name="s" unicode="s" horiz-adv-x="932" 
d="M434 -12q-221 0 -373 88v221h95q41 -38 109.5 -64t154.5 -26q184 0 184 100q0 51 -39.5 76t-150.5 39q-183 23 -272 98.5t-89 229.5q0 161 113 249t313 88q194 0 338 -73v-217h-90q-94 71 -246 71q-162 0 -162 -96q0 -42 46 -65.5t155 -36.5q195 -24 279 -99t84 -235
q0 -165 -111 -256.5t-338 -91.5z" />
    <glyph glyph-name="t" unicode="t" horiz-adv-x="721" 
d="M31 874v201h127v287h299v-287h217v-201h-217v-550q0 -75 31.5 -103t107.5 -28h82v-181q-84 -28 -189 -28q-162 0 -246.5 72t-84.5 233v585h-127z" />
    <glyph glyph-name="u" unicode="u" horiz-adv-x="1219" 
d="M569 209q94 0 226 53v813h299v-1075h-203q-40 0 -61 20t-29 80q-77 -53 -174.5 -83.5t-194.5 -30.5q-313 0 -313 290v799h299v-723q0 -82 37.5 -112.5t113.5 -30.5z" />
    <glyph glyph-name="v" unicode="v" horiz-adv-x="1139" 
d="M430 0l-391 997v78h283l272 -741h4l248 741h254v-78l-375 -997h-295z" />
    <glyph glyph-name="w" unicode="w" horiz-adv-x="1626" 
d="M340 0l-297 997v78h285l180 -678h4l211 678h229l197 -678h4l193 678h237v-78l-305 -997h-264l-201 668h-4l-209 -668h-260z" />
    <glyph glyph-name="x" unicode="x" horiz-adv-x="1114" 
d="M49 0v78l316 467l-297 452v78h284l226 -364l206 364h248v-78l-276 -436l309 -483v-78h-283l-241 399l-240 -399h-252z" />
    <glyph glyph-name="y" unicode="y" horiz-adv-x="1124" 
d="M297 -332v80l145 305l-403 944v78h280l265 -663h4l243 663h256v-78l-534 -1329h-256z" />
    <glyph glyph-name="z" unicode="z" horiz-adv-x="1010" 
d="M59 0v207l549 657h-516v211h848v-209l-551 -655h537v-211h-867z" />
    <glyph glyph-name="braceleft" unicode="{" horiz-adv-x="752" 
d="M203 162v346q0 47 -29 80t-86 33h-47v196h47q58 0 86.5 32.5t28.5 80.5v325q0 128 73.5 195.5t221.5 67.5h190v-197h-147q-22 0 -41 -21t-19 -42v-316q0 -86 -41.5 -139t-140.5 -80v-6q99 -27 140.5 -80t41.5 -139v-338q0 -21 19 -42.5t41 -21.5h147v-196h-190
q-295 0 -295 262z" />
    <glyph glyph-name="bar" unicode="|" horiz-adv-x="358" 
d="M297 1518v-1618h-236v1618h236z" />
    <glyph glyph-name="braceright" unicode="}" horiz-adv-x="752" 
d="M549 508v-346q0 -262 -295 -262h-190v196h147q22 0 40.5 21.5t18.5 42.5v338q0 86 41.5 139t141.5 80v6q-100 27 -141.5 80t-41.5 139v316q0 21 -18.5 42t-40.5 21h-147v197h190q148 0 221.5 -67.5t73.5 -195.5v-325q0 -48 28.5 -80.5t86.5 -32.5h47v-196h-47
q-57 0 -86 -33t-29 -80z" />
    <glyph glyph-name="asciitilde" unicode="~" horiz-adv-x="807" 
d="M518 694q55 0 76 62h174v-92q-21 -97 -81.5 -157t-153.5 -60q-55 0 -140 27.5t-104 27.5q-55 0 -76 -62h-174v93q21 97 81.5 157t153.5 60q62 0 144.5 -28t99.5 -28z" />
    <glyph glyph-name="uni00A0" unicode="&#xa0;" horiz-adv-x="389" 
 />
    <glyph glyph-name="exclamdown" unicode="&#xa1;" horiz-adv-x="582" 
d="M389 864l62 -835v-177h-320v177l62 835h196zM291 1298q71 0 119.5 -47t48.5 -116q0 -70 -48.5 -118t-119.5 -48q-69 0 -118.5 48.5t-49.5 117.5t49.5 116t118.5 47z" />
    <glyph glyph-name="cent" unicode="&#xa2;" horiz-adv-x="1059" 
d="M543 -10q-230 20 -361 164t-131 381q0 227 137.5 374.5t354.5 175.5v121h182v-118q144 -16 250 -70v-223h-115q-52 49 -135 69v-655q88 20 152 80h102v-205q-105 -72 -254 -90v-205h-182v201zM543 862q-92 -27 -141.5 -110.5t-49.5 -218.5q0 -278 191 -326v655z" />
    <glyph glyph-name="sterling" unicode="&#xa3;" horiz-adv-x="1065" 
d="M639 1210q-56 0 -102.5 -17.5t-78.5 -60t-32 -104.5q0 -94 21 -207h344v-209h-312q11 -86 11 -141q0 -126 -76 -221h612v-250h-983v211q160 56 160 254q0 62 -19 147h-133v209h84q-24 110 -24 197q0 138 71.5 237.5t187 147t261.5 47.5q121 0 206 -23.5t160 -70.5v-236
h-100q-117 90 -258 90z" />
    <glyph glyph-name="yen" unicode="&#xa5;" horiz-adv-x="1192" 
d="M109 612v179h247l-309 553v90h289l289 -564h4l274 564h242v-90l-291 -553h258v-179h-344v-112h344v-178h-344v-322h-315v322h-344v178h344v112h-344z" />
    <glyph glyph-name="brokenbar" unicode="&#xa6;" horiz-adv-x="360" 
d="M61 -100v731h238l-2 -731h-236zM61 805v713h236l2 -713h-238z" />
    <glyph glyph-name="section" unicode="&#xa7;" horiz-adv-x="1073" 
d="M952 80q0 -158 -119 -255t-350 -97q-223 0 -391 86v221h94q37 -36 123.5 -64t169.5 -28q185 0 185 110q0 55 -52 86t-204 74q-194 55 -279.5 135.5t-85.5 218.5q0 198 193 275q-61 45 -87 107t-26 155q0 157 116 251.5t316 94.5q218 0 358 -80v-213h-90q-99 74 -258 74
q-85 0 -133.5 -28t-48.5 -83q0 -50 50.5 -85t180.5 -66q218 -55 313 -135.5t95 -235.5q0 -191 -188 -270q118 -86 118 -248zM305 616q0 -54 43 -90.5t150 -66.5q18 -6 65.5 -19.5t71.5 -21.5q58 21 88.5 57.5t30.5 81.5q0 60 -48.5 96t-160.5 66q-55 13 -111 31
q-129 -29 -129 -134z" />
    <glyph glyph-name="dieresis" unicode="&#xa8;" 
d="M213 1159q-65 0 -109.5 43.5t-44.5 106.5q0 62 45 105.5t109 43.5t109 -43.5t45 -105.5q0 -63 -44.5 -106.5t-109.5 -43.5zM606 1159q-64 0 -108.5 43.5t-44.5 106.5q0 62 44.5 105.5t108.5 43.5t109 -43.5t45 -105.5q0 -63 -44.5 -106.5t-109.5 -43.5z" />
    <glyph glyph-name="copyright" unicode="&#xa9;" horiz-adv-x="1597" 
d="M799 -16q-148 0 -280 49t-234 139.5t-161.5 231.5t-59.5 313t59.5 313t161.5 231.5t234 139.5t280 49t280 -49t234 -139.5t161.5 -231.5t59.5 -313t-59.5 -313t-161.5 -231.5t-234 -139.5t-280 -49zM799 88q127 0 237.5 42.5t193 121t130 198.5t47.5 267q0 195 -82 339.5
t-218.5 217t-307.5 72.5t-307.5 -72.5t-218.5 -217t-82 -339.5q0 -147 47.5 -267t130 -198.5t193 -121t237.5 -42.5zM821 315q-192 0 -299.5 106.5t-107.5 297.5q0 185 118 296t300 111q141 0 245 -53v-172h-92q-62 58 -153 58q-86 0 -135.5 -62.5t-49.5 -179.5
q0 -234 180 -234q108 0 170 60h82v-156q-109 -72 -258 -72z" />
    <glyph glyph-name="ordfeminine" unicode="&#xaa;" horiz-adv-x="915" 
d="M723 528q-58 0 -87.5 20.5t-41.5 70.5q-93 -101 -262 -101q-128 0 -209.5 71t-81.5 202q0 138 98 211t260 73q101 0 181 -20v71q0 61 -38 91t-124 30q-129 0 -227 -67h-80v194q171 76 354 76q199 0 294 -70.5t95 -230.5v-621h-131zM580 752v161q-67 9 -119 9
q-156 0 -156 -117q0 -115 131 -115q75 0 144 62z" />
    <glyph glyph-name="guillemotleft" unicode="&#xab;" horiz-adv-x="1055" 
d="M317 82l-245 391v117l245 393h234v-65l-227 -379v-6l227 -385v-66h-234zM504 473v117l246 393h233v-65l-227 -379v-6l227 -385v-66h-233z" />
    <glyph glyph-name="registered" unicode="&#xae;" horiz-adv-x="791" 
d="M395 717q-155 0 -266 100t-111 266q0 168 111 267.5t266 99.5q99 0 184 -42t139 -127t54 -198q0 -166 -111.5 -266t-265.5 -100zM395 791q127 0 209 76t82 216q0 141 -82 217t-209 76t-209 -76t-82 -217q0 -140 82 -216t209 -76zM563 1157q0 -68 -59 -100l67 -117v-37
h-110l-66 129h-35v-129h-116v379h164q155 0 155 -125zM360 1206v-98h37q50 0 50 51q0 47 -50 47h-37z" />
    <glyph glyph-name="macron" unicode="&#xaf;" 
d="M676 1397v-201h-533v201h533z" />
    <glyph glyph-name="degree" unicode="&#xb0;" horiz-adv-x="713" 
d="M356 868q-126 0 -213.5 80.5t-87.5 208.5t87.5 208.5t213.5 80.5t213.5 -80.5t87.5 -208.5t-87.5 -208.5t-213.5 -80.5zM356 1006q63 0 103.5 42t40.5 109q0 68 -40 110t-104 42q-62 0 -100.5 -41.5t-38.5 -110.5q0 -67 38.5 -109t100.5 -42z" />
    <glyph glyph-name="twosuperior" unicode="&#xb2;" horiz-adv-x="688" 
d="M627 817v-172h-576v172l219 203q66 61 94.5 100.5t28.5 75.5q0 34 -25.5 55t-70.5 21q-41 0 -81.5 -15.5t-63.5 -35.5h-82v151q108 74 262 74q144 0 220.5 -57.5t76.5 -173.5q0 -80 -43.5 -140t-145.5 -147l-129 -111h316z" />
    <glyph glyph-name="threesuperior" unicode="&#xb3;" horiz-adv-x="678" 
d="M289 633q-140 0 -244 63v146h80q22 -20 60 -35.5t81 -15.5q129 0 129 88t-123 88h-73v147h67q58 0 91.5 23t33.5 63q0 78 -102 78q-81 0 -141 -43h-78v141q108 70 252 70q130 0 209 -55t79 -164q0 -132 -159 -176v-4q172 -30 172 -181q0 -112 -89 -172.5t-245 -60.5z" />
    <glyph glyph-name="acute" unicode="&#xb4;" 
d="M487 1151h-170v64l70 219h303v-86z" />
    <glyph glyph-name="paragraph" unicode="&#xb6;" horiz-adv-x="1212" 
d="M514 -186v807h-6q-212 0 -335.5 100t-123.5 305q0 408 520 408h516v-1620h-213v1411h-145v-1411h-213z" />
    <glyph glyph-name="periodcentered" unicode="&#xb7;" horiz-adv-x="459" 
d="M229 440q-71 0 -119.5 47.5t-48.5 116.5t49 117.5t119 48.5t119 -48.5t49 -117.5t-49 -116.5t-119 -47.5z" />
    <glyph glyph-name="cedilla" unicode="&#xb8;" 
d="M320 0h141v-49q166 -6 166 -152q0 -73 -58 -115t-157 -42q-89 0 -158 32v123h59q26 -28 74 -28q57 0 57 38q0 37 -71 37h-53v156z" />
    <glyph glyph-name="onesuperior" unicode="&#xb9;" horiz-adv-x="539" 
d="M438 645h-239v561l-107 -55h-45v168l217 115h174v-789z" />
    <glyph glyph-name="ordmasculine" unicode="&#xba;" horiz-adv-x="1049" 
d="M524 516q-133 0 -239 54t-169 160.5t-63 248.5t63 250.5t169.5 164.5t238.5 56q203 0 337 -128.5t134 -342.5q0 -213 -133.5 -338t-337.5 -125zM524 707q90 0 141.5 66t51.5 204t-52 208t-141 70t-140.5 -70t-51.5 -208t51 -204t141 -66z" />
    <glyph glyph-name="guillemotright" unicode="&#xbb;" horiz-adv-x="1055" 
d="M737 82h-233v66l227 385v6l-227 379v65h233l246 -393v-117zM72 918v65h233l246 -393v-117l-246 -391h-233v66l227 385v6z" />
    <glyph glyph-name="onequarter" unicode="&#xbc;" horiz-adv-x="1487" 
d="M438 645h-239v561l-107 -55h-45v168l217 115h174v-789zM330 -70h-213l1009 1563h213zM1364 0h-221v162h-354v172l360 455h215v-478h82v-149h-82v-162zM952 315v-4h193v238h-6z" />
    <glyph glyph-name="onehalf" unicode="&#xbd;" horiz-adv-x="1583" 
d="M438 645h-239v561l-107 -55h-45v168l217 115h174v-789zM330 -70h-213l1009 1563h213zM1522 172v-172h-576v172l219 203q66 61 94.5 100.5t28.5 75.5q0 34 -25.5 55t-70.5 21q-41 0 -81.5 -15.5t-63.5 -35.5h-82v151q108 74 262 74q144 0 220.5 -58t76.5 -174
q0 -79 -43.5 -139t-145.5 -147l-129 -111h316z" />
    <glyph glyph-name="threequarters" unicode="&#xbe;" horiz-adv-x="1581" 
d="M301 633q-138 0 -244 63v146h80q22 -20 60 -35.5t82 -15.5q129 0 129 88t-123 88h-74v147h68q58 0 91.5 23t33.5 63q0 78 -103 78q-81 0 -141 -43h-78v141q108 70 252 70q131 0 210 -55t79 -164q0 -132 -160 -176v-4q172 -30 172 -181q0 -112 -89 -172.5t-245 -60.5z
M436 -70h-213l1010 1563h213zM1458 0h-221v162h-354v172l360 455h215v-478h82v-149h-82v-162zM1047 315v-4h192v238h-6z" />
    <glyph glyph-name="questiondown" unicode="&#xbf;" horiz-adv-x="920" 
d="M672 864q17 -118 -8.5 -197t-124.5 -175q-81 -79 -122.5 -143t-41.5 -140q0 -67 42.5 -103t110.5 -36q145 0 238 96h115v-221q-162 -109 -371 -109q-214 0 -332.5 94.5t-118.5 276.5q0 111 50.5 191.5t158.5 168.5q99 83 123 108q66 70 69 157q0 15 -1 32h213zM555 1298
q71 0 119.5 -47t48.5 -116q0 -70 -48.5 -118t-119.5 -48q-69 0 -118.5 48.5t-49.5 117.5t49.5 116t118.5 47z" />
    <glyph glyph-name="Agrave" unicode="&#xc0;" horiz-adv-x="1370" 
d="M45 0v84l475 1350h330l477 -1350v-84h-309l-119 365h-483l-115 -365h-256zM651 1112l-168 -528h344l-172 528h-4zM783 1479h-170l-203 176v86h303l70 -199v-63z" />
    <glyph glyph-name="Aacute" unicode="&#xc1;" horiz-adv-x="1370" 
d="M45 0v84l475 1350h330l477 -1350v-84h-309l-119 365h-483l-115 -365h-256zM651 1112l-168 -528h344l-172 528h-4zM747 1479h-170v63l70 199h303v-86z" />
    <glyph glyph-name="Acircumflex" unicode="&#xc2;" horiz-adv-x="1370" 
d="M70 0v84l475 1350h330l477 -1350v-84h-309l-119 365h-483l-115 -365h-256zM676 1112l-168 -528h344l-172 528h-4zM418 1479v75l186 195h205l178 -195v-75h-164l-125 84l-124 -84h-156z" />
    <glyph glyph-name="Atilde" unicode="&#xc3;" horiz-adv-x="1370" 
d="M45 0v84l475 1350h330l477 -1350v-84h-309l-119 365h-483l-115 -365h-256zM651 1112l-168 -528h344l-172 528h-4zM336 1479v78q17 95 68.5 143.5t133.5 48.5q54 0 127.5 -26.5t93.5 -26.5q51 0 68 55h164v-77q-35 -193 -203 -193q-54 0 -127 28.5t-92 28.5q-56 0 -70 -59
h-163z" />
    <glyph glyph-name="Adieresis" unicode="&#xc4;" horiz-adv-x="1370" 
d="M45 0v84l475 1350h330l477 -1350v-84h-309l-119 365h-483l-115 -365h-256zM651 1112l-168 -528h344l-172 528h-4zM482 1481q-64 0 -109 43.5t-45 106.5q0 62 45 105.5t109 43.5t109 -43.5t45 -105.5q0 -63 -45 -106.5t-109 -43.5zM875 1481q-64 0 -108.5 43.5
t-44.5 106.5q0 62 44.5 105.5t108.5 43.5t109 -43.5t45 -105.5q0 -63 -45 -106.5t-109 -43.5z" />
    <glyph glyph-name="Aring" unicode="&#xc5;" horiz-adv-x="1370" 
d="M45 0v84l475 1350h330l477 -1350v-84h-309l-119 365h-483l-115 -365h-256zM651 1112l-168 -528h344l-172 528h-4zM677 1483q-91 0 -153 56t-62 149t62.5 150t152.5 57t152.5 -57t62.5 -150t-62.5 -149t-152.5 -56zM677 1610q34 0 54.5 21.5t19.5 56.5q1 37 -19.5 58.5
t-54.5 21.5t-54 -21.5t-20 -58.5q0 -35 20 -56.5t54 -21.5z" />
    <glyph glyph-name="AE" unicode="&#xc6;" horiz-adv-x="1944" 
d="M909 0v383h-444l-182 -383h-260v84l684 1350h1146v-232h-624v-364h446v-220h-446v-393h647v-225h-967zM858 1202l-289 -600h340v600h-51z" />
    <glyph glyph-name="Ccedilla" unicode="&#xc7;" horiz-adv-x="1260" 
d="M1204 356v-235q-171 -133 -448 -137v-33q84 -3 125 -43t41 -109q0 -74 -57.5 -115.5t-157.5 -41.5q-89 0 -158 32v123h59q26 -28 74 -28q57 0 57 38q0 37 -71 37h-54v150q-258 39 -405.5 226.5t-147.5 492.5q0 169 52.5 308t146 233t224.5 145t286 51q138 0 230.5 -23.5
t187.5 -70.5v-240h-115q-108 103 -295 103q-188 0 -288.5 -127.5t-100.5 -366.5q0 -260 92.5 -386t278.5 -126q118 0 196.5 37t147.5 106h100z" />
    <glyph glyph-name="Egrave" unicode="&#xc8;" horiz-adv-x="1161" 
d="M127 0v1434h944v-232h-629v-364h451v-220h-451v-393h652v-225h-967zM729 1479h-170l-203 176v86h303l70 -199v-63z" />
    <glyph glyph-name="Eacute" unicode="&#xc9;" horiz-adv-x="1161" 
d="M127 0v1434h944v-232h-629v-364h451v-220h-451v-393h652v-225h-967zM702 1479h-170v63l70 199h303v-86z" />
    <glyph glyph-name="Ecircumflex" unicode="&#xca;" horiz-adv-x="1161" 
d="M127 0v1434h944v-232h-629v-364h451v-220h-451v-393h652v-225h-967zM342 1479v75l186 195h205l178 -195v-75h-164l-125 84l-124 -84h-156z" />
    <glyph glyph-name="Edieresis" unicode="&#xcb;" horiz-adv-x="1161" 
d="M127 0v1434h944v-232h-629v-364h451v-220h-451v-393h652v-225h-967zM420 1481q-64 0 -109 43.5t-45 106.5q0 62 45 105.5t109 43.5t109 -43.5t45 -105.5q0 -63 -45 -106.5t-109 -43.5zM813 1481q-64 0 -108.5 43.5t-44.5 106.5q0 62 44.5 105.5t108.5 43.5t109 -43.5
t45 -105.5q0 -63 -45 -106.5t-109 -43.5z" />
    <glyph glyph-name="Igrave" unicode="&#xcc;" horiz-adv-x="588" 
d="M455 0h-322v1434h322v-1434zM396 1479h-170l-203 176v86h303l70 -199v-63z" />
    <glyph glyph-name="Iacute" unicode="&#xcd;" horiz-adv-x="588" 
d="M455 0h-322v1434h322v-1434zM368 1479h-170v63l70 199h303v-86z" />
    <glyph glyph-name="Icircumflex" unicode="&#xce;" horiz-adv-x="588" 
d="M455 0h-322v1434h322v-1434zM8 1479v75l186 195h205l178 -195v-75h-164l-125 84l-124 -84h-156z" />
    <glyph glyph-name="Idieresis" unicode="&#xcf;" horiz-adv-x="588" 
d="M455 0h-322v1434h322v-1434zM102 1481q-64 0 -109 43.5t-45 106.5q0 62 45 105.5t109 43.5t109 -43.5t45 -105.5q0 -63 -45 -106.5t-109 -43.5zM495 1481q-64 0 -108.5 43.5t-44.5 106.5q0 62 44.5 105.5t108.5 43.5t109 -43.5t45 -105.5q0 -63 -45 -106.5t-109 -43.5z
" />
    <glyph glyph-name="Ntilde" unicode="&#xd1;" horiz-adv-x="1419" 
d="M127 0v1434h362l529 -920h6v920h268v-1434h-291l-602 1047h-6v-1047h-266zM426 1479v78q17 95 68.5 143.5t133.5 48.5q54 0 127.5 -26.5t93.5 -26.5q51 0 68 55h164v-77q-35 -193 -203 -193q-54 0 -127 28.5t-92 28.5q-56 0 -70 -59h-163z" />
    <glyph glyph-name="Ograve" unicode="&#xd2;" horiz-adv-x="1495" 
d="M748 -16q-139 0 -263 49t-219 139.5t-151 231.5t-56 313t56 313t151 231.5t219 139.5t263 49q138 0 262 -49t219 -139.5t151 -231.5t56 -313t-56 -313t-151 -231.5t-219 -139.5t-262 -49zM748 205q164 0 262 126t98 380t-98.5 384t-261.5 130q-166 0 -263.5 -129.5
t-97.5 -384.5q0 -254 97.5 -380t263.5 -126zM850 1479h-170l-203 176v86h303l70 -199v-63z" />
    <glyph glyph-name="Oacute" unicode="&#xd3;" horiz-adv-x="1495" 
d="M748 -16q-139 0 -263 49t-219 139.5t-151 231.5t-56 313t56 313t151 231.5t219 139.5t263 49q138 0 262 -49t219 -139.5t151 -231.5t56 -313t-56 -313t-151 -231.5t-219 -139.5t-262 -49zM748 205q164 0 262 126t98 380t-98.5 384t-261.5 130q-166 0 -263.5 -129.5
t-97.5 -384.5q0 -254 97.5 -380t263.5 -126zM823 1479h-170v63l70 199h303v-86z" />
    <glyph glyph-name="Ocircumflex" unicode="&#xd4;" horiz-adv-x="1495" 
d="M748 -16q-139 0 -263 49t-219 139.5t-151 231.5t-56 313t56 313t151 231.5t219 139.5t263 49q138 0 262 -49t219 -139.5t151 -231.5t56 -313t-56 -313t-151 -231.5t-219 -139.5t-262 -49zM748 205q164 0 262 126t98 380t-98.5 384t-261.5 130q-166 0 -263.5 -129.5
t-97.5 -384.5q0 -254 97.5 -380t263.5 -126zM463 1479v75l186 195h205l178 -195v-75h-164l-125 84l-124 -84h-156z" />
    <glyph glyph-name="Otilde" unicode="&#xd5;" horiz-adv-x="1495" 
d="M748 -16q-139 0 -263 49t-219 139.5t-151 231.5t-56 313t56 313t151 231.5t219 139.5t263 49q138 0 262 -49t219 -139.5t151 -231.5t56 -313t-56 -313t-151 -231.5t-219 -139.5t-262 -49zM748 205q164 0 262 126t98 380t-98.5 384t-261.5 130q-166 0 -263.5 -129.5
t-97.5 -384.5q0 -254 97.5 -380t263.5 -126zM411 1479v78q35 192 202 192q54 0 127.5 -26.5t93.5 -26.5q51 0 68 55h164v-77q-35 -193 -203 -193q-54 0 -127 28.5t-92 28.5q-56 0 -70 -59h-163z" />
    <glyph glyph-name="Odieresis" unicode="&#xd6;" horiz-adv-x="1495" 
d="M748 -16q-139 0 -263 49t-219 139.5t-151 231.5t-56 313t56 313t151 231.5t219 139.5t263 49q138 0 262 -49t219 -139.5t151 -231.5t56 -313t-56 -313t-151 -231.5t-219 -139.5t-262 -49zM748 205q164 0 262 126t98 380t-98.5 384t-261.5 130q-166 0 -263.5 -129.5
t-97.5 -384.5q0 -254 97.5 -380t263.5 -126zM547 1481q-64 0 -109 43.5t-45 106.5q0 62 45 105.5t109 43.5t109 -43.5t45 -105.5q0 -63 -45 -106.5t-109 -43.5zM940 1481q-64 0 -108.5 43.5t-44.5 106.5q0 62 44.5 105.5t108.5 43.5t109 -43.5t45 -105.5q0 -63 -45 -106.5
t-109 -43.5z" />
    <glyph glyph-name="multiply" unicode="&#xd7;" horiz-adv-x="1051" 
d="M825 236l-299 299l-299 -299l-159 159l299 299l-299 299l159 160l299 -299l299 299l158 -160l-299 -299l299 -299z" />
    <glyph glyph-name="Ugrave" unicode="&#xd9;" horiz-adv-x="1389" 
d="M731 219q69 0 116.5 15t83.5 51.5t53 102.5t17 165v881h267v-873q0 -286 -130.5 -431.5t-424.5 -145.5q-289 0 -440.5 149.5t-151.5 427.5v873h319v-881q0 -99 19 -165t58 -102.5t90 -51.5t124 -15zM826 1479h-170l-203 176v86h303l70 -199v-63z" />
    <glyph glyph-name="Uacute" unicode="&#xda;" horiz-adv-x="1389" 
d="M731 219q69 0 116.5 15t83.5 51.5t53 102.5t17 165v881h267v-873q0 -286 -130.5 -431.5t-424.5 -145.5q-289 0 -440.5 149.5t-151.5 427.5v873h319v-881q0 -99 19 -165t58 -102.5t90 -51.5t124 -15zM798 1479h-170v63l70 199h303v-86z" />
    <glyph glyph-name="Ucircumflex" unicode="&#xdb;" horiz-adv-x="1389" 
d="M731 219q69 0 116.5 15t83.5 51.5t53 102.5t17 165v881h267v-873q0 -286 -130.5 -431.5t-424.5 -145.5q-289 0 -440.5 149.5t-151.5 427.5v873h319v-881q0 -99 19 -165t58 -102.5t90 -51.5t124 -15zM438 1479v75l186 195h205l178 -195v-75h-164l-125 84l-124 -84h-156z
" />
    <glyph glyph-name="Udieresis" unicode="&#xdc;" horiz-adv-x="1389" 
d="M731 219q69 0 116.5 15t83.5 51.5t53 102.5t17 165v881h267v-873q0 -286 -130.5 -431.5t-424.5 -145.5q-289 0 -440.5 149.5t-151.5 427.5v873h319v-881q0 -99 19 -165t58 -102.5t90 -51.5t124 -15zM529 1481q-64 0 -109 43.5t-45 106.5q0 62 45 105.5t109 43.5
t109 -43.5t45 -105.5q0 -63 -45 -106.5t-109 -43.5zM922 1481q-64 0 -108.5 43.5t-44.5 106.5q0 62 44.5 105.5t108.5 43.5t109 -43.5t45 -105.5q0 -63 -45 -106.5t-109 -43.5z" />
    <glyph glyph-name="Yacute" unicode="&#xdd;" horiz-adv-x="1253" 
d="M801 0h-320v555l-444 788v91h299l321 -603h5l309 603h246v-91l-416 -780v-563zM720 1479h-170v63l70 199h303v-86z" />
    <glyph glyph-name="germandbls" unicode="&#xdf;" horiz-adv-x="1266" 
d="M113 0v1038q0 193 136.5 304.5t391.5 111.5q210 0 329.5 -78.5t119.5 -236.5q0 -131 -175 -262q-68 -50 -90 -77t-22 -55q0 -26 26 -46.5t109 -55.5q150 -62 215.5 -134.5t65.5 -203.5q0 -142 -108 -230.5t-308 -88.5q-176 0 -277 69v221h92q86 -71 185 -71
q65 0 103 21.5t38 54.5q0 38 -33.5 60t-148.5 69q-225 86 -225 280q0 47 10 84t36.5 74.5t44 56.5t62.5 64l22.5 22t21.5 21.5l17 18.5t16 19l11.5 17t9.5 19.5l4.5 19.5t2.5 22q0 53 -40 83t-118 30q-225 0 -225 -213v-1028h-299z" />
    <glyph glyph-name="agrave" unicode="&#xe0;" horiz-adv-x="1102" 
d="M995 0h-125q-73 0 -108 22t-49 84q-107 -118 -312 -118q-156 0 -252 84t-96 239q0 165 117 250.5t311 85.5q117 0 215 -24v102q0 75 -46 112t-150 37q-157 0 -279 -83h-84v210q195 91 410 91q227 0 337.5 -82t110.5 -265v-745zM696 258v205q-70 12 -153 12
q-199 0 -199 -147q0 -76 45 -114t123 -38q95 0 184 82zM629 1151h-170l-203 197v86h303l70 -220v-63z" />
    <glyph glyph-name="aacute" unicode="&#xe1;" horiz-adv-x="1102" 
d="M995 0h-125q-73 0 -108 22t-49 84q-107 -118 -312 -118q-156 0 -252 84t-96 239q0 165 117 250.5t311 85.5q117 0 215 -24v102q0 75 -46 112t-150 37q-157 0 -279 -83h-84v210q195 91 410 91q227 0 337.5 -82t110.5 -265v-745zM696 258v205q-70 12 -153 12
q-199 0 -199 -147q0 -76 45 -114t123 -38q95 0 184 82zM634 1151h-170v63l70 220h303v-86z" />
    <glyph glyph-name="acircumflex" unicode="&#xe2;" horiz-adv-x="1102" 
d="M995 0h-125q-73 0 -108 22t-49 84q-107 -118 -312 -118q-156 0 -252 84t-96 239q0 165 117 250.5t311 85.5q117 0 215 -24v102q0 75 -46 112t-150 37q-157 0 -279 -83h-84v210q195 91 410 91q227 0 337.5 -82t110.5 -265v-745zM696 258v205q-70 12 -153 12
q-199 0 -199 -147q0 -76 45 -114t123 -38q95 0 184 82zM260 1151v76l186 207h205l178 -207v-76h-164l-125 96l-124 -96h-156z" />
    <glyph glyph-name="atilde" unicode="&#xe3;" horiz-adv-x="1102" 
d="M995 0h-125q-73 0 -108 22t-49 84q-107 -118 -312 -118q-156 0 -252 84t-96 239q0 165 117 250.5t311 85.5q117 0 215 -24v102q0 75 -46 112t-150 37q-157 0 -279 -83h-84v210q195 91 410 91q227 0 337.5 -82t110.5 -265v-745zM696 258v205q-70 12 -153 12
q-199 0 -199 -147q0 -76 45 -114t123 -38q95 0 184 82zM218 1155v78q17 95 68.5 143.5t133.5 48.5q54 0 127.5 -26.5t93.5 -26.5q51 0 68 55h164v-77q-35 -193 -203 -193q-54 0 -127 28.5t-92 28.5q-56 0 -70 -59h-163z" />
    <glyph glyph-name="adieresis" unicode="&#xe4;" horiz-adv-x="1102" 
d="M995 0h-125q-73 0 -108 22t-49 84q-107 -118 -312 -118q-156 0 -252 84t-96 239q0 165 117 250.5t311 85.5q117 0 215 -24v102q0 75 -46 112t-150 37q-157 0 -279 -83h-84v210q195 91 410 91q227 0 337.5 -82t110.5 -265v-745zM696 258v205q-70 12 -153 12
q-199 0 -199 -147q0 -76 45 -114t123 -38q95 0 184 82zM348 1159q-64 0 -109 43.5t-45 106.5q0 62 45 105.5t109 43.5t109 -43.5t45 -105.5q0 -63 -45 -106.5t-109 -43.5zM741 1159q-64 0 -108.5 43.5t-44.5 106.5q0 62 44.5 105.5t108.5 43.5t109 -43.5t45 -105.5
q0 -63 -45 -106.5t-109 -43.5z" />
    <glyph glyph-name="aring" unicode="&#xe5;" horiz-adv-x="1102" 
d="M995 0h-125q-73 0 -108 22t-49 84q-107 -118 -312 -118q-156 0 -252 84t-96 239q0 165 117 250.5t311 85.5q117 0 215 -24v102q0 75 -46 112t-150 37q-157 0 -279 -83h-84v210q195 91 410 91q227 0 337.5 -82t110.5 -265v-745zM696 258v205q-70 12 -153 12
q-199 0 -199 -147q0 -76 45 -114t123 -38q95 0 184 82zM545 1159q-91 0 -153 56t-62 149t62.5 150t152.5 57t152.5 -57t62.5 -150t-62.5 -149t-152.5 -56zM545 1286q34 0 54.5 21.5t19.5 56.5q1 37 -19.5 58.5t-54.5 21.5t-54 -21.5t-20 -58.5q0 -35 20 -56.5t54 -21.5z" />
    <glyph glyph-name="ae" unicode="&#xe6;" horiz-adv-x="1749" 
d="M547 1092q129 0 211 -25.5t129 -81.5q138 107 327 107q239 0 361.5 -132.5t122.5 -396.5q0 -22 -2 -56t-2 -36h-697q11 -154 80.5 -214t202.5 -60q160 0 285 90h92v-197q-84 -47 -181.5 -75.5t-240.5 -28.5q-284 0 -426 168q-138 -166 -377 -166q-179 0 -279 82.5
t-100 244.5q0 160 121.5 248t325.5 88h196v74q0 75 -46 112t-150 37q-157 0 -279 -83h-84v210q195 91 410 91zM504 176q134 0 229 105q-35 85 -41 190h-153q-195 0 -195 -143q0 -76 43.5 -114t116.5 -38zM1214 903q-87 0 -141.5 -55.5t-71.5 -196.5h402q-4 138 -51 195
t-138 57z" />
    <glyph glyph-name="ccedilla" unicode="&#xe7;" horiz-adv-x="1022" 
d="M457 -156v156q-193 40 -298.5 178.5t-105.5 356.5q0 127 43.5 232.5t120 176t181.5 109.5t227 39q192 0 329 -74v-223h-114q-81 77 -215 77q-121 0 -195 -88t-74 -252q0 -167 70 -248t190 -81q150 0 240 86h102v-205q-148 -98 -348 -98h-12v-35q166 -6 166 -152
q0 -74 -57.5 -115.5t-157.5 -41.5q-89 0 -158 32v123h60q26 -28 73 -28q58 0 58 38q0 37 -72 37h-53z" />
    <glyph glyph-name="egrave" unicode="&#xe8;" horiz-adv-x="1112" 
d="M1057 471h-697q11 -154 80.5 -214t202.5 -60q160 0 285 90h92v-197q-84 -47 -181.5 -75.5t-240.5 -28.5q-261 0 -403 145t-142 401t148 408t377 152q238 0 360.5 -132.5t122.5 -396.5q0 -22 -2 -56t-2 -36zM578 903q-88 0 -143 -56t-70 -196h401q-4 138 -50.5 195
t-137.5 57zM656 1151h-170l-203 197v86h303l70 -220v-63z" />
    <glyph glyph-name="eacute" unicode="&#xe9;" horiz-adv-x="1112" 
d="M1057 471h-697q11 -154 80.5 -214t202.5 -60q160 0 285 90h92v-197q-84 -47 -181.5 -75.5t-240.5 -28.5q-261 0 -403 145t-142 401t148 408t377 152q238 0 360.5 -132.5t122.5 -396.5q0 -22 -2 -56t-2 -36zM578 903q-88 0 -143 -56t-70 -196h401q-4 138 -50.5 195
t-137.5 57zM661 1151h-170v63l70 220h303v-86z" />
    <glyph glyph-name="ecircumflex" unicode="&#xea;" horiz-adv-x="1112" 
d="M1057 471h-697q11 -154 80.5 -214t202.5 -60q160 0 285 90h92v-197q-84 -47 -181.5 -75.5t-240.5 -28.5q-261 0 -403 145t-142 401t148 408t377 152q238 0 360.5 -132.5t122.5 -396.5q0 -22 -2 -56t-2 -36zM578 903q-88 0 -143 -56t-70 -196h401q-4 138 -50.5 195
t-137.5 57zM287 1151v76l186 207h205l178 -207v-76h-164l-125 96l-124 -96h-156z" />
    <glyph glyph-name="edieresis" unicode="&#xeb;" horiz-adv-x="1112" 
d="M1057 471h-697q11 -154 80.5 -214t202.5 -60q160 0 285 90h92v-197q-84 -47 -181.5 -75.5t-240.5 -28.5q-261 0 -403 145t-142 401t148 408t377 152q238 0 360.5 -132.5t122.5 -396.5q0 -22 -2 -56t-2 -36zM578 903q-88 0 -143 -56t-70 -196h401q-4 138 -50.5 195
t-137.5 57zM375 1159q-64 0 -109 43.5t-45 106.5q0 62 45 105.5t109 43.5t109 -43.5t45 -105.5q0 -63 -45 -106.5t-109 -43.5zM768 1159q-64 0 -108.5 43.5t-44.5 106.5q0 62 44.5 105.5t108.5 43.5t109 -43.5t45 -105.5q0 -63 -45 -106.5t-109 -43.5z" />
    <glyph glyph-name="igrave" unicode="&#xec;" horiz-adv-x="530" 
d="M414 0h-299v1075h186q73 0 93 -36t20 -160v-879zM369 1151h-170l-203 197v86h303l70 -220v-63z" />
    <glyph glyph-name="iacute" unicode="&#xed;" horiz-adv-x="530" 
d="M414 0h-299v1075h186q73 0 93 -36t20 -160v-879zM319 1151h-170v63l70 220h303v-86z" />
    <glyph glyph-name="icircumflex" unicode="&#xee;" horiz-adv-x="530" 
d="M414 0h-299v1075h186q73 0 93 -36t20 -160v-879zM-20 1151v76l186 207h205l178 -207v-76h-164l-125 96l-124 -96h-156z" />
    <glyph glyph-name="idieresis" unicode="&#xef;" horiz-adv-x="530" 
d="M414 0h-299v1075h186q73 0 93 -36t20 -160v-879zM68 1159q-64 0 -109 43.5t-45 106.5q0 62 45 105.5t109 43.5t109 -43.5t45 -105.5q0 -63 -45 -106.5t-109 -43.5zM461 1159q-64 0 -108.5 43.5t-44.5 106.5q0 62 44.5 105.5t108.5 43.5t109 -43.5t45 -105.5
q0 -63 -45 -106.5t-109 -43.5z" />
    <glyph glyph-name="ntilde" unicode="&#xf1;" horiz-adv-x="1194" 
d="M113 1075h202q41 0 62.5 -24t30.5 -90q79 58 183.5 94.5t207.5 36.5q63 0 111.5 -13.5t90 -46t64 -93.5t22.5 -148v-791h-299v715q0 78 -30.5 107.5t-102.5 29.5q-104 0 -243 -49v-803h-299v1075zM279 1155v78q35 192 202 192q54 0 127.5 -26.5t93.5 -26.5q51 0 68 55
h164v-77q-35 -193 -203 -193q-54 0 -127 28.5t-92 28.5q-56 0 -70 -59h-163z" />
    <glyph glyph-name="ograve" unicode="&#xf2;" horiz-adv-x="1204" 
d="M602 -14q-114 0 -214 37.5t-174.5 106t-117.5 172.5t-43 230q0 169 74 298t198 195.5t277 66.5t277 -66.5t198 -195.5t74 -298q0 -126 -43 -230t-117.5 -172.5t-174.5 -106t-214 -37.5zM602 199q115 0 180.5 81.5t65.5 249.5q0 171 -66.5 260t-179.5 89t-179.5 -89
t-66.5 -260q0 -167 66 -249t180 -82zM686 1151h-170l-203 197v86h303l70 -220v-63z" />
    <glyph glyph-name="oacute" unicode="&#xf3;" horiz-adv-x="1204" 
d="M602 -14q-114 0 -214 37.5t-174.5 106t-117.5 172.5t-43 230q0 169 74 298t198 195.5t277 66.5t277 -66.5t198 -195.5t74 -298q0 -126 -43 -230t-117.5 -172.5t-174.5 -106t-214 -37.5zM602 199q115 0 180.5 81.5t65.5 249.5q0 171 -66.5 260t-179.5 89t-179.5 -89
t-66.5 -260q0 -167 66 -249t180 -82zM692 1151h-170v63l70 220h303v-86z" />
    <glyph glyph-name="ocircumflex" unicode="&#xf4;" horiz-adv-x="1204" 
d="M602 -14q-114 0 -214 37.5t-174.5 106t-117.5 172.5t-43 230q0 169 74 298t198 195.5t277 66.5t277 -66.5t198 -195.5t74 -298q0 -126 -43 -230t-117.5 -172.5t-174.5 -106t-214 -37.5zM602 199q115 0 180.5 81.5t65.5 249.5q0 171 -66.5 260t-179.5 89t-179.5 -89
t-66.5 -260q0 -167 66 -249t180 -82zM318 1151v76l186 207h205l178 -207v-76h-164l-125 96l-124 -96h-156z" />
    <glyph glyph-name="otilde" unicode="&#xf5;" horiz-adv-x="1204" 
d="M602 -14q-114 0 -214 37.5t-174.5 106t-117.5 172.5t-43 230q0 169 74 298t198 195.5t277 66.5t277 -66.5t198 -195.5t74 -298q0 -126 -43 -230t-117.5 -172.5t-174.5 -106t-214 -37.5zM602 199q115 0 180.5 81.5t65.5 249.5q0 171 -66.5 260t-179.5 89t-179.5 -89
t-66.5 -260q0 -167 66 -249t180 -82zM275 1155v78q35 192 202 192q54 0 127.5 -26.5t93.5 -26.5q51 0 68 55h164v-77q-35 -193 -203 -193q-54 0 -127 28.5t-92 28.5q-56 0 -70 -59h-163z" />
    <glyph glyph-name="odieresis" unicode="&#xf6;" horiz-adv-x="1204" 
d="M602 -14q-114 0 -214 37.5t-174.5 106t-117.5 172.5t-43 230q0 169 74 298t198 195.5t277 66.5t277 -66.5t198 -195.5t74 -298q0 -126 -43 -230t-117.5 -172.5t-174.5 -106t-214 -37.5zM602 199q115 0 180.5 81.5t65.5 249.5q0 171 -66.5 260t-179.5 89t-179.5 -89
t-66.5 -260q0 -167 66 -249t180 -82zM406 1159q-64 0 -109 43.5t-45 106.5q0 62 45 105.5t109 43.5t109 -43.5t45 -105.5q0 -63 -45 -106.5t-109 -43.5zM799 1159q-64 0 -108.5 43.5t-44.5 106.5q0 62 44.5 105.5t108.5 43.5t109 -43.5t45 -105.5q0 -63 -45 -106.5
t-109 -43.5z" />
    <glyph glyph-name="divide" unicode="&#xf7;" horiz-adv-x="1083" 
d="M1030 590h-977v235h977v-235zM543 909q-71 0 -119.5 47.5t-48.5 116.5t49 117.5t119 48.5q69 0 118.5 -48.5t49.5 -117.5t-49.5 -116.5t-118.5 -47.5zM543 176q-71 0 -119.5 47.5t-48.5 116.5t49 117.5t119 48.5q69 0 118.5 -48.5t49.5 -117.5t-49.5 -116.5t-118.5 -47.5
z" />
    <glyph glyph-name="ugrave" unicode="&#xf9;" horiz-adv-x="1219" 
d="M569 209q94 0 226 53v813h299v-1075h-203q-40 0 -61 20t-29 80q-77 -53 -174.5 -83.5t-194.5 -30.5q-313 0 -313 290v799h299v-723q0 -82 37.5 -112.5t113.5 -30.5zM692 1151h-170l-203 197v86h303l70 -220v-63z" />
    <glyph glyph-name="uacute" unicode="&#xfa;" horiz-adv-x="1219" 
d="M569 209q94 0 226 53v813h299v-1075h-203q-40 0 -61 20t-29 80q-77 -53 -174.5 -83.5t-194.5 -30.5q-313 0 -313 290v799h299v-723q0 -82 37.5 -112.5t113.5 -30.5zM698 1151h-170v63l70 220h303v-86z" />
    <glyph glyph-name="ucircumflex" unicode="&#xfb;" horiz-adv-x="1219" 
d="M569 209q94 0 226 53v813h299v-1075h-203q-40 0 -61 20t-29 80q-77 -53 -174.5 -83.5t-194.5 -30.5q-313 0 -313 290v799h299v-723q0 -82 37.5 -112.5t113.5 -30.5zM324 1151v76l186 207h205l178 -207v-76h-164l-125 96l-124 -96h-156z" />
    <glyph glyph-name="udieresis" unicode="&#xfc;" horiz-adv-x="1219" 
d="M569 209q94 0 226 53v813h299v-1075h-203q-40 0 -61 20t-29 80q-77 -53 -174.5 -83.5t-194.5 -30.5q-313 0 -313 290v799h299v-723q0 -82 37.5 -112.5t113.5 -30.5zM412 1159q-64 0 -109 43.5t-45 106.5q0 62 45 105.5t109 43.5t109 -43.5t45 -105.5q0 -63 -45 -106.5
t-109 -43.5zM805 1159q-64 0 -108.5 43.5t-44.5 106.5q0 62 44.5 105.5t108.5 43.5t109 -43.5t45 -105.5q0 -63 -45 -106.5t-109 -43.5z" />
    <glyph glyph-name="yacute" unicode="&#xfd;" horiz-adv-x="1124" 
d="M297 -332v80l145 305l-403 944v78h280l265 -663h4l243 663h256v-78l-534 -1329h-256zM675 1151h-170v63l70 220h303v-86z" />
    <glyph glyph-name="ydieresis" unicode="&#xff;" horiz-adv-x="1124" 
d="M297 -332v80l145 305l-403 944v78h280l265 -663h4l243 663h256v-78l-534 -1329h-256zM389 1159q-64 0 -109 43.5t-45 106.5q0 62 45 105.5t109 43.5t109 -43.5t45 -105.5q0 -63 -45 -106.5t-109 -43.5zM782 1159q-64 0 -108.5 43.5t-44.5 106.5q0 62 44.5 105.5
t108.5 43.5t109 -43.5t45 -105.5q0 -63 -45 -106.5t-109 -43.5z" />
    <glyph glyph-name="Amacron" unicode="&#x100;" horiz-adv-x="1370" 
d="M45 0v84l475 1350h330l477 -1350v-84h-309l-119 365h-483l-115 -365h-256zM651 1112l-168 -528h344l-172 528h-4zM950 1704v-201h-549v201h549z" />
    <glyph glyph-name="amacron" unicode="&#x101;" horiz-adv-x="1102" 
d="M995 0h-125q-73 0 -108 22t-49 84q-107 -118 -312 -118q-156 0 -252 84t-96 239q0 165 117 250.5t311 85.5q117 0 215 -24v102q0 75 -46 112t-150 37q-157 0 -279 -83h-84v210q195 91 410 91q227 0 337.5 -82t110.5 -265v-745zM696 258v205q-70 12 -153 12
q-199 0 -199 -147q0 -76 45 -114t123 -38q95 0 184 82zM811 1397v-201h-533v201h533z" />
    <glyph glyph-name="Abreve" unicode="&#x102;" horiz-adv-x="1370" 
d="M45 0v84l475 1350h330l477 -1350v-84h-309l-119 365h-483l-115 -365h-256zM651 1112l-168 -528h344l-172 528h-4zM678 1481q-114 0 -187 56t-90 132v76h189q3 -29 25 -48.5t63 -19.5q74 0 88 68h188v-76q-17 -76 -89.5 -132t-186.5 -56z" />
    <glyph glyph-name="abreve" unicode="&#x103;" horiz-adv-x="1102" 
d="M995 0h-125q-73 0 -108 22t-49 84q-107 -118 -312 -118q-156 0 -252 84t-96 239q0 165 117 250.5t311 85.5q117 0 215 -24v102q0 75 -46 112t-150 37q-157 0 -279 -83h-84v210q195 91 410 91q227 0 337.5 -82t110.5 -265v-745zM696 258v205q-70 12 -153 12
q-199 0 -199 -147q0 -76 45 -114t123 -38q95 0 184 82zM545 1153q-115 0 -187.5 60t-89.5 145v76h189q7 -86 88 -86q76 0 88 86h188v-76q-17 -85 -89.5 -145t-186.5 -60z" />
    <glyph glyph-name="Aogonek" unicode="&#x104;" horiz-adv-x="1370" 
d="M45 0v84l475 1350h330l477 -1350v-84h-45q-41 -34 -57.5 -56.5t-16.5 -54.5q0 -55 80 -55h41v-137q-65 -35 -149 -35q-93 0 -145 41t-52 115q0 61 36 106t85 76h-86l-119 365h-483l-115 -365h-256zM651 1112l-168 -528h344l-172 528h-4z" />
    <glyph glyph-name="aogonek" unicode="&#x105;" horiz-adv-x="1102" 
d="M995 0h-45q-40 -33 -56.5 -55.5t-16.5 -55.5q0 -55 79 -55h41v-137q-62 -35 -149 -35q-93 0 -145 41t-52 115q0 57 37.5 107.5t99.5 82.5q-56 20 -75 98q-58 -63 -133.5 -90.5t-178.5 -27.5q-155 0 -251.5 84.5t-96.5 238.5q0 164 117.5 250t310.5 86q117 0 215 -24v102
q0 76 -45.5 112.5t-150.5 36.5q-156 0 -279 -83h-84v210q77 34 176 63q96 28 234 28q223 0 336 -80q112 -79 112 -267v-745zM696 258v205q-70 12 -153 12q-199 0 -199 -147q0 -76 45 -114t123 -38q99 0 184 82z" />
    <glyph glyph-name="Cacute" unicode="&#x106;" horiz-adv-x="1260" 
d="M745 -16q-312 0 -498 194t-186 535q0 169 52.5 308t146 233t224.5 145t286 51q138 0 230.5 -23.5t187.5 -70.5v-240h-115q-108 103 -295 103q-188 0 -288.5 -127.5t-100.5 -366.5q0 -260 92.5 -386t278.5 -126q118 0 196.5 37t147.5 106h100v-235q-178 -137 -459 -137z
M796 1479h-170v63l70 199h303v-86z" />
    <glyph glyph-name="cacute" unicode="&#x107;" horiz-adv-x="1022" 
d="M610 -14q-262 0 -409.5 145.5t-147.5 403.5q0 127 43.5 232.5t120 176t181.5 109.5t227 39q192 0 329 -74v-223h-114q-81 77 -215 77q-121 0 -195 -88t-74 -252q0 -167 70 -248t190 -81q150 0 240 86h102v-205q-148 -98 -348 -98zM665 1151h-170v63l70 220h303v-86z" />
    <glyph glyph-name="Ccircumflex" unicode="&#x108;" horiz-adv-x="1260" 
d="M745 -16q-312 0 -498 194t-186 535q0 169 52.5 308t146 233t224.5 145t286 51q138 0 230.5 -23.5t187.5 -70.5v-240h-115q-108 103 -295 103q-188 0 -288.5 -127.5t-100.5 -366.5q0 -260 92.5 -386t278.5 -126q118 0 196.5 37t147.5 106h100v-235q-178 -137 -459 -137z
M436 1479v75l186 195h205l178 -195v-75h-164l-125 84l-124 -84h-156z" />
    <glyph glyph-name="ccircumflex" unicode="&#x109;" horiz-adv-x="1022" 
d="M610 -14q-262 0 -409.5 145.5t-147.5 403.5q0 127 43.5 232.5t120 176t181.5 109.5t227 39q192 0 329 -74v-223h-114q-81 77 -215 77q-121 0 -195 -88t-74 -252q0 -167 70 -248t190 -81q150 0 240 86h102v-205q-148 -98 -348 -98zM291 1151v76l186 207h205l178 -207v-76
h-164l-125 96l-124 -96h-156z" />
    <glyph glyph-name="Cdotaccent" unicode="&#x10a;" horiz-adv-x="1260" 
d="M745 -16q-312 0 -498 194t-186 535q0 169 52.5 308t146 233t224.5 145t286 51q138 0 230.5 -23.5t187.5 -70.5v-240h-115q-108 103 -295 103q-188 0 -288.5 -127.5t-100.5 -366.5q0 -260 92.5 -386t278.5 -126q118 0 196.5 37t147.5 106h100v-235q-178 -137 -459 -137z
M721 1481q-68 0 -115 46t-47 112t47 113t115 47q67 0 114 -47t47 -113t-47 -112t-114 -46z" />
    <glyph glyph-name="cdotaccent" unicode="&#x10b;" horiz-adv-x="1022" 
d="M610 -14q-262 0 -409.5 145.5t-147.5 403.5q0 127 43.5 232.5t120 176t181.5 109.5t227 39q192 0 329 -74v-223h-114q-81 77 -215 77q-121 0 -195 -88t-74 -252q0 -167 70 -248t190 -81q150 0 240 86h102v-205q-148 -98 -348 -98zM576 1159q-68 0 -115 46t-47 112t47 113
t115 47q67 0 114 -47t47 -113t-47 -112t-114 -46z" />
    <glyph glyph-name="Ccaron" unicode="&#x10c;" horiz-adv-x="1260" 
d="M745 -16q-312 0 -498 194t-186 535q0 169 52.5 308t146 233t224.5 145t286 51q138 0 230.5 -23.5t187.5 -70.5v-240h-115q-108 103 -295 103q-188 0 -288.5 -127.5t-100.5 -366.5q0 -260 92.5 -386t278.5 -126q118 0 196.5 37t147.5 106h100v-235q-178 -137 -459 -137z
M1005 1749v-76l-186 -194h-205l-178 194v76h164l125 -84l125 84h155z" />
    <glyph glyph-name="ccaron" unicode="&#x10d;" horiz-adv-x="1022" 
d="M610 -14q-262 0 -409.5 145.5t-147.5 403.5q0 127 43.5 232.5t120 176t181.5 109.5t227 39q192 0 329 -74v-223h-114q-81 77 -215 77q-121 0 -195 -88t-74 -252q0 -167 70 -248t190 -81q150 0 240 86h102v-205q-148 -98 -348 -98zM860 1434v-76l-186 -207h-205l-178 207
v76h164l125 -97l125 97h155z" />
    <glyph glyph-name="Emacron" unicode="&#x112;" horiz-adv-x="1161" 
d="M127 0v1434h944v-232h-629v-364h451v-220h-451v-393h652v-225h-967zM901 1704v-201h-549v201h549z" />
    <glyph glyph-name="emacron" unicode="&#x113;" horiz-adv-x="1112" 
d="M1057 471h-697q11 -154 80.5 -214t202.5 -60q160 0 285 90h92v-197q-84 -47 -181.5 -75.5t-240.5 -28.5q-261 0 -403 145t-142 401t148 408t377 152q238 0 360.5 -132.5t122.5 -396.5q0 -22 -2 -56t-2 -36zM578 903q-88 0 -143 -56t-70 -196h401q-4 138 -50.5 195
t-137.5 57zM838 1397v-201h-533v201h533z" />
    <glyph glyph-name="Ebreve" unicode="&#x114;" horiz-adv-x="1161" 
d="M127 0v1434h944v-232h-629v-364h451v-220h-451v-393h652v-225h-967zM627 1481q-114 0 -187 56t-90 132v76h189q3 -29 25 -48.5t63 -19.5q74 0 88 68h188v-76q-17 -76 -89.5 -132t-186.5 -56z" />
    <glyph glyph-name="ebreve" unicode="&#x115;" horiz-adv-x="1112" 
d="M1057 471h-697q11 -154 80.5 -214t202.5 -60q160 0 285 90h92v-197q-84 -47 -181.5 -75.5t-240.5 -28.5q-261 0 -403 145t-142 401t148 408t377 152q238 0 360.5 -132.5t122.5 -396.5q0 -22 -2 -56t-2 -36zM578 903q-88 0 -143 -56t-70 -196h401q-4 138 -50.5 195
t-137.5 57zM572 1153q-115 0 -187.5 60t-89.5 145v76h189q7 -86 88 -86q76 0 88 86h188v-76q-17 -85 -89.5 -145t-186.5 -60z" />
    <glyph glyph-name="Edotaccent" unicode="&#x116;" horiz-adv-x="1161" 
d="M127 0v1434h944v-232h-629v-364h451v-220h-451v-393h652v-225h-967zM627 1481q-68 0 -115 46t-47 112t47 113t115 47q67 0 114 -47t47 -113t-47 -112t-114 -46z" />
    <glyph glyph-name="edotaccent" unicode="&#x117;" horiz-adv-x="1112" 
d="M1057 471h-697q11 -154 80.5 -214t202.5 -60q160 0 285 90h92v-197q-84 -47 -181.5 -75.5t-240.5 -28.5q-261 0 -403 145t-142 401t148 408t377 152q238 0 360.5 -132.5t122.5 -396.5q0 -22 -2 -56t-2 -36zM578 903q-88 0 -143 -56t-70 -196h401q-4 138 -50.5 195
t-137.5 57zM572 1159q-68 0 -115 46t-47 112t47 113t115 47q67 0 114 -47t47 -113t-47 -112t-114 -46z" />
    <glyph glyph-name="Eogonek" unicode="&#x118;" horiz-adv-x="1161" 
d="M127 0v1434h944v-232h-629v-364h451v-220h-451v-393h652v-225h-95q-28 -24 -40.5 -36.5t-22.5 -32.5t-10 -42q0 -27 17.5 -41t62.5 -14h41v-137q-65 -35 -150 -35q-93 0 -145 41t-52 115q0 61 36 106t85 76h-694z" />
    <glyph glyph-name="eogonek" unicode="&#x119;" horiz-adv-x="1112" 
d="M889 2q-72 -58 -72 -113t80 -55h41v-137q-65 -35 -150 -35q-93 0 -144.5 41t-51.5 115q0 104 115 174q-37 -6 -109 -6q-264 0 -404 147q-141 145 -141 399q0 255 148 407.5t377 152.5q483 0 483 -529q0 -22 -2 -56t-2 -36h-697q14 -154 82 -214t201 -60q160 0 285 90h92
v-197q-13 -9 -63 -40.5t-68 -47.5zM578 903q-87 0 -142.5 -56t-70.5 -196h401q-5 145 -52 198q-48 54 -136 54z" />
    <glyph glyph-name="Ecaron" unicode="&#x11a;" horiz-adv-x="1161" 
d="M127 0v1434h944v-232h-629v-364h451v-220h-451v-393h652v-225h-967zM911 1749v-76l-186 -194h-205l-178 194v76h164l125 -84l125 84h155z" />
    <glyph glyph-name="ecaron" unicode="&#x11b;" horiz-adv-x="1112" 
d="M1057 471h-697q11 -154 80.5 -214t202.5 -60q160 0 285 90h92v-197q-84 -47 -181.5 -75.5t-240.5 -28.5q-261 0 -403 145t-142 401t148 408t377 152q238 0 360.5 -132.5t122.5 -396.5q0 -22 -2 -56t-2 -36zM578 903q-88 0 -143 -56t-70 -196h401q-4 138 -50.5 195
t-137.5 57zM856 1434v-76l-186 -207h-205l-178 207v76h164l125 -97l125 97h155z" />
    <glyph glyph-name="Gcircumflex" unicode="&#x11c;" horiz-adv-x="1364" 
d="M739 -16q-322 0 -501 189.5t-179 539.5t189.5 543.5t527.5 193.5q128 0 219 -19.5t195 -64.5v-252h-107q-65 50 -129 75t-172 25q-192 0 -289.5 -116t-97.5 -373q0 -265 85 -393.5t259 -128.5q116 0 199 26v312h-197v207h510v-656q-207 -108 -512 -108zM436 1479v75
l186 195h205l178 -195v-75h-164l-125 84l-124 -84h-156z" />
    <glyph glyph-name="gcircumflex" unicode="&#x11d;" horiz-adv-x="1210" 
d="M1098 1075v-1018q0 -197 -143.5 -301t-409.5 -104t-432 88v215h90q129 -90 305 -90q147 0 219 51t72 160v67q-123 -104 -297 -104q-92 0 -170 29.5t-140 88t-97.5 156t-35.5 224.5q0 116 26 210.5t70 157.5t105 106t128.5 62t141.5 19q180 0 297 -107q39 90 123 90h148z
M588 248q105 0 211 76v477q-43 32 -86.5 46.5t-106.5 14.5q-50 0 -91 -14t-77 -46t-56 -93t-20 -146q0 -175 53 -245t173 -70zM309 1151v76l186 207h205l178 -207v-76h-164l-125 96l-124 -96h-156z" />
    <glyph glyph-name="Gbreve" unicode="&#x11e;" horiz-adv-x="1364" 
d="M739 -16q-322 0 -501 189.5t-179 539.5t189.5 543.5t527.5 193.5q128 0 219 -19.5t195 -64.5v-252h-107q-65 50 -129 75t-172 25q-192 0 -289.5 -116t-97.5 -373q0 -265 85 -393.5t259 -128.5q116 0 199 26v312h-197v207h510v-656q-207 -108 -512 -108zM721 1481
q-114 0 -187 56t-90 132v76h189q3 -29 25 -48.5t63 -19.5q74 0 88 68h188v-76q-17 -76 -89.5 -132t-186.5 -56z" />
    <glyph glyph-name="gbreve" unicode="&#x11f;" horiz-adv-x="1210" 
d="M1098 1075v-1018q0 -197 -143.5 -301t-409.5 -104t-432 88v215h90q129 -90 305 -90q147 0 219 51t72 160v67q-123 -104 -297 -104q-92 0 -170 29.5t-140 88t-97.5 156t-35.5 224.5q0 116 26 210.5t70 157.5t105 106t128.5 62t141.5 19q180 0 297 -107q39 90 123 90h148z
M588 248q105 0 211 76v477q-43 32 -86.5 46.5t-106.5 14.5q-50 0 -91 -14t-77 -46t-56 -93t-20 -146q0 -175 53 -245t173 -70zM594 1153q-115 0 -187.5 60t-89.5 145v76h189q7 -86 88 -86q76 0 88 86h188v-76q-17 -85 -89.5 -145t-186.5 -60z" />
    <glyph glyph-name="Gdotaccent" unicode="&#x120;" horiz-adv-x="1364" 
d="M739 -16q-322 0 -501 189.5t-179 539.5t189.5 543.5t527.5 193.5q128 0 219 -19.5t195 -64.5v-252h-107q-65 50 -129 75t-172 25q-192 0 -289.5 -116t-97.5 -373q0 -265 85 -393.5t259 -128.5q116 0 199 26v312h-197v207h510v-656q-207 -108 -512 -108zM721 1481
q-68 0 -115 46t-47 112t47 113t115 47q67 0 114 -47t47 -113t-47 -112t-114 -46z" />
    <glyph glyph-name="gdotaccent" unicode="&#x121;" horiz-adv-x="1210" 
d="M1098 1075v-1018q0 -197 -143.5 -301t-409.5 -104t-432 88v215h90q129 -90 305 -90q147 0 219 51t72 160v67q-123 -104 -297 -104q-92 0 -170 29.5t-140 88t-97.5 156t-35.5 224.5q0 116 26 210.5t70 157.5t105 106t128.5 62t141.5 19q180 0 297 -107q39 90 123 90h148z
M588 248q105 0 211 76v477q-43 32 -86.5 46.5t-106.5 14.5q-50 0 -91 -14t-77 -46t-56 -93t-20 -146q0 -175 53 -245t173 -70zM594 1159q-68 0 -115 46t-47 112t47 113t115 47q67 0 114 -47t47 -113t-47 -112t-114 -46z" />
    <glyph glyph-name="uni0122" unicode="&#x122;" horiz-adv-x="1364" 
d="M739 -16q-322 0 -501 189.5t-179 539.5t189.5 543.5t527.5 193.5q128 0 219 -19.5t195 -64.5v-252h-107q-65 50 -129 75t-172 25q-192 0 -289.5 -116t-97.5 -373q0 -265 85 -393.5t259 -128.5q116 0 199 26v312h-197v207h510v-656q-207 -108 -512 -108zM590 -453v119
q46 4 68 18.5t22 34.5q0 9 -4.5 16t-9.5 10t-15.5 8.5t-15.5 8.5q-24 18 -33.5 38t-9.5 55q0 47 34.5 77.5t87.5 30.5q56 0 97 -36t41 -113q0 -246 -262 -267z" />
    <glyph glyph-name="uni0123" unicode="&#x123;" horiz-adv-x="1210" 
d="M1098 1075v-1018q0 -197 -143.5 -301t-409.5 -104t-432 88v215h90q129 -90 305 -90q147 0 219 51t72 160v67q-123 -104 -297 -104q-92 0 -170 29.5t-140 88t-97.5 156t-35.5 224.5q0 116 26 210.5t70 157.5t105 106t128.5 62t141.5 19q180 0 297 -107q39 90 123 90h148z
M588 248q105 0 211 76v477q-43 32 -86.5 46.5t-106.5 14.5q-50 0 -91 -14t-77 -46t-56 -93t-20 -146q0 -175 53 -245t173 -70zM725 1587v-119q-90 -7 -90 -53q0 -7 2 -12.5t7.5 -9.5t9.5 -6.5t13 -7.5t13 -7q43 -31 43 -92q0 -46 -35 -78q-34 -31 -88 -31q-56 0 -96 36
q-41 36 -41 114q0 247 262 266z" />
    <glyph glyph-name="Hcircumflex" unicode="&#x124;" horiz-adv-x="1419" 
d="M446 0h-319v1434h319v-590h527v590h319v-1434h-319v621h-527v-621zM424 1479v75l186 195h205l178 -195v-75h-164l-125 84l-124 -84h-156z" />
    <glyph glyph-name="hcircumflex" unicode="&#x125;" horiz-adv-x="1194" 
d="M412 1266v-303q78 57 181.5 93t205.5 36q63 0 111.5 -13.5t90 -46t64 -93.5t22.5 -148v-791h-299v715q0 78 -30.5 107.5t-102.5 29.5q-104 0 -243 -49v-803h-299v1434h182q74 0 95.5 -30.5t21.5 -137.5zM320 1479v76l186 207h205l178 -207v-76h-164l-125 96l-124 -96
h-156z" />
    <glyph glyph-name="Itilde" unicode="&#x128;" horiz-adv-x="588" 
d="M455 0h-322v1434h322v-1434zM-32 1479v78q35 192 202 192q54 0 127.5 -26.5t93.5 -26.5q51 0 68 55h164v-77q-35 -193 -203 -193q-54 0 -127 28.5t-92 28.5q-56 0 -70 -59h-163z" />
    <glyph glyph-name="itilde" unicode="&#x129;" horiz-adv-x="530" 
d="M414 0h-299v1075h186q73 0 93 -36t20 -160v-879zM-61 1155v78q17 95 68.5 143.5t133.5 48.5q54 0 127.5 -26.5t93.5 -26.5q51 0 68 55h164v-77q-35 -193 -203 -193q-54 0 -127 28.5t-92 28.5q-56 0 -70 -59h-163z" />
    <glyph glyph-name="Imacron" unicode="&#x12a;" horiz-adv-x="588" 
d="M455 0h-322v1434h322v-1434zM567 1704v-201h-549v201h549z" />
    <glyph glyph-name="imacron" unicode="&#x12b;" horiz-adv-x="530" 
d="M414 0h-299v1075h186q73 0 93 -36t20 -160v-879zM510 1397v-201h-492v201h492z" />
    <glyph glyph-name="Ibreve" unicode="&#x12c;" horiz-adv-x="588" 
d="M455 0h-322v1434h322v-1434zM295 1481q-114 0 -187 56t-90 132v76h189q3 -29 25 -48.5t63 -19.5q74 0 88 68h188v-76q-17 -76 -89.5 -132t-186.5 -56z" />
    <glyph glyph-name="ibreve" unicode="&#x12d;" horiz-adv-x="530" 
d="M414 0h-299v1075h186q73 0 93 -36t20 -160v-879zM265 1153q-115 0 -187.5 60t-89.5 145v76h189q7 -86 88 -86q76 0 88 86h188v-76q-17 -85 -89.5 -145t-186.5 -60z" />
    <glyph glyph-name="Iogonek" unicode="&#x12e;" horiz-adv-x="588" 
d="M455 0h-35q-41 -34 -57.5 -56.5t-16.5 -54.5q0 -55 80 -55h41v-137q-65 -35 -150 -35q-93 0 -144.5 41t-51.5 115q0 61 36 106t85 76h-109v1434h322v-1434z" />
    <glyph glyph-name="iogonek" unicode="&#x12f;" horiz-adv-x="530" 
d="M414 0h-31q-41 -34 -57.5 -56.5t-16.5 -54.5q0 -55 80 -55h41v-137q-65 -35 -149 -35q-93 0 -145 41t-52 115q0 61 36 106t85 76h-90v1075h186q73 0 93 -36t20 -160v-879zM266 1159q-68 0 -115 46q-49 46 -49 112q0 65 49 113q49 47 115 47q68 0 115 -47q47 -49 47 -113
q0 -65 -47 -112q-46 -46 -115 -46z" />
    <glyph glyph-name="Idotaccent" unicode="&#x130;" horiz-adv-x="588" 
d="M455 0h-322v1434h322v-1434zM293 1481q-68 0 -115 46t-47 112t47 113t115 47q67 0 114 -47t47 -113t-47 -112t-114 -46z" />
    <glyph glyph-name="dotlessi" unicode="&#x131;" horiz-adv-x="530" 
d="M414 0h-299v1075h186q73 0 93 -36t20 -160v-879z" />
    <glyph glyph-name="uni0136" unicode="&#x136;" horiz-adv-x="1368" 
d="M127 0v1434h319v-629l547 629h262v-86l-436 -486l484 -776v-86h-308l-391 631l-158 -176v-455h-319zM566 -334q50 5 70 19q20 17 20 34q0 18 -14 26q-20 10 -31 17q-22 16 -33 37q-10 20 -10 56q0 47 34.5 77.5t87.5 30.5q56 0 97 -36t41 -113q0 -246 -262 -267v119z" />
    <glyph glyph-name="uni0137" unicode="&#x137;" horiz-adv-x="1128" 
d="M412 1266v-623l383 432h245v-78l-317 -344l360 -571v-82h-276l-285 453l-110 -115v-338h-299v1434h182q74 0 95.5 -30.5t21.5 -137.5zM467 -453v119q46 4 68 18.5t22 34.5q0 9 -4.5 16t-9.5 10t-15.5 8.5t-15.5 8.5q-24 18 -33.5 38t-9.5 55q0 47 34.5 77.5t87.5 30.5
q57 0 97 -36q41 -36 41 -113q0 -246 -262 -267z" />
    <glyph glyph-name="Lacute" unicode="&#x139;" horiz-adv-x="1100" 
d="M1038 0h-911v1434h319v-1209h592v-225zM362 1479h-170v63l70 199h303v-86z" />
    <glyph glyph-name="lacute" unicode="&#x13a;" horiz-adv-x="532" 
d="M416 0h-299v1434h182q75 0 96 -30t21 -138v-1266zM337 1479h-170v63l70 220h303v-86z" />
    <glyph glyph-name="uni013B" unicode="&#x13b;" horiz-adv-x="1100" 
d="M1038 0h-911v1434h319v-1209h592v-225zM476 -453v119q46 4 68 18.5t22 34.5q0 9 -4.5 16t-9.5 10t-15.5 8.5t-15.5 8.5q-24 18 -33.5 38t-9.5 55q0 47 34.5 77.5t87.5 30.5q56 0 97 -36t41 -113q0 -246 -262 -267z" />
    <glyph glyph-name="uni013C" unicode="&#x13c;" horiz-adv-x="532" 
d="M416 0h-299v1434h182q75 0 96 -30t21 -138v-1266zM136 -453v119q46 4 68 18.5t22 34.5q0 9 -4.5 16t-9.5 10t-15.5 8.5t-15.5 8.5q-24 18 -33.5 38t-9.5 55q0 47 34.5 77.5t87.5 30.5q56 0 97 -36t41 -113q0 -246 -262 -267z" />
    <glyph glyph-name="Nacute" unicode="&#x143;" horiz-adv-x="1419" 
d="M127 0v1434h362l529 -920h6v920h268v-1434h-291l-602 1047h-6v-1047h-266zM817 1479h-170v63l70 199h303v-86z" />
    <glyph glyph-name="nacute" unicode="&#x144;" horiz-adv-x="1194" 
d="M113 1075h202q41 0 62.5 -24t30.5 -90q79 58 183.5 94.5t207.5 36.5q63 0 111.5 -13.5t90 -46t64 -93.5t22.5 -148v-791h-299v715q0 78 -30.5 107.5t-102.5 29.5q-104 0 -243 -49v-803h-299v1075zM696 1151h-170v63l70 220h303v-86z" />
    <glyph glyph-name="uni0145" unicode="&#x145;" horiz-adv-x="1419" 
d="M127 0v1434h362l529 -920h6v920h268v-1434h-291l-602 1047h-6v-1047h-266zM566 -453v119q46 4 68 18.5t22 34.5q0 9 -4.5 16t-9.5 10t-15.5 8.5t-15.5 8.5q-24 18 -33.5 38t-9.5 55q0 47 34.5 77.5t87.5 30.5q56 0 97 -36t41 -113q0 -246 -262 -267z" />
    <glyph glyph-name="uni0146" unicode="&#x146;" horiz-adv-x="1194" 
d="M113 1075h202q41 0 62.5 -24t30.5 -90q79 58 183.5 94.5t207.5 36.5q63 0 111.5 -13.5t90 -46t64 -93.5t22.5 -148v-791h-299v715q0 78 -30.5 107.5t-102.5 29.5q-104 0 -243 -49v-803h-299v1075zM476 -453v119q46 4 68 18.5t22 34.5q0 9 -4.5 16t-9.5 10t-15.5 8.5
t-15.5 8.5q-24 18 -33.5 38t-9.5 55q0 47 34.5 77.5t87.5 30.5q56 0 97 -36t41 -113q0 -246 -262 -267z" />
    <glyph glyph-name="Ncaron" unicode="&#x147;" horiz-adv-x="1419" 
d="M127 0v1434h362l529 -920h6v920h268v-1434h-291l-602 1047h-6v-1047h-266zM1026 1749v-76l-186 -194h-205l-178 194v76h164l125 -84l125 84h155z" />
    <glyph glyph-name="ncaron" unicode="&#x148;" horiz-adv-x="1194" 
d="M113 1075h202q41 0 62.5 -24t30.5 -90q79 58 183.5 94.5t207.5 36.5q63 0 111.5 -13.5t90 -46t64 -93.5t22.5 -148v-791h-299v715q0 78 -30.5 107.5t-102.5 29.5q-104 0 -243 -49v-803h-299v1075zM891 1434v-76l-186 -207h-205l-178 207v76h164l125 -97l125 97h155z" />
    <glyph glyph-name="Omacron" unicode="&#x14c;" horiz-adv-x="1495" 
d="M748 -16q-139 0 -263 49t-219 139.5t-151 231.5t-56 313t56 313t151 231.5t219 139.5t263 49q138 0 262 -49t219 -139.5t151 -231.5t56 -313t-56 -313t-151 -231.5t-219 -139.5t-262 -49zM748 205q164 0 262 126t98 380t-98.5 384t-261.5 130q-166 0 -263.5 -129.5
t-97.5 -384.5q0 -254 97.5 -380t263.5 -126zM1022 1704v-201h-549v201h549z" />
    <glyph glyph-name="omacron" unicode="&#x14d;" horiz-adv-x="1204" 
d="M602 -14q-114 0 -214 37.5t-174.5 106t-117.5 172.5t-43 230q0 169 74 298t198 195.5t277 66.5t277 -66.5t198 -195.5t74 -298q0 -126 -43 -230t-117.5 -172.5t-174.5 -106t-214 -37.5zM602 199q115 0 180.5 81.5t65.5 249.5q0 171 -66.5 260t-179.5 89t-179.5 -89
t-66.5 -260q0 -167 66 -249t180 -82zM869 1397v-201h-533v201h533z" />
    <glyph glyph-name="Obreve" unicode="&#x14e;" horiz-adv-x="1495" 
d="M748 -16q-139 0 -263 49t-219 139.5t-151 231.5t-56 313t56 313t151 231.5t219 139.5t263 49q138 0 262 -49t219 -139.5t151 -231.5t56 -313t-56 -313t-151 -231.5t-219 -139.5t-262 -49zM748 205q164 0 262 126t98 380t-98.5 384t-261.5 130q-166 0 -263.5 -129.5
t-97.5 -384.5q0 -254 97.5 -380t263.5 -126zM748 1481q-114 0 -187 56t-90 132v76h189q3 -29 25 -48.5t63 -19.5q74 0 88 68h188v-76q-17 -76 -89.5 -132t-186.5 -56z" />
    <glyph glyph-name="obreve" unicode="&#x14f;" horiz-adv-x="1204" 
d="M602 -14q-114 0 -214 37.5t-174.5 106t-117.5 172.5t-43 230q0 169 74 298t198 195.5t277 66.5t277 -66.5t198 -195.5t74 -298q0 -126 -43 -230t-117.5 -172.5t-174.5 -106t-214 -37.5zM602 199q115 0 180.5 81.5t65.5 249.5q0 171 -66.5 260t-179.5 89t-179.5 -89
t-66.5 -260q0 -167 66 -249t180 -82zM603 1153q-115 0 -187.5 60t-89.5 145v76h189q7 -86 88 -86q76 0 88 86h188v-76q-17 -85 -89.5 -145t-186.5 -60z" />
    <glyph glyph-name="Ohungarumlaut" unicode="&#x150;" horiz-adv-x="1495" 
d="M748 -16q-139 0 -263 49t-219 139.5t-151 231.5t-56 313t56 313t151 231.5t219 139.5t263 49q138 0 262 -49t219 -139.5t151 -231.5t56 -313t-56 -313t-151 -231.5t-219 -139.5t-262 -49zM748 205q164 0 262 126t98 380t-98.5 384t-261.5 130q-166 0 -263.5 -129.5
t-97.5 -384.5q0 -254 97.5 -380t263.5 -126zM492 1479v57l61 205h246v-86l-146 -176h-161zM825 1479v57l62 205h246v-86l-146 -176h-162z" />
    <glyph glyph-name="ohungarumlaut" unicode="&#x151;" horiz-adv-x="1204" 
d="M602 -14q-114 0 -214 37.5t-174.5 106t-117.5 172.5t-43 230q0 169 74 298t198 195.5t277 66.5t277 -66.5t198 -195.5t74 -298q0 -126 -43 -230t-117.5 -172.5t-174.5 -106t-214 -37.5zM602 199q115 0 180.5 81.5t65.5 249.5q0 171 -66.5 260t-179.5 89t-179.5 -89
t-66.5 -260q0 -167 66 -249t180 -82zM353 1151v57l65 226h246v-86l-150 -197h-161zM686 1151v57l66 226h246v-86l-150 -197h-162z" />
    <glyph glyph-name="Racute" unicode="&#x154;" horiz-adv-x="1294" 
d="M938 0l-305 561h-187v-561h-319v1434h481q266 0 408.5 -107t142.5 -313q0 -277 -229 -391l301 -539v-84h-293zM446 1206v-426h154q124 0 181 53.5t57 161.5q0 107 -57 159t-181 52h-154zM690 1479h-170v63l70 199h303v-86z" />
    <glyph glyph-name="racute" unicode="&#x155;" horiz-adv-x="809" 
d="M772 840h-51q-191 0 -309 -64v-776h-299v1075h202q41 0 63 -26.5t30 -102.5q129 139 299 139q36 0 65 -10v-235zM550 1151h-170v63l70 220h303v-86z" />
    <glyph glyph-name="uni0156" unicode="&#x156;" horiz-adv-x="1294" 
d="M938 0l-305 561h-187v-561h-319v1434h481q266 0 408.5 -107t142.5 -313q0 -277 -229 -391l301 -539v-84h-293zM446 1206v-426h154q124 0 181 53.5t57 161.5q0 107 -57 159t-181 52h-154zM529 -453v119q46 4 68 18.5t22 34.5q0 9 -4.5 16t-9.5 10t-15.5 8.5t-15.5 8.5
q-24 18 -33.5 38t-9.5 55q0 47 34.5 77.5t87.5 30.5q57 0 97 -36q41 -36 41 -113q0 -246 -262 -267z" />
    <glyph glyph-name="uni0157" unicode="&#x157;" horiz-adv-x="799" 
d="M772 840h-51q-191 0 -309 -64v-776h-299v1075h202q41 0 63 -26.5t30 -102.5q129 139 299 139q36 0 65 -10v-235zM125 -453v119q46 4 68 18.5t22 34.5q0 9 -4.5 16t-9.5 10t-15.5 8.5t-15.5 8.5q-24 18 -33.5 38t-9.5 55q0 47 34.5 77.5t87.5 30.5q57 0 97 -36
q41 -36 41 -113q0 -246 -262 -267z" />
    <glyph glyph-name="Rcaron" unicode="&#x158;" horiz-adv-x="1294" 
d="M938 0l-305 561h-187v-561h-319v1434h481q266 0 408.5 -107t142.5 -313q0 -277 -229 -391l301 -539v-84h-293zM446 1206v-426h154q124 0 181 53.5t57 161.5q0 107 -57 159t-181 52h-154zM899 1749v-76l-186 -194h-205l-178 194v76h164l125 -84l125 84h155z" />
    <glyph glyph-name="rcaron" unicode="&#x159;" horiz-adv-x="809" 
d="M772 840h-51q-191 0 -309 -64v-776h-299v1075h202q41 0 63 -26.5t30 -102.5q129 139 299 139q36 0 65 -10v-235zM745 1434v-76l-186 -207h-205l-178 207v76h164l125 -97l125 97h155z" />
    <glyph glyph-name="Sacute" unicode="&#x15a;" horiz-adv-x="1092" 
d="M508 -16q-144 0 -250.5 29t-204.5 85v244h105q120 -131 340 -131q258 0 258 176q0 32 -7.5 57.5t-26 45t-35 32.5t-51 25.5t-55 19t-66 19l-67.5 18.5q-204 59 -294.5 155.5t-90.5 272.5q0 203 137 310.5t365 107.5q246 0 399 -94v-232h-100q-132 97 -287 97
q-119 0 -179 -40t-60 -126q0 -80 60 -118.5t202 -74.5q123 -31 202 -65.5t136 -86t81.5 -121.5t24.5 -169q0 -211 -137 -323.5t-399 -112.5zM634 1479h-170v63l70 199h303v-86z" />
    <glyph glyph-name="sacute" unicode="&#x15b;" horiz-adv-x="932" 
d="M434 -12q-221 0 -373 88v221h95q41 -38 109.5 -64t154.5 -26q184 0 184 100q0 51 -39.5 76t-150.5 39q-183 23 -272 98.5t-89 229.5q0 161 113 249t313 88q194 0 338 -73v-217h-90q-94 71 -246 71q-162 0 -162 -96q0 -42 46 -65.5t155 -36.5q195 -24 279 -99t84 -235
q0 -165 -111 -256.5t-338 -91.5zM561 1151h-170v63l70 220h303v-86z" />
    <glyph glyph-name="Scircumflex" unicode="&#x15c;" horiz-adv-x="1092" 
d="M508 -16q-144 0 -250.5 29t-204.5 85v244h105q120 -131 340 -131q258 0 258 176q0 32 -7.5 57.5t-26 45t-35 32.5t-51 25.5t-55 19t-66 19l-67.5 18.5q-204 59 -294.5 155.5t-90.5 272.5q0 203 137 310.5t365 107.5q246 0 399 -94v-232h-100q-132 97 -287 97
q-119 0 -179 -40t-60 -126q0 -80 60 -118.5t202 -74.5q123 -31 202 -65.5t136 -86t81.5 -121.5t24.5 -169q0 -211 -137 -323.5t-399 -112.5zM275 1479v75l186 195h205l178 -195v-75h-164l-125 84l-124 -84h-156z" />
    <glyph glyph-name="scircumflex" unicode="&#x15d;" horiz-adv-x="932" 
d="M434 -12q-221 0 -373 88v221h95q41 -38 109.5 -64t154.5 -26q184 0 184 100q0 51 -39.5 76t-150.5 39q-183 23 -272 98.5t-89 229.5q0 161 113 249t313 88q194 0 338 -73v-217h-90q-94 71 -246 71q-162 0 -162 -96q0 -42 46 -65.5t155 -36.5q195 -24 279 -99t84 -235
q0 -165 -111 -256.5t-338 -91.5zM186 1151v76l186 207h205l178 -207v-76h-164l-125 96l-124 -96h-156z" />
    <glyph glyph-name="Scedilla" unicode="&#x15e;" horiz-adv-x="1098" 
d="M1044 420q0 -196 -116 -306t-342 -126v-37q166 -7 166 -152q0 -73 -58 -115t-157 -42q-91 0 -158 32v123h59q25 -28 74 -28q57 0 57 38q0 37 -71 37h-54v142q-128 6 -220 36q-88 27 -171 76v244h105q45 -49 130 -91q81 -40 210 -40q258 0 258 176q0 32 -7.5 57.5t-26 45
t-35 32.5t-50.5 25.5t-54.5 19t-66 19l-67.5 18.5q-204 59 -295 156t-91 272q0 202 137 310t365 108q244 0 400 -94v-232h-101q-134 97 -286 97q-120 0 -180 -40t-60 -126q0 -35 12.5 -61.5t30.5 -44t56 -34.5t70.5 -27t92.5 -26q124 -33 203 -67t136 -85t81 -121t24 -169z
" />
    <glyph glyph-name="scedilla" unicode="&#x15f;" horiz-adv-x="932" 
d="M883 336q0 -145 -89 -237q-87 -90 -282 -107v-41q166 -7 166 -152q0 -73 -58 -115t-157 -42q-91 0 -158 32v123h60q24 -28 73 -28q58 0 58 38q0 37 -72 37h-53v146q-170 10 -310 86v221h95q94 -90 264 -90q184 0 184 100q0 49 -39 75q-41 27 -151 40q-176 20 -268 95
q-93 75 -93 233q0 163 114 250t312 87q115 0 195 -20q77 -19 143 -53v-217h-90q-94 71 -246 71q-86 0 -124 -24t-38 -72q0 -41 45.5 -64.5t155.5 -37.5q197 -27 280 -100.5t83 -233.5z" />
    <glyph glyph-name="Scaron" unicode="&#x160;" horiz-adv-x="1073" 
d="M496 -16q-144 0 -250.5 29t-204.5 85v244h105q120 -131 340 -131q258 0 258 176q0 32 -7.5 57.5t-26 45t-35 32.5t-51 25.5t-55 19t-66 19l-67.5 18.5q-204 59 -294.5 155.5t-90.5 272.5q0 203 137 310.5t365 107.5q246 0 399 -94v-232h-100q-132 97 -287 97
q-119 0 -179 -40t-60 -126q0 -80 60 -118.5t202 -74.5q123 -31 202 -65.5t136 -86t81.5 -121.5t24.5 -169q0 -211 -137 -323.5t-399 -112.5zM831 1749v-76l-186 -194h-205l-178 194v76h164l125 -84l125 84h155z" />
    <glyph glyph-name="scaron" unicode="&#x161;" horiz-adv-x="932" 
d="M434 -12q-221 0 -373 88v221h95q41 -38 109.5 -64t154.5 -26q184 0 184 100q0 51 -39.5 76t-150.5 39q-183 23 -272 98.5t-89 229.5q0 161 113 249t313 88q194 0 338 -73v-217h-90q-94 71 -246 71q-162 0 -162 -96q0 -42 46 -65.5t155 -36.5q195 -24 279 -99t84 -235
q0 -165 -111 -256.5t-338 -91.5zM755 1434v-76l-186 -207h-205l-178 207v76h164l125 -97l125 97h155z" />
    <glyph glyph-name="uni0162" unicode="&#x162;" horiz-adv-x="1202" 
d="M761 0h-320v1208h-392v226h1104v-226h-392v-1208zM469 -453v119q46 4 68 18.5t22 34.5q0 9 -4.5 16t-9.5 10t-15.5 8.5t-15.5 8.5q-24 18 -33.5 38t-9.5 55q0 47 34.5 77.5t87.5 30.5q57 0 97 -36q41 -36 41 -113q0 -246 -262 -267z" />
    <glyph glyph-name="uni0163" unicode="&#x163;" horiz-adv-x="721" 
d="M31 874v201h127v287h299v-287h217v-201h-217v-550q0 -75 31.5 -103t107.5 -28h82v-181q-84 -28 -189 -28q-162 0 -246.5 72t-84.5 233v585h-127zM277 -453v119q46 4 68 18.5t22 34.5q0 9 -4.5 16t-9.5 10t-15.5 8.5t-15.5 8.5q-24 18 -33.5 38t-9.5 55q0 47 34.5 77.5
t87.5 30.5q57 0 97 -36q41 -36 41 -113q0 -246 -262 -267z" />
    <glyph glyph-name="Utilde" unicode="&#x168;" horiz-adv-x="1389" 
d="M731 219q69 0 116.5 15t83.5 51.5t53 102.5t17 165v881h267v-873q0 -286 -130.5 -431.5t-424.5 -145.5q-289 0 -440.5 149.5t-151.5 427.5v873h319v-881q0 -99 19 -165t58 -102.5t90 -51.5t124 -15zM381 1479v78q35 192 202 192q54 0 127.5 -26.5t93.5 -26.5q51 0 68 55
h164v-77q-35 -193 -203 -193q-54 0 -127 28.5t-92 28.5q-56 0 -70 -59h-163z" />
    <glyph glyph-name="utilde" unicode="&#x169;" horiz-adv-x="1219" 
d="M569 209q94 0 226 53v813h299v-1075h-203q-40 0 -61 20t-29 80q-77 -53 -174.5 -83.5t-194.5 -30.5q-313 0 -313 290v799h299v-723q0 -82 37.5 -112.5t113.5 -30.5zM271 1155v78q35 192 202 192q54 0 127.5 -26.5t93.5 -26.5q51 0 68 55h164v-77q-35 -193 -203 -193
q-54 0 -127 28.5t-92 28.5q-56 0 -70 -59h-163z" />
    <glyph glyph-name="Umacron" unicode="&#x16a;" horiz-adv-x="1389" 
d="M731 219q69 0 116.5 15t83.5 51.5t53 102.5t17 165v881h267v-873q0 -286 -130.5 -431.5t-424.5 -145.5q-289 0 -440.5 149.5t-151.5 427.5v873h319v-881q0 -99 19 -165t58 -102.5t90 -51.5t124 -15zM997 1704v-201h-549v201h549z" />
    <glyph glyph-name="umacron" unicode="&#x16b;" horiz-adv-x="1219" 
d="M569 209q94 0 226 53v813h299v-1075h-203q-40 0 -61 20t-29 80q-77 -53 -174.5 -83.5t-194.5 -30.5q-313 0 -313 290v799h299v-723q0 -82 37.5 -112.5t113.5 -30.5zM875 1397v-201h-533v201h533z" />
    <glyph glyph-name="Ubreve" unicode="&#x16c;" horiz-adv-x="1389" 
d="M731 219q69 0 116.5 15t83.5 51.5t53 102.5t17 165v881h267v-873q0 -286 -130.5 -431.5t-424.5 -145.5q-289 0 -440.5 149.5t-151.5 427.5v873h319v-881q0 -99 19 -165t58 -102.5t90 -51.5t124 -15zM723 1481q-114 0 -187 56t-90 132v76h189q3 -29 25 -48.5t63 -19.5
q74 0 88 68h188v-76q-17 -76 -89.5 -132t-186.5 -56z" />
    <glyph glyph-name="ubreve" unicode="&#x16d;" horiz-adv-x="1219" 
d="M569 209q94 0 226 53v813h299v-1075h-203q-40 0 -61 20t-29 80q-77 -53 -174.5 -83.5t-194.5 -30.5q-313 0 -313 290v799h299v-723q0 -82 37.5 -112.5t113.5 -30.5zM609 1153q-115 0 -187.5 60t-89.5 145v76h189q7 -86 88 -86q76 0 88 86h188v-76q-17 -85 -89.5 -145
t-186.5 -60z" />
    <glyph glyph-name="Uring" unicode="&#x16e;" horiz-adv-x="1389" 
d="M731 219q69 0 116.5 15t83.5 51.5t53 102.5t17 165v881h267v-873q0 -286 -130.5 -431.5t-424.5 -145.5q-289 0 -440.5 149.5t-151.5 427.5v873h319v-881q0 -99 19 -165t58 -102.5t90 -51.5t124 -15zM723 1422q-91 0 -153 56t-62 149t62.5 150t152.5 57t152.5 -57
t62.5 -150t-62.5 -149t-152.5 -56zM723 1549q34 0 54.5 21.5t19.5 56.5q1 37 -19.5 58.5t-54.5 21.5t-54 -21.5t-20 -58.5q0 -35 20 -56.5t54 -21.5z" />
    <glyph glyph-name="uring" unicode="&#x16f;" horiz-adv-x="1219" 
d="M569 209q94 0 226 53v813h299v-1075h-203q-40 0 -61 20t-29 80q-77 -53 -174.5 -83.5t-194.5 -30.5q-313 0 -313 290v799h299v-723q0 -82 37.5 -112.5t113.5 -30.5zM609 1159q-91 0 -153 56t-62 149t62.5 150t152.5 57t152.5 -57t62.5 -150t-62.5 -149t-152.5 -56z
M609 1286q34 0 54.5 21.5t19.5 56.5q1 37 -19.5 58.5t-54.5 21.5t-54 -21.5t-20 -58.5q0 -35 20 -56.5t54 -21.5z" />
    <glyph glyph-name="Uhungarumlaut" unicode="&#x170;" horiz-adv-x="1389" 
d="M731 219q69 0 116.5 15t83.5 51.5t53 102.5t17 165v881h267v-873q0 -286 -130.5 -431.5t-424.5 -145.5q-289 0 -440.5 149.5t-151.5 427.5v873h319v-881q0 -99 19 -165t58 -102.5t90 -51.5t124 -15zM467 1479v57l61 205h246v-86l-146 -176h-161zM800 1479v57l62 205h246
v-86l-146 -176h-162z" />
    <glyph glyph-name="uhungarumlaut" unicode="&#x171;" horiz-adv-x="1219" 
d="M569 209q94 0 226 53v813h299v-1075h-203q-40 0 -61 20t-29 80q-77 -53 -174.5 -83.5t-194.5 -30.5q-313 0 -313 290v799h299v-723q0 -82 37.5 -112.5t113.5 -30.5zM359 1151v57l65 226h246v-86l-150 -197h-161zM692 1151v57l66 226h246v-86l-150 -197h-162z" />
    <glyph glyph-name="Uogonek" unicode="&#x172;" horiz-adv-x="1389" 
d="M1018 43q-23 -11 -59 -25t-62 -26t-43 -27q-39 -34 -39 -76q0 -55 80 -55h41v-137q-65 -35 -150 -35q-93 0 -144.5 41t-51.5 115q0 97 100 168h-2q-275 0 -420 151q-147 150 -147 424v873h319v-881q0 -98 19 -164.5t58 -103t90 -51.5t124 -15q69 0 117 15t83.5 52
t52.5 102.5t17 164.5v881h267v-873q0 -199 -57 -325q-58 -127 -193 -193z" />
    <glyph glyph-name="uogonek" unicode="&#x173;" horiz-adv-x="1219" 
d="M1094 0h-43q-41 -34 -57.5 -56.5t-16.5 -54.5q0 -55 80 -55h41v-137q-65 -35 -150 -35q-93 0 -144.5 41t-51.5 115q0 106 120 182q-30 4 -46.5 25t-24.5 75q-76 -53 -173.5 -83.5t-195.5 -30.5q-313 0 -313 290v799h299v-723q0 -88 40 -115q40 -28 111 -28q94 0 226 53
v813h299v-1075z" />
    <glyph glyph-name="Wcircumflex" unicode="&#x174;" horiz-adv-x="1878" 
d="M367 0l-320 1350v84h303l221 -1039h4l246 1039h271l254 -1039h4l213 1039h268v-84l-322 -1350h-354l-215 938h-4l-213 -938h-356zM670 1479v75l186 195h205l178 -195v-75h-164l-125 84l-124 -84h-156z" />
    <glyph glyph-name="wcircumflex" unicode="&#x175;" horiz-adv-x="1626" 
d="M340 0l-297 997v78h285l180 -678h4l211 678h229l197 -678h4l193 678h237v-78l-305 -997h-264l-201 668h-4l-209 -668h-260zM551 1151v76l186 207h205l178 -207v-76h-164l-125 96l-124 -96h-156z" />
    <glyph glyph-name="Ycircumflex" unicode="&#x176;" horiz-adv-x="1253" 
d="M801 0h-320v555l-444 788v91h299l321 -603h5l309 603h246v-91l-416 -780v-563zM367 1479v75l186 195h205l178 -195v-75h-164l-125 84l-124 -84h-156z" />
    <glyph glyph-name="ycircumflex" unicode="&#x177;" horiz-adv-x="1124" 
d="M297 -332v80l145 305l-403 944v78h280l265 -663h4l243 663h256v-78l-534 -1329h-256zM291 1151v76l186 207h205l178 -207v-76h-164l-125 96l-124 -96h-156z" />
    <glyph glyph-name="Ydieresis" unicode="&#x178;" horiz-adv-x="1253" 
d="M801 0h-320v555l-444 788v91h299l321 -603h5l309 603h246v-91l-416 -780v-563zM457 1481q-64 0 -109 43.5t-45 106.5q0 62 45 105.5t109 43.5t109 -43.5t45 -105.5q0 -63 -45 -106.5t-109 -43.5zM850 1481q-64 0 -108.5 43.5t-44.5 106.5q0 62 44.5 105.5t108.5 43.5
t109 -43.5t45 -105.5q0 -63 -45 -106.5t-109 -43.5z" />
    <glyph glyph-name="Zacute" unicode="&#x179;" horiz-adv-x="1133" 
d="M49 0v242l686 956v8h-633v228h971v-248l-686 -957v-8h686v-221h-1024zM655 1479h-170v63l70 199h303v-86z" />
    <glyph glyph-name="zacute" unicode="&#x17a;" horiz-adv-x="1010" 
d="M59 0v207l549 657h-516v211h848v-209l-551 -655h537v-211h-867zM606 1151h-170v63l70 220h303v-86z" />
    <glyph glyph-name="Zdotaccent" unicode="&#x17b;" horiz-adv-x="1133" 
d="M49 0v242l686 956v8h-633v228h971v-248l-686 -957v-8h686v-221h-1024zM594 1481q-68 0 -115 46t-47 112t47 113t115 47q67 0 114 -47t47 -113t-47 -112t-114 -46z" />
    <glyph glyph-name="zdotaccent" unicode="&#x17c;" horiz-adv-x="1010" 
d="M59 0v207l549 657h-516v211h848v-209l-551 -655h537v-211h-867zM516 1159q-68 0 -115 46t-47 112t47 113t115 47q67 0 114 -47t47 -113t-47 -112t-114 -46z" />
    <glyph glyph-name="Zcaron" unicode="&#x17d;" horiz-adv-x="1133" 
d="M49 0v242l686 956v8h-633v228h971v-248l-686 -957v-8h686v-221h-1024zM878 1749v-76l-186 -194h-205l-178 194v76h164l125 -84l125 84h155z" />
    <glyph glyph-name="zcaron" unicode="&#x17e;" horiz-adv-x="1010" 
d="M59 0v207l549 657h-516v211h848v-209l-551 -655h537v-211h-867zM801 1434v-76l-186 -207h-205l-178 207v76h164l125 -97l125 97h155z" />
    <glyph glyph-name="Aringacute" unicode="&#x1fa;" horiz-adv-x="1370" 
d="M45 0v84l475 1350h330l477 -1350v-84h-309l-119 365h-483l-115 -365h-256zM651 1112l-168 -528h344l-172 528h-4zM678 1483q-91 0 -153 56t-62 149t62.5 150t152.5 57t152.5 -57t62.5 -150t-62.5 -149t-152.5 -56zM678 1610q34 0 54.5 21.5t19.5 56.5q1 37 -19.5 58.5
t-54.5 21.5t-54 -21.5t-20 -58.5q0 -35 20 -56.5t54 -21.5zM757 1936h-170v63l70 199h303v-86z" />
    <glyph glyph-name="aringacute" unicode="&#x1fb;" horiz-adv-x="1102" 
d="M995 0h-125q-73 0 -108 22t-49 84q-107 -118 -312 -118q-156 0 -252 84t-96 239q0 165 117 250.5t311 85.5q117 0 215 -24v102q0 75 -46 112t-150 37q-157 0 -279 -83h-84v210q195 91 410 91q227 0 337.5 -82t110.5 -265v-745zM696 258v205q-70 12 -153 12
q-199 0 -199 -147q0 -76 45 -114t123 -38q95 0 184 82zM545 1159q-91 0 -153 56t-62 149t62.5 150t152.5 57t152.5 -57t62.5 -150t-62.5 -149t-152.5 -56zM545 1286q34 0 54.5 21.5t19.5 56.5q1 37 -19.5 58.5t-54.5 21.5t-54 -21.5t-20 -58.5q0 -35 20 -56.5t54 -21.5z
M618 1616h-170v63l70 199h303v-86z" />
    <glyph glyph-name="uni0218" unicode="&#x218;" horiz-adv-x="1098" 
d="M508 -16q-144 0 -250.5 29t-204.5 85v244h105q120 -131 340 -131q258 0 258 176q0 32 -7.5 57.5t-26 45t-35 32.5t-51 25.5t-55 19t-66 19l-67.5 18.5q-204 59 -294.5 155.5t-90.5 272.5q0 203 137 310.5t365 107.5q246 0 399 -94v-232h-100q-132 97 -287 97
q-119 0 -179 -40t-60 -126q0 -80 60 -118.5t202 -74.5q123 -31 202 -65.5t136 -86t81.5 -121.5t24.5 -169q0 -211 -137 -323.5t-399 -112.5zM412 -453v119q46 4 68 18.5t22 34.5q0 9 -4.5 16t-9.5 10t-15.5 8.5t-15.5 8.5q-24 18 -33.5 38t-9.5 55q0 47 34.5 77.5t87.5 30.5
q56 0 97 -36t41 -113q0 -246 -262 -267z" />
    <glyph glyph-name="uni0219" unicode="&#x219;" horiz-adv-x="932" 
d="M434 -12q-221 0 -373 88v221h95q41 -38 109.5 -64t154.5 -26q184 0 184 100q0 51 -39.5 76t-150.5 39q-183 23 -272 98.5t-89 229.5q0 161 113 249t313 88q194 0 338 -73v-217h-90q-94 71 -246 71q-162 0 -162 -96q0 -42 46 -65.5t155 -36.5q195 -24 279 -99t84 -235
q0 -165 -111 -256.5t-338 -91.5zM340 -453v119q46 4 68 18.5t22 34.5q0 9 -4.5 16t-9.5 10t-15.5 8.5t-15.5 8.5q-24 18 -33.5 38t-9.5 55q0 47 34.5 77.5t87.5 30.5q56 0 97 -36t41 -113q0 -246 -262 -267z" />
    <glyph glyph-name="circumflex" unicode="&#x2c6;" 
d="M123 1151v76l186 207h205l178 -207v-76h-164l-124 96l-125 -96h-156z" />
    <glyph glyph-name="caron" unicode="&#x2c7;" 
d="M692 1434v-76l-186 -207h-205l-178 207v76h164l125 -97l125 97h155z" />
    <glyph glyph-name="breve" unicode="&#x2d8;" 
d="M410 1153q-115 0 -187.5 59.5t-89.5 145.5v76h189q7 -86 88 -86q78 0 88 86h188v-76q-16 -85 -89 -145t-187 -60z" />
    <glyph glyph-name="dotaccent" unicode="&#x2d9;" 
d="M410 1159q-68 0 -115 46t-47 112t47.5 113t114.5 47t114 -47t47 -113t-47 -112t-114 -46z" />
    <glyph glyph-name="ring" unicode="&#x2da;" 
d="M410 1159q-91 0 -153 56t-62 149t62.5 150t152.5 57t152.5 -57t62.5 -150q0 -92 -62.5 -148.5t-152.5 -56.5zM410 1286q34 0 54.5 21.5t20.5 56.5q0 37 -20.5 58.5t-54.5 21.5t-54 -21.5t-20 -58.5q0 -35 20 -56.5t54 -21.5z" />
    <glyph glyph-name="ogonek" unicode="&#x2db;" 
d="M563 0q-38 -31 -55.5 -55.5t-17.5 -55.5q0 -55 79 -55h41v-137q-59 -35 -149 -35q-91 0 -144 41t-53 115q0 106 121 182h178z" />
    <glyph glyph-name="tilde" unicode="&#x2dc;" 
d="M66 1155v78q16 94 68 143t134 49q54 0 128 -26.5t94 -26.5q51 0 67 56h164v-78q-17 -95 -69 -144t-134 -49q-54 0 -126.5 29t-92.5 29q-56 0 -70 -60h-163z" />
    <glyph glyph-name="hungarumlaut" unicode="&#x2dd;" 
d="M154 1151v57l65 226h246v-86l-150 -197h-161zM487 1151v57l66 226h246v-86l-150 -197h-162z" />
    <glyph glyph-name="uni0401" unicode="&#x401;" horiz-adv-x="1161" 
d="M408 1481q-64 0 -109 43.5t-45 106.5q0 62 45 105.5t109 43.5t109 -43.5t45 -105.5q0 -63 -45 -106.5t-109 -43.5zM801 1481q-64 0 -108.5 43.5t-44.5 106.5q0 62 44.5 105.5t108.5 43.5t109 -43.5t45 -105.5q0 -63 -45 -106.5t-109 -43.5zM127 0v1434h944v-232h-629
v-364h451v-220h-451v-393h652v-225h-967z" />
    <glyph glyph-name="uni0403" unicode="&#x403;" horiz-adv-x="1051" 
d="M127 0v1434h893v-226h-574v-1208h-319zM651 1479h-170v63l70 199h303v-86z" />
    <glyph glyph-name="uni040E" unicode="&#x40e;" horiz-adv-x="1251" 
d="M358 -16q-56 0 -114 12q-22 6 -39 12v219h84q94 0 139 33t78 111l8 20l-477 959v84h295l330 -699l303 699h262v-84l-453 -996q-30 -65 -53.5 -109.5t-53.5 -90t-59.5 -74t-67 -52t-82.5 -34t-100 -10.5zM639 1481q-114 0 -185.5 55t-91.5 133v76h203q0 -88 74 -88
q40 0 55.5 22.5t18.5 65.5h202v-76q-17 -77 -89.5 -132.5t-186.5 -55.5z" />
    <glyph glyph-name="uni0410" unicode="&#x410;" horiz-adv-x="1370" 
d="M651 1112l-166 -528h342l-172 528h-4zM1018 0l-119 365h-483l-115 -365h-256v84l475 1350h330l477 -1350v-84h-309z" />
    <glyph glyph-name="uni0411" unicode="&#x411;" horiz-adv-x="1235" 
d="M127 0v1434h932v-226h-613v-329h187q271 0 405 -113q133 -112 133 -313q0 -220 -137.5 -336.5t-400.5 -116.5h-506zM446 225h179q221 0 221 219q0 213 -221 213h-179v-432z" />
    <glyph glyph-name="uni0412" unicode="&#x412;" horiz-adv-x="1235" 
d="M127 0v1434h491q258 0 382 -91.5t124 -285.5q0 -129 -69 -201q-71 -72 -185 -96v-8q137 -27 223 -105q85 -78 85 -229q0 -203 -139.5 -310.5t-403.5 -107.5h-508zM440 854h170q104 0 151.5 43.5t47.5 136.5q0 88 -48 131t-151 43h-170v-354zM440 225h187q113 0 168 54
t55 153q0 100 -56.5 153.5t-166.5 53.5h-187v-414z" />
    <glyph glyph-name="uni0413" unicode="&#x413;" horiz-adv-x="1051" 
d="M127 0v1434h893v-226h-574v-1208h-319z" />
    <glyph glyph-name="uni0414" unicode="&#x414;" horiz-adv-x="1493" 
d="M530 543q-18 -180 -96 -318h555v977h-424q-1 -115 -6 -229q-10 -247 -29 -430zM299 0l-41 -287h-238v512h93q33 27 59 76q64 118 80 309q9 118 16 276l11 267q4 142 6 281h1024v-1209h164v-512h-238l-41 287h-895z" />
    <glyph glyph-name="uni0415" unicode="&#x415;" horiz-adv-x="1161" 
d="M127 0v1434h944v-232h-629v-364h451v-220h-451v-393h652v-225h-967z" />
    <glyph glyph-name="uni0416" unicode="&#x416;" horiz-adv-x="2122" 
d="M901 0v621h-156l-372 -621h-307v86l403 694l-356 568v86h262l379 -590h147v590h320v-590h147l379 590h262v-86l-356 -568l403 -694v-86h-307l-373 621h-155v-621h-320z" />
    <glyph glyph-name="uni0417" unicode="&#x417;" horiz-adv-x="1114" 
d="M492 -16q-148 0 -251 33q-101 31 -186 94v235h101q68 -65 141.5 -99t183.5 -34q244 0 244 221q0 105 -57.5 151t-184.5 46h-153v217h133q123 0 183.5 43.5t60.5 142.5q0 185 -222 185q-103 0 -165 -28q-67 -29 -111 -71h-115v234q98 48 187 72t221 24q153 0 266.5 -40.5
t180.5 -129t67 -217.5q0 -133 -74 -207t-192 -102v-9q305 -46 305 -321q0 -205 -156.5 -322.5t-406.5 -117.5z" />
    <glyph glyph-name="uni0418" unicode="&#x418;" horiz-adv-x="1458" 
d="M459 0h-332v1434h311v-992h6l547 992h340v-1434h-311v993h-6z" />
    <glyph glyph-name="uni0419" unicode="&#x419;" horiz-adv-x="1458" 
d="M723 1505q-124 0 -202 60t-95 145v76h225q3 -55 17.5 -83t54.5 -28q43 0 56 31q11 30 16 80h225v-76q-17 -85 -96 -145t-201 -60zM459 0h-332v1434h311v-992h6l547 992h340v-1434h-311v993h-6z" />
    <glyph glyph-name="uni041A" unicode="&#x41a;" horiz-adv-x="1368" 
d="M995 0l-372 621h-177v-621h-319v1434h319v-590h168l379 590h262v-86l-356 -568l404 -694v-86h-308z" />
    <glyph glyph-name="uni041B" unicode="&#x41b;" horiz-adv-x="1393" 
d="M946 0v1202h-399q-1 -100 -8 -241q-5 -111 -12 -249q-8 -123 -23 -282q-21 -212 -97 -328q-76 -118 -239 -118q-53 0 -113 12q-20 5 -35 12v219h70q56 0 85 60t44 192q4 49 10.5 151l9.5 146q6 98 13 311q7 191 8 347h1006v-1434h-320z" />
    <glyph glyph-name="uni041C" unicode="&#x41c;" horiz-adv-x="1751" 
d="M127 0v1434h430l320 -955h6l317 955h424v-1434h-315v1069h-6l-363 -1069h-192l-357 1069h-6v-1069h-258z" />
    <glyph glyph-name="uni041D" unicode="&#x41d;" horiz-adv-x="1419" 
d="M446 0h-319v1434h319v-590h527v590h319v-1434h-319v621h-527v-621z" />
    <glyph glyph-name="uni041E" unicode="&#x41e;" horiz-adv-x="1495" 
d="M748 -16q-139 0 -264 48.5t-218 140.5q-207 205 -207 544q0 337 207 544q93 92 218 140.5t264 48.5t263.5 -48.5t217.5 -140.5q207 -207 207 -544q0 -339 -207 -544q-93 -92 -217.5 -140.5t-263.5 -48.5zM748 205q164 0 262 127t98 379q0 253 -98.5 383.5t-261.5 130.5
q-165 0 -263 -130t-98 -384q0 -253 97.5 -379.5t263.5 -126.5z" />
    <glyph glyph-name="uni041F" unicode="&#x41f;" horiz-adv-x="1399" 
d="M446 0h-319v1434h1145v-1434h-320v1208h-506v-1208z" />
    <glyph glyph-name="uni0420" unicode="&#x420;" horiz-adv-x="1223" 
d="M127 0v1434h475q275 0 422 -111t147 -346q0 -233 -149 -346q-151 -113 -428 -113h-148v-518h-319zM446 1204v-471h148q146 0 201 63q55 61 55 177q0 121 -55.5 176t-200.5 55h-148z" />
    <glyph glyph-name="uni0421" unicode="&#x421;" horiz-adv-x="1260" 
d="M745 -16q-313 0 -498.5 194t-185.5 535q0 169 52.5 307.5t146 232.5t224.5 145.5t286 51.5q137 0 229 -23.5t189 -70.5v-240h-115q-114 103 -295 103q-189 0 -289 -126.5t-100 -367.5q0 -261 92 -386.5t279 -125.5q126 0 206 42q77 41 138 101h100v-235
q-180 -137 -459 -137z" />
    <glyph glyph-name="uni0422" unicode="&#x422;" horiz-adv-x="1186" 
d="M752 0h-320v1208h-391v226h1104v-226h-393v-1208z" />
    <glyph glyph-name="uni0423" unicode="&#x423;" horiz-adv-x="1251" 
d="M358 -16q-56 0 -114 12q-22 6 -39 12v219h84q94 0 139 33t78 111l8 20l-477 959v84h295l330 -699l303 699h262v-84l-453 -996q-30 -65 -53.5 -109.5t-53.5 -90t-59.5 -74t-67 -52t-82.5 -34t-100 -10.5z" />
    <glyph glyph-name="uni0424" unicode="&#x424;" horiz-adv-x="1673" 
d="M377 713q0 -148 86 -244t221 -96v678q-134 0 -220.5 -96t-86.5 -242zM1296 713q0 147 -86.5 242.5t-220.5 95.5v-678q136 0 221.5 96.5t85.5 243.5zM993 152v-162h-313v162q-277 18 -438 150q-183 150 -183 411q0 132 48 238t133.5 175t196.5 108.5t243 47.5v162h313
v-162q106 -6 197.5 -30t170.5 -69.5t134.5 -109.5t87 -156t31.5 -204q0 -128 -48.5 -232t-133.5 -172.5t-197 -108.5t-242 -48z" />
    <glyph glyph-name="uni0425" unicode="&#x425;" horiz-adv-x="1341" 
d="M63 0v90l396 658l-389 595v91h305l317 -504l283 504h256v-91l-365 -618l412 -635v-90h-303l-344 545l-309 -545h-259z" />
    <glyph glyph-name="uni0426" unicode="&#x426;" horiz-adv-x="1454" 
d="M1434 -287h-238l-41 287h-1028v1434h319v-1209h506v1209h320v-1209h162v-512z" />
    <glyph glyph-name="uni0427" unicode="&#x427;" horiz-adv-x="1354" 
d="M1227 0h-320v600q-175 -80 -395 -80q-86 0 -158.5 26.5t-129.5 79.5t-89.5 140.5t-32.5 200.5v467h320v-457q0 -119 53 -164t152 -45q61 0 129.5 10t102 18t48.5 13v625h320v-1434z" />
    <glyph glyph-name="uni0428" unicode="&#x428;" horiz-adv-x="2019" 
d="M127 0v1434h319v-1209h404v1209h319v-1209h404v1209h319v-1434h-1765z" />
    <glyph glyph-name="uni0429" unicode="&#x429;" horiz-adv-x="2077" 
d="M2056 -287h-237l-41 287h-1651v1434h319v-1209h404v1209h319v-1209h404v1209h319v-1209h164v-512z" />
    <glyph glyph-name="uni042A" unicode="&#x42a;" horiz-adv-x="1464" 
d="M858 0h-502v1208h-325v226h645v-516h174q266 0 410 -111q143 -111 143 -352q0 -232 -141 -343q-142 -112 -404 -112zM850 692h-174v-467h174q133 0 182 57.5t49 176.5q0 106 -52 170q-53 63 -179 63z" />
    <glyph glyph-name="uni042B" unicode="&#x42b;" horiz-adv-x="1755" 
d="M127 0v1434h319v-516h175q266 0 410 -111q143 -111 143 -352q0 -232 -141 -343q-142 -112 -404 -112h-502zM1628 0h-319v1434h319v-1434zM621 692h-175v-467h175q131 0 181 58t50 176q0 106 -52 170q-52 63 -179 63z" />
    <glyph glyph-name="uni042C" unicode="&#x42c;" horiz-adv-x="1235" 
d="M127 0v1434h319v-516h175q266 0 410 -111q143 -111 143 -352q0 -232 -141 -343q-142 -112 -404 -112h-502zM621 692h-175v-467h175q131 0 181 58t50 176q0 106 -52 170q-52 63 -179 63z" />
    <glyph glyph-name="uni042D" unicode="&#x42d;" horiz-adv-x="1245" 
d="M498 -16q-263 0 -443 137v231h101q58 -58 137 -99q77 -40 184 -40q174 0 264 106q90 105 111 297h-530v226h528q-49 377 -363 377q-193 0 -307 -103h-114v240q84 44 183 69q97 25 247 25q314 0 501 -185.5t187 -514.5q0 -230 -77 -401t-233 -268t-376 -97z" />
    <glyph glyph-name="uni042E" unicode="&#x42e;" horiz-adv-x="1987" 
d="M1280 -16q-121 0 -230.5 42.5t-197 121.5t-144.5 201t-71 272h-191v-621h-319v1434h319v-590h195q18 143 76.5 259t144.5 191t193.5 115.5t224.5 40.5q131 0 247.5 -49t205.5 -139.5t141.5 -231.5t52.5 -313q0 -343 -193 -544q-88 -92 -206 -140.5t-248 -48.5zM1280 205
q141 0 230 122t89 384q0 264 -89 389t-230 125q-142 0 -231 -125q-88 -124 -88 -389q0 -263 88 -384q89 -122 231 -122z" />
    <glyph glyph-name="uni042F" unicode="&#x42f;" horiz-adv-x="1280" 
d="M657 518l-307 -518h-282v84l319 506q-274 88 -274 385q0 217 142 338t409 121h489v-1434h-319v518h-177zM834 737v469h-162q-126 0 -182 -63q-56 -65 -56 -168q0 -107 56 -172q55 -66 182 -66h162z" />
    <glyph glyph-name="uni0430" unicode="&#x430;" horiz-adv-x="1102" 
d="M512 176q100 0 184 82v205q-70 12 -153 12q-199 0 -199 -147q0 -76 45 -114t123 -38zM995 0h-125q-69 0 -105 21q-35 19 -52 85q-112 -118 -312 -118q-155 0 -251.5 84.5t-96.5 238.5q0 164 117.5 250t310.5 86q121 0 215 -24v102q0 76 -45.5 112.5t-150.5 36.5
q-156 0 -279 -83h-84v210q77 34 176 63q96 28 234 28q223 0 336 -80q112 -79 112 -267v-745z" />
    <glyph glyph-name="uni0431" unicode="&#x431;" horiz-adv-x="1161" 
d="M582 -14q-94 0 -172.5 20.5t-145.5 67.5t-113 119t-72 178t-26 241v39q0 165 24 299q23 134 93 231q71 100 197 155t323 67q43 3 160 18q35 6 55 13h105v-232l-101 -16q-134 -23 -241 -29q-147 -11 -228 -65q-82 -55 -100 -183q148 111 346 111q203 0 312.5 -121
t109.5 -354q0 -265 -148 -412t-378 -147zM582 199q101 0 163 77q60 76 60 261q0 149 -57 208q-58 58 -162 58q-82 0 -138 -32q-55 -31 -92 -64v-99q0 -157 24.5 -247t72.5 -126t129 -36z" />
    <glyph glyph-name="uni0432" unicode="&#x432;" horiz-adv-x="1102" 
d="M997 795q0 -100 -49.5 -152t-154.5 -74v-8q127 -23 189 -75q62 -54 62 -171q0 -315 -430 -315h-501v1075h481q206 0 304.5 -69t98.5 -211zM571 872h-165v-217h165q72 0 104 27.5t32 83.5q0 54 -32.5 80t-103.5 26zM406 459v-256h184q96 0 124 37q27 36 27 94q0 60 -28 92
q-29 33 -123 33h-184z" />
    <glyph glyph-name="uni0433" unicode="&#x433;" horiz-adv-x="889" 
d="M858 1075v-211h-446v-864h-299v1075h745z" />
    <glyph glyph-name="uni0434" unicode="&#x434;" horiz-adv-x="1313" 
d="M485 457q-13 -168 -77 -258h415v661h-323q0 -45 -2 -139q-6 -159 -13 -264zM281 0l-21 -246h-229v445h61q64 24 95.5 91.5t41.5 196.5q1 10 8 175q4 126 7 192q5 110 6 221h872v-876h140v-445h-230l-20 246h-731z" />
    <glyph glyph-name="uni0435" unicode="&#x435;" horiz-adv-x="1112" 
d="M578 903q-86 0 -142 -56t-71 -196h401q-5 145 -52 198q-48 54 -136 54zM1020 287v-197q-57 -31 -102.5 -50t-132.5 -36.5t-187 -17.5q-264 0 -404 147q-141 145 -141 399q0 255 148 407.5t377 152.5q483 0 483 -529q0 -22 -2 -56t-2 -36h-697q14 -154 82 -214t201 -60
q160 0 285 90h92z" />
    <glyph glyph-name="uni0436" unicode="&#x436;" horiz-adv-x="1726" 
d="M711 0v449h-121l-275 -449h-270v82l291 485l-260 430v78h252l260 -426h123v426h299v-426h123l260 426h245v-78l-254 -419l297 -496v-82h-276l-275 449h-120v-449h-299z" />
    <glyph glyph-name="uni0437" unicode="&#x437;" horiz-adv-x="965" 
d="M428 203q107 0 143 37q35 37 35 90q0 60 -38 89q-38 27 -136 27h-129v197h129q162 0 162 115q0 114 -168 114q-83 0 -135 -23q-51 -24 -84 -54h-115v223q52 27 129 50q79 24 207 24q239 0 348 -83q107 -83 107 -225q0 -102 -63 -156t-163 -71v-8q119 -10 184.5 -71
t65.5 -177q0 -143 -110 -229q-112 -86 -338 -86q-241 0 -396 98v205h103q35 -34 98 -59q62 -27 164 -27z" />
    <glyph glyph-name="uni0438" unicode="&#x438;" horiz-adv-x="1223" 
d="M113 1075h290v-721h5l399 721h303v-1075h-291v723h-4l-399 -723h-303v1075z" />
    <glyph glyph-name="uni0439" unicode="&#x439;" horiz-adv-x="1223" 
d="M610 1153q-123 0 -200 59.5t-97 145.5v76h226q3 -57 17 -84t54 -27q43 0 56 31q11 28 16 80h225v-76q-17 -85 -96 -145t-201 -60zM113 1075h290v-721h5l399 721h303v-1075h-291v723h-4l-399 -723h-303v1075z" />
    <glyph glyph-name="uni043A" unicode="&#x43a;" horiz-adv-x="1149" 
d="M827 0l-274 449h-141v-449h-299v1075h299v-426h143l260 426h246v-78l-254 -419l297 -496v-82h-277z" />
    <glyph glyph-name="uni043B" unicode="&#x43b;" horiz-adv-x="1190" 
d="M778 0v860h-293q-2 -93 -6 -178q-5 -74 -6 -153l-2.5 -79.5t-1.5 -54.5q-10 -212 -83 -312.5t-224 -100.5q-58 0 -96 20q-19 7 -31 21v204h35q72 0 97 42q26 42 36 157q8 108 12 221q1 21 3.5 97.5t4.5 113.5q4 100 4 217h850v-1075h-299z" />
    <glyph glyph-name="uni043C" unicode="&#x43c;" horiz-adv-x="1460" 
d="M113 0v1075h391l246 -631h6l225 631h385v-1075h-287v748h-4l-266 -748h-170l-283 748h-6v-748h-237z" />
    <glyph glyph-name="uni043D" unicode="&#x43d;" horiz-adv-x="1212" 
d="M801 0v449h-389v-449h-299v1075h299v-426h389v426h186q73 0 93 -36t20 -160v-879h-299z" />
    <glyph glyph-name="uni043E" unicode="&#x43e;" horiz-adv-x="1204" 
d="M602 -14q-114 0 -213.5 37.5t-174.5 106t-118 172.5t-43 230q0 169 74.5 298t198.5 195.5t276 66.5q113 0 213 -39t174.5 -110t118 -177.5t43.5 -233.5q0 -126 -43.5 -230t-118 -172.5t-174.5 -106t-213 -37.5zM602 199q112 0 179 79q67 77 67 252q0 178 -67 263
q-68 86 -179 86q-110 0 -178 -86t-68 -263q0 -173 68 -252q67 -79 178 -79z" />
    <glyph glyph-name="uni043F" unicode="&#x43f;" horiz-adv-x="1194" 
d="M412 874v-874h-299v1075h974v-1075h-299v874h-376z" />
    <glyph glyph-name="uni0440" unicode="&#x440;" horiz-adv-x="1210" 
d="M604 219q53 0 93.5 13.5t76.5 47t55 99t19 160.5q0 94 -18 159.5t-51.5 100t-73 49t-91.5 14.5q-46 0 -101 -15q-62 -18 -101 -38v-530q76 -60 192 -60zM680 12q-160 0 -268 78v-422h-299v1407h202q39 0 59.5 -22t31.5 -82q144 121 331 121q81 0 152.5 -29.5t131.5 -90
t95 -165t35 -242.5q0 -117 -26 -211.5t-70.5 -157.5t-105.5 -105t-128 -60.5t-141 -18.5z" />
    <glyph glyph-name="uni0441" unicode="&#x441;" horiz-adv-x="1022" 
d="M610 -14q-264 0 -410 144q-147 144 -147 405q0 254 160.5 405.5t411.5 151.5q127 0 204 -24q71 -22 125 -50v-223h-114q-85 77 -215 77q-117 0 -193 -85t-76 -255q0 -174 72 -251q72 -78 188 -78q97 0 151 27q54 25 89 59h102v-205q-52 -34 -136 -65q-87 -33 -212 -33z
" />
    <glyph glyph-name="uni0442" unicode="&#x442;" horiz-adv-x="979" 
d="M31 864v211h917v-211h-309v-864h-299v864h-309z" />
    <glyph glyph-name="uni0443" unicode="&#x443;" horiz-adv-x="1124" 
d="M297 -332v80l145 305l-403 944v78h280l265 -663h4l243 663h256v-78l-534 -1329h-256z" />
    <glyph glyph-name="uni0444" unicode="&#x444;" horiz-adv-x="1620" 
d="M958 1266v-174q290 0 451 -143q160 -144 160 -404q0 -261 -161.5 -410t-449.5 -149v-318h-299v318q-287 0 -448 143q-160 142 -160 403t161.5 410.5t446.5 149.5v342h183q75 0 95.5 -31t20.5 -137zM958 879v-680q308 0 308 348q0 173 -75.5 252.5t-232.5 79.5zM354 530
q0 -172 75 -251.5t230 -79.5v680q-305 0 -305 -349z" />
    <glyph glyph-name="uni0445" unicode="&#x445;" horiz-adv-x="1114" 
d="M49 0v78l316 467l-297 452v78h284l226 -364l206 364h248v-78l-276 -436l309 -483v-78h-283l-241 399l-240 -399h-252z" />
    <glyph glyph-name="uni0446" unicode="&#x446;" horiz-adv-x="1253" 
d="M1202 -246h-229l-21 246h-839v1075h299v-876h352v876h186q73 0 93 -36t20 -160v-680h139v-445z" />
    <glyph glyph-name="uni0447" unicode="&#x447;" horiz-adv-x="1159" 
d="M1047 0h-299v416q-142 -58 -302 -58q-165 0 -256.5 81.5t-91.5 273.5v362h299v-321q0 -102 42 -137q43 -35 124 -35q95 0 185 30v463h186q73 0 93 -36.5t20 -159.5v-879z" />
    <glyph glyph-name="uni0448" unicode="&#x448;" horiz-adv-x="1692" 
d="M1579 0h-1466v1075h299v-874h284v874h299v-874h285v874h186q73 0 93 -36t20 -160v-879z" />
    <glyph glyph-name="uni0449" unicode="&#x449;" horiz-adv-x="1769" 
d="M1718 -246h-229l-21 246h-1355v1075h299v-874h284v874h299v-874h285v874h186q73 0 93 -36t20 -160v-678h139v-447z" />
    <glyph glyph-name="uni044A" unicode="&#x44a;" horiz-adv-x="1255" 
d="M745 0h-444v874h-270v201h565v-346h158q208 0 329 -89t121 -271q0 -187 -123 -278q-122 -91 -336 -91zM596 528v-327h133q180 0 180 161q0 166 -180 166h-133z" />
    <glyph glyph-name="uni044B" unicode="&#x44b;" horiz-adv-x="1511" 
d="M1399 0h-299v1075h186q73 0 93 -36t20 -160v-879zM408 1075v-346h157q208 0 329.5 -89t121.5 -271q0 -187 -123 -278q-122 -91 -336 -91h-444v1075h295zM408 528v-327h133q180 0 180 161q0 166 -180 166h-133z" />
    <glyph glyph-name="uni044C" unicode="&#x44c;" horiz-adv-x="1067" 
d="M408 1075v-346h157q208 0 329.5 -89t121.5 -271q0 -187 -123 -278q-122 -91 -336 -91h-444v1075h295zM408 528v-327h133q180 0 180 161q0 166 -180 166h-133z" />
    <glyph glyph-name="uni044D" unicode="&#x44d;" horiz-adv-x="1022" 
d="M412 -14q-125 0 -212 33q-86 31 -137 65v205h103q35 -34 89 -59q54 -27 151 -27q219 0 262 237h-377v201h377q-21 114 -90 172.5t-181 58.5q-130 0 -215 -77h-114v223q52 27 126 50q76 24 203 24q267 0 422.5 -141.5t155.5 -393.5q0 -266 -149 -418.5t-414 -152.5z" />
    <glyph glyph-name="uni044E" unicode="&#x44e;" horiz-adv-x="1653" 
d="M1071 -16q-212 0 -356 124t-168 341h-133v-449h-299v1075h186q73 0 93 -36t20 -160v-230h137q31 205 176 325q143 118 344 118q152 0 271 -67t188 -195t69 -298q0 -254 -147.5 -401t-380.5 -147zM1071 197q102 0 164 80q61 79 61 253q0 173 -59.5 261t-165.5 88
q-105 0 -165 -88t-60 -261t62 -253t163 -80z" />
    <glyph glyph-name="uni044F" unicode="&#x44f;" horiz-adv-x="1073" 
d="M987 -2h-295v358h-119l-249 -356h-254v82l252 328q-100 32 -158 102q-60 70 -60 199q0 185 123 274q122 88 336 88h424v-1075zM692 557v315h-112q-88 0 -134.5 -36t-46.5 -119q0 -160 181 -160h112z" />
    <glyph glyph-name="uni0451" unicode="&#x451;" horiz-adv-x="1112" 
d="M375 1159q-64 0 -109 43.5t-45 106.5q0 62 45 105.5t109 43.5t109 -43.5t45 -105.5q0 -63 -45 -106.5t-109 -43.5zM768 1159q-64 0 -108.5 43.5t-44.5 106.5q0 62 44.5 105.5t108.5 43.5t109 -43.5t45 -105.5q0 -63 -45 -106.5t-109 -43.5zM578 903q-86 0 -142 -56
t-71 -196h401q-5 145 -52 198q-48 54 -136 54zM1020 287v-197q-57 -31 -102.5 -50t-132.5 -36.5t-187 -17.5q-264 0 -404 147q-141 145 -141 399q0 255 148 407.5t377 152.5q483 0 483 -529q0 -22 -2 -56t-2 -36h-697q14 -154 82 -214t201 -60q160 0 285 90h92z" />
    <glyph glyph-name="uni0453" unicode="&#x453;" horiz-adv-x="889" 
d="M858 1075v-211h-446v-864h-299v1075h745zM567 1151h-170v63l70 220h303v-86z" />
    <glyph glyph-name="uni045E" unicode="&#x45e;" horiz-adv-x="1124" 
d="M600 1153q-114 0 -186.5 60t-89.5 145v76h204q3 -56 17.5 -83.5t54.5 -27.5q43 0 56 31q11 28 16 80h205v-76q-20 -86 -91.5 -145.5t-185.5 -59.5zM297 -332v80l145 305l-403 944v78h280l265 -663h4l243 663h256v-78l-534 -1329h-256z" />
    <glyph glyph-name="uni0490" unicode="&#x490;" horiz-adv-x="1073" 
d="M446 1208v-1208h-319v1434h649l39 270h225v-496h-594z" />
    <glyph glyph-name="Wgrave" unicode="&#x1e80;" horiz-adv-x="1878" 
d="M367 0l-320 1350v84h303l221 -1039h4l246 1039h271l254 -1039h4l213 1039h268v-84l-322 -1350h-354l-215 938h-4l-213 -938h-356zM1049 1479h-170l-203 176v86h303l70 -199v-63z" />
    <glyph glyph-name="wgrave" unicode="&#x1e81;" horiz-adv-x="1626" 
d="M340 0l-297 997v78h285l180 -678h4l211 678h229l197 -678h4l193 678h237v-78l-305 -997h-264l-201 668h-4l-209 -668h-260zM924 1151h-170l-203 197v86h303l70 -220v-63z" />
    <glyph glyph-name="Wacute" unicode="&#x1e82;" horiz-adv-x="1878" 
d="M367 0l-320 1350v84h303l221 -1039h4l246 1039h271l254 -1039h4l213 1039h268v-84l-322 -1350h-354l-215 938h-4l-213 -938h-356zM1034 1479h-170v63l70 199h303v-86z" />
    <glyph glyph-name="wacute" unicode="&#x1e83;" horiz-adv-x="1626" 
d="M340 0l-297 997v78h285l180 -678h4l211 678h229l197 -678h4l193 678h237v-78l-305 -997h-264l-201 668h-4l-209 -668h-260zM919 1151h-170v63l70 220h303v-86z" />
    <glyph glyph-name="Wdieresis" unicode="&#x1e84;" horiz-adv-x="1878" 
d="M367 0l-320 1350v84h303l221 -1039h4l246 1039h271l254 -1039h4l213 1039h268v-84l-322 -1350h-354l-215 938h-4l-213 -938h-356zM760 1481q-64 0 -109 43.5t-45 106.5q0 62 45 105.5t109 43.5t109 -43.5t45 -105.5q0 -63 -45 -106.5t-109 -43.5zM1153 1481
q-64 0 -108.5 43.5t-44.5 106.5q0 62 44.5 105.5t108.5 43.5t109 -43.5t45 -105.5q0 -63 -45 -106.5t-109 -43.5z" />
    <glyph glyph-name="wdieresis" unicode="&#x1e85;" horiz-adv-x="1626" 
d="M340 0l-297 997v78h285l180 -678h4l211 678h229l197 -678h4l193 678h237v-78l-305 -997h-264l-201 668h-4l-209 -668h-260zM641 1159q-64 0 -109 43.5t-45 106.5q0 62 45 105.5t109 43.5t109 -43.5t45 -105.5q0 -63 -45 -106.5t-109 -43.5zM1034 1159q-64 0 -108.5 43.5
t-44.5 106.5q0 62 44.5 105.5t108.5 43.5t109 -43.5t45 -105.5q0 -63 -45 -106.5t-109 -43.5z" />
    <glyph glyph-name="Ygrave" unicode="&#x1ef2;" horiz-adv-x="1253" 
d="M801 0h-320v555l-444 788v91h299l321 -603h5l309 603h246v-91l-416 -780v-563zM742 1479h-170l-203 176v86h303l70 -199v-63z" />
    <glyph glyph-name="ygrave" unicode="&#x1ef3;" horiz-adv-x="1124" 
d="M297 -332v80l145 305l-403 944v78h280l265 -663h4l243 663h256v-78l-534 -1329h-256zM670 1151h-170l-203 197v86h303l70 -220v-63z" />
    <glyph glyph-name="endash" unicode="&#x2013;" horiz-adv-x="936" 
d="M98 463v231h740v-231h-740z" />
    <glyph glyph-name="emdash" unicode="&#x2014;" horiz-adv-x="1571" 
d="M98 463v231h1375v-231h-1375z" />
    <glyph glyph-name="quoteleft" unicode="&#x2018;" horiz-adv-x="442" 
d="M385 1438v-131q-60 -7 -91.5 -27t-31.5 -47q0 -13 5.5 -22.5t12.5 -13.5l21 -11.5t23 -13.5q59 -41 59 -115q0 -58 -44 -96.5t-110 -38.5q-72 0 -121 48t-49 138q0 302 326 330z" />
    <glyph glyph-name="quoteright" unicode="&#x2019;" horiz-adv-x="442" 
d="M57 932v131q59 6 91 26.5t32 47.5q0 17 -6 25.5t-27.5 20t-27.5 15.5q-30 20 -45 46.5t-15 68.5q0 58 44 96.5t110 38.5q72 0 121 -48t49 -138q0 -304 -326 -330z" />
    <glyph glyph-name="quotesinglbase" unicode="&#x201a;" horiz-adv-x="442" 
d="M57 -207v131q59 6 91 26.5t32 47.5q0 17 -6 25.5t-27.5 20t-27.5 15.5q-60 41 -60 115q0 58 44 96.5t110 38.5q72 0 121 -48t49 -138q0 -152 -80 -234t-246 -96z" />
    <glyph glyph-name="quotedblleft" unicode="&#x201c;" horiz-adv-x="842" 
d="M385 1438v-131q-60 -7 -91.5 -27t-31.5 -47q0 -13 5.5 -22.5t12.5 -13.5l21 -11.5t23 -13.5q59 -41 59 -115q0 -58 -44 -96.5t-110 -38.5q-72 0 -121 48t-49 138q0 302 326 330zM784 1438v-131q-59 -7 -90.5 -27t-31.5 -47q0 -17 6 -25.5t27.5 -20t27.5 -15.5
q59 -40 59 -115q0 -58 -43.5 -96.5t-109.5 -38.5q-72 0 -121 48t-49 138q0 152 80 234t245 96z" />
    <glyph glyph-name="quotedblright" unicode="&#x201d;" horiz-adv-x="842" 
d="M457 932v131q59 6 91 26.5t32 47.5q0 13 -5.5 22.5t-12.5 13.5l-21 11.5t-23 13.5q-59 40 -59 115q0 58 43.5 96.5t109.5 38.5q73 0 121.5 -47.5t48.5 -138.5q0 -304 -325 -330zM57 932v131q59 6 91 26.5t32 47.5q0 17 -6 25.5t-27.5 20t-27.5 15.5q-30 20 -45 46.5
t-15 68.5q0 58 44 96.5t110 38.5q72 0 121 -48t49 -138q0 -304 -326 -330z" />
    <glyph glyph-name="quotedblbase" unicode="&#x201e;" horiz-adv-x="842" 
d="M457 -207v131q59 6 91 26.5t32 47.5q0 13 -5.5 22.5t-12.5 13.5l-21 11.5t-23 13.5q-59 40 -59 115q0 58 43.5 96.5t109.5 38.5q73 0 121.5 -47.5t48.5 -138.5q0 -152 -80 -234t-245 -96zM57 -207v131q59 6 91 26.5t32 47.5q0 17 -6 25.5t-27.5 20t-27.5 15.5
q-60 41 -60 115q0 58 44 96.5t110 38.5q72 0 121 -48t49 -138q0 -152 -80 -234t-246 -96z" />
    <glyph glyph-name="dagger" unicode="&#x2020;" horiz-adv-x="961" 
d="M371 -100l-43 633v124l61 224l-225 -64h-115v289h115l225 -66l-53 211v183h289v-183l-54 -211l226 66h114v-289h-114l-226 64l62 -219v-127l-43 -635h-219z" />
    <glyph glyph-name="daggerdbl" unicode="&#x2021;" horiz-adv-x="961" 
d="M635 723v-109l-66 -161l228 63h114v-289h-114l-228 66l56 -211v-182h-289v182l55 211l-227 -66h-115v289h115l227 -63l-65 157v109l65 162l-227 -64h-115v289h115l227 -66l-55 211v183h289v-183l-56 -211l228 66h114v-289h-114l-228 64z" />
    <glyph glyph-name="bullet" unicode="&#x2022;" horiz-adv-x="696" 
d="M348 297q-120 0 -201 74.5t-81 199.5q0 126 81 202.5t201 76.5q121 0 202 -76.5t81 -202.5t-80.5 -200t-202.5 -74z" />
    <glyph glyph-name="ellipsis" unicode="&#x2026;" horiz-adv-x="1393" 
d="M229 -12q-71 0 -119.5 47t-48.5 117q0 69 49 117t119 48t119 -48t49 -117t-49 -116.5t-119 -47.5zM696 -12q-71 0 -119.5 47t-48.5 117q0 69 49 117t119 48t119 -48t49 -117t-49 -116.5t-119 -47.5zM1163 -12q-71 0 -119.5 47t-48.5 117q0 69 49 117t119 48
q69 0 118.5 -48t49.5 -117t-49 -116.5t-119 -47.5z" />
    <glyph glyph-name="perthousand" unicode="&#x2030;" horiz-adv-x="2501" 
d="M399 852q127 0 127 215t-127 215t-127 -215q0 -108 33.5 -161.5t93.5 -53.5zM399 684q-97 0 -177.5 41.5t-132.5 131t-52 214.5q0 184 105 281.5t257 97.5q73 0 137 -23t115 -68.5t81 -119.5t30 -168q0 -125 -52 -214.5t-132.5 -131t-178.5 -41.5zM453 -70h-224
l1010 1563h223zM1298 152q127 0 127 215t-127 215q-126 0 -126 -215t126 -215zM1298 -16q-97 0 -177.5 41.5t-132.5 131t-52 214.5q0 184 105 281.5t257 97.5q73 0 137 -23t115 -68.5t81 -119.5t30 -168q0 -125 -52 -214.5t-132.5 -131t-178.5 -41.5zM2101 152
q127 0 127 215t-127 215t-127 -215t127 -215zM2101 -16q-97 0 -177.5 41.5t-132.5 131t-52 214.5q0 184 105 281.5t257 97.5q73 0 137 -23t115 -68.5t81 -119.5t30 -168q0 -125 -52 -214.5t-132.5 -131t-178.5 -41.5z" />
    <glyph glyph-name="guilsinglleft" unicode="&#x2039;" horiz-adv-x="623" 
d="M317 82l-245 391v117l245 393h234v-65l-227 -379v-6l227 -385v-66h-234z" />
    <glyph glyph-name="guilsinglright" unicode="&#x203a;" horiz-adv-x="623" 
d="M551 473l-246 -391h-233v66l227 385v6l-227 379v65h233l246 -393v-117z" />
    <glyph glyph-name="fraction" unicode="&#x2044;" horiz-adv-x="455" 
d="M-170 -70h-213l1010 1563h213z" />
    <glyph glyph-name="Euro" unicode="&#x20ac;" horiz-adv-x="1223" 
d="M145 774h-100v178h125q56 236 219 367t404 131q122 0 201.5 -19t162.5 -63v-225h-117q-100 76 -237 76q-128 0 -204 -67t-107 -200h395l-37 -178h-379v-112h356l-36 -179h-301q26 -140 95 -205t197 -65q175 0 289 109h101v-218q-162 -120 -404 -120q-241 0 -397 130
t-205 369h-121v179h98v51q0 41 2 61z" />
    <glyph glyph-name="uni20BD" unicode="&#x20bd;" horiz-adv-x="1405" 
d="M819 434v-203h-322v-231h-282v231h-195v203h195v107h-195v203h195v712h587q240 0 385 -125q144 -126 144 -334q0 -212 -137 -332q-136 -121 -381 -124h-316v-107h322zM497 1252v-508h271q137 0 208.5 63.5t71.5 187.5q0 113 -55 183q-56 71 -210 74h-286z" />
    <glyph glyph-name="uni2116" unicode="&#x2116;" horiz-adv-x="2094" 
d="M144 0v1456h350l511 -934h6v934h259v-1456h-281l-582 1063h-6v-1063h-257zM2018 637v-149h-642v149h642zM1694 792q-140 0 -233.5 88.5t-93.5 237.5q0 151 94 242t233 91q140 0 233.5 -91t93.5 -242q0 -150 -93.5 -238t-233.5 -88zM1694 920q146 0 146 197
q0 102 -39 154.5t-107 52.5q-67 0 -106.5 -52.5t-39.5 -154.5q0 -101 39 -149t107 -48z" />
    <glyph glyph-name="trademark" unicode="&#x2122;" horiz-adv-x="1401" 
d="M774 860h-141v574h258l90 -312h2l92 312h254v-574h-166v436h-2l-133 -436h-121l-131 436h-2v-436zM385 860h-170v451h-164v123h500v-123h-166v-451z" />
    <glyph glyph-name="onethird" unicode="&#x2153;" horiz-adv-x="1567" 
d="M438 645h-239v561l-107 -55h-45v168l217 115h174v-789zM307 -70h-213l1010 1563h213zM1178 -12q-143 0 -244 63v146h80q21 -20 59.5 -36t81.5 -16q129 0 129 89q0 88 -123 88h-73v147h67q58 0 91.5 23t33.5 63q0 78 -102 78q-80 0 -142 -43h-77v141q108 70 251 70
q131 0 210 -55t79 -164q0 -132 -160 -176v-5q172 -28 172 -180q0 -112 -89 -172.5t-244 -60.5z" />
    <glyph glyph-name="twothirds" unicode="&#x2154;" horiz-adv-x="1716" 
d="M627 817v-172h-576v172l219 203q66 61 94.5 100.5t28.5 75.5q0 34 -25.5 55t-70.5 21q-41 0 -81.5 -15.5t-63.5 -35.5h-82v151q108 74 262 74q144 0 220.5 -57.5t76.5 -173.5q0 -80 -43.5 -140t-145.5 -147l-129 -111h316zM483 -70h-213l1010 1563h213zM1327 -12
q-141 0 -244 63v146h80q57 -52 142 -52q129 0 129 89q0 88 -123 88h-74v147h68q58 0 91.5 23t33.5 63q0 78 -103 78q-79 0 -141 -43h-78v141q108 70 252 70q131 0 210 -55t79 -164q0 -132 -160 -176v-5q172 -29 172 -180q0 -112 -89 -172.5t-245 -60.5z" />
    <glyph glyph-name="oneeighth" unicode="&#x215b;" horiz-adv-x="1604" 
d="M438 645h-239v561l-107 -55h-45v168l217 115h174v-789zM315 -70h-213l1010 1563h213zM1223 -16q-159 0 -246.5 63.5t-87.5 173.5q0 147 151 197v4q-120 40 -120 166q0 98 83.5 155.5t219.5 57.5q133 0 217 -57.5t84 -155.5q0 -127 -119 -166v-4q149 -49 149 -197
q0 -110 -86.5 -173.5t-244.5 -63.5zM1223 131q54 0 81 29.5t27 79.5q0 49 -27 79.5t-81 30.5q-56 0 -84.5 -30.5t-28.5 -79.5q0 -50 28.5 -79.5t84.5 -29.5zM1223 479q42 0 66 22.5t24 63.5q0 42 -24 65t-66 23q-45 0 -68.5 -23t-23.5 -65q0 -41 23.5 -63.5t68.5 -22.5z" />
    <glyph glyph-name="threeeighths" unicode="&#x215c;" horiz-adv-x="1661" 
d="M301 633q-138 0 -244 63v146h80q22 -20 60 -35.5t82 -15.5q129 0 129 88t-123 88h-74v147h68q58 0 91.5 23t33.5 63q0 78 -103 78q-81 0 -141 -43h-78v141q108 70 252 70q131 0 210 -55t79 -164q0 -132 -160 -176v-4q172 -30 172 -181q0 -112 -89 -172.5t-245 -60.5z
M410 -70h-213l1009 1563h213zM1280 -16q-159 0 -246.5 63.5t-87.5 173.5q0 76 37.5 124t114.5 73v4q-121 40 -121 166q0 98 83.5 155.5t219.5 57.5q133 0 217 -57.5t84 -155.5q0 -127 -119 -166v-4q76 -25 113 -72.5t37 -124.5q0 -110 -87 -173.5t-245 -63.5zM1280 131
q55 0 82 29.5t27 79.5q0 49 -27.5 79.5t-81.5 30.5q-56 0 -84.5 -30.5t-28.5 -79.5q0 -50 28.5 -79.5t84.5 -29.5zM1280 479q42 0 66 22.5t24 63.5q0 42 -24 65t-66 23q-44 0 -68 -23t-24 -65q0 -41 24 -63.5t68 -22.5z" />
    <glyph glyph-name="fiveeighths" unicode="&#x215d;" horiz-adv-x="1677" 
d="M647 899q0 -124 -93 -195t-255 -71q-134 0 -238 57v152h82q55 -47 142 -47q63 0 97 27t34 77q0 49 -28 73.5t-71 24.5q-61 0 -102 -45h-131v482h522v-172h-358v-154h4q56 37 147 37q111 0 179.5 -63t68.5 -183zM414 -70h-213l1009 1563h213zM1296 -16q-159 0 -246 63.5
t-87 173.5q0 147 151 197v4q-121 40 -121 166q0 98 83.5 155.5t219.5 57.5q134 0 217.5 -57.5t83.5 -155.5q0 -127 -118 -166v-4q149 -49 149 -197q0 -110 -87 -173.5t-245 -63.5zM1296 131q55 0 82 29.5t27 79.5q0 49 -27.5 79.5t-81.5 30.5q-55 0 -83.5 -30.5t-28.5 -79.5
q0 -50 28 -79.5t84 -29.5zM1296 479q42 0 66.5 22.5t24.5 63.5q0 42 -24.5 65t-66.5 23q-44 0 -68 -23t-24 -65q0 -41 24 -63.5t68 -22.5z" />
    <glyph glyph-name="seveneighths" unicode="&#x215e;" horiz-adv-x="1618" 
d="M133 645v68l291 536v4h-373v181h561v-191l-249 -598h-230zM317 -70h-213l1010 1563h213zM1237 -16q-159 0 -246.5 63.5t-87.5 173.5q0 76 37.5 124t114.5 73v4q-121 40 -121 166q0 98 83.5 155.5t219.5 57.5q133 0 217 -57.5t84 -155.5q0 -127 -119 -166v-4
q76 -25 113 -72.5t37 -124.5q0 -110 -87 -173.5t-245 -63.5zM1237 131q55 0 82 29.5t27 79.5q0 49 -27.5 79.5t-81.5 30.5q-56 0 -84.5 -30.5t-28.5 -79.5q0 -50 28.5 -79.5t84.5 -29.5zM1237 479q42 0 66 22.5t24 63.5q0 42 -24 65t-66 23q-44 0 -68 -23t-24 -65
q0 -41 24 -63.5t68 -22.5z" />
    <glyph glyph-name="minus" unicode="&#x2212;" horiz-adv-x="1083" 
d="M1030 590h-977v235h977v-235z" />
    <glyph glyph-name="NULL" horiz-adv-x="0" 
 />
    <glyph glyph-name="CR" horiz-adv-x="682" 
 />
    <glyph glyph-name="glyph44" 
d="M502 1151h-170l-203 197v86h303l70 -220v-63z" />
    <glyph glyph-name="glyph72" 
d="M213 1159q-64 0 -109 43.5t-45 106.5q0 62 45 105.5t109 43.5t109 -43.5t45 -105.5q0 -63 -45 -106.5t-109 -43.5zM606 1159q-64 0 -108.5 43.5t-44.5 106.5q0 62 44.5 105.5t108.5 43.5t109 -43.5t45 -105.5q0 -63 -45 -106.5t-109 -43.5z" />
    <glyph glyph-name="glyph73" 
d="M676 1397v-201h-533v201h533z" />
    <glyph glyph-name="glyph74" 
d="M487 1151h-170v63l70 220h303v-86z" />
    <glyph glyph-name="glyph131" 
d="M123 1151v76l186 207h205l178 -207v-76h-164l-125 96l-124 -96h-156z" />
    <glyph glyph-name="glyph132" 
d="M692 1434v-76l-186 -207h-205l-178 207v76h164l125 -97l125 97h155z" />
    <glyph glyph-name="glyph133" 
d="M410 1153q-115 0 -187.5 60t-89.5 145v76h189q7 -86 88 -86q76 0 88 86h188v-76q-17 -85 -89.5 -145t-186.5 -60z" />
    <glyph glyph-name="glyph134" 
d="M410 1159q-68 0 -115 46t-47 112t47 113t115 47q67 0 114 -47t47 -113t-47 -112t-114 -46z" />
    <glyph glyph-name="glyph135" 
d="M410 1159q-91 0 -153 56t-62 149t62.5 150t152.5 57t152.5 -57t62.5 -150t-62.5 -149t-152.5 -56zM410 1286q34 0 54.5 21.5t19.5 56.5q1 37 -19.5 58.5t-54.5 21.5t-54 -21.5t-20 -58.5q0 -35 20 -56.5t54 -21.5z" />
    <glyph glyph-name="glyph136" 
d="M66 1155v78q17 95 68.5 143.5t133.5 48.5q54 0 127.5 -26.5t93.5 -26.5q51 0 68 55h164v-77q-35 -193 -203 -193q-54 0 -127 28.5t-92 28.5q-56 0 -70 -59h-163z" />
    <glyph glyph-name="glyph137" 
d="M154 1151v57l65 226h246v-86l-150 -197h-161zM487 1151v57l66 226h246v-86l-150 -197h-162z" />
    <glyph glyph-name="glyph254" 
d="M279 -453v119q46 4 68 18.5t22 34.5q0 9 -4.5 16t-9.5 10t-15.5 8.5t-15.5 8.5q-24 18 -33.5 38t-9.5 55q0 47 34.5 77.5t87.5 30.5q57 0 97 -36q41 -36 41 -113q0 -246 -262 -267z" />
    <glyph glyph-name="glyph255" 
d="M541 1587v-119q-90 -7 -90 -53q0 -7 2 -12.5t7.5 -9.5t9.5 -6.5t13 -7.5t13 -7q43 -31 43 -92q0 -46 -35 -78q-34 -31 -88 -31q-56 0 -96 36q-41 36 -41 114q0 247 262 266z" />
    <glyph glyph-name="glyph256" 
d="M502 1479h-170l-203 176v86h303l70 -199v-63z" />
    <glyph glyph-name="glyph257" 
d="M213 1481q-64 0 -109 43.5t-45 106.5q0 62 45 105.5t109 43.5t109 -43.5t45 -105.5q0 -63 -45 -106.5t-109 -43.5zM606 1481q-64 0 -108.5 43.5t-44.5 106.5q0 62 44.5 105.5t108.5 43.5t109 -43.5t45 -105.5q0 -63 -45 -106.5t-109 -43.5z" />
    <glyph glyph-name="glyph258" 
d="M684 1704v-201h-549v201h549z" />
    <glyph glyph-name="glyph259" 
d="M487 1479h-170v63l70 199h303v-86z" />
    <glyph glyph-name="glyph260" 
d="M123 1479v75l186 195h205l178 -195v-75h-164l-125 84l-124 -84h-156z" />
    <glyph glyph-name="glyph261" 
d="M692 1749v-76l-186 -194h-205l-178 194v76h164l125 -84l125 84h155z" />
    <glyph glyph-name="glyph262" 
d="M410 1481q-114 0 -187 56t-90 132v76h189q3 -29 25 -48.5t63 -19.5q74 0 88 68h188v-76q-17 -76 -89.5 -132t-186.5 -56z" />
    <glyph glyph-name="glyph263" 
d="M410 1481q-68 0 -115 46t-47 112t47 113t115 47q67 0 114 -47t47 -113t-47 -112t-114 -46z" />
    <glyph glyph-name="glyph264" 
d="M410 1483q-91 0 -153 56t-62 149t62.5 150t152.5 57t152.5 -57t62.5 -150t-62.5 -149t-152.5 -56zM410 1610q34 0 54.5 21.5t19.5 56.5q1 37 -19.5 58.5t-54.5 21.5t-54 -21.5t-20 -58.5q0 -35 20 -56.5t54 -21.5z" />
    <glyph glyph-name="glyph265" 
d="M66 1479v78q17 95 68.5 143.5t133.5 48.5q54 0 127.5 -26.5t93.5 -26.5q51 0 68 55h164v-77q-35 -193 -203 -193q-54 0 -127 28.5t-92 28.5q-56 0 -70 -59h-163z" />
    <glyph glyph-name="glyph266" 
d="M154 1479v57l61 205h246v-86l-146 -176h-161zM487 1479v57l62 205h246v-86l-146 -176h-162z" />
    <glyph glyph-name="glyph267" horiz-adv-x="664" 
d="M31 874v201h127v82q0 154 90 226q91 71 250 71q94 0 164 -27v-180h-68q-65 0 -100 -19q-37 -19 -37 -81v-72h205v-201h-205v-874h-299v874h-127z" />
    <glyph glyph-name="glyph268" horiz-adv-x="1282" 
d="M457 874v-874h-299v874h-127v201h127v70q0 150 88 223.5t252 73.5q89 0 170 -27v-180h-74q-65 0 -100 -19q-37 -19 -37 -81v-60h319v82q0 154 90 226q91 71 250 71q94 0 164 -27v-180h-68q-63 0 -100 -19t-37 -81v-72h205v-201h-205v-874h-299v874h-319z" />
    <glyph glyph-name="uni0414.locl" horiz-adv-x="1540" 
d="M31 -287v512h135l428 1209h354l420 -1209h141v-512h-237l-41 287h-922l-41 -287h-237zM446 225h588l-286 887h-5z" />
    <glyph glyph-name="uni0416.locl" horiz-adv-x="2163" 
d="M66 0v86l487 770l-444 492v86h272l541 -631v631h319v-633l551 633h258v-86l-434 -486l481 -776v-86h-307l-389 633l-160 -176v-457h-319v457l-160 176l-389 -633h-307z" />
    <glyph glyph-name="uni041A.locl" horiz-adv-x="1368" 
d="M127 0v1434h319v-629l547 629h262v-86l-434 -486l482 -776v-86h-308l-389 633l-160 -176v-457h-319z" />
    <glyph glyph-name="uni041B.locl" horiz-adv-x="1391" 
d="M45 0v84l475 1350h330l477 -1350v-84h-309l-363 1112h-4l-350 -1112h-256z" />
    <glyph glyph-name="uni0431.locl" horiz-adv-x="1163" 
d="M582 -14q-230 0 -379.5 136t-149.5 349q0 170 97.5 282.5t259.5 149.5l-35 12q-138 47 -192 107q-56 62 -56 158q0 117 80 185.5t254 68.5h569v-232h-526q-119 0 -119 -69q0 -32 53.5 -59.5t214.5 -76.5q223 -64 335 -176q122 -125 122 -338q0 -219 -150 -359
q-146 -138 -378 -138zM582 199q110 0 167.5 70t57.5 200q0 129 -57 208q-58 79 -168 79q-111 0 -168 -79q-58 -79 -58 -208q0 -130 58 -200t168 -70z" />
    <glyph glyph-name="uni0432.locl" horiz-adv-x="1047" 
d="M518 -16q-109 0 -190 28t-142.5 91t-93 173t-31.5 267v422q0 256 109 398t346 142q220 0 330 -104q108 -105 108 -291q0 -125 -63 -215q-65 -91 -174 -119q124 -26 201 -117t77 -241q0 -211 -125 -322q-124 -112 -352 -112zM365 989v-108h84q98 0 152 53t54 156
q0 84 -30 140q-32 56 -113 56q-92 0 -119 -78q-28 -77 -28 -219zM518 201q97 0 138 65q40 64 40 174q0 109 -61 168.5t-186 59.5h-84v-174q0 -147 31 -219q30 -74 122 -74z" />
    <glyph glyph-name="uni0433.locl" horiz-adv-x="952" 
d="M891 791q0 -66 -16 -114t-58 -93t-117.5 -82t-191.5 -72q-82 -23 -121 -52.5t-39 -76.5q0 -48 41 -71t135 -23q88 0 156 25.5t108 64.5h95v-221q-65 -35 -154 -63q-87 -29 -235 -29q-199 0 -316 79t-117 234q0 139 87 223.5t298 138.5q88 26 129 52.5t41 70.5
q0 45 -36 65.5t-117 20.5q-152 0 -246 -71h-90v217q75 36 157 54.5t214 18.5q83 0 152 -16.5t124 -51t86 -93t31 -135.5z" />
    <glyph glyph-name="uni0434.locl" horiz-adv-x="1210" 
d="M1098 1075v-1018q0 -197 -143.5 -301t-409.5 -104t-432 88v215h90q129 -90 305 -90q147 0 219 51t72 160v67q-123 -104 -297 -104q-92 0 -170 29.5t-140 88t-97.5 156t-35.5 224.5q0 116 26 210.5t70 157.5t105 106t128.5 62t141.5 19q180 0 297 -107q39 90 123 90h148z
M588 248q105 0 211 76v477q-43 32 -86.5 46.5t-106.5 14.5q-50 0 -91 -14t-77 -46t-56 -93t-20 -146q0 -175 53 -245t173 -70z" />
    <glyph glyph-name="uni0436.locl" horiz-adv-x="1733" 
d="M1016 643l383 432h246v-78l-318 -344l361 -571v-82h-277l-285 453l-110 -115v-338h-299v338l-111 115l-284 -453h-277v82l361 571l-318 344v78h246l383 -432v791h182q73 0 95 -31.5t22 -136.5v-623z" />
    <glyph glyph-name="uni0437.locl" horiz-adv-x="918" 
d="M393 -354q-86 0 -160 17.5t-111.5 35.5t-80.5 45v205h102q32 -32 80 -60q47 -26 139 -26q110 0 159 63q50 65 50 162q0 103 -64.5 153t-166.5 50h-102v221h98q194 0 194 184q0 176 -165 176q-102 0 -187 -77h-115v223q139 74 320 74q211 0 329 -94q117 -94 117 -267
q0 -123 -63 -211q-64 -88 -174 -117q120 -26 199 -113.5t79 -209.5q0 -206 -129 -320t-348 -114z" />
    <glyph glyph-name="uni0438.locl" horiz-adv-x="1206" 
d="M569 209q94 0 226 53v813h299v-1075h-203q-38 0 -58 19q-21 17 -32 81q-76 -53 -173.5 -83.5t-195.5 -30.5q-313 0 -313 290v799h299v-723q0 -88 40 -115q40 -28 111 -28z" />
    <glyph glyph-name="uni0439.locl" horiz-adv-x="1206" 
d="M614 1153q-123 0 -200 59.5t-97 145.5v76h226q3 -57 17 -84t54 -27q43 0 56 31q11 28 16 80h225v-76q-17 -85 -96 -145t-201 -60zM569 209q94 0 226 53v813h299v-1075h-203q-38 0 -58 19q-21 17 -32 81q-76 -53 -173.5 -83.5t-195.5 -30.5q-313 0 -313 290v799h299v-723
q0 -88 40 -115q40 -28 111 -28z" />
    <glyph glyph-name="uni043A.locl" horiz-adv-x="1128" 
d="M412 1266v-623l383 432h245v-78l-317 -344l360 -571v-82h-276l-285 453l-110 -115v-338h-299v1434h182q74 0 95.5 -30.5t21.5 -137.5z" />
    <glyph glyph-name="uni043B.locl" horiz-adv-x="1139" 
d="M709 1075l391 -997v-78h-283l-272 741h-4l-248 -741h-254v78l375 997h295z" />
    <glyph glyph-name="uni043D.locl" horiz-adv-x="1212" 
d="M801 0v449h-389v-449h-299v1075h299v-426h389v426h186q73 0 93 -36t20 -160v-879h-299z" />
    <glyph glyph-name="uni043F.locl" horiz-adv-x="1194" 
d="M113 1075h202q41 0 62.5 -24t30.5 -90q79 58 183.5 94.5t207.5 36.5q63 0 111.5 -13.5t90 -46t64 -93.5t22.5 -148v-791h-299v715q0 78 -30.5 107.5t-102.5 29.5q-104 0 -243 -49v-803h-299v1075z" />
    <glyph glyph-name="uni0442.locl" horiz-adv-x="1825" 
d="M113 1075h202q41 0 62 -23.5t29 -88.5q76 57 176 93t202 36q196 0 256 -138q83 64 188.5 101t209.5 37q126 0 203 -70t77 -231v-791h-299v715q0 75 -29 106t-96 31q-93 0 -229 -51v-801h-299v715q0 75 -29 106t-96 31q-91 0 -229 -49v-803h-299v1075z" />
    <glyph glyph-name="uni0446.locl" horiz-adv-x="1309" 
d="M119 276v799h299v-723q0 -43 11 -71q10 -27 30 -44q33 -28 110 -28q55 0 117 17t109 36v813h299v-876h163v-445h-229l-20 246h-117q-40 0 -59 19q-12 12 -19 30q-7 19 -12 51q-77 -53 -174.5 -83.5t-194.5 -30.5q-226 0 -289 152q-24 56 -24 138z" />
    <glyph glyph-name="uni0447.locl" horiz-adv-x="1159" 
d="M1047 0h-299v416q-142 -58 -302 -58q-165 0 -256.5 81.5t-91.5 273.5v362h299v-321q0 -102 42 -137q43 -35 124 -35q95 0 185 30v463h186q73 0 93 -36.5t20 -159.5v-879z" />
    <glyph glyph-name="uni0448.locl" horiz-adv-x="1825" 
d="M1712 0h-203q-39 0 -60 22q-21 20 -32 91q-68 -52 -169 -91q-96 -38 -208 -38q-88 0 -153 29q-69 29 -103 106q-83 -63 -187 -99t-210 -36q-60 0 -108.5 15t-88.5 48t-62 93.5t-22 144.5v790h300v-715q0 -76 28 -106.5t96 -30.5q92 0 230 51v801h299v-715q0 -77 28 -107
t97 -30q82 0 229 49v803h299v-1075z" />
    <glyph glyph-name="uni0449.locl" horiz-adv-x="1927" 
d="M1876 -246h-229l-21 246h-117q-39 0 -60 22q-21 20 -32 91q-68 -52 -169 -91q-96 -38 -208 -38q-88 0 -153 29q-69 29 -103 106q-83 -63 -187 -99t-210 -36q-60 0 -108.5 15t-88.5 48t-62 93.5t-22 144.5v790h300v-715q0 -76 28 -106.5t96 -30.5q92 0 230 51v801h299
v-715q0 -77 28 -107t97 -30q82 0 229 49v803h299v-876h164v-445z" />
    <glyph glyph-name="uni044C.locl" horiz-adv-x="1067" 
d="M553 -20q-210 0 -325 101q-115 100 -115 288v706h295v-360q81 14 174 14q196 0 315 -89.5t119 -270.5q0 -187 -123 -288q-124 -101 -340 -101zM551 180q85 0 127.5 47t42.5 135q0 166 -180 166q-63 0 -133 -12v-154q0 -86 30 -134q28 -48 113 -48z" />
    <glyph glyph-name="uni044E.locl" horiz-adv-x="1653" 
d="M1071 -16q-212 0 -356 124t-168 341h-133v-449h-299v1434h186q73 0 93 -37t20 -160v-588h137q31 205 176 325q143 118 344 118q152 0 271 -67t188 -195t69 -298q0 -254 -147.5 -401t-380.5 -147zM1071 197q102 0 164 80q61 79 61 253q0 173 -59.5 261t-165.5 88
q-105 0 -165 -88t-60 -261t62 -253t163 -80z" />
    <glyph glyph-name="i.locl" horiz-adv-x="530" 
d="M414 0h-299v1075h186q73 0 93 -36t20 -160v-879zM266 1159q-68 0 -116 46t-48 112t48 113t116 47t115 -47t47 -113t-47 -112t-115 -46z" />
    <glyph glyph-name="less.cap" horiz-adv-x="872" 
d="M805 1434v-88l-451 -629v-6l451 -623v-88h-264l-473 637v158l473 639h264z" />
    <glyph glyph-name="greater.cap" horiz-adv-x="872" 
d="M68 0v88l450 629v6l-450 623v88h264l473 -637v-158l-473 -639h-264z" />
    <glyph glyph-name="grave.cap" 
d="M502 1479h-170l-203 176v86h303l70 -199v-63z" />
    <glyph glyph-name="dieresis.cap" 
d="M213 1481q-65 0 -109.5 43t-44.5 106q0 62 45 106t109 44t109 -44t45 -106q0 -63 -44.5 -106t-109.5 -43zM606 1481q-65 0 -109 43t-44 106q0 62 44.5 106t108.5 44t109 -44t45 -106q0 -63 -44.5 -106t-109.5 -43z" />
    <glyph glyph-name="macron.cap" 
d="M684 1704v-201h-549v201h549z" />
    <glyph glyph-name="acute.cap" 
d="M487 1479h-170v63l70 199h303v-86z" />
    <glyph glyph-name="breve.cap" 
d="M410 1481q-114 0 -187 56t-90 132v76h189q3 -29 25 -48.5t63 -19.5q76 0 88 68h188v-76q-17 -76 -90 -132t-186 -56z" />
    <glyph glyph-name="dotaccent.cap" 
d="M410 1481q-68 0 -115 45.5t-47 111.5q0 67 47 113.5t115 46.5q67 0 114 -46.5t47 -113.5q0 -66 -46.5 -111.5t-114.5 -45.5z" />
    <glyph glyph-name="ring.cap" 
d="M410 1483q-91 0 -153 56t-62 149t62 149.5t153 56.5q90 0 152.5 -56.5t62.5 -149.5q0 -92 -62.5 -148.5t-152.5 -56.5zM410 1610q34 0 54.5 21t20.5 57t-20.5 57.5t-54.5 21.5t-54 -21t-20 -58q0 -36 20 -57t54 -21z" />
    <glyph glyph-name="tilde.cap" 
d="M66 1479v78q16 94 68 143t134 49q54 0 128 -26.5t94 -26.5q51 0 67 55h164v-78q-35 -192 -203 -192q-54 0 -126.5 28.5t-92.5 28.5q-56 0 -70 -59h-163z" />
    <glyph glyph-name="hungarumlaut.cap" 
d="M154 1479v57l61 205h246v-86l-146 -176h-161zM487 1479v57l62 205h246v-86l-146 -176h-162z" />
    <glyph glyph-name="circumflex.cap" 
d="M123 1479v75l186 195h205l178 -195v-75h-164l-124 84l-125 -84h-156z" />
    <glyph glyph-name="caron.cap" 
d="M692 1749v-76l-186 -194h-205l-178 194v76h164l125 -84l125 84h155z" />
    <glyph glyph-name="questiondown.cap" horiz-adv-x="920" 
d="M672 1012q17 -119 -8.5 -198t-124.5 -175q-81 -79 -122.5 -143t-41.5 -140q0 -67 42.5 -103t110.5 -36q145 0 238 96h115v-221q-163 -108 -371 -108q-214 0 -332.5 94.5t-118.5 275.5q0 111 50.5 191.5t158.5 169.5q99 82 123 108q67 71 69 159q0 15 -1 30h213zM555 1446
q71 0 119.5 -47.5t48.5 -116.5t-49 -117.5t-119 -48.5q-69 0 -118.5 48.5t-49.5 117.5t49.5 116.5t118.5 47.5z" />
    <glyph glyph-name="exclamdown.cap" horiz-adv-x="582" 
d="M389 1012l62 -836v-176h-320v176l62 836h196zM291 1446q71 0 119.5 -47.5t48.5 -116.5t-49 -117.5t-119 -48.5q-69 0 -118.5 48.5t-49.5 117.5t49.5 116.5t118.5 47.5z" />
    <glyph glyph-name="bullet.cap" horiz-adv-x="696" 
d="M348 393q-120 0 -201 75t-81 200q0 126 81 202t201 76q122 0 202.5 -76t80.5 -202t-80.5 -200.5t-202.5 -74.5z" />
    <glyph glyph-name="dagger.cap" horiz-adv-x="961" 
d="M371 0l-43 553v125l61 223l-225 -63h-115v288h115l225 -65l-53 211v162h289v-162l-54 -211l226 65h114v-288h-114l-226 63l62 -219v-127l-43 -555h-219z" />
    <glyph glyph-name="daggerdbl.cap" horiz-adv-x="961" 
d="M635 764v-90l-66 -162l228 64h114v-289h-114l-228 65l56 -211v-141h-289v141l55 211l-227 -65h-115v289h115l227 -64l-65 158v90l65 162l-227 -64h-115v289h115l227 -66l-55 211v142h289v-142l-56 -211l228 66h114v-289h-114l-228 64z" />
    <glyph glyph-name="at.cap" horiz-adv-x="1765" 
d="M895 -80q-127 0 -244.5 26.5t-224.5 84.5t-186 142.5t-125.5 208.5t-46.5 273q0 158 49.5 296t134 236t195 168.5t233.5 105t248 34.5q157 0 296 -43.5t245 -124.5t167.5 -206t61.5 -277q0 -133 -38.5 -237t-105.5 -167t-151 -95t-180 -32q-206 0 -260 131
q-98 -129 -254 -129q-112 0 -182 74t-70 209q0 93 31 181t86.5 157.5t140.5 111.5t186 42q71 0 113.5 -19.5t81.5 -58.5q55 67 147 67h94l-104 -479q-6 -31 -7.5 -55.5t12.5 -39.5t46 -15q97 0 152 86t55 268q0 221 -153 347t-410 126q-100 0 -192.5 -25t-174 -78
t-142 -129.5t-95.5 -187t-35 -242.5q0 -145 47 -254.5t131 -174.5t191 -96.5t237 -31.5q297 0 496 133h67v-172q-90 -63 -242.5 -101t-320.5 -38zM801 508q78 0 151 76l66 299q-42 16 -88 16q-94 0 -151.5 -87t-57.5 -210q0 -45 21.5 -69.5t58.5 -24.5z" />
    <glyph glyph-name="paragraph.cap" horiz-adv-x="1212" 
d="M514 0v621h-6q-212 0 -335.5 100t-123.5 305q0 408 520 408h516v-1434h-213v1225h-145v-1225h-213z" />
    <glyph glyph-name="hyphen.1" horiz-adv-x="621" 
d="M74 487v244h473v-244h-473z" />
    <glyph glyph-name="endash.1" horiz-adv-x="936" 
d="M98 463v231h740v-231h-740z" />
    <glyph glyph-name="hyphen.cap" horiz-adv-x="629" 
d="M78 559v244h473v-244h-473z" />
    <glyph glyph-name="endash.cap" horiz-adv-x="895" 
d="M78 565v232h739v-232h-739z" />
    <glyph glyph-name="emdash.cap" horiz-adv-x="1530" 
d="M78 565v232h1374v-232h-1374z" />
    <glyph glyph-name="quoteleft.cap" horiz-adv-x="1087" 
d="M1008 1227q-105 -11 -186.5 -34t-131 -51.5t-81.5 -64.5t-44 -70.5t-12 -72.5q0 -37 16.5 -64.5t48.5 -47t65 -33l80.5 -33t80.5 -37.5q182 -100 182 -336q0 -177 -121.5 -288t-318.5 -111q-83 0 -159 21t-143 67t-116.5 111.5t-78 160.5t-28.5 209q0 190 58 345.5
t173.5 271.5t297 184.5t418.5 79.5v-207z" />
    <glyph glyph-name="quotedblleft.cap" horiz-adv-x="2148" 
d="M2069 1227q-105 -11 -186.5 -34t-131 -51.5t-81.5 -64.5t-44 -70.5t-12 -72.5q0 -37 16.5 -64.5t48.5 -47t65 -33l80.5 -33t80.5 -37.5q182 -100 182 -336q0 -177 -121.5 -288t-318.5 -111q-83 0 -159 21t-143 67t-116.5 111.5t-78 160.5t-28.5 209q0 190 58 345.5
t173 271.5t297 184.5t419 79.5v-207zM1008 1227q-105 -11 -186.5 -34t-131 -51.5t-81.5 -64.5t-44 -70.5t-12 -72.5q0 -37 16.5 -64.5t48.5 -47t65 -33l80.5 -33t80.5 -37.5q182 -100 182 -336q0 -177 -121.5 -288t-318.5 -111q-83 0 -159 21t-143 67t-116.5 111.5
t-78 160.5t-28.5 209q0 190 58 345.5t173.5 271.5t297 184.5t418.5 79.5v-207z" />
    <glyph glyph-name="guillemotleft.cap" horiz-adv-x="1425" 
d="M621 795l473 639h264v-88l-451 -629v-6l451 -623v-88h-264l-473 637v158zM68 637v158l473 639h264v-88l-451 -629v-6l451 -623v-88h-264z" />
    <glyph glyph-name="quoteright.cap" horiz-adv-x="1087" 
d="M80 207q130 14 223 45t141.5 72.5t69.5 84.5t21 91q0 37 -16.5 64.5t-48.5 47t-65 33l-80.5 33t-80.5 37.5q-183 101 -183 336q0 177 122 288t319 111q104 0 196.5 -35t166.5 -102.5t117.5 -178.5t43.5 -253q0 -190 -58 -345.5t-173 -271.5t-296.5 -184.5t-418.5 -79.5
v207z" />
    <glyph glyph-name="quotedblright.cap" horiz-adv-x="2148" 
d="M80 207q130 14 223 45t141.5 72.5t69.5 84.5t21 91q0 37 -16.5 64.5t-48.5 47t-65 33l-80.5 33t-80.5 37.5q-183 101 -183 336q0 177 122 288t319 111q104 0 196.5 -35t166.5 -102.5t117.5 -178.5t43.5 -253q0 -190 -58 -345.5t-173 -271.5t-296.5 -184.5t-418.5 -79.5
v207zM1141 207q105 11 186 34t130.5 51.5t81.5 64.5t44 70.5t12 72.5q0 37 -16.5 64.5t-48.5 47t-64.5 33l-80 33t-80.5 37.5q-183 100 -183 336q0 177 121.5 288t319.5 111q104 0 196.5 -35t166.5 -102.5t117.5 -178.5t43.5 -253q0 -190 -58 -345.5t-173 -271.5
t-296.5 -184.5t-418.5 -79.5v207z" />
    <glyph glyph-name="guillemotright.cap" horiz-adv-x="1425" 
d="M621 0v88l450 629v6l-450 623v88h264l473 -637v-158l-473 -639h-264zM68 1434h264l473 -637v-158l-473 -639h-264v88l450 629v6l-450 623v88z" />
    <glyph glyph-name="space.1" horiz-adv-x="389" 
 />
    <glyph glyph-name="space_uni0326" 
d="M279 -453v119q46 4 68 18.5t22 34.5q0 11 -5.5 18t-20 14.5t-19.5 10.5q-43 31 -43 93q0 46 35.5 77t87.5 31q59 0 98 -38t39 -111q0 -245 -262 -267z" />
    </font>
</defs>
</svg>
