<svg width="512" height="526" viewBox="0 0 512 526" fill="none" xmlns="http://www.w3.org/2000/svg">
<path d="M333.084 448.149H124.305C115.783 448.149 107.817 452.41 103.186 459.45L70.396 507.986C49.0919 539.479 0 524.473 0 486.682V192.13C0 156.747 28.7142 128.033 64.0974 128.033H266.023C269.913 127.847 273.433 125.81 275.656 122.475C278.249 118.77 279.731 114.695 280.287 110.063C281.584 99.6891 280.843 95.243 276.582 85.7951L274.359 81.7196L269.543 72.8274C266.579 67.2699 263.8 61.527 261.021 55.7842C260.465 54.6727 260.095 53.3759 259.724 52.2644C255.278 38.741 262.503 24.2913 276.026 19.8452C278.249 19.1042 280.472 18.7337 282.881 18.5484C299.183 17.8074 314.559 22.624 328.268 31.3308L327.897 29.1078C326.045 15.0286 335.863 2.24619 349.757 0.208409C354.203 -0.347349 358.649 0.208409 362.725 1.87568C375.878 7.24801 390.883 24.847 396.626 37.6294C398.478 41.8902 399.96 45.5953 401.257 48.9298C413.113 45.0395 424.97 43.3723 437.011 44.1133C446.829 44.669 458.5 47.2626 466.096 51.5234C476.47 57.2662 481.472 69.4929 478.137 80.7933C488.141 83.3868 497.403 88.7592 504.443 96.3545C513.52 107.099 512.224 123.216 501.479 132.479C500.553 133.405 499.441 134.146 498.33 134.887C503.517 140.259 507.592 146.558 510.186 153.412C515.373 166.565 509.074 181.385 495.921 186.758C490.919 188.796 485.177 189.166 479.99 187.684C476.099 186.573 470.171 184.72 464.428 182.867C436.455 173.605 420.153 170.641 410.52 173.975C409.779 174.346 408.853 174.531 407.741 175.272C407.185 175.643 404.592 177.68 404.962 177.125C404.407 178.051 396.811 185.832 396.811 193.427V384.052C396.996 419.435 368.282 448.149 333.084 448.149Z" fill="url(#paint0_linear)"/>
<path fill-rule="evenodd" clip-rule="evenodd" d="M49.092 493.901C45.2017 499.829 37.2359 501.311 31.3078 497.421C27.788 495.013 25.5649 491.123 25.5649 486.677V192.125C25.5649 170.821 42.7934 153.778 63.9122 153.778H332.899C354.203 153.778 371.246 171.006 371.246 192.125V384.232C371.246 405.536 354.018 422.579 332.899 422.579H117.45C104.668 422.579 92.8116 428.878 85.5868 439.622C85.5868 439.622 49.092 493.901 49.092 493.901Z" fill="#EF7F28"/>
<path fill-rule="evenodd" clip-rule="evenodd" d="M333.081 140.816H296.772L301.588 128.96C302.885 125.255 304.923 118.771 305.479 114.51C308.072 101.172 306.034 87.278 299.921 75.0514C298.068 70.9758 283.989 46.152 284.36 44.1142C305.479 43.0027 324.745 58.3786 336.23 72.0873L344.752 83.573C345.493 85.055 346.049 86.3518 346.975 87.6485C347.531 87.278 348.457 85.6108 348.828 84.8698L350.495 81.9057C357.164 69.1233 357.905 55.9703 356.238 41.7059C355.497 36.1483 354.015 30.776 353.274 25.7742C360.128 28.553 370.687 42.6322 373.466 48.375C379.394 60.4164 382.544 73.5693 382.729 86.9075C398.661 75.9776 417.186 68.7528 435.526 69.8643C440.898 70.2348 449.79 71.7168 453.681 74.1251C441.083 77.2744 399.957 98.5785 393.659 110.805C395.326 110.249 396.808 109.323 398.475 108.397C400.143 107.656 401.625 107.1 403.477 106.544C423.67 100.431 445.159 99.5047 465.907 104.136C472.391 105.618 481.839 109.138 485.174 113.028C472.391 114.14 442.751 119.697 426.819 130.998C456.83 137.481 479.801 146.003 486.656 163.046C482.765 161.935 476.652 160.082 472.576 158.786C452.013 151.931 423.299 142.854 402.366 149.893C394.585 152.487 387.731 157.489 383.099 164.158C381.432 165.64 380.321 168.233 379.58 171.197C371.428 152.672 353.088 140.816 333.081 140.816Z" fill="url(#paint1_linear)"/>
<path fill-rule="evenodd" clip-rule="evenodd" d="M96.1401 198.429H294.546C305.105 198.429 313.812 206.951 313.812 217.695C313.812 228.255 305.29 236.962 294.546 236.962H96.1401C85.5807 236.962 76.8738 228.44 76.8738 217.695C76.8738 207.136 85.3954 198.429 96.1401 198.429Z" fill="#C75A15"/>
<path fill-rule="evenodd" clip-rule="evenodd" d="M121.715 268.824H268.991C279.55 268.824 288.257 277.346 288.257 288.09C288.257 298.65 279.735 307.357 268.991 307.357H121.715C111.156 307.357 102.449 298.835 102.449 288.09C102.449 277.531 111.156 268.824 121.715 268.824Z" fill="#C75A15"/>
<path fill-rule="evenodd" clip-rule="evenodd" d="M153.758 339.409H236.937C247.496 339.409 256.203 347.931 256.203 358.675C256.203 369.235 247.681 377.942 236.937 377.942H153.758C143.199 377.942 134.492 369.42 134.492 358.675C134.492 347.931 143.014 339.409 153.758 339.409Z" fill="#C75A15"/>
<defs>
<linearGradient id="paint0_linear" x1="441.763" y1="-10.9782" x2="5.60741" y2="499.492" gradientUnits="userSpaceOnUse">
<stop stop-color="#4D6924"/>
<stop offset="0.2228" stop-color="#4D6924"/>
<stop offset="0.4394" stop-color="#C75A15"/>
<stop offset="1" stop-color="#C75A15"/>
</linearGradient>
<linearGradient id="paint1_linear" x1="490.442" y1="28.1588" x2="352.646" y2="220.139" gradientUnits="userSpaceOnUse">
<stop stop-color="#B1D400"/>
<stop offset="1" stop-color="#98B91B"/>
</linearGradient>
</defs>
</svg>
