<svg width="41" height="37" viewBox="0 0 41 37" fill="none" xmlns="http://www.w3.org/2000/svg">
<path d="M35.3502 6.9219L18.8781 2C18.8781 2 1.65143 6.70476 1.79619 6.70476C1.94095 6.70476 18.8781 11.2648 18.8781 11.2648L35.019 6.9219C37.2177 6.9219 39 8.70424 39 10.9029C39 12.1725 38.4056 13.3033 37.48 14.0322C36.8027 14.5656 36.4667 14.4495 35.019 14.8838L18.8781 19.3714L1 14.3048" stroke="#96A0AE" stroke-width="3"/>
<path d="M34.9468 14.8838C37.1454 14.8838 38.9277 16.6661 38.9277 18.8647C38.9277 20.1344 38.3334 21.2652 37.4077 21.9941C36.7304 22.5275 36.3944 22.4114 34.9468 22.8457L18.8058 27.3333L1.07251 22.2666" stroke="#96A0AE" stroke-width="3"/>
<path d="M34.9468 22.8462C37.1454 22.8462 38.9277 24.6285 38.9277 26.8271C38.9277 28.0968 38.3334 29.2276 37.4077 29.9565C36.7304 30.4899 36.3944 30.3738 34.9468 30.8081L18.8058 35.2957L1.07251 30.229" stroke="#96A0AE" stroke-width="3"/>
</svg>
