<svg width="54" height="88" viewBox="0 0 54 88" fill="none" xmlns="http://www.w3.org/2000/svg">
<path d="M33.7089 77.7474C33.5424 83.6691 29.1456 87.3286 23.4497 87.1622C17.987 86.9959 13.6901 83.1035 13.8566 77.1486C14.0232 71.2268 18.5532 67.4676 24.0159 67.6339C29.7451 67.8002 33.9088 71.8257 33.7089 77.7474ZM49.9305 35.3972C48.5315 37.36 45.4005 39.8884 41.47 42.949L37.1065 45.9431C34.9747 47.5733 33.6423 49.5028 32.9428 51.6985C32.5764 52.8629 32.3099 55.8903 32.2433 57.9196C32.21 58.3189 31.9769 59.2171 30.7444 59.2171C29.512 59.2171 19.0862 59.2171 17.7205 59.2171C16.3548 59.2171 16.1883 58.4187 16.2216 58.0194C16.4215 52.4969 17.2209 47.9392 19.5192 44.2797C22.617 39.3561 31.344 34.1663 31.344 34.1663C32.6763 33.1682 33.7089 32.1036 34.5083 30.9393C35.974 28.9432 37.1731 26.7142 37.1731 24.3189C37.1731 21.5577 36.5069 18.9295 34.7415 16.7338C32.6763 14.1722 30.4446 12.9413 26.1477 12.9413C21.9175 12.9413 19.4526 15.0704 17.6872 17.8649C15.9218 20.6594 16.2216 23.953 16.2216 26.9471H0C0 15.636 2.96453 8.41681 9.22666 4.1585C13.4569 1.26419 18.853 0 25.1485 0C33.4092 0 39.9711 1.53033 45.7669 5.92171C51.1297 9.98041 53.9609 15.7025 53.9609 23.4207C53.9609 28.178 52.2955 32.1702 49.9305 35.3972Z" fill="#EBEBFB"/>
</svg>
