<svg width="190" height="40" viewBox="0 0 190 40" fill="none" xmlns="http://www.w3.org/2000/svg">
<path d="M138.772 32.6558H145.1C149.378 32.6558 152.002 30.797 152.002 27.0795C152.002 24.1136 150.212 22.8699 147.834 22.3505V22.2685C149.802 21.7628 151.196 20.5601 151.196 18.0999C151.196 14.4644 148.79 13.0566 144.786 13.0566H138.772V32.6558ZM141.765 30.3596V23.5259H144.895C147.424 23.5259 148.9 24.6466 148.9 26.9428C148.9 29.2252 147.424 30.3596 145.005 30.3596H141.765ZM141.765 21.3255V15.3528H144.704C146.822 15.3528 148.175 16.1728 148.175 18.2913C148.175 20.4371 146.822 21.3255 144.676 21.3255H141.765Z" fill="#A2C411"/>
<path d="M157.852 32.6558V14.9701C157.852 13.33 157.702 13.0566 156.567 13.0566H154.968V32.6558H157.852Z" fill="#A2C411"/>
<path d="M167.939 32.8198C170.002 32.8198 171.793 32.1501 173.077 30.8517C174.362 29.5533 175.128 27.6808 175.128 25.3847C175.128 20.6831 172.039 17.7992 167.939 17.7992C163.797 17.7992 160.722 20.6831 160.722 25.3847C160.722 27.6808 161.474 29.5533 162.772 30.8517C164.071 32.1501 165.875 32.8198 167.939 32.8198ZM167.939 30.674C166.654 30.674 165.629 30.2366 164.863 29.3483C164.098 28.4735 163.715 27.1478 163.715 25.3847C163.715 23.6079 164.098 22.2548 164.863 21.3255C165.629 20.4097 166.654 19.945 167.939 19.945C169.223 19.945 170.248 20.4097 171 21.3255C171.752 22.2548 172.134 23.6079 172.134 25.3847C172.134 27.1478 171.752 28.4735 171 29.3483C170.248 30.2366 169.223 30.674 167.939 30.674Z" fill="#A2C411"/>
<path d="M189.779 18.0179H188.467C187.688 18.0179 187.292 18.6056 187.128 19.3847C186.144 18.4416 184.818 17.7992 182.863 17.7992C179.788 17.7992 176.713 19.8767 176.713 25.3437C176.713 30.3323 179.433 32.2868 182.426 32.2868C184.353 32.2868 185.884 31.4804 186.923 30.387V31.9587C186.923 34.3095 185.31 35.2253 182.645 35.2253C180.786 35.2253 179.283 34.7196 178.339 33.9679H177.41V36.1273C178.654 36.8244 180.485 37.3574 183.041 37.3574C187.128 37.3574 189.779 35.5943 189.779 32.1501V18.0179ZM183.178 30.1956C181.073 30.1956 179.597 29.0476 179.597 25.125C179.597 21.0794 181.633 20.0817 183.574 20.0817C185.05 20.0817 186.034 20.5191 186.923 21.3801V28.3779C185.925 29.3756 184.695 30.1956 183.178 30.1956Z" fill="#A2C411"/>
<path d="M58.9029 33.0693C57.5763 33.0693 56.3767 32.8435 55.29 32.3919C54.2033 31.9403 53.2718 31.2911 52.5097 30.4302C51.7335 29.5693 51.1407 28.5108 50.7173 27.2547C50.2939 25.9986 50.0822 24.5591 50.0822 22.9502C50.0822 21.3413 50.308 19.9159 50.7738 18.6598C51.2395 17.4037 51.8746 16.3452 52.6931 15.4843C53.5117 14.6234 54.4714 13.9742 55.5722 13.5085C56.6731 13.0569 57.8727 12.8311 59.1711 12.8311C59.8767 12.8311 60.5118 12.8734 61.0623 12.944C61.6127 13.0145 62.1066 13.1274 62.5582 13.2686C63.0099 13.4097 63.4191 13.5791 63.7861 13.7766C64.1671 13.9742 64.5341 14.2 64.901 14.44V16.8533H63.7155C63.4897 16.6134 63.2216 16.4017 62.9393 16.2041C62.657 16.0065 62.3324 15.823 61.9655 15.6819C61.5986 15.5267 61.2034 15.4138 60.7659 15.3291C60.3284 15.2444 59.8203 15.2021 59.2699 15.2021C58.3666 15.2021 57.5481 15.3714 56.8001 15.696C56.0662 16.0206 55.4311 16.5146 54.8948 17.1497C54.3726 17.7989 53.9633 18.5892 53.667 19.5489C53.3706 20.5086 53.2295 21.6094 53.2295 22.8514C53.2295 25.4764 53.7375 27.4523 54.7537 28.7789C55.7698 30.1056 57.1952 30.7548 59.03 30.7548C59.665 30.7548 60.2296 30.6983 60.7376 30.5854C61.2457 30.4725 61.6973 30.3173 62.1066 30.1197C62.5159 29.9221 62.8828 29.6963 63.2216 29.4422C63.5603 29.1882 63.8708 28.9059 64.153 28.6096H65.1551V30.9665C64.8164 31.2628 64.4353 31.5451 63.9978 31.7991C63.5744 32.0532 63.1087 32.279 62.5865 32.4766C62.0784 32.66 61.5139 32.8153 60.907 32.9282C60.286 33.0129 59.6227 33.0693 58.9029 33.0693Z" fill="#333333"/>
<path d="M78.1955 32.9004C77.9133 32.9004 77.6734 32.8722 77.4758 32.8299C77.2782 32.7875 77.1088 32.7029 76.9818 32.5758C76.8548 32.4488 76.756 32.2795 76.6713 32.0678C76.5866 31.8561 76.5302 31.5879 76.502 31.2492C75.9515 31.8561 75.3165 32.3077 74.6108 32.6041C73.9051 32.9146 73.0583 33.0557 72.0563 33.0557C71.3789 33.0557 70.7579 32.9569 70.1934 32.7734C69.6288 32.59 69.1349 32.3077 68.7256 31.9407C68.3163 31.5738 67.9917 31.1081 67.7659 30.5577C67.5401 30.0072 67.4131 29.358 67.4131 28.6383C67.4131 27.8762 67.5542 27.2128 67.8365 26.6483C68.1187 26.0838 68.528 25.6039 69.0361 25.237C69.5442 24.8559 70.151 24.5878 70.8567 24.4043C71.5624 24.2209 72.3386 24.1221 73.1713 24.1221C73.8063 24.1221 74.385 24.1503 74.8931 24.2209C75.4011 24.2914 75.9092 24.3902 76.4314 24.5172V22.5555C76.4314 21.6664 76.1774 21.0172 75.6693 20.622C75.1612 20.2268 74.4273 20.0151 73.4394 20.0151C72.5503 20.0151 71.774 20.128 71.0966 20.368C70.4192 20.6079 69.8405 20.8901 69.3748 21.2289H68.4433V19.0837C68.7821 18.9143 69.1208 18.7591 69.5018 18.6038C69.8688 18.4486 70.2781 18.3215 70.7156 18.2086C71.1531 18.0957 71.6329 17.9969 72.1269 17.9264C72.635 17.8558 73.1854 17.8135 73.7781 17.8135C74.6531 17.8135 75.4435 17.8982 76.135 18.0675C76.8266 18.2369 77.4052 18.505 77.8709 18.8579C78.3367 19.2248 78.7036 19.6905 78.9576 20.2692C79.2117 20.8478 79.3387 21.5394 79.3387 22.3438V32.8863H78.1955V32.9004ZM72.9878 31.0798C73.383 31.0798 73.7358 31.0375 74.0604 30.9528C74.385 30.8681 74.6814 30.7411 74.9636 30.5859C75.2459 30.4306 75.4999 30.2472 75.7398 30.0496C75.9798 29.8379 76.2056 29.6121 76.4173 29.3722V26.2249C75.9939 26.1261 75.5705 26.0556 75.1048 26.0132C74.6531 25.9568 74.1592 25.9427 73.6511 25.9427C73.1571 25.9427 72.6914 25.985 72.2821 26.0838C71.8587 26.1826 71.5059 26.3378 71.2095 26.5354C70.9131 26.733 70.6732 27.0011 70.5039 27.3257C70.3345 27.6503 70.2498 28.0314 70.2498 28.483C70.2498 28.9488 70.3204 29.3439 70.4615 29.6685C70.6027 29.9931 70.7861 30.2613 71.0402 30.473C71.2801 30.6847 71.5765 30.8399 71.9152 30.9387C72.2257 31.0375 72.5926 31.0798 72.9878 31.0798Z" fill="#333333"/>
<path d="M90.319 20.3815C89.8109 20.3815 89.3452 20.4238 88.9077 20.5226C88.4702 20.6214 88.075 20.7484 87.708 20.9037C87.3411 21.0589 87.0165 21.2424 86.706 21.44C86.4096 21.6375 86.1415 21.8492 85.9157 22.0468V32.8857H83.0084V18.0528H84.829C85.0124 18.0528 85.1536 18.081 85.2947 18.1234C85.4217 18.1798 85.5346 18.2645 85.6193 18.4197C85.704 18.575 85.7745 18.7726 85.8169 19.0407C85.8592 19.3089 85.9016 19.6617 85.9157 20.0992C86.1697 19.8169 86.4379 19.5347 86.7342 19.2806C87.0306 19.0266 87.3552 18.7867 87.7222 18.5891C88.075 18.3915 88.456 18.2222 88.8653 18.1093C89.2746 17.9822 89.698 17.9258 90.1637 17.9258C90.3331 17.9258 90.4883 17.9399 90.6295 17.954C90.7565 17.9822 90.8694 17.9963 90.9682 18.0246V20.4097C90.8694 20.4097 90.7706 20.4097 90.6718 20.3956C90.6012 20.3956 90.5307 20.3956 90.4601 20.3956C90.4037 20.3815 90.3472 20.3815 90.319 20.3815Z" fill="#333333"/>
<path d="M100.904 20.3815C100.396 20.3815 99.93 20.4238 99.4925 20.5226C99.055 20.6214 98.6598 20.7484 98.2929 20.9037C97.9259 21.0589 97.6013 21.2424 97.2909 21.44C96.9945 21.6375 96.7263 21.8492 96.5005 22.0468V32.8857H93.5932V18.0528H95.4138C95.5973 18.0528 95.7384 18.081 95.8795 18.1234C96.0066 18.1798 96.1195 18.2645 96.2041 18.4197C96.2888 18.575 96.3594 18.7726 96.4017 19.0407C96.4441 19.3089 96.4864 19.6617 96.5005 20.0992C96.7545 19.8169 97.0227 19.5347 97.3191 19.2806C97.6154 19.0266 97.94 18.7867 98.307 18.5891C98.6598 18.3915 99.0409 18.2222 99.4502 18.1093C99.8594 17.9822 100.283 17.9258 100.749 17.9258C100.918 17.9258 101.073 17.9399 101.214 17.954C101.341 17.9822 101.454 17.9963 101.553 18.0246V20.4097C101.454 20.4097 101.355 20.4097 101.257 20.3956C101.186 20.3956 101.116 20.3956 101.045 20.3956C100.974 20.3815 100.932 20.3815 100.904 20.3815Z" fill="#333333"/>
<path d="M110.134 33.0698C109.132 33.0698 108.186 32.9004 107.325 32.5476C106.464 32.1948 105.716 31.7008 105.067 31.0516C104.418 30.4024 103.924 29.6121 103.571 28.6806C103.204 27.7491 103.035 26.6907 103.035 25.5193C103.035 24.3338 103.218 23.2753 103.571 22.3156C103.938 21.37 104.432 20.5514 105.067 19.8881C105.702 19.2248 106.45 18.7167 107.325 18.3498C108.186 17.9969 109.132 17.8135 110.134 17.8135C111.136 17.8135 112.082 17.9969 112.942 18.3498C113.803 18.7026 114.551 19.2107 115.201 19.8881C115.836 20.5514 116.344 21.3559 116.697 22.3156C117.063 23.2612 117.233 24.3338 117.233 25.5193C117.233 26.6907 117.049 27.7491 116.697 28.6806C116.33 29.6121 115.836 30.4024 115.201 31.0516C114.565 31.7008 113.817 32.1948 112.942 32.5476C112.082 32.9004 111.15 33.0698 110.134 33.0698ZM110.134 30.8964C110.769 30.8964 111.334 30.7835 111.842 30.5577C112.35 30.3318 112.787 30.0072 113.154 29.5556C113.521 29.104 113.789 28.5536 113.987 27.8762C114.184 27.2128 114.283 26.4225 114.283 25.5193C114.283 24.616 114.184 23.8257 113.987 23.1341C113.789 22.4426 113.521 21.864 113.154 21.4123C112.787 20.9466 112.364 20.5938 111.842 20.3538C111.334 20.1139 110.755 19.9869 110.134 19.9869C109.499 19.9869 108.934 20.1139 108.426 20.3538C107.918 20.5938 107.481 20.9466 107.128 21.4123C106.761 21.8781 106.493 22.4567 106.295 23.1341C106.098 23.8257 105.999 24.616 105.999 25.5193C105.999 26.4225 106.098 27.1987 106.295 27.8762C106.493 28.5536 106.775 29.104 107.128 29.5556C107.495 30.0072 107.918 30.346 108.426 30.5577C108.934 30.7835 109.513 30.8964 110.134 30.8964Z" fill="#333333"/>
<path d="M118.757 18.053H120.549V14.0166H123.457V18.053H126.745V20.0853H123.457V28.8919C123.457 29.287 123.499 29.6116 123.584 29.8657C123.668 30.1338 123.795 30.3314 123.965 30.4867C124.134 30.6419 124.36 30.7548 124.614 30.8113C124.882 30.8818 125.192 30.9101 125.574 30.9101H126.914V32.7871C126.646 32.8577 126.307 32.9282 125.912 32.9847C125.517 33.0411 125.065 33.0694 124.557 33.0694C123.922 33.0694 123.358 32.9988 122.864 32.8577C122.37 32.7165 121.946 32.4907 121.608 32.1944C121.269 31.8839 121.001 31.4887 120.817 31.0088C120.634 30.529 120.549 29.9362 120.549 29.2447V20.0994H118.757V18.053Z" fill="#333333"/>
<path d="M25.7934 34.1415H9.8879C9.23869 34.1415 8.63183 34.4661 8.279 35.0024L5.78097 38.7C4.15796 41.0993 0.417969 39.9561 0.417969 37.077V14.6371C0.417969 11.9415 2.60551 9.75396 5.30112 9.75396H20.6845C20.9808 9.73984 21.249 9.5846 21.4184 9.33056C21.6159 9.0483 21.7288 8.73781 21.7712 8.38498C21.87 7.59464 21.8135 7.25593 21.4889 6.53616L21.3196 6.22567L20.9526 5.54824C20.7268 5.12484 20.5151 4.68733 20.3034 4.24982C20.2611 4.16515 20.2328 4.06635 20.2046 3.98167C19.8659 2.95141 20.4163 1.85059 21.4466 1.51187C21.6159 1.45542 21.7853 1.42719 21.9688 1.41308C23.2107 1.35663 24.3821 1.72357 25.4265 2.38689L25.3983 2.21753C25.2571 1.14493 26.0051 0.171122 27.0636 0.0158773C27.4023 -0.0264622 27.741 0.0158773 28.0515 0.142896C29.0536 0.552177 30.1967 1.89293 30.6342 2.86674C30.7754 3.19134 30.8883 3.4736 30.9871 3.72764C31.8903 3.43126 32.7936 3.30424 33.7109 3.3607C34.4589 3.40304 35.348 3.60062 35.9267 3.92522C36.717 4.36273 37.0981 5.2942 36.844 6.1551C37.6061 6.35269 38.3118 6.76197 38.8481 7.34061C39.5396 8.15917 39.4409 9.38701 38.6223 10.0927C38.5517 10.1632 38.467 10.2197 38.3824 10.2761C38.7775 10.6854 39.088 11.1653 39.2856 11.6875C39.6808 12.6895 39.2009 13.8185 38.1989 14.2278C37.8178 14.3831 37.3803 14.4113 36.9852 14.2984C36.6888 14.2137 36.2372 14.0726 35.7997 13.9315C33.6686 13.2258 32.4266 13 31.6927 13.254C31.6363 13.2822 31.5657 13.2964 31.481 13.3528C31.4387 13.381 31.2411 13.5363 31.2693 13.4939C31.227 13.5645 30.6484 14.1573 30.6484 14.7359V29.2583C30.6625 31.954 28.4749 34.1415 25.7934 34.1415Z" fill="url(#paint0_linear)"/>
<path fill-rule="evenodd" clip-rule="evenodd" d="M4.15815 37.6276C3.86178 38.0792 3.25491 38.1921 2.80329 37.8957C2.53514 37.7123 2.36578 37.4159 2.36578 37.0772V14.6372C2.36578 13.0142 3.67831 11.7158 5.28721 11.7158H25.7795C27.4025 11.7158 28.7009 13.0283 28.7009 14.6372V29.2726C28.7009 30.8956 27.3884 32.194 25.7795 32.194H9.36591C8.3921 32.194 7.48886 32.6739 6.93845 33.4924C6.93845 33.4924 4.15815 37.6276 4.15815 37.6276Z" fill="#EF7F28"/>
<path fill-rule="evenodd" clip-rule="evenodd" d="M25.7936 10.7281H23.0274L23.3944 9.8249C23.4932 9.54263 23.6484 9.04867 23.6907 8.72407C23.8883 7.70792 23.7331 6.64944 23.2674 5.71797C23.1262 5.40748 22.0536 3.51631 22.0818 3.36107C23.6907 3.27639 25.1585 4.44778 26.0335 5.49216L26.6827 6.36717C26.7392 6.48008 26.7815 6.57887 26.8521 6.67766C26.8944 6.64944 26.965 6.52242 26.9932 6.46597L27.1202 6.24015C27.6283 5.26635 27.6848 4.26431 27.5578 3.1776C27.5013 2.7542 27.3884 2.34492 27.3319 1.96387C27.8541 2.17556 28.6586 3.24816 28.8703 3.68567C29.3219 4.60303 29.5618 5.60506 29.5759 6.62121C30.7897 5.78853 32.201 5.23812 33.5982 5.3228C34.0075 5.35103 34.6849 5.46393 34.9813 5.6474C34.0216 5.88733 30.8885 7.51034 30.4086 8.44181C30.5356 8.39947 30.6485 8.3289 30.7756 8.25834C30.9026 8.20188 31.0155 8.15954 31.1566 8.11721C32.6949 7.65147 34.3321 7.5809 35.9127 7.93373C36.4067 8.04664 37.1265 8.31479 37.3805 8.61117C36.4067 8.69584 34.1486 9.11924 32.9349 9.98014C35.2212 10.4741 36.9712 11.1233 37.4934 12.4217C37.197 12.337 36.7313 12.1959 36.4208 12.0971C34.8543 11.5749 32.6667 10.8834 31.0719 11.4197C30.4792 11.6173 29.957 11.9983 29.6042 12.5064C29.4771 12.6193 29.3925 12.8169 29.336 13.0427C28.715 11.6314 27.3178 10.7281 25.7936 10.7281Z" fill="url(#paint1_linear)"/>
<path fill-rule="evenodd" clip-rule="evenodd" d="M7.74255 15.1162H22.8577C23.6622 15.1162 24.3255 15.7654 24.3255 16.584C24.3255 17.3884 23.6763 18.0517 22.8577 18.0517H7.74255C6.9381 18.0517 6.27478 17.4025 6.27478 16.584C6.27478 15.7795 6.92399 15.1162 7.74255 15.1162Z" fill="#C75A15"/>
<path fill-rule="evenodd" clip-rule="evenodd" d="M9.6903 20.4795H20.9103C21.7147 20.4795 22.378 21.1287 22.378 21.9473C22.378 22.7517 21.7288 23.415 20.9103 23.415H9.6903C8.88585 23.415 8.22253 22.7658 8.22253 21.9473C8.22253 21.1428 8.88585 20.4795 9.6903 20.4795Z" fill="#C75A15"/>
<path fill-rule="evenodd" clip-rule="evenodd" d="M12.132 25.8574H18.4688C19.2732 25.8574 19.9365 26.5066 19.9365 27.3252C19.9365 28.1296 19.2873 28.793 18.4688 28.793H12.132C11.3275 28.793 10.6642 28.1438 10.6642 27.3252C10.6642 26.5066 11.3134 25.8574 12.132 25.8574Z" fill="#C75A15"/>
<defs>
<linearGradient id="paint0_linear" x1="34.073" y1="-0.836358" x2="0.84516" y2="38.0529" gradientUnits="userSpaceOnUse">
<stop stop-color="#4D6924"/>
<stop offset="0.2228" stop-color="#4D6924"/>
<stop offset="0.4394" stop-color="#C75A15"/>
<stop offset="1" stop-color="#C75A15"/>
</linearGradient>
<linearGradient id="paint1_linear" x1="37.7819" y1="2.14554" x2="27.2841" y2="16.7713" gradientUnits="userSpaceOnUse">
<stop stop-color="#B1D400"/>
<stop offset="1" stop-color="#98B91B"/>
</linearGradient>
</defs>
</svg>
