<svg width="124" height="28" viewBox="0 0 124 28" fill="none" xmlns="http://www.w3.org/2000/svg">
<path d="M89.3887 21H93.458C96.209 21 97.8965 19.8047 97.8965 17.4141C97.8965 15.5068 96.7451 14.707 95.2158 14.373V14.3203C96.4814 13.9951 97.3779 13.2217 97.3779 11.6396C97.3779 9.30176 95.8311 8.39648 93.2559 8.39648H89.3887V21ZM91.3135 19.5234V15.1289H93.3262C94.9521 15.1289 95.9014 15.8496 95.9014 17.3262C95.9014 18.7939 94.9521 19.5234 93.3965 19.5234H91.3135ZM91.3135 13.7139V9.87305H93.2031C94.5654 9.87305 95.4355 10.4004 95.4355 11.7627C95.4355 13.1426 94.5654 13.7139 93.1855 13.7139H91.3135ZM101.658 21V9.62695C101.658 8.57226 101.562 8.39648 100.832 8.39648H99.8037V21H101.658ZM108.145 21.1055C109.472 21.1055 110.623 20.6748 111.449 19.8398C112.275 19.0049 112.768 17.8008 112.768 16.3242C112.768 13.3008 110.781 11.4463 108.145 11.4463C105.481 11.4463 103.504 13.3008 103.504 16.3242C103.504 17.8008 103.987 19.0049 104.822 19.8398C105.657 20.6748 106.817 21.1055 108.145 21.1055ZM108.145 19.7256C107.318 19.7256 106.659 19.4443 106.167 18.873C105.675 18.3105 105.429 17.458 105.429 16.3242C105.429 15.1816 105.675 14.3115 106.167 13.7139C106.659 13.125 107.318 12.8262 108.145 12.8262C108.971 12.8262 109.63 13.125 110.113 13.7139C110.597 14.3115 110.843 15.1816 110.843 16.3242C110.843 17.458 110.597 18.3105 110.113 18.873C109.63 19.4443 108.971 19.7256 108.145 19.7256ZM122.189 11.5869H121.346C120.845 11.5869 120.59 11.9648 120.484 12.4658C119.852 11.8594 118.999 11.4463 117.742 11.4463C115.765 11.4463 113.787 12.7822 113.787 16.2979C113.787 19.5059 115.536 20.7627 117.461 20.7627C118.7 20.7627 119.685 20.2441 120.353 19.541V20.5518C120.353 22.0635 119.315 22.6523 117.602 22.6523C116.406 22.6523 115.439 22.3271 114.833 21.8438H114.235V23.2324C115.035 23.6807 116.213 24.0234 117.856 24.0234C120.484 24.0234 122.189 22.8896 122.189 20.6748V11.5869ZM117.944 19.418C116.591 19.418 115.642 18.6797 115.642 16.1572C115.642 13.5557 116.951 12.9141 118.199 12.9141C119.148 12.9141 119.781 13.1953 120.353 13.749V18.249C119.711 18.8906 118.92 19.418 117.944 19.418Z" fill="#A2C411"/>
<path d="M38.0276 21.2655C37.1745 21.2655 36.403 21.1203 35.7042 20.8299C35.0054 20.5394 34.4064 20.122 33.9163 19.5683C33.4171 19.0147 33.036 18.3341 32.7637 17.5263C32.4914 16.7186 32.3553 15.7929 32.3553 14.7582C32.3553 13.7236 32.5005 12.807 32.8 11.9992C33.0995 11.1915 33.5079 10.5108 34.0343 9.9572C34.5607 9.40359 35.1778 8.98611 35.8857 8.68661C36.5936 8.39619 37.3651 8.25098 38.2 8.25098C38.6538 8.25098 39.0622 8.2782 39.4162 8.32358C39.7701 8.36896 40.0878 8.44157 40.3782 8.53232C40.6686 8.62308 40.9318 8.73199 41.1678 8.85905C41.4128 8.98611 41.6488 9.13132 41.8847 9.2856V10.8375H41.1224C40.9772 10.6833 40.8047 10.5471 40.6232 10.4201C40.4417 10.293 40.233 10.175 39.997 10.0843C39.761 9.98443 39.5069 9.91182 39.2256 9.85737C38.9442 9.80292 38.6175 9.77569 38.2636 9.77569C37.6827 9.77569 37.1563 9.8846 36.6753 10.0933C36.2034 10.3021 35.795 10.6197 35.4501 11.0281C35.1143 11.4456 34.8511 11.9539 34.6605 12.571C34.4699 13.1881 34.3792 13.896 34.3792 14.6947C34.3792 16.3828 34.7059 17.6534 35.3593 18.5065C36.0128 19.3596 36.9294 19.7771 38.1093 19.7771C38.5177 19.7771 38.8807 19.7408 39.2074 19.6682C39.5341 19.5956 39.8246 19.4957 40.0878 19.3687C40.351 19.2416 40.5869 19.0964 40.8047 18.933C41.0226 18.7697 41.2222 18.5882 41.4037 18.3976H42.0481V19.9132C41.8303 20.1038 41.5852 20.2853 41.3039 20.4487C41.0316 20.612 40.7321 20.7573 40.3963 20.8843C40.0696 21.0023 39.7066 21.1021 39.3163 21.1747C38.917 21.2292 38.4904 21.2655 38.0276 21.2655Z" fill="#333333"/>
<path d="M50.434 21.157C50.2525 21.157 50.0982 21.1388 49.9711 21.1116C49.8441 21.0844 49.7352 21.0299 49.6535 20.9482C49.5718 20.8666 49.5083 20.7576 49.4538 20.6215C49.3994 20.4854 49.3631 20.3129 49.3449 20.0951C48.991 20.4854 48.5826 20.7758 48.1288 20.9664C47.675 21.166 47.1305 21.2568 46.4861 21.2568C46.0504 21.2568 45.6511 21.1933 45.2881 21.0753C44.9251 20.9573 44.6074 20.7758 44.3442 20.5398C44.081 20.3039 43.8723 20.0044 43.7271 19.6504C43.5819 19.2965 43.5002 18.879 43.5002 18.4161C43.5002 17.926 43.5909 17.4995 43.7725 17.1365C43.954 16.7734 44.2172 16.4649 44.5439 16.2289C44.8706 15.9838 45.2609 15.8114 45.7146 15.6934C46.1684 15.5754 46.6676 15.5119 47.2031 15.5119C47.6115 15.5119 47.9836 15.5301 48.3103 15.5754C48.637 15.6208 48.9637 15.6843 49.2995 15.766V14.5045C49.2995 13.9327 49.1362 13.5153 48.8095 13.2611C48.4827 13.007 48.0108 12.8709 47.3755 12.8709C46.8037 12.8709 46.3046 12.9435 45.8689 13.0978C45.4333 13.2521 45.0612 13.4336 44.7617 13.6514H44.1627V12.2719C44.3805 12.163 44.5983 12.0631 44.8434 11.9633C45.0793 11.8635 45.3425 11.7818 45.6239 11.7092C45.9052 11.6366 46.2138 11.5731 46.5315 11.5277C46.8582 11.4823 47.2121 11.4551 47.5933 11.4551C48.156 11.4551 48.6642 11.5095 49.1089 11.6184C49.5537 11.7273 49.9258 11.8998 50.2253 12.1267C50.5248 12.3626 50.7607 12.6621 50.9241 13.0342C51.0874 13.4063 51.1691 13.8511 51.1691 14.3684V21.1479H50.434V21.157ZM47.0851 19.9862C47.3392 19.9862 47.5661 19.959 47.7748 19.9045C47.9836 19.8501 48.1742 19.7684 48.3557 19.6686C48.5372 19.5687 48.7005 19.4507 48.8548 19.3237C49.0091 19.1876 49.1543 19.0423 49.2905 18.8881V16.8642C49.0182 16.8007 48.7459 16.7553 48.4464 16.728C48.156 16.6917 47.8384 16.6827 47.5116 16.6827C47.194 16.6827 46.8945 16.7099 46.6313 16.7734C46.359 16.837 46.1321 16.9368 45.9415 17.0638C45.751 17.1909 45.5967 17.3633 45.4878 17.5721C45.3788 17.7808 45.3244 18.0259 45.3244 18.3163C45.3244 18.6158 45.3698 18.8699 45.4605 19.0786C45.5513 19.2874 45.6693 19.4598 45.8326 19.596C45.9869 19.7321 46.1775 19.8319 46.3953 19.8955C46.595 19.959 46.831 19.9862 47.0851 19.9862Z" fill="#333333"/>
<path d="M58.2301 13.1065C57.9034 13.1065 57.6039 13.1337 57.3226 13.1973C57.0412 13.2608 56.7871 13.3425 56.5511 13.4423C56.3152 13.5421 56.1064 13.6601 55.9068 13.7872C55.7162 13.9142 55.5437 14.0504 55.3985 14.1774V21.1476H53.5289V11.609H54.6997C54.8177 11.609 54.9084 11.6272 54.9992 11.6544C55.0809 11.6907 55.1535 11.7452 55.2079 11.845C55.2624 11.9448 55.3078 12.0719 55.335 12.2443C55.3622 12.4168 55.3894 12.6437 55.3985 12.925C55.5619 12.7435 55.7343 12.562 55.9249 12.3986C56.1155 12.2352 56.3242 12.081 56.5602 11.9539C56.7871 11.8268 57.0321 11.7179 57.2953 11.6453C57.5585 11.5636 57.8308 11.5273 58.1303 11.5273C58.2392 11.5273 58.339 11.5364 58.4298 11.5455C58.5115 11.5636 58.5841 11.5727 58.6476 11.5909V13.1247C58.5841 13.1247 58.5206 13.1247 58.457 13.1156C58.4116 13.1156 58.3663 13.1156 58.3209 13.1156C58.2846 13.1065 58.2483 13.1065 58.2301 13.1065Z" fill="#333333"/>
<path d="M65.0369 13.1065C64.7102 13.1065 64.4107 13.1337 64.1293 13.1973C63.848 13.2608 63.5939 13.3425 63.3579 13.4423C63.1219 13.5421 62.9132 13.6601 62.7135 13.7872C62.5229 13.9142 62.3505 14.0504 62.2053 14.1774V21.1476H60.3357V11.609H61.5065C61.6244 11.609 61.7152 11.6272 61.806 11.6544C61.8876 11.6907 61.9602 11.7452 62.0147 11.845C62.0691 11.9448 62.1145 12.0719 62.1417 12.2443C62.169 12.4168 62.1962 12.6437 62.2053 12.925C62.3686 12.7435 62.5411 12.562 62.7317 12.3986C62.9223 12.2352 63.131 12.081 63.367 11.9539C63.5939 11.8268 63.8389 11.7179 64.1021 11.6453C64.3653 11.5636 64.6376 11.5273 64.9371 11.5273C65.046 11.5273 65.1458 11.5364 65.2366 11.5455C65.3182 11.5636 65.3908 11.5727 65.4544 11.5909V13.1247C65.3908 13.1247 65.3273 13.1247 65.2638 13.1156C65.2184 13.1156 65.173 13.1156 65.1276 13.1156C65.0823 13.1065 65.055 13.1065 65.0369 13.1065Z" fill="#333333"/>
<path d="M70.9724 21.2659C70.328 21.2659 69.72 21.157 69.1664 20.9301C68.6127 20.7032 68.1317 20.3855 67.7142 19.9681C67.2968 19.5506 66.9791 19.0423 66.7522 18.4433C66.5163 17.8444 66.4073 17.1637 66.4073 16.4104C66.4073 15.648 66.5253 14.9674 66.7522 14.3502C66.9882 13.7421 67.3058 13.2158 67.7142 12.7892C68.1227 12.3626 68.6037 12.0359 69.1664 11.8C69.72 11.5731 70.328 11.4551 70.9724 11.4551C71.6168 11.4551 72.2249 11.5731 72.7785 11.8C73.3321 12.0268 73.8131 12.3536 74.2306 12.7892C74.639 13.2158 74.9657 13.7331 75.1926 14.3502C75.4286 14.9583 75.5375 15.648 75.5375 16.4104C75.5375 17.1637 75.4195 17.8444 75.1926 18.4433C74.9566 19.0423 74.639 19.5506 74.2306 19.9681C73.8222 20.3855 73.3412 20.7032 72.7785 20.9301C72.2249 21.157 71.6259 21.2659 70.9724 21.2659ZM70.9724 19.8682C71.3808 19.8682 71.7438 19.7956 72.0706 19.6504C72.3973 19.5052 72.6786 19.2965 72.9146 19.006C73.1506 18.7156 73.323 18.3617 73.4501 17.926C73.5771 17.4995 73.6407 16.9912 73.6407 16.4104C73.6407 15.8296 73.5771 15.3213 73.4501 14.8766C73.323 14.4319 73.1506 14.0598 72.9146 13.7694C72.6786 13.4699 72.4064 13.243 72.0706 13.0887C71.7438 12.9344 71.3717 12.8527 70.9724 12.8527C70.564 12.8527 70.201 12.9344 69.8743 13.0887C69.5475 13.243 69.2662 13.4699 69.0393 13.7694C68.8033 14.0689 68.6309 14.441 68.5038 14.8766C68.3768 15.3213 68.3132 15.8296 68.3132 16.4104C68.3132 16.9912 68.3768 17.4904 68.5038 17.926C68.6309 18.3617 68.8124 18.7156 69.0393 19.006C69.2753 19.2965 69.5475 19.5143 69.8743 19.6504C70.201 19.7956 70.5731 19.8682 70.9724 19.8682Z" fill="#333333"/>
<path d="M76.5176 11.6093H77.6702V9.01367H79.5398V11.6093H81.6544V12.9162H79.5398V18.5794C79.5398 18.8336 79.567 19.0423 79.6215 19.2057C79.6759 19.3781 79.7576 19.5052 79.8665 19.605C79.9754 19.7048 80.1206 19.7774 80.284 19.8137C80.4564 19.8591 80.6561 19.8773 80.9011 19.8773H81.7633V21.0843C81.5909 21.1297 81.3731 21.1751 81.1189 21.2114C80.8648 21.2477 80.5744 21.2658 80.2477 21.2658C79.8393 21.2658 79.4762 21.2205 79.1586 21.1297C78.8409 21.0389 78.5687 20.8937 78.3509 20.7031C78.133 20.5035 77.9606 20.2494 77.8426 19.9408C77.7246 19.6322 77.6702 19.251 77.6702 18.8063V12.9253H76.5176V11.6093Z" fill="#333333"/>
<path d="M16.736 21.9552H6.50775C6.09027 21.9552 5.70001 22.1639 5.47312 22.5088L3.86673 24.8866C2.82302 26.4295 0.417969 25.6944 0.417969 23.8429V9.41261C0.417969 7.67916 1.8247 6.27243 3.55815 6.27243H13.4506C13.6412 6.26335 13.8137 6.16352 13.9226 6.00016C14.0496 5.81864 14.1222 5.61898 14.1495 5.39209C14.213 4.88385 14.1767 4.66603 13.968 4.20317L13.859 4.00351L13.6231 3.56787C13.4779 3.2956 13.3417 3.01426 13.2056 2.73291C13.1784 2.67846 13.1602 2.61493 13.1421 2.56047C12.9243 1.89795 13.2782 1.19005 13.9407 0.972232C14.0496 0.935929 14.1585 0.917778 14.2765 0.908702C15.0752 0.872399 15.8285 1.10837 16.5001 1.53492L16.4819 1.42602C16.3912 0.736264 16.8722 0.110043 17.5528 0.0102101C17.7707 -0.0170169 17.9885 0.0102101 18.1881 0.0918912C18.8325 0.355086 19.5676 1.21727 19.849 1.8435C19.9398 2.05224 20.0124 2.23375 20.0759 2.39711C20.6567 2.20652 21.2376 2.12484 21.8275 2.16115C22.3085 2.18837 22.8803 2.31543 23.2524 2.52417C23.7606 2.80552 24.0057 3.40451 23.8423 3.95813C24.3324 4.08519 24.7862 4.34838 25.131 4.72049C25.5757 5.24687 25.5122 6.03646 24.9858 6.49024C24.9404 6.53562 24.886 6.57192 24.8315 6.60823C25.0857 6.87142 25.2853 7.17999 25.4124 7.51579C25.6665 8.16017 25.3579 8.88622 24.7136 9.14942C24.4685 9.24925 24.1872 9.2674 23.933 9.19479C23.7425 9.14034 23.452 9.04958 23.1707 8.95883C21.8003 8.50504 21.0016 8.35983 20.5297 8.52319C20.4934 8.54135 20.448 8.55042 20.3935 8.58672C20.3663 8.60487 20.2392 8.70471 20.2574 8.67748C20.2302 8.72286 19.8581 9.10404 19.8581 9.47614V18.815C19.8671 20.5485 18.4604 21.9552 16.736 21.9552Z" fill="url(#paint0_linear)"/>
<path fill-rule="evenodd" clip-rule="evenodd" d="M2.82314 24.1971C2.63255 24.4875 2.2423 24.5601 1.95188 24.3696C1.77944 24.2516 1.67053 24.061 1.67053 23.8432V9.41284C1.67053 8.36914 2.51457 7.53418 3.5492 7.53418H16.7271C17.7708 7.53418 18.6057 8.37822 18.6057 9.41284V18.8243C18.6057 19.868 17.7617 20.703 16.7271 20.703H6.17207C5.54585 20.703 4.965 21.0116 4.61105 21.5379L2.82314 24.1971Z" fill="#EF7F28"/>
<path fill-rule="evenodd" clip-rule="evenodd" d="M16.7361 6.89869H14.9573L15.1933 6.31785C15.2568 6.13633 15.3566 5.81868 15.3839 5.60994C15.5109 4.9565 15.4111 4.27582 15.1116 3.67683C15.0208 3.47716 14.3311 2.26102 14.3492 2.16119C15.3839 2.10673 16.3277 2.86001 16.8904 3.53161L17.3079 4.09431C17.3442 4.16691 17.3714 4.23044 17.4168 4.29397C17.444 4.27582 17.4894 4.19414 17.5076 4.15784L17.5892 4.01262C17.916 3.3864 17.9523 2.74203 17.8706 2.0432C17.8343 1.77093 17.7617 1.50774 17.7254 1.2627C18.0612 1.39883 18.5785 2.08858 18.7146 2.36993C19.0051 2.95985 19.1593 3.60422 19.1684 4.25767C19.9489 3.7222 20.8565 3.36825 21.755 3.42271C22.0182 3.44086 22.4538 3.51346 22.6444 3.63145C22.0272 3.78573 20.0125 4.82944 19.7039 5.42843C19.7856 5.4012 19.8582 5.35583 19.9398 5.31045C20.0215 5.27414 20.0941 5.24692 20.1849 5.21969C21.1741 4.92019 22.2269 4.87481 23.2434 5.10171C23.561 5.17431 24.0239 5.34675 24.1873 5.53734C23.561 5.59179 22.1089 5.86406 21.3284 6.41768C22.7987 6.73533 23.9241 7.15281 24.2599 7.98777C24.0693 7.93332 23.7698 7.84256 23.5701 7.77903C22.5627 7.44323 21.156 6.99852 20.1304 7.3434C19.7493 7.47046 19.4135 7.7155 19.1866 8.04222C19.1049 8.11483 19.0504 8.24189 19.0141 8.3871C18.6148 7.47953 17.7163 6.89869 16.7361 6.89869Z" fill="url(#paint1_linear)"/>
<path fill-rule="evenodd" clip-rule="evenodd" d="M5.12814 9.7207H14.8482C15.3655 9.7207 15.7921 10.1382 15.7921 10.6646C15.7921 11.1819 15.3746 11.6084 14.8482 11.6084H5.12814C4.61082 11.6084 4.18427 11.191 4.18427 10.6646C4.18427 10.1473 4.60175 9.7207 5.12814 9.7207Z" fill="#C75A15"/>
<path fill-rule="evenodd" clip-rule="evenodd" d="M6.3807 13.1699H13.5959C14.1132 13.1699 14.5397 13.5874 14.5397 14.1138C14.5397 14.6311 14.1222 15.0577 13.5959 15.0577H6.3807C5.86339 15.0577 5.43683 14.6402 5.43683 14.1138C5.43683 13.5965 5.86339 13.1699 6.3807 13.1699Z" fill="#C75A15"/>
<path fill-rule="evenodd" clip-rule="evenodd" d="M7.95083 16.6279H12.0258C12.5431 16.6279 12.9697 17.0454 12.9697 17.5718C12.9697 18.0891 12.5522 18.5157 12.0258 18.5157H7.95083C7.43351 18.5157 7.00696 18.0982 7.00696 17.5718C7.00696 17.0454 7.42444 16.6279 7.95083 16.6279Z" fill="#C75A15"/>
<defs>
<linearGradient id="paint0_linear" x1="22.0603" y1="-0.537832" x2="0.692681" y2="24.4705" gradientUnits="userSpaceOnUse">
<stop stop-color="#4D6924"/>
<stop offset="0.2228" stop-color="#4D6924"/>
<stop offset="0.4394" stop-color="#C75A15"/>
<stop offset="1" stop-color="#C75A15"/>
</linearGradient>
<linearGradient id="paint1_linear" x1="24.4454" y1="1.37952" x2="17.6946" y2="10.7848" gradientUnits="userSpaceOnUse">
<stop stop-color="#B1D400"/>
<stop offset="1" stop-color="#98B91B"/>
</linearGradient>
</defs>
</svg>
