<svg width="130" height="26" viewBox="0 0 130 26" fill="none" xmlns="http://www.w3.org/2000/svg">
<path d="M37.6096 21.2655C36.7564 21.2655 35.985 21.1203 35.2862 20.8299C34.5874 20.5394 33.9884 20.122 33.4983 19.5683C32.9991 19.0147 32.6179 18.3341 32.3457 17.5263C32.0734 16.7186 31.9373 15.7929 31.9373 14.7582C31.9373 13.7236 32.0825 12.807 32.382 11.9992C32.6815 11.1915 33.0899 10.5108 33.6163 9.9572C34.1426 9.40359 34.7598 8.98611 35.4677 8.68661C36.1756 8.39619 36.947 8.25098 37.782 8.25098C38.2358 8.25098 38.6442 8.2782 38.9981 8.32358C39.3521 8.36896 39.6697 8.44157 39.9602 8.53232C40.2506 8.62308 40.5138 8.73199 40.7497 8.85905C40.9948 8.98611 41.2307 9.13132 41.4667 9.2856V10.8375H40.7044C40.5591 10.6833 40.3867 10.5471 40.2052 10.4201C40.0237 10.293 39.8149 10.175 39.579 10.0843C39.343 9.98443 39.0889 9.91182 38.8075 9.85737C38.5262 9.80292 38.1995 9.77569 37.8455 9.77569C37.2647 9.77569 36.7383 9.8846 36.2573 10.0933C35.7853 10.3021 35.3769 10.6197 35.0321 11.0281C34.6963 11.4456 34.4331 11.9539 34.2425 12.571C34.0519 13.1881 33.9611 13.896 33.9611 14.6947C33.9611 16.3828 34.2879 17.6534 34.9413 18.5065C35.5948 19.3596 36.5114 19.7771 37.6912 19.7771C38.0996 19.7771 38.4627 19.7408 38.7894 19.6682C39.1161 19.5956 39.4065 19.4957 39.6697 19.3687C39.9329 19.2416 40.1689 19.0964 40.3867 18.933C40.6045 18.7697 40.8042 18.5882 40.9857 18.3976H41.6301V19.9132C41.4123 20.1038 41.1672 20.2853 40.8859 20.4487C40.6136 20.612 40.3141 20.7573 39.9783 20.8843C39.6516 21.0023 39.2886 21.1021 38.8983 21.1747C38.499 21.2292 38.0724 21.2655 37.6096 21.2655Z" fill="#333333"/>
<path d="M50.0158 21.1566C49.8343 21.1566 49.68 21.1385 49.553 21.1112C49.4259 21.084 49.317 21.0295 49.2353 20.9479C49.1537 20.8662 49.0901 20.7573 49.0357 20.6211C48.9812 20.485 48.9449 20.3126 48.9268 20.0948C48.5728 20.485 48.1644 20.7754 47.7106 20.966C47.2568 21.1657 46.7123 21.2564 46.0679 21.2564C45.6323 21.2564 45.233 21.1929 44.8699 21.0749C44.5069 20.9569 44.1893 20.7754 43.9261 20.5395C43.6629 20.3035 43.4541 20.004 43.3089 19.65C43.1637 19.2961 43.082 18.8786 43.082 18.4158C43.082 17.9257 43.1728 17.4991 43.3543 17.1361C43.5358 16.7731 43.799 16.4645 44.1257 16.2285C44.4525 15.9835 44.8427 15.811 45.2965 15.6931C45.7503 15.5751 46.2494 15.5115 46.7849 15.5115C47.1933 15.5115 47.5654 15.5297 47.8921 15.5751C48.2189 15.6204 48.5456 15.684 48.8814 15.7657V14.5041C48.8814 13.9324 48.718 13.5149 48.3913 13.2608C48.0646 13.0067 47.5926 12.8705 46.9573 12.8705C46.3856 12.8705 45.8864 12.9431 45.4508 13.0974C45.0151 13.2517 44.643 13.4332 44.3435 13.651H43.7446V12.2715C43.9624 12.1626 44.1802 12.0628 44.4252 11.9629C44.6612 11.8631 44.9244 11.7814 45.2057 11.7088C45.4871 11.6362 45.7957 11.5727 46.1133 11.5273C46.44 11.4819 46.794 11.4547 47.1752 11.4547C47.7379 11.4547 48.2461 11.5092 48.6908 11.6181C49.1355 11.727 49.5076 11.8994 49.8071 12.1263C50.1066 12.3623 50.3426 12.6618 50.5059 13.0339C50.6693 13.406 50.751 13.8507 50.751 14.368V21.1475H50.0158V21.1566ZM46.6669 19.9858C46.921 19.9858 47.1479 19.9586 47.3567 19.9042C47.5654 19.8497 47.756 19.768 47.9375 19.6682C48.119 19.5684 48.2824 19.4504 48.4367 19.3233C48.591 19.1872 48.7362 19.042 48.8723 18.8877V16.8638C48.6 16.8003 48.3278 16.7549 48.0283 16.7277C47.7379 16.6914 47.4202 16.6823 47.0935 16.6823C46.7758 16.6823 46.4763 16.7095 46.2131 16.7731C45.9409 16.8366 45.714 16.9364 45.5234 17.0635C45.3328 17.1905 45.1785 17.363 45.0696 17.5717C44.9607 17.7805 44.9062 18.0255 44.9062 18.3159C44.9062 18.6154 44.9516 18.8695 45.0424 19.0783C45.1331 19.287 45.2511 19.4595 45.4145 19.5956C45.5688 19.7317 45.7594 19.8316 45.9772 19.8951C46.1768 19.9586 46.4128 19.9858 46.6669 19.9858Z" fill="#333333"/>
<path d="M57.812 13.1064C57.4853 13.1064 57.1858 13.1336 56.9045 13.1971C56.6231 13.2607 56.369 13.3424 56.133 13.4422C55.8971 13.542 55.6883 13.66 55.4887 13.7871C55.2981 13.9141 55.1256 14.0503 54.9804 14.1773V21.1474H53.1108V11.6089H54.2816C54.3996 11.6089 54.4903 11.6271 54.5811 11.6543C54.6628 11.6906 54.7354 11.745 54.7898 11.8449C54.8443 11.9447 54.8897 12.0718 54.9169 12.2442C54.9441 12.4166 54.9714 12.6435 54.9804 12.9249C55.1438 12.7434 55.3162 12.5618 55.5068 12.3985C55.6974 12.2351 55.9061 12.0808 56.1421 11.9538C56.369 11.8267 56.6141 11.7178 56.8772 11.6452C57.1404 11.5635 57.4127 11.5272 57.7122 11.5272C57.8211 11.5272 57.9209 11.5363 58.0117 11.5454C58.0934 11.5635 58.166 11.5726 58.2295 11.5908V13.1245C58.166 13.1245 58.1025 13.1245 58.0389 13.1155C57.9936 13.1155 57.9482 13.1155 57.9028 13.1155C57.8665 13.1064 57.8302 13.1064 57.812 13.1064Z" fill="#333333"/>
<path d="M64.6189 13.1064C64.2922 13.1064 63.9927 13.1336 63.7114 13.1971C63.43 13.2607 63.1759 13.3424 62.9399 13.4422C62.704 13.542 62.4952 13.66 62.2956 13.7871C62.105 13.9141 61.9325 14.0503 61.7873 14.1773V21.1474H59.9177V11.6089H61.0885C61.2065 11.6089 61.2972 11.6271 61.388 11.6543C61.4697 11.6906 61.5423 11.745 61.5967 11.8449C61.6512 11.9447 61.6966 12.0718 61.7238 12.2442C61.751 12.4166 61.7782 12.6435 61.7873 12.9249C61.9507 12.7434 62.1231 12.5618 62.3137 12.3985C62.5043 12.2351 62.713 12.0808 62.949 11.9538C63.1759 11.8267 63.4209 11.7178 63.6841 11.6452C63.9473 11.5635 64.2196 11.5272 64.5191 11.5272C64.628 11.5272 64.7278 11.5363 64.8186 11.5454C64.9003 11.5635 64.9729 11.5726 65.0364 11.5908V13.1245C64.9729 13.1245 64.9093 13.1245 64.8458 13.1155C64.8004 13.1155 64.7551 13.1155 64.7097 13.1155C64.6643 13.1064 64.6371 13.1064 64.6189 13.1064Z" fill="#333333"/>
<path d="M70.5543 21.2655C69.91 21.2655 69.3019 21.1566 68.7483 20.9297C68.1946 20.7028 67.7136 20.3852 67.2962 19.9677C66.8787 19.5502 66.561 19.042 66.3341 18.443C66.0982 17.844 65.9893 17.1633 65.9893 16.41C65.9893 15.6477 66.1072 14.967 66.3341 14.3499C66.5701 13.7418 66.8878 13.2154 67.2962 12.7888C67.7046 12.3623 68.1856 12.0356 68.7483 11.7996C69.3019 11.5727 69.91 11.4547 70.5543 11.4547C71.1987 11.4547 71.8068 11.5727 72.3604 11.7996C72.914 12.0265 73.395 12.3532 73.8125 12.7888C74.2209 13.2154 74.5476 13.7327 74.7745 14.3499C75.0105 14.9579 75.1194 15.6477 75.1194 16.41C75.1194 17.1633 75.0014 17.844 74.7745 18.443C74.5385 19.042 74.2209 19.5502 73.8125 19.9677C73.4041 20.3852 72.9231 20.7028 72.3604 20.9297C71.8068 21.1566 71.2078 21.2655 70.5543 21.2655ZM70.5543 19.8679C70.9627 19.8679 71.3258 19.7953 71.6525 19.65C71.9792 19.5048 72.2606 19.2961 72.4965 19.0057C72.7325 18.7153 72.9049 18.3613 73.032 17.9257C73.159 17.4991 73.2226 16.9909 73.2226 16.41C73.2226 15.8292 73.159 15.321 73.032 14.8762C72.9049 14.4315 72.7325 14.0594 72.4965 13.769C72.2606 13.4695 71.9883 13.2426 71.6525 13.0883C71.3258 12.934 70.9537 12.8524 70.5543 12.8524C70.1459 12.8524 69.7829 12.934 69.4562 13.0883C69.1294 13.2426 68.8481 13.4695 68.6212 13.769C68.3852 14.0685 68.2128 14.4406 68.0857 14.8762C67.9587 15.321 67.8951 15.8292 67.8951 16.41C67.8951 16.9909 67.9587 17.49 68.0857 17.9257C68.2128 18.3613 68.3943 18.7153 68.6212 19.0057C68.8572 19.2961 69.1294 19.5139 69.4562 19.65C69.7829 19.7953 70.155 19.8679 70.5543 19.8679Z" fill="#333333"/>
<path d="M76.0996 11.6089H77.2522V9.01331H79.1218V11.6089H81.2364V12.9158H79.1218V18.5791C79.1218 18.8332 79.149 19.0419 79.2035 19.2053C79.2579 19.3777 79.3396 19.5048 79.4485 19.6046C79.5574 19.7045 79.7027 19.7771 79.866 19.8134C80.0385 19.8587 80.2381 19.8769 80.4832 19.8769H81.3453V21.084C81.1729 21.1293 80.9551 21.1747 80.701 21.211C80.4469 21.2473 80.1564 21.2655 79.8297 21.2655C79.4213 21.2655 79.0583 21.2201 78.7406 21.1293C78.423 21.0386 78.1507 20.8934 77.9329 20.7028C77.7151 20.5031 77.5426 20.249 77.4247 19.9404C77.3067 19.6318 77.2522 19.2507 77.2522 18.806V12.9249H76.0996V11.6089Z" fill="#333333"/>
<path d="M93.0712 19.8677C92.9079 20.0492 92.7263 20.2126 92.5176 20.3578C92.3089 20.503 92.082 20.6391 91.8369 20.748C91.5919 20.8569 91.3287 20.9477 91.0473 21.0112C90.766 21.0748 90.4756 21.102 90.1761 21.102C89.6769 21.102 89.205 21.0203 88.7421 20.8479C88.2883 20.6754 87.889 20.4032 87.5441 20.0311C87.1993 19.659 86.927 19.187 86.7182 18.5971C86.5095 18.0163 86.4097 17.3084 86.4097 16.4825C86.4097 15.5568 86.5277 14.7762 86.7545 14.1319C86.9905 13.4966 87.29 12.9793 87.6712 12.5799C88.0524 12.1806 88.4789 11.8993 88.9509 11.7268C89.4319 11.5544 89.9129 11.4636 90.412 11.4636C91.0564 11.4636 91.601 11.5635 92.0457 11.754C92.4904 11.9446 92.8716 12.1988 93.1983 12.5164C93.2618 12.2532 93.3707 12.0263 93.5159 11.863C93.6611 11.6905 93.8517 11.6088 94.0786 11.6088H94.9408V24.1242H93.0712V19.8677ZM90.6299 19.7316C91.1199 19.7316 91.5737 19.6227 91.9821 19.3958C92.3905 19.1689 92.7536 18.8785 93.0712 18.5336V13.8142C92.7899 13.542 92.4813 13.3332 92.1364 13.188C91.7915 13.0428 91.365 12.9702 90.8567 12.9702C90.5391 12.9702 90.2215 13.0246 89.9129 13.1245C89.6043 13.2243 89.332 13.4058 89.0961 13.6509C88.851 13.905 88.6604 14.2499 88.5152 14.6764C88.37 15.112 88.2883 15.6566 88.2883 16.3282C88.2883 16.9816 88.3428 17.5262 88.4517 17.9618C88.5606 18.3974 88.7149 18.7514 88.9236 19.0146C89.1324 19.2778 89.3774 19.4684 89.6678 19.5773C89.9583 19.6771 90.2759 19.7316 90.6299 19.7316Z" fill="#333333"/>
<path d="M100.731 19.8223C100.976 19.8223 101.212 19.7951 101.457 19.7407C101.693 19.6862 101.929 19.6227 102.156 19.5319C102.383 19.4502 102.601 19.3504 102.818 19.2415C103.027 19.1326 103.236 19.0237 103.426 18.9057V11.5998H105.296V21.1474H104.125C104.016 21.1474 103.926 21.1383 103.844 21.1111C103.762 21.0839 103.699 21.0385 103.644 20.9568C103.59 20.8751 103.544 20.7662 103.517 20.6301C103.481 20.4849 103.463 20.3033 103.454 20.0674C103.218 20.2398 102.964 20.4032 102.691 20.5484C102.419 20.6936 102.138 20.8207 101.847 20.9296C101.557 21.0385 101.248 21.1202 100.94 21.1837C100.631 21.2472 100.323 21.2744 100.005 21.2744C99.6328 21.2744 99.2879 21.2291 98.9702 21.1474C98.6526 21.0657 98.3803 20.9205 98.1444 20.7208C97.9084 20.5212 97.7269 20.258 97.5998 19.9312C97.4728 19.6045 97.4001 19.1961 97.4001 18.7151V11.5907H99.2697V18.2976C99.2697 18.5971 99.306 18.8512 99.3786 19.0509C99.4513 19.2506 99.5511 19.4049 99.6781 19.5138C99.8052 19.6227 99.9595 19.7044 100.141 19.7497C100.313 19.7951 100.513 19.8223 100.731 19.8223Z" fill="#333333"/>
<path d="M109.153 16.7368C109.18 17.2994 109.253 17.7805 109.398 18.1798C109.534 18.5791 109.725 18.9058 109.97 19.1509C110.215 19.405 110.515 19.5865 110.859 19.6954C111.213 19.8043 111.613 19.8679 112.057 19.8679C112.666 19.8679 113.192 19.7862 113.618 19.6137C114.045 19.4413 114.408 19.2326 114.698 18.9875H115.307V20.2853C115.134 20.4033 114.934 20.5213 114.717 20.6393C114.499 20.7573 114.236 20.8571 113.954 20.9569C113.673 21.0477 113.346 21.1294 112.992 21.1838C112.638 21.2383 112.23 21.2655 111.785 21.2655C111.05 21.2655 110.406 21.1566 109.843 20.9297C109.28 20.7028 108.799 20.3852 108.418 19.9586C108.028 19.5411 107.737 19.0329 107.538 18.4339C107.338 17.8349 107.238 17.1633 107.238 16.41C107.238 15.6477 107.347 14.967 107.574 14.3499C107.801 13.7418 108.1 13.2154 108.491 12.7888C108.881 12.3623 109.344 12.0356 109.87 11.7996C110.406 11.5727 110.977 11.4547 111.595 11.4547C112.221 11.4547 112.784 11.5455 113.283 11.7361C113.782 11.9266 114.199 12.208 114.544 12.5892C114.889 12.9704 115.143 13.4514 115.325 14.0322C115.506 14.613 115.597 15.2937 115.597 16.0742C115.597 16.2013 115.597 16.3284 115.588 16.4645C115.579 16.6006 115.579 16.6914 115.579 16.7186H109.153V16.7368ZM111.595 12.7435C111.286 12.7435 110.996 12.7888 110.723 12.8887C110.451 12.9885 110.215 13.1428 109.997 13.3697C109.789 13.5875 109.607 13.8779 109.471 14.2319C109.326 14.5858 109.235 15.0124 109.19 15.5206H113.755C113.746 15.0033 113.682 14.5677 113.582 14.2228C113.482 13.8688 113.337 13.5875 113.156 13.3697C112.974 13.1519 112.747 12.9885 112.484 12.8977C112.212 12.7888 111.921 12.7435 111.595 12.7435Z" fill="#333333"/>
<path d="M120.071 21.2472C119.681 21.2472 119.327 21.22 119.009 21.1746C118.692 21.1293 118.41 21.0657 118.165 20.984C117.911 20.9024 117.693 20.8116 117.494 20.7208C117.294 20.621 117.113 20.5212 116.958 20.4123V18.9692H117.557C117.666 19.0781 117.802 19.178 117.957 19.2778C118.111 19.3776 118.292 19.4684 118.492 19.5501C118.692 19.6318 118.919 19.6953 119.173 19.7497C119.427 19.8042 119.699 19.8224 119.99 19.8224C121.315 19.8224 121.977 19.3595 121.977 18.4429C121.977 18.2432 121.95 18.0707 121.886 17.9255C121.823 17.7803 121.714 17.6533 121.56 17.5444C121.405 17.4355 121.197 17.3447 120.942 17.263C120.688 17.1813 120.362 17.1178 119.971 17.0543C119.49 16.9817 119.064 16.8818 118.692 16.7548C118.32 16.6277 118.002 16.4553 117.748 16.2375C117.494 16.0196 117.294 15.7565 117.167 15.4388C117.031 15.1212 116.967 14.74 116.967 14.2953C116.967 13.8415 117.049 13.4422 117.212 13.0973C117.376 12.7524 117.603 12.462 117.902 12.226C118.202 11.99 118.556 11.8085 118.982 11.6905C119.409 11.5726 119.881 11.509 120.407 11.509C121.079 11.509 121.632 11.5726 122.077 11.7087C122.522 11.8358 122.903 11.9991 123.211 12.1806V13.6055H122.612C122.376 13.424 122.086 13.2606 121.732 13.1245C121.378 12.9884 120.942 12.9248 120.416 12.9248C119.808 12.9248 119.354 13.0247 119.064 13.2334C118.773 13.4422 118.628 13.7507 118.628 14.1591C118.628 14.3497 118.664 14.5131 118.737 14.6492C118.81 14.7854 118.928 14.9033 119.082 15.0032C119.245 15.103 119.454 15.1938 119.708 15.2573C119.962 15.3208 120.28 15.3934 120.661 15.4479C121.188 15.5296 121.641 15.6294 122.022 15.7655C122.413 15.9017 122.73 16.0741 122.985 16.2919C123.239 16.5097 123.429 16.782 123.556 17.1087C123.683 17.4354 123.747 17.8166 123.747 18.2704C123.747 18.7242 123.674 19.1326 123.529 19.5047C123.384 19.8768 123.157 20.1854 122.857 20.4486C122.558 20.7027 122.177 20.9024 121.714 21.0476C121.242 21.1746 120.697 21.2472 120.071 21.2472Z" fill="#333333"/>
<path d="M124.754 11.6089H125.907V9.01331H127.777V11.6089H129.891V12.9158H127.777V18.5791C127.777 18.8332 127.804 19.0419 127.858 19.2053C127.913 19.3777 127.994 19.5048 128.103 19.6046C128.212 19.7045 128.357 19.7771 128.521 19.8134C128.693 19.8587 128.893 19.8769 129.138 19.8769H130V21.084C129.828 21.1293 129.61 21.1747 129.356 21.211C129.102 21.2473 128.811 21.2655 128.484 21.2655C128.076 21.2655 127.713 21.2201 127.395 21.1293C127.078 21.0386 126.806 20.8934 126.588 20.7028C126.37 20.5031 126.197 20.249 126.079 19.9404C125.961 19.6318 125.907 19.2507 125.907 18.806V12.9249H124.754V11.6089Z" fill="#333333"/>
<path d="M16.3181 21.9552H6.08978C5.6723 21.9552 5.28204 22.1639 5.05515 22.5088L3.44876 24.8866C2.40505 26.4295 0 25.6944 0 23.8429V9.41261C0 7.67916 1.40673 6.27243 3.14018 6.27243H13.0327C13.2233 6.26335 13.3957 6.16352 13.5046 6.00016C13.6317 5.81864 13.7043 5.61898 13.7315 5.39209C13.795 4.88385 13.7587 4.66603 13.55 4.20317L13.4411 4.00351L13.2051 3.56787C13.0599 3.2956 12.9238 3.01426 12.7876 2.73291C12.7604 2.67846 12.7422 2.61493 12.7241 2.56047C12.5063 1.89795 12.8602 1.19005 13.5228 0.972232C13.6317 0.935929 13.7406 0.917778 13.8586 0.908702C14.6572 0.872399 15.4105 1.10837 16.0821 1.53492L16.0639 1.42602C15.9732 0.736264 16.4542 0.110043 17.1349 0.0102101C17.3527 -0.0170169 17.5705 0.0102101 17.7702 0.0918912C18.4145 0.355086 19.1497 1.21727 19.431 1.8435C19.5218 2.05224 19.5944 2.23375 19.6579 2.39711C20.2388 2.20652 20.8196 2.12484 21.4095 2.16115C21.8905 2.18837 22.4623 2.31543 22.8344 2.52417C23.3426 2.80552 23.5877 3.40451 23.4243 3.95813C23.9144 4.08519 24.3682 4.34838 24.7131 4.72049C25.1578 5.24687 25.0942 6.03646 24.5679 6.49024C24.5225 6.53562 24.468 6.57192 24.4136 6.60823C24.6677 6.87142 24.8674 7.17999 24.9944 7.51579C25.2485 8.16017 24.94 8.88622 24.2956 9.14942C24.0505 9.24925 23.7692 9.2674 23.5151 9.19479C23.3245 9.14034 23.0341 9.04958 22.7527 8.95883C21.3823 8.50504 20.5836 8.35983 20.1117 8.52319C20.0754 8.54135 20.03 8.55042 19.9756 8.58672C19.9483 8.60487 19.8213 8.70471 19.8394 8.67748C19.8122 8.72286 19.4401 9.10404 19.4401 9.47614V18.815C19.4492 20.5485 18.0424 21.9552 16.3181 21.9552Z" fill="url(#paint0_linear)"/>
<path fill-rule="evenodd" clip-rule="evenodd" d="M2.40505 24.1969C2.21446 24.4873 1.82421 24.5599 1.53379 24.3693C1.36135 24.2513 1.25244 24.0607 1.25244 23.8429V9.4126C1.25244 8.3689 2.09648 7.53394 3.13111 7.53394H16.309C17.3527 7.53394 18.1877 8.37797 18.1877 9.4126V18.8241C18.1877 19.8678 17.3436 20.7027 16.309 20.7027H5.75398C5.12775 20.7027 4.54691 21.0113 4.19296 21.5377L2.40505 24.1969Z" fill="#EF7F28"/>
<path fill-rule="evenodd" clip-rule="evenodd" d="M16.3182 6.89869H14.5393L14.7753 6.31785C14.8388 6.13633 14.9387 5.81868 14.9659 5.60994C15.0929 4.9565 14.9931 4.27582 14.6936 3.67683C14.6029 3.47716 13.9131 2.26102 13.9313 2.16119C14.9659 2.10673 15.9098 2.86001 16.4724 3.53161L16.8899 4.09431C16.9262 4.16691 16.9535 4.23044 16.9988 4.29397C17.0261 4.27582 17.0714 4.19414 17.0896 4.15784L17.1713 4.01262C17.498 3.3864 17.5343 2.74203 17.4526 2.0432C17.4163 1.77093 17.3437 1.50774 17.3074 1.2627C17.6432 1.39883 18.1605 2.08858 18.2967 2.36993C18.5871 2.95985 18.7414 3.60422 18.7504 4.25767C19.531 3.7222 20.4385 3.36825 21.337 3.42271C21.6002 3.44086 22.0358 3.51346 22.2264 3.63145C21.6093 3.78573 19.5945 4.82944 19.2859 5.42843C19.3676 5.4012 19.4402 5.35583 19.5219 5.31045C19.6036 5.27414 19.6762 5.24692 19.7669 5.21969C20.7562 4.92019 21.8089 4.87481 22.8254 5.10171C23.1431 5.17431 23.6059 5.34675 23.7693 5.53734C23.1431 5.59179 21.691 5.86406 20.9105 6.41768C22.3807 6.73533 23.5061 7.15281 23.8419 7.98777C23.6513 7.93332 23.3518 7.84256 23.1521 7.77903C22.1447 7.44323 20.738 6.99852 19.7125 7.3434C19.3313 7.47046 18.9955 7.7155 18.7686 8.04222C18.6869 8.11483 18.6325 8.24189 18.5962 8.3871C18.1968 7.47953 17.2983 6.89869 16.3182 6.89869Z" fill="url(#paint1_linear)"/>
<path fill-rule="evenodd" clip-rule="evenodd" d="M4.71023 9.72119H14.4303C14.9476 9.72119 15.3741 10.1387 15.3741 10.6651C15.3741 11.1824 14.9567 11.6089 14.4303 11.6089H4.71023C4.19291 11.6089 3.76636 11.1915 3.76636 10.6651C3.76636 10.1477 4.18384 9.72119 4.71023 9.72119Z" fill="#C75A15"/>
<path fill-rule="evenodd" clip-rule="evenodd" d="M5.96267 13.1699H13.1778C13.6951 13.1699 14.1217 13.5874 14.1217 14.1138C14.1217 14.6311 13.7042 15.0577 13.1778 15.0577H5.96267C5.44536 15.0577 5.0188 14.6402 5.0188 14.1138C5.0188 13.5965 5.44536 13.1699 5.96267 13.1699Z" fill="#C75A15"/>
<path fill-rule="evenodd" clip-rule="evenodd" d="M7.53298 16.6278H11.608C12.1253 16.6278 12.5518 17.0453 12.5518 17.5717C12.5518 18.089 12.1343 18.5155 11.608 18.5155H7.53298C7.01567 18.5155 6.58911 18.0981 6.58911 17.5717C6.58911 17.0453 7.00659 16.6278 7.53298 16.6278Z" fill="#C75A15"/>
<defs>
<linearGradient id="paint0_linear" x1="21.6423" y1="-0.537832" x2="0.274712" y2="24.4705" gradientUnits="userSpaceOnUse">
<stop stop-color="#4D6924"/>
<stop offset="0.2228" stop-color="#4D6924"/>
<stop offset="0.4394" stop-color="#C75A15"/>
<stop offset="1" stop-color="#C75A15"/>
</linearGradient>
<linearGradient id="paint1_linear" x1="24.0274" y1="1.37952" x2="17.2766" y2="10.7848" gradientUnits="userSpaceOnUse">
<stop stop-color="#B1D400"/>
<stop offset="1" stop-color="#98B91B"/>
</linearGradient>
</defs>
</svg>
