<svg viewBox="0 0 552 98" fill="none" xmlns="http://www.w3.org/2000/svg">
<path d="M75.9235 70.9778V41.159C75.92 41.1583 75.9292 41.1566 75.9292 41.1566C75.9292 36.4281 78.4878 35.7448 79.843 35.6501C82.6479 35.4542 86.8145 35.9704 92.6652 37.3112C95.0292 37.853 97.4873 36.9189 98.8922 34.9448C100.297 32.9708 100.372 30.3459 99.0816 28.2953C98.6886 27.6708 98.2727 27.0895 97.8368 26.5486C98.5768 25.8539 99.1434 24.9688 99.4567 23.9575C100.177 21.6327 99.4154 19.104 97.5304 17.5613C96.3464 16.5922 95.1109 15.8332 93.8594 15.2473L93.8617 15.1924C93.9643 12.5109 92.2664 10.0891 89.7078 9.26732C85.7691 8.00233 82.0577 8.13979 78.9199 8.88829C77.1701 4.61224 74.3838 1.80393 71.7393 0.566013C69.8157 -0.334451 67.5584 -0.150968 65.8061 1.0483C64.4738 1.96005 63.5847 3.35535 63.2998 4.90182C60.5604 3.63251 57.9032 3.22769 55.7901 3.43478C53.7257 3.6371 51.9129 4.89073 50.9973 6.7491C50.0817 8.60746 50.1937 10.8064 51.2932 12.5625C52.0687 13.8011 53.1585 16.0211 53.7247 18.2863C54.3411 20.7527 52.472 22.2009 50.4775 22.2009L50.4765 22.2025H48.0827C48.0338 22.2014 47.9836 22.2009 47.9322 22.2009L47.9324 22.2025H13.0435C5.79627 22.2025 0 28.0558 0 35.2654L0.000188633 89.6371C0.000188633 92.2997 1.23245 94.9275 3.62653 96.5612L3.67427 96.5937L3.72262 96.6254C7.4515 99.0658 12.6618 98.2379 15.286 94.2925L22.0277 84.2929C22.063 84.2406 22.0913 84.2121 22.1731 84.1736C22.2812 84.1227 22.5302 84.0406 22.9531 84.0406H62.8318C70.0257 84.0406 75.9235 78.2405 75.9235 70.9778Z" fill="url(#paint0_linear)"/>
<path fill-rule="evenodd" clip-rule="evenodd" d="M7.00851 91.6205C6.35701 91.176 5.99396 90.4579 5.99396 89.6371L5.99377 35.2654C5.99377 31.3328 9.13446 28.1868 13.0435 28.1868H62.8317C66.775 28.1868 69.9296 31.367 69.9296 35.2654V70.9778C69.9296 74.9103 66.7407 78.0564 62.8317 78.0564H22.9531C20.5871 78.0564 18.3926 78.968 17.0553 80.9513L10.3003 90.9708C9.58022 92.0651 8.10577 92.3386 7.00851 91.6205Z" fill="#FF8833"/>
<path d="M75.0805 30.6421C78.9583 28.9351 85.3303 29.4904 94.0056 31.4786C91.5146 27.5197 87.5577 26.0295 82.875 25.5265C85.8386 23.4278 91.3522 22.3956 93.7299 22.1892C88.2827 17.7308 80.8109 19.7808 77.9777 21.2802C80.3944 18.8105 84.781 15.7026 87.8717 14.9641C81.9585 13.0649 76.6091 15.7554 74.6735 17.338C74.3069 10.1353 70.868 6.76774 69.1943 5.98428C69.3612 8.38119 69.3606 14.0351 68.0227 17.4757C64.0804 10.4806 58.615 9.17089 56.3751 9.39041C58.0395 12.0487 60.5615 17.6054 59.9956 22.2025H62.8317C68.4547 22.2025 73.2151 25.719 75.0805 30.6421Z" fill="#5CD65C"/>
<rect x="16.777" y="38" width="42.3695" height="6" rx="3" fill="#B34A01"/>
<rect x="22.4192" y="50" width="31.0851" height="6" rx="3" fill="#B34A01"/>
<rect x="29.4617" y="62" width="17" height="6" rx="3" fill="#B34A01"/>
<path d="M144.046 82.4499C140.279 82.4499 136.873 81.8087 133.787 80.5263C130.702 79.2439 128.057 77.4006 125.893 74.9561C123.689 72.5115 122.006 69.506 120.803 65.9394C119.601 62.3729 119 58.2853 119 53.7169C119 49.1485 119.641 45.1011 120.964 41.5345C122.286 37.9679 124.089 34.9624 126.414 32.5179C128.738 30.0734 131.463 28.23 134.589 26.9075C137.714 25.6252 141.121 24.984 144.808 24.984C146.811 24.984 148.615 25.1042 150.177 25.3046C151.74 25.505 153.143 25.8256 154.425 26.2263C155.708 26.627 156.87 27.1079 157.912 27.669C158.994 28.23 160.036 28.8712 161.077 29.5524V36.405H157.711C157.07 35.7238 156.309 35.1227 155.507 34.5616C154.706 34.0006 153.784 33.4797 152.742 33.0789C151.7 32.6381 150.578 32.3175 149.336 32.0771C148.094 31.8366 146.651 31.7164 145.088 31.7164C142.523 31.7164 140.199 32.1973 138.075 33.119C135.991 34.0407 134.188 35.4433 132.665 37.2466C131.182 39.09 130.02 41.3341 129.179 44.0591C128.337 46.7842 127.936 49.9099 127.936 53.4364C127.936 60.8901 129.379 66.5005 132.264 70.2674C135.15 74.0344 139.197 75.8778 144.407 75.8778C146.21 75.8778 147.813 75.7175 149.256 75.3969C150.698 75.0763 151.981 74.6355 153.143 74.0744C154.305 73.5134 155.347 72.8722 156.309 72.1509C157.27 71.4296 158.152 70.6281 158.954 69.7865H161.799V76.4789C160.837 77.3204 159.755 78.1219 158.513 78.8432C157.311 79.5645 155.988 80.2057 154.505 80.7668C153.063 81.2877 151.46 81.7285 149.737 82.0491C147.973 82.2896 146.09 82.4499 144.046 82.4499Z" fill="#22252A"/>
<path d="M198.827 81.9686C198.025 81.9686 197.344 81.8884 196.783 81.7682C196.222 81.648 195.741 81.4075 195.38 81.0469C195.02 80.6862 194.739 80.2053 194.499 79.6042C194.258 79.0031 194.098 78.2417 194.018 77.2799C192.455 79.0031 190.652 80.2855 188.648 81.127C186.644 82.0086 184.24 82.4094 181.395 82.4094C179.471 82.4094 177.708 82.1289 176.105 81.6079C174.502 81.0869 173.099 80.2855 171.937 79.2435C170.775 78.2016 169.853 76.8792 169.212 75.3163C168.571 73.7534 168.21 71.91 168.21 69.8663C168.21 67.7023 168.611 65.8188 169.413 64.2159C170.214 62.6129 171.376 61.2504 172.819 60.2085C174.261 59.1265 175.985 58.3651 177.988 57.8441C179.992 57.3232 182.196 57.0426 184.56 57.0426C186.364 57.0426 188.007 57.1228 189.449 57.3232C190.892 57.5235 192.335 57.804 193.817 58.1647V52.5944C193.817 50.0698 193.096 48.2264 191.654 47.1043C190.211 45.9823 188.127 45.3812 185.322 45.3812C182.797 45.3812 180.593 45.7017 178.67 46.383C176.746 47.0643 175.103 47.8657 173.781 48.8275H171.136V42.7363C172.097 42.2554 173.059 41.8146 174.141 41.3738C175.183 40.933 176.345 40.5723 177.588 40.2517C178.83 39.9311 180.192 39.6506 181.595 39.4502C183.038 39.2499 184.601 39.1296 186.284 39.1296C188.768 39.1296 191.012 39.3701 192.976 39.851C194.94 40.3319 196.583 41.0933 197.905 42.0951C199.227 43.137 200.269 44.4595 200.991 46.1025C201.712 47.7455 202.073 49.7091 202.073 51.9933V81.9285H198.827V81.9686ZM184.039 76.799C185.162 76.799 186.163 76.6788 187.085 76.4384C188.007 76.1979 188.848 75.8373 189.65 75.3965C190.451 74.9556 191.173 74.4347 191.854 73.8737C192.535 73.2725 193.176 72.6314 193.777 71.9501V63.0136C192.575 62.7331 191.373 62.5328 190.051 62.4125C188.768 62.2522 187.366 62.2122 185.923 62.2122C184.52 62.2122 183.198 62.3324 182.036 62.6129C180.834 62.8934 179.832 63.3342 178.99 63.8953C178.149 64.4563 177.467 65.2177 176.986 66.1394C176.506 67.0611 176.265 68.1431 176.265 69.4255C176.265 70.7479 176.466 71.87 176.866 72.7917C177.267 73.7134 177.788 74.4748 178.509 75.0759C179.191 75.677 180.032 76.1178 180.994 76.3983C181.876 76.6788 182.917 76.799 184.039 76.799Z" fill="#22252A"/>
<path d="M233.251 46.4236C231.808 46.4236 230.486 46.5439 229.244 46.8244C228.001 47.1049 226.879 47.4656 225.837 47.9064C224.795 48.3472 223.874 48.8682 222.992 49.4292C222.151 49.9902 221.389 50.5913 220.748 51.1524V81.929H212.493V39.8115H217.662C218.183 39.8115 218.584 39.8916 218.985 40.0118C219.345 40.1721 219.666 40.4126 219.906 40.8534C220.147 41.2942 220.347 41.8552 220.467 42.6166C220.588 43.378 220.708 44.3799 220.748 45.6222C221.469 44.8207 222.231 44.0192 223.072 43.2979C223.914 42.5766 224.835 41.8953 225.877 41.3343C226.879 40.7732 227.961 40.2924 229.123 39.9718C230.286 39.6111 231.488 39.4508 232.81 39.4508C233.291 39.4508 233.732 39.4909 234.133 39.531C234.493 39.6111 234.814 39.6512 235.094 39.7313V46.5038C234.814 46.5038 234.533 46.5038 234.253 46.4637C234.052 46.4637 233.852 46.4637 233.652 46.4637C233.491 46.4236 233.331 46.4236 233.251 46.4236Z" fill="#22252A"/>
<path d="M263.306 46.4236C261.864 46.4236 260.541 46.5439 259.299 46.8244C258.057 47.1049 256.935 47.4656 255.893 47.9064C254.851 48.3472 253.929 48.8682 253.047 49.4292C252.206 49.9902 251.444 50.5913 250.803 51.1524V81.929H242.548V39.8115H247.718C248.239 39.8115 248.639 39.8916 249.04 40.0118C249.401 40.1721 249.721 40.4126 249.962 40.8534C250.202 41.2942 250.403 41.8552 250.523 42.6166C250.643 43.378 250.763 44.3799 250.803 45.6222C251.525 44.8207 252.286 44.0192 253.128 43.2979C253.969 42.5766 254.891 41.8953 255.933 41.3343C256.935 40.7732 258.017 40.2924 259.179 39.9718C260.341 39.6111 261.543 39.4508 262.866 39.4508C263.346 39.4508 263.787 39.4909 264.188 39.531C264.549 39.6111 264.869 39.6512 265.15 39.7313V46.5038C264.869 46.5038 264.589 46.5038 264.308 46.4637C264.108 46.4637 263.907 46.4637 263.707 46.4637C263.507 46.4236 263.386 46.4236 263.306 46.4236Z" fill="#22252A"/>
<path d="M289.514 82.4494C286.669 82.4494 283.984 81.9685 281.54 80.9667C279.095 79.9648 276.971 78.5623 275.128 76.7189C273.285 74.8755 271.882 72.6313 270.88 69.9865C269.838 67.3416 269.357 64.3361 269.357 61.0099C269.357 57.6437 269.878 54.6382 270.88 51.9132C271.922 49.2282 273.325 46.904 275.128 45.0205C276.931 43.137 279.055 41.6944 281.54 40.6524C283.984 39.6506 286.669 39.1296 289.514 39.1296C292.36 39.1296 295.045 39.6506 297.489 40.6524C299.934 41.6543 302.058 43.0969 303.901 45.0205C305.704 46.904 307.147 49.1882 308.149 51.9132C309.191 54.5981 309.672 57.6437 309.672 61.0099C309.672 64.3361 309.151 67.3416 308.149 69.9865C307.107 72.6313 305.704 74.8755 303.901 76.7189C302.098 78.5623 299.974 79.9648 297.489 80.9667C295.045 81.9685 292.4 82.4494 289.514 82.4494ZM289.514 76.2781C291.318 76.2781 292.921 75.9575 294.363 75.3163C295.806 74.6751 297.048 73.7534 298.09 72.471C299.132 71.1887 299.894 69.6258 300.455 67.7023C301.016 65.8188 301.296 63.5747 301.296 61.0099C301.296 58.4452 301.016 56.2011 300.455 54.2375C299.894 52.2738 299.132 50.6308 298.09 49.3485C297.048 48.026 295.846 47.0242 294.363 46.3429C292.921 45.6617 291.278 45.301 289.514 45.301C287.711 45.301 286.108 45.6617 284.666 46.3429C283.223 47.0242 281.981 48.026 280.979 49.3485C279.937 50.6709 279.175 52.3139 278.614 54.2375C278.053 56.2011 277.773 58.4452 277.773 61.0099C277.773 63.5747 278.053 65.7787 278.614 67.7023C279.175 69.6258 279.977 71.1887 280.979 72.471C282.021 73.7534 283.223 74.7152 284.666 75.3163C286.108 75.9575 287.751 76.2781 289.514 76.2781Z" fill="#22252A"/>
<path d="M314 39.8115H319.09V28.3504H327.345V39.8115H336.682V45.5821H327.345V70.5882C327.345 71.7103 327.465 72.632 327.706 73.3533C327.946 74.1147 328.307 74.6757 328.788 75.1165C329.268 75.5573 329.91 75.8779 330.631 76.0382C331.392 76.2386 332.274 76.3188 333.356 76.3188H337.163V81.6486C336.402 81.8489 335.44 82.0493 334.318 82.2096C333.196 82.3699 331.913 82.45 330.471 82.45C328.667 82.45 327.064 82.2497 325.662 81.8489C324.259 81.4482 323.057 80.807 322.095 79.9655C321.134 79.0838 320.372 77.9618 319.851 76.5993C319.33 75.2368 319.09 73.5537 319.09 71.59V45.6222H314V39.8115Z" fill="#22252A"/>
<path d="M388.939 76.2777C388.217 77.0792 387.416 77.8005 386.494 78.4417C385.572 79.0829 384.571 79.684 383.489 80.1649C382.407 80.6458 381.245 81.0465 380.002 81.327C378.76 81.6075 377.478 81.7278 376.155 81.7278C373.951 81.7278 371.867 81.3671 369.823 80.6057C367.82 79.8443 366.057 78.6421 364.534 76.9991C363.011 75.356 361.809 73.2722 360.887 70.6674C359.965 68.1027 359.525 64.9769 359.525 61.3302C359.525 57.2427 360.046 53.7963 361.047 50.9511C362.089 48.1459 363.412 45.8617 365.095 44.0985C366.778 42.3352 368.661 41.0929 370.745 40.3315C372.869 39.5701 374.993 39.1694 377.197 39.1694C380.042 39.1694 382.447 39.6102 384.41 40.4517C386.374 41.2933 388.057 42.4154 389.5 43.8179C389.78 42.6558 390.261 41.654 390.902 40.9326C391.543 40.1712 392.385 39.8106 393.387 39.8106H397.194V95.0724H388.939V76.2777ZM378.159 75.6766C380.323 75.6766 382.327 75.1957 384.13 74.1939C385.933 73.192 387.536 71.9097 388.939 70.3869V49.5485C387.696 48.3463 386.334 47.4246 384.811 46.7834C383.288 46.1422 381.405 45.8216 379.161 45.8216C377.758 45.8216 376.356 46.0621 374.993 46.5029C373.631 46.9437 372.428 47.7452 371.386 48.8272C370.304 49.9492 369.463 51.472 368.822 53.3555C368.18 55.279 367.82 57.6835 367.82 60.6489C367.82 63.5343 368.06 65.9387 368.541 67.8622C369.022 69.7858 369.703 71.3486 370.625 72.5108C371.547 73.6729 372.629 74.5145 373.911 74.9954C375.193 75.4362 376.596 75.6766 378.159 75.6766Z" fill="#22252A"/>
<path d="M422.761 76.0779C423.843 76.0779 424.885 75.9577 425.967 75.7172C427.009 75.4768 428.051 75.1963 429.052 74.7955C430.054 74.4349 431.016 73.994 431.978 73.5132C432.899 73.0323 433.821 72.5514 434.663 72.0304V39.771H442.918V81.9287H437.748C437.268 81.9287 436.867 81.8886 436.506 81.7684C436.145 81.6481 435.865 81.4478 435.624 81.0871C435.384 80.7264 435.184 80.2456 435.063 79.6444C434.903 79.0033 434.823 78.2018 434.783 77.1599C433.741 77.9213 432.619 78.6426 431.417 79.2838C430.215 79.925 428.972 80.486 427.69 80.9669C426.408 81.4478 425.045 81.8084 423.682 82.089C422.32 82.3695 420.957 82.4897 419.555 82.4897C417.912 82.4897 416.389 82.2893 414.986 81.9287C413.584 81.568 412.382 80.9268 411.34 80.0452C410.298 79.1636 409.496 78.0014 408.935 76.5588C408.374 75.1161 408.054 73.3128 408.054 71.1889V39.7309H416.309V69.3455C416.309 70.6679 416.469 71.79 416.79 72.6716C417.11 73.5532 417.551 74.2345 418.112 74.7154C418.673 75.1963 419.355 75.5569 420.156 75.7573C420.917 75.9577 421.799 76.0779 422.761 76.0779Z" fill="#22252A"/>
<path d="M459.95 62.4523C460.07 64.9369 460.391 67.0608 461.032 68.824C461.633 70.5873 462.475 72.0299 463.557 73.1119C464.639 74.234 465.961 75.0355 467.484 75.5163C469.047 75.9972 470.81 76.2777 472.774 76.2777C475.459 76.2777 477.783 75.9171 479.666 75.1557C481.55 74.3943 483.153 73.4726 484.435 72.3906H487.12V78.1211C486.359 78.6421 485.477 79.1631 484.515 79.684C483.553 80.205 482.391 80.6458 481.149 81.0866C479.907 81.4873 478.464 81.848 476.901 82.0884C475.338 82.3289 473.535 82.4491 471.571 82.4491C468.325 82.4491 465.48 81.9682 462.996 80.9664C460.511 79.9645 458.387 78.562 456.704 76.6785C454.981 74.8351 453.699 72.591 452.817 69.9461C451.935 67.3012 451.495 64.3358 451.495 61.0096C451.495 57.6434 451.975 54.6379 452.977 51.9129C453.979 49.2279 455.302 46.9037 457.025 45.0202C458.748 43.1367 460.792 41.6941 463.116 40.6521C465.48 39.6503 468.005 39.1293 470.73 39.1293C473.495 39.1293 475.98 39.5301 478.184 40.3716C480.388 41.2132 482.231 42.4555 483.754 44.1386C485.277 45.8217 486.399 47.9456 487.2 50.5103C488.002 53.075 488.402 56.0806 488.402 59.5269C488.402 60.0879 488.402 60.649 488.362 61.2501C488.322 61.8512 488.322 62.2519 488.322 62.3721H459.95V62.4523ZM470.73 44.8198C469.367 44.8198 468.085 45.0202 466.883 45.461C465.681 45.9018 464.639 46.5831 463.677 47.5849C462.755 48.5467 461.954 49.829 461.353 51.3919C460.711 52.9548 460.311 54.8383 460.11 57.0824H480.267C480.227 54.7982 479.947 52.8746 479.506 51.3518C479.065 49.789 478.424 48.5467 477.623 47.5849C476.821 46.6231 475.819 45.9018 474.657 45.5011C473.455 45.0202 472.173 44.8198 470.73 44.8198Z" fill="#22252A"/>
<path d="M508.159 82.3688C506.436 82.3688 504.873 82.2486 503.47 82.0482C502.068 81.8478 500.825 81.5673 499.743 81.2067C498.621 80.846 497.659 80.4453 496.778 80.0445C495.896 79.6037 495.095 79.1629 494.413 78.682V72.3103H497.058C497.539 72.7912 498.14 73.232 498.822 73.6728C499.503 74.1136 500.304 74.5143 501.186 74.875C502.068 75.2357 503.069 75.5162 504.191 75.7566C505.313 75.9971 506.516 76.0772 507.798 76.0772C513.649 76.0772 516.574 74.0335 516.574 69.986C516.574 69.1044 516.454 68.343 516.173 67.7018C515.893 67.0606 515.412 66.4996 514.731 66.0187C514.05 65.5378 513.128 65.1371 512.006 64.7764C510.884 64.4158 509.441 64.1352 507.718 63.8547C505.594 63.5341 503.711 63.0933 502.068 62.5323C500.425 61.9712 499.022 61.2098 497.9 60.2481C496.778 59.2863 495.896 58.1242 495.335 56.7216C494.734 55.319 494.454 53.6359 494.454 51.6723C494.454 49.6686 494.814 47.9053 495.535 46.3825C496.257 44.8597 497.259 43.5774 498.581 42.5355C499.904 41.4935 501.466 40.6921 503.35 40.1711C505.233 39.6501 507.317 39.3696 509.641 39.3696C512.607 39.3696 515.051 39.6501 517.015 40.2513C518.979 40.8123 520.662 41.5336 522.024 42.3351V48.6267H519.379C518.337 47.8252 517.055 47.1039 515.492 46.5028C513.929 45.9017 512.006 45.6211 509.682 45.6211C506.997 45.6211 504.993 46.062 503.711 46.9836C502.428 47.9053 501.787 49.2679 501.787 51.0712C501.787 51.9127 501.947 52.6341 502.268 53.2352C502.588 53.8363 503.109 54.3572 503.791 54.798C504.512 55.2389 505.434 55.6396 506.556 55.9201C507.678 56.2006 509.08 56.5212 510.764 56.7617C513.088 57.1223 515.092 57.5631 516.775 58.1642C518.498 58.7653 519.9 59.5267 521.022 60.4885C522.144 61.4503 522.986 62.6525 523.547 64.0952C524.108 65.5378 524.389 67.2209 524.389 69.2246C524.389 71.2283 524.068 73.0316 523.427 74.6746C522.786 76.3177 521.784 77.6802 520.461 78.8423C519.139 79.9644 517.456 80.846 515.412 81.4872C513.328 82.0482 510.924 82.3688 508.159 82.3688Z" fill="#22252A"/>
<path d="M528.837 39.8115H533.927V28.3504H542.182V39.8115H551.519V45.5821H542.182V70.5882C542.182 71.7103 542.302 72.632 542.543 73.3533C542.783 74.1147 543.144 74.6757 543.625 75.1165C544.105 75.5573 544.747 75.8779 545.468 76.0382C546.229 76.2386 547.111 76.3188 548.193 76.3188H552V81.6486C551.239 81.8489 550.277 82.0493 549.155 82.2096C548.033 82.3699 546.75 82.45 545.308 82.45C543.504 82.45 541.901 82.2497 540.499 81.8489C539.096 81.4482 537.894 80.807 536.932 79.9655C535.97 79.0838 535.209 77.9618 534.688 76.5993C534.167 75.2368 533.927 73.5537 533.927 71.59V45.6222H528.837V39.8115Z" fill="#22252A"/>
<defs>
<linearGradient id="paint0_linear" x1="74.5" y1="17.5" x2="59" y2="41" gradientUnits="userSpaceOnUse">
<stop stop-color="#2D862D"/>
<stop offset="1" stop-color="#B34A00"/>
</linearGradient>
</defs>
</svg>
