<svg width="650" height="110" viewBox="0 0 650 110" fill="none" xmlns="http://www.w3.org/2000/svg">
<path d="M79.4501 72.9778V43.159C79.4466 43.1583 79.4558 43.1566 79.4558 43.1566C79.4558 38.4281 82.0144 37.7448 83.3696 37.6501C86.1745 37.4542 90.3411 37.9704 96.1918 39.3112C98.5559 39.853 101.014 38.9189 102.419 36.9448C103.824 34.9708 103.898 32.3459 102.608 30.2953C102.215 29.6708 101.799 29.0895 101.363 28.5486C102.103 27.8539 102.67 26.9688 102.983 25.9575C103.703 23.6327 102.942 21.104 101.057 19.5613C99.873 18.5922 98.6375 17.8332 97.386 17.2473L97.3883 17.1924C97.4909 14.5109 95.793 12.0891 93.2344 11.2673C89.2958 10.0023 85.5843 10.1398 82.4465 10.8883C80.6967 6.61224 77.9104 3.80393 75.2659 2.56601C73.3423 1.66555 71.0851 1.84903 69.3327 3.0483C68.0004 3.96005 67.1113 5.35535 66.8264 6.90182C64.087 5.63251 61.4298 5.22769 59.3168 5.43478C57.2524 5.6371 55.4395 6.89073 54.5239 8.7491C53.6084 10.6075 53.7203 12.8064 54.8198 14.5625C55.5953 15.8011 56.6851 18.0211 57.2513 20.2863C57.8677 22.7527 55.9986 24.2009 54.0041 24.2009L54.0031 24.2025H51.6093C51.5604 24.2014 51.5103 24.2009 51.4588 24.2009L51.459 24.2025H16.5701C9.32289 24.2025 3.52661 30.0558 3.52661 37.2654L3.5268 91.6371C3.5268 94.2997 4.75906 96.9275 7.15314 98.5612L7.20088 98.5937L7.24923 98.6254C10.9781 101.066 16.1884 100.238 18.8126 96.2925L25.5543 86.2929C25.5896 86.2406 25.6179 86.2121 25.6997 86.1736C25.8078 86.1227 26.0568 86.0406 26.4797 86.0406H66.3584C73.5523 86.0406 79.4501 80.2405 79.4501 72.9778Z" fill="url(#paint0_linear)"/>
<path fill-rule="evenodd" clip-rule="evenodd" d="M10.5351 93.6205C9.88362 93.1759 9.52057 92.4578 9.52057 91.6371L9.52039 37.2654C9.52039 33.3328 12.6611 30.1868 16.5701 30.1868H66.3583C70.3016 30.1868 73.4563 33.367 73.4563 37.2654V72.9777C73.4563 76.9103 70.2673 80.0563 66.3583 80.0563H26.4797C24.1137 80.0563 21.9192 80.9679 20.5819 82.9513L13.8269 92.9708C13.1068 94.065 11.6324 94.3386 10.5351 93.6205Z" fill="#FF8833"/>
<path d="M78.6071 32.6422C82.4849 30.9352 88.8569 31.4905 97.5322 33.4787C95.0412 29.5198 91.0843 28.0296 86.4016 27.5266C89.3652 25.4279 94.8788 24.3957 97.2566 24.1893C91.8093 19.7308 84.3375 21.7809 81.5043 23.2803C83.921 20.8106 88.3076 17.7027 91.3983 16.9642C85.4851 15.065 80.1357 17.7555 78.2001 19.3381C77.8335 12.1354 74.3946 8.76783 72.7209 7.98438C72.8879 10.3813 72.8872 16.0352 71.5493 19.4758C67.607 12.4807 62.1416 11.171 59.9017 11.3905C61.5661 14.0488 64.0881 19.6055 63.5222 24.2026H66.3584C71.9813 24.2026 76.7417 27.7191 78.6071 32.6422Z" fill="#5CD65C"/>
<rect x="20.3036" y="40" width="42.3695" height="6" rx="3" fill="#B34A01"/>
<rect x="25.9458" y="52" width="31.0851" height="6" rx="3" fill="#B34A01"/>
<rect x="32.9883" y="64" width="17" height="6" rx="3" fill="#B34A01"/>
<path d="M139.86 80.012C136.659 80.012 133.765 79.4672 131.144 78.3777C128.522 77.2881 126.275 75.7219 124.436 73.645C122.563 71.568 121.133 69.0144 120.112 65.9841C119.09 62.9538 118.58 59.4809 118.58 55.5994C118.58 51.7179 119.124 48.279 120.248 45.2487C121.372 42.2184 122.904 39.6648 124.879 37.5878C126.853 35.5109 129.169 33.9447 131.824 32.8211C134.48 31.7315 137.374 31.1868 140.507 31.1868C142.209 31.1868 143.741 31.2889 145.069 31.4592C146.397 31.6294 147.589 31.9018 148.678 32.2423C149.768 32.5827 150.755 32.9913 151.641 33.468C152.56 33.9447 153.445 34.4894 154.33 35.0683V40.8905H151.47C150.926 40.3117 150.279 39.801 149.598 39.3243C148.917 38.8476 148.134 38.405 147.248 38.0645C146.363 37.69 145.41 37.4176 144.354 37.2133C143.299 37.009 142.073 36.9069 140.745 36.9069C138.566 36.9069 136.591 37.3155 134.787 38.0986C133.016 38.8817 131.484 40.0734 130.19 41.6055C128.93 43.1718 127.943 45.0785 127.228 47.3937C126.513 49.709 126.172 52.3648 126.172 55.3611C126.172 61.694 127.398 66.4608 129.85 69.6613C132.301 72.8619 135.74 74.4281 140.166 74.4281C141.698 74.4281 143.06 74.2919 144.286 74.0195C145.512 73.7471 146.601 73.3726 147.589 72.8959C148.576 72.4192 149.461 71.8745 150.279 71.2616C151.096 70.6487 151.845 69.9678 152.526 69.2528H154.943V74.9388C154.126 75.6538 153.207 76.3348 152.151 76.9477C151.13 77.5605 150.006 78.1053 148.746 78.582C147.521 79.0246 146.159 79.3991 144.695 79.6715C143.197 79.8758 141.596 80.012 139.86 80.012Z" fill="#22252A"/>
<path d="M186.404 79.6032C185.723 79.6032 185.144 79.5351 184.667 79.433C184.191 79.3308 183.782 79.1265 183.476 78.8201C183.169 78.5137 182.931 78.1051 182.727 77.5944C182.522 77.0836 182.386 76.4367 182.318 75.6196C180.99 77.0836 179.458 78.1732 177.756 78.8882C176.053 79.6373 174.01 79.9777 171.593 79.9777C169.958 79.9777 168.46 79.7394 167.098 79.2968C165.736 78.8541 164.545 78.1732 163.557 77.2879C162.57 76.4027 161.787 75.2791 161.242 73.9512C160.697 72.6233 160.391 71.0571 160.391 69.3206C160.391 67.482 160.731 65.8817 161.412 64.5198C162.093 63.1579 163.081 62.0002 164.306 61.115C165.532 60.1957 166.996 59.5488 168.699 59.1061C170.401 58.6635 172.274 58.4252 174.283 58.4252C175.815 58.4252 177.211 58.4933 178.436 58.6635C179.662 58.8337 180.888 59.0721 182.148 59.3785V54.6458C182.148 52.5008 181.535 50.9345 180.309 49.9812C179.083 49.0278 177.313 48.5171 174.929 48.5171C172.784 48.5171 170.912 48.7895 169.277 49.3683C167.643 49.9471 166.247 50.6281 165.124 51.4453H162.876V46.2699C163.694 45.8613 164.511 45.4868 165.43 45.1123C166.315 44.7377 167.303 44.4313 168.358 44.1589C169.414 43.8865 170.571 43.6482 171.763 43.478C172.989 43.3077 174.317 43.2056 175.747 43.2056C177.858 43.2056 179.764 43.4099 181.433 43.8184C183.101 44.227 184.497 44.8739 185.621 45.7251C186.744 46.6104 187.63 47.734 188.242 49.13C188.855 50.526 189.162 52.1943 189.162 54.1351V79.5692H186.404V79.6032ZM173.84 75.211C174.793 75.211 175.645 75.1088 176.428 74.9045C177.211 74.7002 177.926 74.3938 178.607 74.0193C179.288 73.6448 179.901 73.2021 180.479 72.7254C181.058 72.2147 181.603 71.6699 182.114 71.0911V63.4984C181.092 63.26 180.071 63.0898 178.947 62.9876C177.858 62.8514 176.666 62.8174 175.44 62.8174C174.249 62.8174 173.125 62.9195 172.138 63.1579C171.116 63.3962 170.265 63.7707 169.55 64.2474C168.835 64.7241 168.256 65.371 167.847 66.1541C167.439 66.9372 167.235 67.8565 167.235 68.9461C167.235 70.0697 167.405 71.023 167.745 71.8061C168.086 72.5893 168.528 73.2362 169.141 73.7469C169.72 74.2576 170.435 74.6322 171.252 74.8705C172.001 75.1088 172.887 75.211 173.84 75.211Z" fill="#22252A"/>
<path d="M215.652 49.4027C214.426 49.4027 213.303 49.5048 212.247 49.7432C211.192 49.9815 210.238 50.2879 209.353 50.6625C208.468 51.037 207.685 51.4796 206.936 51.9563C206.221 52.433 205.574 52.9437 205.029 53.4204V79.5695H198.015V43.7847H202.407C202.85 43.7847 203.19 43.8528 203.531 43.9549C203.837 44.0911 204.11 44.2954 204.314 44.67C204.518 45.0445 204.688 45.5212 204.79 46.1681C204.893 46.815 204.995 47.6662 205.029 48.7217C205.642 48.0407 206.289 47.3598 207.004 46.7469C207.719 46.134 208.502 45.5552 209.387 45.0785C210.238 44.6019 211.158 44.1933 212.145 43.9209C213.132 43.6145 214.154 43.4783 215.277 43.4783C215.686 43.4783 216.06 43.5123 216.401 43.5464C216.707 43.6145 216.98 43.6485 217.218 43.7166V49.4708C216.98 49.4708 216.741 49.4708 216.503 49.4367C216.333 49.4367 216.163 49.4367 215.992 49.4367C215.856 49.4027 215.72 49.4027 215.652 49.4027Z" fill="#22252A"/>
<path d="M241.188 49.4027C239.962 49.4027 238.839 49.5048 237.783 49.7432C236.728 49.9815 235.774 50.2879 234.889 50.6625C234.004 51.037 233.221 51.4796 232.472 51.9563C231.757 52.433 231.11 52.9437 230.565 53.4204V79.5695H223.551V43.7847H227.943C228.386 43.7847 228.726 43.8528 229.067 43.9549C229.373 44.0911 229.646 44.2954 229.85 44.67C230.054 45.0445 230.225 45.5212 230.327 46.1681C230.429 46.815 230.531 47.6662 230.565 48.7217C231.178 48.0407 231.825 47.3598 232.54 46.7469C233.255 46.134 234.038 45.5552 234.923 45.0785C235.774 44.6019 236.694 44.1933 237.681 43.9209C238.669 43.6145 239.69 43.4783 240.814 43.4783C241.222 43.4783 241.597 43.5123 241.937 43.5464C242.244 43.6145 242.516 43.6485 242.754 43.7166V49.4708C242.516 49.4708 242.278 49.4708 242.039 49.4367C241.869 49.4367 241.699 49.4367 241.529 49.4367C241.358 49.4027 241.256 49.4027 241.188 49.4027Z" fill="#22252A"/>
<path d="M263.456 80.0118C261.038 80.0118 258.757 79.6032 256.68 78.752C254.603 77.9008 252.798 76.7091 251.232 75.1428C249.666 73.5766 248.474 71.6699 247.623 69.4227C246.738 67.1756 246.329 64.6219 246.329 61.7959C246.329 58.9359 246.772 56.3823 247.623 54.067C248.508 51.7857 249.7 49.8109 251.232 48.2107C252.764 46.6104 254.569 45.3847 256.68 44.4994C258.757 43.6482 261.038 43.2056 263.456 43.2056C265.873 43.2056 268.154 43.6482 270.231 44.4994C272.308 45.3506 274.113 46.5763 275.679 48.2107C277.211 49.8109 278.437 51.7517 279.288 54.067C280.173 56.3482 280.582 58.9359 280.582 61.7959C280.582 64.6219 280.139 67.1756 279.288 69.4227C278.403 71.6699 277.211 73.5766 275.679 75.1428C274.147 76.7091 272.342 77.9008 270.231 78.752C268.154 79.6032 265.907 80.0118 263.456 80.0118ZM263.456 74.7683C264.988 74.7683 266.35 74.4959 267.575 73.9512C268.801 73.4064 269.857 72.6233 270.742 71.5337C271.627 70.4442 272.274 69.1163 272.751 67.482C273.227 65.8817 273.466 63.975 273.466 61.7959C273.466 59.6168 273.227 57.7101 272.751 56.0418C272.274 54.3734 271.627 52.9774 270.742 51.8879C269.857 50.7643 268.835 49.9131 267.575 49.3343C266.35 48.7554 264.954 48.449 263.456 48.449C261.923 48.449 260.561 48.7554 259.336 49.3343C258.11 49.9131 257.054 50.7643 256.203 51.8879C255.318 53.0115 254.671 54.4075 254.194 56.0418C253.718 57.7101 253.479 59.6168 253.479 61.7959C253.479 63.975 253.718 65.8477 254.194 67.482C254.671 69.1163 255.352 70.4442 256.203 71.5337C257.088 72.6233 258.11 73.4404 259.336 73.9512C260.561 74.4959 261.957 74.7683 263.456 74.7683Z" fill="#22252A"/>
<path d="M284.26 43.7847H288.584V34.0469H295.598V43.7847H303.531V48.6876H295.598V69.9338C295.598 70.8871 295.7 71.6702 295.904 72.2831C296.109 72.93 296.415 73.4067 296.824 73.7812C297.232 74.1558 297.777 74.4281 298.39 74.5643C299.037 74.7346 299.786 74.8027 300.705 74.8027H303.94V79.3311C303.293 79.5013 302.476 79.6716 301.522 79.8078C300.569 79.944 299.479 80.0121 298.254 80.0121C296.722 80.0121 295.36 79.8418 294.168 79.5013C292.976 79.1609 291.955 78.6161 291.138 77.9011C290.32 77.152 289.674 76.1987 289.231 75.041C288.788 73.8834 288.584 72.4533 288.584 70.785V48.7217H284.26V43.7847Z" fill="#22252A"/>
<path d="M347.93 74.768C347.317 75.4489 346.636 76.0618 345.853 76.6066C345.07 77.1514 344.219 77.6621 343.3 78.0707C342.38 78.4792 341.393 78.8197 340.338 79.0581C339.282 79.2964 338.192 79.3985 337.069 79.3985C335.196 79.3985 333.426 79.0921 331.689 78.4452C329.987 77.7983 328.489 76.7768 327.195 75.3808C325.901 73.9849 324.88 72.2144 324.096 70.0012C323.313 67.8221 322.939 65.1664 322.939 62.068C322.939 58.595 323.381 55.6669 324.233 53.2495C325.118 50.8661 326.242 48.9253 327.672 47.4272C329.102 45.9291 330.702 44.8736 332.472 44.2267C334.277 43.5797 336.081 43.2393 337.954 43.2393C340.372 43.2393 342.414 43.6138 344.083 44.3288C345.751 45.0438 347.181 45.9972 348.407 47.1889C348.645 46.2015 349.054 45.3503 349.599 44.7374C350.143 44.0905 350.858 43.784 351.71 43.784H354.944V90.7366H347.93V74.768ZM338.771 74.2573C340.61 74.2573 342.312 73.8487 343.844 72.9975C345.377 72.1463 346.739 71.0567 347.93 69.7629V52.0578C346.875 51.0363 345.717 50.2532 344.423 49.7084C343.129 49.1637 341.529 48.8913 339.622 48.8913C338.431 48.8913 337.239 49.0956 336.081 49.4701C334.924 49.8446 333.902 50.5256 333.017 51.4449C332.098 52.3983 331.383 53.6921 330.838 55.2924C330.293 56.9267 329.987 58.9696 329.987 61.4891C329.987 63.9406 330.191 65.9835 330.6 67.6178C331.008 69.2522 331.587 70.58 332.37 71.5674C333.153 72.5548 334.073 73.2699 335.162 73.6784C336.252 74.053 337.443 74.2573 338.771 74.2573Z" fill="#22252A"/>
<path d="M376.667 74.5981C377.586 74.5981 378.471 74.496 379.391 74.2917C380.276 74.0874 381.161 73.849 382.012 73.5086C382.864 73.2021 383.681 72.8276 384.498 72.419C385.281 72.0104 386.064 71.6019 386.779 71.1592V43.7504H393.793V79.5692H389.401C388.992 79.5692 388.652 79.5351 388.345 79.433C388.039 79.3308 387.801 79.1606 387.596 78.8541C387.392 78.5477 387.222 78.1391 387.12 77.6284C386.983 77.0836 386.915 76.4027 386.881 75.5174C385.996 76.1643 385.043 76.7772 384.021 77.322C383 77.8667 381.944 78.3434 380.855 78.752C379.765 79.1606 378.607 79.467 377.45 79.7054C376.292 79.9437 375.135 80.0458 373.943 80.0458C372.547 80.0458 371.253 79.8756 370.061 79.5692C368.87 79.2627 367.848 78.7179 366.963 77.9689C366.078 77.2198 365.397 76.2324 364.92 75.0067C364.443 73.7809 364.171 72.2488 364.171 70.4442V43.7163H371.185V68.878C371.185 70.0016 371.321 70.9549 371.594 71.704C371.866 72.4531 372.24 73.0319 372.717 73.4405C373.194 73.849 373.773 74.1555 374.454 74.3257C375.101 74.496 375.85 74.5981 376.667 74.5981Z" fill="#22252A"/>
<path d="M408.264 63.0212C408.366 65.1322 408.639 66.9367 409.184 68.4349C409.694 69.933 410.409 71.1587 411.329 72.078C412.248 73.0314 413.372 73.7123 414.665 74.1209C415.993 74.5295 417.491 74.7678 419.16 74.7678C421.441 74.7678 423.416 74.4614 425.016 73.8145C426.616 73.1676 427.978 72.3845 429.068 71.4652H431.349V76.3341C430.702 76.7767 429.953 77.2193 429.136 77.6619C428.319 78.1046 427.331 78.4791 426.276 78.8536C425.22 79.1941 423.995 79.5005 422.667 79.7048C421.339 79.9091 419.807 80.0113 418.138 80.0113C415.38 80.0113 412.963 79.6027 410.852 78.7515C408.741 77.9003 406.936 76.7086 405.506 75.1083C404.042 73.5421 402.953 71.6354 402.204 69.3882C401.455 67.141 401.08 64.6214 401.08 61.7954C401.08 58.9354 401.489 56.3818 402.34 54.0665C403.191 51.7852 404.315 49.8104 405.779 48.2102C407.243 46.6099 408.979 45.3842 410.954 44.4989C412.963 43.6477 415.108 43.2051 417.423 43.2051C419.773 43.2051 421.884 43.5456 423.756 44.2606C425.629 44.9756 427.195 46.0311 428.489 47.4611C429.783 48.8911 430.736 50.6957 431.417 52.8748C432.098 55.0539 432.439 57.6075 432.439 60.5357C432.439 61.0123 432.439 61.489 432.405 61.9997C432.37 62.5105 432.37 62.8509 432.37 62.9531H408.264V63.0212ZM417.423 48.0399C416.266 48.0399 415.176 48.2102 414.155 48.5847C413.133 48.9592 412.248 49.5381 411.431 50.3893C410.648 51.2064 409.967 52.296 409.456 53.6239C408.911 54.9517 408.571 56.552 408.401 58.4587H425.527C425.493 56.518 425.254 54.8836 424.88 53.5898C424.505 52.2619 423.961 51.2064 423.28 50.3893C422.599 49.5721 421.747 48.9592 420.76 48.6188C419.739 48.2102 418.649 48.0399 417.423 48.0399Z" fill="#22252A"/>
<path d="M449.224 79.9432C447.76 79.9432 446.432 79.8411 445.241 79.6708C444.049 79.5006 442.994 79.2623 442.074 78.9558C441.121 78.6494 440.304 78.3089 439.555 77.9684C438.806 77.5939 438.125 77.2194 437.546 76.8108V71.3971H439.793C440.202 71.8057 440.712 72.1802 441.291 72.5547C441.87 72.9293 442.551 73.2698 443.3 73.5762C444.049 73.8826 444.9 74.121 445.854 74.3253C446.807 74.5295 447.828 74.5976 448.918 74.5976C453.889 74.5976 456.375 72.8612 456.375 69.4223C456.375 68.6732 456.272 68.0263 456.034 67.4815C455.796 66.9368 455.387 66.4601 454.808 66.0515C454.23 65.6429 453.446 65.3025 452.493 64.996C451.54 64.6896 450.314 64.4513 448.85 64.2129C447.045 63.9405 445.445 63.566 444.049 63.0893C442.653 62.6126 441.461 61.9657 440.508 61.1486C439.555 60.3314 438.806 59.344 438.329 58.1523C437.818 56.9606 437.58 55.5306 437.58 53.8622C437.58 52.1598 437.886 50.6617 438.499 49.3679C439.112 48.074 439.963 46.9845 441.087 46.0992C442.21 45.214 443.538 44.533 445.139 44.0904C446.739 43.6478 448.509 43.4094 450.484 43.4094C453.004 43.4094 455.081 43.6478 456.749 44.1585C458.417 44.6352 459.847 45.248 461.005 45.929V51.2746H458.758C457.873 50.5936 456.783 49.9807 455.455 49.47C454.127 48.9593 452.493 48.721 450.518 48.721C448.237 48.721 446.535 49.0955 445.445 49.8786C444.356 50.6617 443.811 51.8193 443.811 53.3515C443.811 54.0665 443.947 54.6794 444.219 55.1901C444.492 55.7009 444.934 56.1435 445.513 56.518C446.126 56.8925 446.909 57.233 447.862 57.4714C448.816 57.7097 450.008 57.9821 451.438 58.1864C453.412 58.4928 455.115 58.8673 456.545 59.3781C458.009 59.8888 459.201 60.5357 460.154 61.3529C461.107 62.17 461.822 63.1915 462.299 64.4172C462.776 65.6429 463.014 67.073 463.014 68.7754C463.014 70.4778 462.742 72.01 462.197 73.406C461.652 74.8019 460.801 75.9596 459.677 76.947C458.554 77.9003 457.124 78.6494 455.387 79.1942C453.617 79.6708 451.574 79.9432 449.224 79.9432Z" fill="#22252A"/>
<path d="M466.794 43.7847H471.118V34.0469H478.132V43.7847H486.065V48.6876H478.132V69.9338C478.132 70.8871 478.234 71.6702 478.438 72.2831C478.642 72.93 478.949 73.4067 479.357 73.7812C479.766 74.1558 480.311 74.4281 480.924 74.5643C481.571 74.7346 482.32 74.8027 483.239 74.8027H486.474V79.3311C485.827 79.5013 485.009 79.6716 484.056 79.8078C483.103 79.944 482.013 80.0121 480.787 80.0121C479.255 80.0121 477.893 79.8418 476.702 79.5013C475.51 79.1609 474.489 78.6161 473.671 77.9011C472.854 77.152 472.207 76.1987 471.765 75.041C471.322 73.8834 471.118 72.4533 471.118 70.785V48.7217H466.794V43.7847Z" fill="#22252A"/>
<path d="M509.29 36.6967C509.29 29.9607 514.751 24.5 521.487 24.5H632.093C638.829 24.5 644.29 29.9607 644.29 36.6967V74.3033C644.29 81.0393 638.829 86.5 632.093 86.5H521.487C514.751 86.5 509.29 81.0393 509.29 74.3033V36.6967Z" fill="#22252A" fill-opacity="0.9"/>
<path d="M538.362 68.8145C544.988 68.8145 550.177 64.4795 550.177 56.2588C550.177 49.2285 546.718 45.5898 540.698 45.5898C537.262 45.5898 534.814 46.668 532.927 48.083C533.196 46.1738 533.938 44.8037 535.173 43.9727C536.408 43.1416 538.115 42.6699 540.294 42.5127C542.428 42.4004 544.292 42.1084 545.707 41.8613C546.516 41.749 547.279 41.6143 547.976 41.502V36.291H545.617C545.28 36.4033 544.876 36.4932 544.382 36.583C543.506 36.6953 542.383 36.875 540.788 36.9873C534.769 37.3467 531.197 39.0537 529.108 41.9736C528.053 43.4336 527.357 45.1631 527.02 47.1621C526.66 49.1611 526.481 51.3848 526.481 53.8779V54.7539C526.481 65.0635 531.512 68.8145 538.362 68.8145ZM538.362 64.0303C534.836 64.0303 533.286 61.9414 533.286 54.8438V52.6201C533.803 52.1484 534.499 51.6543 535.353 51.1826C536.184 50.7109 537.217 50.4639 538.452 50.4639C540.002 50.4639 541.215 50.8906 542.091 51.7666C542.944 52.6426 543.371 54.2148 543.371 56.4385C543.371 59.2012 542.922 61.1553 542.023 62.3008C541.103 63.4463 539.89 64.0303 538.362 64.0303ZM569.784 68.5H576.5V44.3545H557.408C557.408 45.9043 557.386 47.5439 557.318 49.2285C557.251 50.666 557.206 52.2383 557.139 53.9678C557.071 55.6973 556.982 57.3369 556.869 58.9316C556.712 60.6611 556.443 61.8291 556.061 62.458C555.679 63.0869 554.938 63.4014 553.882 63.4014H553.096V67.9834C553.276 68.1855 553.5 68.3428 553.792 68.4551C554.264 68.7021 554.96 68.9043 555.948 68.9043C560.53 68.9043 562.552 65.8945 562.844 59.6279C562.866 58.8193 562.911 57.8086 562.934 56.6182C562.956 55.4277 563.001 54.2822 563.068 53.1816C563.136 51.9014 563.181 50.5537 563.203 49.1836H569.784V68.5ZM593.48 68.8145C600.263 68.8145 605.811 64.2773 605.811 56.5508C605.811 48.7568 600.263 43.9727 593.48 43.9727C586.674 43.9727 581.149 48.7568 581.149 56.5508C581.149 64.2773 586.674 68.8145 593.48 68.8145ZM593.48 64.0303C591.84 64.0303 590.492 63.4463 589.482 62.2559C588.471 61.0879 587.954 59.2012 587.954 56.5957C587.954 53.9453 588.471 51.9688 589.482 50.6885C590.492 49.4082 591.84 48.7568 593.48 48.7568C595.142 48.7568 596.489 49.4082 597.5 50.6885C598.511 51.9688 599.005 53.9453 599.005 56.5957C599.005 59.2012 598.511 61.0879 597.5 62.2559C596.489 63.4463 595.142 64.0303 593.48 64.0303ZM627.193 44.3545H610.459V68.5H617.175V49.0938H627.193V44.3545Z" fill="white"/>
<defs>
<linearGradient id="paint0_linear" x1="78.0266" y1="19.5" x2="62.5266" y2="43" gradientUnits="userSpaceOnUse">
<stop stop-color="#2D862D"/>
<stop offset="1" stop-color="#B34A00"/>
</linearGradient>
</defs>
</svg>
