<svg width="196" height="144" viewBox="0 0 196 144" fill="none" xmlns="http://www.w3.org/2000/svg">
<path d="M195.999 140.244C195.999 142.318 194.318 144 192.243 144L3.75618 144C1.68172 144 3.03693e-05 142.318 4.54452e-05 140.244L0.000751811 17.7929L196 17.7929L195.999 140.244Z" fill="#F2F2F2"/>
<path d="M195.5 7.27478L195.499 18.2945L0.50003 18.2945L0.500701 7.2748L195.5 7.27478Z" fill="white" stroke="white"/>
<path d="M0.0136719 3.75612C0.0136719 1.68167 1.69535 0 3.76979 0H192.24C194.315 0 195.996 1.68167 195.996 3.75612V7.95775H0.0136719V3.75612Z" fill="#2F2F2F"/>
<ellipse cx="4.02331" cy="3.979" rx="1.33777" ry="1.32629" fill="#F2F2F2"/>
<ellipse cx="8.70886" cy="3.979" rx="1.33777" ry="1.32629" fill="#F2F2F2"/>
<ellipse cx="13.3866" cy="3.979" rx="1.33777" ry="1.32629" fill="#F2F2F2"/>
<path d="M6.24279 14.9747V13.3376C6.24279 13.1314 6.19544 12.9774 6.10073 12.8759C6.00602 12.7743 5.85774 12.7235 5.6559 12.7235C5.3873 12.7235 5.19089 12.7958 5.06668 12.9405C4.94402 13.0852 4.8827 13.3222 4.8827 13.6517V14.9747H4.49609V11.382H4.8827V12.4695C4.8827 12.6003 4.87649 12.7088 4.86406 12.795H4.88735C4.96343 12.6734 5.07134 12.578 5.21108 12.5087C5.35236 12.4379 5.51306 12.4025 5.69316 12.4025C6.00524 12.4025 6.23891 12.4764 6.39417 12.6242C6.55099 12.7704 6.62939 13.0036 6.62939 13.3238V14.9747H6.24279Z" fill="#5E5E5E"/>
<path d="M8.25033 14.7045C8.31864 14.7045 8.38463 14.6999 8.44829 14.6907C8.51195 14.6799 8.56241 14.6691 8.59967 14.6584V14.9516C8.55775 14.9716 8.49564 14.9878 8.41335 15.0001C8.33262 15.0139 8.25964 15.0209 8.19443 15.0209C7.7007 15.0209 7.45383 14.763 7.45383 14.2474V12.7419H7.08819V12.5572L7.45383 12.3979L7.61686 11.8576H7.84044V12.4441H8.58104V12.7419H7.84044V14.2312C7.84044 14.3836 7.87692 14.5006 7.9499 14.5822C8.02287 14.6638 8.12301 14.7045 8.25033 14.7045Z" fill="#5E5E5E"/>
<path d="M9.93647 14.7045C10.0048 14.7045 10.0708 14.6999 10.1344 14.6907C10.1981 14.6799 10.2486 14.6691 10.2858 14.6584V14.9516C10.2439 14.9716 10.1818 14.9878 10.0995 15.0001C10.0188 15.0139 9.94579 15.0209 9.88058 15.0209C9.38685 15.0209 9.13998 14.763 9.13998 14.2474V12.7419H8.77434V12.5572L9.13998 12.3979L9.30301 11.8576H9.52658V12.4441H10.2672V12.7419H9.52658V14.2312C9.52658 14.3836 9.56307 14.5006 9.63604 14.5822C9.70902 14.6638 9.80916 14.7045 9.93647 14.7045Z" fill="#5E5E5E"/>
<path d="M11.9859 15.0209C11.8198 15.0209 11.6676 14.9909 11.5295 14.9308C11.3928 14.8692 11.2779 14.7754 11.1848 14.6491H11.1568C11.1755 14.7969 11.1848 14.937 11.1848 15.0694V16.1107H10.7982V12.4441H11.1126L11.1661 12.7904H11.1848C11.2841 12.6519 11.3998 12.5518 11.5318 12.4903C11.6638 12.4287 11.8151 12.3979 11.9859 12.3979C12.3244 12.3979 12.5852 12.5126 12.7685 12.7419C12.9532 12.9713 13.0456 13.293 13.0456 13.7071C13.0456 14.1227 12.9517 14.4459 12.7638 14.6768C12.5775 14.9062 12.3182 15.0209 11.9859 15.0209ZM11.93 12.7235C11.6692 12.7235 11.4806 12.795 11.3641 12.9382C11.2477 13.0813 11.1879 13.3092 11.1848 13.6216V13.7071C11.1848 14.0627 11.2446 14.3174 11.3641 14.4713C11.4837 14.6237 11.6754 14.6999 11.9394 14.6999C12.1598 14.6999 12.3322 14.6114 12.4564 14.4344C12.5821 14.2574 12.645 14.0134 12.645 13.7025C12.645 13.3869 12.5821 13.1452 12.4564 12.9774C12.3322 12.8081 12.1567 12.7235 11.93 12.7235Z" fill="#5E5E5E"/>
<path d="M15.3699 14.2843C15.3699 14.5198 15.2814 14.7015 15.1044 14.8292C14.9274 14.957 14.679 15.0209 14.3591 15.0209C14.0206 15.0209 13.7567 14.9678 13.5673 14.8616V14.506C13.6899 14.5675 13.8211 14.616 13.9609 14.6514C14.1022 14.6868 14.238 14.7045 14.3684 14.7045C14.5703 14.7045 14.7255 14.673 14.8342 14.6099C14.9429 14.5452 14.9972 14.4475 14.9972 14.3166C14.9972 14.2181 14.9538 14.1342 14.8668 14.065C14.7814 13.9942 14.6137 13.911 14.3638 13.8156C14.1262 13.7279 13.957 13.6517 13.8561 13.587C13.7567 13.5208 13.6822 13.4462 13.6325 13.363C13.5844 13.2799 13.5603 13.1806 13.5603 13.0652C13.5603 12.8589 13.6449 12.6965 13.8141 12.578C13.9834 12.4579 14.2155 12.3979 14.5105 12.3979C14.7853 12.3979 15.0539 12.4533 15.3163 12.5641L15.1789 12.8759C14.9227 12.7712 14.6906 12.7188 14.4825 12.7188C14.2993 12.7188 14.1612 12.7473 14.068 12.8043C13.9748 12.8612 13.9283 12.9397 13.9283 13.0398C13.9283 13.1075 13.9453 13.1652 13.9795 13.213C14.0152 13.2607 14.0719 13.3061 14.1495 13.3492C14.2271 13.3923 14.3762 13.4546 14.5967 13.5362C14.8994 13.6455 15.1036 13.7556 15.2092 13.8664C15.3163 13.9772 15.3699 14.1165 15.3699 14.2843Z" fill="#5E5E5E"/>
<path d="M15.9451 14.7299C15.9451 14.6268 15.9684 14.5491 16.015 14.4967C16.0631 14.4429 16.1314 14.4159 16.2199 14.4159C16.31 14.4159 16.3798 14.4429 16.4295 14.4967C16.4808 14.5491 16.5064 14.6268 16.5064 14.7299C16.5064 14.83 16.4808 14.907 16.4295 14.9608C16.3783 15.0147 16.3084 15.0417 16.2199 15.0417C16.1407 15.0417 16.0748 15.0178 16.022 14.9701C15.9707 14.9208 15.9451 14.8408 15.9451 14.7299ZM15.9451 12.6911C15.9451 12.4833 16.0367 12.3794 16.2199 12.3794C16.4109 12.3794 16.5064 12.4833 16.5064 12.6911C16.5064 12.7912 16.4808 12.8682 16.4295 12.922C16.3783 12.9759 16.3084 13.0028 16.2199 13.0028C16.1407 13.0028 16.0748 12.979 16.022 12.9313C15.9707 12.882 15.9451 12.802 15.9451 12.6911Z" fill="#5E5E5E"/>
<path d="M18.5652 11.599L17.2959 14.9747H16.9093L18.1786 11.599H18.5652Z" fill="#5E5E5E"/>
<path d="M20.3165 11.599L19.0472 14.9747H18.6606L19.9299 11.599H20.3165Z" fill="#5E5E5E"/>
<g filter="url(#filter0_d)">
<rect x="41.4219" y="39.829" width="112.144" height="80.5455" rx="5.24561" fill="white"/>
</g>
<path d="M69.0527 61.3768H126.479" stroke="#2F2F2F" stroke-width="3"/>
<path d="M61.4668 54.9313H132.979" stroke="#2F2F2F" stroke-width="3"/>
<path d="M142.453 44.8371L148.515 50.8469" stroke="#2F2F2F" stroke-width="0.92"/>
<path d="M142.453 50.8469L148.515 44.8371" stroke="#2F2F2F" stroke-width="0.92"/>
<rect x="52.2148" y="71.0078" width="89.4739" height="9.20515" rx="2.5" fill="white" stroke="#E3E5E8"/>
<rect x="52.2148" y="86.0468" width="89.4739" height="9.20515" rx="2.5" fill="white" stroke="#E3E5E8"/>
<rect x="51.7148" y="101.66" width="29.7968" height="10.2052" rx="3" fill="#FF7C16"/>
<defs>
<filter id="filter0_d" x="31.4219" y="32.829" width="132.144" height="100.546" filterUnits="userSpaceOnUse" color-interpolation-filters="sRGB">
<feFlood flood-opacity="0" result="BackgroundImageFix"/>
<feColorMatrix in="SourceAlpha" type="matrix" values="0 0 0 0 0 0 0 0 0 0 0 0 0 0 0 0 0 0 127 0"/>
<feOffset dy="3"/>
<feGaussianBlur stdDeviation="5"/>
<feColorMatrix type="matrix" values="0 0 0 0 0 0 0 0 0 0 0 0 0 0 0 0 0 0 0.1 0"/>
<feBlend mode="normal" in2="BackgroundImageFix" result="effect1_dropShadow"/>
<feBlend mode="normal" in="SourceGraphic" in2="effect1_dropShadow" result="shape"/>
</filter>
</defs>
</svg>
