<svg width="210" height="144" viewBox="0 0 210 144" fill="none" xmlns="http://www.w3.org/2000/svg">
<path d="M209.499 139C209.499 141.485 207.484 143.5 204.999 143.5L5.00006 143.5C2.51476 143.5 0.50003 141.485 0.500045 139L0.500782 5.00002C0.500797 2.51474 2.51551 0.500034 5.00078 0.500034L205 0.500016C207.485 0.500015 209.5 2.51476 209.5 5.00005L209.499 139Z" fill="white" stroke="#E3E5E8"/>
<rect x="137.656" y="118" width="57.2727" height="17" rx="3" fill="#FF7C16"/>
<rect x="15.0723" y="61" width="146.699" height="36" rx="4.64444" fill="#9FD356"/>
<rect x="26.6523" y="72" width="124.064" height="2.78667" rx="1.39333" fill="#F2F2F2"/>
<rect x="27.1152" y="83.1016" width="89.7708" height="3" rx="1.5" fill="#F2F2F2"/>
<rect x="49.2344" y="13" width="145.694" height="36" rx="4.64444" fill="#F2F2F2"/>
<rect x="61.1953" y="25" width="104.378" height="3" rx="1.5" fill="#979797"/>
<rect x="61.1953" y="34" width="82.6323" height="3" rx="1.5" fill="#979797"/>
<path d="M167.297 68.4999C166.795 67.0001 160.264 65.5 160.264 68.0004C159.929 70.6671 158.36 76.2886 159.259 74.4999C160.766 71.4999 163.78 68.4999 167.297 68.4999Z" fill="#9FD356"/>
<path d="M43.2069 20.8369C43.7089 19.337 50.24 17.8369 50.2403 20.3373C50.5752 23.004 52.144 28.6255 51.2451 26.8368C49.7377 23.8368 46.7236 20.8368 43.2069 20.8369Z" fill="#F2F2F2"/>
<ellipse cx="27.6321" cy="25.5" rx="12.5598" ry="12.5" fill="#F2F2F2"/>
<ellipse cx="27.632" cy="20.5" rx="3.51675" ry="3.5" fill="#C4C4C4"/>
<path d="M27.6327 25C24.0256 25 21.1016 27.6863 21.1016 31H34.1638C34.1638 27.6863 31.2397 25 27.6327 25Z" fill="#C4C4C4"/>
<ellipse cx="183.374" cy="73.5" rx="12.5598" ry="12.5" fill="#F2F2F2"/>
<ellipse cx="183.374" cy="68.5" rx="3.51675" ry="3.5" fill="#C4C4C4"/>
<path d="M183.375 73C179.768 73 176.844 75.6863 176.844 79H189.906C189.906 75.6863 186.982 73 183.375 73Z" fill="#C4C4C4"/>
<line x1="-4.39205e-08" y1="110.5" x2="210" y2="110.5" stroke="#E3E5E8"/>
<line x1="15.5723" y1="118" x2="15.5723" y2="135" stroke="black"/>
</svg>
