<svg width="63" height="62" viewBox="0 0 63 62" fill="none" xmlns="http://www.w3.org/2000/svg">
<path d="M39.1948 6.02973L39.1947 6.02977L39.2022 6.03804L44.6436 12.0236L45.3836 11.3509L44.6436 12.0236C44.811 12.2077 44.9037 12.4475 44.9037 12.6963V55.2306C44.9037 55.7829 44.456 56.2306 43.9037 56.2306H2C1.44771 56.2306 1 55.7829 1 55.2306V2C1 1.44771 1.44771 1 2 1H34.2748C34.5605 1 34.8325 1.12215 35.0222 1.33564L39.1948 6.02973Z" stroke="#4B45FF" stroke-width="2"/>
<rect x="8.40674" y="10.5084" width="16.8135" height="2.10169" fill="#DCDBFF"/>
<rect x="8.40674" y="17.8643" width="29.4236" height="2.10169" fill="#DCDBFF"/>
<rect x="8.40674" y="23.1186" width="29.4236" height="2.10169" fill="#DCDBFF"/>
<rect x="8.40674" y="45.1863" width="9.4576" height="2.10169" fill="#DCDBFF"/>
<path d="M35.1729 1.1923V10.923C35.1729 11.4753 35.6206 11.923 36.1729 11.923H44.7113" stroke="#4B45FF" stroke-width="2"/>
<path d="M23.0576 30.6155C23.0576 30.0632 23.5053 29.6155 24.0576 29.6155H53.1195H60.596C61.1482 29.6155 61.596 30.0632 61.596 30.6155V35.1615V60C61.596 60.5523 61.1482 61 60.596 61H24.0576C23.5053 61 23.0576 60.5523 23.0576 60V30.6155Z" fill="white" stroke="#FF6600" stroke-width="2"/>
<path d="M26.2305 60.8077L37.4464 49.5918C37.8369 49.2012 38.4701 49.2012 38.8606 49.5918L45.3073 56.0385M50.0765 60.8077L45.3073 56.0385M60.8073 57.2308L53.1683 49.5918C52.7777 49.2012 52.1446 49.2012 51.754 49.5918L45.3073 56.0385" stroke="#FF6600" stroke-width="2"/>
</svg>
