<svg width="230" height="165" viewBox="0 0 230 165" fill="none" xmlns="http://www.w3.org/2000/svg">
<g filter="url(#filter0_d)">
<path d="M226.042 156.338C226.042 159.099 223.804 161.338 221.042 161.338L8.00005 161.338C5.2386 161.338 3.00003 159.099 3.00005 156.338L3.00083 5.28373L226.043 5.28371L226.042 156.338Z" fill="white"/>
<path d="M3 8C3 5.23858 5.23858 3 8 3H221.043C223.805 3 226.043 5.23858 226.043 8V12.1349H3V8Z" fill="#E9E9E9"/>
<circle cx="7.5674" cy="7.5674" r="1.52248" fill="white"/>
<circle cx="12.8961" cy="7.5674" r="1.52248" fill="white"/>
<circle cx="18.2248" cy="7.5674" r="1.52248" fill="white"/>
<path d="M3 21.9358L226.043 21.9358" stroke="#F2F2F2" stroke-width="0.249911"/>
<rect x="23.5535" y="73.7953" width="30.4496" height="3.8062" rx="0.749733" fill="#EEEEEE"/>
<rect x="22.7922" y="28.8821" width="21.3147" height="2.28372" rx="0.749733" fill="#EEEEEE"/>
<rect x="50.1968" y="28.8821" width="29.6884" height="2.28372" rx="0.749733" fill="#EEEEEE"/>
<rect x="85.2139" y="28.8821" width="17.5085" height="2.28372" rx="0.749733" fill="#EEEEEE"/>
<rect x="108.051" y="28.8821" width="29.6884" height="2.28372" rx="0.749733" fill="#EEEEEE"/>
<rect x="143.829" y="28.8821" width="16.7473" height="2.28372" rx="0.749733" fill="#EEEEEE"/>
<rect x="23.5535" y="80.6465" width="41.8682" height="2.28372" rx="0.749733" fill="#F3F3F3"/>
<rect x="23.5535" y="85.2139" width="18.2698" height="2.28372" rx="0.749733" fill="#F3F3F3"/>
<rect x="70.7503" y="73.7953" width="38.062" height="3.8062" rx="0.749733" fill="#EEEEEE"/>
<rect x="70.7503" y="80.6465" width="42.6294" height="2.28372" rx="0.749733" fill="#F3F3F3"/>
<rect x="70.7503" y="85.2139" width="18.2698" height="2.28372" rx="0.749733" fill="#F3F3F3"/>
<rect x="118.708" y="73.7953" width="27.4046" height="3.8062" rx="0.749733" fill="#EEEEEE"/>
<rect x="118.708" y="80.6465" width="42.6294" height="2.28372" rx="0.749733" fill="#F3F3F3"/>
<rect x="118.708" y="85.2139" width="18.2698" height="2.28372" rx="0.749733" fill="#F3F3F3"/>
<rect x="166.667" y="73.7953" width="38.8232" height="3.8062" rx="0.749733" fill="#EEEEEE"/>
<rect x="166.667" y="80.6465" width="41.8682" height="2.28372" rx="0.749733" fill="#F3F3F3"/>
<rect x="166.667" y="85.2139" width="18.2698" height="2.28372" rx="0.749733" fill="#F3F3F3"/>
<rect x="23.6784" y="38.142" width="41.6183" height="30.9609" fill="white" stroke="#F2F2F2" stroke-width="0.249911"/>
<rect x="70.8753" y="38.142" width="42.3795" height="30.9609" fill="white" stroke="#F2F2F2" stroke-width="0.249911"/>
<rect x="118.072" y="38.142" width="42.3795" height="30.9609" fill="white" stroke="#F2F2F2" stroke-width="0.249911"/>
<path d="M143.568 51.6143L143.547 49.8396L146.113 49.1391C146.113 45.5874 144.382 45.0293 141.424 44.1069H141.167C141.167 44.7089 140.926 45.2862 140.498 45.7119C140.069 46.1375 139.488 46.3766 138.881 46.3766C138.275 46.3766 137.694 46.1375 137.265 45.7119C136.836 45.2862 136.595 44.7089 136.595 44.1069H136.339C133.616 44.8682 131.65 45.585 131.65 49.1391L134.215 49.8396L134.178 51.5746L135.163 53.5244V56.0509L134.222 61.6154H143.524L142.583 56.0112V53.4847L143.568 51.6143Z" fill="#EEEEEE"/>
<rect x="166.792" y="38.142" width="41.6183" height="30.9609" fill="white" stroke="#F2F2F2" stroke-width="0.249911"/>
<path fill-rule="evenodd" clip-rule="evenodd" d="M42.2266 45.6294C42.5565 46.5648 43.4454 47.2365 44.4876 47.2365C45.5298 47.2365 46.4187 46.5648 46.7486 45.6294H47.678C48.5646 45.6294 49.6819 46.2303 50.174 46.9724L52.4806 50.4506L49.763 52.6201L49.7235 52.5738C49.5727 52.397 49.2834 52.5036 49.2834 52.7359V59.2931C49.2834 59.7349 48.9191 60.093 48.4821 60.093H40.4931C40.0505 60.093 39.6918 59.7268 39.6918 59.2931V52.7476C39.6918 52.5332 39.4163 52.4453 39.2921 52.6201L36.4946 50.4506L38.8012 46.9724C39.293 46.2307 40.4127 45.6294 41.2972 45.6294H42.2266ZM46.233 50.4506C45.7922 50.4506 45.4337 50.811 45.4337 51.2541C45.4337 51.6972 45.7922 52.0576 46.233 52.0576C46.6738 52.0576 47.0323 51.6972 47.0323 51.2541C47.0323 50.811 46.6738 50.4506 46.233 50.4506Z" fill="#EEEEEE"/>
<path d="M95.9703 58.3976C95.9703 58.3976 95.1294 60.577 93.3406 59.9938C91.5519 59.4105 91.7812 56.0646 91.8729 55.3126C91.9647 54.5605 92.194 53.1178 92.2093 52.3043C92.2093 52.3043 92.1787 51.9513 92.3163 51.8132L92.301 51.3681C92.301 51.3681 92.0105 49.7566 92.4386 47.8841C92.4386 47.8841 92.8055 46.3953 94.0592 46.3953C94.0592 46.3953 94.9154 46.2265 95.5881 47.9148C96.2608 49.6031 96.0008 51.2146 95.9703 51.4142L96.0314 51.8132C96.0314 51.8132 96.2149 51.9513 96.1843 52.1816C96.169 52.3964 96.2913 52.9643 96.3831 53.4401C96.4748 53.9159 97.0863 55.6809 95.9703 58.3976ZM95.3129 49.7105C95.0224 46.7944 94.0745 46.9172 94.0745 46.9172C92.7444 46.9172 92.8361 49.7412 92.8361 49.7412C92.8055 50.5086 92.9431 51.2146 92.9431 51.2146L93.1419 51.3988C93.4477 50.8156 94.0898 50.8156 94.0898 50.8156C95.0071 50.8156 95.0988 51.4449 95.0988 51.4449L95.3281 51.2607C95.3893 50.6467 95.3129 49.7105 95.3129 49.7105ZM89.2739 59.9938C87.4851 60.577 86.6442 58.3976 86.6442 58.3976C85.5282 55.6809 86.1244 53.9312 86.2162 53.4555C86.3079 52.9797 86.4302 52.4118 86.4149 52.1969C86.3996 51.982 86.5678 51.8286 86.5678 51.8286L86.6289 51.4295C86.5984 51.23 86.3385 49.6184 87.0112 47.9301C87.6839 46.2418 88.54 46.4107 88.54 46.4107C89.7937 46.4107 90.1606 47.8994 90.1606 47.8994C90.5734 49.7566 90.2982 51.3681 90.2982 51.3681L90.2829 51.8132C90.4358 51.9667 90.3899 52.3043 90.3899 52.3043C90.4052 53.1178 90.6193 54.5605 90.7263 55.3126C90.8333 56.0646 91.0626 59.4105 89.2739 59.9938ZM88.5247 46.9018C88.5247 46.9018 87.5768 46.7944 87.2864 49.6952C87.2864 49.6952 87.2252 50.6314 87.2711 51.23L87.5004 51.4142C87.5004 51.4142 87.5921 50.7849 88.5094 50.7849C88.5094 50.7849 89.1516 50.7849 89.4573 51.3681L89.6561 51.1839C89.6561 51.1839 89.7937 50.4779 89.7631 49.7105C89.7631 49.7259 89.8548 46.9018 88.5247 46.9018Z" fill="#EEEEEE"/>
<path fill-rule="evenodd" clip-rule="evenodd" d="M183.156 44.77C182.897 44.77 182.752 44.9865 182.747 45.1675H182.753C182.759 45.6326 182.74 46.1082 182.758 46.5698L181.089 59.742C181.062 59.9383 181.208 60.146 181.401 60.1906L183.922 60.747C184.122 60.7929 184.349 60.6594 184.405 60.4631L187.085 51.1631L189.765 60.4631C189.82 60.6568 190.038 60.7893 190.236 60.747L192.762 60.1906C192.959 60.1486 193.101 59.94 193.075 59.742L191.406 46.5017V45.1675C191.406 44.9571 191.214 44.77 191.002 44.77H183.156H183.156ZM183.519 46.9502H184.144V48.6535L183.241 49.1759L183.519 46.9502ZM187.488 46.9502H187.829V48.2675C187.824 48.5298 187.725 48.8107 187.488 48.9374V46.9502ZM190.009 46.9502H190.645L190.929 49.1816L190.009 48.6535V46.9502Z" fill="#EEEEEE"/>
<rect x="23.5535" y="133.172" width="30.4496" height="3.8062" rx="0.749733" fill="#EEEEEE"/>
<rect x="23.5535" y="140.023" width="41.8682" height="2.28372" rx="0.749733" fill="#F3F3F3"/>
<rect x="23.5535" y="144.591" width="18.2698" height="2.28372" rx="0.749733" fill="#F3F3F3"/>
<rect x="70.7503" y="133.172" width="38.062" height="3.8062" rx="0.749733" fill="#EEEEEE"/>
<rect x="70.7503" y="140.023" width="42.6294" height="2.28372" rx="0.749733" fill="#F3F3F3"/>
<rect x="70.7503" y="144.591" width="18.2698" height="2.28372" rx="0.749733" fill="#F3F3F3"/>
<rect x="118.708" y="133.172" width="27.4046" height="3.8062" rx="0.749733" fill="#EEEEEE"/>
<rect x="118.708" y="140.023" width="42.6294" height="2.28372" rx="0.749733" fill="#F3F3F3"/>
<rect x="118.708" y="144.591" width="18.2698" height="2.28372" rx="0.749733" fill="#F3F3F3"/>
<rect x="166.667" y="133.172" width="38.8232" height="3.8062" rx="0.749733" fill="#EEEEEE"/>
<rect x="166.667" y="140.023" width="41.8682" height="2.28372" rx="0.749733" fill="#F3F3F3"/>
<rect x="166.667" y="144.591" width="18.2698" height="2.28372" rx="0.749733" fill="#F3F3F3"/>
<rect x="23.6784" y="97.5188" width="41.6183" height="30.9609" fill="white" stroke="#F2F2F2" stroke-width="0.249911"/>
<rect x="118.833" y="97.5188" width="42.3795" height="30.9609" fill="white" stroke="#F2F2F2" stroke-width="0.249911"/>
<rect x="70.8753" y="97.5188" width="42.3795" height="30.9609" fill="white" stroke="#F2F2F2" stroke-width="0.249911"/>
<path d="M96.5055 110.991L96.4854 109.216L98.9162 108.516C98.9162 104.964 97.2764 104.406 94.4735 103.484H94.2307C94.2307 104.086 94.0025 104.663 93.5964 105.089C93.1902 105.514 92.6394 105.753 92.065 105.753C91.4907 105.753 90.9398 105.514 90.5337 105.089C90.1276 104.663 89.8994 104.086 89.8994 103.484H89.6565C87.0765 104.245 85.2139 104.962 85.2139 108.516L87.6446 109.216L87.609 110.951L88.5425 112.901V115.428L87.6513 120.992H96.4631L95.5719 115.388V112.861L96.5055 110.991Z" fill="#EEEEEE"/>
<rect x="166.792" y="97.5188" width="41.6183" height="30.9609" fill="white" stroke="#F2F2F2" stroke-width="0.249911"/>
<path fill-rule="evenodd" clip-rule="evenodd" d="M185.34 105.006C185.67 105.941 186.558 106.613 187.601 106.613C188.643 106.613 189.532 105.941 189.862 105.006H190.791C191.678 105.006 192.795 105.607 193.287 106.349L195.594 109.827L192.876 111.997L192.837 111.95C192.686 111.774 192.396 111.88 192.396 112.113V118.67C192.396 119.112 192.032 119.47 191.595 119.47H183.606C183.164 119.47 182.805 119.104 182.805 118.67V112.124C182.805 111.91 182.529 111.822 182.405 111.997L179.608 109.827L181.914 106.349C182.406 105.607 183.526 105.006 184.41 105.006H185.34ZM189.346 109.827C188.905 109.827 188.547 110.188 188.547 110.631C188.547 111.074 188.905 111.434 189.346 111.434C189.787 111.434 190.145 111.074 190.145 110.631C190.145 110.188 189.787 109.827 189.346 109.827Z" fill="#EEEEEE"/>
<path d="M49.4873 117.774C49.4873 117.774 48.5864 119.954 46.6698 119.37C44.7533 118.787 44.999 115.441 45.0973 114.689C45.1956 113.937 45.4413 112.495 45.4577 111.681C45.4577 111.681 45.4249 111.328 45.5723 111.19L45.556 110.745C45.556 110.745 45.2447 109.133 45.7034 107.261C45.7034 107.261 46.0965 105.772 47.4397 105.772C47.4397 105.772 48.357 105.603 49.0778 107.291C49.7985 108.98 49.5201 110.591 49.4873 110.791L49.5528 111.19C49.5528 111.19 49.7494 111.328 49.7166 111.558C49.7003 111.773 49.8313 112.341 49.9296 112.817C50.0279 113.293 50.6831 115.058 49.4873 117.774ZM48.7829 109.087C48.4717 106.171 47.4561 106.294 47.4561 106.294C46.031 106.294 46.1293 109.118 46.1293 109.118C46.0965 109.885 46.2439 110.591 46.2439 110.591L46.4569 110.776C46.7845 110.192 47.4725 110.192 47.4725 110.192C48.4553 110.192 48.5536 110.822 48.5536 110.822L48.7993 110.637C48.8648 110.023 48.7829 109.087 48.7829 109.087ZM42.3126 119.37C40.3961 119.954 39.4951 117.774 39.4951 117.774C38.2993 115.058 38.9382 113.308 39.0365 112.832C39.1348 112.356 39.2658 111.788 39.2494 111.574C39.233 111.359 39.4132 111.205 39.4132 111.205L39.4787 110.806C39.446 110.607 39.1675 108.995 39.8883 107.307C40.609 105.619 41.5263 105.787 41.5263 105.787C42.8695 105.787 43.2627 107.276 43.2627 107.276C43.7049 109.133 43.4101 110.745 43.4101 110.745L43.3937 111.19C43.5575 111.343 43.5084 111.681 43.5084 111.681C43.5248 112.495 43.7541 113.937 43.8688 114.689C43.9834 115.441 44.2291 118.787 42.3126 119.37ZM41.5099 106.279C41.5099 106.279 40.4943 106.171 40.1831 109.072C40.1831 109.072 40.1176 110.008 40.1667 110.607L40.4124 110.791C40.4124 110.791 40.5107 110.162 41.4936 110.162C41.4936 110.162 42.1815 110.162 42.5092 110.745L42.7221 110.561C42.7221 110.561 42.8695 109.855 42.8368 109.087C42.8368 109.103 42.9351 106.279 41.5099 106.279Z" fill="#EEEEEE"/>
<path fill-rule="evenodd" clip-rule="evenodd" d="M135.971 104.331C135.713 104.331 135.567 104.548 135.562 104.729H135.568C135.574 105.194 135.556 105.669 135.574 106.131L133.904 119.303C133.878 119.499 134.023 119.707 134.217 119.752L136.738 120.308C136.937 120.354 137.165 120.221 137.22 120.024L139.9 110.724L142.58 120.024C142.635 120.218 142.853 120.35 143.051 120.308L145.578 119.752C145.774 119.71 145.916 119.501 145.89 119.303L144.221 106.063V104.729C144.221 104.518 144.029 104.331 143.818 104.331H135.971H135.971ZM136.335 106.511H136.959V108.215L136.056 108.737L136.335 106.511ZM140.303 106.511H140.644V107.829C140.64 108.091 140.541 108.372 140.303 108.499V106.511ZM142.824 106.511H143.46L143.744 108.743L142.824 108.215V106.511Z" fill="#EEEEEE"/>
</g>
<g filter="url(#filter1_d)">
<path d="M159.2 127.3H71.7C70.2 127.3 69 126.1 69 124.6V49C69 47.5 70.2 46.3 71.7 46.3H159.2C160.7 46.3 161.9 47.5 161.9 49V124.6C161.9 126.1 160.7 127.3 159.2 127.3Z" fill="white"/>
<path d="M159.297 93H71.7029C70.2013 93 72.5 93 69 93V48.5C69 47 70 46 71.5 46H159.5C161 46 162 47 162 48.5V93C158.5 93 160.799 93 159.297 93Z" fill="#FF8246"/>
<path d="M157.1 50.8L153.5 54.4" stroke="white" stroke-miterlimit="10" stroke-linecap="round" stroke-linejoin="round"/>
<path d="M153.5 50.8L157.1 54.4" stroke="white" stroke-miterlimit="10" stroke-linecap="round" stroke-linejoin="round"/>
</g>
<rect x="79.5" y="105.5" width="46" height="10" rx="1.5" fill="white" stroke="#333333"/>
<line x1="83" y1="107.5" x2="86" y2="107.5" stroke="#333333"/>
<line x1="83" y1="113.5" x2="86" y2="113.5" stroke="#333333"/>
<line x1="84.5" y1="114" x2="84.5" y2="107" stroke="#333333"/>
<rect x="129" y="105" width="23" height="11" rx="2" fill="#FF8246"/>
<path d="M80 61.8333L82.4173 64.0895C83.57 65.1653 85.3586 65.1653 86.5112 64.0895L87.7745 62.9105C88.9271 61.8347 90.7158 61.8347 91.8684 62.9105L93.1316 64.0895C94.2842 65.1653 96.0729 65.1653 97.2255 64.0895L98.4888 62.9105C99.6414 61.8347 101.43 61.8347 102.583 62.9105L105 65.1667V65.1667C105.46 65.6269 106.206 65.6269 106.667 65.1667L108.712 63.1213C109.884 61.9497 111.783 61.9497 112.955 63.1213L113.712 63.8787C114.884 65.0503 116.783 65.0503 117.955 63.8787L118.712 63.1213C119.884 61.9497 121.783 61.9497 122.955 63.1213L125.833 66" stroke="white" stroke-width="2"/>
<path d="M80 73.8333L82.4173 76.0895C83.57 77.1653 85.3586 77.1653 86.5112 76.0895L87.7745 74.9105C88.9271 73.8347 90.7158 73.8347 91.8684 74.9105L93.1316 76.0895C94.2842 77.1653 96.0729 77.1653 97.2255 76.0895L98.4888 74.9105C99.6414 73.8347 101.43 73.8347 102.583 74.9105L105 77.1667" stroke="white" stroke-width="2"/>
<defs>
<filter id="filter0_d" x="0" y="0" width="229.043" height="164.338" filterUnits="userSpaceOnUse" color-interpolation-filters="sRGB">
<feFlood flood-opacity="0" result="BackgroundImageFix"/>
<feColorMatrix in="SourceAlpha" type="matrix" values="0 0 0 0 0 0 0 0 0 0 0 0 0 0 0 0 0 0 127 0"/>
<feOffset/>
<feGaussianBlur stdDeviation="1.5"/>
<feColorMatrix type="matrix" values="0 0 0 0 0 0 0 0 0 0 0 0 0 0 0 0 0 0 0.1 0"/>
<feBlend mode="normal" in2="BackgroundImageFix" result="effect1_dropShadow"/>
<feBlend mode="normal" in="SourceGraphic" in2="effect1_dropShadow" result="shape"/>
</filter>
<filter id="filter1_d" x="54" y="36" width="123" height="111.3" filterUnits="userSpaceOnUse" color-interpolation-filters="sRGB">
<feFlood flood-opacity="0" result="BackgroundImageFix"/>
<feColorMatrix in="SourceAlpha" type="matrix" values="0 0 0 0 0 0 0 0 0 0 0 0 0 0 0 0 0 0 127 0"/>
<feOffset dy="5"/>
<feGaussianBlur stdDeviation="7.5"/>
<feColorMatrix type="matrix" values="0 0 0 0 0 0 0 0 0 0 0 0 0 0 0 0 0 0 0.1 0"/>
<feBlend mode="normal" in2="BackgroundImageFix" result="effect1_dropShadow"/>
<feBlend mode="normal" in="SourceGraphic" in2="effect1_dropShadow" result="shape"/>
</filter>
</defs>
</svg>
