<svg width="210" height="144" viewBox="0 0 210 144" fill="none" xmlns="http://www.w3.org/2000/svg">
<path d="M0.449339 3.10547C0.449339 1.69678 1.59131 0.554808 3 0.554808H110.109C110.651 0.554808 111.179 0.727552 111.616 1.04797L125.468 11.1968C126.123 11.6772 126.511 12.4414 126.511 13.2543V141C126.511 142.408 125.369 143.55 123.96 143.55H2.99999C1.5913 143.55 0.449339 142.408 0.449339 141V3.10547Z" fill="white" stroke="#E3E5E8" stroke-width="0.898678"/>
<path d="M114.263 16.6158L111.089 0.105469L126.959 11.7333L114.263 16.6158Z" fill="#D1D1D1"/>
<rect x="10.0916" y="64.9998" width="32.2927" height="37" fill="#F8F9FD"/>
<rect x="10.0916" y="64.9998" width="32.2927" height="21" fill="#DCDCDC"/>
<path d="M17.146 76.624L21.61 72.5406C22.1952 72.0053 23.1017 72.0087 23.6828 72.5484L27.3787 75.9816C27.9029 76.4686 28.7027 76.525 29.2921 76.1166L31.1197 74.8501C31.6432 74.4872 32.3416 74.4872 32.8652 74.8501L35.0614 76.372C35.4651 76.6518 35.7054 77.1077 35.7054 77.5939V80.3874C35.7054 81.2125 35.0263 81.8814 34.1886 81.8814H17.89C17.0523 81.8814 16.6614 81.2125 16.6614 80.3874V77.7188C16.6614 77.3033 16.837 76.9067 17.146 76.624Z" fill="white"/>
<ellipse cx="28.9618" cy="70.4802" rx="1.98375" ry="1.96577" fill="white"/>
<rect x="84.9033" y="64.5828" width="31.74" height="37.7428" fill="#F8F9FD"/>
<rect x="84.9033" y="64.5828" width="31.74" height="21.2303" fill="#D5F6D2"/>
<rect x="47.6077" y="64.5828" width="31.74" height="37.7428" fill="#F8F9FD"/>
<rect x="47.6077" y="64.5828" width="31.74" height="21.2303" fill="#D5F6D2"/>
<path d="M54.4203 76.843L58.6982 72.9298C59.2591 72.4167 60.1278 72.42 60.6846 72.9372L64.2265 76.2273C64.729 76.694 65.4954 76.7481 66.0602 76.3567L67.8117 75.143C68.3134 74.7953 68.9827 74.7953 69.4845 75.143L71.5891 76.6015C71.9761 76.8696 72.2063 77.3065 72.2063 77.7725V80.4496C72.2063 81.2403 71.5555 81.8814 70.7527 81.8814H55.1333C54.3305 81.8814 53.9558 81.2403 53.9558 80.4496V77.8921C53.9558 77.494 54.1241 77.1139 54.4203 76.843Z" fill="white"/>
<path d="M91.712 76.8435L95.99 72.9302C96.5508 72.4172 97.4195 72.4205 97.9764 72.9377L101.518 76.2278C102.021 76.6945 102.787 76.7486 103.352 76.3572L105.103 75.1435C105.605 74.7957 106.274 74.7957 106.776 75.1435L108.881 76.602C109.268 76.8701 109.498 77.307 109.498 77.773V80.4501C109.498 81.2408 108.847 81.8818 108.044 81.8818H92.425C91.6222 81.8818 91.2476 81.2408 91.2476 80.4501V77.8926C91.2476 77.4945 91.4159 77.1144 91.712 76.8435Z" fill="white"/>
<ellipse cx="65.4632" cy="71.2663" rx="1.98375" ry="1.96577" fill="white"/>
<ellipse cx="102.755" cy="71.2663" rx="1.98375" ry="1.96577" fill="white"/>
<ellipse cx="95.6142" cy="131.812" rx="3.57075" ry="3.53838" fill="#DCDCDC"/>
<ellipse cx="104.342" cy="131.812" rx="3.57075" ry="3.53838" fill="#DCDCDC"/>
<ellipse cx="113.071" cy="131.812" rx="3.57075" ry="3.53838" fill="#DCDCDC"/>
<rect x="10.0916" y="12" width="16.1464" height="2" rx="1" fill="#DCDCDC"/>
<rect x="10.0916" y="110" width="47.4299" height="8" rx="3.93154" fill="#FF7C16" fill-opacity="0.5"/>
<rect x="10.0916" y="16" width="10.0915" height="2" rx="1" fill="#DCDCDC"/>
<path d="M10.0916 28.5C10.0916 27.6716 10.7631 27 11.5916 27H89.3234C90.1518 27 90.8234 27.6716 90.8234 28.5C90.8234 29.3284 90.1518 30 89.3234 30H11.5916C10.7631 30 10.0916 29.3284 10.0916 28.5Z" fill="#DCDCDC"/>
<rect x="10.0916" y="33" width="51.4665" height="3" rx="1.5" fill="#DCDCDC"/>
<rect x="10.0916" y="42.9998" width="91.8324" height="1" fill="#DCDCDC"/>
<rect x="10.0916" y="128" width="59.5397" height="2" fill="#DCDCDC"/>
<rect x="10.0916" y="48.9998" width="18.1647" height="1" fill="#DCDCDC"/>
<rect x="10.0916" y="45.9998" width="99.9056" height="1" fill="#DCDCDC"/>
<rect x="10.0916" y="132" width="64.5855" height="2" fill="#DCDCDC"/>
<rect x="50.7864" y="90.0791" width="25.3932" height="1.79736" fill="#DCDCDC"/>
<rect x="87.9692" y="90.0791" width="24.4863" height="1.79736" fill="#DCDCDC"/>
<rect x="14.1282" y="89.9998" width="25.2287" height="2" fill="#DCDCDC"/>
<rect x="51.2397" y="94.5725" width="19.0449" height="1.79736" fill="#DCDCDC"/>
<rect x="88.4226" y="94.5725" width="19.0449" height="1.79736" fill="#DCDCDC"/>
<rect x="14.1282" y="94.9998" width="19.1738" height="2" fill="#DCDCDC"/>
<path d="M28.6505 3.00001C28.6505 1.59132 29.7925 0.449339 31.2012 0.449339H138.31C138.852 0.449339 139.38 0.622083 139.817 0.942504L153.669 11.0913C154.324 11.5718 154.712 12.3359 154.712 13.1488V140.894C154.712 142.303 153.57 143.445 152.161 143.445H31.2012C29.7925 143.445 28.6505 142.303 28.6505 140.894V3.00001Z" fill="white" stroke="#E3E5E8" stroke-width="0.898678"/>
<path d="M141.788 12.9898L140.732 7.50047C140.218 4.82313 143.252 2.9028 145.452 4.51415L150.728 8.38015C152.643 9.78295 152.247 12.7482 150.032 13.6002L145.811 15.2235C144.067 15.8942 142.14 14.8247 141.788 12.9898Z" fill="#D1D1D1"/>
<rect x="38.2927" y="64.8943" width="32.2927" height="37" rx="3" fill="#F8F9FD"/>
<rect x="38.2927" y="64.8943" width="32.2927" height="21" rx="3" fill="#DCDCDC"/>
<path d="M45.3472 76.5185L49.8111 72.4352C50.3964 71.8998 51.3029 71.9032 51.8839 72.443L55.5798 75.8761C56.1041 76.3631 56.9039 76.4195 57.4932 76.0111L59.3208 74.7446C59.8444 74.3818 60.5428 74.3818 61.0663 74.7446L63.2625 76.2665C63.6663 76.5463 63.9066 77.0022 63.9066 77.4885V80.2819C63.9066 81.1071 63.2275 81.776 62.3898 81.776H46.0912C45.2535 81.776 44.8626 81.1071 44.8626 80.2819V77.6133C44.8626 77.1979 45.0382 76.8012 45.3472 76.5185Z" fill="white"/>
<ellipse cx="57.1629" cy="70.3747" rx="1.98375" ry="1.96577" fill="white"/>
<rect x="113.104" y="64.4773" width="31.74" height="37.7428" rx="3" fill="#F8F9FD"/>
<rect x="113.104" y="64.4773" width="31.74" height="21.2303" rx="3" fill="#D5F6D2"/>
<rect x="75.8088" y="64.4773" width="31.74" height="37.7428" rx="3" fill="#F8F9FD"/>
<rect x="75.8088" y="64.4773" width="31.74" height="21.2303" rx="3" fill="#D5F6D2"/>
<path d="M82.6214 76.7375L86.8994 72.8243C87.4602 72.3112 88.3289 72.3145 88.8858 72.8318L92.4277 76.1219C92.9301 76.5886 93.6966 76.6426 94.2614 76.2512L96.0128 75.0375C96.5146 74.6898 97.1839 74.6898 97.6856 75.0375L99.7903 76.496C100.177 76.7642 100.407 77.201 100.407 77.667V80.3441C100.407 81.1349 99.7567 81.7759 98.9539 81.7759H83.3344C82.5316 81.7759 82.157 81.1349 82.157 80.3441V77.7867C82.157 77.3886 82.3253 77.0084 82.6214 76.7375Z" fill="white"/>
<path d="M119.913 76.738L124.191 72.8248C124.752 72.3117 125.621 72.315 126.178 72.8323L129.719 76.1224C130.222 76.589 130.988 76.6431 131.553 76.2517L133.305 75.038C133.806 74.6903 134.476 74.6903 134.977 75.038L137.082 76.4965C137.469 76.7647 137.699 77.2015 137.699 77.6675V80.3446C137.699 81.1353 137.048 81.7764 136.246 81.7764H120.626C119.823 81.7764 119.449 81.1353 119.449 80.3446V77.7872C119.449 77.389 119.617 77.0089 119.913 76.738Z" fill="white"/>
<ellipse cx="93.6644" cy="71.1608" rx="1.98375" ry="1.96577" fill="white"/>
<ellipse cx="130.957" cy="71.1608" rx="1.98375" ry="1.96577" fill="white"/>
<ellipse cx="123.815" cy="131.707" rx="3.57075" ry="3.53838" fill="#DCDCDC"/>
<ellipse cx="132.544" cy="131.707" rx="3.57075" ry="3.53838" fill="#DCDCDC"/>
<ellipse cx="141.272" cy="131.707" rx="3.57075" ry="3.53838" fill="#DCDCDC"/>
<rect x="38.2927" y="11.8945" width="16.1464" height="2" rx="1" fill="#DCDCDC"/>
<rect x="38.2927" y="109.894" width="47.4299" height="8" rx="3" fill="#FF7C16" fill-opacity="0.5"/>
<rect x="38.2927" y="15.8945" width="10.0915" height="2" rx="1" fill="#DCDCDC"/>
<path d="M38.2927 28.3945C38.2927 27.5661 38.9643 26.8945 39.7927 26.8945H117.525C118.353 26.8945 119.025 27.5661 119.025 28.3945C119.025 29.223 118.353 29.8945 117.525 29.8945H39.7927C38.9643 29.8945 38.2927 29.223 38.2927 28.3945Z" fill="#DCDCDC"/>
<rect x="38.2927" y="32.8945" width="51.4665" height="3" rx="1.5" fill="#DCDCDC"/>
<rect x="38.2927" y="42.8943" width="91.8324" height="1" rx="0.5" fill="#DCDCDC"/>
<rect x="38.2927" y="127.894" width="59.5397" height="2" rx="1" fill="#DCDCDC"/>
<rect x="38.2927" y="48.8943" width="18.1647" height="1" rx="0.5" fill="#DCDCDC"/>
<rect x="38.2927" y="45.8943" width="99.9056" height="1" rx="0.5" fill="#DCDCDC"/>
<rect x="38.2927" y="131.894" width="64.5855" height="2" rx="1" fill="#DCDCDC"/>
<rect x="78.9875" y="89.9736" width="25.3932" height="1.79736" rx="0.898678" fill="#DCDCDC"/>
<rect x="116.17" y="89.9736" width="24.4863" height="1.79736" rx="0.898678" fill="#DCDCDC"/>
<rect x="42.3293" y="89.8943" width="25.2287" height="2" rx="1" fill="#DCDCDC"/>
<rect x="79.4409" y="94.467" width="19.0449" height="1.79736" rx="0.898678" fill="#DCDCDC"/>
<rect x="116.624" y="94.467" width="19.0449" height="1.79736" rx="0.898678" fill="#DCDCDC"/>
<rect x="42.3293" y="94.8943" width="19.1738" height="2" rx="1" fill="#DCDCDC"/>
<path d="M55.6166 3.10548C55.6166 1.69678 56.7585 0.554808 58.1672 0.554808H165.276C165.818 0.554808 166.346 0.727552 166.783 1.04797L180.635 11.1968C181.291 11.6772 181.678 12.4414 181.678 13.2543V141C181.678 142.408 180.536 143.55 179.127 143.55H58.1672C56.7585 143.55 55.6166 142.408 55.6166 141V3.10548Z" fill="white" stroke="#E3E5E8" stroke-width="0.898678"/>
<path d="M168.754 13.0953L167.699 7.60593C167.184 4.9286 170.218 3.00826 172.418 4.61962L177.694 8.48562C179.609 9.88842 179.213 12.8537 176.998 13.7057L172.777 15.329C171.033 15.9997 169.107 14.9302 168.754 13.0953Z" fill="#D1D1D1"/>
<rect x="65.4792" y="64.5828" width="31.74" height="37.7428" rx="3" fill="#F8F9FD"/>
<rect x="65.5032" y="64.9998" width="31.2836" height="21" rx="3" fill="#DCDCDC"/>
<path d="M72.3133 76.624L76.7772 72.5406C77.3625 72.0053 78.2689 72.0087 78.85 72.5484L82.5459 75.9816C83.0702 76.4686 83.8699 76.525 84.4593 76.1166L86.2869 74.8501C86.8104 74.4872 87.5089 74.4872 88.0324 74.8501L90.2286 76.372C90.6324 76.6518 90.8726 77.1077 90.8726 77.5939V80.3874C90.8726 81.2125 90.1935 81.8814 89.3558 81.8814H73.0573C72.2196 81.8814 71.8286 81.2125 71.8286 80.3874V77.7188C71.8286 77.3033 72.0042 76.9067 72.3133 76.624Z" fill="white"/>
<ellipse cx="84.129" cy="70.4802" rx="1.98375" ry="1.96577" fill="white"/>
<rect x="140.071" y="64.5828" width="31.74" height="37.7428" rx="3" fill="#F8F9FD"/>
<rect x="140.071" y="64.5828" width="31.74" height="21.2303" rx="3" fill="#D5F6D2"/>
<rect x="102.775" y="64.5828" width="31.74" height="37.7428" rx="3" fill="#F8F9FD"/>
<rect x="102.775" y="64.5828" width="31.74" height="21.2303" rx="3" fill="#D5F6D2"/>
<path d="M109.588 76.843L113.865 72.9298C114.426 72.4167 115.295 72.42 115.852 72.9372L119.394 76.2273C119.896 76.694 120.663 76.7481 121.227 76.3567L122.979 75.143C123.481 74.7953 124.15 74.7953 124.652 75.143L126.756 76.6015C127.143 76.8696 127.374 77.3065 127.374 77.7725V80.4496C127.374 81.2403 126.723 81.8814 125.92 81.8814H110.3C109.498 81.8814 109.123 81.2403 109.123 80.4496V77.8921C109.123 77.494 109.291 77.1139 109.588 76.843Z" fill="white"/>
<path d="M146.879 76.8435L151.157 72.9302C151.718 72.4172 152.587 72.4205 153.144 72.9377L156.686 76.2278C157.188 76.6945 157.954 76.7486 158.519 76.3572L160.271 75.1435C160.772 74.7957 161.442 74.7957 161.943 75.1435L164.048 76.602C164.435 76.8701 164.665 77.307 164.665 77.773V80.4501C164.665 81.2408 164.015 81.8818 163.212 81.8818H147.592C146.789 81.8818 146.415 81.2408 146.415 80.4501V77.8926C146.415 77.4945 146.583 77.1144 146.879 76.8435Z" fill="white"/>
<ellipse cx="120.63" cy="71.2663" rx="1.98375" ry="1.96577" fill="white"/>
<ellipse cx="157.923" cy="71.2663" rx="1.98375" ry="1.96577" fill="white"/>
<ellipse cx="150.781" cy="131.812" rx="3.57075" ry="3.53838" fill="#DCDCDC"/>
<ellipse cx="159.51" cy="131.812" rx="3.57075" ry="3.53838" fill="#DCDCDC"/>
<ellipse cx="168.238" cy="131.812" rx="3.57075" ry="3.53838" fill="#DCDCDC"/>
<rect x="65.5032" y="12" width="16.1464" height="2" rx="1" fill="#DCDCDC"/>
<rect x="65.5032" y="110" width="46.4208" height="8" rx="3" fill="#FF7C16" fill-opacity="0.5"/>
<rect x="65.5032" y="16" width="10.0915" height="2" rx="1" fill="#DCDCDC"/>
<path d="M65.5032 28.5C65.5032 27.6716 66.1747 27 67.0032 27H144.735C145.563 27 146.235 27.6716 146.235 28.5C146.235 29.3284 145.563 30 144.735 30H67.0032C66.1747 30 65.5032 29.3284 65.5032 28.5Z" fill="#DCDCDC"/>
<rect x="65.5032" y="33" width="51.4665" height="3" rx="1.5" fill="#DCDCDC"/>
<rect x="65.5032" y="42.9998" width="91.8324" height="1" rx="0.5" fill="#DCDCDC"/>
<rect x="65.5032" y="128" width="59.5397" height="2" rx="1" fill="#DCDCDC"/>
<rect x="65.5032" y="48.9998" width="18.1647" height="1" rx="0.5" fill="#DCDCDC"/>
<rect x="65.5032" y="45.9998" width="99.9056" height="1" rx="0.5" fill="#DCDCDC"/>
<rect x="65.5032" y="132" width="64.5855" height="2" rx="1" fill="#DCDCDC"/>
<rect x="105.954" y="90.0791" width="25.3932" height="1.79736" rx="0.898678" fill="#DCDCDC"/>
<rect x="143.136" y="90.0791" width="24.4863" height="1.79736" rx="0.898678" fill="#DCDCDC"/>
<rect x="68.5308" y="89.9998" width="25.2287" height="2" rx="1" fill="#DCDCDC"/>
<rect x="106.407" y="94.5725" width="19.0449" height="1.79736" rx="0.898678" fill="#DCDCDC"/>
<rect x="143.59" y="94.5725" width="19.0449" height="1.79736" rx="0.898678" fill="#DCDCDC"/>
<rect x="68.5308" y="94.9998" width="19.1738" height="2" rx="1" fill="#DCDCDC"/>
<path d="M83.4894 3.00001C83.4894 1.59132 84.6313 0.449339 86.04 0.449339H193.149C193.691 0.449339 194.219 0.622083 194.656 0.942504L208.508 11.0913C209.163 11.5718 209.551 12.3359 209.551 13.1488V140.894C209.551 142.303 208.409 143.445 207 143.445H86.04C84.6313 143.445 83.4894 142.303 83.4894 140.894V3.00001Z" fill="white" stroke="#E3E5E8" stroke-width="0.898678"/>
<path d="M197.303 16.5103L194.129 0L209.999 11.6278L197.303 16.5103Z" fill="#D1D1D1"/>
<rect x="93.7229" y="65" width="31.2836" height="37" rx="3" fill="#F8F9FD"/>
<rect x="93.7229" y="65" width="31.2836" height="21" rx="3" fill="#979797"/>
<path d="M100.186 76.5185L104.65 72.4352C105.235 71.8998 106.142 71.9032 106.723 72.443L110.419 75.8761C110.943 76.3631 111.743 76.4195 112.332 76.0111L114.16 74.7446C114.683 74.3818 115.382 74.3818 115.905 74.7446L118.101 76.2665C118.505 76.5463 118.745 77.0022 118.745 77.4885V80.2819C118.745 81.1071 118.066 81.776 117.229 81.776H100.93C100.092 81.776 99.7014 81.1071 99.7014 80.2819V77.6133C99.7014 77.1979 99.877 76.8012 100.186 76.5185Z" fill="white"/>
<ellipse cx="112.002" cy="70.3747" rx="1.98375" ry="1.96577" fill="white"/>
<rect x="168.4" y="65" width="31.2836" height="37" rx="3" fill="#F8F9FD"/>
<rect x="168.4" y="65" width="31.2836" height="21" rx="3" fill="#979797"/>
<rect x="131.061" y="65" width="31.2836" height="37" rx="3" fill="#F8F9FD"/>
<rect x="131.061" y="65" width="31.2836" height="21" rx="3" fill="#979797"/>
<path d="M137.46 76.7375L141.738 72.8243C142.299 72.3112 143.168 72.3145 143.725 72.8318L147.267 76.1219C147.769 76.5886 148.535 76.6426 149.1 76.2512L150.852 75.0375C151.353 74.6898 152.023 74.6898 152.524 75.0375L154.629 76.496C155.016 76.7642 155.246 77.201 155.246 77.667V80.3441C155.246 81.1349 154.596 81.7759 153.793 81.7759H138.173C137.371 81.7759 136.996 81.1349 136.996 80.3441V77.7867C136.996 77.3886 137.164 77.0084 137.46 76.7375Z" fill="white"/>
<path d="M174.752 76.738L179.03 72.8248C179.591 72.3117 180.46 72.315 181.016 72.8323L184.558 76.1224C185.061 76.589 185.827 76.6431 186.392 76.2517L188.143 75.038C188.645 74.6903 189.315 74.6903 189.816 75.038L191.921 76.4965C192.308 76.7647 192.538 77.2015 192.538 77.6675V80.3446C192.538 81.1353 191.887 81.7764 191.085 81.7764H175.465C174.662 81.7764 174.288 81.1353 174.288 80.3446V77.7872C174.288 77.389 174.456 77.0089 174.752 76.738Z" fill="white"/>
<ellipse cx="148.503" cy="71.1608" rx="1.98375" ry="1.96577" fill="white"/>
<ellipse cx="185.796" cy="71.1608" rx="1.98375" ry="1.96577" fill="white"/>
<ellipse cx="178.025" cy="131.538" rx="3.57075" ry="3.53838" fill="#DCDCDC"/>
<ellipse cx="187.108" cy="131.538" rx="3.57075" ry="3.53838" fill="#DCDCDC"/>
<ellipse cx="196.19" cy="131.538" rx="3.57075" ry="3.53838" fill="#DCDCDC"/>
<rect x="93.7229" y="12" width="15.1372" height="2" rx="1" fill="#DCDCDC"/>
<rect x="93.7229" y="110" width="46.4208" height="8" rx="3" fill="#FF7C16"/>
<rect x="93.7229" y="16" width="10.0915" height="2" rx="1" fill="#DCDCDC"/>
<path d="M93.7229 28.5C93.7229 27.6716 94.3945 27 95.2229 27H172.955C173.783 27 174.455 27.6716 174.455 28.5C174.455 29.3284 173.783 30 172.955 30H95.2229C94.3945 30 93.7229 29.3284 93.7229 28.5Z" fill="#DCDCDC"/>
<rect x="93.7229" y="33" width="51.4665" height="3" rx="1.5" fill="#DCDCDC"/>
<rect x="93.7229" y="43" width="91.8324" height="1" fill="#DCDCDC"/>
<rect x="93.7229" y="128" width="59.5397" height="2" fill="#DCDCDC"/>
<rect x="93.7229" y="49" width="18.1647" height="1" fill="#DCDCDC"/>
<rect x="93.7229" y="46" width="99.9056" height="1" fill="#DCDCDC"/>
<rect x="93.7229" y="132" width="64.5855" height="2" fill="#DCDCDC"/>
<rect x="134.089" y="90" width="25.2287" height="2" fill="#DCDCDC"/>
<rect x="171.427" y="90" width="24.2195" height="2" fill="#DCDCDC"/>
<rect x="96.7502" y="90" width="25.2287" height="2" fill="#DCDCDC"/>
<rect x="134.089" y="94" width="19.1738" height="2" fill="#DCDCDC"/>
<rect x="171.427" y="94" width="19.1738" height="2" fill="#DCDCDC"/>
<rect x="96.7502" y="94" width="19.1738" height="2" fill="#DCDCDC"/>
</svg>
