<svg width="224" height="159" viewBox="0 0 224 159" fill="none" xmlns="http://www.w3.org/2000/svg">
<path d="M223.042 153.338C223.042 156.099 220.804 158.338 218.042 158.338L4.99997 158.338C2.23854 158.338 -4.59721e-05 156.099 -3.09547e-05 153.338L0.000764556 2.28373L223.043 2.28371L223.042 153.338Z" fill="white"/>
<path d="M0 5C0 2.23858 2.23858 0 5 0H218.043C220.805 0 223.043 2.23858 223.043 5V9.13488H0V5Z" fill="#E9E9E9"/>
<circle cx="4.5674" cy="4.56746" r="1.52248" fill="white"/>
<circle cx="9.89614" cy="4.56746" r="1.52248" fill="white"/>
<circle cx="15.2249" cy="4.56746" r="1.52248" fill="white"/>
<path d="M0 18.9359L223.043 18.9359" stroke="#F2F2F2" stroke-width="0.249911"/>
<rect x="20.5535" y="70.7953" width="30.4496" height="3.8062" rx="0.749733" fill="#EEEEEE"/>
<rect x="19.7922" y="25.8821" width="21.3147" height="2.28372" rx="0.749733" fill="#EEEEEE"/>
<rect x="47.1969" y="25.8821" width="29.6884" height="2.28372" rx="0.749733" fill="#EEEEEE"/>
<rect x="82.2139" y="25.8821" width="17.5085" height="2.28372" rx="0.749733" fill="#EEEEEE"/>
<rect x="105.051" y="25.8821" width="29.6884" height="2.28372" rx="0.749733" fill="#EEEEEE"/>
<rect x="140.829" y="25.8821" width="16.7473" height="2.28372" rx="0.749733" fill="#EEEEEE"/>
<rect x="20.5535" y="77.6465" width="41.8682" height="2.28372" rx="0.749733" fill="#F3F3F3"/>
<rect x="20.5535" y="82.2139" width="18.2698" height="2.28372" rx="0.749733" fill="#F3F3F3"/>
<rect x="67.7504" y="70.7953" width="38.062" height="3.8062" rx="0.749733" fill="#EEEEEE"/>
<rect x="67.7504" y="77.6465" width="42.6294" height="2.28372" rx="0.749733" fill="#F3F3F3"/>
<rect x="67.7504" y="82.2139" width="18.2698" height="2.28372" rx="0.749733" fill="#F3F3F3"/>
<rect x="115.708" y="70.7953" width="27.4046" height="3.8062" rx="0.749733" fill="#EEEEEE"/>
<rect x="115.708" y="77.6465" width="42.6294" height="2.28372" rx="0.749733" fill="#F3F3F3"/>
<rect x="115.708" y="82.2139" width="18.2698" height="2.28372" rx="0.749733" fill="#F3F3F3"/>
<rect x="163.667" y="70.7953" width="38.8232" height="3.8062" rx="0.749733" fill="#EEEEEE"/>
<rect x="163.667" y="77.6465" width="41.8682" height="2.28372" rx="0.749733" fill="#F3F3F3"/>
<rect x="163.667" y="82.2139" width="18.2698" height="2.28372" rx="0.749733" fill="#F3F3F3"/>
<rect x="20.6784" y="35.142" width="41.6183" height="30.9609" fill="white" stroke="#F2F2F2" stroke-width="0.249911"/>
<rect x="67.8753" y="35.142" width="42.3795" height="30.9609" fill="white" stroke="#F2F2F2" stroke-width="0.249911"/>
<rect x="115.072" y="35.142" width="42.3795" height="30.9609" fill="white" stroke="#F2F2F2" stroke-width="0.249911"/>
<path d="M140.568 48.6143L140.547 46.8396L143.113 46.1391C143.113 42.5874 141.382 42.0293 138.424 41.1069H138.167C138.167 41.7089 137.926 42.2862 137.498 42.7119C137.069 43.1375 136.488 43.3766 135.881 43.3766C135.275 43.3766 134.694 43.1375 134.265 42.7119C133.836 42.2862 133.595 41.7089 133.595 41.1069H133.339C130.616 41.8682 128.65 42.585 128.65 46.1391L131.215 46.8396L131.178 48.5746L132.163 50.5244V53.0509L131.222 58.6154H140.524L139.583 53.0112V50.4847L140.568 48.6143Z" fill="#EEEEEE"/>
<rect x="163.791" y="35.142" width="41.6183" height="30.9609" fill="white" stroke="#F2F2F2" stroke-width="0.249911"/>
<path fill-rule="evenodd" clip-rule="evenodd" d="M39.2267 42.6295C39.5565 43.5648 40.4455 44.2365 41.4876 44.2365C42.5298 44.2365 43.4187 43.5648 43.7486 42.6295H44.678C45.5647 42.6295 46.6819 43.2303 47.1741 43.9724L49.4807 47.4506L46.763 49.6202L46.7235 49.5738C46.5728 49.397 46.2835 49.5037 46.2835 49.736V56.2932C46.2835 56.7349 45.9192 57.093 45.4822 57.093H37.4931C37.0506 57.093 36.6918 56.7269 36.6918 56.2932V49.7477C36.6918 49.5332 36.4164 49.4453 36.2922 49.6202L33.4946 47.4506L35.8012 43.9724C36.2931 43.2307 37.4128 42.6295 38.2973 42.6295H39.2267ZM43.2331 47.4506C42.7923 47.4506 42.4338 47.8111 42.4338 48.2542C42.4338 48.6973 42.7923 49.0577 43.2331 49.0577C43.6738 49.0577 44.0324 48.6973 44.0324 48.2542C44.0324 47.8111 43.6738 47.4506 43.2331 47.4506Z" fill="#EEEEEE"/>
<path d="M92.9703 55.3976C92.9703 55.3976 92.1295 57.5771 90.3407 56.9938C88.5519 56.4106 88.7813 53.0647 88.873 52.3126C88.9647 51.5606 89.1941 50.1179 89.2093 49.3044C89.2093 49.3044 89.1788 48.9514 89.3164 48.8133L89.3011 48.3682C89.3011 48.3682 89.0106 46.7566 89.4387 44.8841C89.4387 44.8841 89.8056 43.3954 91.0593 43.3954C91.0593 43.3954 91.9154 43.2265 92.5881 44.9148C93.2608 46.6031 93.0009 48.2147 92.9703 48.4142L93.0315 48.8133C93.0315 48.8133 93.2149 48.9514 93.1844 49.1816C93.1691 49.3965 93.2914 49.9644 93.3831 50.4402C93.4749 50.916 94.0864 52.681 92.9703 55.3976ZM92.3129 46.7106C92.0224 43.7944 91.0745 43.9172 91.0745 43.9172C89.7444 43.9172 89.8362 46.7413 89.8362 46.7413C89.8056 47.5087 89.9432 48.2147 89.9432 48.2147L90.1419 48.3989C90.4477 47.8156 91.0898 47.8156 91.0898 47.8156C92.0072 47.8156 92.0989 48.4449 92.0989 48.4449L92.3282 48.2607C92.3894 47.6468 92.3129 46.7106 92.3129 46.7106ZM86.2739 56.9938C84.4852 57.5771 83.6443 55.3976 83.6443 55.3976C82.5282 52.681 83.1245 50.9313 83.2162 50.4555C83.3079 49.9797 83.4303 49.4118 83.415 49.197C83.3997 48.9821 83.5679 48.8286 83.5679 48.8286L83.629 48.4296C83.5984 48.23 83.3385 46.6185 84.0112 44.9302C84.6839 43.2419 85.5401 43.4107 85.5401 43.4107C86.7937 43.4107 87.1607 44.8995 87.1607 44.8995C87.5735 46.7566 87.2983 48.3682 87.2983 48.3682L87.283 48.8133C87.4359 48.9667 87.39 49.3044 87.39 49.3044C87.4053 50.1179 87.6193 51.5606 87.7263 52.3126C87.8334 53.0647 88.0627 56.4106 86.2739 56.9938ZM85.5248 43.9019C85.5248 43.9019 84.5769 43.7944 84.2864 46.6952C84.2864 46.6952 84.2253 47.6315 84.2711 48.23L84.5005 48.4142C84.5005 48.4142 84.5922 47.7849 85.5095 47.7849C85.5095 47.7849 86.1516 47.7849 86.4574 48.3682L86.6561 48.184C86.6561 48.184 86.7937 47.478 86.7632 46.7106C86.7632 46.7259 86.8549 43.9019 85.5248 43.9019Z" fill="#EEEEEE"/>
<path fill-rule="evenodd" clip-rule="evenodd" d="M180.156 41.7701C179.897 41.7701 179.752 41.9866 179.747 42.1675H179.753C179.759 42.6326 179.741 43.1083 179.759 43.5699L178.089 56.7421C178.062 56.9383 178.208 57.146 178.402 57.1906L180.922 57.7471C181.122 57.7929 181.349 57.6594 181.405 57.4632L184.085 48.1631L186.765 57.4632C186.82 57.6569 187.038 57.7894 187.236 57.7471L189.763 57.1906C189.959 57.1487 190.101 56.94 190.075 56.7421L188.406 43.5018V42.1675C188.406 41.9572 188.214 41.7701 188.002 41.7701H180.156H180.156ZM180.519 43.9503H181.144V45.6536L180.241 46.176L180.519 43.9503ZM184.488 43.9503H184.829V45.2675C184.824 45.5299 184.725 45.8108 184.488 45.9375V43.9503ZM187.009 43.9503H187.645L187.929 46.1816L187.009 45.6536V43.9503Z" fill="#EEEEEE"/>
<rect x="20.5535" y="130.172" width="30.4496" height="3.8062" rx="0.749733" fill="#EEEEEE"/>
<rect x="20.5535" y="137.023" width="41.8682" height="2.28372" rx="0.749733" fill="#F3F3F3"/>
<rect x="20.5535" y="141.591" width="18.2698" height="2.28372" rx="0.749733" fill="#F3F3F3"/>
<rect x="67.7504" y="130.172" width="38.062" height="3.8062" rx="0.749733" fill="#EEEEEE"/>
<rect x="67.7504" y="137.023" width="42.6294" height="2.28372" rx="0.749733" fill="#F3F3F3"/>
<rect x="67.7504" y="141.591" width="18.2698" height="2.28372" rx="0.749733" fill="#F3F3F3"/>
<rect x="115.708" y="130.172" width="27.4046" height="3.8062" rx="0.749733" fill="#EEEEEE"/>
<rect x="115.708" y="137.023" width="42.6294" height="2.28372" rx="0.749733" fill="#F3F3F3"/>
<rect x="115.708" y="141.591" width="18.2698" height="2.28372" rx="0.749733" fill="#F3F3F3"/>
<rect x="163.667" y="130.172" width="38.8232" height="3.8062" rx="0.749733" fill="#EEEEEE"/>
<rect x="163.667" y="137.023" width="41.8682" height="2.28372" rx="0.749733" fill="#F3F3F3"/>
<rect x="163.667" y="141.591" width="18.2698" height="2.28372" rx="0.749733" fill="#F3F3F3"/>
<rect x="20.6784" y="94.5187" width="41.6183" height="30.9609" fill="white" stroke="#F2F2F2" stroke-width="0.249911"/>
<rect x="115.833" y="94.5187" width="42.3795" height="30.9609" fill="white" stroke="#F2F2F2" stroke-width="0.249911"/>
<rect x="67.8753" y="94.5187" width="42.3795" height="30.9609" fill="white" stroke="#F2F2F2" stroke-width="0.249911"/>
<path d="M93.5055 107.991L93.4854 106.216L95.9162 105.516C95.9162 101.964 94.2764 101.406 91.4735 100.484H91.2307C91.2307 101.086 91.0025 101.663 90.5964 102.089C90.1902 102.514 89.6394 102.753 89.065 102.753C88.4907 102.753 87.9398 102.514 87.5337 102.089C87.1276 101.663 86.8994 101.086 86.8994 100.484H86.6565C84.0765 101.245 82.2139 101.962 82.2139 105.516L84.6446 106.216L84.609 107.951L85.5425 109.901V112.428L84.6513 117.992H93.4631L92.5719 112.388V109.861L93.5055 107.991Z" fill="#EEEEEE"/>
<rect x="163.791" y="94.5187" width="41.6183" height="30.9609" fill="white" stroke="#F2F2F2" stroke-width="0.249911"/>
<path fill-rule="evenodd" clip-rule="evenodd" d="M182.34 102.006C182.67 102.941 183.559 103.613 184.601 103.613C185.643 103.613 186.532 102.941 186.862 102.006H187.791C188.678 102.006 189.795 102.607 190.287 103.349L192.594 106.827L189.876 108.997L189.837 108.95C189.686 108.774 189.396 108.88 189.396 109.113V115.67C189.396 116.112 189.032 116.47 188.595 116.47H180.606C180.164 116.47 179.805 116.104 179.805 115.67V109.124C179.805 108.91 179.529 108.822 179.405 108.997L176.608 106.827L178.914 103.349C179.406 102.607 180.526 102.006 181.41 102.006H182.34ZM186.346 106.827C185.905 106.827 185.547 107.188 185.547 107.631C185.547 108.074 185.905 108.434 186.346 108.434C186.787 108.434 187.145 108.074 187.145 107.631C187.145 107.188 186.787 106.827 186.346 106.827Z" fill="#EEEEEE"/>
<path d="M46.4872 114.774C46.4872 114.774 45.5863 116.954 43.6698 116.371C41.7532 115.787 41.999 112.441 42.0972 111.689C42.1955 110.937 42.4412 109.495 42.4576 108.681C42.4576 108.681 42.4248 108.328 42.5723 108.19L42.5559 107.745C42.5559 107.745 42.2447 106.133 42.7033 104.261C42.7033 104.261 43.0965 102.772 44.4397 102.772C44.4397 102.772 45.357 102.603 46.0777 104.292C46.7985 105.98 46.52 107.591 46.4872 107.791L46.5528 108.19C46.5528 108.19 46.7493 108.328 46.7166 108.558C46.7002 108.773 46.8312 109.341 46.9295 109.817C47.0278 110.293 47.683 112.058 46.4872 114.774ZM45.7829 106.087C45.4716 103.171 44.456 103.294 44.456 103.294C43.0309 103.294 43.1292 106.118 43.1292 106.118C43.0965 106.885 43.2439 107.591 43.2439 107.591L43.4568 107.776C43.7844 107.192 44.4724 107.192 44.4724 107.192C45.4553 107.192 45.5536 107.822 45.5536 107.822L45.7993 107.637C45.8648 107.024 45.7829 106.087 45.7829 106.087ZM39.3125 116.371C37.396 116.954 36.4951 114.774 36.4951 114.774C35.2993 112.058 35.9381 110.308 36.0364 109.832C36.1347 109.356 36.2657 108.789 36.2494 108.574C36.233 108.359 36.4132 108.205 36.4132 108.205L36.4787 107.806C36.4459 107.607 36.1675 105.995 36.8882 104.307C37.6089 102.619 38.5263 102.787 38.5263 102.787C39.8695 102.787 40.2626 104.276 40.2626 104.276C40.7049 106.133 40.41 107.745 40.41 107.745L40.3937 108.19C40.5575 108.343 40.5083 108.681 40.5083 108.681C40.5247 109.495 40.754 110.937 40.8687 111.689C40.9834 112.441 41.2291 115.787 39.3125 116.371ZM38.5099 103.279C38.5099 103.279 37.4943 103.171 37.183 106.072C37.183 106.072 37.1175 107.008 37.1667 107.607L37.4124 107.791C37.4124 107.791 37.5107 107.162 38.4935 107.162C38.4935 107.162 39.1815 107.162 39.5091 107.745L39.722 107.561C39.722 107.561 39.8695 106.855 39.8367 106.087C39.8367 106.103 39.935 103.279 38.5099 103.279Z" fill="#EEEEEE"/>
<path fill-rule="evenodd" clip-rule="evenodd" d="M132.971 101.331C132.713 101.331 132.567 101.548 132.562 101.729H132.568C132.574 102.194 132.556 102.669 132.574 103.131L130.904 116.303C130.878 116.499 131.023 116.707 131.217 116.752L133.737 117.308C133.937 117.354 134.165 117.22 134.22 117.024L136.9 107.724L139.58 117.024C139.635 117.218 139.853 117.35 140.051 117.308L142.578 116.752C142.774 116.71 142.916 116.501 142.89 116.303L141.221 103.063V101.729C141.221 101.518 141.029 101.331 140.818 101.331H132.971H132.971ZM133.334 103.511H133.959V105.215L133.056 105.737L133.334 103.511ZM137.303 103.511H137.644V104.829C137.639 105.091 137.541 105.372 137.303 105.499V103.511ZM139.824 103.511H140.46L140.744 105.743L139.824 105.215V103.511Z" fill="#EEEEEE"/>
<g filter="url(#filter0_d)">
<path d="M156.2 123.3H68.7C67.2 123.3 66 122.1 66 120.6V44.9998C66 43.4998 67.2 42.2998 68.7 42.2998H156.2C157.7 42.2998 158.9 43.4998 158.9 44.9998V120.6C158.9 122.1 157.7 123.3 156.2 123.3Z" fill="white"/>
<path d="M156.297 64H68.7029C67.2013 64 69.5 64 66 64V44.5C66 43 66.9984 42 68.5 42H156.5C158 42 159 43 159 44.5V64C155.5 64 157.799 64 156.297 64Z" fill="#FF8246"/>
<rect x="85.5" y="95.4998" width="54" height="12" rx="1.5" fill="white" stroke="black"/>
<rect x="85.5" y="76.4998" width="54" height="12" rx="1.5" fill="white" stroke="black"/>
<rect x="85.5" y="57.4998" width="54" height="12" rx="1.5" fill="white" stroke="black"/>
<line x1="88" y1="104.5" x2="93" y2="104.5" stroke="black"/>
<line x1="95" y1="98.4998" x2="100" y2="98.4998" stroke="black"/>
<line x1="95" y1="104.5" x2="100" y2="104.5" stroke="black"/>
<line x1="97.5" y1="105" x2="97.5" y2="97.9998" stroke="black"/>
<path d="M90 61.8333L92.4173 64.0895C93.57 65.1653 95.3586 65.1653 96.5112 64.0895L97.7745 62.9105C98.9271 61.8347 100.716 61.8347 101.868 62.9105L103.132 64.0895C104.284 65.1653 106.073 65.1653 107.226 64.0895L108.489 62.9105C109.641 61.8347 111.43 61.8347 112.583 62.9105L115 65.1667" stroke="black"/>
<path d="M90 80.8333L92.4173 83.0895C93.57 84.1653 95.3586 84.1653 96.5112 83.0895L97.7745 81.9105C98.9271 80.8347 100.716 80.8347 101.868 81.9105L103.132 83.0895C104.284 84.1653 106.073 84.1653 107.226 83.0895L108.489 81.9105C109.641 80.8347 111.43 80.8347 112.583 81.9105L115 84.1667" stroke="black"/>
<circle cx="133.5" cy="63.4998" r="3.5" fill="#ADE06B"/>
<circle cx="133.5" cy="82.4998" r="3.5" fill="#ADE06B"/>
<circle cx="133.5" cy="101.5" r="3.5" fill="#ADE06B"/>
<path d="M136.409 80.4695L133.47 83.4089L132 81.9392" stroke="white"/>
<path d="M136.409 61.4695L133.47 64.4089L132 62.9392" stroke="white"/>
<path d="M136.409 99.4695L133.47 102.409L132 100.939" stroke="white"/>
<path d="M154.1 46.7998L150.5 50.3998" stroke="black" stroke-miterlimit="10" stroke-linecap="round" stroke-linejoin="round"/>
<path d="M150.5 46.7998L154.1 50.3998" stroke="black" stroke-miterlimit="10" stroke-linecap="round" stroke-linejoin="round"/>
</g>
<defs>
<filter id="filter0_d" x="51" y="32" width="123" height="111.3" filterUnits="userSpaceOnUse" color-interpolation-filters="sRGB">
<feFlood flood-opacity="0" result="BackgroundImageFix"/>
<feColorMatrix in="SourceAlpha" type="matrix" values="0 0 0 0 0 0 0 0 0 0 0 0 0 0 0 0 0 0 127 0"/>
<feOffset dy="5"/>
<feGaussianBlur stdDeviation="7.5"/>
<feColorMatrix type="matrix" values="0 0 0 0 0 0 0 0 0 0 0 0 0 0 0 0 0 0 0.1 0"/>
<feBlend mode="normal" in2="BackgroundImageFix" result="effect1_dropShadow"/>
<feBlend mode="normal" in="SourceGraphic" in2="effect1_dropShadow" result="shape"/>
</filter>
</defs>
</svg>
