<svg width="196" height="144" viewBox="0 0 196 144" fill="none" xmlns="http://www.w3.org/2000/svg">
<path d="M0.449339 3.10559C0.449339 1.6969 1.59131 0.55493 3 0.55493H110.109C110.651 0.55493 111.179 0.727674 111.616 1.04809L125.468 11.1969C126.123 11.6773 126.511 12.4415 126.511 13.2544V141C126.511 142.409 125.369 143.551 123.96 143.551H2.99999C1.5913 143.551 0.449339 142.409 0.449339 141V3.10559Z" fill="white" stroke="#E3E5E8" stroke-width="0.898678"/>
<path d="M114.264 16.6158L111.09 0.105469L126.96 11.7333L114.264 16.6158Z" fill="#D1D1D1"/>
<rect x="10.0918" y="64.9998" width="32.2927" height="37" fill="#F8F9FD"/>
<rect x="10.0918" y="64.9998" width="32.2927" height="21" fill="#DCDCDC"/>
<path d="M17.1468 76.6241L21.6107 72.5407C22.196 72.0053 23.1024 72.0088 23.6835 72.5485L27.3794 75.9816C27.9037 76.4686 28.7034 76.5251 29.2928 76.1166L31.1204 74.8501C31.6439 74.4873 32.3424 74.4873 32.8659 74.8501L35.0621 76.3721C35.4659 76.6519 35.7061 77.1077 35.7061 77.594V80.3875C35.7061 81.2126 35.027 81.8815 34.1893 81.8815H17.8908C17.0531 81.8815 16.6621 81.2126 16.6621 80.3875V77.7188C16.6621 77.3034 16.8377 76.9068 17.1468 76.6241Z" fill="white"/>
<ellipse cx="28.9623" cy="70.4801" rx="1.98375" ry="1.96577" fill="white"/>
<rect x="84.9023" y="64.5828" width="31.74" height="37.7428" fill="#F8F9FD"/>
<rect x="84.9023" y="64.5828" width="31.74" height="21.2303" fill="#D5F6D2"/>
<rect x="47.6074" y="64.5828" width="31.74" height="37.7428" fill="#F8F9FD"/>
<rect x="47.6074" y="64.5828" width="31.74" height="21.2303" fill="#D5F6D2"/>
<path d="M54.4195 76.843L58.6975 72.9298C59.2583 72.4167 60.127 72.42 60.6839 72.9372L64.2258 76.2273C64.7282 76.694 65.4947 76.7481 66.0595 76.3567L67.8109 75.143C68.3127 74.7953 68.982 74.7953 69.4837 75.143L71.5884 76.6015C71.9753 76.8696 72.2056 77.3065 72.2056 77.7725V80.4496C72.2056 81.2403 71.5548 81.8814 70.752 81.8814H55.1325C54.3297 81.8814 53.9551 81.2403 53.9551 80.4496V77.8921C53.9551 77.494 54.1234 77.1139 54.4195 76.843Z" fill="white"/>
<path d="M91.7125 76.8435L95.9904 72.9302C96.5513 72.4172 97.42 72.4205 97.9769 72.9377L101.519 76.2278C102.021 76.6945 102.788 76.7486 103.352 76.3572L105.104 75.1435C105.606 74.7957 106.275 74.7957 106.777 75.1435L108.881 76.602C109.268 76.8701 109.499 77.307 109.499 77.773V80.4501C109.499 81.2408 108.848 81.8818 108.045 81.8818H92.4255C91.6227 81.8818 91.2481 81.2408 91.2481 80.4501V77.8926C91.2481 77.4945 91.4163 77.1144 91.7125 76.8435Z" fill="white"/>
<ellipse cx="65.4623" cy="71.2662" rx="1.98375" ry="1.96577" fill="white"/>
<ellipse cx="102.755" cy="71.2662" rx="1.98375" ry="1.96577" fill="white"/>
<ellipse cx="95.6137" cy="131.812" rx="3.57075" ry="3.53838" fill="#DCDCDC"/>
<ellipse cx="104.342" cy="131.812" rx="3.57075" ry="3.53838" fill="#DCDCDC"/>
<ellipse cx="113.071" cy="131.812" rx="3.57075" ry="3.53838" fill="#DCDCDC"/>
<rect x="10.0918" y="11.9998" width="16.1464" height="2" rx="1" fill="#DCDCDC"/>
<rect x="10.0918" y="110" width="47.4299" height="8" rx="3.93154" fill="#FF7C16" fill-opacity="0.5"/>
<rect x="10.0918" y="15.9998" width="10.0915" height="2" rx="1" fill="#DCDCDC"/>
<path d="M10.0918 28.4998C10.0918 27.6713 10.7634 26.9998 11.5918 26.9998H89.3236C90.152 26.9998 90.8236 27.6713 90.8236 28.4998C90.8236 29.3282 90.152 29.9998 89.3236 29.9998H11.5918C10.7634 29.9998 10.0918 29.3282 10.0918 28.4998Z" fill="#DCDCDC"/>
<rect x="10.0918" y="32.9998" width="51.4665" height="3" rx="1.5" fill="#DCDCDC"/>
<rect x="10.0918" y="42.9998" width="91.8324" height="1" fill="#DCDCDC"/>
<rect x="10.0918" y="128" width="59.5397" height="2" fill="#DCDCDC"/>
<rect x="10.0918" y="48.9998" width="18.1647" height="1" fill="#DCDCDC"/>
<rect x="10.0918" y="45.9998" width="99.9056" height="1" fill="#DCDCDC"/>
<rect x="10.0918" y="132" width="64.5855" height="2" fill="#DCDCDC"/>
<rect x="50.7871" y="90.0791" width="25.3932" height="1.79736" fill="#DCDCDC"/>
<rect x="87.9688" y="90.0791" width="24.4863" height="1.79736" fill="#DCDCDC"/>
<rect x="14.1289" y="89.9998" width="25.2287" height="2" fill="#DCDCDC"/>
<rect x="51.2402" y="94.5726" width="19.0449" height="1.79736" fill="#DCDCDC"/>
<rect x="88.4219" y="94.5726" width="19.0449" height="1.79736" fill="#DCDCDC"/>
<rect x="14.1289" y="94.9998" width="19.1738" height="2" fill="#DCDCDC"/>
<path d="M22.6505 3.00013C22.6505 1.59144 23.7925 0.449461 25.2012 0.449461H132.31C132.852 0.449461 133.38 0.622205 133.817 0.942626L147.669 11.0915C148.324 11.5719 148.712 12.3361 148.712 13.1489V140.894C148.712 142.303 147.57 143.445 146.161 143.445H25.2012C23.7925 143.445 22.6505 142.303 22.6505 140.894V3.00013Z" fill="white" stroke="#E3E5E8" stroke-width="0.898678"/>
<path d="M135.788 12.9898L134.733 7.50047C134.218 4.82313 137.253 2.9028 139.452 4.51415L144.729 8.38015C146.643 9.78295 146.248 12.7482 144.032 13.6002L139.811 15.2235C138.067 15.8942 136.141 14.8247 135.788 12.9898Z" fill="#D1D1D1"/>
<rect x="32.293" y="64.8943" width="32.2927" height="37" rx="3" fill="#F8F9FD"/>
<rect x="32.293" y="64.8943" width="32.2927" height="21" rx="3" fill="#DCDCDC"/>
<path d="M39.3479 76.5186L43.8119 72.4352C44.3971 71.8999 45.3036 71.9033 45.8847 72.443L49.5806 75.8762C50.1048 76.3632 50.9046 76.4196 51.494 76.0112L53.3216 74.7447C53.8451 74.3818 54.5435 74.3818 55.0671 74.7447L57.2633 76.2666C57.667 76.5464 57.9073 77.0023 57.9073 77.4885V80.282C57.9073 81.1071 57.2282 81.776 56.3905 81.776H40.0919C39.2542 81.776 38.8633 81.1071 38.8633 80.282V77.6134C38.8633 77.1979 39.0389 76.8013 39.3479 76.5186Z" fill="white"/>
<ellipse cx="51.1634" cy="70.3746" rx="1.98375" ry="1.96577" fill="white"/>
<rect x="107.104" y="64.4774" width="31.74" height="37.7428" rx="3" fill="#F8F9FD"/>
<rect x="107.104" y="64.4774" width="31.74" height="21.2303" rx="3" fill="#D5F6D2"/>
<rect x="69.8086" y="64.4774" width="31.74" height="37.7428" rx="3" fill="#F8F9FD"/>
<rect x="69.8086" y="64.4774" width="31.74" height="21.2303" rx="3" fill="#D5F6D2"/>
<path d="M76.6207 76.7375L80.8987 72.8243C81.4595 72.3112 82.3282 72.3145 82.8851 72.8318L86.427 76.1219C86.9294 76.5886 87.6958 76.6426 88.2607 76.2512L90.0121 75.0375C90.5138 74.6898 91.1832 74.6898 91.6849 75.0375L93.7896 76.496C94.1765 76.7642 94.4068 77.201 94.4068 77.667V80.3441C94.4068 81.1349 93.756 81.7759 92.9532 81.7759H77.3337C76.5309 81.7759 76.1563 81.1349 76.1563 80.3441V77.7867C76.1563 77.3886 76.3245 77.0084 76.6207 76.7375Z" fill="white"/>
<path d="M113.914 76.738L118.192 72.8248C118.752 72.3117 119.621 72.315 120.178 72.8323L123.72 76.1224C124.222 76.589 124.989 76.6431 125.554 76.2517L127.305 75.038C127.807 74.6903 128.476 74.6903 128.978 75.038L131.083 76.4965C131.469 76.7647 131.7 77.2015 131.7 77.6675V80.3446C131.7 81.1353 131.049 81.7764 130.246 81.7764H114.627C113.824 81.7764 113.449 81.1353 113.449 80.3446V77.7872C113.449 77.389 113.618 77.0089 113.914 76.738Z" fill="white"/>
<ellipse cx="87.6634" cy="71.1608" rx="1.98375" ry="1.96577" fill="white"/>
<ellipse cx="124.956" cy="71.1608" rx="1.98375" ry="1.96577" fill="white"/>
<ellipse cx="117.815" cy="131.706" rx="3.57075" ry="3.53838" fill="#DCDCDC"/>
<ellipse cx="126.543" cy="131.706" rx="3.57075" ry="3.53838" fill="#DCDCDC"/>
<ellipse cx="135.272" cy="131.706" rx="3.57075" ry="3.53838" fill="#DCDCDC"/>
<rect x="32.293" y="11.8943" width="16.1464" height="2" rx="1" fill="#DCDCDC"/>
<rect x="32.293" y="109.894" width="47.4299" height="8" rx="3" fill="#FF7C16" fill-opacity="0.5"/>
<rect x="32.293" y="15.8943" width="10.0915" height="2" rx="1" fill="#DCDCDC"/>
<path d="M32.293 28.3943C32.293 27.5659 32.9645 26.8943 33.793 26.8943H111.525C112.353 26.8943 113.025 27.5659 113.025 28.3943C113.025 29.2227 112.353 29.8943 111.525 29.8943H33.793C32.9645 29.8943 32.293 29.2227 32.293 28.3943Z" fill="#DCDCDC"/>
<rect x="32.293" y="32.8943" width="51.4665" height="3" rx="1.5" fill="#DCDCDC"/>
<rect x="32.293" y="42.8943" width="91.8324" height="1" rx="0.5" fill="#DCDCDC"/>
<rect x="32.293" y="127.894" width="59.5397" height="2" rx="1" fill="#DCDCDC"/>
<rect x="32.293" y="48.8943" width="18.1647" height="1" rx="0.5" fill="#DCDCDC"/>
<rect x="32.293" y="45.8943" width="99.9056" height="1" rx="0.5" fill="#DCDCDC"/>
<rect x="32.293" y="131.894" width="64.5855" height="2" rx="1" fill="#DCDCDC"/>
<rect x="72.9883" y="89.9736" width="25.3932" height="1.79736" rx="0.898678" fill="#DCDCDC"/>
<rect x="110.17" y="89.9736" width="24.4863" height="1.79736" rx="0.898678" fill="#DCDCDC"/>
<rect x="36.3301" y="89.8943" width="25.2287" height="2" rx="1" fill="#DCDCDC"/>
<rect x="73.4414" y="94.4671" width="19.0449" height="1.79736" rx="0.898678" fill="#DCDCDC"/>
<rect x="110.623" y="94.4671" width="19.0449" height="1.79736" rx="0.898678" fill="#DCDCDC"/>
<rect x="36.3301" y="94.8943" width="19.1738" height="2" rx="1" fill="#DCDCDC"/>
<path d="M45.6173 3.10569C45.6173 1.697 46.7593 0.555022 48.168 0.555022H155.277C155.819 0.555022 156.347 0.727765 156.784 1.04819L170.636 11.197C171.291 11.6774 171.679 12.4416 171.679 13.2545V141C171.679 142.409 170.537 143.551 169.128 143.551H48.168C46.7593 143.551 45.6173 142.409 45.6173 141V3.10569Z" fill="white" stroke="#E3E5E8" stroke-width="0.898678"/>
<path d="M158.755 13.0953L157.7 7.60593C157.185 4.9286 160.22 3.00826 162.419 4.61962L167.695 8.48562C169.61 9.88842 169.214 12.8537 166.999 13.7057L162.778 15.329C161.034 15.9997 159.108 14.9302 158.755 13.0953Z" fill="#D1D1D1"/>
<rect x="55.4805" y="64.5828" width="31.74" height="37.7428" rx="3" fill="#F8F9FD"/>
<rect x="55.5039" y="64.9998" width="31.2836" height="21" rx="3" fill="#DCDCDC"/>
<path d="M62.3147 76.6241L66.7787 72.5407C67.3639 72.0053 68.2704 72.0088 68.8515 72.5485L72.5474 75.9816C73.0716 76.4686 73.8714 76.5251 74.4608 76.1166L76.2884 74.8501C76.8119 74.4873 77.5103 74.4873 78.0339 74.8501L80.2301 76.3721C80.6338 76.6519 80.8741 77.1077 80.8741 77.594V80.3875C80.8741 81.2126 80.195 81.8815 79.3573 81.8815H63.0587C62.221 81.8815 61.8301 81.2126 61.8301 80.3875V77.7188C61.8301 77.3034 62.0057 76.9068 62.3147 76.6241Z" fill="white"/>
<ellipse cx="74.1302" cy="70.4801" rx="1.98375" ry="1.96577" fill="white"/>
<rect x="130.07" y="64.5828" width="31.74" height="37.7428" rx="3" fill="#F8F9FD"/>
<rect x="130.07" y="64.5828" width="31.74" height="21.2303" rx="3" fill="#D5F6D2"/>
<rect x="92.7754" y="64.5828" width="31.74" height="37.7428" rx="3" fill="#F8F9FD"/>
<rect x="92.7754" y="64.5828" width="31.74" height="21.2303" rx="3" fill="#D5F6D2"/>
<path d="M99.5875 76.843L103.865 72.9298C104.426 72.4167 105.295 72.42 105.852 72.9372L109.394 76.2273C109.896 76.694 110.663 76.7481 111.227 76.3567L112.979 75.143C113.481 74.7953 114.15 74.7953 114.652 75.143L116.756 76.6015C117.143 76.8696 117.374 77.3065 117.374 77.7725V80.4496C117.374 81.2403 116.723 81.8814 115.92 81.8814H100.3C99.4977 81.8814 99.1231 81.2403 99.1231 80.4496V77.8921C99.1231 77.494 99.2913 77.1139 99.5875 76.843Z" fill="white"/>
<path d="M136.88 76.8435L141.158 72.9302C141.719 72.4172 142.588 72.4205 143.145 72.9377L146.687 76.2278C147.189 76.6945 147.956 76.7486 148.52 76.3572L150.272 75.1435C150.774 74.7957 151.443 74.7957 151.945 75.1435L154.049 76.602C154.436 76.8701 154.667 77.307 154.667 77.773V80.4501C154.667 81.2408 154.016 81.8818 153.213 81.8818H137.593C136.791 81.8818 136.416 81.2408 136.416 80.4501V77.8926C136.416 77.4945 136.584 77.1144 136.88 76.8435Z" fill="white"/>
<ellipse cx="110.63" cy="71.2662" rx="1.98375" ry="1.96577" fill="white"/>
<ellipse cx="147.923" cy="71.2662" rx="1.98375" ry="1.96577" fill="white"/>
<ellipse cx="140.782" cy="131.812" rx="3.57075" ry="3.53838" fill="#DCDCDC"/>
<ellipse cx="149.51" cy="131.812" rx="3.57075" ry="3.53838" fill="#DCDCDC"/>
<ellipse cx="158.239" cy="131.812" rx="3.57075" ry="3.53838" fill="#DCDCDC"/>
<rect x="55.5039" y="11.9998" width="16.1464" height="2" rx="1" fill="#DCDCDC"/>
<rect x="55.5039" y="110" width="46.4208" height="8" rx="3" fill="#FF7C16" fill-opacity="0.5"/>
<rect x="55.5039" y="15.9998" width="10.0915" height="2" rx="1" fill="#DCDCDC"/>
<path d="M55.5039 28.4998C55.5039 27.6713 56.1755 26.9998 57.0039 26.9998H134.736C135.564 26.9998 136.236 27.6713 136.236 28.4998C136.236 29.3282 135.564 29.9998 134.736 29.9998H57.0039C56.1755 29.9998 55.5039 29.3282 55.5039 28.4998Z" fill="#DCDCDC"/>
<rect x="55.5039" y="32.9998" width="51.4665" height="3" rx="1.5" fill="#DCDCDC"/>
<rect x="55.5039" y="42.9998" width="91.8324" height="1" rx="0.5" fill="#DCDCDC"/>
<rect x="55.5039" y="128" width="59.5397" height="2" rx="1" fill="#DCDCDC"/>
<rect x="55.5039" y="48.9998" width="18.1647" height="1" rx="0.5" fill="#DCDCDC"/>
<rect x="55.5039" y="45.9998" width="99.9056" height="1" rx="0.5" fill="#DCDCDC"/>
<rect x="55.5039" y="132" width="64.5855" height="2" rx="1" fill="#DCDCDC"/>
<rect x="95.9551" y="90.0791" width="25.3932" height="1.79736" rx="0.898678" fill="#DCDCDC"/>
<rect x="133.137" y="90.0791" width="24.4863" height="1.79736" rx="0.898678" fill="#DCDCDC"/>
<rect x="58.5312" y="89.9998" width="25.2287" height="2" rx="1" fill="#DCDCDC"/>
<rect x="96.4082" y="94.5726" width="19.0449" height="1.79736" rx="0.898678" fill="#DCDCDC"/>
<rect x="133.59" y="94.5726" width="19.0449" height="1.79736" rx="0.898678" fill="#DCDCDC"/>
<rect x="58.5312" y="94.9998" width="19.1738" height="2" rx="1" fill="#DCDCDC"/>
<path d="M69.4884 3.00001C69.4884 1.59132 70.6304 0.449339 72.0391 0.449339H179.148C179.69 0.449339 180.218 0.622083 180.655 0.942504L194.507 11.0913C195.162 11.5718 195.55 12.3359 195.55 13.1488V140.894C195.55 142.303 194.408 143.445 192.999 143.445H72.0391C70.6304 143.445 69.4884 142.303 69.4884 140.894V3.00001Z" fill="white" stroke="#E3E5E8" stroke-width="0.898678"/>
<path d="M183.303 16.5103L180.129 0L195.999 11.6278L183.303 16.5103Z" fill="#D1D1D1"/>
<rect x="79.7227" y="65" width="31.2836" height="37" rx="3" fill="#F8F9FD"/>
<rect x="79.7227" y="65" width="31.2836" height="21" rx="3" fill="#979797"/>
<path d="M86.1858 76.5186L90.6498 72.4352C91.235 71.8999 92.1415 71.9033 92.7225 72.443L96.4185 75.8762C96.9427 76.3632 97.7425 76.4196 98.3319 76.0112L100.159 74.7447C100.683 74.3818 101.381 74.3818 101.905 74.7447L104.101 76.2666C104.505 76.5464 104.745 77.0023 104.745 77.4885V80.282C104.745 81.1071 104.066 81.776 103.228 81.776H86.9298C86.0921 81.776 85.7012 81.1071 85.7012 80.282V77.6134C85.7012 77.1979 85.8768 76.8013 86.1858 76.5186Z" fill="white"/>
<ellipse cx="98.0013" cy="70.3746" rx="1.98375" ry="1.96577" fill="white"/>
<rect x="154.398" y="65" width="31.2836" height="37" rx="3" fill="#F8F9FD"/>
<rect x="154.398" y="65" width="31.2836" height="21" rx="3" fill="#979797"/>
<rect x="117.061" y="65" width="31.2836" height="37" rx="3" fill="#F8F9FD"/>
<rect x="117.061" y="65" width="31.2836" height="21" rx="3" fill="#979797"/>
<path d="M123.459 76.7375L127.737 72.8243C128.297 72.3112 129.166 72.3145 129.723 72.8318L133.265 76.1219C133.767 76.5886 134.534 76.6426 135.099 76.2512L136.85 75.0375C137.352 74.6898 138.021 74.6898 138.523 75.0375L140.627 76.496C141.014 76.7642 141.245 77.201 141.245 77.667V80.3441C141.245 81.1349 140.594 81.7759 139.791 81.7759H124.172C123.369 81.7759 122.994 81.1349 122.994 80.3441V77.7867C122.994 77.3886 123.162 77.0084 123.459 76.7375Z" fill="white"/>
<path d="M160.752 76.738L165.03 72.8248C165.59 72.3117 166.459 72.315 167.016 72.8323L170.558 76.1224C171.06 76.589 171.827 76.6431 172.392 76.2517L174.143 75.038C174.645 74.6903 175.314 74.6903 175.816 75.038L177.92 76.4965C178.307 76.7647 178.538 77.2015 178.538 77.6675V80.3446C178.538 81.1353 177.887 81.7764 177.084 81.7764H161.465C160.662 81.7764 160.287 81.1353 160.287 80.3446V77.7872C160.287 77.389 160.455 77.0089 160.752 76.738Z" fill="white"/>
<ellipse cx="134.501" cy="71.1608" rx="1.98375" ry="1.96577" fill="white"/>
<ellipse cx="171.794" cy="71.1608" rx="1.98375" ry="1.96577" fill="white"/>
<ellipse cx="164.024" cy="131.538" rx="3.57075" ry="3.53838" fill="#DCDCDC"/>
<ellipse cx="173.106" cy="131.538" rx="3.57075" ry="3.53838" fill="#DCDCDC"/>
<ellipse cx="182.19" cy="131.538" rx="3.57075" ry="3.53838" fill="#DCDCDC"/>
<rect x="79.7227" y="12" width="15.1372" height="2" rx="1" fill="#DCDCDC"/>
<rect x="79.7227" y="110" width="46.4208" height="8" rx="3" fill="#FF7C16"/>
<rect x="79.7227" y="16" width="10.0915" height="2" rx="1" fill="#DCDCDC"/>
<path d="M79.7227 28.5C79.7227 27.6716 80.3942 27 81.2227 27H158.954C159.783 27 160.454 27.6716 160.454 28.5C160.454 29.3284 159.783 30 158.954 30H81.2227C80.3942 30 79.7227 29.3284 79.7227 28.5Z" fill="#DCDCDC"/>
<rect x="79.7227" y="33" width="51.4665" height="3" rx="1.5" fill="#DCDCDC"/>
<rect x="79.7227" y="43" width="91.8324" height="1" fill="#DCDCDC"/>
<rect x="79.7227" y="128" width="59.5397" height="2" fill="#DCDCDC"/>
<rect x="79.7227" y="49" width="18.1647" height="1" fill="#DCDCDC"/>
<rect x="79.7227" y="46" width="99.9056" height="1" fill="#DCDCDC"/>
<rect x="79.7227" y="132" width="64.5855" height="2" fill="#DCDCDC"/>
<rect x="120.088" y="90" width="25.2287" height="2" fill="#DCDCDC"/>
<rect x="157.426" y="90" width="24.2195" height="2" fill="#DCDCDC"/>
<rect x="82.75" y="90" width="25.2287" height="2" fill="#DCDCDC"/>
<rect x="120.088" y="94" width="19.1738" height="2" fill="#DCDCDC"/>
<rect x="157.426" y="94" width="19.1738" height="2" fill="#DCDCDC"/>
<rect x="82.75" y="94" width="19.1738" height="2" fill="#DCDCDC"/>
</svg>
