<svg width="153" height="157" viewBox="0 0 153 157" fill="none" xmlns="http://www.w3.org/2000/svg">
<rect width="89" height="157" rx="5" fill="#E9E9E9"/>
<rect x="6" y="6" width="77" height="145" rx="2" fill="white"/>
<g filter="url(#filter0_d)">
<path fill-rule="evenodd" clip-rule="evenodd" d="M68 67C68 69.7614 70.2386 72 73 72L133 72C135.761 72 138 69.7614 138 67V40C138 37.2386 135.761 35 133 35L73 35C70.2386 35 68 37.2386 68 40L68 55.8585C66.3058 59.1477 63.2284 62.1767 58 60.0602C59.9494 62.033 64.295 65.3258 68 64.9739V67Z" fill="#FF8246"/>
<path d="M79 45.8333L81.4173 48.0895C82.57 49.1653 84.3586 49.1653 85.5112 48.0895L86.7745 46.9105C87.9271 45.8347 89.7158 45.8347 90.8684 46.9105L92.1316 48.0895C93.2842 49.1653 95.0729 49.1653 96.2255 48.0895L97.4888 46.9105C98.6414 45.8347 100.43 45.8347 101.583 46.9105L104 49.1667V49.1667C104.46 49.6269 105.206 49.6269 105.667 49.1667L107.712 47.1213C108.884 45.9497 110.783 45.9497 111.955 47.1213L112.712 47.8787C113.884 49.0503 115.783 49.0503 116.955 47.8787L117.712 47.1213C118.884 45.9497 120.783 45.9497 121.955 47.1213L124.833 50" stroke="white" stroke-width="2"/>
<path d="M79 57.8333L81.4173 60.0895C82.57 61.1653 84.3586 61.1653 85.5112 60.0895L86.7745 58.9105C87.9271 57.8347 89.7158 57.8347 90.8684 58.9105L92.1316 60.0895C93.2842 61.1653 95.0729 61.1653 96.2255 60.0895L97.4888 58.9105C98.6414 57.8347 100.43 57.8347 101.583 58.9105L104 61.1667" stroke="white" stroke-width="2"/>
</g>
<circle cx="44" cy="124" r="13" fill="#ADE06B"/>
<path d="M38.0292 126.934C38.0494 127.018 38.0821 127.099 38.1264 127.173C38.4661 127.724 38.8808 128.226 39.3588 128.665C39.5016 128.779 39.6519 128.883 39.8088 128.977L40.1688 129C40.3428 128.977 40.5179 128.962 40.6907 128.931C41.4608 128.774 42.1996 128.493 42.8771 128.097C44.0398 127.449 45.0802 126.641 46.0773 125.771C46.9909 124.992 47.8264 124.127 48.5721 123.188C49.0844 122.526 49.5356 121.83 49.8092 121.032C49.8764 120.835 49.922 120.632 49.9772 120.436L50 120.079C49.8476 119.628 49.5404 119.28 49.2176 118.945C48.9776 118.7 48.7316 118.468 48.4785 118.24C48.3753 118.143 48.2501 118.072 48.1135 118.033C47.9768 117.995 47.8328 117.99 47.6937 118.018C47.533 118.042 47.3882 118.128 47.2905 118.256C46.7745 118.935 46.2645 119.619 45.7306 120.287C45.6207 120.418 45.5501 120.577 45.5267 120.745C45.5034 120.914 45.5283 121.085 45.5986 121.24C45.6634 121.411 45.7486 121.574 45.8278 121.74C45.9189 121.931 46.0089 122.124 46.1085 122.311C46.1293 122.339 46.1387 122.374 46.1347 122.408C46.1307 122.443 46.1136 122.475 46.0869 122.497C45.727 122.863 45.3838 123.245 45.007 123.597C44.3137 124.265 43.5637 124.873 42.7655 125.414C42.7312 125.444 42.6873 125.46 42.6419 125.46C42.5964 125.46 42.5526 125.444 42.5183 125.414C42.2267 125.217 41.9303 125.027 41.6303 124.841C41.4214 124.694 41.1641 124.631 40.9103 124.665C40.8328 124.677 40.758 124.703 40.6895 124.741C39.8968 125.19 39.1048 125.641 38.3136 126.095C38.0592 126.238 37.9404 126.595 38.0292 126.934Z" fill="white"/>
<defs>
<filter id="filter0_d" x="43" y="25" width="110" height="67" filterUnits="userSpaceOnUse" color-interpolation-filters="sRGB">
<feFlood flood-opacity="0" result="BackgroundImageFix"/>
<feColorMatrix in="SourceAlpha" type="matrix" values="0 0 0 0 0 0 0 0 0 0 0 0 0 0 0 0 0 0 127 0"/>
<feOffset dy="5"/>
<feGaussianBlur stdDeviation="7.5"/>
<feColorMatrix type="matrix" values="0 0 0 0 0 0 0 0 0 0 0 0 0 0 0 0 0 0 0.1 0"/>
<feBlend mode="normal" in2="BackgroundImageFix" result="effect1_dropShadow"/>
<feBlend mode="normal" in="SourceGraphic" in2="effect1_dropShadow" result="shape"/>
</filter>
</defs>
</svg>
