<svg width="210" height="144" viewBox="0 0 210 144" fill="none" xmlns="http://www.w3.org/2000/svg">
<path d="M198.624 126.42C198.624 128.292 197.106 129.81 195.234 129.81L3.89227 129.81C2.01968 129.81 0.501648 128.292 0.501663 126.42L0.502369 2.51531L198.625 2.51529L198.624 126.42Z" fill="white" stroke="#E3E5E8"/>
<rect x="8.1543" y="14.1059" width="9.51443" height="9.40382" rx="1.55625" fill="#9FD356"/>
<path d="M10.1895 19.1438L11.8885 20.823L15.9661 16.7928" stroke="white" stroke-width="1.55625"/>
<rect x="8.1543" y="74.5597" width="9.51443" height="9.40382" rx="1.55625" fill="#9FD356"/>
<path d="M10.1895 79.5978L11.8885 81.277L15.9661 77.2468" stroke="white" stroke-width="1.55625"/>
<rect x="8.1543" y="34.2568" width="9.51443" height="9.40382" rx="1.55625" fill="#9FD356"/>
<path d="M10.1895 39.2946L11.8885 40.9739L15.9661 36.9437" stroke="white" stroke-width="1.55625"/>
<line y1="49.3171" x2="199.123" y2="49.3171" stroke="#F2F2F2" stroke-width="0.778124"/>
<rect x="8.54336" y="95.0987" width="8.7363" height="8.62569" rx="1.16719" fill="#F5F5F5" stroke="#F5F5F5" stroke-width="0.778124"/>
<rect x="8.54336" y="115.25" width="8.7363" height="8.62569" rx="1.16719" fill="#F5F5F5" stroke="#F5F5F5" stroke-width="0.778124"/>
<rect x="8.1543" y="54.4081" width="9.51443" height="9.40382" rx="1.55625" fill="#9FD356"/>
<path d="M10.1895 59.446L11.8885 61.1252L15.9661 57.095" stroke="white" stroke-width="1.55625"/>
<rect x="25.8242" y="16.7928" width="111.455" height="4.03021" rx="2.0151" fill="#DCDCDC"/>
<rect x="26.5332" y="57.0947" width="102.62" height="4.03021" rx="2.0151" fill="#DCDCDC"/>
<rect x="25.8242" y="97.3962" width="99.9015" height="4.03021" rx="2.0151" fill="#F5F5F5"/>
<line y1="68.7963" x2="199.123" y2="68.7963" stroke="#F2F2F2" stroke-width="0.778124"/>
<line y1="88.9472" x2="199.123" y2="88.9472" stroke="#F2F2F2" stroke-width="0.778124"/>
<line y1="109.098" x2="199.123" y2="109.098" stroke="#F2F2F2" stroke-width="0.778124"/>
<rect x="25.8242" y="117.548" width="99.9015" height="4.03021" rx="2.0151" fill="#F5F5F5"/>
<rect x="25.8242" y="36.9438" width="93.7851" height="4.03021" rx="2.0151" fill="#DCDCDC"/>
<rect x="25.8242" y="77.2457" width="84.9502" height="4.03021" rx="2.0151" fill="#DCDCDC"/>
<path d="M0 3.89062C0 1.74189 1.74189 0 3.89062 0H195.233C197.382 0 199.123 1.74189 199.123 3.89062V8.06041H0V3.89062Z" fill="#2F2F2F"/>
<ellipse cx="4.07795" cy="4.03048" rx="1.3592" ry="1.3434" fill="#969696"/>
<ellipse cx="8.83577" cy="4.03048" rx="1.3592" ry="1.3434" fill="#969696"/>
<ellipse cx="13.5955" cy="4.03048" rx="1.3592" ry="1.3434" fill="#969696"/>
<rect x="95.8441" y="45.0787" width="113.767" height="98.5322" rx="3.50156" fill="white" stroke="#E3E5E8" stroke-width="0.778124"/>
<rect x="104.662" y="55.0512" width="96.5035" height="14.1057" rx="2.33437" fill="#F5F5F5"/>
<rect x="104.662" y="99.3829" width="96.5035" height="14.1057" rx="2.33437" fill="#F5F5F5"/>
<rect x="115.245" y="74.2482" width="85.5313" height="13.3276" rx="1.94531" stroke="#EDEDED" stroke-width="0.778124"/>
<rect x="115.245" y="118.58" width="85.5313" height="13.3276" rx="1.94531" fill="white" stroke="#EDEDED" stroke-width="0.778124"/>
<path d="M110.098 69.1569V78.2249C110.098 79.8943 111.467 81.2475 113.156 81.2475H114.855" stroke="#C4C4C4" stroke-width="0.778124"/>
<path d="M110.098 113.489V122.557C110.098 124.226 111.467 125.58 113.156 125.58H114.855" stroke="#C4C4C4" stroke-width="0.778124"/>
<path d="M193.011 63.1119L190.973 61.0968H195.05L193.011 63.1119Z" fill="#C4C4C4"/>
<path d="M193.011 81.919L190.973 79.9039H195.05L193.011 81.919Z" fill="#C4C4C4"/>
<path d="M193.011 108.115L190.973 106.1H195.05L193.011 108.115Z" fill="#C4C4C4"/>
<path d="M193.011 126.923L190.973 124.908H195.05L193.011 126.923Z" fill="#C4C4C4"/>
<path d="M111.303 64.8004H110.639V59.6793H108.83V59.0894H113.111V59.6793H111.303V64.8004ZM115.686 64.8785C115.053 64.8785 114.553 64.6858 114.186 64.3004C113.821 63.915 113.639 63.3798 113.639 62.6949C113.639 62.0048 113.808 61.4566 114.146 61.0504C114.488 60.6441 114.945 60.441 115.518 60.441C116.054 60.441 116.479 60.6181 116.791 60.9723C117.104 61.3238 117.26 61.7887 117.26 62.3668V62.7769H114.311C114.324 63.2795 114.45 63.6611 114.689 63.9215C114.932 64.1819 115.271 64.3121 115.709 64.3121C116.17 64.3121 116.626 64.2157 117.076 64.023V64.6012C116.847 64.7001 116.63 64.7704 116.424 64.8121C116.221 64.8564 115.975 64.8785 115.686 64.8785ZM115.51 60.984C115.166 60.984 114.891 61.0959 114.686 61.3199C114.482 61.5439 114.363 61.8538 114.326 62.2496H116.564C116.564 61.8407 116.473 61.5282 116.291 61.3121C116.109 61.0933 115.848 60.984 115.51 60.984ZM121.561 64.8004H120.904V61.0738H119.619C119.549 62.0009 119.451 62.7366 119.326 63.2808C119.201 63.8251 119.038 64.2236 118.838 64.4762C118.64 64.7288 118.387 64.8551 118.08 64.8551C117.939 64.8551 117.827 64.8394 117.744 64.8082V64.3277C117.801 64.3433 117.867 64.3512 117.939 64.3512C118.239 64.3512 118.477 64.0348 118.654 63.4019C118.831 62.7691 118.965 61.8082 119.057 60.5191H121.561V64.8004ZM124.748 64.8785C124.115 64.8785 123.615 64.6858 123.248 64.3004C122.883 63.915 122.701 63.3798 122.701 62.6949C122.701 62.0048 122.87 61.4566 123.209 61.0504C123.55 60.6441 124.007 60.441 124.58 60.441C125.117 60.441 125.541 60.6181 125.854 60.9723C126.166 61.3238 126.322 61.7887 126.322 62.3668V62.7769H123.373C123.386 63.2795 123.512 63.6611 123.752 63.9215C123.994 64.1819 124.334 64.3121 124.771 64.3121C125.232 64.3121 125.688 64.2157 126.139 64.023V64.6012C125.91 64.7001 125.692 64.7704 125.486 64.8121C125.283 64.8564 125.037 64.8785 124.748 64.8785ZM124.572 60.984C124.229 60.984 123.954 61.0959 123.748 61.3199C123.545 61.5439 123.425 61.8538 123.389 62.2496H125.627C125.627 61.8407 125.536 61.5282 125.354 61.3121C125.171 61.0933 124.911 60.984 124.572 60.984ZM132.018 62.6558C132.018 63.3043 131.833 63.8212 131.463 64.2066C131.096 64.5894 130.581 64.8082 129.92 64.8629V66.7223H129.279V64.8629C128.633 64.8134 128.123 64.592 127.748 64.1988C127.373 63.8056 127.186 63.2913 127.186 62.6558C127.186 62.0074 127.372 61.4918 127.744 61.109C128.119 60.7262 128.639 60.5087 129.303 60.4566V58.7223H129.92V60.4566C130.574 60.5165 131.087 60.7418 131.459 61.1324C131.831 61.523 132.018 62.0308 132.018 62.6558ZM127.865 62.6558C127.865 63.1558 127.98 63.5478 128.209 63.8316C128.438 64.1155 128.803 64.2808 129.303 64.3277V60.9996C128.821 61.0439 128.46 61.2014 128.221 61.4723C127.984 61.7405 127.865 62.135 127.865 62.6558ZM131.346 62.6558C131.346 61.6584 130.87 61.109 129.92 61.0074V64.3277C130.415 64.2782 130.775 64.1116 131.002 63.8277C131.231 63.5439 131.346 63.1532 131.346 62.6558ZM136.846 62.6558C136.846 63.3538 136.67 63.8993 136.318 64.2926C135.967 64.6832 135.481 64.8785 134.861 64.8785C134.479 64.8785 134.139 64.7887 133.842 64.609C133.545 64.4293 133.316 64.1715 133.154 63.8355C132.993 63.4996 132.912 63.1064 132.912 62.6558C132.912 61.9579 133.087 61.415 133.436 61.0269C133.785 60.6363 134.269 60.441 134.889 60.441C135.488 60.441 135.963 60.6402 136.314 61.0387C136.669 61.4371 136.846 61.9762 136.846 62.6558ZM133.584 62.6558C133.584 63.2027 133.693 63.6194 133.912 63.9058C134.131 64.1923 134.452 64.3355 134.877 64.3355C135.301 64.3355 135.623 64.1936 135.842 63.9098C136.063 63.6233 136.174 63.2053 136.174 62.6558C136.174 62.1116 136.063 61.6988 135.842 61.4176C135.623 61.1337 135.299 60.9918 134.869 60.9918C134.445 60.9918 134.124 61.1311 133.908 61.4098C133.692 61.6884 133.584 62.1038 133.584 62.6558ZM138.635 60.5191V62.3121H141.033V60.5191H141.682V64.8004H141.033V62.8707H138.635V64.8004H137.986V60.5191H138.635Z" fill="#5E5E5E"/>
<path d="M114.289 110.841H113.656V109.353H109.688V110.841H109.055V108.751H109.496C109.897 108.077 110.24 107.256 110.523 106.29C110.81 105.324 110.969 104.441 111 103.642H113.566V108.751H114.289V110.841ZM112.902 108.751V104.24H111.602C111.555 104.87 111.397 105.628 111.129 106.513C110.861 107.396 110.548 108.142 110.191 108.751H112.902ZM118.852 107.208C118.852 107.906 118.676 108.452 118.324 108.845C117.973 109.236 117.487 109.431 116.867 109.431C116.484 109.431 116.145 109.341 115.848 109.161C115.551 108.982 115.322 108.724 115.16 108.388C114.999 108.052 114.918 107.659 114.918 107.208C114.918 106.51 115.092 105.967 115.441 105.579C115.79 105.189 116.275 104.993 116.895 104.993C117.493 104.993 117.969 105.193 118.32 105.591C118.674 105.99 118.852 106.529 118.852 107.208ZM115.59 107.208C115.59 107.755 115.699 108.172 115.918 108.458C116.137 108.745 116.458 108.888 116.883 108.888C117.307 108.888 117.629 108.746 117.848 108.462C118.069 108.176 118.18 107.758 118.18 107.208C118.18 106.664 118.069 106.251 117.848 105.97C117.629 105.686 117.305 105.544 116.875 105.544C116.451 105.544 116.13 105.684 115.914 105.962C115.698 106.241 115.59 106.656 115.59 107.208ZM119.77 106.786C119.77 105.849 119.908 105.118 120.184 104.595C120.46 104.069 120.897 103.741 121.496 103.611C122.241 103.452 122.897 103.323 123.465 103.224L123.586 103.794C122.682 103.945 122.036 104.065 121.648 104.154C121.271 104.24 120.987 104.443 120.797 104.763C120.609 105.083 120.507 105.519 120.488 106.072H120.535C120.697 105.853 120.905 105.681 121.16 105.556C121.415 105.431 121.682 105.368 121.961 105.368C122.487 105.368 122.897 105.539 123.191 105.88C123.486 106.221 123.633 106.694 123.633 107.298C123.633 107.967 123.462 108.491 123.121 108.868C122.78 109.243 122.305 109.431 121.695 109.431C121.094 109.431 120.622 109.2 120.281 108.74C119.94 108.279 119.77 107.628 119.77 106.786ZM121.754 108.888C122.548 108.888 122.945 108.381 122.945 107.368C122.945 106.402 122.585 105.919 121.863 105.919C121.665 105.919 121.474 105.961 121.289 106.044C121.107 106.125 120.939 106.233 120.785 106.368C120.634 106.504 120.517 106.643 120.434 106.786C120.434 107.471 120.542 107.993 120.758 108.353C120.974 108.71 121.306 108.888 121.754 108.888ZM127.398 109.353L127.27 108.743H127.238C127.025 109.012 126.811 109.194 126.598 109.29C126.387 109.384 126.122 109.431 125.805 109.431C125.38 109.431 125.047 109.322 124.805 109.103C124.565 108.884 124.445 108.573 124.445 108.169C124.445 107.305 125.137 106.851 126.52 106.81L127.246 106.786V106.521C127.246 106.185 127.173 105.937 127.027 105.779C126.884 105.617 126.654 105.536 126.336 105.536C125.979 105.536 125.576 105.646 125.125 105.865L124.926 105.368C125.137 105.254 125.367 105.164 125.617 105.099C125.87 105.034 126.122 105.001 126.375 105.001C126.885 105.001 127.263 105.115 127.508 105.341C127.755 105.568 127.879 105.931 127.879 106.431V109.353H127.398ZM125.934 108.896C126.337 108.896 126.654 108.785 126.883 108.564C127.115 108.342 127.23 108.032 127.23 107.634V107.247L126.582 107.275C126.066 107.293 125.694 107.374 125.465 107.517C125.238 107.657 125.125 107.878 125.125 108.177C125.125 108.411 125.195 108.59 125.336 108.712C125.479 108.835 125.678 108.896 125.934 108.896ZM132.691 106.146C132.691 106.424 132.611 106.637 132.449 106.782C132.29 106.926 132.066 107.022 131.777 107.072V107.107C132.142 107.156 132.408 107.263 132.574 107.427C132.743 107.591 132.828 107.818 132.828 108.107C132.828 108.505 132.681 108.812 132.387 109.029C132.095 109.245 131.668 109.353 131.105 109.353H129.219V105.072H131.098C132.16 105.072 132.691 105.43 132.691 106.146ZM132.18 108.064C132.18 107.832 132.091 107.664 131.914 107.56C131.74 107.453 131.449 107.4 131.043 107.4H129.867V108.81H131.059C131.806 108.81 132.18 108.561 132.18 108.064ZM132.059 106.208C132.059 106 131.978 105.853 131.816 105.767C131.658 105.678 131.415 105.634 131.09 105.634H129.867V106.841H130.965C131.366 106.841 131.648 106.792 131.812 106.693C131.977 106.594 132.059 106.432 132.059 106.208ZM134.383 105.072V107.786L134.355 108.497L134.344 108.72L136.66 105.072H137.469V109.353H136.863V106.736L136.875 106.22L136.895 105.712L134.582 109.353H133.773V105.072H134.383ZM142.035 109.353H141.379V105.626H140.094C140.023 106.553 139.926 107.289 139.801 107.833C139.676 108.378 139.513 108.776 139.312 109.029C139.115 109.281 138.862 109.407 138.555 109.407C138.414 109.407 138.302 109.392 138.219 109.361V108.88C138.276 108.896 138.341 108.904 138.414 108.904C138.714 108.904 138.952 108.587 139.129 107.954C139.306 107.322 139.44 106.361 139.531 105.072H142.035V109.353ZM148.965 106.146C148.965 106.424 148.884 106.637 148.723 106.782C148.564 106.926 148.34 107.022 148.051 107.072V107.107C148.415 107.156 148.681 107.263 148.848 107.427C149.017 107.591 149.102 107.818 149.102 108.107C149.102 108.505 148.954 108.812 148.66 109.029C148.368 109.245 147.941 109.353 147.379 109.353H145.492V105.072H147.371C148.434 105.072 148.965 105.43 148.965 106.146ZM148.453 108.064C148.453 107.832 148.365 107.664 148.188 107.56C148.013 107.453 147.723 107.4 147.316 107.4H146.141V108.81H147.332C148.079 108.81 148.453 108.561 148.453 108.064ZM148.332 106.208C148.332 106 148.251 105.853 148.09 105.767C147.931 105.678 147.689 105.634 147.363 105.634H146.141V106.841H147.238C147.639 106.841 147.922 106.792 148.086 106.693C148.25 106.594 148.332 106.432 148.332 106.208ZM154.621 105.072H155.332L153.484 107.138L155.484 109.353H154.727L152.773 107.185V109.353H152.125V105.072H152.773V107.154L154.621 105.072ZM159.977 107.208C159.977 107.906 159.801 108.452 159.449 108.845C159.098 109.236 158.612 109.431 157.992 109.431C157.609 109.431 157.27 109.341 156.973 109.161C156.676 108.982 156.447 108.724 156.285 108.388C156.124 108.052 156.043 107.659 156.043 107.208C156.043 106.51 156.217 105.967 156.566 105.579C156.915 105.189 157.4 104.993 158.02 104.993C158.618 104.993 159.094 105.193 159.445 105.591C159.799 105.99 159.977 106.529 159.977 107.208ZM156.715 107.208C156.715 107.755 156.824 108.172 157.043 108.458C157.262 108.745 157.583 108.888 158.008 108.888C158.432 108.888 158.754 108.746 158.973 108.462C159.194 108.176 159.305 107.758 159.305 107.208C159.305 106.664 159.194 106.251 158.973 105.97C158.754 105.686 158.43 105.544 158 105.544C157.576 105.544 157.255 105.684 157.039 105.962C156.823 106.241 156.715 106.656 156.715 107.208ZM163.109 109.431C162.831 109.431 162.576 109.38 162.344 109.279C162.115 109.174 161.922 109.016 161.766 108.802H161.719C161.75 109.052 161.766 109.289 161.766 109.513V111.275H161.117V105.072H161.645L161.734 105.657H161.766C161.932 105.423 162.126 105.254 162.348 105.15C162.569 105.046 162.823 104.993 163.109 104.993C163.677 104.993 164.115 105.187 164.422 105.575C164.732 105.963 164.887 106.508 164.887 107.208C164.887 107.911 164.729 108.458 164.414 108.849C164.102 109.237 163.667 109.431 163.109 109.431ZM163.016 105.544C162.578 105.544 162.262 105.665 162.066 105.907C161.871 106.15 161.771 106.535 161.766 107.064V107.208C161.766 107.81 161.866 108.241 162.066 108.501C162.267 108.759 162.589 108.888 163.031 108.888C163.401 108.888 163.69 108.738 163.898 108.439C164.109 108.139 164.215 107.726 164.215 107.2C164.215 106.667 164.109 106.258 163.898 105.974C163.69 105.687 163.396 105.544 163.016 105.544ZM166.84 106.849C167.65 106.849 168.055 106.625 168.055 106.177C168.055 105.755 167.727 105.544 167.07 105.544C166.87 105.544 166.688 105.562 166.523 105.599C166.359 105.635 166.145 105.708 165.879 105.818L165.648 105.29C166.091 105.092 166.574 104.993 167.098 104.993C167.59 104.993 167.978 105.095 168.262 105.298C168.546 105.499 168.688 105.773 168.688 106.122C168.688 106.601 168.421 106.915 167.887 107.064V107.095C168.215 107.191 168.454 107.329 168.605 107.509C168.757 107.686 168.832 107.909 168.832 108.177C168.832 108.573 168.672 108.881 168.352 109.103C168.034 109.322 167.594 109.431 167.031 109.431C166.414 109.431 165.938 109.338 165.602 109.154V108.56C166.078 108.784 166.56 108.896 167.047 108.896C167.422 108.896 167.704 108.832 167.895 108.704C168.087 108.574 168.184 108.388 168.184 108.146C168.184 107.648 167.779 107.4 166.969 107.4H166.375V106.849H166.84ZM170.5 105.072V107.786L170.473 108.497L170.461 108.72L172.777 105.072H173.586V109.353H172.98V106.736L172.992 106.22L173.012 105.712L170.699 109.353H169.891V105.072H170.5ZM175.609 105.072V106.865H178.008V105.072H178.656V109.353H178.008V107.423H175.609V109.353H174.961V105.072H175.609ZM179.352 105.072H180.047L180.984 107.513C181.19 108.07 181.318 108.473 181.367 108.72H181.398C181.432 108.587 181.503 108.361 181.609 108.04C181.719 107.717 182.073 106.728 182.672 105.072H183.367L181.527 109.947C181.345 110.428 181.132 110.769 180.887 110.97C180.645 111.173 180.346 111.275 179.992 111.275C179.794 111.275 179.599 111.253 179.406 111.208V110.689C179.549 110.72 179.71 110.736 179.887 110.736C180.332 110.736 180.65 110.486 180.84 109.986L181.078 109.376L179.352 105.072Z" fill="#5E5E5E"/>
<path d="M125.467 81.2757C125.467 82.1897 125.235 82.9085 124.771 83.4319C124.311 83.9554 123.669 84.2171 122.846 84.2171C122.005 84.2171 121.355 83.9606 120.896 83.4475C120.441 82.9319 120.213 82.2054 120.213 81.2679C120.213 80.3382 120.442 79.6181 120.9 79.1077C121.359 78.5947 122.01 78.3382 122.854 78.3382C123.674 78.3382 124.314 78.5986 124.775 79.1194C125.236 79.6403 125.467 80.359 125.467 81.2757ZM120.916 81.2757C120.916 82.0491 121.08 82.6363 121.408 83.0374C121.739 83.4358 122.218 83.635 122.846 83.635C123.479 83.635 123.956 83.4358 124.279 83.0374C124.602 82.639 124.764 82.0517 124.764 81.2757C124.764 80.5074 124.602 79.9254 124.279 79.5296C123.959 79.1311 123.484 78.9319 122.854 78.9319C122.221 78.9319 121.739 79.1324 121.408 79.5335C121.08 79.9319 120.916 80.5127 120.916 81.2757ZM127.295 84.139H126.646V79.8577H130.24V84.139H129.584V80.4202H127.295V84.139ZM133.607 84.2171C133.329 84.2171 133.074 84.1663 132.842 84.0647C132.613 83.9606 132.42 83.8017 132.264 83.5882H132.217C132.248 83.8382 132.264 84.0752 132.264 84.2991V86.0608H131.615V79.8577H132.143L132.232 80.4436H132.264C132.43 80.2093 132.624 80.04 132.846 79.9358C133.067 79.8317 133.321 79.7796 133.607 79.7796C134.175 79.7796 134.613 79.9736 134.92 80.3616C135.23 80.7496 135.385 81.2939 135.385 81.9944C135.385 82.6975 135.227 83.2444 134.912 83.635C134.6 84.0231 134.165 84.2171 133.607 84.2171ZM133.514 80.3304C133.076 80.3304 132.76 80.4515 132.564 80.6936C132.369 80.9358 132.269 81.3212 132.264 81.8499V81.9944C132.264 82.596 132.364 83.027 132.564 83.2874C132.765 83.5452 133.087 83.6741 133.529 83.6741C133.899 83.6741 134.188 83.5244 134.396 83.2249C134.607 82.9254 134.713 82.5127 134.713 81.9866C134.713 81.4528 134.607 81.0439 134.396 80.76C134.188 80.4736 133.894 80.3304 133.514 80.3304ZM138.33 84.2171C137.697 84.2171 137.197 84.0244 136.83 83.639C136.465 83.2535 136.283 82.7184 136.283 82.0335C136.283 81.3434 136.452 80.7952 136.791 80.389C137.132 79.9827 137.589 79.7796 138.162 79.7796C138.699 79.7796 139.123 79.9567 139.436 80.3108C139.748 80.6624 139.904 81.1272 139.904 81.7054V82.1155H136.955C136.968 82.6181 137.094 82.9996 137.334 83.26C137.576 83.5205 137.916 83.6507 138.354 83.6507C138.814 83.6507 139.27 83.5543 139.721 83.3616V83.9397C139.492 84.0387 139.274 84.109 139.068 84.1507C138.865 84.1949 138.619 84.2171 138.33 84.2171ZM138.154 80.3225C137.811 80.3225 137.536 80.4345 137.33 80.6585C137.127 80.8824 137.007 81.1923 136.971 81.5882H139.209C139.209 81.1793 139.118 80.8668 138.936 80.6507C138.753 80.4319 138.493 80.3225 138.154 80.3225ZM144.732 85.6194H144.104V84.139H141.111V85.6194H140.486V83.5804H140.822C141.171 83.1064 141.445 82.5504 141.643 81.9124C141.84 81.2744 141.943 80.5895 141.951 79.8577H144.119V83.5804H144.732V85.6194ZM143.494 83.5804V80.3694H142.533C142.499 80.9475 142.387 81.5335 142.197 82.1272C142.01 82.7184 141.775 83.2028 141.494 83.5804H143.494ZM147.4 84.2171C146.768 84.2171 146.268 84.0244 145.9 83.639C145.536 83.2535 145.354 82.7184 145.354 82.0335C145.354 81.3434 145.523 80.7952 145.861 80.389C146.202 79.9827 146.66 79.7796 147.232 79.7796C147.769 79.7796 148.193 79.9567 148.506 80.3108C148.818 80.6624 148.975 81.1272 148.975 81.7054V82.1155H146.025C146.038 82.6181 146.165 82.9996 146.404 83.26C146.646 83.5205 146.986 83.6507 147.424 83.6507C147.885 83.6507 148.34 83.5543 148.791 83.3616V83.9397C148.562 84.0387 148.344 84.109 148.139 84.1507C147.936 84.1949 147.689 84.2171 147.4 84.2171ZM147.225 80.3225C146.881 80.3225 146.606 80.4345 146.4 80.6585C146.197 80.8824 146.077 81.1923 146.041 81.5882H148.279C148.279 81.1793 148.188 80.8668 148.006 80.6507C147.824 80.4319 147.563 80.3225 147.225 80.3225ZM153.275 84.139H152.619V80.4124H151.334C151.264 81.3395 151.166 82.0752 151.041 82.6194C150.916 83.1637 150.753 83.5621 150.553 83.8147C150.355 84.0673 150.102 84.1936 149.795 84.1936C149.654 84.1936 149.542 84.178 149.459 84.1468V83.6663C149.516 83.6819 149.581 83.6897 149.654 83.6897C149.954 83.6897 150.192 83.3733 150.369 82.7405C150.546 82.1077 150.68 81.1468 150.771 79.8577H153.275V84.139ZM156.463 84.2171C155.83 84.2171 155.33 84.0244 154.963 83.639C154.598 83.2535 154.416 82.7184 154.416 82.0335C154.416 81.3434 154.585 80.7952 154.924 80.389C155.265 79.9827 155.722 79.7796 156.295 79.7796C156.831 79.7796 157.256 79.9567 157.568 80.3108C157.881 80.6624 158.037 81.1272 158.037 81.7054V82.1155H155.088C155.101 82.6181 155.227 82.9996 155.467 83.26C155.709 83.5205 156.049 83.6507 156.486 83.6507C156.947 83.6507 157.403 83.5543 157.854 83.3616V83.9397C157.624 84.0387 157.407 84.109 157.201 84.1507C156.998 84.1949 156.752 84.2171 156.463 84.2171ZM156.287 80.3225C155.943 80.3225 155.669 80.4345 155.463 80.6585C155.26 80.8824 155.14 81.1923 155.104 81.5882H157.342C157.342 81.1793 157.251 80.8668 157.068 80.6507C156.886 80.4319 156.626 80.3225 156.287 80.3225ZM159.795 79.8577V81.6507H162.193V79.8577H162.842V84.139H162.193V82.2093H159.795V84.139H159.146V79.8577H159.795ZM167.912 81.9944C167.912 82.6923 167.736 83.2379 167.385 83.6311C167.033 84.0218 166.548 84.2171 165.928 84.2171C165.545 84.2171 165.205 84.1272 164.908 83.9475C164.611 83.7679 164.382 83.51 164.221 83.1741C164.059 82.8382 163.979 82.4449 163.979 81.9944C163.979 81.2965 164.153 80.7535 164.502 80.3655C164.851 79.9749 165.335 79.7796 165.955 79.7796C166.554 79.7796 167.029 79.9788 167.381 80.3772C167.735 80.7757 167.912 81.3147 167.912 81.9944ZM164.65 81.9944C164.65 82.5413 164.76 82.958 164.979 83.2444C165.197 83.5309 165.519 83.6741 165.943 83.6741C166.368 83.6741 166.689 83.5322 166.908 83.2483C167.13 82.9619 167.24 82.5439 167.24 81.9944C167.24 81.4502 167.13 81.0374 166.908 80.7561C166.689 80.4723 166.365 80.3304 165.936 80.3304C165.511 80.3304 165.191 80.4697 164.975 80.7483C164.758 81.027 164.65 81.4423 164.65 81.9944Z" fill="#ABABAB"/>
<path d="M125.465 124.835C125.465 125.749 125.233 126.468 124.77 126.992C124.309 127.515 123.667 127.777 122.844 127.777C122.003 127.777 121.353 127.52 120.895 127.007C120.439 126.492 120.211 125.765 120.211 124.827C120.211 123.898 120.44 123.178 120.898 122.667C121.357 122.154 122.008 121.898 122.852 121.898C123.672 121.898 124.312 122.158 124.773 122.679C125.234 123.2 125.465 123.919 125.465 124.835ZM120.914 124.835C120.914 125.609 121.078 126.196 121.406 126.597C121.737 126.995 122.216 127.195 122.844 127.195C123.477 127.195 123.954 126.995 124.277 126.597C124.6 126.199 124.762 125.611 124.762 124.835C124.762 124.067 124.6 123.485 124.277 123.089C123.957 122.691 123.482 122.492 122.852 122.492C122.219 122.492 121.737 122.692 121.406 123.093C121.078 123.492 120.914 124.072 120.914 124.835ZM127.293 127.699H126.645V123.417H130.238V127.699H129.582V123.98H127.293V127.699ZM133.605 127.777C133.327 127.777 133.072 127.726 132.84 127.624C132.611 127.52 132.418 127.361 132.262 127.148H132.215C132.246 127.398 132.262 127.635 132.262 127.859V129.62H131.613V123.417H132.141L132.23 124.003H132.262C132.428 123.769 132.622 123.6 132.844 123.495C133.065 123.391 133.319 123.339 133.605 123.339C134.173 123.339 134.611 123.533 134.918 123.921C135.228 124.309 135.383 124.853 135.383 125.554C135.383 126.257 135.225 126.804 134.91 127.195C134.598 127.583 134.163 127.777 133.605 127.777ZM133.512 123.89C133.074 123.89 132.758 124.011 132.562 124.253C132.367 124.495 132.267 124.881 132.262 125.409V125.554C132.262 126.156 132.362 126.587 132.562 126.847C132.763 127.105 133.085 127.234 133.527 127.234C133.897 127.234 134.186 127.084 134.395 126.784C134.605 126.485 134.711 126.072 134.711 125.546C134.711 125.012 134.605 124.603 134.395 124.32C134.186 124.033 133.892 123.89 133.512 123.89ZM138.328 127.777C137.695 127.777 137.195 127.584 136.828 127.199C136.464 126.813 136.281 126.278 136.281 125.593C136.281 124.903 136.451 124.355 136.789 123.949C137.13 123.542 137.587 123.339 138.16 123.339C138.697 123.339 139.121 123.516 139.434 123.87C139.746 124.222 139.902 124.687 139.902 125.265V125.675H136.953C136.966 126.178 137.092 126.559 137.332 126.82C137.574 127.08 137.914 127.21 138.352 127.21C138.812 127.21 139.268 127.114 139.719 126.921V127.499C139.49 127.598 139.272 127.669 139.066 127.71C138.863 127.755 138.617 127.777 138.328 127.777ZM138.152 123.882C137.809 123.882 137.534 123.994 137.328 124.218C137.125 124.442 137.005 124.752 136.969 125.148H139.207C139.207 124.739 139.116 124.426 138.934 124.21C138.751 123.992 138.491 123.882 138.152 123.882ZM144.73 129.179H144.102V127.699H141.109V129.179H140.484V127.14H140.82C141.169 126.666 141.443 126.11 141.641 125.472C141.839 124.834 141.941 124.149 141.949 123.417H144.117V127.14H144.73V129.179ZM143.492 127.14V123.929H142.531C142.497 124.507 142.385 125.093 142.195 125.687C142.008 126.278 141.773 126.762 141.492 127.14H143.492ZM147.398 127.777C146.766 127.777 146.266 127.584 145.898 127.199C145.534 126.813 145.352 126.278 145.352 125.593C145.352 124.903 145.521 124.355 145.859 123.949C146.201 123.542 146.658 123.339 147.23 123.339C147.767 123.339 148.191 123.516 148.504 123.87C148.816 124.222 148.973 124.687 148.973 125.265V125.675H146.023C146.036 126.178 146.163 126.559 146.402 126.82C146.645 127.08 146.984 127.21 147.422 127.21C147.883 127.21 148.339 127.114 148.789 126.921V127.499C148.56 127.598 148.342 127.669 148.137 127.71C147.934 127.755 147.688 127.777 147.398 127.777ZM147.223 123.882C146.879 123.882 146.604 123.994 146.398 124.218C146.195 124.442 146.076 124.752 146.039 125.148H148.277C148.277 124.739 148.186 124.426 148.004 124.21C147.822 123.992 147.561 123.882 147.223 123.882ZM153.273 127.699H152.617V123.972H151.332C151.262 124.899 151.164 125.635 151.039 126.179C150.914 126.723 150.751 127.122 150.551 127.374C150.353 127.627 150.1 127.753 149.793 127.753C149.652 127.753 149.54 127.738 149.457 127.706V127.226C149.514 127.242 149.579 127.249 149.652 127.249C149.952 127.249 150.19 126.933 150.367 126.3C150.544 125.667 150.678 124.706 150.77 123.417H153.273V127.699ZM156.461 127.777C155.828 127.777 155.328 127.584 154.961 127.199C154.596 126.813 154.414 126.278 154.414 125.593C154.414 124.903 154.583 124.355 154.922 123.949C155.263 123.542 155.72 123.339 156.293 123.339C156.829 123.339 157.254 123.516 157.566 123.87C157.879 124.222 158.035 124.687 158.035 125.265V125.675H155.086C155.099 126.178 155.225 126.559 155.465 126.82C155.707 127.08 156.047 127.21 156.484 127.21C156.945 127.21 157.401 127.114 157.852 126.921V127.499C157.622 127.598 157.405 127.669 157.199 127.71C156.996 127.755 156.75 127.777 156.461 127.777ZM156.285 123.882C155.941 123.882 155.667 123.994 155.461 124.218C155.258 124.442 155.138 124.752 155.102 125.148H157.34C157.34 124.739 157.249 124.426 157.066 124.21C156.884 123.992 156.624 123.882 156.285 123.882ZM159.793 123.417V125.21H162.191V123.417H162.84V127.699H162.191V125.769H159.793V127.699H159.145V123.417H159.793ZM167.91 125.554C167.91 126.252 167.734 126.798 167.383 127.191C167.031 127.581 166.546 127.777 165.926 127.777C165.543 127.777 165.203 127.687 164.906 127.507C164.609 127.327 164.38 127.07 164.219 126.734C164.057 126.398 163.977 126.005 163.977 125.554C163.977 124.856 164.151 124.313 164.5 123.925C164.849 123.534 165.333 123.339 165.953 123.339C166.552 123.339 167.027 123.538 167.379 123.937C167.733 124.335 167.91 124.874 167.91 125.554ZM164.648 125.554C164.648 126.101 164.758 126.518 164.977 126.804C165.195 127.09 165.517 127.234 165.941 127.234C166.366 127.234 166.688 127.092 166.906 126.808C167.128 126.521 167.238 126.103 167.238 125.554C167.238 125.01 167.128 124.597 166.906 124.316C166.688 124.032 166.363 123.89 165.934 123.89C165.509 123.89 165.189 124.029 164.973 124.308C164.757 124.587 164.648 125.002 164.648 125.554Z" fill="#ABABAB"/>
<line y1="29.1659" x2="199.123" y2="29.1659" stroke="#F2F2F2" stroke-width="0.778124"/>
</svg>
