<svg width="210" height="144" viewBox="0 0 210 144" fill="none" xmlns="http://www.w3.org/2000/svg">
<path d="M0 20.4356C0 9.14931 9.14931 0 20.4356 0H189.564C200.851 0 210 9.14931 210 20.4356V144H0V20.4356Z" fill="#2F2F2F"/>
<path d="M7.0332 22C7.0332 13.7157 13.7489 7 22.0332 7H187.966C196.25 7 202.966 13.7157 202.966 22V144H7.0332V22Z" fill="white"/>
<path d="M73.7344 6.56934H137.201V13.0716C137.201 15.1236 135.538 16.7871 133.485 16.7871H77.4499C75.3979 16.7871 73.7344 15.1236 73.7344 13.0716V6.56934Z" fill="#2F2F2F"/>
<path d="M73.7378 10.5733C73.7378 7.0064 71.3526 6.85778 69.6934 6.85778L69.6946 5H76.5378V10.5733H73.7378Z" fill="#2F2F2F"/>
<path d="M137.198 10.5733C137.198 7.0064 139.583 6.85778 141.242 6.85778L141.241 5H134.398V10.5733H137.198Z" fill="#2F2F2F"/>
<rect x="21.0996" y="86" width="134.641" height="36" rx="4.64444" fill="#9FD356"/>
<rect x="31.7285" y="97" width="113.867" height="2.78667" rx="1.39333" fill="#F2F2F2"/>
<rect x="32.1523" y="108.102" width="82.3923" height="3" rx="1.5" fill="white"/>
<path d="M161.313 94.8369C160.811 93.3371 154.28 91.837 154.279 94.3374C153.944 97.0041 152.376 102.626 153.274 100.837C154.782 97.8369 157.796 94.8369 161.313 94.8369Z" fill="#9FD356"/>
<rect x="55.2617" y="38" width="134.641" height="36" rx="4.64444" fill="#F2F2F2"/>
<rect x="66.3145" y="50" width="96.4593" height="3" rx="1.5" fill="#979797"/>
<rect x="66.3145" y="59" width="76.3636" height="3" rx="1.5" fill="#979797"/>
<ellipse cx="81.1987" cy="11.0052" rx="1.86667" ry="1.85778" fill="white"/>
<rect x="87.7324" y="10.0762" width="34.5333" height="1.85778" rx="0.928889" fill="white"/>
<path d="M49.2342 45.8369C49.7362 44.3371 56.2673 42.8369 56.2676 45.3373C56.6026 48.004 58.1714 53.6255 57.2725 51.8368C55.765 48.8368 52.751 45.8368 49.2342 45.8369Z" fill="#F2F2F2"/>
<ellipse cx="33.6594" cy="50.5" rx="12.5598" ry="12.5" fill="#F2F2F2"/>
<ellipse cx="33.6593" cy="45.5" rx="3.51675" ry="3.5" fill="#C4C4C4"/>
<path d="M33.66 50C30.053 50 27.1289 52.6863 27.1289 56H40.1911C40.1911 52.6863 37.267 50 33.66 50Z" fill="#C4C4C4"/>
<ellipse cx="177.345" cy="98.5" rx="12.5598" ry="12.5" fill="#F2F2F2"/>
<ellipse cx="177.345" cy="93.5" rx="3.51675" ry="3.5" fill="#C4C4C4"/>
<path d="M177.346 98C173.739 98 170.814 100.686 170.814 104H183.877C183.877 100.686 180.953 98 177.346 98Z" fill="#C4C4C4"/>
</svg>
