<svg width="210" height="144" viewBox="0 0 210 144" fill="none" xmlns="http://www.w3.org/2000/svg">
<path d="M209.999 140.244C209.999 142.318 208.318 144 206.243 144L3.75618 144C1.68172 144 3.22489e-05 142.318 4.50858e-05 140.244L0.000802817 17.7929L210 17.7929L209.999 140.244Z" fill="#F2F2F2"/>
<path d="M209.5 7.27469L209.499 18.2944L0.50003 18.2945L0.500762 7.27471L209.5 7.27469Z" fill="white" stroke="white"/>
<path d="M0.0136719 3.75612C0.0136719 1.68167 1.69535 0 3.76979 0H206.239C208.313 0 209.995 1.68167 209.995 3.75612V7.95775H0.0136719V3.75612Z" fill="#2F2F2F"/>
<ellipse cx="4.31101" cy="3.97912" rx="1.43332" ry="1.32629" fill="#F2F2F2"/>
<ellipse cx="9.33127" cy="3.97912" rx="1.43332" ry="1.32629" fill="#F2F2F2"/>
<ellipse cx="14.3435" cy="3.97912" rx="1.43332" ry="1.32629" fill="#F2F2F2"/>
<path d="M6.24377 14.9746V13.3375C6.24377 13.1313 6.19641 12.9773 6.1017 12.8757C6.00699 12.7741 5.85872 12.7233 5.65688 12.7233C5.38827 12.7233 5.19187 12.7957 5.06766 12.9404C4.945 13.0851 4.88367 13.3221 4.88367 13.6515V14.9746H4.49707V11.3818H4.88367V12.4694C4.88367 12.6002 4.87746 12.7087 4.86504 12.7949H4.88833C4.96441 12.6733 5.07232 12.5779 5.21205 12.5086C5.35334 12.4378 5.51404 12.4024 5.69414 12.4024C6.00622 12.4024 6.23989 12.4763 6.39515 12.6241C6.55196 12.7703 6.63037 13.0035 6.63037 13.3237V14.9746H6.24377Z" fill="#5E5E5E"/>
<path d="M8.25131 14.7044C8.31962 14.7044 8.38561 14.6998 8.44926 14.6906C8.51292 14.6798 8.56338 14.669 8.60064 14.6582V14.9515C8.55872 14.9715 8.49662 14.9877 8.41433 15C8.33359 15.0138 8.26062 15.0207 8.19541 15.0207C7.70168 15.0207 7.45481 14.7629 7.45481 14.2472V12.7418H7.08917V12.5571L7.45481 12.3978L7.61784 11.8575H7.84141V12.444H8.58201V12.7418H7.84141V14.2311C7.84141 14.3835 7.8779 14.5005 7.95087 14.582C8.02385 14.6636 8.12399 14.7044 8.25131 14.7044Z" fill="#5E5E5E"/>
<path d="M9.93745 14.7044C10.0058 14.7044 10.0718 14.6998 10.1354 14.6906C10.1991 14.6798 10.2495 14.669 10.2868 14.6582V14.9515C10.2449 14.9715 10.1828 14.9877 10.1005 15C10.0197 15.0138 9.94677 15.0207 9.88156 15.0207C9.38782 15.0207 9.14096 14.7629 9.14096 14.2472V12.7418H8.77531V12.5571L9.14096 12.3978L9.30398 11.8575H9.52756V12.444H10.2682V12.7418H9.52756V14.2311C9.52756 14.3835 9.56405 14.5005 9.63702 14.582C9.70999 14.6636 9.81014 14.7044 9.93745 14.7044Z" fill="#5E5E5E"/>
<path d="M11.9869 15.0207C11.8208 15.0207 11.6686 14.9907 11.5304 14.9307C11.3938 14.8691 11.2789 14.7752 11.1858 14.649H11.1578C11.1764 14.7968 11.1858 14.9369 11.1858 15.0692V16.1106H10.7992V12.444H11.1136L11.1671 12.7903H11.1858C11.2851 12.6518 11.4008 12.5517 11.5328 12.4901C11.6647 12.4286 11.8161 12.3978 11.9869 12.3978C12.3254 12.3978 12.5862 12.5125 12.7694 12.7418C12.9542 12.9712 13.0466 13.2929 13.0466 13.707C13.0466 14.1226 12.9526 14.4458 12.7648 14.6767C12.5785 14.9061 12.3192 15.0207 11.9869 15.0207ZM11.931 12.7233C11.6702 12.7233 11.4815 12.7949 11.3651 12.9381C11.2486 13.0812 11.1889 13.309 11.1858 13.6215V13.707C11.1858 14.0625 11.2455 14.3173 11.3651 14.4712C11.4846 14.6236 11.6764 14.6998 11.9403 14.6998C12.1608 14.6998 12.3331 14.6113 12.4574 14.4343C12.5831 14.2573 12.646 14.0133 12.646 13.7023C12.646 13.3868 12.5831 13.1451 12.4574 12.9773C12.3331 12.808 12.1577 12.7233 11.931 12.7233Z" fill="#5E5E5E"/>
<path d="M15.3708 14.2842C15.3708 14.5197 15.2823 14.7013 15.1053 14.8291C14.9283 14.9569 14.6799 15.0207 14.3601 15.0207C14.0216 15.0207 13.7577 14.9676 13.5683 14.8614V14.5059C13.6909 14.5674 13.8221 14.6159 13.9618 14.6513C14.1031 14.6867 14.239 14.7044 14.3694 14.7044C14.5712 14.7044 14.7265 14.6729 14.8352 14.6098C14.9439 14.5451 14.9982 14.4474 14.9982 14.3165C14.9982 14.218 14.9547 14.1341 14.8678 14.0648C14.7824 13.994 14.6147 13.9109 14.3647 13.8155C14.1272 13.7277 13.958 13.6515 13.857 13.5869C13.7577 13.5207 13.6831 13.446 13.6335 13.3629C13.5853 13.2798 13.5613 13.1805 13.5613 13.0651C13.5613 12.8588 13.6459 12.6964 13.8151 12.5779C13.9844 12.4578 14.2165 12.3978 14.5115 12.3978C14.7863 12.3978 15.0549 12.4532 15.3173 12.564L15.1799 12.8757C14.9237 12.7711 14.6916 12.7187 14.4835 12.7187C14.3003 12.7187 14.1621 12.7472 14.069 12.8042C13.9758 12.8611 13.9292 12.9396 13.9292 13.0397C13.9292 13.1074 13.9463 13.1651 13.9805 13.2128C14.0162 13.2606 14.0729 13.306 14.1505 13.3491C14.2281 13.3922 14.3772 13.4545 14.5976 13.5361C14.9004 13.6454 15.1046 13.7554 15.2101 13.8663C15.3173 13.9771 15.3708 14.1164 15.3708 14.2842Z" fill="#5E5E5E"/>
<path d="M15.9461 14.7298C15.9461 14.6267 15.9694 14.549 16.016 14.4966C16.0641 14.4427 16.1324 14.4158 16.2209 14.4158C16.311 14.4158 16.3808 14.4427 16.4305 14.4966C16.4817 14.549 16.5074 14.6267 16.5074 14.7298C16.5074 14.8299 16.4817 14.9068 16.4305 14.9607C16.3793 15.0146 16.3094 15.0415 16.2209 15.0415C16.1417 15.0415 16.0757 15.0177 16.0229 14.97C15.9717 14.9207 15.9461 14.8406 15.9461 14.7298ZM15.9461 12.691C15.9461 12.4832 16.0377 12.3793 16.2209 12.3793C16.4119 12.3793 16.5074 12.4832 16.5074 12.691C16.5074 12.7911 16.4817 12.868 16.4305 12.9219C16.3793 12.9758 16.3094 13.0027 16.2209 13.0027C16.1417 13.0027 16.0757 12.9789 16.0229 12.9311C15.9717 12.8819 15.9461 12.8018 15.9461 12.691Z" fill="#5E5E5E"/>
<path d="M18.5661 11.5989L17.2969 14.9746H16.9103L18.1795 11.5989H18.5661Z" fill="#5E5E5E"/>
<path d="M20.3175 11.5989L19.0482 14.9746H18.6616L19.9309 11.5989H20.3175Z" fill="#5E5E5E"/>
<g filter="url(#filter0_d)">
<rect x="49" y="39.8291" width="112.144" height="80.5455" rx="5.24561" fill="white"/>
</g>
<path d="M76.6304 61.377H134.057" stroke="#2F2F2F" stroke-width="3"/>
<path d="M69.0452 54.9314H140.557" stroke="#2F2F2F" stroke-width="3"/>
<path d="M150.032 44.8372L156.094 50.847" stroke="#2F2F2F" stroke-width="0.92"/>
<path d="M150.032 50.8469L156.094 44.8371" stroke="#2F2F2F" stroke-width="0.92"/>
<rect x="59.7932" y="71.0078" width="89.4739" height="9.20515" rx="2.5" fill="white" stroke="#E3E5E8"/>
<rect x="59.7932" y="86.0469" width="89.4739" height="9.20515" rx="2.5" fill="white" stroke="#E3E5E8"/>
<rect x="59.2932" y="101.66" width="29.7968" height="10.2052" rx="3" fill="#FF7C16"/>
<defs>
<filter id="filter0_d" x="39" y="32.8291" width="132.144" height="100.546" filterUnits="userSpaceOnUse" color-interpolation-filters="sRGB">
<feFlood flood-opacity="0" result="BackgroundImageFix"/>
<feColorMatrix in="SourceAlpha" type="matrix" values="0 0 0 0 0 0 0 0 0 0 0 0 0 0 0 0 0 0 127 0"/>
<feOffset dy="3"/>
<feGaussianBlur stdDeviation="5"/>
<feColorMatrix type="matrix" values="0 0 0 0 0 0 0 0 0 0 0 0 0 0 0 0 0 0 0.1 0"/>
<feBlend mode="normal" in2="BackgroundImageFix" result="effect1_dropShadow"/>
<feBlend mode="normal" in="SourceGraphic" in2="effect1_dropShadow" result="shape"/>
</filter>
</defs>
</svg>
