<svg width="210" height="144" viewBox="0 0 210 144" fill="none" xmlns="http://www.w3.org/2000/svg">
<rect width="210" height="143" fill="white"/>
<rect width="38.6192" height="42.8105" rx="2.5158" fill="#F5F5F5"/>
<path d="M5.43018 31.7832H33.7911M5.43018 36.9723H22.3261" stroke="#E3E5E8"/>
<ellipse cx="9.65503" cy="10.3776" rx="4.8274" ry="5.18915" fill="#EAEBED"/>
<rect y="50.5942" width="38.6192" height="42.8105" rx="2.5158" fill="#F5F5F5"/>
<path d="M5.43018 82.3784H33.7911M5.43018 87.5676H22.3261" stroke="#E3E5E8"/>
<ellipse cx="9.65503" cy="60.9728" rx="4.8274" ry="5.18915" fill="#EAEBED"/>
<rect y="101.188" width="38.6192" height="42.8105" rx="2.5158" fill="#F5F5F5"/>
<path d="M5.43018 132.972H33.7911M5.43018 138.161H22.3261" stroke="#E3E5E8"/>
<ellipse cx="9.65503" cy="111.568" rx="4.8274" ry="5.18915" fill="#EAEBED"/>
<rect x="45.855" width="38.6192" height="42.8105" rx="2.5158" fill="#F5F5F5"/>
<ellipse cx="55.5115" cy="10.3776" rx="4.8274" ry="5.18915" fill="#EAEBED"/>
<rect x="45.855" y="50.5938" width="38.6192" height="42.8105" rx="2.5158" fill="#F5F5F5"/>
<ellipse cx="55.5115" cy="60.9724" rx="4.8274" ry="5.18915" fill="#F5F5F5"/>
<rect x="45.855" y="101.189" width="38.6192" height="42.8105" rx="2.5158" fill="#F5F5F5"/>
<path d="M51.2869 132.973H79.6478M51.2869 138.162H68.1828" stroke="#E3E5E8"/>
<ellipse cx="55.5115" cy="111.567" rx="4.8274" ry="5.18915" fill="#F5F5F5"/>
<rect x="91.7251" width="38.6192" height="42.8105" rx="2.5158" fill="#F5F5F5"/>
<ellipse cx="101.381" cy="10.3776" rx="4.8274" ry="5.18915" fill="#EAEBED"/>
<g filter="url(#filter0_d)">
<rect x="91.7251" y="50.5938" width="38.6192" height="42.8105" rx="2.5158" fill="white"/>
<rect x="92.2251" y="51.0938" width="37.6192" height="41.8105" rx="2.0158" stroke="#E3E5E8"/>
</g>
<path d="M97.1558 82.3779H125.517M97.1558 87.5671H114.052" stroke="#E3E5E8" stroke-width="1.2579"/>
<ellipse cx="101.381" cy="60.9724" rx="4.8274" ry="5.18915" fill="#E3E5E8"/>
<rect x="91.7251" y="101.188" width="38.6192" height="42.8105" rx="2.5158" fill="#F5F5F5"/>
<path d="M97.1558 132.972H125.517M97.1558 138.161H114.052" stroke="#E3E5E8"/>
<ellipse cx="101.381" cy="111.566" rx="4.8274" ry="5.18915" fill="#F5F5F5"/>
<rect x="137.576" width="38.6192" height="42.8105" rx="2.5158" fill="#F5F5F5"/>
<ellipse cx="147.231" cy="10.3776" rx="4.8274" ry="5.18915" fill="#EAEBED"/>
<g filter="url(#filter1_d)">
<rect x="137.576" y="50.5938" width="38.6192" height="42.8105" rx="2.5158" fill="white"/>
<rect x="138.076" y="51.0938" width="37.6192" height="41.8105" rx="2.0158" stroke="#E3E5E8"/>
</g>
<path d="M143.011 82.3779H171.372M143.011 87.5671H159.907" stroke="#E3E5E8"/>
<ellipse cx="147.231" cy="60.9724" rx="4.8274" ry="5.18915" fill="#E3E5E8"/>
<rect x="137.576" y="101.188" width="38.6192" height="42.8105" rx="2.5158" fill="#F5F5F5"/>
<path d="M143.011 132.972H171.372M143.011 138.161H159.907" stroke="#E3E5E8"/>
<ellipse cx="147.231" cy="111.566" rx="4.8274" ry="5.18915" fill="#F5F5F5"/>
<g filter="url(#filter2_d)">
<rect x="50.4773" y="16.8828" width="148.575" height="108.248" rx="5.45289" fill="white"/>
</g>
<path d="M60.4961 46.9043H170.707" stroke="#DCDCDC" stroke-width="3.27173"/>
<path d="M60.4961 36.457H188.923" stroke="#D0D0D0" stroke-width="3.27173"/>
<path d="M60.4961 58.3013H188.923M60.4961 69.6983H137.006" stroke="#DCDCDC" stroke-width="3.27173"/>
<path d="M60.9536 91.3652H189.381M60.9536 102.762H137.464" stroke="#DCDCDC" stroke-width="3.27173"/>
<path d="M60.9536 114.207H167.147" stroke="#DCDCDC" stroke-width="3.27173"/>
<ellipse cx="54.2541" cy="20.9012" rx="1.30635" ry="1.36217" fill="#969696"/>
<ellipse cx="58.8259" cy="20.9012" rx="1.30635" ry="1.36217" fill="#969696"/>
<ellipse cx="63.4013" cy="20.9012" rx="1.30635" ry="1.36217" fill="#969696"/>
<path d="M50.4773 20.5357C50.4773 18.3136 52.2787 16.5122 54.5008 16.5122H194.919C197.142 16.5122 198.943 18.3136 198.943 20.5357V25.06H50.4773V20.5357Z" fill="#2F2F2F"/>
<defs>
<filter id="filter0_d" x="79.1461" y="38.0147" width="63.7772" height="67.9685" filterUnits="userSpaceOnUse" color-interpolation-filters="sRGB">
<feFlood flood-opacity="0" result="BackgroundImageFix"/>
<feColorMatrix in="SourceAlpha" type="matrix" values="0 0 0 0 0 0 0 0 0 0 0 0 0 0 0 0 0 0 127 0"/>
<feOffset/>
<feGaussianBlur stdDeviation="6.28951"/>
<feColorMatrix type="matrix" values="0 0 0 0 0 0 0 0 0 0 0 0 0 0 0 0 0 0 0.1 0"/>
<feBlend mode="normal" in2="BackgroundImageFix" result="effect1_dropShadow"/>
<feBlend mode="normal" in="SourceGraphic" in2="effect1_dropShadow" result="shape"/>
</filter>
<filter id="filter1_d" x="124.997" y="38.0147" width="63.7772" height="67.9685" filterUnits="userSpaceOnUse" color-interpolation-filters="sRGB">
<feFlood flood-opacity="0" result="BackgroundImageFix"/>
<feColorMatrix in="SourceAlpha" type="matrix" values="0 0 0 0 0 0 0 0 0 0 0 0 0 0 0 0 0 0 127 0"/>
<feOffset/>
<feGaussianBlur stdDeviation="6.28951"/>
<feColorMatrix type="matrix" values="0 0 0 0 0 0 0 0 0 0 0 0 0 0 0 0 0 0 0.1 0"/>
<feBlend mode="normal" in2="BackgroundImageFix" result="effect1_dropShadow"/>
<feBlend mode="normal" in="SourceGraphic" in2="effect1_dropShadow" result="shape"/>
</filter>
<filter id="filter2_d" x="39.5715" y="5.97704" width="170.386" height="130.059" filterUnits="userSpaceOnUse" color-interpolation-filters="sRGB">
<feFlood flood-opacity="0" result="BackgroundImageFix"/>
<feColorMatrix in="SourceAlpha" type="matrix" values="0 0 0 0 0 0 0 0 0 0 0 0 0 0 0 0 0 0 127 0"/>
<feOffset/>
<feGaussianBlur stdDeviation="5.45289"/>
<feColorMatrix type="matrix" values="0 0 0 0 0 0 0 0 0 0 0 0 0 0 0 0 0 0 0.1 0"/>
<feBlend mode="normal" in2="BackgroundImageFix" result="effect1_dropShadow"/>
<feBlend mode="normal" in="SourceGraphic" in2="effect1_dropShadow" result="shape"/>
</filter>
</defs>
</svg>
