<svg width="224" height="166" viewBox="0 0 224 166" fill="none" xmlns="http://www.w3.org/2000/svg">
<path d="M223.042 153.338C223.042 156.099 220.804 158.338 218.042 158.338L4.99997 158.338C2.23854 158.338 -4.59721e-05 156.099 -3.09547e-05 153.338L0.000764556 2.28373L223.043 2.28371L223.042 153.338Z" fill="white"/>
<path d="M0 5C0 2.23858 2.23858 0 5 0H218.043C220.805 0 223.043 2.23858 223.043 5V9.13488H0V5Z" fill="#E9E9E9"/>
<circle cx="4.5674" cy="4.56743" r="1.52248" fill="white"/>
<circle cx="9.89602" cy="4.56743" r="1.52248" fill="white"/>
<circle cx="15.2249" cy="4.56743" r="1.52248" fill="white"/>
<path d="M0 18.9359L223.043 18.9359" stroke="#F2F2F2" stroke-width="0.249911"/>
<rect x="20.5535" y="70.7953" width="30.4496" height="3.8062" rx="0.749733" fill="#EEEEEE"/>
<rect x="19.7922" y="25.8821" width="21.3147" height="2.28372" rx="0.749733" fill="#EEEEEE"/>
<rect x="47.1968" y="25.8821" width="29.6884" height="2.28372" rx="0.749733" fill="#EEEEEE"/>
<rect x="82.2139" y="25.8821" width="17.5085" height="2.28372" rx="0.749733" fill="#EEEEEE"/>
<rect x="105.051" y="25.8821" width="29.6884" height="2.28372" rx="0.749733" fill="#EEEEEE"/>
<rect x="140.829" y="25.8821" width="16.7473" height="2.28372" rx="0.749733" fill="#EEEEEE"/>
<rect x="20.5535" y="77.6465" width="41.8682" height="2.28372" rx="0.749733" fill="#F3F3F3"/>
<rect x="20.5535" y="82.2139" width="18.2698" height="2.28372" rx="0.749733" fill="#F3F3F3"/>
<rect x="67.7502" y="70.7953" width="38.062" height="3.8062" rx="0.749733" fill="#EEEEEE"/>
<rect x="67.7502" y="77.6465" width="42.6294" height="2.28372" rx="0.749733" fill="#F3F3F3"/>
<rect x="67.7502" y="82.2139" width="18.2698" height="2.28372" rx="0.749733" fill="#F3F3F3"/>
<rect x="115.708" y="70.7953" width="27.4046" height="3.8062" rx="0.749733" fill="#EEEEEE"/>
<rect x="115.708" y="77.6465" width="42.6294" height="2.28372" rx="0.749733" fill="#F3F3F3"/>
<rect x="115.708" y="82.2139" width="18.2698" height="2.28372" rx="0.749733" fill="#F3F3F3"/>
<rect x="163.667" y="70.7953" width="38.8232" height="3.8062" rx="0.749733" fill="#EEEEEE"/>
<rect x="163.667" y="77.6465" width="41.8682" height="2.28372" rx="0.749733" fill="#F3F3F3"/>
<rect x="163.667" y="82.2139" width="18.2698" height="2.28372" rx="0.749733" fill="#F3F3F3"/>
<rect x="20.6784" y="35.142" width="41.6183" height="30.9609" fill="white" stroke="#F2F2F2" stroke-width="0.249911"/>
<rect x="67.8752" y="35.142" width="42.3795" height="30.9609" fill="white" stroke="#F2F2F2" stroke-width="0.249911"/>
<rect x="115.072" y="35.142" width="42.3795" height="30.9609" fill="white" stroke="#F2F2F2" stroke-width="0.249911"/>
<path d="M140.568 48.6143L140.547 46.8396L143.113 46.1391C143.113 42.5874 141.382 42.0293 138.424 41.1069H138.167C138.167 41.7089 137.926 42.2862 137.498 42.7119C137.069 43.1375 136.488 43.3766 135.881 43.3766C135.275 43.3766 134.694 43.1375 134.265 42.7119C133.836 42.2862 133.595 41.7089 133.595 41.1069H133.339C130.616 41.8682 128.65 42.585 128.65 46.1391L131.215 46.8396L131.178 48.5746L132.163 50.5244V53.0509L131.222 58.6154H140.524L139.583 53.0112V50.4847L140.568 48.6143Z" fill="#EEEEEE"/>
<rect x="163.791" y="35.142" width="41.6183" height="30.9609" fill="white" stroke="#F2F2F2" stroke-width="0.249911"/>
<path fill-rule="evenodd" clip-rule="evenodd" d="M39.2267 42.6294C39.5565 43.5648 40.4455 44.2365 41.4876 44.2365C42.5298 44.2365 43.4187 43.5648 43.7486 42.6294H44.678C45.5647 42.6294 46.6819 43.2303 47.1741 43.9724L49.4807 47.4506L46.763 49.6201L46.7235 49.5738C46.5728 49.397 46.2835 49.5036 46.2835 49.736V56.2931C46.2835 56.7349 45.9192 57.093 45.4822 57.093H37.4931C37.0506 57.093 36.6918 56.7268 36.6918 56.2931V49.7477C36.6918 49.5332 36.4164 49.4453 36.2922 49.6201L33.4946 47.4506L35.8012 43.9724C36.2931 43.2307 37.4128 42.6294 38.2973 42.6294H39.2267ZM43.2331 47.4506C42.7923 47.4506 42.4338 47.811 42.4338 48.2541C42.4338 48.6972 42.7923 49.0577 43.2331 49.0577C43.6738 49.0577 44.0324 48.6972 44.0324 48.2541C44.0324 47.811 43.6738 47.4506 43.2331 47.4506Z" fill="#EEEEEE"/>
<path d="M92.9702 55.3976C92.9702 55.3976 92.1293 57.5771 90.3406 56.9938C88.5518 56.4106 88.7811 53.0647 88.8729 52.3126C88.9646 51.5606 89.1939 50.1179 89.2092 49.3044C89.2092 49.3044 89.1786 48.9514 89.3162 48.8133L89.3009 48.3682C89.3009 48.3682 89.0105 46.7566 89.4385 44.8841C89.4385 44.8841 89.8055 43.3954 91.0591 43.3954C91.0591 43.3954 91.9153 43.2265 92.588 44.9148C93.2607 46.6031 93.0008 48.2147 92.9702 48.4142L93.0314 48.8133C93.0314 48.8133 93.2148 48.9514 93.1842 49.1816C93.169 49.3965 93.2913 49.9644 93.383 50.4402C93.4747 50.916 94.0863 52.681 92.9702 55.3976ZM92.3128 46.7106C92.0223 43.7944 91.0744 43.9172 91.0744 43.9172C89.7443 43.9172 89.836 46.7413 89.836 46.7413C89.8055 47.5087 89.9431 48.2147 89.9431 48.2147L90.1418 48.3989C90.4476 47.8156 91.0897 47.8156 91.0897 47.8156C92.007 47.8156 92.0988 48.4449 92.0988 48.4449L92.3281 48.2607C92.3892 47.6468 92.3128 46.7106 92.3128 46.7106ZM86.2738 56.9938C84.485 57.5771 83.6442 55.3976 83.6442 55.3976C82.5281 52.681 83.1244 50.9313 83.2161 50.4555C83.3078 49.9797 83.4301 49.4118 83.4148 49.197C83.3996 48.9821 83.5677 48.8286 83.5677 48.8286L83.6289 48.4296C83.5983 48.23 83.3384 46.6185 84.0111 44.9302C84.6838 43.2419 85.54 43.4107 85.54 43.4107C86.7936 43.4107 87.1605 44.8995 87.1605 44.8995C87.5733 46.7566 87.2981 48.3682 87.2981 48.3682L87.2829 48.8133C87.4357 48.9667 87.3899 49.3044 87.3899 49.3044C87.4052 50.1179 87.6192 51.5606 87.7262 52.3126C87.8332 53.0647 88.0626 56.4106 86.2738 56.9938ZM85.5247 43.9019C85.5247 43.9019 84.5768 43.7944 84.2863 46.6952C84.2863 46.6952 84.2251 47.6315 84.271 48.23L84.5003 48.4142C84.5003 48.4142 84.5921 47.7849 85.5094 47.7849C85.5094 47.7849 86.1515 47.7849 86.4573 48.3682L86.656 48.184C86.656 48.184 86.7936 47.478 86.763 46.7106C86.763 46.7259 86.8548 43.9019 85.5247 43.9019Z" fill="#EEEEEE"/>
<path fill-rule="evenodd" clip-rule="evenodd" d="M180.156 41.7701C179.897 41.7701 179.752 41.9865 179.747 42.1675H179.753C179.759 42.6326 179.741 43.1082 179.759 43.5699L178.089 56.7421C178.062 56.9383 178.208 57.146 178.402 57.1906L180.922 57.747C181.122 57.7929 181.349 57.6594 181.405 57.4631L184.085 48.1631L186.765 57.4631C186.82 57.6568 187.038 57.7894 187.236 57.747L189.763 57.1906C189.959 57.1487 190.101 56.94 190.075 56.7421L188.406 43.5017V42.1675C188.406 41.9572 188.214 41.7701 188.002 41.7701H180.156H180.156ZM180.519 43.9503H181.144V45.6536L180.241 46.1759L180.519 43.9503ZM184.488 43.9503H184.829V45.2675C184.824 45.5299 184.725 45.8108 184.488 45.9375V43.9503ZM187.009 43.9503H187.645L187.929 46.1816L187.009 45.6536V43.9503Z" fill="#EEEEEE"/>
<rect x="20.5535" y="130.172" width="30.4496" height="3.8062" rx="0.749733" fill="#EEEEEE"/>
<rect x="20.5535" y="137.023" width="41.8682" height="2.28372" rx="0.749733" fill="#F3F3F3"/>
<rect x="20.5535" y="141.591" width="18.2698" height="2.28372" rx="0.749733" fill="#F3F3F3"/>
<rect x="67.7502" y="130.172" width="38.062" height="3.8062" rx="0.749733" fill="#EEEEEE"/>
<rect x="67.7502" y="137.023" width="42.6294" height="2.28372" rx="0.749733" fill="#F3F3F3"/>
<rect x="67.7502" y="141.591" width="18.2698" height="2.28372" rx="0.749733" fill="#F3F3F3"/>
<rect x="115.708" y="130.172" width="27.4046" height="3.8062" rx="0.749733" fill="#EEEEEE"/>
<rect x="115.708" y="137.023" width="42.6294" height="2.28372" rx="0.749733" fill="#F3F3F3"/>
<rect x="115.708" y="141.591" width="18.2698" height="2.28372" rx="0.749733" fill="#F3F3F3"/>
<rect x="163.667" y="130.172" width="38.8232" height="3.8062" rx="0.749733" fill="#EEEEEE"/>
<rect x="163.667" y="137.023" width="41.8682" height="2.28372" rx="0.749733" fill="#F3F3F3"/>
<rect x="163.667" y="141.591" width="18.2698" height="2.28372" rx="0.749733" fill="#F3F3F3"/>
<rect x="20.6784" y="94.5187" width="41.6183" height="30.9609" fill="white" stroke="#F2F2F2" stroke-width="0.249911"/>
<rect x="115.833" y="94.5187" width="42.3795" height="30.9609" fill="white" stroke="#F2F2F2" stroke-width="0.249911"/>
<rect x="67.8752" y="94.5187" width="42.3795" height="30.9609" fill="white" stroke="#F2F2F2" stroke-width="0.249911"/>
<path d="M93.5055 107.991L93.4854 106.216L95.9162 105.516C95.9162 101.964 94.2764 101.406 91.4735 100.484H91.2307C91.2307 101.086 91.0025 101.663 90.5964 102.089C90.1902 102.514 89.6394 102.753 89.065 102.753C88.4907 102.753 87.9398 102.514 87.5337 102.089C87.1276 101.663 86.8994 101.086 86.8994 100.484H86.6565C84.0765 101.245 82.2139 101.962 82.2139 105.516L84.6446 106.216L84.609 107.951L85.5425 109.901V112.428L84.6513 117.992H93.4631L92.5719 112.388V109.861L93.5055 107.991Z" fill="#EEEEEE"/>
<rect x="163.791" y="94.5187" width="41.6183" height="30.9609" fill="white" stroke="#F2F2F2" stroke-width="0.249911"/>
<path fill-rule="evenodd" clip-rule="evenodd" d="M182.34 102.006C182.67 102.942 183.559 103.613 184.601 103.613C185.643 103.613 186.532 102.942 186.862 102.006H187.791C188.678 102.006 189.795 102.607 190.287 103.349L192.594 106.827L189.876 108.997L189.837 108.951C189.686 108.774 189.396 108.88 189.396 109.113V115.67C189.396 116.112 189.032 116.47 188.595 116.47H180.606C180.164 116.47 179.805 116.104 179.805 115.67V109.124C179.805 108.91 179.529 108.822 179.405 108.997L176.608 106.827L178.914 103.349C179.406 102.607 180.526 102.006 181.41 102.006H182.34ZM186.346 106.827C185.905 106.827 185.547 107.188 185.547 107.631C185.547 108.074 185.905 108.434 186.346 108.434C186.787 108.434 187.145 108.074 187.145 107.631C187.145 107.188 186.787 106.827 186.346 106.827Z" fill="#EEEEEE"/>
<path d="M46.4874 114.774C46.4874 114.774 45.5864 116.954 43.6699 116.371C41.7534 115.787 41.9991 112.441 42.0974 111.689C42.1956 110.937 42.4414 109.495 42.4577 108.681C42.4577 108.681 42.425 108.328 42.5724 108.19L42.556 107.745C42.556 107.745 42.2448 106.133 42.7034 104.261C42.7034 104.261 43.0966 102.772 44.4398 102.772C44.4398 102.772 45.3571 102.603 46.0779 104.292C46.7986 105.98 46.5201 107.591 46.4874 107.791L46.5529 108.19C46.5529 108.19 46.7495 108.328 46.7167 108.558C46.7003 108.773 46.8314 109.341 46.9296 109.817C47.0279 110.293 47.6832 112.058 46.4874 114.774ZM45.783 106.087C45.4718 103.171 44.4562 103.294 44.4562 103.294C43.0311 103.294 43.1293 106.118 43.1293 106.118C43.0966 106.885 43.244 107.591 43.244 107.591L43.457 107.776C43.7846 107.192 44.4726 107.192 44.4726 107.192C45.4554 107.192 45.5537 107.822 45.5537 107.822L45.7994 107.637C45.8649 107.024 45.783 106.087 45.783 106.087ZM39.3127 116.371C37.3961 116.954 36.4952 114.774 36.4952 114.774C35.2994 112.058 35.9382 110.308 36.0365 109.832C36.1348 109.356 36.2659 108.789 36.2495 108.574C36.2331 108.359 36.4133 108.205 36.4133 108.205L36.4788 107.806C36.446 107.607 36.1676 105.995 36.8883 104.307C37.6091 102.619 38.5264 102.787 38.5264 102.787C39.8696 102.787 40.2627 104.276 40.2627 104.276C40.705 106.133 40.4102 107.745 40.4102 107.745L40.3938 108.19C40.5576 108.343 40.5084 108.681 40.5084 108.681C40.5248 109.495 40.7541 110.937 40.8688 111.689C40.9835 112.441 41.2292 115.787 39.3127 116.371ZM38.51 103.279C38.51 103.279 37.4944 103.171 37.1832 106.072C37.1832 106.072 37.1176 107.008 37.1668 107.607L37.4125 107.791C37.4125 107.791 37.5108 107.162 38.4936 107.162C38.4936 107.162 39.1816 107.162 39.5092 107.745L39.7222 107.561C39.7222 107.561 39.8696 106.855 39.8368 106.087C39.8368 106.103 39.9351 103.279 38.51 103.279Z" fill="#EEEEEE"/>
<path fill-rule="evenodd" clip-rule="evenodd" d="M132.971 101.331C132.713 101.331 132.567 101.548 132.562 101.729H132.568C132.574 102.194 132.556 102.669 132.574 103.131L130.904 116.303C130.878 116.499 131.023 116.707 131.217 116.752L133.737 117.308C133.937 117.354 134.165 117.22 134.22 117.024L136.9 107.724L139.58 117.024C139.635 117.218 139.853 117.35 140.051 117.308L142.578 116.752C142.774 116.71 142.916 116.501 142.89 116.303L141.221 103.063V101.729C141.221 101.518 141.029 101.331 140.818 101.331H132.971H132.971ZM133.334 103.511H133.959V105.215L133.056 105.737L133.334 103.511ZM137.303 103.511H137.644V104.829C137.639 105.091 137.541 105.372 137.303 105.499V103.511ZM139.824 103.511H140.46L140.744 105.743L139.824 105.215V103.511Z" fill="#EEEEEE"/>
<g filter="url(#filter0_d)">
<path d="M186.23 141.346C196.815 141.346 205.396 132.764 205.396 122.179C205.396 111.593 196.815 103.012 186.23 103.012C175.644 103.012 167.063 111.593 167.063 122.179C167.063 132.764 175.644 141.346 186.23 141.346Z" fill="#FF8246"/>
<path d="M194.975 116.189V126.012C194.975 127.45 193.777 128.767 192.219 128.767H182.636L179.042 132.601C178.443 133.2 177.485 132.84 177.485 132.002V116.189C177.485 114.752 178.683 113.434 180.24 113.434H192.339C193.777 113.554 194.975 114.752 194.975 116.189Z" fill="white"/>
<path d="M181.318 118.465H191.141" stroke="#FF8246" stroke-width="1.79688" stroke-miterlimit="10" stroke-linecap="round" stroke-linejoin="round"/>
<path d="M182.516 121.7H190.063" stroke="#FF8246" stroke-width="1.79688" stroke-miterlimit="10" stroke-linecap="round" stroke-linejoin="round"/>
<path d="M184.672 124.934H187.907" stroke="#FF8246" stroke-width="1.79688" stroke-miterlimit="10" stroke-linecap="round" stroke-linejoin="round"/>
<path d="M163.948 122.179L158.322 128.316V136.627C158.322 139.184 156.149 141.358 153.464 141.358H92.8586C90.1736 141.358 88 139.184 88 136.627V107.731C88 105.174 90.1736 103 92.8586 103H153.336C156.021 103 158.195 105.174 158.195 107.731V116.042L163.948 122.179Z" fill="#FF8246"/>
<path d="M101.177 114.992H140.589" stroke="black" stroke-width="2.39584" stroke-miterlimit="10" stroke-linecap="round" stroke-linejoin="round"/>
<path d="M101.177 124.575H123.938" stroke="black" stroke-width="2.39584" stroke-miterlimit="10" stroke-linecap="round" stroke-linejoin="round"/>
<path d="M198.808 116.668C202.38 116.668 205.277 113.772 205.277 110.199C205.277 106.627 202.38 103.731 198.808 103.731C195.235 103.731 192.339 106.627 192.339 110.199C192.339 113.772 195.235 116.668 198.808 116.668Z" fill="#ADE06B"/>
<path d="M198.808 107.564V112.356" stroke="white" stroke-width="1.19792" stroke-miterlimit="10" stroke-linecap="round" stroke-linejoin="round"/>
</g>
<defs>
<filter id="filter0_d" x="70.0312" y="91.0208" width="153.334" height="74.2953" filterUnits="userSpaceOnUse" color-interpolation-filters="sRGB">
<feFlood flood-opacity="0" result="BackgroundImageFix"/>
<feColorMatrix in="SourceAlpha" type="matrix" values="0 0 0 0 0 0 0 0 0 0 0 0 0 0 0 0 0 0 127 0"/>
<feOffset dy="5.9896"/>
<feGaussianBlur stdDeviation="8.9844"/>
<feColorMatrix type="matrix" values="0 0 0 0 0 0 0 0 0 0 0 0 0 0 0 0 0 0 0.1 0"/>
<feBlend mode="normal" in2="BackgroundImageFix" result="effect1_dropShadow"/>
<feBlend mode="normal" in="SourceGraphic" in2="effect1_dropShadow" result="shape"/>
</filter>
</defs>
</svg>
