<svg width="65" height="60" viewBox="0 0 65 60" fill="none" xmlns="http://www.w3.org/2000/svg">
<path d="M11 11C13.7614 11 16 8.76142 16 6C16 3.23858 13.7614 1 11 1C8.23858 1 6 3.23858 6 6C6 8.76142 8.23858 11 11 11Z" stroke="#4B45FF" stroke-width="2"/>
<path d="M11 46C13.7614 46 16 43.7614 16 41C16 38.2386 13.7614 36 11 36C8.23858 36 6 38.2386 6 41C6 43.7614 8.23858 46 11 46Z" stroke="#4B45FF" stroke-width="2"/>
<path d="M1.16325 23.1898C2.01448 18.5311 6.09591 15 11 15C15.9041 15 19.9855 18.5311 20.8368 23.1898C20.8741 23.3939 20.8139 23.5756 20.6722 23.7256C20.5222 23.8842 20.2817 24 20 24H2C1.71834 24 1.47782 23.8842 1.32782 23.7256C1.18608 23.5756 1.12595 23.3939 1.16325 23.1898Z" stroke="#4B45FF" stroke-width="2"/>
<path d="M1.16325 58.1898C2.01448 53.5311 6.09591 50 11 50C15.9041 50 19.9855 53.5311 20.8368 58.1898C20.8741 58.3939 20.8139 58.5756 20.6722 58.7256C20.5222 58.8842 20.2817 59 20 59H2C1.71834 59 1.47782 58.8842 1.32782 58.7256C1.18608 58.5756 1.12595 58.3939 1.16325 58.1898Z" stroke="#4B45FF" stroke-width="2"/>
<path d="M32 10H46" stroke="#FF6600" stroke-width="2"/>
<path d="M32 45H46" stroke="#FF6600" stroke-width="2"/>
<path d="M32 15H42" stroke="#FF6600" stroke-width="2"/>
<path d="M32 50H42" stroke="#FF6600" stroke-width="2"/>
<path d="M51 11L54.9998 15L63.5299 7" stroke="#FF6600" stroke-width="2"/>
<path d="M51 45L54.9998 49L63.5299 41" stroke="#FF6600" stroke-width="2"/>
</svg>
