<svg width="512" height="512" viewBox="0 0 512 512" fill="none" xmlns="http://www.w3.org/2000/svg">
<path d="M387.408 310.249V206.796C387.396 206.794 387.427 206.788 387.427 206.788C387.427 190.383 396.304 188.012 401.006 187.684C410.737 187.004 425.193 188.795 445.491 193.447C453.693 195.327 462.221 192.086 467.096 185.237C471.97 178.388 472.227 169.282 467.751 162.167C466.388 160.001 464.945 157.984 463.432 156.107C465.999 153.697 467.966 150.626 469.052 147.118C471.55 139.052 468.91 130.279 462.37 124.927C458.263 121.565 453.976 118.931 449.634 116.899L449.642 116.708C449.998 107.405 444.107 99.003 435.231 96.1518C421.566 91.763 408.69 92.2401 397.803 94.8369C391.733 80.0016 382.066 70.2585 372.891 65.9637C366.217 62.8397 358.386 63.4762 352.307 67.637C347.684 70.8002 344.6 75.641 343.611 81.0063C334.107 76.6026 324.888 75.1981 317.558 75.9166C310.395 76.6185 304.106 80.9678 300.929 87.4152C297.753 93.8627 298.141 101.492 301.956 107.584C304.646 111.881 308.427 119.583 310.392 127.442C312.53 135.999 306.045 141.023 299.126 141.023L299.122 141.029H290.817C290.648 141.025 290.474 141.023 290.295 141.023L290.296 141.029H169.253C144.11 141.029 124 161.336 124 186.349L124.001 374.985C124.001 384.223 128.276 393.34 136.582 399.008L136.747 399.121L136.915 399.231C149.852 407.698 167.929 404.825 177.033 391.137L200.423 356.444C200.545 356.263 200.643 356.164 200.927 356.03C201.302 355.854 202.166 355.569 203.633 355.569H341.988C366.946 355.569 387.408 335.446 387.408 310.249Z" fill="url(#paint0_linear)"/>
<path fill-rule="evenodd" clip-rule="evenodd" d="M148.316 381.867C146.055 380.324 144.796 377.833 144.796 374.985L144.795 186.349C144.795 172.705 155.691 161.791 169.253 161.791H341.988C355.668 161.791 366.613 172.824 366.613 186.349V310.249C366.613 323.892 355.549 334.807 341.988 334.807H203.634C195.425 334.807 187.811 337.97 183.172 344.851L159.736 379.612C157.238 383.409 152.123 384.358 148.316 381.867Z" fill="#FF8833"/>
<path d="M384.483 170.309C397.936 164.387 420.043 166.314 450.141 173.211C441.499 159.476 427.771 154.306 411.525 152.561C421.807 145.28 440.935 141.699 449.185 140.983C430.286 125.515 404.364 132.627 394.534 137.829C402.919 129.261 418.137 118.478 428.86 115.916C408.345 109.327 389.786 118.662 383.071 124.152C381.799 99.1633 369.868 87.4798 364.061 84.7617C364.641 93.0777 364.638 112.693 359.996 124.63C346.319 100.361 327.357 95.8174 319.586 96.579C325.361 105.802 334.111 125.08 332.147 141.029H341.987C361.495 141.029 378.011 153.229 384.483 170.309Z" fill="#5CD65C"/>
<path d="M318.794 195.837H192.614C186.866 195.837 182.206 200.496 182.206 206.245C182.206 211.993 186.866 216.653 192.614 216.653H318.794C324.542 216.653 329.202 211.993 329.202 206.245C329.202 200.496 324.542 195.837 318.794 195.837Z" fill="#B34A01"/>
<path d="M299.219 237.469H212.189C206.441 237.469 201.781 242.129 201.781 247.877C201.781 253.626 206.441 258.285 212.189 258.285H299.219C304.967 258.285 309.627 253.626 309.627 247.877C309.627 242.129 304.967 237.469 299.219 237.469Z" fill="#B34A01"/>
<path d="M274.785 279.102H236.622C230.874 279.102 226.214 283.762 226.214 289.51C226.214 295.258 230.874 299.918 236.622 299.918H274.785C280.533 299.918 285.193 295.258 285.193 289.51C285.193 283.762 280.533 279.102 274.785 279.102Z" fill="#B34A01"/>
<defs>
<linearGradient id="paint0_linear" x1="382.469" y1="124.714" x2="328.694" y2="206.245" gradientUnits="userSpaceOnUse">
<stop stop-color="#2D862D"/>
<stop offset="1" stop-color="#B34A00"/>
</linearGradient>
</defs>
</svg>
