<?xml version="1.0" standalone="no"?>
<!DOCTYPE svg PUBLIC "-//W3C//DTD SVG 20010904//EN"
 "http://www.w3.org/TR/2001/REC-SVG-20010904/DTD/svg10.dtd">
<svg version="1.0" xmlns="http://www.w3.org/2000/svg"
 width="512.000000pt" height="512.000000pt" viewBox="0 0 512.000000 512.000000"
 preserveAspectRatio="xMidYMid meet">
<metadata>
Created by potrace 1.14, written by Peter Selinger 2001-2017
</metadata>
<g transform="translate(0.000000,512.000000) scale(0.100000,-0.100000)"
fill="#000000" stroke="none">
<path d="M3572 4469 c-44 -13 -118 -88 -127 -128 -3 -17 -8 -31 -10 -31 -1 0
-18 7 -38 15 -92 38 -215 47 -280 20 -51 -21 -104 -77 -117 -123 -19 -70 -12
-114 29 -193 91 -173 99 -251 32 -296 l-34 -23 -696 -1 c-383 0 -703 -2 -711
-4 -8 -2 -24 -6 -35 -9 -160 -38 -287 -166 -331 -331 -11 -40 -14 -248 -13
-1050 0 -980 1 -1001 20 -1053 26 -68 94 -135 162 -161 99 -37 221 -16 298 51
14 13 76 97 137 188 62 91 117 172 122 180 6 8 15 21 20 29 7 13 118 15 762
16 l753 2 62 26 c107 44 174 99 228 187 68 113 68 110 70 760 1 435 5 592 14
614 15 38 54 74 89 83 44 11 197 5 267 -10 11 -3 40 -8 65 -12 25 -4 54 -9 65
-12 144 -32 199 -26 262 30 86 75 95 182 26 289 l-24 36 28 43 c24 36 28 53
28 110 0 59 -4 73 -30 111 -26 36 -81 82 -150 123 -9 6 -19 26 -22 45 -10 68
-50 123 -111 154 -77 40 -270 58 -369 36 -33 -8 -33 -7 -68 59 -42 80 -121
166 -187 205 -53 31 -133 42 -186 25z"/>
</g>
</svg>
