<svg width="285" height="96" viewBox="0 0 285 96" fill="none" xmlns="http://www.w3.org/2000/svg">
<circle cx="48" cy="48" r="48" fill="#ADE06B"/>
<path d="M68.5 44.9019C70.5 46.0566 70.5 48.9434 68.5 50.0981L37.75 67.8516C35.75 69.0063 33.25 67.5629 33.25 65.2535L33.25 29.7465C33.25 27.4371 35.75 25.9937 37.75 27.1484L68.5 44.9019Z" fill="white"/>
<path d="M126.2 44.12H119.8V56H117.4V42H128.6V56H126.2V44.12ZM135.504 56.18C133.997 56.18 132.817 55.7533 131.964 54.9C131.124 54.0467 130.704 52.8533 130.704 51.32V50.68C130.704 49.92 130.811 49.24 131.024 48.64C131.251 48.04 131.571 47.5333 131.984 47.12C132.411 46.6933 132.917 46.3733 133.504 46.16C134.091 45.9333 134.757 45.82 135.504 45.82C137.011 45.82 138.184 46.2467 139.024 47.1C139.877 47.9533 140.304 49.1467 140.304 50.68V51.32C140.304 52.08 140.191 52.76 139.964 53.36C139.751 53.96 139.431 54.4733 139.004 54.9C138.591 55.3133 138.084 55.6333 137.484 55.86C136.897 56.0733 136.237 56.18 135.504 56.18ZM135.504 54.02C136.264 54.02 136.844 53.8 137.244 53.36C137.657 52.92 137.864 52.24 137.864 51.32V50.68C137.864 49.7733 137.651 49.1 137.224 48.66C136.811 48.2067 136.237 47.98 135.504 47.98C134.744 47.98 134.157 48.2 133.744 48.64C133.344 49.08 133.144 49.76 133.144 50.68V51.32C133.144 52.2267 133.351 52.9067 133.764 53.36C134.191 53.8 134.771 54.02 135.504 54.02ZM146.4 56.18C145.68 56.18 145.027 56.0733 144.44 55.86C143.867 55.6333 143.373 55.3133 142.96 54.9C142.56 54.4733 142.247 53.96 142.02 53.36C141.807 52.76 141.7 52.08 141.7 51.32V50.68C141.7 49.9333 141.807 49.26 142.02 48.66C142.247 48.06 142.567 47.5533 142.98 47.14C143.393 46.7133 143.887 46.3867 144.46 46.16C145.047 45.9333 145.693 45.82 146.4 45.82C147.667 45.82 148.647 46.1333 149.34 46.76C150.047 47.3867 150.5 48.2 150.7 49.2H148.22C148.113 48.84 147.893 48.5467 147.56 48.32C147.227 48.0933 146.807 47.98 146.3 47.98C146.007 47.98 145.727 48.0333 145.46 48.14C145.207 48.2333 144.98 48.3933 144.78 48.62C144.58 48.8333 144.42 49.1133 144.3 49.46C144.193 49.7933 144.14 50.2 144.14 50.68V51.32C144.14 51.7867 144.2 52.1933 144.32 52.54C144.44 52.8733 144.6 53.1533 144.8 53.38C145 53.5933 145.227 53.7533 145.48 53.86C145.747 53.9667 146.02 54.02 146.3 54.02C146.873 54.02 147.307 53.8933 147.6 53.64C147.907 53.3867 148.113 53.0733 148.22 52.7H150.7C150.5 53.7533 150.047 54.6 149.34 55.24C148.647 55.8667 147.667 56.18 146.4 56.18ZM155.498 50.8L154.718 48.88V56H152.398V46H155.718L157.938 51.22L160.198 46H163.398V56H161.078V48.88L160.298 50.8L159.058 53.7H156.738L155.498 50.8ZM170.191 56.18C168.685 56.18 167.505 55.7533 166.651 54.9C165.811 54.0467 165.391 52.8533 165.391 51.32V50.68C165.391 49.92 165.498 49.24 165.711 48.64C165.938 48.04 166.258 47.5333 166.671 47.12C167.098 46.6933 167.605 46.3733 168.191 46.16C168.778 45.9333 169.445 45.82 170.191 45.82C171.698 45.82 172.871 46.2467 173.711 47.1C174.565 47.9533 174.991 49.1467 174.991 50.68V51.32C174.991 52.08 174.878 52.76 174.651 53.36C174.438 53.96 174.118 54.4733 173.691 54.9C173.278 55.3133 172.771 55.6333 172.171 55.86C171.585 56.0733 170.925 56.18 170.191 56.18ZM170.191 54.02C170.951 54.02 171.531 53.8 171.931 53.36C172.345 52.92 172.551 52.24 172.551 51.32V50.68C172.551 49.7733 172.338 49.1 171.911 48.66C171.498 48.2067 170.925 47.98 170.191 47.98C169.431 47.98 168.845 48.2 168.431 48.64C168.031 49.08 167.831 49.76 167.831 50.68V51.32C167.831 52.2267 168.038 52.9067 168.451 53.36C168.878 53.8 169.458 54.02 170.191 54.02ZM175.597 46H183.997V48.04H180.957V56H178.637V48.04H175.597V46ZM190.841 56.18C189.587 56.18 188.614 55.7867 187.921 55V60H185.601V46H187.421L187.641 47.36C187.987 46.84 188.427 46.4533 188.961 46.2C189.507 45.9467 190.134 45.82 190.841 45.82C191.414 45.82 191.941 45.9267 192.421 46.14C192.914 46.34 193.334 46.6467 193.681 47.06C194.027 47.46 194.301 47.9667 194.501 48.58C194.701 49.18 194.801 49.88 194.801 50.68V51.32C194.801 52.12 194.701 52.82 194.501 53.42C194.301 54.02 194.021 54.5267 193.661 54.94C193.314 55.3533 192.901 55.6667 192.421 55.88C191.941 56.08 191.414 56.18 190.841 56.18ZM190.141 54.02C190.847 54.02 191.394 53.8067 191.781 53.38C192.167 52.9533 192.361 52.2667 192.361 51.32V50.68C192.361 49.76 192.161 49.08 191.761 48.64C191.361 48.2 190.821 47.98 190.141 47.98C189.501 47.98 188.974 48.2 188.561 48.64C188.161 49.08 187.947 49.72 187.921 50.56V51.32C187.921 52.2 188.127 52.8733 188.541 53.34C188.967 53.7933 189.501 54.02 190.141 54.02ZM200.892 56.18C200.172 56.18 199.526 56.0733 198.952 55.86C198.379 55.6333 197.886 55.3133 197.472 54.9C197.059 54.4733 196.739 53.96 196.512 53.36C196.299 52.76 196.192 52.08 196.192 51.32V50.68C196.192 49.92 196.299 49.24 196.512 48.64C196.739 48.04 197.059 47.5333 197.472 47.12C197.886 46.6933 198.379 46.3733 198.952 46.16C199.526 45.9333 200.172 45.82 200.892 45.82C202.346 45.82 203.492 46.2667 204.332 47.16C205.172 48.0533 205.592 49.3333 205.592 51V51.78H198.512C198.579 52.62 198.812 53.2267 199.212 53.6C199.612 53.96 200.172 54.14 200.892 54.14C201.599 54.14 202.112 54.02 202.432 53.78C202.766 53.5267 202.986 53.2333 203.092 52.9H205.492C205.386 53.3667 205.219 53.8 204.992 54.2C204.766 54.6 204.466 54.9467 204.092 55.24C203.719 55.5333 203.266 55.7667 202.732 55.94C202.199 56.1 201.586 56.18 200.892 56.18ZM200.892 47.86C200.212 47.86 199.679 48.0267 199.292 48.36C198.906 48.6933 198.659 49.22 198.552 49.94H203.232C203.139 49.1933 202.892 48.66 202.492 48.34C202.106 48.02 201.572 47.86 200.892 47.86ZM206.202 46H214.602V48.04H211.562V56H209.242V48.04H206.202V46ZM216.206 46H218.526V49H220.206C221.74 49 222.853 49.3133 223.546 49.94C224.253 50.5667 224.606 51.42 224.606 52.5C224.606 53.58 224.253 54.4333 223.546 55.06C222.853 55.6867 221.74 56 220.206 56H216.206V46ZM218.526 50.9V54.1H220.306C220.946 54.1 221.413 53.96 221.706 53.68C222.013 53.4 222.166 53.0067 222.166 52.5C222.166 51.9933 222.013 51.6 221.706 51.32C221.413 51.04 220.946 50.9 220.306 50.9H218.526ZM231.206 46H235.106C235.853 46 236.486 46.0667 237.006 46.2C237.526 46.3333 237.946 46.5267 238.266 46.78C238.6 47.02 238.84 47.3133 238.986 47.66C239.133 48.0067 239.206 48.3933 239.206 48.82C239.206 49.22 239.106 49.5933 238.906 49.94C238.706 50.2867 238.393 50.58 237.966 50.82C238.54 51.0467 238.953 51.36 239.206 51.76C239.473 52.16 239.606 52.6 239.606 53.08C239.606 53.5333 239.533 53.94 239.386 54.3C239.24 54.66 239 54.9667 238.666 55.22C238.346 55.4733 237.926 55.6667 237.406 55.8C236.886 55.9333 236.253 56 235.506 56H231.206V46ZM233.446 51.8V54.16H235.506C236.12 54.16 236.546 54.06 236.786 53.86C237.04 53.6467 237.166 53.3533 237.166 52.98C237.166 52.6067 237.04 52.32 236.786 52.12C236.546 51.9067 236.12 51.8 235.506 51.8H233.446ZM233.446 47.84V50H235.106C235.746 50 236.18 49.9067 236.406 49.72C236.646 49.5333 236.766 49.2667 236.766 48.92C236.766 48.5733 236.646 48.3067 236.406 48.12C236.18 47.9333 235.746 47.84 235.106 47.84H233.446ZM248.277 48.94L247.377 50.8L244.517 56H241.597V46H243.917V53.06L244.817 51.2L247.677 46H250.597V56H248.277V48.94ZM260.458 56H254.238V58.6H251.998V54H253.058C253.205 53.76 253.338 53.4933 253.458 53.2C253.592 52.8933 253.698 52.5467 253.778 52.16C253.872 51.76 253.945 51.3067 253.998 50.8C254.052 50.28 254.078 49.68 254.078 49V46H261.498V54H262.698V58.6H260.458V56ZM256.318 49C256.318 49.7067 256.292 50.3267 256.238 50.86C256.198 51.38 256.138 51.84 256.058 52.24C255.978 52.6267 255.885 52.9667 255.778 53.26C255.685 53.54 255.585 53.7867 255.478 54H259.178V48.04H256.318V49ZM268.295 56.18C267.575 56.18 266.928 56.0733 266.355 55.86C265.781 55.6333 265.288 55.3133 264.875 54.9C264.461 54.4733 264.141 53.96 263.915 53.36C263.701 52.76 263.595 52.08 263.595 51.32V50.68C263.595 49.92 263.701 49.24 263.915 48.64C264.141 48.04 264.461 47.5333 264.875 47.12C265.288 46.6933 265.781 46.3733 266.355 46.16C266.928 45.9333 267.575 45.82 268.295 45.82C269.748 45.82 270.895 46.2667 271.735 47.16C272.575 48.0533 272.995 49.3333 272.995 51V51.78H265.915C265.981 52.62 266.215 53.2267 266.615 53.6C267.015 53.96 267.575 54.14 268.295 54.14C269.001 54.14 269.515 54.02 269.835 53.78C270.168 53.5267 270.388 53.2333 270.495 52.9H272.895C272.788 53.3667 272.621 53.8 272.395 54.2C272.168 54.6 271.868 54.9467 271.495 55.24C271.121 55.5333 270.668 55.7667 270.135 55.94C269.601 56.1 268.988 56.18 268.295 56.18ZM268.295 47.86C267.615 47.86 267.081 48.0267 266.695 48.36C266.308 48.6933 266.061 49.22 265.955 49.94H270.635C270.541 49.1933 270.295 48.66 269.895 48.34C269.508 48.02 268.975 47.86 268.295 47.86ZM279.195 56.18C277.689 56.18 276.509 55.7533 275.655 54.9C274.815 54.0467 274.395 52.8533 274.395 51.32V50.68C274.395 49.92 274.502 49.24 274.715 48.64C274.942 48.04 275.262 47.5333 275.675 47.12C276.102 46.6933 276.609 46.3733 277.195 46.16C277.782 45.9333 278.449 45.82 279.195 45.82C280.702 45.82 281.875 46.2467 282.715 47.1C283.569 47.9533 283.995 49.1467 283.995 50.68V51.32C283.995 52.08 283.882 52.76 283.655 53.36C283.442 53.96 283.122 54.4733 282.695 54.9C282.282 55.3133 281.775 55.6333 281.175 55.86C280.589 56.0733 279.929 56.18 279.195 56.18ZM279.195 54.02C279.955 54.02 280.535 53.8 280.935 53.36C281.349 52.92 281.555 52.24 281.555 51.32V50.68C281.555 49.7733 281.342 49.1 280.915 48.66C280.502 48.2067 279.929 47.98 279.195 47.98C278.435 47.98 277.849 48.2 277.435 48.64C277.035 49.08 276.835 49.76 276.835 50.68V51.32C276.835 52.2267 277.042 52.9067 277.455 53.36C277.882 53.8 278.462 54.02 279.195 54.02Z" fill="black"/>
</svg>
