<?xml version="1.0" encoding="UTF-8"?> <svg xmlns="http://www.w3.org/2000/svg" width="3281" height="982" viewBox="0 0 3281 982" fill="none"> <path d="M-4.00834e-05 450.5C-6.22208e-05 197.278 734.477 -7.99978 1640.5 -7.99986C2546.52 -7.99994 3281 197.277 3281 450.5C3281 703.723 2546.52 909 1640.5 909C734.477 909 -1.79459e-05 703.723 -4.00834e-05 450.5Z" fill="url(#paint0_linear)"></path> <path d="M1073.79 228.898C1073.79 228.898 1070.96 237.512 1059.89 238.296C1048.81 239.079 1046.4 231.727 1048.79 229.78C1052.94 226.408 1062 234.555 1052.3 246.862C1042.78 258.924 1031.58 251.058 1032.69 247.874C1034.73 242.037 1048.13 247.916 1037.84 264.263C1035.43 267.894 1031.77 270.515 1027.55 271.628" stroke="#FF8246" stroke-width="3" stroke-linecap="round" stroke-linejoin="round"></path> <path d="M2383.57 693.617C2383.57 693.617 2374.65 695.225 2368.7 685.857C2362.74 676.489 2368.06 670.874 2370.91 672.049C2375.85 674.094 2372.99 685.939 2357.55 683.257C2342.42 680.621 2344.01 667.021 2347.34 666.486C2353.44 665.509 2354.64 680.091 2335.37 678.81C2331.03 678.415 2326.98 676.442 2324 673.263" stroke="#FF8246" stroke-width="3" stroke-linecap="round" stroke-linejoin="round"></path> <path d="M1293.06 405.545L1292.08 384.664C1292.04 383.91 1292.82 383.39 1293.51 383.713L1310.55 391.793C1311.22 392.11 1311.32 393.018 1310.75 393.479L1294.68 406.281C1294.04 406.789 1293.1 406.36 1293.06 405.545Z" stroke="#ADE06B" stroke-width="3"></path> <path d="M946.62 693.609L964.251 682.378C964.888 681.973 965.727 682.392 965.786 683.144L967.25 701.95C967.307 702.688 966.572 703.23 965.884 702.958L946.789 695.382C946.03 695.082 945.932 694.048 946.62 693.609Z" stroke="#484848" stroke-width="3"></path> <circle cx="2259" cy="328" r="9.5" stroke="#484848" stroke-width="3"></circle> <circle cx="2279" cy="811" r="9.5" stroke="#ADE06B" stroke-width="3"></circle> <path d="M2077.72 961.279L2088.28 975.857M2075.71 973.847L2090.29 963.289" stroke="#FF8246" stroke-width="3"></path> <path d="M1851.29 390.279L1861.85 404.857M1849.28 402.847L1863.86 392.289" stroke="#FF8246" stroke-width="3"></path> <defs> <linearGradient id="paint0_linear" x1="1640.5" y1="909" x2="1640.5" y2="-7.99992" gradientUnits="userSpaceOnUse"> <stop stop-color="#F3F3FF"></stop> <stop offset="1" stop-color="#F3F3FF" stop-opacity="0"></stop> </linearGradient> </defs> </svg> 