<?xml version="1.0" encoding="utf-8"?>
<!-- Generator: Adobe Illustrator 21.1.0, SVG Export Plug-In . SVG Version: 6.00 Build 0)  -->
<svg version="1.1" id="Слой_1" xmlns="http://www.w3.org/2000/svg" xmlns:xlink="http://www.w3.org/1999/xlink" x="0px" y="0px"
	 viewBox="0 0 1484.9 634" style="enable-background:new 0 0 1484.9 634;" xml:space="preserve">
<style type="text/css">
	.st0{fill:#121621;}
	.st1{display:none;}
	.st2{display:inline;fill:#121621;}
</style>
<path class="st0" d="M690.9,270.1c-17,0-31,5.7-42.1,17c-10.9,11.1-16.7,25.6-16.7,42.5c0,17.6,6.1,31.9,18.1,43
	c12,11.1,27.6,16.5,46.8,16.5c14.9,0,29.6-3.8,42.8-9.7v-22.8c-12.7,7.2-27.6,11.1-42.8,11.1c-18.8,0-36.7-8.1-40.5-29.9h88
	c0.7-2,1.1-7.9,1.1-13.3c0-10.9-2.7-24.4-14-36.9C721.7,276.2,707,270.1,690.9,270.1z M690.3,292.5c14.5,0,29.9,8.8,32.1,26.5h-65.6
	C660.2,300.9,674.9,292.5,690.3,292.5z"/>
<path class="st0" d="M1076.5,271.2c-11.8,0-25.8,5-34.4,13.8v-11.5h-23.5v113.1h23.5v-56.8c0-26.5,16.5-35.5,35.8-35.5
	c1.1,0,2.7,0.2,4.3,0.5v-23.1C1080.1,271.4,1077.6,271.2,1076.5,271.2z"/>
<path class="st0" d="M817.1,328.4l42.1-55.2h-28.5l-41.4,55.6l43.9,57.5H861l-44.4-57.7L817.1,328.4z"/>
<path class="st0" d="M788.4,227.3h-23.5v159h23.5V227.3z"/>
<path class="st0" d="M482.8,308.2v-6.1H409v22.4h49.1v33c-10.9,4.3-22.6,6.6-34.8,6.6c-17,0-31-5.7-42.1-16.5
	c-10.4-10.6-15.8-23.8-15.8-40.5c0-16.5,5.2-29.6,15.8-40.5c10.6-10.6,27.2-16.5,48.2-16.5c16.5,0,32.4,3.8,45.9,11.1v-25.8
	c-14.3-6.3-29.6-9.7-45.9-9.7c-26.7,0.2-51.1,8.6-65.9,23.5c-15.4,15.4-23.8,35.1-23.8,57.9c0,22.8,8.4,42.5,23.8,58.1
	c15.4,15.4,36,23.3,59.5,23.3c21.5,0,41.9-6.1,59.5-16.7v-10.2v-53.4H482.8z"/>
<path class="st0" d="M600.8,286.6c-10.2-10.6-24.4-16.5-40.1-16.5c-17,0-31,5.7-42.1,17c-10.9,11.1-16.7,25.6-16.7,42.5
	c0,17.6,6.1,31.9,18.1,43c3.6,3.2,7.5,6.1,11.8,8.4c10,5.4,21.7,8.1,35.3,8.1c14.9,0,29.6-3.8,42.8-9.7v-22.8
	c-2.9,1.6-5.9,3.2-8.8,4.3c-10.4,4.5-22.2,6.6-33.9,6.6c-18.8,0-36.7-8.1-40.5-29.9h74.2h13.6c0.7-2,1.1-7.9,1.1-13.3
	c0-10.9-2.7-24.4-14-36.9C601.3,287.3,601.1,287.1,600.8,286.6z M592,319h-65.6c3.6-17.9,18.3-26.5,33.5-26.5
	C574.4,292.5,589.8,301.3,592,319z"/>
<path class="st0" d="M1257.7,273.2h-23.5v113.1h23.5V273.2z"/>
<path class="st0" d="M1245.9,223.9c-4.3,0-7.9,1.4-10.6,4.3c-2.9,2.9-4.3,6.6-4.3,10.9c0,4.3,1.4,7.9,4.3,10.9
	c2.9,2.9,6.3,4.3,10.6,4.3c4.3,0,7.9-1.4,10.6-4.3c2.9-2.9,4.3-6.6,4.3-10.9c0-4.3-1.3-7.9-4.3-10.9
	C1253.9,225.3,1250.2,223.9,1245.9,223.9z"/>
<path class="st0" d="M1490.1,354.9c0-7-1.8-12.4-5.2-17c-7-10-20.6-14.9-35.5-18.8c-6.1-1.6-12.9-3.2-17.9-5.9
	c-4.1-2.5-6.1-5-6.1-9.5h-0.5h0.5c0-7.7,9.5-11.3,21-11.3c13.8,0,26.9,3.2,38.5,9.5v-23.5c-12-5.2-25.1-7.9-38.5-7.9
	c-12,0-24.4,2.7-32.6,9c-8.2,6.3-11.5,14.7-11.5,25.3c0,21.9,19,30.3,40.7,35.7c6.1,1.6,12.9,3.2,17.9,5.9c4.1,2.5,6.1,5,6.1,9.5
	c0,7.9-8.4,11.8-22.2,11.8c-14.7,0-28.5-2.5-41-7v21.9c12.9,4.3,26.7,6.8,41,6.8c12.9,0,24.4-3.2,33.3-9.3c2.9-2,5.2-4.5,7-7
	C1488.5,368,1490.1,361.9,1490.1,354.9z"/>
<path class="st0" d="M977.4,303.1c10.4-7.9,15.4-17.6,15.4-31c0-12.4-5-23.5-13.8-31.9c-8.8-8.4-22.2-12.7-34.8-12.7h-67v158.8h72.6
	c13.4,0,26.5-4.3,35.8-12.9c9.1-8.4,13.8-19.7,13.8-32.6C999.3,325,991.4,310.5,977.4,303.1z M901.4,249.2h45.3
	c12.7,0,22.2,10,22.2,22.6c0,12.9-9.7,22.6-22.2,22.6h-45.3V249.2z M950.9,364.8h-49.6V316h49.6c13.1,0,23.5,10.6,23.5,24.4
	C974.5,354,964,364.8,950.9,364.8z"/>
<path class="st0" d="M1334.8,292c10.9,0,17.9,3.8,22.2,9.7c4.3,5.9,5.2,13.3,5.2,19.5v65.2h23.5v-66.1c0-13.8-3.4-25.6-11.3-34.6
	c-0.2-0.2-0.2-0.2-0.4-0.5c-7.9-8.8-18.6-14.9-33-14.9c-13.8,0-25.1,5-33.3,11.5v-8.6h-23.5v113.1h23.5v-65.2
	c0-6.1,1.6-12.9,5.9-18.5c2-2.5,4.1-4.8,6.8-6.3C1324.2,293.6,1329,292,1334.8,292z"/>
<path class="st0" d="M1184.2,284.1c-10-9.3-24-13.8-38-13.8c-16.3,0-30.1,5.7-41.6,17.2c-3.2,3.2-5.9,6.3-8.1,10
	c-0.5,0.7-0.9,1.6-1.4,2.3c-5.2,8.8-7.7,19-7.7,30.1c0,16.5,5.7,30.8,17.2,42.3c11.5,11.5,25.3,17.2,41.6,17.2
	c14.3,0,28.3-4.5,38-14v11.1h23.5V273.2h-23.5V284.1z M1173.6,356.7c-7,7-15.8,10.4-26.3,10.4c-10.4,0-19.2-3.4-26.3-10.4
	c-7-7.2-10.4-16.1-10.4-26.7c0-10.6,3.4-19.5,10.4-26.5c7-7.2,15.8-10.6,26.3-10.6c10.4,0,19.2,3.4,26.3,10.6
	c7,7,10.4,15.8,10.4,26.5C1184,340.6,1180.6,349.5,1173.6,356.7z"/>
<path class="st0" d="M151.8,215.4c-4.4,6-7.4,15.7-7.4,29.5v17.8c0,5.8,2,11.4,5.6,15.9l17.3,21.7c0.8-0.1,1.7-0.2,2.6-0.2
	c9.4,0,17,7.6,17,17s-7.6,17-17,17c-9.4,0-17-7.6-17-17c0-2.2,0.4-4.3,1.2-6.2l-17.3-21.7c-6-7.5-9.3-16.9-9.3-26.5v-17.8
	c0-15.9,3.4-29.6,10.7-39.5c7.5-10.3,18.6-15.7,31.8-15.7c21.3,0,39.5,13.1,47.2,31.6c19.4,5.7,33.5,23.6,33.5,44.8
	c0,4.3-0.1,8.9-1.3,13.4c13.4,7.1,22.6,21.2,22.6,37.5s-9.2,30.4-22.6,37.5c1.3,4.6,1.3,9.1,1.3,13.4c0,21.2-14.1,39.1-33.5,44.8
	c-7.6,18.5-25.9,31.6-47.2,31.6c-5.5,0-10.9-0.9-15.9-2.5l5.3-16.1c3.3,1.1,6.9,1.7,10.6,1.7c15.4,0,28.4-10.2,32.6-24.2l1.5-5
	l5.2-0.9c13.9-2.5,24.5-14.6,24.5-29.3c0-7.4-0.6-10.1-2.6-12.6c-2.8-3.4-6.6-4.7-10.7-4.2c-4.3,0.5-8.8,2.8-11.8,6.7l-10,12.5
	c0.8,1.9,1.2,4,1.2,6.2c0,9.4-7.6,17-17,17s-17-7.6-17-17s7.6-17,17-17c0.9,0,1.7,0.1,2.6,0.2l10-12.5c5.8-7.3,14.4-12,23.3-12.9
	c7.3-0.8,15,1,21.3,6c8.9-4,15.1-12.9,15.1-23.3s-6.2-19.3-15.1-23.3c-6.3,5-13.9,6.8-21.3,6c-8.9-1-17.5-5.7-23.3-12.9l-10-12.5
	c-0.8,0.1-1.7,0.2-2.6,0.2c-9.4,0-17-7.6-17-17c0-9.4,7.6-17,17-17s17,7.6,17,17c0,2.2-0.4,4.3-1.2,6.2l10,12.5
	c3.1,3.8,7.5,6.2,11.8,6.7c4.1,0.4,7.9-0.8,10.7-4.2c2.1-2.5,2.6-5.2,2.6-12.6c0-14.6-10.6-26.8-24.5-29.3l-5.2-0.9l-1.5-5
	c-4.2-14-17.2-24.2-32.6-24.2C161.8,206.6,155.9,209.7,151.8,215.4z"/>
<path class="st0" d="M73.4,370.3c-0.7,1.9-1.2,4-1.2,6.2c0,9.4,7.6,17,17,17s17-7.6,17-17s-7.6-17-17-17c-0.9,0-1.7,0.1-2.6,0.2
	l-10-12.5c-5.8-7.3-14.4-12-23.3-12.9c-7.3-0.8-15,1-21.3,6c-8.9-4-15.1-12.9-15.1-23.3s6.2-19.3,15.1-23.3c6.3,5,13.9,6.8,21.3,6
	c8.9-1,17.5-5.7,23.3-12.9l10-12.5c0.8,0.1,1.7,0.2,2.6,0.2c9.4,0,17-7.6,17-17c0-9.4-7.6-17-17-17s-17,7.6-17,17
	c0,2.2,0.4,4.3,1.2,6.2l-10,12.5c-3.1,3.8-7.5,6.2-11.8,6.7c-4.1,0.4-7.9-0.8-10.7-4.2c-2.1-2.5-2.6-5.2-2.6-12.6
	c0-14.6,10.6-26.8,24.5-29.3l5.2-0.9l1.5-5c4.2-14,17.2-24.2,32.6-24.2c3.7,0,7.3,0.6,10.6,1.7l5.3-16.1c-5-1.7-10.4-2.5-15.9-2.5
	c-21.3,0-39.5,13.1-47.2,31.6c-19.4,5.7-33.5,23.6-33.5,44.8c0,4.3,0.1,8.9,1.3,13.4C9.2,286.6,0,300.7,0,317s9.2,30.4,22.6,37.5
	c-1.3,4.6-1.3,9.1-1.3,13.4c0,21.2,14.2,39.1,33.5,44.8c7.6,18.5,25.9,31.6,47.2,31.6c13.2,0,24.3-5.4,31.8-15.7
	c7.3-9.9,10.7-23.6,10.7-39.5v-17.8c0-9.6-3.3-19-9.3-26.5l-17.3-21.7c0.8-1.9,1.2-4,1.2-6.2c0-9.4-7.6-17-17-17
	c-9.4,0-17,7.6-17,17s7.6,17,17,17c0.9,0,1.7-0.1,2.6-0.2l17.3,21.7c3.6,4.5,5.6,10.1,5.6,15.9v17.8c0,13.8-3,23.5-7.4,29.5
	c-4.2,5.7-10,8.7-18.1,8.7c-15.4,0-28.4-10.2-32.6-24.2l-1.5-5l-5.2-0.9c-13.9-2.5-24.5-14.6-24.5-29.3c0-7.4,0.6-10.1,2.6-12.6
	c2.8-3.4,6.6-4.7,10.7-4.2c4.3,0.5,8.8,2.8,11.8,6.7L73.4,370.3z"/>
<g class="st1">
	<path class="st2" d="M2497.4,226.7h-23.5v159.8h23.5V226.7z"/>
	<path class="st2" d="M2537.2,357.6c-8.8,0-15.9,7.1-15.9,15.9c0,8.8,7.1,15.9,15.9,15.9s15.9-7.1,15.9-15.9
		C2553.1,364.7,2546,357.6,2537.2,357.6z"/>
	<path class="st2" d="M2599.1,330.9c0-19.1,11.4-35.4,33.6-35.4h14v-22.2h-14c-17.4,0-25.3,5.5-33.4,14.7l-0.2,0.2v-14.9h-23.3
		v113.2h23.2C2599.1,386.3,2599.1,338.6,2599.1,330.9z"/>
	<path class="st2" d="M2448.4,273.2h-23.5v113.2h23.5V273.2z"/>
	<path class="st2" d="M2436.6,254.5c8.8,0,15.9-7.1,15.9-15.9s-7.2-15.9-15.9-15.9c-8.8,0-15.9,7.1-15.9,15.9
		S2427.9,254.5,2436.6,254.5z"/>
	<path class="st2" d="M2376.3,284.7c-9-9.2-22.9-14.3-36.7-14.3c-32.9,0-59.6,26.7-59.6,59.5c0,32.8,26.7,59.5,59.6,59.5
		c13.8,0,28.3-5.9,36.7-15.2v12.4h23.1V273.2h-23.1V284.7z M2340.4,365.7c-20.2,0-35.7-15.6-35.7-35.9c0-20.3,15.4-35.7,35.7-35.7
		c20.3,0,36.2,14.5,36.2,35.7C2376.6,351.1,2360.6,365.7,2340.4,365.7z"/>
	<path class="st2" d="M2711.8,389.4c10.5,0,23.9-5.7,32.3-15.3c0.1,4.3,0,8.2,0,12.4h23.1V337v-63.8h-23.2v62.1
		c0,16.1-12.3,31.1-30.8,31.1c-16.1,0-27.6-11.7-27.6-28.4v-64.8h-23.2v66.7C2662.6,369.9,2678.7,389.4,2711.8,389.4z"/>
	<path class="st2" d="M2212.1,270.4c-15.4,0-30.5,7-39.7,18c-8.4-11.1-20.6-18-37.1-18c-13.4,0-23,6-28.1,10.8v-7.9h-23.1v113.2
		h23.1v-66.2c0-14.8,12.1-26.8,26.8-26.8c14.7,0,26.8,12.1,26.8,26.8v66.2h23.1v-66.2c0-14.8,12.1-26.8,26.8-26.8
		s26.8,12.1,26.8,26.8v66.2h23.1v-66.2C2260.8,289.9,2241.1,270.4,2212.1,270.4z"/>
	<path class="st2" d="M2517.5,438.8l-0.2,0.2v-8.8h-6.8h-6.9h-1.2v66.4h1.2h13.6c0-0.1,0-26.6,0-31.1c0-11.2,6.7-20.8,19.7-20.8h8.2
		v-14.5h-8.2C2527,430.1,2522.3,433.4,2517.5,438.8z"/>
	<path class="st2" d="M2676.6,466.5c0,10.7-8.6,17-16.9,17c-8.8,0-15-6.4-15-15.5v-37.9h-14.9v39c0,18.4,10.6,29.1,29,29.1
		c6,0,13.1-3,17.8-7.6c0,1.2,0,2.3,0,3.5v2.5h14.8v-66.4h-14.9L2676.6,466.5z"/>
	<path class="st2" d="M2583.8,428.5c-19.2,0-34.9,15.6-34.9,34.8s15.7,34.8,34.9,34.8c19.2,0,34.9-15.6,34.9-34.8
		S2603.1,428.5,2583.8,428.5z M2583.8,483.4c-11.1,0-20.1-9-20.1-20.1c0-11,9-20.1,20.1-20.1s20.1,9,20.1,20.1
		C2603.9,474.4,2594.9,483.4,2583.8,483.4z"/>
	<path class="st2" d="M2741.3,428.5c-7.6,0-15,2.6-20.3,7.2v-5.5h-14.8v89.3h14.8v-28.8c5,4.7,12.7,7.6,20.3,7.6
		c19.2,0,34.9-15.6,34.9-34.8C2776.1,444.1,2760.5,428.5,2741.3,428.5z M2740.8,483.1c-11.6,0-20-8.3-20-19.8
		c0-11.4,8.4-19.7,20-19.7c11.2,0,19.7,8.5,19.7,19.7C2760.5,474.6,2752,483.1,2740.8,483.1z"/>
	<path class="st2" d="M2473.1,435.6c-5.2-4.5-12.6-7.2-20.3-7.2c-19.2,0-34.9,15.6-34.9,34.8s15.7,34.8,34.9,34.8
		c7.6,0,15.3-3,20.3-7.6v1.3c-0.2,13.6-6.9,20.5-19.8,20.5h-0.2c-7.3,0-13.8-2.8-19.8-8.6l-0.6-0.5l-10.8,10.3l0.5,0.5
		c5.5,6.5,16.7,13.8,30.2,13.8c0.2,0,0.5,0,0.7,0c12.6-0.2,33.8-5.1,34.4-35.5V430h-14.8V435.6z M2453.3,483.1
		c-11.2,0-19.7-8.5-19.7-19.8c0-11.2,8.5-19.7,19.7-19.7c11.6,0,20,8.2,20,19.7C2473.2,474.8,2464.9,483.1,2453.3,483.1z"/>
	<path class="st2" d="M1928.4,327.8c0,20.6-16.7,37.3-37.4,37.3c-20.6,0-37.4-16.7-37.4-37.3c0-20.6,16.8-37.3,37.4-37.3
		C1911.7,290.5,1928.4,307.3,1928.4,327.8z M1891,203.8c-68.5,0-124.3,55.7-124.3,124.1c0,68.4,55.8,124.1,124.3,124.1
		c25.1,0,49.3-7.5,70-21.6l0.4-0.2l-16.7-19.4l-0.3,0.2c-16,10.2-34.3,15.6-53.3,15.6c-54.4,0-98.7-44.3-98.7-98.6
		c0-54.4,44.3-98.6,98.7-98.6c54.4,0,98.7,44.3,98.7,98.6c0,7.1-0.8,14.2-2.3,21.2c-3.1,12.8-12.1,16.7-18.8,16.2
		c-6.8-0.5-14.7-5.4-14.8-17.2v-20.2c0-34.6-28.2-62.8-62.8-62.8c-34.7,0-62.8,28.2-62.8,62.8s28.2,62.8,62.8,62.8
		c16.8,0,32.6-6.6,44.5-18.5c6.9,10.7,18.2,17.5,31.1,18.5c1.1,0.1,2.3,0.2,3.3,0.2c9,0,18-3,25.2-8.5c7.5-5.7,13-13.8,16-23.6
		c0.5-1.6,1.4-5.2,1.4-5.2v-0.2c1.8-7.9,2.6-15.7,2.6-25.4C2015.3,259.5,1959.5,203.8,1891,203.8z"/>
</g>
</svg>
