<svg xmlns="http://www.w3.org/2000/svg" width="135" height="50" viewBox="0 0 135 50">
  <defs>
    <linearGradient id="logo-blue-a" x1="83.205%" x2="-88.569%" y1="100%" y2="-57.762%">
      <stop offset="0%" stop-color="#4994bf"/>
      <stop offset="100%" stop-color="#4994bf"/>
    </linearGradient>
  </defs>
  <path fill="url(#logo-blue-a)" fill-rule="evenodd" d="M115.929852,29.5989364 C115.809555,29.1285109 115.785702,28.701928 115.858292,28.3191775 C115.940248,27.8870489 116.100431,27.5331559 116.338847,27.2574877 C116.577262,26.9818195 116.823125,26.8439875 117.076442,26.8439875 C117.121231,26.8439875 117.173761,26.849709 117.234032,26.8611522 C117.375186,26.334998 117.494015,25.8375507 117.590523,25.3687975 C117.624705,25.1864935 117.667599,25.0232486 117.719205,24.8790623 C117.720947,24.87096 117.722755,24.8628446 117.724631,24.8547161 C117.948146,23.8414493 118.272237,22.7201671 118.696916,21.4908359 C119.121594,20.2615048 119.54254,19.0359173 119.959768,17.8140367 C119.736253,17.471314 119.557444,17.1248714 119.423335,16.7746983 C119.289226,16.4245251 119.222173,16.0557313 119.222173,15.6683058 C119.222173,15.2808802 119.367455,14.8748345 119.658024,14.4501565 C119.948593,14.0254784 120.298761,13.6343335 120.708538,13.2767099 C121.118315,12.9190863 121.542987,12.6247963 121.982566,12.393831 C122.422145,12.1628658 122.798389,12.0473849 123.11131,12.0473849 C123.662646,12.0473849 124.076142,12.2336444 124.35181,12.606169 C124.627479,12.9786936 124.765311,13.477869 124.765311,14.1037103 C124.765311,14.4464329 124.709433,14.7854252 124.597675,15.1206974 C124.485918,15.4559695 124.362987,15.7688854 124.228878,16.0594546 C124.094769,16.3500238 123.971838,16.5996115 123.86008,16.8082253 C123.748323,17.0168391 123.684995,17.1509459 123.670094,17.2105498 C124.206529,18.1642128 124.765308,19.0061057 125.346446,19.7362539 C125.927584,20.4664021 126.460287,21.189089 126.944569,21.9043362 C127.428851,22.6195834 127.827446,23.3795221 128.140367,24.1841752 C128.453287,24.9888283 128.609745,25.9350266 128.609745,27.0227984 C128.609745,27.2910161 128.591119,27.5666802 128.553867,27.8497988 C128.516614,28.1329175 128.460736,28.4011312 128.386232,28.6544479 C128.922667,28.550141 129.395766,28.3862327 129.805543,28.1627179 C130.21532,27.9392032 130.572938,27.6821651 130.878409,27.3915959 C131.183879,27.1010267 131.437192,26.7843856 131.638355,26.4416629 C131.839518,26.0989403 132.007152,25.7413221 132.141261,25.3687975 C132.305171,24.936669 132.46908,24.623753 132.632991,24.4300402 C132.796901,24.2363274 132.983161,24.1394725 133.191775,24.1394725 C133.385487,24.1394725 133.582923,24.2028007 133.784086,24.3294591 C133.985249,24.4561175 134.164058,24.6163006 134.320519,24.8100134 C134.476979,25.0037262 134.603635,25.2048865 134.700492,25.4135002 C134.797348,25.622114 134.845776,25.8083735 134.845776,25.9722843 C134.845776,26.1957991 134.786173,26.4640127 134.666965,26.7769334 C134.547757,27.089854 134.387574,27.4102204 134.18641,27.738042 C133.985247,28.0658637 133.758011,28.3825048 133.504694,28.687975 C133.251377,28.9934451 132.990614,29.2579336 132.722396,29.4814484 C132.007149,30.0625867 131.165256,30.5505866 130.196692,30.9454627 C129.228128,31.3403387 128.028617,31.5899265 126.598122,31.6942333 C126.046786,32.1710648 125.394878,32.5622098 124.642378,32.8676799 C123.889879,33.1731501 123.04426,33.3258829 122.105498,33.3258829 C121.628667,33.3258829 121.140667,33.2662798 120.641484,33.147072 C120.142301,33.0278641 119.665477,32.8751313 119.210997,32.688869 C118.756517,32.5026067 118.343021,32.2977213 117.970496,32.0742065 C117.769706,31.9537325 117.590562,31.8332594 117.433064,31.7127862 C117.080804,32.0593264 116.693715,32.36606 116.271793,32.6329906 C115.541644,33.0949211 114.684851,33.3258829 113.701386,33.3258829 C113.179851,33.3258829 112.706752,33.2439287 112.282074,33.0800179 C111.857396,32.9161071 111.484877,32.6888705 111.164506,32.3983013 C110.844135,32.1077321 110.579646,31.7650146 110.371033,31.3701386 C110.162419,30.9752625 110.020862,30.5468657 109.946357,30.0849352 C109.39502,31.0534991 108.746837,31.8432394 108.001788,32.4541797 C107.256739,33.06512 106.377594,33.3705856 105.364327,33.3705856 C104.604377,33.3705856 103.922667,33.2141276 103.319177,32.901207 C102.715688,32.5882863 102.205337,32.1449887 101.788109,31.5713008 C101.600242,31.3129833 101.432768,31.0304987 101.285687,30.7238451 C100.69197,31.4483049 99.9951978,32.0623293 99.1953509,32.5659365 C98.3906978,33.07257 97.4668507,33.3258829 96.4237819,33.3258829 C95.5446238,33.3258829 94.7697843,33.1806005 94.0992401,32.8900313 C93.4286958,32.5994621 92.8661921,32.1896912 92.4117121,31.6607063 C91.9572321,31.1317214 91.6145146,30.4984391 91.3835494,29.7608404 C91.3793125,29.7473096 91.3751144,29.73375 91.3709552,29.7201616 C90.6657639,30.2513361 89.7982659,30.7044687 88.7684399,31.0795709 C87.6434156,31.4893479 86.3209732,31.6942333 84.8010729,31.6942333 C84.1752316,32.3647776 83.4525447,32.882579 82.6329906,33.2476531 C81.8134365,33.6127272 81.0013451,33.7952615 80.196692,33.7952615 C79.6304546,33.7952615 79.1685311,33.7319333 78.8109075,33.6052749 C78.4532839,33.4786166 78.1776198,33.310983 77.983907,33.1023692 L77.983907,47.9883773 C77.983907,48.4056048 77.9019528,48.7445971 77.738042,49.0053643 C77.5741312,49.2661315 77.3692458,49.471017 77.1233795,49.6200268 C76.8775133,49.7690367 76.6130248,49.8696168 76.3299061,49.9217702 C76.0467874,49.9739237 75.7934745,50 75.5699598,50 C75.1080293,50 74.8174645,49.8807939 74.6982566,49.6423782 C74.5790487,49.4039624 74.5194457,49.1133976 74.5194457,48.770675 L74.5194457,31.3572589 C74.0803041,31.8528634 73.5774013,32.2781047 73.0107287,32.6329906 C72.27313,33.0949211 71.4126111,33.3258829 70.4291462,33.3258829 C69.6244931,33.3258829 68.9241574,33.1545241 68.328118,32.8118015 C67.7320787,32.4690789 67.2627047,32.0146057 66.9199821,31.4483684 C66.4580516,31.9699028 65.9029983,32.4132004 65.2548055,32.7782745 C64.6066128,33.1433486 63.8503992,33.3258829 62.9861422,33.3258829 C62.0920831,33.3258829 61.3060681,33.1470738 60.6280733,32.7894502 C59.9500786,32.4318266 59.3801245,31.9438267 58.918194,31.3254359 C58.824049,31.199403 58.734701,31.0687285 58.6501501,30.9334121 C58.1281166,31.6142097 57.5096773,32.1807305 56.7948145,32.6329906 C56.0646663,33.0949211 55.2078726,33.3258829 54.2244077,33.3258829 C53.6134674,33.3258829 53.0509637,33.2327531 52.5368797,33.0464908 C52.0227958,32.8602285 51.5794982,32.5622133 51.2069736,32.1524363 C50.834449,31.7426593 50.5438842,31.2174075 50.3352705,30.5766652 C50.2460319,30.3025755 50.1758805,30.0039478 50.1248157,29.6807804 C49.4668289,30.1750361 48.7099858,30.5965935 47.8542691,30.9454627 C46.8857052,31.3403387 45.686194,31.5899265 44.2556996,31.6942333 C43.7043632,32.1710648 43.052455,32.5622098 42.2999553,32.8676799 C41.5474556,33.1731501 40.7018375,33.3258829 39.7630755,33.3258829 C39.2862441,33.3258829 38.7982442,33.2662798 38.2990612,33.147072 C37.7998783,33.0278641 37.323054,32.8751313 36.868574,32.688869 C36.414094,32.5026067 36.0005979,32.2977213 35.6280733,32.0742065 C35.499865,31.9972815 35.380482,31.9203569 35.2699241,31.8434325 C34.9529455,32.1369179 34.6104012,32.4001032 34.2422888,32.6329906 C33.5121406,33.0949211 32.6553469,33.3258829 31.671882,33.3258829 C31.0609417,33.3258829 30.5207891,33.210402 30.0514081,32.9794367 C29.5820272,32.7484715 29.1797066,32.4392807 28.8444345,32.0518552 C28.5091624,31.6644296 28.2558495,31.2099564 28.0844882,30.688422 C27.9131268,30.1668876 27.8274475,29.6155595 27.8274475,29.0344211 L27.8274475,19.7362539 C27.8274475,19.3786303 27.8199971,19.0433632 27.8050961,18.7304426 C27.7901951,18.4175219 27.749218,18.1418578 27.6821636,17.9034421 C27.6151092,17.6650264 27.5182542,17.4750417 27.3915959,17.3334823 C27.2649375,17.191923 27.0898536,17.1211444 26.8663388,17.1211444 C26.5385172,17.1211444 26.1361967,17.3446558 25.6593652,17.7916853 C25.1825338,18.2387148 24.7131598,18.8198444 24.2512293,19.5350916 C23.7892988,20.2503388 23.3832531,21.0587051 23.03308,21.9602146 C22.6829069,22.8617241 22.4631207,23.7669452 22.3737148,24.6759052 L22.3737148,31.3589629 C22.3737148,31.5824776 22.3699896,31.8097142 22.3625391,32.0406795 C22.3550886,32.2716447 22.3103863,32.4802554 22.2284309,32.6665177 C22.1464755,32.85278 22.0198191,33.0092379 21.8484578,33.1358963 C21.6770964,33.2625546 21.4275087,33.3258829 21.0996871,33.3258829 C20.8761723,33.3258829 20.634035,33.2998065 20.3732678,33.2476531 C20.1125006,33.1954997 19.8740884,33.0986447 19.6580241,32.9570854 C19.4419599,32.815526 19.2631508,32.6143658 19.1215914,32.3535986 C18.9800321,32.0928314 18.9092535,31.7463887 18.9092535,31.3142602 L18.9092535,16.8082253 C18.9092535,16.3760968 18.8757268,16.0631808 18.8086723,15.869468 C18.7416179,15.6757553 18.7080912,15.4969461 18.7080912,15.3330353 C18.7080912,15.1095206 18.8272973,14.9269863 19.065713,14.7854269 C19.3041287,14.6438676 19.5872432,14.573089 19.9150648,14.573089 C20.675015,14.573089 21.2747706,14.770524 21.7143496,15.1654001 C22.1539286,15.5602762 22.3737148,16.0333753 22.3737148,16.5847117 L22.3737148,18.6410371 C22.6866354,18.0002948 23.0256277,17.4042644 23.3907018,16.852928 C23.7557759,16.3015916 24.1506461,15.8210421 24.5753241,15.4112651 C25.0000021,15.001488 25.4544753,14.6811217 25.9387573,14.4501565 C26.4230392,14.2191912 26.948291,14.1037103 27.5145284,14.1037103 C28.2744785,14.1037103 28.9003105,14.2452675 29.3920429,14.5283862 C29.8837754,14.8115049 30.2711951,15.1765735 30.5543138,15.623603 C30.8374325,16.0706325 31.0348676,16.569808 31.1466249,17.1211444 C31.2583823,17.6724808 31.3142602,18.2089081 31.3142602,18.7304426 L31.3142602,28.2074207 C31.3142602,28.3117275 31.3217105,28.4793611 31.3366115,28.7103263 C31.3515125,28.9412916 31.3962148,29.1759785 31.4707197,29.4143943 C31.5452246,29.65281 31.6607055,29.8614207 31.8171658,30.0402325 C31.9736262,30.2190443 32.2008628,30.3084488 32.4988824,30.3084488 C32.9449529,30.3084488 33.3319627,30.1556025 33.6599226,29.8499056 C33.6525459,29.8276739 33.6455057,29.805436 33.638802,29.7831918 C33.4748911,29.2393059 33.4339141,28.751306 33.5158695,28.3191775 C33.5978249,27.8870489 33.758008,27.5331559 33.9964238,27.2574877 C34.2348395,26.9818195 34.4807021,26.8439875 34.7340188,26.8439875 C34.8402109,26.8439875 34.9899162,26.8761502 35.1831371,26.9404763 C35.294416,26.5299218 35.3922498,26.1366565 35.47664,25.7606745 C35.3392255,25.4793586 35.3077487,25.1773746 35.3822083,24.8547161 C35.6057231,23.8414493 35.9298146,22.7201671 36.3544926,21.4908359 C36.7791707,20.2615048 37.2001171,19.0359173 37.6173447,17.8140367 C37.3938299,17.471314 37.2150208,17.1248714 37.0809119,16.7746983 C36.9468031,16.4245251 36.8797497,16.0557313 36.8797497,15.6683058 C36.8797497,15.2808802 37.0250321,14.8748345 37.3156013,14.4501565 C37.6061704,14.0254784 37.9563383,13.6343335 38.3661153,13.2767099 C38.7758924,12.9190863 39.200564,12.6247963 39.640143,12.393831 C40.0797221,12.1628658 40.4559662,12.0473849 40.7688869,12.0473849 C41.3202233,12.0473849 41.7337194,12.2336444 42.0093876,12.606169 C42.2850558,12.9786936 42.4228878,13.477869 42.4228878,14.1037103 C42.4228878,14.4464329 42.3670099,14.7854252 42.2552526,15.1206974 C42.1434952,15.4559695 42.0205639,15.7688854 41.8864551,16.0594546 C41.7523462,16.3500238 41.629415,16.5996115 41.5176576,16.8082253 C41.4059002,17.0168391 41.342572,17.1509459 41.327671,17.2105498 C41.8641064,18.1642128 42.4228849,19.0061057 43.0040232,19.7362539 C43.5851616,20.4664021 44.1178638,21.189089 44.6021457,21.9043362 C45.0864277,22.6195834 45.485023,23.3795221 45.7979437,24.1841752 C46.1108643,24.9888283 46.2673223,25.9350266 46.2673223,27.0227984 C46.2673223,27.2910161 46.2486964,27.5666802 46.2114439,27.8497988 C46.1741914,28.1329175 46.1183136,28.4011312 46.0438087,28.6544479 C46.5802441,28.550141 47.0533432,28.3862327 47.4631203,28.1627179 C47.8728973,27.9392032 48.2305155,27.6821651 48.5359857,27.3915959 C48.8414559,27.1010267 49.0947688,26.7843856 49.2959321,26.4416629 C49.4970953,26.0989403 49.6647289,25.7413221 49.7988377,25.3687975 C49.8733426,25.1723755 49.947847,25.0005843 50.0223513,24.8534228 L50.0223514,13.7013858 C49.5157179,13.7013858 49.0649699,13.6976606 48.6700939,13.6902101 C48.2752178,13.6827596 47.9436759,13.671584 47.6754582,13.6566831 C47.3625376,13.6417821 47.0868735,13.6268813 46.8484578,13.6119803 C46.4908342,13.6119803 46.174193,13.4517972 45.8985248,13.131426 C45.6228566,12.8110549 45.4291467,12.4571618 45.3173894,12.0697363 C45.205632,11.6823107 45.1907312,11.3284176 45.2726866,11.0080465 C45.354642,10.6876753 45.5595275,10.5274922 45.8873491,10.5274922 C46.2300717,10.5572941 46.6100411,10.5796453 47.0272687,10.5945463 C47.3848923,10.6243482 47.8170143,10.6429742 48.3236477,10.6504247 C48.8302812,10.6578752 49.3965101,10.6690507 50.0223514,10.6839517 L50.0223514,2.92802861 C50.0223514,2.60020697 49.996275,2.33944367 49.9441216,2.14573089 C49.8919681,1.9520181 49.8398155,1.79928532 49.787662,1.68752794 C49.7355086,1.57577056 49.6833559,1.486366 49.6312025,1.41931158 C49.5790491,1.35225715 49.5529727,1.28147854 49.5529727,1.20697363 C49.5529727,1.11756772 49.597675,1.04306392 49.6870809,0.983459991 C49.7764868,0.923856057 49.8956929,0.871703397 50.0447027,0.827000447 C50.1937126,0.782297497 50.3538957,0.748770787 50.525257,0.726419312 C50.6966184,0.704067836 50.8642519,0.692892266 51.0281627,0.692892266 C51.7881129,0.692892266 52.3878685,0.890327336 52.8274475,1.2852034 C53.2670265,1.68007946 53.4868127,2.15317859 53.4868127,2.70451498 L53.4868127,10.7286544 C54.8875051,10.7286544 56.3664056,10.7137537 57.9235583,10.6839517 C59.4807111,10.6541498 61.0415657,10.6019971 62.606169,10.5274922 C62.8147827,10.3039774 62.9824163,10.2220232 63.1090747,10.2816272 C63.235733,10.3412311 63.3176872,10.4827883 63.3549397,10.7063031 C63.3921921,10.9298178 63.3959173,11.2054819 63.3661153,11.5333035 C63.3363134,11.8611252 63.2767103,12.1777663 63.1873044,12.4832365 C63.0978985,12.7887066 62.9749673,13.0531951 62.8185069,13.2767099 C62.6620466,13.5002246 62.4869627,13.6119803 62.2932499,13.6119803 C60.4604289,13.6566833 58.8399713,13.6827596 57.4318283,13.6902101 C56.0236854,13.6976606 54.7086933,13.7013858 53.4868127,13.7013858 L53.4868127,28.2074207 C53.4868127,28.9524698 53.6283699,29.4888972 53.9114886,29.8167188 C54.1946073,30.1445405 54.5745767,30.3084488 55.0514081,30.3084488 C55.5133386,30.3084488 55.911934,30.1445405 56.2472061,29.8167188 C56.5824782,29.4888972 56.873043,29.0791263 57.1189093,28.5873938 C57.2954909,28.2342306 57.4490125,27.8599346 57.5794764,27.4645 C57.5480984,27.1247085 57.5324095,26.7763128 57.5324095,26.4193116 C57.5324095,24.5119857 57.8378751,22.7983983 58.4488154,21.278498 C59.0597557,19.7585977 59.8718471,18.4659568 60.885114,17.4005364 C61.8983809,16.3351161 63.056915,15.5192995 64.360751,14.9530621 C65.6645871,14.3868248 67.016831,14.1037103 68.4175235,14.1037103 C69.0433648,14.1037103 69.5499906,14.2750691 69.9374162,14.6177917 C70.3248418,14.9605143 70.5185516,15.4298882 70.5185516,16.0259276 C70.5185516,16.4133532 70.4775745,16.685292 70.3956191,16.8417523 C70.3136637,16.9982127 70.1609309,17.0764417 69.9374162,17.0764417 C69.7288024,17.0764417 69.5127414,17.0615409 69.2892266,17.0317389 C69.0657119,17.001937 68.8347501,16.9870362 68.5963344,16.9870362 C67.7320773,16.9870362 66.8529325,17.1770209 65.9588735,17.556996 C65.0648145,17.9369711 64.2564483,18.5181007 63.5337506,19.3004023 C62.8110529,20.082704 62.2187477,21.0736045 61.7568172,22.2731337 C61.2948867,23.4726628 61.0639249,24.8994106 61.0639249,26.5534198 C61.0639249,27.7603994 61.2948867,28.6879717 61.7568172,29.3361645 C62.2187477,29.9843573 62.85203,30.3084488 63.6566831,30.3084488 C64.2825244,30.3084488 64.804051,30.0737618 65.2212785,29.6043809 C65.638506,29.1349999 65.9737731,28.5799466 66.2270899,27.9392043 L66.2270899,20.8761734 C66.2270899,20.6526587 66.2159143,20.4663992 66.1935628,20.3173894 C66.1712113,20.1683795 66.1488602,20.0417231 66.1265087,19.9374162 C66.1041572,19.8331093 66.0855313,19.7399795 66.0706303,19.6580241 C66.0557293,19.5760687 66.0482789,19.4978397 66.0482789,19.4233348 C66.0482789,19.1849191 66.1637598,18.9949344 66.3947251,18.8533751 C66.6256903,18.7118157 66.9050796,18.6410371 67.2329012,18.6410371 C67.9928514,18.6410371 68.5963321,18.8384722 69.0433616,19.2333482 C69.4903911,19.6282243 69.7139025,20.1013234 69.7139025,20.6526598 L69.7139025,28.2074207 C69.7139025,28.4607374 69.7437041,28.7103251 69.803308,28.9561913 C69.8629119,29.2020576 69.9523165,29.425569 70.0715244,29.6267322 C70.1907322,29.8278955 70.3509154,29.9918039 70.5520787,30.1184622 C70.753242,30.2451206 70.9879289,30.3084488 71.2561466,30.3084488 C71.7180771,30.3084488 72.1166724,30.1445405 72.4519446,29.8167188 C72.7872167,29.4888972 73.0777815,29.0791263 73.3236477,28.5873938 C73.569514,28.0956614 73.7706742,27.5629592 73.9271346,26.9892713 C74.0835949,26.4155835 74.2139765,25.8754309 74.3182834,25.3687975 C74.372334,25.121709 74.4393879,24.9096325 74.5194457,24.7325663 L74.5194457,16.8082253 C74.5194457,16.4804037 74.4933694,16.2196404 74.4412159,16.0259276 C74.3890625,15.8322148 74.3369098,15.679482 74.2847564,15.5677246 C74.2326029,15.4559673 74.1804503,15.3665627 74.1282968,15.2995083 C74.0761434,15.2324538 74.0500671,15.1542249 74.0500671,15.064819 C74.0500671,14.990314 74.0947693,14.9232606 74.1841752,14.8636567 C74.2735811,14.8040527 74.3927872,14.7519001 74.541797,14.7071971 C74.6908069,14.6624942 74.8509901,14.6289675 75.0223514,14.606616 C75.1937127,14.5842645 75.3613462,14.573089 75.525257,14.573089 C76.2554052,14.573089 76.8402601,14.770524 77.2798391,15.1654001 C77.7194181,15.5602762 77.9541051,16.0184745 77.983907,16.5400089 C78.4607385,15.8396627 79.0344177,15.2585331 79.704962,14.7966026 C80.3755063,14.3346721 81.1950481,14.1037103 82.163612,14.1037103 C83.057671,14.1037103 83.8362357,14.312321 84.4993295,14.7295485 C85.1624232,15.146776 85.7137513,15.7167301 86.1533304,16.4394278 C86.5929094,17.1621255 86.9207261,18.015194 87.1367903,18.9986589 C87.3528546,19.9821238 87.4608851,21.0400778 87.4608851,22.1725525 C87.4608851,23.4540371 87.3491294,24.6796246 87.1256147,25.8493518 C86.9020999,27.019079 86.6189855,28.0211551 86.2762629,28.8556102 C87.036213,28.8109072 87.6620449,28.7066019 88.1537774,28.5426911 C88.6455098,28.3787803 89.0590059,28.1515437 89.3942781,27.8609745 C89.7295502,27.5704053 90.020115,27.2165123 90.2659812,26.7992848 C90.5118475,26.3820572 90.7688856,25.9052329 91.0371033,25.3687975 L91.0371033,6.45954403 C91.0371033,5.61018797 91.1451338,4.82417289 91.361198,4.10147519 C91.5772623,3.37877749 91.8752775,2.76039595 92.2552526,2.24631203 C92.6352276,1.7322281 93.0785253,1.32990758 93.5851587,1.0393384 C94.0917921,0.748769222 94.6282195,0.603486813 95.1944569,0.603486813 C95.8650011,0.603486813 96.43123,0.726418082 96.8931605,0.972284309 C97.355091,1.21815054 97.7350603,1.54224207 98.03308,1.94456862 C98.3310997,2.34689517 98.5657867,2.80881873 98.737148,3.33035315 C98.9085093,3.85188757 99.0314405,4.38458974 99.1059455,4.92847564 C99.1804504,5.47236153 99.2251527,6.00878889 99.2400536,6.5377738 C99.2549546,7.06675872 99.262405,7.54730823 99.262405,7.97943675 C99.262405,9.09701051 99.1580997,10.2704454 98.9494859,11.4997765 C98.7408722,12.7291076 98.4763837,13.9397944 98.1560125,15.131873 C97.8356414,16.3239517 97.4854735,17.467585 97.1054984,18.5628073 C96.7255234,19.6580296 96.3604547,20.6303042 96.0102816,21.4796603 C95.6601085,22.3290163 95.3471926,23.0219017 95.0715244,23.5583371 C94.7958562,24.0947725 94.6058715,24.4076884 94.5015646,24.4970943 L94.5015646,27.1569066 C94.5015646,28.0807675 94.6952745,28.8369811 95.0827,29.42557 C95.4701256,30.0141588 96.0885072,30.3084488 96.9378632,30.3084488 C97.4593976,30.3084488 97.9473975,30.1482656 98.4018775,29.8278945 C98.8563575,29.5075234 99.258678,29.1052028 99.6088511,28.6209209 C99.9590243,28.1366389 100.253314,27.6076619 100.49173,27.0339741 C100.499741,27.0146984 100.507676,26.9954606 100.515535,26.9762607 C100.514566,26.910236 100.514081,26.8437936 100.514081,26.7769334 C100.514081,25.5699537 100.599761,24.3555418 100.771122,23.1336612 C100.942483,21.9117805 101.132468,20.8091243 101.341082,19.8256594 C101.579498,18.6782836 101.855162,17.568177 102.168082,16.4953062 C102.242587,16.3015934 102.298465,16.1041584 102.335717,15.9029951 C102.37297,15.7018318 102.458649,15.5192975 102.592758,15.3553867 C102.726867,15.1914759 102.939203,15.057369 103.229772,14.9530621 C103.520341,14.8487553 103.971089,14.7966026 104.58203,14.7966026 C105.148267,14.7966026 105.513335,14.8971827 105.677246,15.098346 C105.841157,15.2995093 105.904485,15.5341962 105.867233,15.8024139 C105.82998,16.0706316 105.740576,16.3462957 105.599017,16.6294144 C105.457457,16.9125331 105.364327,17.1434949 105.319624,17.3223067 C105.111011,18.1716627 104.924751,18.9465022 104.76084,19.6468485 C104.59693,20.3471947 104.459098,21.0512556 104.34734,21.7590523 C104.235583,22.466849 104.149903,23.2044366 104.0903,23.9718373 C104.030696,24.7392379 104.000894,25.5997568 104.000894,26.5534198 C104.000894,27.8051024 104.183428,28.7513006 104.548502,29.3920429 C104.913577,30.0327852 105.431378,30.3531515 106.101922,30.3531515 C106.563853,30.3531515 106.99225,30.1817928 107.387126,29.8390702 C107.782002,29.4963476 108.13962,29.0381492 108.459991,28.4644613 C108.780362,27.8907735 109.059751,27.23514 109.298167,26.4975414 C109.536583,25.7599427 109.722842,24.9888283 109.856951,24.1841752 L109.856951,16.8082253 C109.856951,16.4804037 109.830875,16.2196404 109.778722,16.0259276 C109.726568,15.8322148 109.674415,15.679482 109.622262,15.5677246 C109.570109,15.4559673 109.517956,15.3665627 109.465802,15.2995083 C109.413649,15.2324538 109.387573,15.1542249 109.387573,15.064819 C109.387573,14.990314 109.432275,14.9232606 109.521681,14.8636567 C109.611087,14.8040527 109.730293,14.7519001 109.879303,14.7071971 C110.028312,14.6624942 110.188496,14.6289675 110.359857,14.606616 C110.531218,14.5842645 110.698852,14.573089 110.862763,14.573089 C111.622713,14.573089 112.222468,14.770524 112.662047,15.1654001 C113.101626,15.5602762 113.321413,16.0333753 113.321413,16.5847117 L113.321413,28.2074207 C113.321413,28.3117275 113.328863,28.4793611 113.343764,28.7103263 C113.358665,28.9412916 113.403367,29.1759785 113.477872,29.4143943 C113.552377,29.65281 113.671583,29.8614207 113.835494,30.0402325 C113.999405,30.2190443 114.230367,30.3084488 114.528386,30.3084488 C114.990317,30.3084488 115.388912,30.1445405 115.724184,29.8167188 C115.794719,29.7477518 115.863274,29.6751577 115.929852,29.5989364 Z M120.295038,25.990961 L120.295038,25.9946357 C120.295038,26.0393386 120.280137,26.106392 120.250335,26.1957979 C120.099011,26.747049 119.914368,27.317895 119.696401,27.908345 C119.875471,27.9914634 120.060115,28.0762542 120.250335,28.1627179 C120.742068,28.3862327 121.233793,28.5985685 121.725525,28.7997318 C122.217258,29.0008951 122.697807,29.1648034 123.167188,29.2914618 C123.636569,29.4181201 124.064966,29.4814484 124.452392,29.4814484 C124.705708,29.1834287 124.93667,28.7885586 125.145284,28.2968261 C125.353898,27.8050937 125.458203,27.2686663 125.458203,26.6875279 C125.458203,25.9722807 125.361348,25.3091969 125.167635,24.6982566 C124.973922,24.0873163 124.72061,23.5210874 124.407689,22.999553 C124.094768,22.4780186 123.740875,21.9900187 123.345999,21.5355387 C122.951123,21.0810587 122.552528,20.6526618 122.150201,20.2503353 C121.792578,21.1294933 121.479662,21.9974626 121.211444,22.8542691 C120.943226,23.7110757 120.660112,24.6833502 120.362092,25.771122 C120.342545,25.8493097 120.320194,25.9225893 120.295038,25.990961 Z M38.1523343,25.2909908 C38.2278012,25.4882873 38.2655342,25.6855818 38.2655342,25.8828789 L38.2655342,25.9946357 C38.2655342,26.0393386 38.2506334,26.106392 38.2208315,26.1957979 C38.0699016,26.7879075 37.8760064,27.4026244 37.6391421,28.0399599 C37.7274601,28.0804976 37.8170501,28.1214169 37.9079124,28.1627179 C38.3996448,28.3862327 38.8913699,28.5985685 39.3831024,28.7997318 C39.8748348,29.0008951 40.3553843,29.1648034 40.8247653,29.2914618 C41.2941463,29.4181201 41.7225431,29.4814484 42.1099687,29.4814484 C42.3632854,29.1834287 42.5942472,28.7885586 42.802861,28.2968261 C43.0114747,27.8050937 43.1157801,27.2686663 43.1157801,26.6875279 C43.1157801,25.9722807 43.0189251,25.3091969 42.8252123,24.6982566 C42.6314996,24.0873163 42.3781866,23.5210874 42.065266,22.999553 C41.7523453,22.4780186 41.3984523,21.9900187 41.0035762,21.5355387 C40.6087002,21.0810587 40.2101048,20.6526618 39.8077783,20.2503353 C39.4501547,21.1294933 39.1372387,21.9974626 38.869021,22.8542691 C38.6409027,23.5829805 38.4020089,24.395215 38.1523343,25.2909908 Z M14.6848458,32.2753688 C14.6848458,32.6627944 14.5581893,32.9347332 14.3048726,33.0911936 C14.0515559,33.2476539 13.7535407,33.3258829 13.4108181,33.3258829 C13.1426004,33.3258829 12.8743867,33.288631 12.606169,33.2141261 C12.3379513,33.1396211 12.0958139,33.0427662 11.8797497,32.9235583 C11.6636854,32.8043505 11.4848763,32.6665184 11.3433169,32.5100581 C11.2017576,32.3535978 11.130979,32.1859642 11.130979,32.0071524 L11.130979,3.57621815 C10.1028111,3.710327 9.13053654,4.00089182 8.21412606,4.44792132 C7.29771558,4.89495083 6.50052492,5.50588198 5.82253017,6.28073312 C5.14453543,7.05558426 4.60810807,7.99433214 4.21323201,9.09700492 C3.81835595,10.1996777 3.62092088,11.4736927 3.62092088,12.9190881 C3.62092088,13.842949 3.71777582,14.6736664 3.9114886,15.4112651 C4.10520139,16.1488638 4.33616316,16.7746957 4.60438087,17.2887796 C4.87259857,17.8028635 5.14081225,18.2014589 5.40902995,18.4845776 C5.67724765,18.7676962 5.88585829,18.9092535 6.03486813,18.9092535 C6.15407599,18.9092535 6.23975536,18.8571008 6.29190881,18.7527939 C6.34406225,18.648487 6.42974162,18.5963344 6.54894949,18.5963344 C6.66815735,18.5963344 6.75011153,18.6708382 6.79481448,18.819848 C6.83951743,18.9688578 6.86186857,19.1253158 6.86186857,19.2892266 C6.86186857,19.7660581 6.76501363,20.2242565 6.57130085,20.6638355 C6.37758806,21.1034145 6.13545072,21.4610327 5.84488154,21.7367009 C5.55431236,22.0123691 5.23022083,22.1874531 4.87259723,22.261958 C4.51497363,22.3364629 4.17225615,22.2545087 3.84443451,22.016093 C3.44210796,21.7478753 3.01371111,21.3381044 2.55923111,20.786768 C2.10475112,20.2354316 1.68752984,19.5686226 1.30755476,18.786321 C0.927579683,18.0040193 0.614663724,17.1211493 0.368797497,16.1376844 C0.12293127,15.1542195 0,14.0813648 0,12.9190881 C0,11.3097819 0.193709879,9.86813333 0.581135449,8.59409924 C0.968561019,7.32006515 1.48636243,6.20623335 2.13455521,5.25257041 C2.78274799,4.29890747 3.53896156,3.48681605 4.4032186,2.81627179 C5.26747564,2.14572754 6.17642199,1.6018498 7.13008494,1.18462226 C8.08374788,0.767394725 9.05229727,0.465654336 10.0357622,0.279392043 C11.0192271,0.0931297497 11.957975,0 12.852034,0 C13.0904497,0 13.3214115,0.0484274698 13.5449262,0.145283862 C13.768441,0.242140255 13.9621509,0.376247094 14.1260617,0.547608404 C14.2899725,0.718969714 14.4240793,0.923855163 14.5283862,1.1622709 C14.6326931,1.40068663 14.6848458,1.65399955 14.6848458,1.92221726 L14.6848458,32.2753688 Z M81.0013411,17.1658471 C80.6735194,17.1658471 80.3568783,17.2627021 80.0514081,17.4564148 C79.745938,17.6501276 79.4590983,17.9146161 79.1908806,18.2498882 C78.9226629,18.5851604 78.687976,18.9912061 78.4868127,19.4680376 C78.2856494,19.944869 78.1180159,20.4589452 77.983907,21.0102816 L77.983907,30.9119356 C78.3117287,30.4351042 78.848156,30.0700355 79.5932052,29.8167188 C80.3382544,29.5634021 81.2397503,29.3920434 82.2977202,29.3026375 C82.5659379,28.9003109 82.8006248,28.4197614 83.0017881,27.8609745 C83.2029514,27.3021876 83.3705849,26.7247832 83.5046938,26.1287439 C83.6388026,25.5327045 83.7393828,24.9515749 83.8064372,24.3853375 C83.8734916,23.8191001 83.9070183,23.3199247 83.9070183,22.8877962 C83.9070183,21.8447273 83.8287893,20.9581321 83.672329,20.2279839 C83.5158687,19.4978357 83.3035329,18.9055305 83.0353152,18.4510505 C82.7670975,17.9965705 82.4579067,17.6687538 82.1077336,17.4675905 C81.7575605,17.2664272 81.3887667,17.1658471 81.0013411,17.1658471 Z M94.5015646,18.5069289 C94.6654754,18.1940083 94.8256586,17.7730618 94.9821189,17.2440769 C95.1385792,16.715092 95.2875868,16.1302371 95.4291462,15.4894949 C95.5707055,14.8487526 95.7010872,14.1782184 95.820295,13.4778722 C95.9395029,12.7775259 96.0438082,12.092091 96.1332141,11.4215467 C96.22262,10.7510025 96.2933986,10.1214454 96.3455521,9.5328565 C96.3977055,8.94426766 96.4237819,8.44136701 96.4237819,8.02413947 C96.4237819,6.50423916 96.3120262,5.39040735 96.0885114,4.68261064 C95.8649966,3.97481392 95.5669814,3.62092088 95.1944569,3.62092088 C95.075249,3.62092088 94.9709437,3.68052392 94.8815378,3.79973178 C94.7921319,3.91893965 94.7176281,4.07167244 94.6580241,4.25793473 C94.5984202,4.44419703 94.5574431,4.64535729 94.5350916,4.86142155 C94.5127402,5.07748581 94.5015646,5.27492088 94.5015646,5.45373268 L94.5015646,18.5069289 Z"/>
</svg>
