<svg id="Layer_1" data-name="Layer 1" xmlns="http://www.w3.org/2000/svg" viewBox="0 0 331.7 90.44"><defs><style>.cls-1{fill:#010101;}.cls-2{fill:#d70c17;}</style></defs><title>контур</title><path class="cls-1" d="M38.09,68.86H27.78l-20.26-22H7.35v22H0V23H7.35V44h.17L26.81,23h9.62L15.15,45.11Z"/><path class="cls-1" d="M188.88,68.86h-7.37V48H158.14V68.86h-7.36V23h7.36v18.8h23.37V23h7.37Z"/><path class="cls-1" d="M232.54,29.25H218.77V68.86h-7.32V29.25H197.63V23h34.91Z"/><path class="cls-1" d="M281.63,23l-21.1,53.2q-5.64,14.26-15.87,14.25a16.6,16.6,0,0,1-4.77-.57v-6.2a12.64,12.64,0,0,0,4.34.42c3.71,0,6.47-2.18,8.33-6.61l3.67-8.71L238.3,23h8.15l12.4,35.31c.17.45.49,1.6,1,3.47h.27c.15-.7.46-1.82.9-3.39L274,23Z"/><path class="cls-1" d="M297,62.21h-.18V89.95h-7.35V23h7.35v8H297c3.61-6.1,8.9-9.13,15.86-9.13,5.89,0,10.53,2,13.86,6.17s4.94,9.59,4.94,16.48c0,7.69-1.84,13.82-5.6,18.45s-8.83,6.92-15.32,6.92A15.32,15.32,0,0,1,297,62.21Zm-.18-18.51v6.41a13.56,13.56,0,0,0,3.71,9.66,13.15,13.15,0,0,0,19.84-1.12q3.79-5.12,3.79-14.24c0-5.1-1.2-9.1-3.55-12a11.72,11.72,0,0,0-9.6-4.34,13.06,13.06,0,0,0-10.3,4.47A16.46,16.46,0,0,0,296.86,43.71Z"/><path class="cls-2" d="M87.69,7.35a24.87,24.87,0,0,1,20,9.83l2.05,2.65L113,20a23.14,23.14,0,0,1-1.52,46.23H66.85a19.86,19.86,0,0,1-7-38.44L63,26.66l1.2-3.09A25.32,25.32,0,0,1,87.69,7.35m0-7.35A32.63,32.63,0,0,0,57.28,21a27.18,27.18,0,0,0,9.58,52.62h44.67a30.47,30.47,0,0,0,2-60.87A32.3,32.3,0,0,0,87.69,0Z"/></svg>