<svg id="Слой_1" data-name="Слой 1" xmlns="http://www.w3.org/2000/svg" viewBox="0 0 285.5 81.79"><defs><style>.cls-1{fill:#e30613;}.cls-2{fill:#878787;}</style></defs><title>maria</title><g id="Слой_1-2" data-name="Слой 1-2"><path class="cls-1" d="M264.87,16a11.73,11.73,0,0,1-2.7,6.22c-4.24,5-14.67,7.38-19.19,3.69-1.9-1.55-1.8-4.26-.11-6.11,2.91-3.18,9.14-3.94,13.5-4.12a68.18,68.18,0,0,1,8.27.23C265,16,264.73,15.91,264.87,16Zm18.59,27.79a18.51,18.51,0,0,1-8.21-3.54,13.19,13.19,0,0,1-4.65-7c-1.24-4.47,0-11,1-15.57.34-1.55.83-3.14,1.14-4.62a45.59,45.59,0,0,0-5.28-.6,94.35,94.35,0,0,0-16.89-.06C243,13.09,237.66,15,234,19.22c-1.82,2.07-3.23,5.63-1,8.43,1.52,1.93,4.53,3.32,7.74,4a27,27,0,0,0,15.07-1.49c1.39-.52,2.68-1.25,4-1.84-.44,1.52-3.31,5.38-4.49,6.64a39.43,39.43,0,0,1-4.45,4.41,22.51,22.51,0,0,1-4,2.68c-9.52,4.74-14.76-3.78-18.49-5.38-4.11-1.76-7.81,8.28-11.26,2.74-2.12-3.39-3.6-10.67-8.67-7.14a28.19,28.19,0,0,0-2.49,2c-1.17,1-2.44,2-3.59,3.1-2,1.9-6.93,5.9-9.48,6.1a2.17,2.17,0,0,1-2.41-1.9q0-.09,0-.19a7.23,7.23,0,0,1,.77-3.63,39.72,39.72,0,0,1,6.44-9.12,7.33,7.33,0,0,0,1-1.15,8.44,8.44,0,0,0-1.89-1.17c-2.83-1.3-4.57-.89-6.83.81-3.72,2.8-9,8.3-9.52,13.23-.06.52.07,1-.25,1.25-4.71,4-13.28,3.23-14.82-4.74-.34-1.76-.32-3.54-.72-5.32-1.45-6.62-6.18-6-10.88-3a49.62,49.62,0,0,0-5.88,4.72A3.2,3.2,0,0,1,147,34c.53-1.12,5.1-7.94,5.87-9,.59-.83,1.87-2.3.22-3.11a4.33,4.33,0,0,0-4,.43A8.78,8.78,0,0,0,147,25c-1.3,1.91-2.56,4-3.73,6.12s-2.35,4.25-3.47,6.46c-.43.84-.51.74-1.3,1.19A26,26,0,0,1,133.34,41c-2.25.7-5.88,1.71-8.41,1.27-3.7-.65-2-4.15-.64-6,.49-.7,2.07-2.31,1.34-3.22-2.17-2.68-9.38,5.11-16.36,7.25-2.22.68-6.73,1.62-7.22-1.14s2.2-5.3,3.41-6.31a24.11,24.11,0,0,1,6.32-3.54c9.73-3.87,14.51.39,16.12.39a3.37,3.37,0,0,0,.17-3.31,4.6,4.6,0,0,0-2.33-1.74c-5.73-2.22-15,.56-20.09,2.76a33.43,33.43,0,0,0-10,6.39c-2.59,2.35-6.12,6.43-5.85,10.48-5.71,2.59-11.47,1.2-14.33-2.64-3.84-5.14-1.66-10-4.06-15.47-1-2.28-2.64-4.06-5.86-4-4.9,0-10.58,5-14.16,7.88l-3.26,2.87c-.27.24-.31.42-.64.55-.35-1.78-.94-3.76-1.39-5.55l-2.89-11a8.94,8.94,0,0,0-2.43-4.44c-3.07-2.62-6.83.68-9.27,2.68a66.93,66.93,0,0,0-6.71,7.12l-3.13,3.81c-3.06,3.62-6.07,7.94-9,11.72-1,1.31-2,2.65-3,4A76.13,76.13,0,0,1,.85,51.92a4.83,4.83,0,0,0-.85.84,28.78,28.78,0,0,0,10.14-1,11.73,11.73,0,0,0,6.65-4.61c1.61-2,3.07-4.39,4.56-6.69,2.9-4.48,5.76-9.34,8.93-13.59a30.51,30.51,0,0,1,2.57-3.06c.51-.52,2.43-2.54,3.48-1.13s1.5,7.23,1.69,9.58c.26,3.38.44,6.88,1,10.18.46,2.82,1.51,7.63,4.75,4.77a18.36,18.36,0,0,0,1.38-1.43c.45-.51.92-1,1.37-1.45s.93-.94,1.39-1.43a57.89,57.89,0,0,1,7.28-6.79c1.92-1.45,5.74-3.54,7.86-1,3.45,4.18,3.49,9.6,9.82,12.69,4.92,2.41,11.05,2,16.06-.33a12.84,12.84,0,0,1,1.82-.91A4.47,4.47,0,0,0,92,47.75c3.68,2.2,10.49.56,14.13-.64a28.64,28.64,0,0,0,6.41-3.2c1.24-.77,4.49-2.9,5.65-3.88,0,.42-.23,1.35-.29,1.87-.2,1.77-.11,4.15,1.24,5.28,2.59,2.15,10.69-1.94,13.28-3.26l5.74-3.11c-.37,1.07-1.06,2.32-1.53,3.43a132,132,0,0,0-7.54,27.21c-.2,1.28-1,5.47-.35,6.61a1.61,1.61,0,0,0,1.55.9c2.12-.18,2.74-4.42,3.33-6.6,2.38-8.81,5.7-21.68,11-28.68,1.88-2.49,6.53-8.93,11.53-8.22,1.2.17,2,1.45,2.56,2.39,1.88,3.37,3,6.38,6.81,8.09,4.27,1.89,9.92,1,13.75-1.62a11.06,11.06,0,0,1,1.47-1c.63.74.66,1.63,2.48,2.75A11,11,0,0,0,187,47.46c7.74,1.47,13.71-2.78,19-7.46.65-.56,1.29-1.39,1.94-1.88a33.67,33.67,0,0,0,1.81,3.34c4.06,5.67,9.11,3.35,14.24.8,3.39-1.67,4.36-.63,7.29,1.1A26.44,26.44,0,0,0,234.71,45c5.72,2.29,11.71,1.07,16.67-1.32a37,37,0,0,0,6.33-3.85,27.64,27.64,0,0,0,4-3.59l1.09-1.37c.15.22,1,3,1.27,3.59,1.31,3.15,3.27,6.61,5.9,8.5s4.26,1.59,7.33.32a34.45,34.45,0,0,0,4.7-2.5c.26-.16.46-.29.75-.49l.35-.23.33-.3ZM81.08,30.47a4,4,0,1,1,4.3,3.68h0A4,4,0,0,1,81.08,30.47ZM84.3,25.4a4.76,4.76,0,0,0-4,5.4l0,.12a4.8,4.8,0,1,0,4-5.52ZM84,28.25c.85,0,2.27-.23,2.22.81s-1.41.74-2.24.73V28.25ZM82.75,32.9h1.18V30.66h1.31l.9,2.23h1.21l-1-2.44a1.55,1.55,0,0,0,.43-2.7c-.79-.6-2.91-.38-4.06-.38V32.9Z"/><path class="cls-2" d="M218,61.72h-2.32c-.33.11-.44,1.36-.53,1.78l-1.65,7.7c-.15.71-.8,3.25-.78,3.77H225.3c.23-.59,2.85-13,2.82-13.25h-2.44l-2.38,11h-2.5c-.09-.83,2.29-10,2.25-11h-2.41c-.2.47-1,4.68-1.22,5.55s-.4,1.88-.6,2.79c-.09.46-.2.94-.29,1.38-.05.26-.12,1.2-.4,1.29h-2.45l2.31-11ZM254.87,73a31.94,31.94,0,0,1,.84-4c.19-.84.2-1.46.62-1.78s1.3-.51,1.57.17c.43,1.05-.3,4.63-1.36,5.59a1.16,1.16,0,0,1-1.64,0l0,0Zm-2.4-6c.75-.31,1.37.14,1.19,1l-.88,3.91c-.19.82-.09,1.22-.91,1.43-1.8.46-1.32-2.07-1.05-3.21s.74-2.72,1.65-3.09Zm4.73-4.64c-2.36,0-2.24-.18-2.38.39L254.54,64c-.13.57-.27,1.17-.39,1.75-.6-.35-.83-.86-2-.66a3.87,3.87,0,0,0-1.75.9c-1.83,1.54-3.89,8.39-.31,9.09,1.06.2,1.33-.21,2.05-.49l-.76,3.5c2.75,0,2.17.45,2.67-1.75a12.37,12.37,0,0,1,.41-1.72,2.3,2.3,0,0,0,2.11.44c3.63-.7,4.44-7.19,3.43-9a1.9,1.9,0,0,0-1.65-1,3.3,3.3,0,0,0-1.91.68l.75-3.41Zm-106.91-.6h-2.46L145.05,75h2.45c.27-.93.74-3.36,1-4.55.21-1,.15-1.4.6-1.4,1.17,0,1.92-.12,2,1.17.1,1.6-.29,3.67.68,4.44a2.82,2.82,0,0,0,2,.43c.17-.2,1-1.65.83-2s-.39-.12-.76-.26c-.63-.24-.46-1.42-.46-2.32,0-2-.37-1.9-1.11-2.5l-.09-.09c1.26-.35,1.63-1.09,2.11-2.35A10.41,10.41,0,0,1,155,64c.44-.69.88-.38,1.39-.76a3.51,3.51,0,0,0-.16-1.81,3.46,3.46,0,0,0-2.42.71,4.15,4.15,0,0,0-1.2,1.95c-1.1,2.71-.84,2.87-3.36,2.86l1.06-5.25Zm94.29,5.71a25.9,25.9,0,0,1-1,4.11c-.76,1.76-2.54,2.22-2.84,1a8.91,8.91,0,0,1,.72-4.28c.64-1.43,1.72-2,3.07-.84ZM246.1,75a14.26,14.26,0,0,1-.21-2.69,22.5,22.5,0,0,1,.41-2.48c.19-.94,1-4.16,1-4.73h-2.05l-.18.9c-.64-.36-.91-1-2.15-1-2.37,0-3.82,2.57-4.3,4.84-.37,1.71-.43,4,.79,4.91a2.53,2.53,0,0,0,2.47,0,4.13,4.13,0,0,0,.91-.57l.8-.73c.16,2,0,1.5,2.47,1.5Zm-68-9.91h-2.28L173.7,75h2.24c.3-1,.49-2.15.72-3.18s0-1,.9-1h1.9L178.58,75h2.26L183,65.08c-2.3,0-2.23-.18-2.36.41l-.31,1.45c-.15.65-.29,1.34-.43,2h-2.59l.81-3.8ZM191.57,75a11.61,11.61,0,0,1-.2-2.67c.31-1.94,1.28-5,1.65-7.24h-2.29c-.32,1.47-.66,3-1,4.44s-.82,3-2,3.47c-2.13.82-.9-2.46-.66-3.48.32-1.38.84-3.08,1-4.44h-2.29c-.31,1.26-1.65,6.7-1.73,7.57-.13,1.54.69,2.62,2.26,2.4s2.36-1.51,2.82-1.83c.1,2.14-.17,1.74,2.42,1.74ZM205,75a8.2,8.2,0,0,1-.22-2.71c.23-1.36,1.57-6.45,1.63-7.19h-2.27c-.42,1.75-1.08,5.76-2,7a1.93,1.93,0,0,1-2,.92c-.71-.5.18-3.16.38-4a37.36,37.36,0,0,0,.91-4h-2.26c-.23.7-1.67,6.84-1.74,7.51-.3,2.92,2.52,3.24,4.46,1.31a3.51,3.51,0,0,1,.61-.61,5.29,5.29,0,0,0,.22,1.7Zm27.79-9.89h-2.27L228.26,75h2.27l.91-4.14c.79,0,1.44-.17,1.65.54.34,1.16-.12,2.79.92,3.39a3.34,3.34,0,0,0,1.76.31,4.9,4.9,0,0,0,.75-1.84c-1.22-.34-1-.15-1.14-1.59-.1-1-.3-1.42-1-1.69.39-.28.85-.07,1.67-1.67s.9-1.08,1.76-1.45a5.57,5.57,0,0,0-.16-1.77,2.94,2.94,0,0,0-3.07,1.75c-.85,1.76-.71,2.29-2.63,2.09l.84-3.81ZM154,78.07c.67.85,3,1.23,4.61-.19s3.37-6.31,4.19-8.39c.28-.71.6-1.52.91-2.24a18,18,0,0,0,.85-2.15h-2.27A32.09,32.09,0,0,0,161,69a30.56,30.56,0,0,1-1.41,3.77c-.23-1.2-.37-2.54-.52-3.78-.11-1-.2-3-.4-3.91h-2l1.64,9.3a2.15,2.15,0,0,1-1.55,2.54c-.89.15-1.14-.23-1.81-.36a5.23,5.23,0,0,0-.9,1.53ZM170.16,70c.27-.52,3.55-4.12,4-4.87H171.4c-.33.54-.74,1.09-1.14,1.65a13.27,13.27,0,0,1-1.16,1.61L168,65.1h-2.31c.07.63,1.78,3.91,2,4.85-.3.47-1.64,1.91-2.15,2.54-.36.44-.71.8-1.07,1.25a9.37,9.37,0,0,0-1,1.24h2.68c.5-.56,2.23-3.14,2.55-3.43L170.11,75h2.39a19.94,19.94,0,0,0-1.16-2.53c-.35-.7-.91-1.76-1.18-2.5ZM264,73.23a23.74,23.74,0,0,1,.56-2.53c.07-.27.07-.3.34-.37,2.18-.55,2.43,1.7,1.43,2.66C265.72,73.57,264.87,73.37,264,73.23Zm1.8-8.15h-2.27c-.43,2.06-.93,4.19-1.4,6.28-.12.51-.23,1-.35,1.55s-.39,1.06.11,1.35a6.76,6.76,0,0,0,3,.85c4.83.2,5.35-4.88,3.36-6.11-1-.64-1.94-.43-3.2-.31l.77-3.61Zm8.55,0h-2.26c-.34,1.65-.73,3.29-1.1,4.93a44.91,44.91,0,0,0-1,5h2.23l2.19-9.9Z"/></g></svg>