<svg xmlns="http://www.w3.org/2000/svg" width="147.036" height="40" viewBox="0 0 147.036 40">
  <defs>
    <style>
      .cls-1 {
        fill: #fbc45d;
      }

      .cls-2 {
        fill: #141414;
      }
    </style>
  </defs>
  <g id="Group_515" data-name="Group 515" transform="translate(-140.5 -59.981)">
    <path id="Path_425" data-name="Path 425" class="cls-1" d="M-6219.554,827.632a18,18,0,0,1-3.4-1.054,18.155,18.155,0,0,1-3.073-1.668,18.213,18.213,0,0,1-2.677-2.209,18.231,18.231,0,0,1-2.21-2.678,18.093,18.093,0,0,1-1.668-3.073,18.022,18.022,0,0,1-1.053-3.4,18.146,18.146,0,0,1-.368-3.647v-20l5.972-1.9a12.141,12.141,0,0,0-.066,1.266v6.106l17.9-5.433v6.218l-17.9,5.577V809.7a12.2,12.2,0,0,0,12.187,12.187A12.2,12.2,0,0,0-6203.72,809.7v-3.336l-18.422,5.483v-6.416l23.246-6.731,1.084-.315v11.518a18.281,18.281,0,0,1-.367,3.647,18.008,18.008,0,0,1-1.055,3.4,18.06,18.06,0,0,1-1.667,3.073,18.207,18.207,0,0,1-2.21,2.678,18.232,18.232,0,0,1-2.677,2.209,18.089,18.089,0,0,1-3.074,1.668,18,18,0,0,1-3.4,1.054,18.243,18.243,0,0,1-3.647.368A18.239,18.239,0,0,1-6219.554,827.632Z" transform="translate(6374.5 -728.018)"/>
    <path id="Path_426" data-name="Path 426" class="cls-2" d="M3.626,0H5.46V-8.386H6.972a.274.274,0,0,1,.308.308v.6H8.9V-9.044c0-.658-.238-.9-.9-.9H1.064c-.658,0-.882.238-.882.9v1.568h1.61v-.6A.274.274,0,0,1,2.1-8.386H3.626Zm7.112-5.04A5.087,5.087,0,0,0,15.876.168,5.087,5.087,0,0,0,21.014-5.04a5.022,5.022,0,0,0-5.138-5.068A5.022,5.022,0,0,0,10.738-5.04Zm1.9,0A3.265,3.265,0,0,1,15.876-8.4,3.265,3.265,0,0,1,19.11-5.04a3.337,3.337,0,0,1-3.234,3.5A3.337,3.337,0,0,1,12.642-5.04Zm10.612,0A5.087,5.087,0,0,0,28.392.168,5.087,5.087,0,0,0,33.53-5.04a5.022,5.022,0,0,0-5.138-5.068A5.022,5.022,0,0,0,23.254-5.04Zm1.9,0A3.265,3.265,0,0,1,28.392-8.4a3.265,3.265,0,0,1,3.234,3.36,3.337,3.337,0,0,1-3.234,3.5A3.337,3.337,0,0,1,25.158-5.04ZM36.666-.952c0,.672.294.952.952.952H42c.672,0,.952-.28.952-.952V-2.464H41.3v.6a.28.28,0,0,1-.308.308H38.808a.28.28,0,0,1-.308-.308V-8.988c0-.658-.28-.952-.938-.952H35.756v1.554h.6a.28.28,0,0,1,.308.308ZM45.094,0h3.738V-1.554h-.994V-8.386h.994V-9.94H45.094v1.554H46.1v6.832H45.094Zm6.048-5.026A4.864,4.864,0,0,0,55.972.168,4.3,4.3,0,0,0,58.9-.9h.028s-.014.21-.014.42V0H60.48V-4.242c0-.658-.28-.938-.938-.938H57.918v1.554h.6a.274.274,0,0,1,.308.308v.742a3.562,3.562,0,0,1-2.52,1.036,3.259,3.259,0,0,1-3.262-3.5,3.226,3.226,0,0,1,3.192-3.374,4.253,4.253,0,0,1,2.548.882l1.036-1.316a5.068,5.068,0,0,0-3.612-1.26A4.983,4.983,0,0,0,51.142-5.026ZM63.728,0h1.834V-3.71h.924c.532,0,.728.07.938.462L68.712-.742c.322.63.644.742,1.386.742h.952V-1.554h-.182c-.308,0-.546-.028-.686-.322L69.2-3.794a1.14,1.14,0,0,0-.49-.5v-.028a2.586,2.586,0,0,0,1.666-2.618,2.863,2.863,0,0,0-3.094-3H62.818v1.554h.91Zm1.834-5.278V-8.386h1.484a1.361,1.361,0,0,1,1.442,1.54,1.384,1.384,0,0,1-1.47,1.568ZM72.856,0h1.106c.7,0,.952-.182,1.162-.812l.63-1.736H79.1l.63,1.736c.21.63.462.812,1.162.812h1.092V-1.554H81.76c-.238,0-.336-.056-.434-.308L78.386-9.94H76.468L73.514-1.862c-.084.252-.182.308-.42.308h-.238Zm3.318-4.06.84-2.492c.182-.546.392-1.484.392-1.484h.028s.224.938.406,1.484l.854,2.492ZM83.86,0h1.582c.658,0,.9-.28.938-.952l.336-4.424A14.466,14.466,0,0,0,86.73-6.93h.028s.308.994.546,1.554l1.652,3.668H90.44l1.652-3.668a16.28,16.28,0,0,0,.546-1.54h.028a14.193,14.193,0,0,0,.014,1.54l.336,4.424c.042.672.28.952.938.952h1.582V-1.554H95.1c-.2,0-.294-.112-.308-.308L94.15-9.94h-1.9L90.2-5.208c-.238.574-.49,1.33-.49,1.33h-.028s-.252-.756-.49-1.33L87.15-9.94h-1.9L84.6-1.862c-.014.2-.112.308-.308.308H83.86Z" transform="translate(192 84)"/>
  </g>
</svg>
