<svg id="Слой_1" data-name="Слой 1" xmlns="http://www.w3.org/2000/svg" viewBox="0 0 345.46 105.74"><defs><style>.cls-1{fill:#1e398d;}.cls-1,.cls-2{fill-rule:evenodd;}.cls-2{fill:#fff;}</style></defs><title>уралсиб</title><polygon class="cls-1" points="109.15 88.03 96.66 88.03 102.35 77.98 88.2 52.78 100.88 52.78 108.23 67.75 115.58 52.78 128.08 52.78 109.15 88.03 109.15 88.03"/><path class="cls-1" d="M267,88H251.38c-8.64,0-15.44-7.12-15.44-17.17,0-11.32,6.8-18.08,15.44-18.08H267v8.77H256.89c-6.06,0-9.56,1.83-9.56,9.13,0,7.12,3.49,8.58,9.56,8.58H267V88Z"/><polygon class="cls-1" points="307.98 88.03 296.4 88.03 296.4 63.19 283.17 88.03 269.39 88.03 269.39 52.78 280.78 52.78 280.78 76.89 294.01 52.78 307.98 52.78 307.98 88.03 307.98 88.03"/><polygon class="cls-1" points="158.95 88.03 173.83 52.78 186.7 52.78 199.01 82 211.32 52.78 224 52.78 238.88 88.03 226.76 88.03 217.75 62.64 208.56 88.03 201.4 88.03 196.44 88.03 189.45 88.03 186.7 80.72 173.83 80.72 171.08 88.03 158.95 88.03 158.95 88.03"/><polygon class="cls-2" points="180.27 62.64 176.59 72.69 183.94 72.69 180.27 62.64 180.27 62.64"/><path class="cls-1" d="M140.39,88H129V52.78H152.7c11.94,0,11.94,9.86,11.94,12.05,0,2.37,0,13-11.94,13H140.39V88Z"/><path class="cls-2" d="M140.39,69h8.27c1.29,0,4.59,0,4.59-3.83,0-3.65-3.31-3.65-4.59-3.65h-8.27V69Z"/><path class="cls-1" d="M343.81,52.78v8.77H321.76v4.57h11.58c12.13,0,12.13,6.94,12.13,10.78,0,4,0,11.14-11.94,11.14H310.18V52.78Z"/><path class="cls-2" d="M321.76,74.33v5.48h9.74c2.57,0,2.57-2,2.57-2.92,0-.73,0-2.56-2.57-2.56Z"/><path class="cls-1" d="M36.75,35.25a5.88,5.88,0,0,1,2.57.36l-.18-23.92h2.94s-.37,6.57.92,24.47A34.91,34.91,0,0,1,54.39,99.9c-.18-.18-.55-.73-.92-1.1h0C43,85.47,40.43,65.56,39.69,48.21a37,37,0,0,0,4.41.73A74.14,74.14,0,0,0,63,88.39,23.47,23.47,0,0,0,61.56,57a34.92,34.92,0,0,0-16.9-10,38.81,38.81,0,0,0-9.37-1.1,41.07,41.07,0,0,0-9.37,1.1C12.31,50.41,2.21,61,2.21,73.6A25.3,25.3,0,0,0,7.35,88.39,72.84,72.84,0,0,0,26.28,48.94c1.47-.18,2.94-.36,4.6-.73-.74,17.35-3.31,37.07-13.78,50.4v-.18A10,10,0,0,1,16,99.9,35.08,35.08,0,0,1,27.75,36.16c.92-17.9.73-24.47.73-24.47h2.94l-.18,23.92a5.47,5.47,0,0,1,2.39-.36V0h3.12V35.25ZM36.94,48c.37,16.62,1.47,37.44,7,51.5.55,1.46,1.47,3.1,2.21,4.57a43.32,43.32,0,0,1-10.84,1.64,40.88,40.88,0,0,1-10.84-1.64c.92-1.83,1.65-3.47,2.39-5.12C32,85.1,33.44,64.47,33.63,48h3.31Z"/></svg>