<svg id="_x3F__x3F__x3F__x3F__1" xmlns="http://www.w3.org/2000/svg" viewBox="0 0 238.9 47.9"><style>.st0{fill-rule:evenodd;clip-rule:evenodd;fill:#367741}</style><path class="st0" d="M18.8 1.2c4.2.8 7.4 4.2 7.4 8.2v.1c-1.7-.4-3.6-.4-5.3-.1 0-1.6-1.2-3-2.8-3.3-.6-.1-1.3-.1-1.9 0-1.6.4-2.8 1.7-2.8 3.3-1.8-.3-3.6-.3-5.4.1v-.1c0-4.1 3.2-7.5 7.5-8.2 1.1-.2 2.2-.1 3.3 0zm-4.5 46.4h5.6v-29c.6-1.2 1.9-2.1 3.4-2.1 2.1 0 3.8 1.6 3.8 3.5s-1.7 3.5-3.8 3.5c-.3 0-.6 0-.9-.1v5.1c.9-.4 1.9-.4 2.9-.3 2.2.4 3.8 2.2 3.8 4.3 0 2.4-2.1 4.4-4.8 4.4-.7 0-1.3-.1-1.9-.4v5.1c.6.1 1.2.2 1.9.2 5.6 0 10.1-4.2 10.1-9.3 0-3-1.6-5.7-4-7.4 1.2-1.4 2-3.2 2-5.2 0-4.6-4.1-8.3-9.1-8.3-2.2 0-4.3.9-5.9 2.2-.1.1-.2.1-.2.2-.1-.1-.2-.1-.3-.2-1.5-1.3-3.6-2.2-6.1-2.2-5 0-9.1 3.7-9.1 8.3 0 1.9.7 3.7 2 5.2-2.4 1.7-4 4.4-4 7.4 0 5.1 4.5 9.3 10.1 9.3.6 0 1.2-.1 1.8-.2v-5.1c-1.3.5-2.8.4-4.1-.2-1.4-.8-2.4-2-2.5-3.6 0-1.3.5-2.4 1.4-3.3 1.4-1.2 3.4-1.6 5.2-1v-5.1c-1.3.3-2.6-.1-3.6-1-.6-.6-.9-1.3-1-2.1-.1-1.9 1.5-3.4 3.4-3.6 1.5-.1 3 .6 3.8 2l.1.1v28.9zm212.1-24.3c.4-1.5.8-3.6 1.1-5.2h.1c.3 1.6.8 3.6 1.2 5.3l1.5 5.9h-5.5l1.6-6zm-1.8-9.3l-7.3 25.7h5l1.8-6.8h6.9l1.8 6.8h5.2L230.9 14h-6.3zm-8.2 0h-5.9l-5.5 8.7c-.5 1-1.1 1.9-1.6 2.9h-.1V14h-4.9v25.7h4.9v-8.8l1.9-2.6 6 11.4h5.7L208.6 25l7.8-11zm-28.1 0h5v25.7h-5zm-12.5 21.5V14h-5v25.7H185v-4.2zm-20.1-12.2c.4-1.5.8-3.6 1.1-5.2h.1c.3 1.6.8 3.6 1.2 5.3l1.5 5.9h-5.5l1.6-6zM154 14l-7.3 25.7h5l1.8-6.8h6.9l1.8 6.8h5.2L160.2 14H154zm-16.7 15h8.2v-4.1h-8.2v-6.8h8.8V14h-13.8v25.7h5zm-25.6-15v4.3h6.4v21.4h4.9V18.3h6.4V14zM94.3 38.7c1.2.7 3.8 1.4 6.4 1.4 6 0 9.4-3.3 9.4-7.8 0-3.4-1.9-5.8-6-7.6-3.2-1.4-4.4-2.3-4.4-4.1 0-1.4 1.2-2.9 3.8-2.9 2.1 0 3.7.6 4.6 1.1l1-4.1c-1.2-.6-3.1-1.2-5.6-1.2-5.6 0-8.9 3.3-8.9 7.5 0 3.4 2.4 5.8 6.3 7.5 2.9 1.2 4.1 2.4 4.1 4.2 0 1.9-1.4 3.2-4.2 3.2-2.1 0-4.2-.6-5.6-1.4l-.9 4.2zm-12.2-3.1v-7.2h8.5v-4.1h-8.5v-6.2h9V14H77.2v25.7h14.4v-4.1zM67.4 25c-.5 3.1-1 6-1.4 9h-.1c-.3-3-.8-5.9-1.4-8.9L62.3 14h-4.9l-2.3 11c-.7 3.2-1.3 6.2-1.7 9.1h-.1c-.4-2.7-.9-5.9-1.4-9l-2-11.1h-5.3l5.7 25.7h5.2L58 28.8c.6-2.7 1.1-5.3 1.5-8.2h.1c.3 2.9.7 5.5 1.3 8.2l2.2 10.9h5.3L74.5 14h-5l-2.1 11z"/></svg>