<svg width="270" height="54" viewBox="0 0 270 54" fill="none" xmlns="http://www.w3.org/2000/svg">
<path fill-rule="evenodd" clip-rule="evenodd" d="M43.5698 42.7474C42.2434 36.2839 37.4452 29.9115 34.1554 29.5281C30.1018 30.8357 28.199 32.9488 23.5663 36.3695C20.5109 38.6205 18.0511 39.575 18.0511 39.575C18.0511 39.575 23.9248 50.546 31.4723 47.8977C34.7758 46.7419 37.4783 40.2757 43.5698 42.7474" fill="#23B175"/>
<path fill-rule="evenodd" clip-rule="evenodd" d="M52.5071 50.9847C58.1188 40.1157 67.5359 34.6481 67.5359 34.6481C67.5359 34.6481 62.7046 30.0964 54.3823 27.8426C44.3778 25.1419 37.5831 27.8702 37.5831 27.8702C37.5831 27.8702 44.7639 31.5281 46.9313 43.484C48.1998 50.4909 52.1707 50.9874 52.5099 50.9874" fill="#EC5956"/>
<path fill-rule="evenodd" clip-rule="evenodd" d="M39.3425 0.466007C34.8476 0.214973 29.9585 0.631524 24.6529 1.95566C9.38418 5.77911 -5.79076 22.0274 3.30924 34.6508C11.5902 45.5253 24.2062 30.786 32.8815 26.3695C29.5035 17.6881 32.7353 8.33635 39.3425 0.466007" fill="#27A8E0"/>
<path fill-rule="evenodd" clip-rule="evenodd" d="M43.0072 0.830322C36.4828 8.07446 33.0689 16.7476 35.73 25.142C54.4125 18.16 69.797 32.2565 69.797 32.2565C69.797 32.2565 73.528 22.5876 66.1488 13.3655C61.7173 7.82067 53.7673 2.37515 43.0072 0.830322" fill="#FAAD40"/>
<path fill-rule="evenodd" clip-rule="evenodd" d="M95.8534 25.1419V35.7626C96.8268 35.8785 98.4841 36.0468 100.497 36.0468C105.259 36.0468 107.849 34.044 107.849 30.2537C107.849 26.8633 105.259 25.1419 100.845 25.1419H95.8534V25.1419ZM95.8534 8.84126V18.9985H100.607C103.881 18.9985 106.58 17.3433 106.58 13.6661C106.58 10.3916 104.057 8.67299 100.265 8.67299C98.6606 8.67299 97.1136 8.73092 95.8534 8.84126V8.84126ZM88.7885 2.35299C91.0331 2.24264 96.3663 2.06885 100.379 2.06885C109.964 2.06885 113.587 6.43299 113.587 11.9999C113.587 16.5875 111.282 19.5199 107.852 21.1254V21.2385C111.8 22.2178 114.9 25.2551 114.9 30.593C114.9 38.8606 108.478 42.6537 99.9814 42.6537C96.3056 42.6537 91.1489 42.5351 88.7885 42.364V2.35299V2.35299Z" fill="black"/>
<path fill-rule="evenodd" clip-rule="evenodd" d="M119.937 42.4188V16.5898H126.531V32.9485L138.581 16.5898H145.183V42.4188H138.581V26.0657L126.531 42.4188H119.937Z" fill="black"/>
<path fill-rule="evenodd" clip-rule="evenodd" d="M166.254 28.8714L177.384 42.4162H168.786L158.561 29.3928L167.862 16.5928H176.184L166.257 28.8742L166.254 28.8714ZM151.741 42.4162H158.332V16.5928H151.741V42.4217V42.4162Z" fill="black"/>
<path fill-rule="evenodd" clip-rule="evenodd" d="M180.499 42.4188V16.5898H187.089V32.9485L199.151 16.5898H205.744V42.4188H199.151V26.0657L187.089 42.4188H180.499Z" fill="black"/>
<path fill-rule="evenodd" clip-rule="evenodd" d="M227.051 42.4191C223.264 51.6659 220.849 53.9004 217.068 53.9004C214.713 53.9004 212.992 52.9791 211.498 51.8977L213.621 46.8963C214.311 47.2991 215.287 47.8177 216.315 47.8177C217.978 47.8177 219.183 46.4991 220.275 43.8011L220.849 42.4191L208.911 16.5901H216.831L222.859 30.7115C223.383 31.9749 223.725 33.1804 224.119 34.4466C224.348 33.2411 224.58 31.9749 225.038 30.6535L229.69 16.5901H237.207L227.051 42.4191V42.4191Z" fill="black"/>
<path fill-rule="evenodd" clip-rule="evenodd" d="M240.378 16.5894H246.343L255.12 27.3838L263.442 16.5894H269.241V42.4183H262.634V26.639L255.012 36.2804H254.836L246.974 26.639V42.4183H240.378V16.5894Z" fill="black"/>
</svg>
